G04 #@! TF.GenerationSoftware,KiCad,Pcbnew,8.0.4*
G04 #@! TF.CreationDate,2024-08-25T14:32:18+07:00*
G04 #@! TF.ProjectId,ozprey,6f7a7072-6579-42e6-9b69-6361645f7063,1.0*
G04 #@! TF.SameCoordinates,Original*
G04 #@! TF.FileFunction,Legend,Bot*
G04 #@! TF.FilePolarity,Positive*
%FSLAX46Y46*%
G04 Gerber Fmt 4.6, Leading zero omitted, Abs format (unit mm)*
G04 Created by KiCad (PCBNEW 8.0.4) date 2024-08-25 14:32:18*
%MOMM*%
%LPD*%
G01*
G04 APERTURE LIST*
G04 Aperture macros list*
%AMRoundRect*
0 Rectangle with rounded corners*
0 $1 Rounding radius*
0 $2 $3 $4 $5 $6 $7 $8 $9 X,Y pos of 4 corners*
0 Add a 4 corners polygon primitive as box body*
4,1,4,$2,$3,$4,$5,$6,$7,$8,$9,$2,$3,0*
0 Add four circle primitives for the rounded corners*
1,1,$1+$1,$2,$3*
1,1,$1+$1,$4,$5*
1,1,$1+$1,$6,$7*
1,1,$1+$1,$8,$9*
0 Add four rect primitives between the rounded corners*
20,1,$1+$1,$2,$3,$4,$5,0*
20,1,$1+$1,$4,$5,$6,$7,0*
20,1,$1+$1,$6,$7,$8,$9,0*
20,1,$1+$1,$8,$9,$2,$3,0*%
%AMRotRect*
0 Rectangle, with rotation*
0 The origin of the aperture is its center*
0 $1 length*
0 $2 width*
0 $3 Rotation angle, in degrees counterclockwise*
0 Add horizontal line*
21,1,$1,$2,0,0,$3*%
G04 Aperture macros list end*
%ADD10C,0.150000*%
%ADD11C,0.120000*%
%ADD12C,0.100000*%
%ADD13C,0.381000*%
%ADD14C,1.752600*%
%ADD15R,1.000000X0.800000*%
%ADD16C,0.900000*%
%ADD17R,0.700000X1.500000*%
%ADD18C,1.701800*%
%ADD19C,3.000000*%
%ADD20C,3.429000*%
%ADD21RotRect,2.600000X2.600000X342.000000*%
%ADD22C,2.032000*%
%ADD23RotRect,2.600000X2.600000X18.000000*%
%ADD24RoundRect,0.250000X0.160510X-0.315018X0.315018X0.160510X-0.160510X0.315018X-0.315018X-0.160510X0*%
%ADD25RoundRect,0.250000X0.315018X-0.160510X0.160510X0.315018X-0.315018X0.160510X-0.160510X-0.315018X0*%
G04 APERTURE END LIST*
D10*
X148625133Y-79713493D02*
X149234657Y-79713493D01*
X148929895Y-80018255D02*
X148929895Y-79408731D01*
X166851213Y-34485000D02*
X166708356Y-34532619D01*
X166708356Y-34532619D02*
X166470261Y-34532619D01*
X166470261Y-34532619D02*
X166375023Y-34485000D01*
X166375023Y-34485000D02*
X166327404Y-34437380D01*
X166327404Y-34437380D02*
X166279785Y-34342142D01*
X166279785Y-34342142D02*
X166279785Y-34246904D01*
X166279785Y-34246904D02*
X166327404Y-34151666D01*
X166327404Y-34151666D02*
X166375023Y-34104047D01*
X166375023Y-34104047D02*
X166470261Y-34056428D01*
X166470261Y-34056428D02*
X166660737Y-34008809D01*
X166660737Y-34008809D02*
X166755975Y-33961190D01*
X166755975Y-33961190D02*
X166803594Y-33913571D01*
X166803594Y-33913571D02*
X166851213Y-33818333D01*
X166851213Y-33818333D02*
X166851213Y-33723095D01*
X166851213Y-33723095D02*
X166803594Y-33627857D01*
X166803594Y-33627857D02*
X166755975Y-33580238D01*
X166755975Y-33580238D02*
X166660737Y-33532619D01*
X166660737Y-33532619D02*
X166422642Y-33532619D01*
X166422642Y-33532619D02*
X166279785Y-33580238D01*
X165946451Y-33532619D02*
X165708356Y-34532619D01*
X165708356Y-34532619D02*
X165517880Y-33818333D01*
X165517880Y-33818333D02*
X165327404Y-34532619D01*
X165327404Y-34532619D02*
X165089309Y-33532619D01*
X164946452Y-34627857D02*
X164184547Y-34627857D01*
X163946451Y-34532619D02*
X163946451Y-33532619D01*
X163946451Y-33532619D02*
X163565499Y-33532619D01*
X163565499Y-33532619D02*
X163470261Y-33580238D01*
X163470261Y-33580238D02*
X163422642Y-33627857D01*
X163422642Y-33627857D02*
X163375023Y-33723095D01*
X163375023Y-33723095D02*
X163375023Y-33865952D01*
X163375023Y-33865952D02*
X163422642Y-33961190D01*
X163422642Y-33961190D02*
X163470261Y-34008809D01*
X163470261Y-34008809D02*
X163565499Y-34056428D01*
X163565499Y-34056428D02*
X163946451Y-34056428D01*
X163041689Y-33532619D02*
X162803594Y-34532619D01*
X162803594Y-34532619D02*
X162613118Y-33818333D01*
X162613118Y-33818333D02*
X162422642Y-34532619D01*
X162422642Y-34532619D02*
X162184547Y-33532619D01*
X161232166Y-34532619D02*
X161565499Y-34056428D01*
X161803594Y-34532619D02*
X161803594Y-33532619D01*
X161803594Y-33532619D02*
X161422642Y-33532619D01*
X161422642Y-33532619D02*
X161327404Y-33580238D01*
X161327404Y-33580238D02*
X161279785Y-33627857D01*
X161279785Y-33627857D02*
X161232166Y-33723095D01*
X161232166Y-33723095D02*
X161232166Y-33865952D01*
X161232166Y-33865952D02*
X161279785Y-33961190D01*
X161279785Y-33961190D02*
X161327404Y-34008809D01*
X161327404Y-34008809D02*
X161422642Y-34056428D01*
X161422642Y-34056428D02*
X161803594Y-34056428D01*
X160279785Y-34532619D02*
X160851213Y-34532619D01*
X160565499Y-34532619D02*
X160565499Y-33532619D01*
X160565499Y-33532619D02*
X160660737Y-33675476D01*
X160660737Y-33675476D02*
X160755975Y-33770714D01*
X160755975Y-33770714D02*
X160851213Y-33818333D01*
D11*
X151148069Y-30806370D02*
X151195688Y-30949227D01*
X151195688Y-30949227D02*
X151243307Y-30996846D01*
X151243307Y-30996846D02*
X151338545Y-31044465D01*
X151338545Y-31044465D02*
X151481402Y-31044465D01*
X151481402Y-31044465D02*
X151576640Y-30996846D01*
X151576640Y-30996846D02*
X151624260Y-30949227D01*
X151624260Y-30949227D02*
X151671879Y-30853989D01*
X151671879Y-30853989D02*
X151671879Y-30473037D01*
X151671879Y-30473037D02*
X150671879Y-30473037D01*
X150671879Y-30473037D02*
X150671879Y-30806370D01*
X150671879Y-30806370D02*
X150719498Y-30901608D01*
X150719498Y-30901608D02*
X150767117Y-30949227D01*
X150767117Y-30949227D02*
X150862355Y-30996846D01*
X150862355Y-30996846D02*
X150957593Y-30996846D01*
X150957593Y-30996846D02*
X151052831Y-30949227D01*
X151052831Y-30949227D02*
X151100450Y-30901608D01*
X151100450Y-30901608D02*
X151148069Y-30806370D01*
X151148069Y-30806370D02*
X151148069Y-30473037D01*
X151671879Y-31901608D02*
X151148069Y-31901608D01*
X151148069Y-31901608D02*
X151052831Y-31853989D01*
X151052831Y-31853989D02*
X151005212Y-31758751D01*
X151005212Y-31758751D02*
X151005212Y-31568275D01*
X151005212Y-31568275D02*
X151052831Y-31473037D01*
X151624260Y-31901608D02*
X151671879Y-31806370D01*
X151671879Y-31806370D02*
X151671879Y-31568275D01*
X151671879Y-31568275D02*
X151624260Y-31473037D01*
X151624260Y-31473037D02*
X151529021Y-31425418D01*
X151529021Y-31425418D02*
X151433783Y-31425418D01*
X151433783Y-31425418D02*
X151338545Y-31473037D01*
X151338545Y-31473037D02*
X151290926Y-31568275D01*
X151290926Y-31568275D02*
X151290926Y-31806370D01*
X151290926Y-31806370D02*
X151243307Y-31901608D01*
X151005212Y-32234942D02*
X151005212Y-32615894D01*
X150671879Y-32377799D02*
X151529021Y-32377799D01*
X151529021Y-32377799D02*
X151624260Y-32425418D01*
X151624260Y-32425418D02*
X151671879Y-32520656D01*
X151671879Y-32520656D02*
X151671879Y-32615894D01*
X151005212Y-32806371D02*
X151005212Y-33187323D01*
X150671879Y-32949228D02*
X151529021Y-32949228D01*
X151529021Y-32949228D02*
X151624260Y-32996847D01*
X151624260Y-32996847D02*
X151671879Y-33092085D01*
X151671879Y-33092085D02*
X151671879Y-33187323D01*
X151624260Y-33901609D02*
X151671879Y-33806371D01*
X151671879Y-33806371D02*
X151671879Y-33615895D01*
X151671879Y-33615895D02*
X151624260Y-33520657D01*
X151624260Y-33520657D02*
X151529021Y-33473038D01*
X151529021Y-33473038D02*
X151148069Y-33473038D01*
X151148069Y-33473038D02*
X151052831Y-33520657D01*
X151052831Y-33520657D02*
X151005212Y-33615895D01*
X151005212Y-33615895D02*
X151005212Y-33806371D01*
X151005212Y-33806371D02*
X151052831Y-33901609D01*
X151052831Y-33901609D02*
X151148069Y-33949228D01*
X151148069Y-33949228D02*
X151243307Y-33949228D01*
X151243307Y-33949228D02*
X151338545Y-33473038D01*
X151671879Y-34377800D02*
X151005212Y-34377800D01*
X151195688Y-34377800D02*
X151100450Y-34425419D01*
X151100450Y-34425419D02*
X151052831Y-34473038D01*
X151052831Y-34473038D02*
X151005212Y-34568276D01*
X151005212Y-34568276D02*
X151005212Y-34663514D01*
X151005212Y-34901610D02*
X151671879Y-35139705D01*
X151005212Y-35377800D02*
X151671879Y-35139705D01*
X151671879Y-35139705D02*
X151909974Y-35044467D01*
X151909974Y-35044467D02*
X151957593Y-34996848D01*
X151957593Y-34996848D02*
X152005212Y-34901610D01*
D12*
X149824992Y-30547489D02*
X149863087Y-30509393D01*
X149863087Y-30509393D02*
X149939278Y-30395108D01*
X149939278Y-30395108D02*
X149977373Y-30318917D01*
X149977373Y-30318917D02*
X150015468Y-30204632D01*
X150015468Y-30204632D02*
X150053563Y-30014155D01*
X150053563Y-30014155D02*
X150053563Y-29861774D01*
X150053563Y-29861774D02*
X150015468Y-29671298D01*
X150015468Y-29671298D02*
X149977373Y-29557012D01*
X149977373Y-29557012D02*
X149939278Y-29480822D01*
X149939278Y-29480822D02*
X149863087Y-29366536D01*
X149863087Y-29366536D02*
X149824992Y-29328441D01*
X149520230Y-29937965D02*
X148910707Y-29937965D01*
X148605945Y-30547489D02*
X148567850Y-30509393D01*
X148567850Y-30509393D02*
X148491659Y-30395108D01*
X148491659Y-30395108D02*
X148453564Y-30318917D01*
X148453564Y-30318917D02*
X148415469Y-30204632D01*
X148415469Y-30204632D02*
X148377373Y-30014155D01*
X148377373Y-30014155D02*
X148377373Y-29861774D01*
X148377373Y-29861774D02*
X148415469Y-29671298D01*
X148415469Y-29671298D02*
X148453564Y-29557012D01*
X148453564Y-29557012D02*
X148491659Y-29480822D01*
X148491659Y-29480822D02*
X148567850Y-29366536D01*
X148567850Y-29366536D02*
X148605945Y-29328441D01*
X149825023Y-36547489D02*
X149863118Y-36509393D01*
X149863118Y-36509393D02*
X149939309Y-36395108D01*
X149939309Y-36395108D02*
X149977404Y-36318917D01*
X149977404Y-36318917D02*
X150015499Y-36204632D01*
X150015499Y-36204632D02*
X150053594Y-36014155D01*
X150053594Y-36014155D02*
X150053594Y-35861774D01*
X150053594Y-35861774D02*
X150015499Y-35671298D01*
X150015499Y-35671298D02*
X149977404Y-35557012D01*
X149977404Y-35557012D02*
X149939309Y-35480822D01*
X149939309Y-35480822D02*
X149863118Y-35366536D01*
X149863118Y-35366536D02*
X149825023Y-35328441D01*
X149520261Y-35937965D02*
X148910738Y-35937965D01*
X149215499Y-36242727D02*
X149215499Y-35633203D01*
X148605976Y-36547489D02*
X148567881Y-36509393D01*
X148567881Y-36509393D02*
X148491690Y-36395108D01*
X148491690Y-36395108D02*
X148453595Y-36318917D01*
X148453595Y-36318917D02*
X148415500Y-36204632D01*
X148415500Y-36204632D02*
X148377404Y-36014155D01*
X148377404Y-36014155D02*
X148377404Y-35861774D01*
X148377404Y-35861774D02*
X148415500Y-35671298D01*
X148415500Y-35671298D02*
X148453595Y-35557012D01*
X148453595Y-35557012D02*
X148491690Y-35480822D01*
X148491690Y-35480822D02*
X148567881Y-35366536D01*
X148567881Y-35366536D02*
X148605976Y-35328441D01*
D10*
X88212983Y-85138373D02*
X88062403Y-85139516D01*
X88062403Y-85139516D02*
X87835961Y-85065941D01*
X87835961Y-85065941D02*
X87760099Y-84991222D01*
X87760099Y-84991222D02*
X87729526Y-84931219D01*
X87729526Y-84931219D02*
X87713668Y-84825927D01*
X87713668Y-84825927D02*
X87743098Y-84735350D01*
X87743098Y-84735350D02*
X87817816Y-84659488D01*
X87817816Y-84659488D02*
X87877820Y-84628915D01*
X87877820Y-84628915D02*
X87983112Y-84613057D01*
X87983112Y-84613057D02*
X88178981Y-84626629D01*
X88178981Y-84626629D02*
X88284272Y-84610771D01*
X88284272Y-84610771D02*
X88344276Y-84580197D01*
X88344276Y-84580197D02*
X88418995Y-84504336D01*
X88418995Y-84504336D02*
X88448425Y-84413759D01*
X88448425Y-84413759D02*
X88432566Y-84308467D01*
X88432566Y-84308467D02*
X88401993Y-84248463D01*
X88401993Y-84248463D02*
X88326131Y-84173745D01*
X88326131Y-84173745D02*
X88099689Y-84100169D01*
X88099689Y-84100169D02*
X87949109Y-84101312D01*
X87646805Y-83953018D02*
X87111346Y-84830499D01*
X87111346Y-84830499D02*
X87150919Y-84092313D01*
X87150919Y-84092313D02*
X86749039Y-84712779D01*
X86749039Y-84712779D02*
X86831614Y-83688147D01*
X85662117Y-84359616D02*
X86205578Y-84536198D01*
X85933848Y-84447907D02*
X86242865Y-83496850D01*
X86242865Y-83496850D02*
X86289296Y-83662146D01*
X86289296Y-83662146D02*
X86350443Y-83782153D01*
X86350443Y-83782153D02*
X86426305Y-83856871D01*
X85654116Y-83305554D02*
X85065366Y-83114258D01*
X85065366Y-83114258D02*
X85264664Y-83579571D01*
X85264664Y-83579571D02*
X85128799Y-83535426D01*
X85128799Y-83535426D02*
X85023507Y-83551284D01*
X85023507Y-83551284D02*
X84963504Y-83581857D01*
X84963504Y-83581857D02*
X84888785Y-83657719D01*
X84888785Y-83657719D02*
X84815210Y-83884161D01*
X84815210Y-83884161D02*
X84831068Y-83989453D01*
X84831068Y-83989453D02*
X84861641Y-84049456D01*
X84861641Y-84049456D02*
X84937503Y-84124175D01*
X84937503Y-84124175D02*
X85209233Y-84212465D01*
X85209233Y-84212465D02*
X85314525Y-84196607D01*
X85314525Y-84196607D02*
X85374529Y-84166034D01*
X104034183Y-94695173D02*
X103883603Y-94696316D01*
X103883603Y-94696316D02*
X103657161Y-94622741D01*
X103657161Y-94622741D02*
X103581299Y-94548022D01*
X103581299Y-94548022D02*
X103550726Y-94488019D01*
X103550726Y-94488019D02*
X103534868Y-94382727D01*
X103534868Y-94382727D02*
X103564298Y-94292150D01*
X103564298Y-94292150D02*
X103639016Y-94216288D01*
X103639016Y-94216288D02*
X103699020Y-94185715D01*
X103699020Y-94185715D02*
X103804312Y-94169857D01*
X103804312Y-94169857D02*
X104000181Y-94183429D01*
X104000181Y-94183429D02*
X104105472Y-94167571D01*
X104105472Y-94167571D02*
X104165476Y-94136997D01*
X104165476Y-94136997D02*
X104240195Y-94061136D01*
X104240195Y-94061136D02*
X104269625Y-93970559D01*
X104269625Y-93970559D02*
X104253766Y-93865267D01*
X104253766Y-93865267D02*
X104223193Y-93805263D01*
X104223193Y-93805263D02*
X104147331Y-93730545D01*
X104147331Y-93730545D02*
X103920889Y-93656969D01*
X103920889Y-93656969D02*
X103770309Y-93658112D01*
X103468005Y-93509818D02*
X102932546Y-94387299D01*
X102932546Y-94387299D02*
X102972119Y-93649113D01*
X102972119Y-93649113D02*
X102570239Y-94269579D01*
X102570239Y-94269579D02*
X102652814Y-93244947D01*
X101483317Y-93916416D02*
X102026778Y-94092998D01*
X101755048Y-94004707D02*
X102064065Y-93053650D01*
X102064065Y-93053650D02*
X102110496Y-93218946D01*
X102110496Y-93218946D02*
X102171643Y-93338953D01*
X102171643Y-93338953D02*
X102247505Y-93413671D01*
X101475316Y-92862354D02*
X100841278Y-92656343D01*
X100841278Y-92656343D02*
X100939857Y-93739835D01*
X124135083Y-105642473D02*
X123984503Y-105643616D01*
X123984503Y-105643616D02*
X123758061Y-105570041D01*
X123758061Y-105570041D02*
X123682199Y-105495322D01*
X123682199Y-105495322D02*
X123651626Y-105435319D01*
X123651626Y-105435319D02*
X123635768Y-105330027D01*
X123635768Y-105330027D02*
X123665198Y-105239450D01*
X123665198Y-105239450D02*
X123739916Y-105163588D01*
X123739916Y-105163588D02*
X123799920Y-105133015D01*
X123799920Y-105133015D02*
X123905212Y-105117157D01*
X123905212Y-105117157D02*
X124101081Y-105130729D01*
X124101081Y-105130729D02*
X124206372Y-105114871D01*
X124206372Y-105114871D02*
X124266376Y-105084297D01*
X124266376Y-105084297D02*
X124341095Y-105008436D01*
X124341095Y-105008436D02*
X124370525Y-104917859D01*
X124370525Y-104917859D02*
X124354666Y-104812567D01*
X124354666Y-104812567D02*
X124324093Y-104752563D01*
X124324093Y-104752563D02*
X124248231Y-104677845D01*
X124248231Y-104677845D02*
X124021789Y-104604269D01*
X124021789Y-104604269D02*
X123871209Y-104605412D01*
X123568905Y-104457118D02*
X123033446Y-105334599D01*
X123033446Y-105334599D02*
X123073019Y-104596413D01*
X123073019Y-104596413D02*
X122671139Y-105216879D01*
X122671139Y-105216879D02*
X122753714Y-104192247D01*
X122407265Y-104179818D02*
X122376692Y-104119814D01*
X122376692Y-104119814D02*
X122300830Y-104045096D01*
X122300830Y-104045096D02*
X122074388Y-103971520D01*
X122074388Y-103971520D02*
X121969096Y-103987379D01*
X121969096Y-103987379D02*
X121909093Y-104017952D01*
X121909093Y-104017952D02*
X121834374Y-104093814D01*
X121834374Y-104093814D02*
X121804944Y-104184390D01*
X121804944Y-104184390D02*
X121806087Y-104334971D01*
X121806087Y-104334971D02*
X122172967Y-105055013D01*
X122172967Y-105055013D02*
X121584217Y-104863716D01*
X120678449Y-104569415D02*
X121221910Y-104745996D01*
X120950180Y-104657705D02*
X121259197Y-103706649D01*
X121259197Y-103706649D02*
X121305628Y-103871944D01*
X121305628Y-103871944D02*
X121366775Y-103991951D01*
X121366775Y-103991951D02*
X121442637Y-104066670D01*
X186011128Y-101776965D02*
X185889978Y-101866399D01*
X185889978Y-101866399D02*
X185663535Y-101939974D01*
X185663535Y-101939974D02*
X185558244Y-101924116D01*
X185558244Y-101924116D02*
X185498240Y-101893543D01*
X185498240Y-101893543D02*
X185423521Y-101817681D01*
X185423521Y-101817681D02*
X185394091Y-101727104D01*
X185394091Y-101727104D02*
X185409950Y-101621812D01*
X185409950Y-101621812D02*
X185440523Y-101561809D01*
X185440523Y-101561809D02*
X185516385Y-101487090D01*
X185516385Y-101487090D02*
X185682823Y-101382941D01*
X185682823Y-101382941D02*
X185758685Y-101308223D01*
X185758685Y-101308223D02*
X185789258Y-101248219D01*
X185789258Y-101248219D02*
X185805116Y-101142927D01*
X185805116Y-101142927D02*
X185775686Y-101052351D01*
X185775686Y-101052351D02*
X185700968Y-100976489D01*
X185700968Y-100976489D02*
X185640964Y-100945916D01*
X185640964Y-100945916D02*
X185535672Y-100930057D01*
X185535672Y-100930057D02*
X185309230Y-101003633D01*
X185309230Y-101003633D02*
X185188080Y-101093067D01*
X184856346Y-101150784D02*
X184938921Y-102175416D01*
X184938921Y-102175416D02*
X184537041Y-101554950D01*
X184537041Y-101554950D02*
X184576614Y-102293137D01*
X184576614Y-102293137D02*
X184041155Y-101415656D01*
X183753566Y-101609238D02*
X183693563Y-101578665D01*
X183693563Y-101578665D02*
X183588271Y-101562806D01*
X183588271Y-101562806D02*
X183361829Y-101636382D01*
X183361829Y-101636382D02*
X183285967Y-101711100D01*
X183285967Y-101711100D02*
X183255394Y-101771104D01*
X183255394Y-101771104D02*
X183239535Y-101876396D01*
X183239535Y-101876396D02*
X183268966Y-101966973D01*
X183268966Y-101966973D02*
X183358399Y-102088123D01*
X183358399Y-102088123D02*
X184078441Y-102455003D01*
X184078441Y-102455003D02*
X183489692Y-102646299D01*
X182320195Y-101974829D02*
X182773079Y-101827678D01*
X182773079Y-101827678D02*
X182965519Y-102265847D01*
X182965519Y-102265847D02*
X182905515Y-102235274D01*
X182905515Y-102235274D02*
X182800223Y-102219416D01*
X182800223Y-102219416D02*
X182573781Y-102292991D01*
X182573781Y-102292991D02*
X182497920Y-102367710D01*
X182497920Y-102367710D02*
X182467346Y-102427713D01*
X182467346Y-102427713D02*
X182451488Y-102533005D01*
X182451488Y-102533005D02*
X182525064Y-102759447D01*
X182525064Y-102759447D02*
X182599782Y-102835309D01*
X182599782Y-102835309D02*
X182659786Y-102865882D01*
X182659786Y-102865882D02*
X182765078Y-102881740D01*
X182765078Y-102881740D02*
X182991520Y-102808165D01*
X182991520Y-102808165D02*
X183067381Y-102733446D01*
X183067381Y-102733446D02*
X183097955Y-102673443D01*
X206112028Y-90829665D02*
X205990878Y-90919099D01*
X205990878Y-90919099D02*
X205764435Y-90992674D01*
X205764435Y-90992674D02*
X205659144Y-90976816D01*
X205659144Y-90976816D02*
X205599140Y-90946243D01*
X205599140Y-90946243D02*
X205524421Y-90870381D01*
X205524421Y-90870381D02*
X205494991Y-90779804D01*
X205494991Y-90779804D02*
X205510850Y-90674512D01*
X205510850Y-90674512D02*
X205541423Y-90614509D01*
X205541423Y-90614509D02*
X205617285Y-90539790D01*
X205617285Y-90539790D02*
X205783723Y-90435641D01*
X205783723Y-90435641D02*
X205859585Y-90360923D01*
X205859585Y-90360923D02*
X205890158Y-90300919D01*
X205890158Y-90300919D02*
X205906016Y-90195627D01*
X205906016Y-90195627D02*
X205876586Y-90105051D01*
X205876586Y-90105051D02*
X205801868Y-90029189D01*
X205801868Y-90029189D02*
X205741864Y-89998616D01*
X205741864Y-89998616D02*
X205636572Y-89982757D01*
X205636572Y-89982757D02*
X205410130Y-90056333D01*
X205410130Y-90056333D02*
X205288980Y-90145767D01*
X204957246Y-90203484D02*
X205039821Y-91228116D01*
X205039821Y-91228116D02*
X204637941Y-90607650D01*
X204637941Y-90607650D02*
X204677514Y-91345837D01*
X204677514Y-91345837D02*
X204142055Y-90468356D01*
X203854466Y-90661938D02*
X203794463Y-90631365D01*
X203794463Y-90631365D02*
X203689171Y-90615506D01*
X203689171Y-90615506D02*
X203462729Y-90689082D01*
X203462729Y-90689082D02*
X203386867Y-90763800D01*
X203386867Y-90763800D02*
X203356294Y-90823804D01*
X203356294Y-90823804D02*
X203340435Y-90929096D01*
X203340435Y-90929096D02*
X203369866Y-91019673D01*
X203369866Y-91019673D02*
X203459299Y-91140823D01*
X203459299Y-91140823D02*
X204179341Y-91507703D01*
X204179341Y-91507703D02*
X203590592Y-91698999D01*
X203137708Y-91846150D02*
X202956554Y-91905010D01*
X202956554Y-91905010D02*
X202851262Y-91889152D01*
X202851262Y-91889152D02*
X202791259Y-91858579D01*
X202791259Y-91858579D02*
X202656537Y-91752144D01*
X202656537Y-91752144D02*
X202552388Y-91585705D01*
X202552388Y-91585705D02*
X202434667Y-91223398D01*
X202434667Y-91223398D02*
X202450526Y-91118106D01*
X202450526Y-91118106D02*
X202481099Y-91058102D01*
X202481099Y-91058102D02*
X202556961Y-90983384D01*
X202556961Y-90983384D02*
X202738114Y-90924523D01*
X202738114Y-90924523D02*
X202843406Y-90940382D01*
X202843406Y-90940382D02*
X202903410Y-90970955D01*
X202903410Y-90970955D02*
X202978128Y-91046817D01*
X202978128Y-91046817D02*
X203051704Y-91273259D01*
X203051704Y-91273259D02*
X203035845Y-91378551D01*
X203035845Y-91378551D02*
X203005272Y-91438554D01*
X203005272Y-91438554D02*
X202929410Y-91513273D01*
X202929410Y-91513273D02*
X202748257Y-91572133D01*
X202748257Y-91572133D02*
X202642965Y-91556275D01*
X202642965Y-91556275D02*
X202582961Y-91525702D01*
X202582961Y-91525702D02*
X202508243Y-91449840D01*
X221933128Y-81272865D02*
X221811978Y-81362299D01*
X221811978Y-81362299D02*
X221585535Y-81435874D01*
X221585535Y-81435874D02*
X221480244Y-81420016D01*
X221480244Y-81420016D02*
X221420240Y-81389443D01*
X221420240Y-81389443D02*
X221345521Y-81313581D01*
X221345521Y-81313581D02*
X221316091Y-81223004D01*
X221316091Y-81223004D02*
X221331950Y-81117712D01*
X221331950Y-81117712D02*
X221362523Y-81057709D01*
X221362523Y-81057709D02*
X221438385Y-80982990D01*
X221438385Y-80982990D02*
X221604823Y-80878841D01*
X221604823Y-80878841D02*
X221680685Y-80804123D01*
X221680685Y-80804123D02*
X221711258Y-80744119D01*
X221711258Y-80744119D02*
X221727116Y-80638827D01*
X221727116Y-80638827D02*
X221697686Y-80548251D01*
X221697686Y-80548251D02*
X221622968Y-80472389D01*
X221622968Y-80472389D02*
X221562964Y-80441816D01*
X221562964Y-80441816D02*
X221457672Y-80425957D01*
X221457672Y-80425957D02*
X221231230Y-80499533D01*
X221231230Y-80499533D02*
X221110080Y-80588967D01*
X220778346Y-80646684D02*
X220860921Y-81671316D01*
X220860921Y-81671316D02*
X220459041Y-81050850D01*
X220459041Y-81050850D02*
X220498614Y-81789037D01*
X220498614Y-81789037D02*
X219963155Y-80911556D01*
X219691424Y-80999846D02*
X219102675Y-81191142D01*
X219102675Y-81191142D02*
X219537415Y-81450444D01*
X219537415Y-81450444D02*
X219401549Y-81494589D01*
X219401549Y-81494589D02*
X219325688Y-81569308D01*
X219325688Y-81569308D02*
X219295114Y-81629311D01*
X219295114Y-81629311D02*
X219279256Y-81734603D01*
X219279256Y-81734603D02*
X219352832Y-81961045D01*
X219352832Y-81961045D02*
X219427550Y-82036907D01*
X219427550Y-82036907D02*
X219487554Y-82067480D01*
X219487554Y-82067480D02*
X219592846Y-82083338D01*
X219592846Y-82083338D02*
X219864576Y-81995048D01*
X219864576Y-81995048D02*
X219940438Y-81920329D01*
X219940438Y-81920329D02*
X219971011Y-81860326D01*
X218785656Y-81294148D02*
X218196907Y-81485444D01*
X218196907Y-81485444D02*
X218631647Y-81744746D01*
X218631647Y-81744746D02*
X218495781Y-81788891D01*
X218495781Y-81788891D02*
X218419920Y-81863610D01*
X218419920Y-81863610D02*
X218389346Y-81923613D01*
X218389346Y-81923613D02*
X218373488Y-82028905D01*
X218373488Y-82028905D02*
X218447064Y-82255347D01*
X218447064Y-82255347D02*
X218521782Y-82331209D01*
X218521782Y-82331209D02*
X218581786Y-82361782D01*
X218581786Y-82361782D02*
X218687078Y-82377640D01*
X218687078Y-82377640D02*
X218958808Y-82289350D01*
X218958808Y-82289350D02*
X219034670Y-82214631D01*
X219034670Y-82214631D02*
X219065243Y-82154628D01*
X37762699Y-64119722D02*
X37612118Y-64120865D01*
X37612118Y-64120865D02*
X37385676Y-64047290D01*
X37385676Y-64047290D02*
X37309815Y-63972571D01*
X37309815Y-63972571D02*
X37279241Y-63912568D01*
X37279241Y-63912568D02*
X37263383Y-63807276D01*
X37263383Y-63807276D02*
X37292813Y-63716699D01*
X37292813Y-63716699D02*
X37367532Y-63640837D01*
X37367532Y-63640837D02*
X37427535Y-63610264D01*
X37427535Y-63610264D02*
X37532827Y-63594406D01*
X37532827Y-63594406D02*
X37728696Y-63607978D01*
X37728696Y-63607978D02*
X37833988Y-63592120D01*
X37833988Y-63592120D02*
X37893991Y-63561546D01*
X37893991Y-63561546D02*
X37968710Y-63485685D01*
X37968710Y-63485685D02*
X37998140Y-63395108D01*
X37998140Y-63395108D02*
X37982282Y-63289816D01*
X37982282Y-63289816D02*
X37951709Y-63229812D01*
X37951709Y-63229812D02*
X37875847Y-63155094D01*
X37875847Y-63155094D02*
X37649405Y-63081518D01*
X37649405Y-63081518D02*
X37498825Y-63082661D01*
X37196521Y-62934367D02*
X36661062Y-63811848D01*
X36661062Y-63811848D02*
X36700635Y-63073662D01*
X36700635Y-63073662D02*
X36298755Y-63694128D01*
X36298755Y-63694128D02*
X36381329Y-62669496D01*
X36109599Y-62581205D02*
X35520850Y-62389909D01*
X35520850Y-62389909D02*
X35720148Y-62855222D01*
X35720148Y-62855222D02*
X35584283Y-62811076D01*
X35584283Y-62811076D02*
X35478991Y-62826935D01*
X35478991Y-62826935D02*
X35418987Y-62857508D01*
X35418987Y-62857508D02*
X35344269Y-62933370D01*
X35344269Y-62933370D02*
X35270693Y-63159812D01*
X35270693Y-63159812D02*
X35286552Y-63265104D01*
X35286552Y-63265104D02*
X35317125Y-63325107D01*
X35317125Y-63325107D02*
X35392987Y-63399826D01*
X35392987Y-63399826D02*
X35664717Y-63488116D01*
X35664717Y-63488116D02*
X35770009Y-63472258D01*
X35770009Y-63472258D02*
X35830012Y-63441685D01*
X56179599Y-65687522D02*
X56029018Y-65688665D01*
X56029018Y-65688665D02*
X55802576Y-65615090D01*
X55802576Y-65615090D02*
X55726715Y-65540371D01*
X55726715Y-65540371D02*
X55696141Y-65480368D01*
X55696141Y-65480368D02*
X55680283Y-65375076D01*
X55680283Y-65375076D02*
X55709713Y-65284499D01*
X55709713Y-65284499D02*
X55784432Y-65208637D01*
X55784432Y-65208637D02*
X55844435Y-65178064D01*
X55844435Y-65178064D02*
X55949727Y-65162206D01*
X55949727Y-65162206D02*
X56145596Y-65175778D01*
X56145596Y-65175778D02*
X56250888Y-65159920D01*
X56250888Y-65159920D02*
X56310891Y-65129346D01*
X56310891Y-65129346D02*
X56385610Y-65053485D01*
X56385610Y-65053485D02*
X56415040Y-64962908D01*
X56415040Y-64962908D02*
X56399182Y-64857616D01*
X56399182Y-64857616D02*
X56368609Y-64797612D01*
X56368609Y-64797612D02*
X56292747Y-64722894D01*
X56292747Y-64722894D02*
X56066305Y-64649318D01*
X56066305Y-64649318D02*
X55915725Y-64650461D01*
X55613421Y-64502167D02*
X55077962Y-65379648D01*
X55077962Y-65379648D02*
X55117535Y-64641462D01*
X55117535Y-64641462D02*
X54715655Y-65261928D01*
X54715655Y-65261928D02*
X54798229Y-64237296D01*
X54028327Y-63987139D02*
X54209480Y-64045999D01*
X54209480Y-64045999D02*
X54285342Y-64120718D01*
X54285342Y-64120718D02*
X54315915Y-64180721D01*
X54315915Y-64180721D02*
X54362347Y-64346017D01*
X54362347Y-64346017D02*
X54348775Y-64541886D01*
X54348775Y-64541886D02*
X54231054Y-64904193D01*
X54231054Y-64904193D02*
X54156336Y-64980055D01*
X54156336Y-64980055D02*
X54096332Y-65010628D01*
X54096332Y-65010628D02*
X53991040Y-65026486D01*
X53991040Y-65026486D02*
X53809887Y-64967626D01*
X53809887Y-64967626D02*
X53734025Y-64892907D01*
X53734025Y-64892907D02*
X53703452Y-64832904D01*
X53703452Y-64832904D02*
X53687593Y-64727612D01*
X53687593Y-64727612D02*
X53761169Y-64501170D01*
X53761169Y-64501170D02*
X53835887Y-64425308D01*
X53835887Y-64425308D02*
X53895891Y-64394735D01*
X53895891Y-64394735D02*
X54001183Y-64378876D01*
X54001183Y-64378876D02*
X54182336Y-64437737D01*
X54182336Y-64437737D02*
X54258198Y-64512455D01*
X54258198Y-64512455D02*
X54288771Y-64572459D01*
X54288771Y-64572459D02*
X54304630Y-64677751D01*
X74596499Y-67255422D02*
X74445918Y-67256565D01*
X74445918Y-67256565D02*
X74219476Y-67182990D01*
X74219476Y-67182990D02*
X74143615Y-67108271D01*
X74143615Y-67108271D02*
X74113041Y-67048268D01*
X74113041Y-67048268D02*
X74097183Y-66942976D01*
X74097183Y-66942976D02*
X74126613Y-66852399D01*
X74126613Y-66852399D02*
X74201332Y-66776537D01*
X74201332Y-66776537D02*
X74261335Y-66745964D01*
X74261335Y-66745964D02*
X74366627Y-66730106D01*
X74366627Y-66730106D02*
X74562496Y-66743678D01*
X74562496Y-66743678D02*
X74667788Y-66727820D01*
X74667788Y-66727820D02*
X74727791Y-66697246D01*
X74727791Y-66697246D02*
X74802510Y-66621385D01*
X74802510Y-66621385D02*
X74831940Y-66530808D01*
X74831940Y-66530808D02*
X74816082Y-66425516D01*
X74816082Y-66425516D02*
X74785509Y-66365512D01*
X74785509Y-66365512D02*
X74709647Y-66290794D01*
X74709647Y-66290794D02*
X74483205Y-66217218D01*
X74483205Y-66217218D02*
X74332625Y-66218361D01*
X74030321Y-66070067D02*
X73494862Y-66947548D01*
X73494862Y-66947548D02*
X73534435Y-66209362D01*
X73534435Y-66209362D02*
X73132555Y-66829828D01*
X73132555Y-66829828D02*
X73215129Y-65805196D01*
X72498517Y-66623816D02*
X72317363Y-66564956D01*
X72317363Y-66564956D02*
X72241502Y-66490237D01*
X72241502Y-66490237D02*
X72210928Y-66430234D01*
X72210928Y-66430234D02*
X72164497Y-66264938D01*
X72164497Y-66264938D02*
X72178069Y-66069070D01*
X72178069Y-66069070D02*
X72295790Y-65706762D01*
X72295790Y-65706762D02*
X72370508Y-65630901D01*
X72370508Y-65630901D02*
X72430512Y-65600327D01*
X72430512Y-65600327D02*
X72535804Y-65584469D01*
X72535804Y-65584469D02*
X72716957Y-65643330D01*
X72716957Y-65643330D02*
X72792819Y-65718048D01*
X72792819Y-65718048D02*
X72823392Y-65778052D01*
X72823392Y-65778052D02*
X72839250Y-65883344D01*
X72839250Y-65883344D02*
X72765675Y-66109786D01*
X72765675Y-66109786D02*
X72690956Y-66185647D01*
X72690956Y-66185647D02*
X72630953Y-66216221D01*
X72630953Y-66216221D02*
X72525661Y-66232079D01*
X72525661Y-66232079D02*
X72344507Y-66173218D01*
X72344507Y-66173218D02*
X72268646Y-66098500D01*
X72268646Y-66098500D02*
X72238072Y-66038496D01*
X72238072Y-66038496D02*
X72222214Y-65933204D01*
X93466283Y-68970473D02*
X93315703Y-68971616D01*
X93315703Y-68971616D02*
X93089261Y-68898041D01*
X93089261Y-68898041D02*
X93013399Y-68823322D01*
X93013399Y-68823322D02*
X92982826Y-68763319D01*
X92982826Y-68763319D02*
X92966968Y-68658027D01*
X92966968Y-68658027D02*
X92996398Y-68567450D01*
X92996398Y-68567450D02*
X93071116Y-68491588D01*
X93071116Y-68491588D02*
X93131120Y-68461015D01*
X93131120Y-68461015D02*
X93236412Y-68445157D01*
X93236412Y-68445157D02*
X93432281Y-68458729D01*
X93432281Y-68458729D02*
X93537572Y-68442871D01*
X93537572Y-68442871D02*
X93597576Y-68412297D01*
X93597576Y-68412297D02*
X93672295Y-68336436D01*
X93672295Y-68336436D02*
X93701725Y-68245859D01*
X93701725Y-68245859D02*
X93685866Y-68140567D01*
X93685866Y-68140567D02*
X93655293Y-68080563D01*
X93655293Y-68080563D02*
X93579431Y-68005845D01*
X93579431Y-68005845D02*
X93352989Y-67932269D01*
X93352989Y-67932269D02*
X93202409Y-67933412D01*
X92900105Y-67785118D02*
X92364646Y-68662599D01*
X92364646Y-68662599D02*
X92404219Y-67924413D01*
X92404219Y-67924413D02*
X92002339Y-68544879D01*
X92002339Y-68544879D02*
X92084914Y-67520247D01*
X90915417Y-68191716D02*
X91458878Y-68368298D01*
X91187148Y-68280007D02*
X91496165Y-67328950D01*
X91496165Y-67328950D02*
X91542596Y-67494246D01*
X91542596Y-67494246D02*
X91603743Y-67614253D01*
X91603743Y-67614253D02*
X91679605Y-67688971D01*
X90832697Y-67213516D02*
X90802124Y-67153512D01*
X90802124Y-67153512D02*
X90726262Y-67078794D01*
X90726262Y-67078794D02*
X90499820Y-67005218D01*
X90499820Y-67005218D02*
X90394528Y-67021077D01*
X90394528Y-67021077D02*
X90334525Y-67051650D01*
X90334525Y-67051650D02*
X90259806Y-67127512D01*
X90259806Y-67127512D02*
X90230376Y-67218088D01*
X90230376Y-67218088D02*
X90231519Y-67368669D01*
X90231519Y-67368669D02*
X90598399Y-68088711D01*
X90598399Y-68088711D02*
X90009649Y-67897415D01*
X109287383Y-78527173D02*
X109136803Y-78528316D01*
X109136803Y-78528316D02*
X108910361Y-78454741D01*
X108910361Y-78454741D02*
X108834499Y-78380022D01*
X108834499Y-78380022D02*
X108803926Y-78320019D01*
X108803926Y-78320019D02*
X108788068Y-78214727D01*
X108788068Y-78214727D02*
X108817498Y-78124150D01*
X108817498Y-78124150D02*
X108892216Y-78048288D01*
X108892216Y-78048288D02*
X108952220Y-78017715D01*
X108952220Y-78017715D02*
X109057512Y-78001857D01*
X109057512Y-78001857D02*
X109253381Y-78015429D01*
X109253381Y-78015429D02*
X109358672Y-77999571D01*
X109358672Y-77999571D02*
X109418676Y-77968997D01*
X109418676Y-77968997D02*
X109493395Y-77893136D01*
X109493395Y-77893136D02*
X109522825Y-77802559D01*
X109522825Y-77802559D02*
X109506966Y-77697267D01*
X109506966Y-77697267D02*
X109476393Y-77637263D01*
X109476393Y-77637263D02*
X109400531Y-77562545D01*
X109400531Y-77562545D02*
X109174089Y-77488969D01*
X109174089Y-77488969D02*
X109023509Y-77490112D01*
X108721205Y-77341818D02*
X108185746Y-78219299D01*
X108185746Y-78219299D02*
X108225319Y-77481113D01*
X108225319Y-77481113D02*
X107823439Y-78101579D01*
X107823439Y-78101579D02*
X107906014Y-77076947D01*
X106736517Y-77748416D02*
X107279978Y-77924998D01*
X107008248Y-77836707D02*
X107317265Y-76885650D01*
X107317265Y-76885650D02*
X107363696Y-77050946D01*
X107363696Y-77050946D02*
X107424843Y-77170953D01*
X107424843Y-77170953D02*
X107500705Y-77245671D01*
X106230343Y-76532488D02*
X106411497Y-76591349D01*
X106411497Y-76591349D02*
X106487358Y-76666067D01*
X106487358Y-76666067D02*
X106517932Y-76726071D01*
X106517932Y-76726071D02*
X106564363Y-76891366D01*
X106564363Y-76891366D02*
X106550791Y-77087235D01*
X106550791Y-77087235D02*
X106433071Y-77449542D01*
X106433071Y-77449542D02*
X106358352Y-77525404D01*
X106358352Y-77525404D02*
X106298348Y-77555977D01*
X106298348Y-77555977D02*
X106193057Y-77571835D01*
X106193057Y-77571835D02*
X106011903Y-77512975D01*
X106011903Y-77512975D02*
X105936041Y-77438256D01*
X105936041Y-77438256D02*
X105905468Y-77378253D01*
X105905468Y-77378253D02*
X105889610Y-77272961D01*
X105889610Y-77272961D02*
X105963185Y-77046519D01*
X105963185Y-77046519D02*
X106037904Y-76970657D01*
X106037904Y-76970657D02*
X106097907Y-76940084D01*
X106097907Y-76940084D02*
X106203199Y-76924226D01*
X106203199Y-76924226D02*
X106384353Y-76983086D01*
X106384353Y-76983086D02*
X106460215Y-77057805D01*
X106460215Y-77057805D02*
X106490788Y-77117808D01*
X106490788Y-77117808D02*
X106506646Y-77223100D01*
X125108583Y-88083973D02*
X124958003Y-88085116D01*
X124958003Y-88085116D02*
X124731561Y-88011541D01*
X124731561Y-88011541D02*
X124655699Y-87936822D01*
X124655699Y-87936822D02*
X124625126Y-87876819D01*
X124625126Y-87876819D02*
X124609268Y-87771527D01*
X124609268Y-87771527D02*
X124638698Y-87680950D01*
X124638698Y-87680950D02*
X124713416Y-87605088D01*
X124713416Y-87605088D02*
X124773420Y-87574515D01*
X124773420Y-87574515D02*
X124878712Y-87558657D01*
X124878712Y-87558657D02*
X125074581Y-87572229D01*
X125074581Y-87572229D02*
X125179872Y-87556371D01*
X125179872Y-87556371D02*
X125239876Y-87525797D01*
X125239876Y-87525797D02*
X125314595Y-87449936D01*
X125314595Y-87449936D02*
X125344025Y-87359359D01*
X125344025Y-87359359D02*
X125328166Y-87254067D01*
X125328166Y-87254067D02*
X125297593Y-87194063D01*
X125297593Y-87194063D02*
X125221731Y-87119345D01*
X125221731Y-87119345D02*
X124995289Y-87045769D01*
X124995289Y-87045769D02*
X124844709Y-87046912D01*
X124542405Y-86898618D02*
X124006946Y-87776099D01*
X124006946Y-87776099D02*
X124046519Y-87037913D01*
X124046519Y-87037913D02*
X123644639Y-87658379D01*
X123644639Y-87658379D02*
X123727214Y-86633747D01*
X123380765Y-86621318D02*
X123350192Y-86561314D01*
X123350192Y-86561314D02*
X123274330Y-86486596D01*
X123274330Y-86486596D02*
X123047888Y-86413020D01*
X123047888Y-86413020D02*
X122942596Y-86428879D01*
X122942596Y-86428879D02*
X122882593Y-86459452D01*
X122882593Y-86459452D02*
X122807874Y-86535314D01*
X122807874Y-86535314D02*
X122778444Y-86625890D01*
X122778444Y-86625890D02*
X122779587Y-86776471D01*
X122779587Y-86776471D02*
X123146467Y-87496513D01*
X123146467Y-87496513D02*
X122557717Y-87305216D01*
X122277985Y-86162864D02*
X122187408Y-86133433D01*
X122187408Y-86133433D02*
X122082116Y-86149292D01*
X122082116Y-86149292D02*
X122022113Y-86179865D01*
X122022113Y-86179865D02*
X121947394Y-86255727D01*
X121947394Y-86255727D02*
X121843246Y-86422165D01*
X121843246Y-86422165D02*
X121769670Y-86648607D01*
X121769670Y-86648607D02*
X121756098Y-86844476D01*
X121756098Y-86844476D02*
X121771956Y-86949768D01*
X121771956Y-86949768D02*
X121802530Y-87009771D01*
X121802530Y-87009771D02*
X121878391Y-87084490D01*
X121878391Y-87084490D02*
X121968968Y-87113920D01*
X121968968Y-87113920D02*
X122074260Y-87098062D01*
X122074260Y-87098062D02*
X122134264Y-87067489D01*
X122134264Y-87067489D02*
X122208982Y-86991627D01*
X122208982Y-86991627D02*
X122313131Y-86825188D01*
X122313131Y-86825188D02*
X122386706Y-86598746D01*
X122386706Y-86598746D02*
X122400278Y-86402878D01*
X122400278Y-86402878D02*
X122384420Y-86297586D01*
X122384420Y-86297586D02*
X122353847Y-86237582D01*
X122353847Y-86237582D02*
X122277985Y-86162864D01*
X185037628Y-84218465D02*
X184916478Y-84307899D01*
X184916478Y-84307899D02*
X184690035Y-84381474D01*
X184690035Y-84381474D02*
X184584744Y-84365616D01*
X184584744Y-84365616D02*
X184524740Y-84335043D01*
X184524740Y-84335043D02*
X184450021Y-84259181D01*
X184450021Y-84259181D02*
X184420591Y-84168604D01*
X184420591Y-84168604D02*
X184436450Y-84063312D01*
X184436450Y-84063312D02*
X184467023Y-84003309D01*
X184467023Y-84003309D02*
X184542885Y-83928590D01*
X184542885Y-83928590D02*
X184709323Y-83824441D01*
X184709323Y-83824441D02*
X184785185Y-83749723D01*
X184785185Y-83749723D02*
X184815758Y-83689719D01*
X184815758Y-83689719D02*
X184831616Y-83584427D01*
X184831616Y-83584427D02*
X184802186Y-83493851D01*
X184802186Y-83493851D02*
X184727468Y-83417989D01*
X184727468Y-83417989D02*
X184667464Y-83387416D01*
X184667464Y-83387416D02*
X184562172Y-83371557D01*
X184562172Y-83371557D02*
X184335730Y-83445133D01*
X184335730Y-83445133D02*
X184214580Y-83534567D01*
X183882846Y-83592284D02*
X183965421Y-84616916D01*
X183965421Y-84616916D02*
X183563541Y-83996450D01*
X183563541Y-83996450D02*
X183603114Y-84734637D01*
X183603114Y-84734637D02*
X183067655Y-83857156D01*
X182780066Y-84050738D02*
X182720063Y-84020165D01*
X182720063Y-84020165D02*
X182614771Y-84004306D01*
X182614771Y-84004306D02*
X182388329Y-84077882D01*
X182388329Y-84077882D02*
X182312467Y-84152600D01*
X182312467Y-84152600D02*
X182281894Y-84212604D01*
X182281894Y-84212604D02*
X182266035Y-84317896D01*
X182266035Y-84317896D02*
X182295466Y-84408473D01*
X182295466Y-84408473D02*
X182384899Y-84529623D01*
X182384899Y-84529623D02*
X183104941Y-84896503D01*
X183104941Y-84896503D02*
X182516192Y-85087799D01*
X181494989Y-84718633D02*
X181701001Y-85352671D01*
X181603711Y-84282750D02*
X182050879Y-84888501D01*
X182050879Y-84888501D02*
X181462130Y-85079797D01*
X200858728Y-74661665D02*
X200737578Y-74751099D01*
X200737578Y-74751099D02*
X200511135Y-74824674D01*
X200511135Y-74824674D02*
X200405844Y-74808816D01*
X200405844Y-74808816D02*
X200345840Y-74778243D01*
X200345840Y-74778243D02*
X200271121Y-74702381D01*
X200271121Y-74702381D02*
X200241691Y-74611804D01*
X200241691Y-74611804D02*
X200257550Y-74506512D01*
X200257550Y-74506512D02*
X200288123Y-74446509D01*
X200288123Y-74446509D02*
X200363985Y-74371790D01*
X200363985Y-74371790D02*
X200530423Y-74267641D01*
X200530423Y-74267641D02*
X200606285Y-74192923D01*
X200606285Y-74192923D02*
X200636858Y-74132919D01*
X200636858Y-74132919D02*
X200652716Y-74027627D01*
X200652716Y-74027627D02*
X200623286Y-73937051D01*
X200623286Y-73937051D02*
X200548568Y-73861189D01*
X200548568Y-73861189D02*
X200488564Y-73830616D01*
X200488564Y-73830616D02*
X200383272Y-73814757D01*
X200383272Y-73814757D02*
X200156830Y-73888333D01*
X200156830Y-73888333D02*
X200035680Y-73977767D01*
X199703946Y-74035484D02*
X199786521Y-75060116D01*
X199786521Y-75060116D02*
X199384641Y-74439650D01*
X199384641Y-74439650D02*
X199424214Y-75177837D01*
X199424214Y-75177837D02*
X198888755Y-74300356D01*
X198601166Y-74493938D02*
X198541163Y-74463365D01*
X198541163Y-74463365D02*
X198435871Y-74447506D01*
X198435871Y-74447506D02*
X198209429Y-74521082D01*
X198209429Y-74521082D02*
X198133567Y-74595800D01*
X198133567Y-74595800D02*
X198102994Y-74655804D01*
X198102994Y-74655804D02*
X198087135Y-74761096D01*
X198087135Y-74761096D02*
X198116566Y-74851673D01*
X198116566Y-74851673D02*
X198205999Y-74972823D01*
X198205999Y-74972823D02*
X198926041Y-75339703D01*
X198926041Y-75339703D02*
X198337292Y-75530999D01*
X197617250Y-75164119D02*
X197693112Y-75089400D01*
X197693112Y-75089400D02*
X197723685Y-75029397D01*
X197723685Y-75029397D02*
X197739543Y-74924105D01*
X197739543Y-74924105D02*
X197724828Y-74878817D01*
X197724828Y-74878817D02*
X197650110Y-74802955D01*
X197650110Y-74802955D02*
X197590106Y-74772382D01*
X197590106Y-74772382D02*
X197484814Y-74756523D01*
X197484814Y-74756523D02*
X197303661Y-74815384D01*
X197303661Y-74815384D02*
X197227799Y-74890102D01*
X197227799Y-74890102D02*
X197197226Y-74950106D01*
X197197226Y-74950106D02*
X197181367Y-75055398D01*
X197181367Y-75055398D02*
X197196082Y-75100686D01*
X197196082Y-75100686D02*
X197270801Y-75176548D01*
X197270801Y-75176548D02*
X197330805Y-75207121D01*
X197330805Y-75207121D02*
X197436096Y-75222979D01*
X197436096Y-75222979D02*
X197617250Y-75164119D01*
X197617250Y-75164119D02*
X197722542Y-75179977D01*
X197722542Y-75179977D02*
X197782545Y-75210551D01*
X197782545Y-75210551D02*
X197857264Y-75286412D01*
X197857264Y-75286412D02*
X197916124Y-75467566D01*
X197916124Y-75467566D02*
X197900266Y-75572858D01*
X197900266Y-75572858D02*
X197869693Y-75632861D01*
X197869693Y-75632861D02*
X197793831Y-75707580D01*
X197793831Y-75707580D02*
X197612678Y-75766440D01*
X197612678Y-75766440D02*
X197507386Y-75750582D01*
X197507386Y-75750582D02*
X197447382Y-75720009D01*
X197447382Y-75720009D02*
X197372664Y-75644147D01*
X197372664Y-75644147D02*
X197313803Y-75462993D01*
X197313803Y-75462993D02*
X197329661Y-75357702D01*
X197329661Y-75357702D02*
X197360235Y-75297698D01*
X197360235Y-75297698D02*
X197436096Y-75222979D01*
X216679828Y-65104965D02*
X216558678Y-65194399D01*
X216558678Y-65194399D02*
X216332235Y-65267974D01*
X216332235Y-65267974D02*
X216226944Y-65252116D01*
X216226944Y-65252116D02*
X216166940Y-65221543D01*
X216166940Y-65221543D02*
X216092221Y-65145681D01*
X216092221Y-65145681D02*
X216062791Y-65055104D01*
X216062791Y-65055104D02*
X216078650Y-64949812D01*
X216078650Y-64949812D02*
X216109223Y-64889809D01*
X216109223Y-64889809D02*
X216185085Y-64815090D01*
X216185085Y-64815090D02*
X216351523Y-64710941D01*
X216351523Y-64710941D02*
X216427385Y-64636223D01*
X216427385Y-64636223D02*
X216457958Y-64576219D01*
X216457958Y-64576219D02*
X216473816Y-64470927D01*
X216473816Y-64470927D02*
X216444386Y-64380351D01*
X216444386Y-64380351D02*
X216369668Y-64304489D01*
X216369668Y-64304489D02*
X216309664Y-64273916D01*
X216309664Y-64273916D02*
X216204372Y-64258057D01*
X216204372Y-64258057D02*
X215977930Y-64331633D01*
X215977930Y-64331633D02*
X215856780Y-64421067D01*
X215525046Y-64478784D02*
X215607621Y-65503416D01*
X215607621Y-65503416D02*
X215205741Y-64882950D01*
X215205741Y-64882950D02*
X215245314Y-65621137D01*
X215245314Y-65621137D02*
X214709855Y-64743656D01*
X214438124Y-64831946D02*
X213849375Y-65023242D01*
X213849375Y-65023242D02*
X214284115Y-65282544D01*
X214284115Y-65282544D02*
X214148249Y-65326689D01*
X214148249Y-65326689D02*
X214072388Y-65401408D01*
X214072388Y-65401408D02*
X214041814Y-65461411D01*
X214041814Y-65461411D02*
X214025956Y-65566703D01*
X214025956Y-65566703D02*
X214099532Y-65793145D01*
X214099532Y-65793145D02*
X214174250Y-65869007D01*
X214174250Y-65869007D02*
X214234254Y-65899580D01*
X214234254Y-65899580D02*
X214339546Y-65915438D01*
X214339546Y-65915438D02*
X214611276Y-65827148D01*
X214611276Y-65827148D02*
X214687138Y-65752429D01*
X214687138Y-65752429D02*
X214717711Y-65692426D01*
X213516498Y-65231540D02*
X213456495Y-65200967D01*
X213456495Y-65200967D02*
X213351203Y-65185108D01*
X213351203Y-65185108D02*
X213124761Y-65258684D01*
X213124761Y-65258684D02*
X213048899Y-65333402D01*
X213048899Y-65333402D02*
X213018326Y-65393406D01*
X213018326Y-65393406D02*
X213002467Y-65498698D01*
X213002467Y-65498698D02*
X213031898Y-65589275D01*
X213031898Y-65589275D02*
X213121331Y-65710425D01*
X213121331Y-65710425D02*
X213841373Y-66077304D01*
X213841373Y-66077304D02*
X213252624Y-66268601D01*
X235096728Y-63537065D02*
X234975578Y-63626499D01*
X234975578Y-63626499D02*
X234749135Y-63700074D01*
X234749135Y-63700074D02*
X234643844Y-63684216D01*
X234643844Y-63684216D02*
X234583840Y-63653643D01*
X234583840Y-63653643D02*
X234509121Y-63577781D01*
X234509121Y-63577781D02*
X234479691Y-63487204D01*
X234479691Y-63487204D02*
X234495550Y-63381912D01*
X234495550Y-63381912D02*
X234526123Y-63321909D01*
X234526123Y-63321909D02*
X234601985Y-63247190D01*
X234601985Y-63247190D02*
X234768423Y-63143041D01*
X234768423Y-63143041D02*
X234844285Y-63068323D01*
X234844285Y-63068323D02*
X234874858Y-63008319D01*
X234874858Y-63008319D02*
X234890716Y-62903027D01*
X234890716Y-62903027D02*
X234861286Y-62812451D01*
X234861286Y-62812451D02*
X234786568Y-62736589D01*
X234786568Y-62736589D02*
X234726564Y-62706016D01*
X234726564Y-62706016D02*
X234621272Y-62690157D01*
X234621272Y-62690157D02*
X234394830Y-62763733D01*
X234394830Y-62763733D02*
X234273680Y-62853167D01*
X233941946Y-62910884D02*
X234024521Y-63935516D01*
X234024521Y-63935516D02*
X233622641Y-63315050D01*
X233622641Y-63315050D02*
X233662214Y-64053237D01*
X233662214Y-64053237D02*
X233126755Y-63175756D01*
X232855024Y-63264046D02*
X232266275Y-63455342D01*
X232266275Y-63455342D02*
X232701015Y-63714644D01*
X232701015Y-63714644D02*
X232565149Y-63758789D01*
X232565149Y-63758789D02*
X232489288Y-63833508D01*
X232489288Y-63833508D02*
X232458714Y-63893511D01*
X232458714Y-63893511D02*
X232442856Y-63998803D01*
X232442856Y-63998803D02*
X232516432Y-64225245D01*
X232516432Y-64225245D02*
X232591150Y-64301107D01*
X232591150Y-64301107D02*
X232651154Y-64331680D01*
X232651154Y-64331680D02*
X232756446Y-64347538D01*
X232756446Y-64347538D02*
X233028176Y-64259248D01*
X233028176Y-64259248D02*
X233104038Y-64184529D01*
X233104038Y-64184529D02*
X233134611Y-64124526D01*
X231451084Y-63720214D02*
X231632237Y-63661354D01*
X231632237Y-63661354D02*
X231737529Y-63677212D01*
X231737529Y-63677212D02*
X231797533Y-63707785D01*
X231797533Y-63707785D02*
X231932255Y-63814220D01*
X231932255Y-63814220D02*
X232036404Y-63980659D01*
X232036404Y-63980659D02*
X232154124Y-64342966D01*
X232154124Y-64342966D02*
X232138266Y-64448258D01*
X232138266Y-64448258D02*
X232107693Y-64508261D01*
X232107693Y-64508261D02*
X232031831Y-64582980D01*
X232031831Y-64582980D02*
X231850678Y-64641840D01*
X231850678Y-64641840D02*
X231745386Y-64625982D01*
X231745386Y-64625982D02*
X231685382Y-64595409D01*
X231685382Y-64595409D02*
X231610664Y-64519547D01*
X231610664Y-64519547D02*
X231537088Y-64293105D01*
X231537088Y-64293105D02*
X231552946Y-64187813D01*
X231552946Y-64187813D02*
X231583520Y-64127810D01*
X231583520Y-64127810D02*
X231659381Y-64053091D01*
X231659381Y-64053091D02*
X231840535Y-63994231D01*
X231840535Y-63994231D02*
X231945827Y-64010089D01*
X231945827Y-64010089D02*
X232005830Y-64040662D01*
X232005830Y-64040662D02*
X232080549Y-64116524D01*
X253513628Y-61969165D02*
X253392478Y-62058599D01*
X253392478Y-62058599D02*
X253166035Y-62132174D01*
X253166035Y-62132174D02*
X253060744Y-62116316D01*
X253060744Y-62116316D02*
X253000740Y-62085743D01*
X253000740Y-62085743D02*
X252926021Y-62009881D01*
X252926021Y-62009881D02*
X252896591Y-61919304D01*
X252896591Y-61919304D02*
X252912450Y-61814012D01*
X252912450Y-61814012D02*
X252943023Y-61754009D01*
X252943023Y-61754009D02*
X253018885Y-61679290D01*
X253018885Y-61679290D02*
X253185323Y-61575141D01*
X253185323Y-61575141D02*
X253261185Y-61500423D01*
X253261185Y-61500423D02*
X253291758Y-61440419D01*
X253291758Y-61440419D02*
X253307616Y-61335127D01*
X253307616Y-61335127D02*
X253278186Y-61244551D01*
X253278186Y-61244551D02*
X253203468Y-61168689D01*
X253203468Y-61168689D02*
X253143464Y-61138116D01*
X253143464Y-61138116D02*
X253038172Y-61122257D01*
X253038172Y-61122257D02*
X252811730Y-61195833D01*
X252811730Y-61195833D02*
X252690580Y-61285267D01*
X252358846Y-61342984D02*
X252441421Y-62367616D01*
X252441421Y-62367616D02*
X252039541Y-61747150D01*
X252039541Y-61747150D02*
X252079114Y-62485337D01*
X252079114Y-62485337D02*
X251543655Y-61607856D01*
X251271924Y-61696146D02*
X250683175Y-61887442D01*
X250683175Y-61887442D02*
X251117915Y-62146744D01*
X251117915Y-62146744D02*
X250982049Y-62190889D01*
X250982049Y-62190889D02*
X250906188Y-62265608D01*
X250906188Y-62265608D02*
X250875614Y-62325611D01*
X250875614Y-62325611D02*
X250859756Y-62430903D01*
X250859756Y-62430903D02*
X250933332Y-62657345D01*
X250933332Y-62657345D02*
X251008050Y-62733207D01*
X251008050Y-62733207D02*
X251068054Y-62763780D01*
X251068054Y-62763780D02*
X251173346Y-62779638D01*
X251173346Y-62779638D02*
X251445076Y-62691348D01*
X251445076Y-62691348D02*
X251520938Y-62616629D01*
X251520938Y-62616629D02*
X251551511Y-62556626D01*
X250539308Y-62985650D02*
X250358154Y-63044510D01*
X250358154Y-63044510D02*
X250252862Y-63028652D01*
X250252862Y-63028652D02*
X250192859Y-62998079D01*
X250192859Y-62998079D02*
X250058137Y-62891644D01*
X250058137Y-62891644D02*
X249953988Y-62725205D01*
X249953988Y-62725205D02*
X249836267Y-62362898D01*
X249836267Y-62362898D02*
X249852126Y-62257606D01*
X249852126Y-62257606D02*
X249882699Y-62197602D01*
X249882699Y-62197602D02*
X249958561Y-62122884D01*
X249958561Y-62122884D02*
X250139714Y-62064023D01*
X250139714Y-62064023D02*
X250245006Y-62079882D01*
X250245006Y-62079882D02*
X250305010Y-62110455D01*
X250305010Y-62110455D02*
X250379728Y-62186317D01*
X250379728Y-62186317D02*
X250453304Y-62412759D01*
X250453304Y-62412759D02*
X250437445Y-62518051D01*
X250437445Y-62518051D02*
X250406872Y-62578054D01*
X250406872Y-62578054D02*
X250331010Y-62652773D01*
X250331010Y-62652773D02*
X250149857Y-62711633D01*
X250149857Y-62711633D02*
X250044565Y-62695775D01*
X250044565Y-62695775D02*
X249984561Y-62665202D01*
X249984561Y-62665202D02*
X249909843Y-62589340D01*
X271930528Y-60401365D02*
X271809378Y-60490799D01*
X271809378Y-60490799D02*
X271582935Y-60564374D01*
X271582935Y-60564374D02*
X271477644Y-60548516D01*
X271477644Y-60548516D02*
X271417640Y-60517943D01*
X271417640Y-60517943D02*
X271342921Y-60442081D01*
X271342921Y-60442081D02*
X271313491Y-60351504D01*
X271313491Y-60351504D02*
X271329350Y-60246212D01*
X271329350Y-60246212D02*
X271359923Y-60186209D01*
X271359923Y-60186209D02*
X271435785Y-60111490D01*
X271435785Y-60111490D02*
X271602223Y-60007341D01*
X271602223Y-60007341D02*
X271678085Y-59932623D01*
X271678085Y-59932623D02*
X271708658Y-59872619D01*
X271708658Y-59872619D02*
X271724516Y-59767327D01*
X271724516Y-59767327D02*
X271695086Y-59676751D01*
X271695086Y-59676751D02*
X271620368Y-59600889D01*
X271620368Y-59600889D02*
X271560364Y-59570316D01*
X271560364Y-59570316D02*
X271455072Y-59554457D01*
X271455072Y-59554457D02*
X271228630Y-59628033D01*
X271228630Y-59628033D02*
X271107480Y-59717467D01*
X270775746Y-59775184D02*
X270858321Y-60799816D01*
X270858321Y-60799816D02*
X270456441Y-60179350D01*
X270456441Y-60179350D02*
X270496014Y-60917537D01*
X270496014Y-60917537D02*
X269960555Y-60040056D01*
X269293658Y-60607231D02*
X269499669Y-61241269D01*
X269402379Y-60171348D02*
X269849547Y-60777099D01*
X269849547Y-60777099D02*
X269260798Y-60968395D01*
X268767198Y-60527940D02*
X268707195Y-60497367D01*
X268707195Y-60497367D02*
X268601903Y-60481508D01*
X268601903Y-60481508D02*
X268375461Y-60555084D01*
X268375461Y-60555084D02*
X268299599Y-60629802D01*
X268299599Y-60629802D02*
X268269026Y-60689806D01*
X268269026Y-60689806D02*
X268253167Y-60795098D01*
X268253167Y-60795098D02*
X268282598Y-60885675D01*
X268282598Y-60885675D02*
X268372031Y-61006825D01*
X268372031Y-61006825D02*
X269092073Y-61373704D01*
X269092073Y-61373704D02*
X268503324Y-61565001D01*
X43015999Y-47951722D02*
X42865418Y-47952865D01*
X42865418Y-47952865D02*
X42638976Y-47879290D01*
X42638976Y-47879290D02*
X42563115Y-47804571D01*
X42563115Y-47804571D02*
X42532541Y-47744568D01*
X42532541Y-47744568D02*
X42516683Y-47639276D01*
X42516683Y-47639276D02*
X42546113Y-47548699D01*
X42546113Y-47548699D02*
X42620832Y-47472837D01*
X42620832Y-47472837D02*
X42680835Y-47442264D01*
X42680835Y-47442264D02*
X42786127Y-47426406D01*
X42786127Y-47426406D02*
X42981996Y-47439978D01*
X42981996Y-47439978D02*
X43087288Y-47424120D01*
X43087288Y-47424120D02*
X43147291Y-47393546D01*
X43147291Y-47393546D02*
X43222010Y-47317685D01*
X43222010Y-47317685D02*
X43251440Y-47227108D01*
X43251440Y-47227108D02*
X43235582Y-47121816D01*
X43235582Y-47121816D02*
X43205009Y-47061812D01*
X43205009Y-47061812D02*
X43129147Y-46987094D01*
X43129147Y-46987094D02*
X42902705Y-46913518D01*
X42902705Y-46913518D02*
X42752125Y-46914661D01*
X42449821Y-46766367D02*
X41914362Y-47643848D01*
X41914362Y-47643848D02*
X41953935Y-46905662D01*
X41953935Y-46905662D02*
X41552055Y-47526128D01*
X41552055Y-47526128D02*
X41634629Y-46501496D01*
X41288181Y-46489067D02*
X41257607Y-46429063D01*
X41257607Y-46429063D02*
X41181746Y-46354345D01*
X41181746Y-46354345D02*
X40955304Y-46280769D01*
X40955304Y-46280769D02*
X40850012Y-46296627D01*
X40850012Y-46296627D02*
X40790008Y-46327201D01*
X40790008Y-46327201D02*
X40715290Y-46403062D01*
X40715290Y-46403062D02*
X40685859Y-46493639D01*
X40685859Y-46493639D02*
X40687002Y-46644220D01*
X40687002Y-46644220D02*
X41053882Y-47364262D01*
X41053882Y-47364262D02*
X40465133Y-47172965D01*
X61432899Y-49519622D02*
X61282318Y-49520765D01*
X61282318Y-49520765D02*
X61055876Y-49447190D01*
X61055876Y-49447190D02*
X60980015Y-49372471D01*
X60980015Y-49372471D02*
X60949441Y-49312468D01*
X60949441Y-49312468D02*
X60933583Y-49207176D01*
X60933583Y-49207176D02*
X60963013Y-49116599D01*
X60963013Y-49116599D02*
X61037732Y-49040737D01*
X61037732Y-49040737D02*
X61097735Y-49010164D01*
X61097735Y-49010164D02*
X61203027Y-48994306D01*
X61203027Y-48994306D02*
X61398896Y-49007878D01*
X61398896Y-49007878D02*
X61504188Y-48992020D01*
X61504188Y-48992020D02*
X61564191Y-48961446D01*
X61564191Y-48961446D02*
X61638910Y-48885585D01*
X61638910Y-48885585D02*
X61668340Y-48795008D01*
X61668340Y-48795008D02*
X61652482Y-48689716D01*
X61652482Y-48689716D02*
X61621909Y-48629712D01*
X61621909Y-48629712D02*
X61546047Y-48554994D01*
X61546047Y-48554994D02*
X61319605Y-48481418D01*
X61319605Y-48481418D02*
X61169025Y-48482561D01*
X60866721Y-48334267D02*
X60331262Y-49211748D01*
X60331262Y-49211748D02*
X60370835Y-48473562D01*
X60370835Y-48473562D02*
X59968955Y-49094028D01*
X59968955Y-49094028D02*
X60051529Y-48069396D01*
X59236338Y-47804524D02*
X59689222Y-47951675D01*
X59689222Y-47951675D02*
X59587360Y-48419274D01*
X59587360Y-48419274D02*
X59556787Y-48359271D01*
X59556787Y-48359271D02*
X59480925Y-48284552D01*
X59480925Y-48284552D02*
X59254483Y-48210976D01*
X59254483Y-48210976D02*
X59149191Y-48226835D01*
X59149191Y-48226835D02*
X59089187Y-48257408D01*
X59089187Y-48257408D02*
X59014469Y-48333270D01*
X59014469Y-48333270D02*
X58940893Y-48559712D01*
X58940893Y-48559712D02*
X58956752Y-48665004D01*
X58956752Y-48665004D02*
X58987325Y-48725007D01*
X58987325Y-48725007D02*
X59063187Y-48799726D01*
X59063187Y-48799726D02*
X59289629Y-48873301D01*
X59289629Y-48873301D02*
X59394920Y-48857443D01*
X59394920Y-48857443D02*
X59454924Y-48826870D01*
X79849799Y-51087422D02*
X79699218Y-51088565D01*
X79699218Y-51088565D02*
X79472776Y-51014990D01*
X79472776Y-51014990D02*
X79396915Y-50940271D01*
X79396915Y-50940271D02*
X79366341Y-50880268D01*
X79366341Y-50880268D02*
X79350483Y-50774976D01*
X79350483Y-50774976D02*
X79379913Y-50684399D01*
X79379913Y-50684399D02*
X79454632Y-50608537D01*
X79454632Y-50608537D02*
X79514635Y-50577964D01*
X79514635Y-50577964D02*
X79619927Y-50562106D01*
X79619927Y-50562106D02*
X79815796Y-50575678D01*
X79815796Y-50575678D02*
X79921088Y-50559820D01*
X79921088Y-50559820D02*
X79981091Y-50529246D01*
X79981091Y-50529246D02*
X80055810Y-50453385D01*
X80055810Y-50453385D02*
X80085240Y-50362808D01*
X80085240Y-50362808D02*
X80069382Y-50257516D01*
X80069382Y-50257516D02*
X80038809Y-50197512D01*
X80038809Y-50197512D02*
X79962947Y-50122794D01*
X79962947Y-50122794D02*
X79736505Y-50049218D01*
X79736505Y-50049218D02*
X79585925Y-50050361D01*
X79283621Y-49902067D02*
X78748162Y-50779548D01*
X78748162Y-50779548D02*
X78787735Y-50041362D01*
X78787735Y-50041362D02*
X78385855Y-50661828D01*
X78385855Y-50661828D02*
X78468429Y-49637196D01*
X77837821Y-49882925D02*
X77943113Y-49867067D01*
X77943113Y-49867067D02*
X78003117Y-49836494D01*
X78003117Y-49836494D02*
X78077835Y-49760632D01*
X78077835Y-49760632D02*
X78092550Y-49715344D01*
X78092550Y-49715344D02*
X78076692Y-49610052D01*
X78076692Y-49610052D02*
X78046119Y-49550048D01*
X78046119Y-49550048D02*
X77970257Y-49475330D01*
X77970257Y-49475330D02*
X77789104Y-49416469D01*
X77789104Y-49416469D02*
X77683812Y-49432327D01*
X77683812Y-49432327D02*
X77623808Y-49462901D01*
X77623808Y-49462901D02*
X77549090Y-49538762D01*
X77549090Y-49538762D02*
X77534374Y-49584051D01*
X77534374Y-49584051D02*
X77550233Y-49689343D01*
X77550233Y-49689343D02*
X77580806Y-49749346D01*
X77580806Y-49749346D02*
X77656668Y-49824065D01*
X77656668Y-49824065D02*
X77837821Y-49882925D01*
X77837821Y-49882925D02*
X77913683Y-49957644D01*
X77913683Y-49957644D02*
X77944256Y-50017647D01*
X77944256Y-50017647D02*
X77960115Y-50122939D01*
X77960115Y-50122939D02*
X77901254Y-50304093D01*
X77901254Y-50304093D02*
X77826536Y-50379955D01*
X77826536Y-50379955D02*
X77766532Y-50410528D01*
X77766532Y-50410528D02*
X77661240Y-50426386D01*
X77661240Y-50426386D02*
X77480087Y-50367526D01*
X77480087Y-50367526D02*
X77404225Y-50292807D01*
X77404225Y-50292807D02*
X77373652Y-50232804D01*
X77373652Y-50232804D02*
X77357793Y-50127512D01*
X77357793Y-50127512D02*
X77416654Y-49946358D01*
X77416654Y-49946358D02*
X77491372Y-49870496D01*
X77491372Y-49870496D02*
X77551376Y-49839923D01*
X77551376Y-49839923D02*
X77656668Y-49824065D01*
X98719583Y-52802473D02*
X98569003Y-52803616D01*
X98569003Y-52803616D02*
X98342561Y-52730041D01*
X98342561Y-52730041D02*
X98266699Y-52655322D01*
X98266699Y-52655322D02*
X98236126Y-52595319D01*
X98236126Y-52595319D02*
X98220268Y-52490027D01*
X98220268Y-52490027D02*
X98249698Y-52399450D01*
X98249698Y-52399450D02*
X98324416Y-52323588D01*
X98324416Y-52323588D02*
X98384420Y-52293015D01*
X98384420Y-52293015D02*
X98489712Y-52277157D01*
X98489712Y-52277157D02*
X98685581Y-52290729D01*
X98685581Y-52290729D02*
X98790872Y-52274871D01*
X98790872Y-52274871D02*
X98850876Y-52244297D01*
X98850876Y-52244297D02*
X98925595Y-52168436D01*
X98925595Y-52168436D02*
X98955025Y-52077859D01*
X98955025Y-52077859D02*
X98939166Y-51972567D01*
X98939166Y-51972567D02*
X98908593Y-51912563D01*
X98908593Y-51912563D02*
X98832731Y-51837845D01*
X98832731Y-51837845D02*
X98606289Y-51764269D01*
X98606289Y-51764269D02*
X98455709Y-51765412D01*
X98153405Y-51617118D02*
X97617946Y-52494599D01*
X97617946Y-52494599D02*
X97657519Y-51756413D01*
X97657519Y-51756413D02*
X97255639Y-52376879D01*
X97255639Y-52376879D02*
X97338214Y-51352247D01*
X96168717Y-52023716D02*
X96712178Y-52200298D01*
X96440448Y-52112007D02*
X96749465Y-51160950D01*
X96749465Y-51160950D02*
X96795896Y-51326246D01*
X96795896Y-51326246D02*
X96857043Y-51446253D01*
X96857043Y-51446253D02*
X96932905Y-51520971D01*
X95262949Y-51729415D02*
X95806410Y-51905996D01*
X95534680Y-51817705D02*
X95843697Y-50866649D01*
X95843697Y-50866649D02*
X95890128Y-51031944D01*
X95890128Y-51031944D02*
X95951275Y-51151951D01*
X95951275Y-51151951D02*
X96027137Y-51226670D01*
X114540683Y-62359273D02*
X114390103Y-62360416D01*
X114390103Y-62360416D02*
X114163661Y-62286841D01*
X114163661Y-62286841D02*
X114087799Y-62212122D01*
X114087799Y-62212122D02*
X114057226Y-62152119D01*
X114057226Y-62152119D02*
X114041368Y-62046827D01*
X114041368Y-62046827D02*
X114070798Y-61956250D01*
X114070798Y-61956250D02*
X114145516Y-61880388D01*
X114145516Y-61880388D02*
X114205520Y-61849815D01*
X114205520Y-61849815D02*
X114310812Y-61833957D01*
X114310812Y-61833957D02*
X114506681Y-61847529D01*
X114506681Y-61847529D02*
X114611972Y-61831671D01*
X114611972Y-61831671D02*
X114671976Y-61801097D01*
X114671976Y-61801097D02*
X114746695Y-61725236D01*
X114746695Y-61725236D02*
X114776125Y-61634659D01*
X114776125Y-61634659D02*
X114760266Y-61529367D01*
X114760266Y-61529367D02*
X114729693Y-61469363D01*
X114729693Y-61469363D02*
X114653831Y-61394645D01*
X114653831Y-61394645D02*
X114427389Y-61321069D01*
X114427389Y-61321069D02*
X114276809Y-61322212D01*
X113974505Y-61173918D02*
X113439046Y-62051399D01*
X113439046Y-62051399D02*
X113478619Y-61313213D01*
X113478619Y-61313213D02*
X113076739Y-61933679D01*
X113076739Y-61933679D02*
X113159314Y-60909047D01*
X111989817Y-61580516D02*
X112533278Y-61757098D01*
X112261548Y-61668807D02*
X112570565Y-60717750D01*
X112570565Y-60717750D02*
X112616996Y-60883046D01*
X112616996Y-60883046D02*
X112678143Y-61003053D01*
X112678143Y-61003053D02*
X112754005Y-61077771D01*
X111438355Y-60349873D02*
X111891239Y-60497024D01*
X111891239Y-60497024D02*
X111789376Y-60964623D01*
X111789376Y-60964623D02*
X111758803Y-60904620D01*
X111758803Y-60904620D02*
X111682941Y-60829901D01*
X111682941Y-60829901D02*
X111456499Y-60756326D01*
X111456499Y-60756326D02*
X111351207Y-60772184D01*
X111351207Y-60772184D02*
X111291204Y-60802757D01*
X111291204Y-60802757D02*
X111216485Y-60878619D01*
X111216485Y-60878619D02*
X111142910Y-61105061D01*
X111142910Y-61105061D02*
X111158768Y-61210353D01*
X111158768Y-61210353D02*
X111189341Y-61270356D01*
X111189341Y-61270356D02*
X111265203Y-61345075D01*
X111265203Y-61345075D02*
X111491645Y-61418650D01*
X111491645Y-61418650D02*
X111596937Y-61402792D01*
X111596937Y-61402792D02*
X111656940Y-61372219D01*
X130361883Y-71915973D02*
X130211303Y-71917116D01*
X130211303Y-71917116D02*
X129984861Y-71843541D01*
X129984861Y-71843541D02*
X129908999Y-71768822D01*
X129908999Y-71768822D02*
X129878426Y-71708819D01*
X129878426Y-71708819D02*
X129862568Y-71603527D01*
X129862568Y-71603527D02*
X129891998Y-71512950D01*
X129891998Y-71512950D02*
X129966716Y-71437088D01*
X129966716Y-71437088D02*
X130026720Y-71406515D01*
X130026720Y-71406515D02*
X130132012Y-71390657D01*
X130132012Y-71390657D02*
X130327881Y-71404229D01*
X130327881Y-71404229D02*
X130433172Y-71388371D01*
X130433172Y-71388371D02*
X130493176Y-71357797D01*
X130493176Y-71357797D02*
X130567895Y-71281936D01*
X130567895Y-71281936D02*
X130597325Y-71191359D01*
X130597325Y-71191359D02*
X130581466Y-71086067D01*
X130581466Y-71086067D02*
X130550893Y-71026063D01*
X130550893Y-71026063D02*
X130475031Y-70951345D01*
X130475031Y-70951345D02*
X130248589Y-70877769D01*
X130248589Y-70877769D02*
X130098009Y-70878912D01*
X129795705Y-70730618D02*
X129260246Y-71608099D01*
X129260246Y-71608099D02*
X129299819Y-70869913D01*
X129299819Y-70869913D02*
X128897939Y-71490379D01*
X128897939Y-71490379D02*
X128980514Y-70465747D01*
X127811017Y-71137216D02*
X128354478Y-71313798D01*
X128082748Y-71225507D02*
X128391765Y-70274450D01*
X128391765Y-70274450D02*
X128438196Y-70439746D01*
X128438196Y-70439746D02*
X128499343Y-70559753D01*
X128499343Y-70559753D02*
X128575205Y-70634471D01*
X127358133Y-70990065D02*
X127176980Y-70931205D01*
X127176980Y-70931205D02*
X127101118Y-70856486D01*
X127101118Y-70856486D02*
X127070545Y-70796483D01*
X127070545Y-70796483D02*
X127024113Y-70631188D01*
X127024113Y-70631188D02*
X127037685Y-70435319D01*
X127037685Y-70435319D02*
X127155406Y-70073012D01*
X127155406Y-70073012D02*
X127230125Y-69997150D01*
X127230125Y-69997150D02*
X127290128Y-69966577D01*
X127290128Y-69966577D02*
X127395420Y-69950718D01*
X127395420Y-69950718D02*
X127576574Y-70009579D01*
X127576574Y-70009579D02*
X127652435Y-70084297D01*
X127652435Y-70084297D02*
X127683009Y-70144301D01*
X127683009Y-70144301D02*
X127698867Y-70249593D01*
X127698867Y-70249593D02*
X127625291Y-70476035D01*
X127625291Y-70476035D02*
X127550573Y-70551897D01*
X127550573Y-70551897D02*
X127490569Y-70582470D01*
X127490569Y-70582470D02*
X127385277Y-70598328D01*
X127385277Y-70598328D02*
X127204124Y-70539468D01*
X127204124Y-70539468D02*
X127128262Y-70464749D01*
X127128262Y-70464749D02*
X127097689Y-70404746D01*
X127097689Y-70404746D02*
X127081830Y-70299454D01*
X179784328Y-68050465D02*
X179663178Y-68139899D01*
X179663178Y-68139899D02*
X179436735Y-68213474D01*
X179436735Y-68213474D02*
X179331444Y-68197616D01*
X179331444Y-68197616D02*
X179271440Y-68167043D01*
X179271440Y-68167043D02*
X179196721Y-68091181D01*
X179196721Y-68091181D02*
X179167291Y-68000604D01*
X179167291Y-68000604D02*
X179183150Y-67895312D01*
X179183150Y-67895312D02*
X179213723Y-67835309D01*
X179213723Y-67835309D02*
X179289585Y-67760590D01*
X179289585Y-67760590D02*
X179456023Y-67656441D01*
X179456023Y-67656441D02*
X179531885Y-67581723D01*
X179531885Y-67581723D02*
X179562458Y-67521719D01*
X179562458Y-67521719D02*
X179578316Y-67416427D01*
X179578316Y-67416427D02*
X179548886Y-67325851D01*
X179548886Y-67325851D02*
X179474168Y-67249989D01*
X179474168Y-67249989D02*
X179414164Y-67219416D01*
X179414164Y-67219416D02*
X179308872Y-67203557D01*
X179308872Y-67203557D02*
X179082430Y-67277133D01*
X179082430Y-67277133D02*
X178961280Y-67366567D01*
X178629546Y-67424284D02*
X178712121Y-68448916D01*
X178712121Y-68448916D02*
X178310241Y-67828450D01*
X178310241Y-67828450D02*
X178349814Y-68566637D01*
X178349814Y-68566637D02*
X177814355Y-67689156D01*
X177526766Y-67882738D02*
X177466763Y-67852165D01*
X177466763Y-67852165D02*
X177361471Y-67836306D01*
X177361471Y-67836306D02*
X177135029Y-67909882D01*
X177135029Y-67909882D02*
X177059167Y-67984600D01*
X177059167Y-67984600D02*
X177028594Y-68044604D01*
X177028594Y-68044604D02*
X177012735Y-68149896D01*
X177012735Y-68149896D02*
X177042166Y-68240473D01*
X177042166Y-68240473D02*
X177131599Y-68361623D01*
X177131599Y-68361623D02*
X177851641Y-68728503D01*
X177851641Y-68728503D02*
X177262892Y-68919799D01*
X176636856Y-68071748D02*
X176048107Y-68263044D01*
X176048107Y-68263044D02*
X176482847Y-68522346D01*
X176482847Y-68522346D02*
X176346981Y-68566491D01*
X176346981Y-68566491D02*
X176271120Y-68641210D01*
X176271120Y-68641210D02*
X176240546Y-68701213D01*
X176240546Y-68701213D02*
X176224688Y-68806505D01*
X176224688Y-68806505D02*
X176298264Y-69032947D01*
X176298264Y-69032947D02*
X176372982Y-69108809D01*
X176372982Y-69108809D02*
X176432986Y-69139382D01*
X176432986Y-69139382D02*
X176538278Y-69155240D01*
X176538278Y-69155240D02*
X176810008Y-69066950D01*
X176810008Y-69066950D02*
X176885870Y-68992231D01*
X176885870Y-68992231D02*
X176916443Y-68932228D01*
X195605428Y-58493765D02*
X195484278Y-58583199D01*
X195484278Y-58583199D02*
X195257835Y-58656774D01*
X195257835Y-58656774D02*
X195152544Y-58640916D01*
X195152544Y-58640916D02*
X195092540Y-58610343D01*
X195092540Y-58610343D02*
X195017821Y-58534481D01*
X195017821Y-58534481D02*
X194988391Y-58443904D01*
X194988391Y-58443904D02*
X195004250Y-58338612D01*
X195004250Y-58338612D02*
X195034823Y-58278609D01*
X195034823Y-58278609D02*
X195110685Y-58203890D01*
X195110685Y-58203890D02*
X195277123Y-58099741D01*
X195277123Y-58099741D02*
X195352985Y-58025023D01*
X195352985Y-58025023D02*
X195383558Y-57965019D01*
X195383558Y-57965019D02*
X195399416Y-57859727D01*
X195399416Y-57859727D02*
X195369986Y-57769151D01*
X195369986Y-57769151D02*
X195295268Y-57693289D01*
X195295268Y-57693289D02*
X195235264Y-57662716D01*
X195235264Y-57662716D02*
X195129972Y-57646857D01*
X195129972Y-57646857D02*
X194903530Y-57720433D01*
X194903530Y-57720433D02*
X194782380Y-57809867D01*
X194450646Y-57867584D02*
X194533221Y-58892216D01*
X194533221Y-58892216D02*
X194131341Y-58271750D01*
X194131341Y-58271750D02*
X194170914Y-59009937D01*
X194170914Y-59009937D02*
X193635455Y-58132456D01*
X193347866Y-58326038D02*
X193287863Y-58295465D01*
X193287863Y-58295465D02*
X193182571Y-58279606D01*
X193182571Y-58279606D02*
X192956129Y-58353182D01*
X192956129Y-58353182D02*
X192880267Y-58427900D01*
X192880267Y-58427900D02*
X192849694Y-58487904D01*
X192849694Y-58487904D02*
X192833835Y-58593196D01*
X192833835Y-58593196D02*
X192863266Y-58683773D01*
X192863266Y-58683773D02*
X192952699Y-58804923D01*
X192952699Y-58804923D02*
X193672741Y-59171803D01*
X193672741Y-59171803D02*
X193083992Y-59363099D01*
X192457956Y-58515048D02*
X191823919Y-58721059D01*
X191823919Y-58721059D02*
X192540531Y-59539680D01*
X211426628Y-48936965D02*
X211305478Y-49026399D01*
X211305478Y-49026399D02*
X211079035Y-49099974D01*
X211079035Y-49099974D02*
X210973744Y-49084116D01*
X210973744Y-49084116D02*
X210913740Y-49053543D01*
X210913740Y-49053543D02*
X210839021Y-48977681D01*
X210839021Y-48977681D02*
X210809591Y-48887104D01*
X210809591Y-48887104D02*
X210825450Y-48781812D01*
X210825450Y-48781812D02*
X210856023Y-48721809D01*
X210856023Y-48721809D02*
X210931885Y-48647090D01*
X210931885Y-48647090D02*
X211098323Y-48542941D01*
X211098323Y-48542941D02*
X211174185Y-48468223D01*
X211174185Y-48468223D02*
X211204758Y-48408219D01*
X211204758Y-48408219D02*
X211220616Y-48302927D01*
X211220616Y-48302927D02*
X211191186Y-48212351D01*
X211191186Y-48212351D02*
X211116468Y-48136489D01*
X211116468Y-48136489D02*
X211056464Y-48105916D01*
X211056464Y-48105916D02*
X210951172Y-48090057D01*
X210951172Y-48090057D02*
X210724730Y-48163633D01*
X210724730Y-48163633D02*
X210603580Y-48253067D01*
X210271846Y-48310784D02*
X210354421Y-49335416D01*
X210354421Y-49335416D02*
X209952541Y-48714950D01*
X209952541Y-48714950D02*
X209992114Y-49453137D01*
X209992114Y-49453137D02*
X209456655Y-48575656D01*
X209184924Y-48663946D02*
X208596175Y-48855242D01*
X208596175Y-48855242D02*
X209030915Y-49114544D01*
X209030915Y-49114544D02*
X208895049Y-49158689D01*
X208895049Y-49158689D02*
X208819188Y-49233408D01*
X208819188Y-49233408D02*
X208788614Y-49293411D01*
X208788614Y-49293411D02*
X208772756Y-49398703D01*
X208772756Y-49398703D02*
X208846332Y-49625145D01*
X208846332Y-49625145D02*
X208921050Y-49701007D01*
X208921050Y-49701007D02*
X208981054Y-49731580D01*
X208981054Y-49731580D02*
X209086346Y-49747438D01*
X209086346Y-49747438D02*
X209358076Y-49659148D01*
X209358076Y-49659148D02*
X209433938Y-49584429D01*
X209433938Y-49584429D02*
X209464511Y-49524426D01*
X207999424Y-50100601D02*
X208542885Y-49924020D01*
X208271154Y-50012310D02*
X207962137Y-49061254D01*
X207962137Y-49061254D02*
X208096859Y-49167689D01*
X208096859Y-49167689D02*
X208216866Y-49228835D01*
X208216866Y-49228835D02*
X208322158Y-49244693D01*
X229843428Y-47369065D02*
X229722278Y-47458499D01*
X229722278Y-47458499D02*
X229495835Y-47532074D01*
X229495835Y-47532074D02*
X229390544Y-47516216D01*
X229390544Y-47516216D02*
X229330540Y-47485643D01*
X229330540Y-47485643D02*
X229255821Y-47409781D01*
X229255821Y-47409781D02*
X229226391Y-47319204D01*
X229226391Y-47319204D02*
X229242250Y-47213912D01*
X229242250Y-47213912D02*
X229272823Y-47153909D01*
X229272823Y-47153909D02*
X229348685Y-47079190D01*
X229348685Y-47079190D02*
X229515123Y-46975041D01*
X229515123Y-46975041D02*
X229590985Y-46900323D01*
X229590985Y-46900323D02*
X229621558Y-46840319D01*
X229621558Y-46840319D02*
X229637416Y-46735027D01*
X229637416Y-46735027D02*
X229607986Y-46644451D01*
X229607986Y-46644451D02*
X229533268Y-46568589D01*
X229533268Y-46568589D02*
X229473264Y-46538016D01*
X229473264Y-46538016D02*
X229367972Y-46522157D01*
X229367972Y-46522157D02*
X229141530Y-46595733D01*
X229141530Y-46595733D02*
X229020380Y-46685167D01*
X228688646Y-46742884D02*
X228771221Y-47767516D01*
X228771221Y-47767516D02*
X228369341Y-47147050D01*
X228369341Y-47147050D02*
X228408914Y-47885237D01*
X228408914Y-47885237D02*
X227873455Y-47007756D01*
X227601724Y-47096046D02*
X227012975Y-47287342D01*
X227012975Y-47287342D02*
X227447715Y-47546644D01*
X227447715Y-47546644D02*
X227311849Y-47590789D01*
X227311849Y-47590789D02*
X227235988Y-47665508D01*
X227235988Y-47665508D02*
X227205414Y-47725511D01*
X227205414Y-47725511D02*
X227189556Y-47830803D01*
X227189556Y-47830803D02*
X227263132Y-48057245D01*
X227263132Y-48057245D02*
X227337850Y-48133107D01*
X227337850Y-48133107D02*
X227397854Y-48163680D01*
X227397854Y-48163680D02*
X227503146Y-48179538D01*
X227503146Y-48179538D02*
X227774876Y-48091248D01*
X227774876Y-48091248D02*
X227850738Y-48016529D01*
X227850738Y-48016529D02*
X227881311Y-47956526D01*
X226152495Y-47566929D02*
X226605379Y-47419778D01*
X226605379Y-47419778D02*
X226797819Y-47857947D01*
X226797819Y-47857947D02*
X226737815Y-47827374D01*
X226737815Y-47827374D02*
X226632523Y-47811516D01*
X226632523Y-47811516D02*
X226406081Y-47885091D01*
X226406081Y-47885091D02*
X226330220Y-47959810D01*
X226330220Y-47959810D02*
X226299646Y-48019813D01*
X226299646Y-48019813D02*
X226283788Y-48125105D01*
X226283788Y-48125105D02*
X226357364Y-48351547D01*
X226357364Y-48351547D02*
X226432082Y-48427409D01*
X226432082Y-48427409D02*
X226492086Y-48457982D01*
X226492086Y-48457982D02*
X226597378Y-48473840D01*
X226597378Y-48473840D02*
X226823820Y-48400265D01*
X226823820Y-48400265D02*
X226899681Y-48325546D01*
X226899681Y-48325546D02*
X226930255Y-48265543D01*
X248260328Y-45801265D02*
X248139178Y-45890699D01*
X248139178Y-45890699D02*
X247912735Y-45964274D01*
X247912735Y-45964274D02*
X247807444Y-45948416D01*
X247807444Y-45948416D02*
X247747440Y-45917843D01*
X247747440Y-45917843D02*
X247672721Y-45841981D01*
X247672721Y-45841981D02*
X247643291Y-45751404D01*
X247643291Y-45751404D02*
X247659150Y-45646112D01*
X247659150Y-45646112D02*
X247689723Y-45586109D01*
X247689723Y-45586109D02*
X247765585Y-45511390D01*
X247765585Y-45511390D02*
X247932023Y-45407241D01*
X247932023Y-45407241D02*
X248007885Y-45332523D01*
X248007885Y-45332523D02*
X248038458Y-45272519D01*
X248038458Y-45272519D02*
X248054316Y-45167227D01*
X248054316Y-45167227D02*
X248024886Y-45076651D01*
X248024886Y-45076651D02*
X247950168Y-45000789D01*
X247950168Y-45000789D02*
X247890164Y-44970216D01*
X247890164Y-44970216D02*
X247784872Y-44954357D01*
X247784872Y-44954357D02*
X247558430Y-45027933D01*
X247558430Y-45027933D02*
X247437280Y-45117367D01*
X247105546Y-45175084D02*
X247188121Y-46199716D01*
X247188121Y-46199716D02*
X246786241Y-45579250D01*
X246786241Y-45579250D02*
X246825814Y-46317437D01*
X246825814Y-46317437D02*
X246290355Y-45439956D01*
X246018624Y-45528246D02*
X245429875Y-45719542D01*
X245429875Y-45719542D02*
X245864615Y-45978844D01*
X245864615Y-45978844D02*
X245728749Y-46022989D01*
X245728749Y-46022989D02*
X245652888Y-46097708D01*
X245652888Y-46097708D02*
X245622314Y-46157711D01*
X245622314Y-46157711D02*
X245606456Y-46263003D01*
X245606456Y-46263003D02*
X245680032Y-46489445D01*
X245680032Y-46489445D02*
X245754750Y-46565307D01*
X245754750Y-46565307D02*
X245814754Y-46595880D01*
X245814754Y-46595880D02*
X245920046Y-46611738D01*
X245920046Y-46611738D02*
X246191776Y-46523448D01*
X246191776Y-46523448D02*
X246267638Y-46448729D01*
X246267638Y-46448729D02*
X246298211Y-46388726D01*
X245018850Y-46303719D02*
X245094712Y-46229000D01*
X245094712Y-46229000D02*
X245125285Y-46168997D01*
X245125285Y-46168997D02*
X245141143Y-46063705D01*
X245141143Y-46063705D02*
X245126428Y-46018417D01*
X245126428Y-46018417D02*
X245051710Y-45942555D01*
X245051710Y-45942555D02*
X244991706Y-45911982D01*
X244991706Y-45911982D02*
X244886414Y-45896123D01*
X244886414Y-45896123D02*
X244705261Y-45954984D01*
X244705261Y-45954984D02*
X244629399Y-46029702D01*
X244629399Y-46029702D02*
X244598826Y-46089706D01*
X244598826Y-46089706D02*
X244582967Y-46194998D01*
X244582967Y-46194998D02*
X244597682Y-46240286D01*
X244597682Y-46240286D02*
X244672401Y-46316148D01*
X244672401Y-46316148D02*
X244732405Y-46346721D01*
X244732405Y-46346721D02*
X244837696Y-46362579D01*
X244837696Y-46362579D02*
X245018850Y-46303719D01*
X245018850Y-46303719D02*
X245124142Y-46319577D01*
X245124142Y-46319577D02*
X245184145Y-46350151D01*
X245184145Y-46350151D02*
X245258864Y-46426012D01*
X245258864Y-46426012D02*
X245317724Y-46607166D01*
X245317724Y-46607166D02*
X245301866Y-46712458D01*
X245301866Y-46712458D02*
X245271293Y-46772461D01*
X245271293Y-46772461D02*
X245195431Y-46847180D01*
X245195431Y-46847180D02*
X245014278Y-46906040D01*
X245014278Y-46906040D02*
X244908986Y-46890182D01*
X244908986Y-46890182D02*
X244848982Y-46859609D01*
X244848982Y-46859609D02*
X244774264Y-46783747D01*
X244774264Y-46783747D02*
X244715403Y-46602593D01*
X244715403Y-46602593D02*
X244731261Y-46497302D01*
X244731261Y-46497302D02*
X244761835Y-46437298D01*
X244761835Y-46437298D02*
X244837696Y-46362579D01*
X266677228Y-44233365D02*
X266556078Y-44322799D01*
X266556078Y-44322799D02*
X266329635Y-44396374D01*
X266329635Y-44396374D02*
X266224344Y-44380516D01*
X266224344Y-44380516D02*
X266164340Y-44349943D01*
X266164340Y-44349943D02*
X266089621Y-44274081D01*
X266089621Y-44274081D02*
X266060191Y-44183504D01*
X266060191Y-44183504D02*
X266076050Y-44078212D01*
X266076050Y-44078212D02*
X266106623Y-44018209D01*
X266106623Y-44018209D02*
X266182485Y-43943490D01*
X266182485Y-43943490D02*
X266348923Y-43839341D01*
X266348923Y-43839341D02*
X266424785Y-43764623D01*
X266424785Y-43764623D02*
X266455358Y-43704619D01*
X266455358Y-43704619D02*
X266471216Y-43599327D01*
X266471216Y-43599327D02*
X266441786Y-43508751D01*
X266441786Y-43508751D02*
X266367068Y-43432889D01*
X266367068Y-43432889D02*
X266307064Y-43402316D01*
X266307064Y-43402316D02*
X266201772Y-43386457D01*
X266201772Y-43386457D02*
X265975330Y-43460033D01*
X265975330Y-43460033D02*
X265854180Y-43549467D01*
X265522446Y-43607184D02*
X265605021Y-44631816D01*
X265605021Y-44631816D02*
X265203141Y-44011350D01*
X265203141Y-44011350D02*
X265242714Y-44749537D01*
X265242714Y-44749537D02*
X264707255Y-43872056D01*
X264040358Y-44439231D02*
X264246369Y-45073269D01*
X264149079Y-44003348D02*
X264596247Y-44609099D01*
X264596247Y-44609099D02*
X264007498Y-44800395D01*
X263250024Y-45397001D02*
X263793485Y-45220420D01*
X263521754Y-45308710D02*
X263212737Y-44357654D01*
X263212737Y-44357654D02*
X263347459Y-44464089D01*
X263347459Y-44464089D02*
X263467466Y-44525235D01*
X263467466Y-44525235D02*
X263572758Y-44541093D01*
X48269299Y-31783722D02*
X48118718Y-31784865D01*
X48118718Y-31784865D02*
X47892276Y-31711290D01*
X47892276Y-31711290D02*
X47816415Y-31636571D01*
X47816415Y-31636571D02*
X47785841Y-31576568D01*
X47785841Y-31576568D02*
X47769983Y-31471276D01*
X47769983Y-31471276D02*
X47799413Y-31380699D01*
X47799413Y-31380699D02*
X47874132Y-31304837D01*
X47874132Y-31304837D02*
X47934135Y-31274264D01*
X47934135Y-31274264D02*
X48039427Y-31258406D01*
X48039427Y-31258406D02*
X48235296Y-31271978D01*
X48235296Y-31271978D02*
X48340588Y-31256120D01*
X48340588Y-31256120D02*
X48400591Y-31225546D01*
X48400591Y-31225546D02*
X48475310Y-31149685D01*
X48475310Y-31149685D02*
X48504740Y-31059108D01*
X48504740Y-31059108D02*
X48488882Y-30953816D01*
X48488882Y-30953816D02*
X48458309Y-30893812D01*
X48458309Y-30893812D02*
X48382447Y-30819094D01*
X48382447Y-30819094D02*
X48156005Y-30745518D01*
X48156005Y-30745518D02*
X48005425Y-30746661D01*
X47703121Y-30598367D02*
X47167662Y-31475848D01*
X47167662Y-31475848D02*
X47207235Y-30737662D01*
X47207235Y-30737662D02*
X46805355Y-31358128D01*
X46805355Y-31358128D02*
X46887929Y-30333496D01*
X45718433Y-31004965D02*
X46261894Y-31181546D01*
X45990163Y-31093256D02*
X46299180Y-30142199D01*
X46299180Y-30142199D02*
X46345612Y-30307495D01*
X46345612Y-30307495D02*
X46406758Y-30427502D01*
X46406758Y-30427502D02*
X46482620Y-30502220D01*
X66686199Y-33351622D02*
X66535618Y-33352765D01*
X66535618Y-33352765D02*
X66309176Y-33279190D01*
X66309176Y-33279190D02*
X66233315Y-33204471D01*
X66233315Y-33204471D02*
X66202741Y-33144468D01*
X66202741Y-33144468D02*
X66186883Y-33039176D01*
X66186883Y-33039176D02*
X66216313Y-32948599D01*
X66216313Y-32948599D02*
X66291032Y-32872737D01*
X66291032Y-32872737D02*
X66351035Y-32842164D01*
X66351035Y-32842164D02*
X66456327Y-32826306D01*
X66456327Y-32826306D02*
X66652196Y-32839878D01*
X66652196Y-32839878D02*
X66757488Y-32824020D01*
X66757488Y-32824020D02*
X66817491Y-32793446D01*
X66817491Y-32793446D02*
X66892210Y-32717585D01*
X66892210Y-32717585D02*
X66921640Y-32627008D01*
X66921640Y-32627008D02*
X66905782Y-32521716D01*
X66905782Y-32521716D02*
X66875209Y-32461712D01*
X66875209Y-32461712D02*
X66799347Y-32386994D01*
X66799347Y-32386994D02*
X66572905Y-32313418D01*
X66572905Y-32313418D02*
X66422325Y-32314561D01*
X66120021Y-32166267D02*
X65584562Y-33043748D01*
X65584562Y-33043748D02*
X65624135Y-32305562D01*
X65624135Y-32305562D02*
X65222255Y-32926028D01*
X65222255Y-32926028D02*
X65304829Y-31901396D01*
X64431921Y-31968258D02*
X64225910Y-32602296D01*
X64776084Y-31679526D02*
X64781799Y-32432428D01*
X64781799Y-32432428D02*
X64193050Y-32241131D01*
X85103099Y-34919522D02*
X84952518Y-34920665D01*
X84952518Y-34920665D02*
X84726076Y-34847090D01*
X84726076Y-34847090D02*
X84650215Y-34772371D01*
X84650215Y-34772371D02*
X84619641Y-34712368D01*
X84619641Y-34712368D02*
X84603783Y-34607076D01*
X84603783Y-34607076D02*
X84633213Y-34516499D01*
X84633213Y-34516499D02*
X84707932Y-34440637D01*
X84707932Y-34440637D02*
X84767935Y-34410064D01*
X84767935Y-34410064D02*
X84873227Y-34394206D01*
X84873227Y-34394206D02*
X85069096Y-34407778D01*
X85069096Y-34407778D02*
X85174388Y-34391920D01*
X85174388Y-34391920D02*
X85234391Y-34361346D01*
X85234391Y-34361346D02*
X85309110Y-34285485D01*
X85309110Y-34285485D02*
X85338540Y-34194908D01*
X85338540Y-34194908D02*
X85322682Y-34089616D01*
X85322682Y-34089616D02*
X85292109Y-34029612D01*
X85292109Y-34029612D02*
X85216247Y-33954894D01*
X85216247Y-33954894D02*
X84989805Y-33881318D01*
X84989805Y-33881318D02*
X84839225Y-33882461D01*
X84536921Y-33734167D02*
X84001462Y-34611648D01*
X84001462Y-34611648D02*
X84041035Y-33873462D01*
X84041035Y-33873462D02*
X83639155Y-34493928D01*
X83639155Y-34493928D02*
X83721729Y-33469296D01*
X83449999Y-33381005D02*
X82815962Y-33174994D01*
X82815962Y-33174994D02*
X82914540Y-34258486D01*
X103972883Y-36634573D02*
X103822303Y-36635716D01*
X103822303Y-36635716D02*
X103595861Y-36562141D01*
X103595861Y-36562141D02*
X103519999Y-36487422D01*
X103519999Y-36487422D02*
X103489426Y-36427419D01*
X103489426Y-36427419D02*
X103473568Y-36322127D01*
X103473568Y-36322127D02*
X103502998Y-36231550D01*
X103502998Y-36231550D02*
X103577716Y-36155688D01*
X103577716Y-36155688D02*
X103637720Y-36125115D01*
X103637720Y-36125115D02*
X103743012Y-36109257D01*
X103743012Y-36109257D02*
X103938881Y-36122829D01*
X103938881Y-36122829D02*
X104044172Y-36106971D01*
X104044172Y-36106971D02*
X104104176Y-36076397D01*
X104104176Y-36076397D02*
X104178895Y-36000536D01*
X104178895Y-36000536D02*
X104208325Y-35909959D01*
X104208325Y-35909959D02*
X104192466Y-35804667D01*
X104192466Y-35804667D02*
X104161893Y-35744663D01*
X104161893Y-35744663D02*
X104086031Y-35669945D01*
X104086031Y-35669945D02*
X103859589Y-35596369D01*
X103859589Y-35596369D02*
X103709009Y-35597512D01*
X103406705Y-35449218D02*
X102871246Y-36326699D01*
X102871246Y-36326699D02*
X102910819Y-35588513D01*
X102910819Y-35588513D02*
X102508939Y-36208979D01*
X102508939Y-36208979D02*
X102591514Y-35184347D01*
X101422017Y-35855816D02*
X101965478Y-36032398D01*
X101693748Y-35944107D02*
X102002765Y-34993050D01*
X102002765Y-34993050D02*
X102049196Y-35158346D01*
X102049196Y-35158346D02*
X102110343Y-35278353D01*
X102110343Y-35278353D02*
X102186205Y-35353071D01*
X101142285Y-34713464D02*
X101051708Y-34684033D01*
X101051708Y-34684033D02*
X100946416Y-34699892D01*
X100946416Y-34699892D02*
X100886413Y-34730465D01*
X100886413Y-34730465D02*
X100811694Y-34806327D01*
X100811694Y-34806327D02*
X100707546Y-34972765D01*
X100707546Y-34972765D02*
X100633970Y-35199207D01*
X100633970Y-35199207D02*
X100620398Y-35395076D01*
X100620398Y-35395076D02*
X100636256Y-35500368D01*
X100636256Y-35500368D02*
X100666830Y-35560371D01*
X100666830Y-35560371D02*
X100742691Y-35635090D01*
X100742691Y-35635090D02*
X100833268Y-35664520D01*
X100833268Y-35664520D02*
X100938560Y-35648662D01*
X100938560Y-35648662D02*
X100998564Y-35618089D01*
X100998564Y-35618089D02*
X101073282Y-35542227D01*
X101073282Y-35542227D02*
X101177431Y-35375788D01*
X101177431Y-35375788D02*
X101251006Y-35149346D01*
X101251006Y-35149346D02*
X101264578Y-34953478D01*
X101264578Y-34953478D02*
X101248720Y-34848186D01*
X101248720Y-34848186D02*
X101218147Y-34788182D01*
X101218147Y-34788182D02*
X101142285Y-34713464D01*
X119793983Y-46191273D02*
X119643403Y-46192416D01*
X119643403Y-46192416D02*
X119416961Y-46118841D01*
X119416961Y-46118841D02*
X119341099Y-46044122D01*
X119341099Y-46044122D02*
X119310526Y-45984119D01*
X119310526Y-45984119D02*
X119294668Y-45878827D01*
X119294668Y-45878827D02*
X119324098Y-45788250D01*
X119324098Y-45788250D02*
X119398816Y-45712388D01*
X119398816Y-45712388D02*
X119458820Y-45681815D01*
X119458820Y-45681815D02*
X119564112Y-45665957D01*
X119564112Y-45665957D02*
X119759981Y-45679529D01*
X119759981Y-45679529D02*
X119865272Y-45663671D01*
X119865272Y-45663671D02*
X119925276Y-45633097D01*
X119925276Y-45633097D02*
X119999995Y-45557236D01*
X119999995Y-45557236D02*
X120029425Y-45466659D01*
X120029425Y-45466659D02*
X120013566Y-45361367D01*
X120013566Y-45361367D02*
X119982993Y-45301363D01*
X119982993Y-45301363D02*
X119907131Y-45226645D01*
X119907131Y-45226645D02*
X119680689Y-45153069D01*
X119680689Y-45153069D02*
X119530109Y-45154212D01*
X119227805Y-45005918D02*
X118692346Y-45883399D01*
X118692346Y-45883399D02*
X118731919Y-45145213D01*
X118731919Y-45145213D02*
X118330039Y-45765679D01*
X118330039Y-45765679D02*
X118412614Y-44741047D01*
X117243117Y-45412516D02*
X117786578Y-45589098D01*
X117514848Y-45500807D02*
X117823865Y-44549750D01*
X117823865Y-44549750D02*
X117870296Y-44715046D01*
X117870296Y-44715046D02*
X117931443Y-44835053D01*
X117931443Y-44835053D02*
X118007305Y-44909771D01*
X116633937Y-44513607D02*
X116427926Y-45147645D01*
X116978100Y-44224875D02*
X116983816Y-44977777D01*
X116983816Y-44977777D02*
X116395067Y-44786481D01*
X135615183Y-55747973D02*
X135464603Y-55749116D01*
X135464603Y-55749116D02*
X135238161Y-55675541D01*
X135238161Y-55675541D02*
X135162299Y-55600822D01*
X135162299Y-55600822D02*
X135131726Y-55540819D01*
X135131726Y-55540819D02*
X135115868Y-55435527D01*
X135115868Y-55435527D02*
X135145298Y-55344950D01*
X135145298Y-55344950D02*
X135220016Y-55269088D01*
X135220016Y-55269088D02*
X135280020Y-55238515D01*
X135280020Y-55238515D02*
X135385312Y-55222657D01*
X135385312Y-55222657D02*
X135581181Y-55236229D01*
X135581181Y-55236229D02*
X135686472Y-55220371D01*
X135686472Y-55220371D02*
X135746476Y-55189797D01*
X135746476Y-55189797D02*
X135821195Y-55113936D01*
X135821195Y-55113936D02*
X135850625Y-55023359D01*
X135850625Y-55023359D02*
X135834766Y-54918067D01*
X135834766Y-54918067D02*
X135804193Y-54858063D01*
X135804193Y-54858063D02*
X135728331Y-54783345D01*
X135728331Y-54783345D02*
X135501889Y-54709769D01*
X135501889Y-54709769D02*
X135351309Y-54710912D01*
X135049005Y-54562618D02*
X134513546Y-55440099D01*
X134513546Y-55440099D02*
X134553119Y-54701913D01*
X134553119Y-54701913D02*
X134151239Y-55322379D01*
X134151239Y-55322379D02*
X134233814Y-54297747D01*
X133064317Y-54969216D02*
X133607778Y-55145798D01*
X133336048Y-55057507D02*
X133645065Y-54106450D01*
X133645065Y-54106450D02*
X133691496Y-54271746D01*
X133691496Y-54271746D02*
X133752643Y-54391753D01*
X133752643Y-54391753D02*
X133828505Y-54466471D01*
X132697438Y-54249174D02*
X132802730Y-54233316D01*
X132802730Y-54233316D02*
X132862733Y-54202743D01*
X132862733Y-54202743D02*
X132937452Y-54126881D01*
X132937452Y-54126881D02*
X132952167Y-54081593D01*
X132952167Y-54081593D02*
X132936309Y-53976301D01*
X132936309Y-53976301D02*
X132905735Y-53916297D01*
X132905735Y-53916297D02*
X132829874Y-53841579D01*
X132829874Y-53841579D02*
X132648720Y-53782718D01*
X132648720Y-53782718D02*
X132543428Y-53798577D01*
X132543428Y-53798577D02*
X132483425Y-53829150D01*
X132483425Y-53829150D02*
X132408706Y-53905012D01*
X132408706Y-53905012D02*
X132393991Y-53950300D01*
X132393991Y-53950300D02*
X132409849Y-54055592D01*
X132409849Y-54055592D02*
X132440422Y-54115595D01*
X132440422Y-54115595D02*
X132516284Y-54190314D01*
X132516284Y-54190314D02*
X132697438Y-54249174D01*
X132697438Y-54249174D02*
X132773299Y-54323893D01*
X132773299Y-54323893D02*
X132803873Y-54383897D01*
X132803873Y-54383897D02*
X132819731Y-54489188D01*
X132819731Y-54489188D02*
X132760871Y-54670342D01*
X132760871Y-54670342D02*
X132686152Y-54746204D01*
X132686152Y-54746204D02*
X132626148Y-54776777D01*
X132626148Y-54776777D02*
X132520857Y-54792635D01*
X132520857Y-54792635D02*
X132339703Y-54733775D01*
X132339703Y-54733775D02*
X132263841Y-54659056D01*
X132263841Y-54659056D02*
X132233268Y-54599053D01*
X132233268Y-54599053D02*
X132217410Y-54493761D01*
X132217410Y-54493761D02*
X132276270Y-54312607D01*
X132276270Y-54312607D02*
X132350989Y-54236746D01*
X132350989Y-54236746D02*
X132410992Y-54206172D01*
X132410992Y-54206172D02*
X132516284Y-54190314D01*
X174531028Y-51882465D02*
X174409878Y-51971899D01*
X174409878Y-51971899D02*
X174183435Y-52045474D01*
X174183435Y-52045474D02*
X174078144Y-52029616D01*
X174078144Y-52029616D02*
X174018140Y-51999043D01*
X174018140Y-51999043D02*
X173943421Y-51923181D01*
X173943421Y-51923181D02*
X173913991Y-51832604D01*
X173913991Y-51832604D02*
X173929850Y-51727312D01*
X173929850Y-51727312D02*
X173960423Y-51667309D01*
X173960423Y-51667309D02*
X174036285Y-51592590D01*
X174036285Y-51592590D02*
X174202723Y-51488441D01*
X174202723Y-51488441D02*
X174278585Y-51413723D01*
X174278585Y-51413723D02*
X174309158Y-51353719D01*
X174309158Y-51353719D02*
X174325016Y-51248427D01*
X174325016Y-51248427D02*
X174295586Y-51157851D01*
X174295586Y-51157851D02*
X174220868Y-51081989D01*
X174220868Y-51081989D02*
X174160864Y-51051416D01*
X174160864Y-51051416D02*
X174055572Y-51035557D01*
X174055572Y-51035557D02*
X173829130Y-51109133D01*
X173829130Y-51109133D02*
X173707980Y-51198567D01*
X173376246Y-51256284D02*
X173458821Y-52280916D01*
X173458821Y-52280916D02*
X173056941Y-51660450D01*
X173056941Y-51660450D02*
X173096514Y-52398637D01*
X173096514Y-52398637D02*
X172561055Y-51521156D01*
X172273466Y-51714738D02*
X172213463Y-51684165D01*
X172213463Y-51684165D02*
X172108171Y-51668306D01*
X172108171Y-51668306D02*
X171881729Y-51741882D01*
X171881729Y-51741882D02*
X171805867Y-51816600D01*
X171805867Y-51816600D02*
X171775294Y-51876604D01*
X171775294Y-51876604D02*
X171759435Y-51981896D01*
X171759435Y-51981896D02*
X171788866Y-52072473D01*
X171788866Y-52072473D02*
X171878299Y-52193623D01*
X171878299Y-52193623D02*
X172598341Y-52560503D01*
X172598341Y-52560503D02*
X172009592Y-52751799D01*
X171367698Y-52009040D02*
X171307695Y-51978467D01*
X171307695Y-51978467D02*
X171202403Y-51962608D01*
X171202403Y-51962608D02*
X170975961Y-52036184D01*
X170975961Y-52036184D02*
X170900099Y-52110902D01*
X170900099Y-52110902D02*
X170869526Y-52170906D01*
X170869526Y-52170906D02*
X170853667Y-52276198D01*
X170853667Y-52276198D02*
X170883098Y-52366775D01*
X170883098Y-52366775D02*
X170972531Y-52487925D01*
X170972531Y-52487925D02*
X171692573Y-52854804D01*
X171692573Y-52854804D02*
X171103824Y-53046101D01*
X190352128Y-42325765D02*
X190230978Y-42415199D01*
X190230978Y-42415199D02*
X190004535Y-42488774D01*
X190004535Y-42488774D02*
X189899244Y-42472916D01*
X189899244Y-42472916D02*
X189839240Y-42442343D01*
X189839240Y-42442343D02*
X189764521Y-42366481D01*
X189764521Y-42366481D02*
X189735091Y-42275904D01*
X189735091Y-42275904D02*
X189750950Y-42170612D01*
X189750950Y-42170612D02*
X189781523Y-42110609D01*
X189781523Y-42110609D02*
X189857385Y-42035890D01*
X189857385Y-42035890D02*
X190023823Y-41931741D01*
X190023823Y-41931741D02*
X190099685Y-41857023D01*
X190099685Y-41857023D02*
X190130258Y-41797019D01*
X190130258Y-41797019D02*
X190146116Y-41691727D01*
X190146116Y-41691727D02*
X190116686Y-41601151D01*
X190116686Y-41601151D02*
X190041968Y-41525289D01*
X190041968Y-41525289D02*
X189981964Y-41494716D01*
X189981964Y-41494716D02*
X189876672Y-41478857D01*
X189876672Y-41478857D02*
X189650230Y-41552433D01*
X189650230Y-41552433D02*
X189529080Y-41641867D01*
X189197346Y-41699584D02*
X189279921Y-42724216D01*
X189279921Y-42724216D02*
X188878041Y-42103750D01*
X188878041Y-42103750D02*
X188917614Y-42841937D01*
X188917614Y-42841937D02*
X188382155Y-41964456D01*
X188094566Y-42158038D02*
X188034563Y-42127465D01*
X188034563Y-42127465D02*
X187929271Y-42111606D01*
X187929271Y-42111606D02*
X187702829Y-42185182D01*
X187702829Y-42185182D02*
X187626967Y-42259900D01*
X187626967Y-42259900D02*
X187596394Y-42319904D01*
X187596394Y-42319904D02*
X187580535Y-42425196D01*
X187580535Y-42425196D02*
X187609966Y-42515773D01*
X187609966Y-42515773D02*
X187699399Y-42636923D01*
X187699399Y-42636923D02*
X188419441Y-43003803D01*
X188419441Y-43003803D02*
X187830692Y-43195099D01*
X186706484Y-42508914D02*
X186887637Y-42450054D01*
X186887637Y-42450054D02*
X186992929Y-42465912D01*
X186992929Y-42465912D02*
X187052933Y-42496485D01*
X187052933Y-42496485D02*
X187187655Y-42602920D01*
X187187655Y-42602920D02*
X187291804Y-42769359D01*
X187291804Y-42769359D02*
X187409524Y-43131666D01*
X187409524Y-43131666D02*
X187393666Y-43236958D01*
X187393666Y-43236958D02*
X187363093Y-43296961D01*
X187363093Y-43296961D02*
X187287231Y-43371680D01*
X187287231Y-43371680D02*
X187106078Y-43430540D01*
X187106078Y-43430540D02*
X187000786Y-43414682D01*
X187000786Y-43414682D02*
X186940782Y-43384109D01*
X186940782Y-43384109D02*
X186866064Y-43308247D01*
X186866064Y-43308247D02*
X186792488Y-43081805D01*
X186792488Y-43081805D02*
X186808346Y-42976513D01*
X186808346Y-42976513D02*
X186838920Y-42916510D01*
X186838920Y-42916510D02*
X186914781Y-42841791D01*
X186914781Y-42841791D02*
X187095935Y-42782931D01*
X187095935Y-42782931D02*
X187201227Y-42798789D01*
X187201227Y-42798789D02*
X187261230Y-42829362D01*
X187261230Y-42829362D02*
X187335949Y-42905224D01*
X206173328Y-32769065D02*
X206052178Y-32858499D01*
X206052178Y-32858499D02*
X205825735Y-32932074D01*
X205825735Y-32932074D02*
X205720444Y-32916216D01*
X205720444Y-32916216D02*
X205660440Y-32885643D01*
X205660440Y-32885643D02*
X205585721Y-32809781D01*
X205585721Y-32809781D02*
X205556291Y-32719204D01*
X205556291Y-32719204D02*
X205572150Y-32613912D01*
X205572150Y-32613912D02*
X205602723Y-32553909D01*
X205602723Y-32553909D02*
X205678585Y-32479190D01*
X205678585Y-32479190D02*
X205845023Y-32375041D01*
X205845023Y-32375041D02*
X205920885Y-32300323D01*
X205920885Y-32300323D02*
X205951458Y-32240319D01*
X205951458Y-32240319D02*
X205967316Y-32135027D01*
X205967316Y-32135027D02*
X205937886Y-32044451D01*
X205937886Y-32044451D02*
X205863168Y-31968589D01*
X205863168Y-31968589D02*
X205803164Y-31938016D01*
X205803164Y-31938016D02*
X205697872Y-31922157D01*
X205697872Y-31922157D02*
X205471430Y-31995733D01*
X205471430Y-31995733D02*
X205350280Y-32085167D01*
X205018546Y-32142884D02*
X205101121Y-33167516D01*
X205101121Y-33167516D02*
X204699241Y-32547050D01*
X204699241Y-32547050D02*
X204738814Y-33285237D01*
X204738814Y-33285237D02*
X204203355Y-32407756D01*
X203931624Y-32496046D02*
X203342875Y-32687342D01*
X203342875Y-32687342D02*
X203777615Y-32946644D01*
X203777615Y-32946644D02*
X203641749Y-32990789D01*
X203641749Y-32990789D02*
X203565888Y-33065508D01*
X203565888Y-33065508D02*
X203535314Y-33125511D01*
X203535314Y-33125511D02*
X203519456Y-33230803D01*
X203519456Y-33230803D02*
X203593032Y-33457245D01*
X203593032Y-33457245D02*
X203667750Y-33533107D01*
X203667750Y-33533107D02*
X203727754Y-33563680D01*
X203727754Y-33563680D02*
X203833046Y-33579538D01*
X203833046Y-33579538D02*
X204104776Y-33491248D01*
X204104776Y-33491248D02*
X204180638Y-33416529D01*
X204180638Y-33416529D02*
X204211211Y-33356526D01*
X202754126Y-32878639D02*
X202663549Y-32908069D01*
X202663549Y-32908069D02*
X202587687Y-32982787D01*
X202587687Y-32982787D02*
X202557114Y-33042791D01*
X202557114Y-33042791D02*
X202541256Y-33148083D01*
X202541256Y-33148083D02*
X202554828Y-33343951D01*
X202554828Y-33343951D02*
X202628403Y-33570393D01*
X202628403Y-33570393D02*
X202732552Y-33736832D01*
X202732552Y-33736832D02*
X202807271Y-33812694D01*
X202807271Y-33812694D02*
X202867274Y-33843267D01*
X202867274Y-33843267D02*
X202972566Y-33859125D01*
X202972566Y-33859125D02*
X203063143Y-33829695D01*
X203063143Y-33829695D02*
X203139005Y-33754976D01*
X203139005Y-33754976D02*
X203169578Y-33694973D01*
X203169578Y-33694973D02*
X203185436Y-33589681D01*
X203185436Y-33589681D02*
X203171864Y-33393812D01*
X203171864Y-33393812D02*
X203098289Y-33167370D01*
X203098289Y-33167370D02*
X202994140Y-33000932D01*
X202994140Y-33000932D02*
X202919421Y-32925070D01*
X202919421Y-32925070D02*
X202859418Y-32894497D01*
X202859418Y-32894497D02*
X202754126Y-32878639D01*
X224590228Y-31201165D02*
X224469078Y-31290599D01*
X224469078Y-31290599D02*
X224242635Y-31364174D01*
X224242635Y-31364174D02*
X224137344Y-31348316D01*
X224137344Y-31348316D02*
X224077340Y-31317743D01*
X224077340Y-31317743D02*
X224002621Y-31241881D01*
X224002621Y-31241881D02*
X223973191Y-31151304D01*
X223973191Y-31151304D02*
X223989050Y-31046012D01*
X223989050Y-31046012D02*
X224019623Y-30986009D01*
X224019623Y-30986009D02*
X224095485Y-30911290D01*
X224095485Y-30911290D02*
X224261923Y-30807141D01*
X224261923Y-30807141D02*
X224337785Y-30732423D01*
X224337785Y-30732423D02*
X224368358Y-30672419D01*
X224368358Y-30672419D02*
X224384216Y-30567127D01*
X224384216Y-30567127D02*
X224354786Y-30476551D01*
X224354786Y-30476551D02*
X224280068Y-30400689D01*
X224280068Y-30400689D02*
X224220064Y-30370116D01*
X224220064Y-30370116D02*
X224114772Y-30354257D01*
X224114772Y-30354257D02*
X223888330Y-30427833D01*
X223888330Y-30427833D02*
X223767180Y-30517267D01*
X223435446Y-30574984D02*
X223518021Y-31599616D01*
X223518021Y-31599616D02*
X223116141Y-30979150D01*
X223116141Y-30979150D02*
X223155714Y-31717337D01*
X223155714Y-31717337D02*
X222620255Y-30839856D01*
X222348524Y-30928146D02*
X221759775Y-31119442D01*
X221759775Y-31119442D02*
X222194515Y-31378744D01*
X222194515Y-31378744D02*
X222058649Y-31422889D01*
X222058649Y-31422889D02*
X221982788Y-31497608D01*
X221982788Y-31497608D02*
X221952214Y-31557611D01*
X221952214Y-31557611D02*
X221936356Y-31662903D01*
X221936356Y-31662903D02*
X222009932Y-31889345D01*
X222009932Y-31889345D02*
X222084650Y-31965207D01*
X222084650Y-31965207D02*
X222144654Y-31995780D01*
X222144654Y-31995780D02*
X222249946Y-32011638D01*
X222249946Y-32011638D02*
X222521676Y-31923348D01*
X222521676Y-31923348D02*
X222597538Y-31848629D01*
X222597538Y-31848629D02*
X222628111Y-31788626D01*
X221047589Y-31701333D02*
X221253601Y-32335371D01*
X221156311Y-31265450D02*
X221603479Y-31871201D01*
X221603479Y-31871201D02*
X221014730Y-32062497D01*
X243007028Y-29633265D02*
X242885878Y-29722699D01*
X242885878Y-29722699D02*
X242659435Y-29796274D01*
X242659435Y-29796274D02*
X242554144Y-29780416D01*
X242554144Y-29780416D02*
X242494140Y-29749843D01*
X242494140Y-29749843D02*
X242419421Y-29673981D01*
X242419421Y-29673981D02*
X242389991Y-29583404D01*
X242389991Y-29583404D02*
X242405850Y-29478112D01*
X242405850Y-29478112D02*
X242436423Y-29418109D01*
X242436423Y-29418109D02*
X242512285Y-29343390D01*
X242512285Y-29343390D02*
X242678723Y-29239241D01*
X242678723Y-29239241D02*
X242754585Y-29164523D01*
X242754585Y-29164523D02*
X242785158Y-29104519D01*
X242785158Y-29104519D02*
X242801016Y-28999227D01*
X242801016Y-28999227D02*
X242771586Y-28908651D01*
X242771586Y-28908651D02*
X242696868Y-28832789D01*
X242696868Y-28832789D02*
X242636864Y-28802216D01*
X242636864Y-28802216D02*
X242531572Y-28786357D01*
X242531572Y-28786357D02*
X242305130Y-28859933D01*
X242305130Y-28859933D02*
X242183980Y-28949367D01*
X241852246Y-29007084D02*
X241934821Y-30031716D01*
X241934821Y-30031716D02*
X241532941Y-29411250D01*
X241532941Y-29411250D02*
X241572514Y-30149437D01*
X241572514Y-30149437D02*
X241037055Y-29271956D01*
X240765324Y-29360246D02*
X240176575Y-29551542D01*
X240176575Y-29551542D02*
X240611315Y-29810844D01*
X240611315Y-29810844D02*
X240475449Y-29854989D01*
X240475449Y-29854989D02*
X240399588Y-29929708D01*
X240399588Y-29929708D02*
X240369014Y-29989711D01*
X240369014Y-29989711D02*
X240353156Y-30095003D01*
X240353156Y-30095003D02*
X240426732Y-30321445D01*
X240426732Y-30321445D02*
X240501450Y-30397307D01*
X240501450Y-30397307D02*
X240561454Y-30427880D01*
X240561454Y-30427880D02*
X240666746Y-30443738D01*
X240666746Y-30443738D02*
X240938476Y-30355448D01*
X240938476Y-30355448D02*
X241014338Y-30280729D01*
X241014338Y-30280729D02*
X241044911Y-30220726D01*
X239859556Y-29654548D02*
X239225519Y-29860559D01*
X239225519Y-29860559D02*
X239942131Y-30679180D01*
X261423928Y-28065365D02*
X261302778Y-28154799D01*
X261302778Y-28154799D02*
X261076335Y-28228374D01*
X261076335Y-28228374D02*
X260971044Y-28212516D01*
X260971044Y-28212516D02*
X260911040Y-28181943D01*
X260911040Y-28181943D02*
X260836321Y-28106081D01*
X260836321Y-28106081D02*
X260806891Y-28015504D01*
X260806891Y-28015504D02*
X260822750Y-27910212D01*
X260822750Y-27910212D02*
X260853323Y-27850209D01*
X260853323Y-27850209D02*
X260929185Y-27775490D01*
X260929185Y-27775490D02*
X261095623Y-27671341D01*
X261095623Y-27671341D02*
X261171485Y-27596623D01*
X261171485Y-27596623D02*
X261202058Y-27536619D01*
X261202058Y-27536619D02*
X261217916Y-27431327D01*
X261217916Y-27431327D02*
X261188486Y-27340751D01*
X261188486Y-27340751D02*
X261113768Y-27264889D01*
X261113768Y-27264889D02*
X261053764Y-27234316D01*
X261053764Y-27234316D02*
X260948472Y-27218457D01*
X260948472Y-27218457D02*
X260722030Y-27292033D01*
X260722030Y-27292033D02*
X260600880Y-27381467D01*
X260269146Y-27439184D02*
X260351721Y-28463816D01*
X260351721Y-28463816D02*
X259949841Y-27843350D01*
X259949841Y-27843350D02*
X259989414Y-28581537D01*
X259989414Y-28581537D02*
X259453955Y-27704056D01*
X258787058Y-28271231D02*
X258993069Y-28905269D01*
X258895779Y-27835348D02*
X259342947Y-28441099D01*
X259342947Y-28441099D02*
X258754198Y-28632395D01*
X258004726Y-28174939D02*
X257914149Y-28204369D01*
X257914149Y-28204369D02*
X257838287Y-28279087D01*
X257838287Y-28279087D02*
X257807714Y-28339091D01*
X257807714Y-28339091D02*
X257791856Y-28444383D01*
X257791856Y-28444383D02*
X257805428Y-28640251D01*
X257805428Y-28640251D02*
X257879003Y-28866693D01*
X257879003Y-28866693D02*
X257983152Y-29033132D01*
X257983152Y-29033132D02*
X258057871Y-29108994D01*
X258057871Y-29108994D02*
X258117874Y-29139567D01*
X258117874Y-29139567D02*
X258223166Y-29155425D01*
X258223166Y-29155425D02*
X258313743Y-29125995D01*
X258313743Y-29125995D02*
X258389605Y-29051276D01*
X258389605Y-29051276D02*
X258420178Y-28991273D01*
X258420178Y-28991273D02*
X258436036Y-28885981D01*
X258436036Y-28885981D02*
X258422464Y-28690112D01*
X258422464Y-28690112D02*
X258348889Y-28463670D01*
X258348889Y-28463670D02*
X258244740Y-28297232D01*
X258244740Y-28297232D02*
X258170021Y-28221370D01*
X258170021Y-28221370D02*
X258110018Y-28190797D01*
X258110018Y-28190797D02*
X258004726Y-28174939D01*
X155432072Y-30311047D02*
X155317786Y-30349142D01*
X155317786Y-30349142D02*
X155279691Y-30387238D01*
X155279691Y-30387238D02*
X155241595Y-30463428D01*
X155241595Y-30463428D02*
X155241595Y-30577714D01*
X155241595Y-30577714D02*
X155279691Y-30653904D01*
X155279691Y-30653904D02*
X155317786Y-30692000D01*
X155317786Y-30692000D02*
X155393976Y-30730095D01*
X155393976Y-30730095D02*
X155698738Y-30730095D01*
X155698738Y-30730095D02*
X155698738Y-29930095D01*
X155698738Y-29930095D02*
X155432072Y-29930095D01*
X155432072Y-29930095D02*
X155355881Y-29968190D01*
X155355881Y-29968190D02*
X155317786Y-30006285D01*
X155317786Y-30006285D02*
X155279691Y-30082476D01*
X155279691Y-30082476D02*
X155279691Y-30158666D01*
X155279691Y-30158666D02*
X155317786Y-30234857D01*
X155317786Y-30234857D02*
X155355881Y-30272952D01*
X155355881Y-30272952D02*
X155432072Y-30311047D01*
X155432072Y-30311047D02*
X155698738Y-30311047D01*
X154898738Y-30425333D02*
X154289215Y-30425333D01*
X154593976Y-30730095D02*
X154593976Y-30120571D01*
X144192595Y-30311047D02*
X144078309Y-30349142D01*
X144078309Y-30349142D02*
X144040214Y-30387238D01*
X144040214Y-30387238D02*
X144002118Y-30463428D01*
X144002118Y-30463428D02*
X144002118Y-30577714D01*
X144002118Y-30577714D02*
X144040214Y-30653904D01*
X144040214Y-30653904D02*
X144078309Y-30692000D01*
X144078309Y-30692000D02*
X144154499Y-30730095D01*
X144154499Y-30730095D02*
X144459261Y-30730095D01*
X144459261Y-30730095D02*
X144459261Y-29930095D01*
X144459261Y-29930095D02*
X144192595Y-29930095D01*
X144192595Y-29930095D02*
X144116404Y-29968190D01*
X144116404Y-29968190D02*
X144078309Y-30006285D01*
X144078309Y-30006285D02*
X144040214Y-30082476D01*
X144040214Y-30082476D02*
X144040214Y-30158666D01*
X144040214Y-30158666D02*
X144078309Y-30234857D01*
X144078309Y-30234857D02*
X144116404Y-30272952D01*
X144116404Y-30272952D02*
X144192595Y-30311047D01*
X144192595Y-30311047D02*
X144459261Y-30311047D01*
X143659261Y-30425333D02*
X143049738Y-30425333D01*
X155241594Y-38350095D02*
X155508261Y-37969142D01*
X155698737Y-38350095D02*
X155698737Y-37550095D01*
X155698737Y-37550095D02*
X155393975Y-37550095D01*
X155393975Y-37550095D02*
X155317785Y-37588190D01*
X155317785Y-37588190D02*
X155279690Y-37626285D01*
X155279690Y-37626285D02*
X155241594Y-37702476D01*
X155241594Y-37702476D02*
X155241594Y-37816761D01*
X155241594Y-37816761D02*
X155279690Y-37892952D01*
X155279690Y-37892952D02*
X155317785Y-37931047D01*
X155317785Y-37931047D02*
X155393975Y-37969142D01*
X155393975Y-37969142D02*
X155698737Y-37969142D01*
X154936833Y-38312000D02*
X154822547Y-38350095D01*
X154822547Y-38350095D02*
X154632071Y-38350095D01*
X154632071Y-38350095D02*
X154555880Y-38312000D01*
X154555880Y-38312000D02*
X154517785Y-38273904D01*
X154517785Y-38273904D02*
X154479690Y-38197714D01*
X154479690Y-38197714D02*
X154479690Y-38121523D01*
X154479690Y-38121523D02*
X154517785Y-38045333D01*
X154517785Y-38045333D02*
X154555880Y-38007238D01*
X154555880Y-38007238D02*
X154632071Y-37969142D01*
X154632071Y-37969142D02*
X154784452Y-37931047D01*
X154784452Y-37931047D02*
X154860642Y-37892952D01*
X154860642Y-37892952D02*
X154898737Y-37854857D01*
X154898737Y-37854857D02*
X154936833Y-37778666D01*
X154936833Y-37778666D02*
X154936833Y-37702476D01*
X154936833Y-37702476D02*
X154898737Y-37626285D01*
X154898737Y-37626285D02*
X154860642Y-37588190D01*
X154860642Y-37588190D02*
X154784452Y-37550095D01*
X154784452Y-37550095D02*
X154593975Y-37550095D01*
X154593975Y-37550095D02*
X154479690Y-37588190D01*
X154251118Y-37550095D02*
X153793975Y-37550095D01*
X154022547Y-38350095D02*
X154022547Y-37550095D01*
X144478309Y-32470095D02*
X144402119Y-32470095D01*
X144402119Y-32470095D02*
X144325928Y-32508190D01*
X144325928Y-32508190D02*
X144287833Y-32546285D01*
X144287833Y-32546285D02*
X144249738Y-32622476D01*
X144249738Y-32622476D02*
X144211643Y-32774857D01*
X144211643Y-32774857D02*
X144211643Y-32965333D01*
X144211643Y-32965333D02*
X144249738Y-33117714D01*
X144249738Y-33117714D02*
X144287833Y-33193904D01*
X144287833Y-33193904D02*
X144325928Y-33232000D01*
X144325928Y-33232000D02*
X144402119Y-33270095D01*
X144402119Y-33270095D02*
X144478309Y-33270095D01*
X144478309Y-33270095D02*
X144554500Y-33232000D01*
X144554500Y-33232000D02*
X144592595Y-33193904D01*
X144592595Y-33193904D02*
X144630690Y-33117714D01*
X144630690Y-33117714D02*
X144668786Y-32965333D01*
X144668786Y-32965333D02*
X144668786Y-32774857D01*
X144668786Y-32774857D02*
X144630690Y-32622476D01*
X144630690Y-32622476D02*
X144592595Y-32546285D01*
X144592595Y-32546285D02*
X144554500Y-32508190D01*
X144554500Y-32508190D02*
X144478309Y-32470095D01*
X143716404Y-32470095D02*
X143640214Y-32470095D01*
X143640214Y-32470095D02*
X143564023Y-32508190D01*
X143564023Y-32508190D02*
X143525928Y-32546285D01*
X143525928Y-32546285D02*
X143487833Y-32622476D01*
X143487833Y-32622476D02*
X143449738Y-32774857D01*
X143449738Y-32774857D02*
X143449738Y-32965333D01*
X143449738Y-32965333D02*
X143487833Y-33117714D01*
X143487833Y-33117714D02*
X143525928Y-33193904D01*
X143525928Y-33193904D02*
X143564023Y-33232000D01*
X143564023Y-33232000D02*
X143640214Y-33270095D01*
X143640214Y-33270095D02*
X143716404Y-33270095D01*
X143716404Y-33270095D02*
X143792595Y-33232000D01*
X143792595Y-33232000D02*
X143830690Y-33193904D01*
X143830690Y-33193904D02*
X143868785Y-33117714D01*
X143868785Y-33117714D02*
X143906881Y-32965333D01*
X143906881Y-32965333D02*
X143906881Y-32774857D01*
X143906881Y-32774857D02*
X143868785Y-32622476D01*
X143868785Y-32622476D02*
X143830690Y-32546285D01*
X143830690Y-32546285D02*
X143792595Y-32508190D01*
X143792595Y-32508190D02*
X143716404Y-32470095D01*
X142764023Y-32470095D02*
X142916404Y-32470095D01*
X142916404Y-32470095D02*
X142992595Y-32508190D01*
X142992595Y-32508190D02*
X143030690Y-32546285D01*
X143030690Y-32546285D02*
X143106880Y-32660571D01*
X143106880Y-32660571D02*
X143144976Y-32812952D01*
X143144976Y-32812952D02*
X143144976Y-33117714D01*
X143144976Y-33117714D02*
X143106880Y-33193904D01*
X143106880Y-33193904D02*
X143068785Y-33232000D01*
X143068785Y-33232000D02*
X142992595Y-33270095D01*
X142992595Y-33270095D02*
X142840214Y-33270095D01*
X142840214Y-33270095D02*
X142764023Y-33232000D01*
X142764023Y-33232000D02*
X142725928Y-33193904D01*
X142725928Y-33193904D02*
X142687833Y-33117714D01*
X142687833Y-33117714D02*
X142687833Y-32927238D01*
X142687833Y-32927238D02*
X142725928Y-32851047D01*
X142725928Y-32851047D02*
X142764023Y-32812952D01*
X142764023Y-32812952D02*
X142840214Y-32774857D01*
X142840214Y-32774857D02*
X142992595Y-32774857D01*
X142992595Y-32774857D02*
X143068785Y-32812952D01*
X143068785Y-32812952D02*
X143106880Y-32851047D01*
X143106880Y-32851047D02*
X143144976Y-32927238D01*
X155552690Y-57870095D02*
X155476500Y-57870095D01*
X155476500Y-57870095D02*
X155400309Y-57908190D01*
X155400309Y-57908190D02*
X155362214Y-57946285D01*
X155362214Y-57946285D02*
X155324119Y-58022476D01*
X155324119Y-58022476D02*
X155286024Y-58174857D01*
X155286024Y-58174857D02*
X155286024Y-58365333D01*
X155286024Y-58365333D02*
X155324119Y-58517714D01*
X155324119Y-58517714D02*
X155362214Y-58593904D01*
X155362214Y-58593904D02*
X155400309Y-58632000D01*
X155400309Y-58632000D02*
X155476500Y-58670095D01*
X155476500Y-58670095D02*
X155552690Y-58670095D01*
X155552690Y-58670095D02*
X155628881Y-58632000D01*
X155628881Y-58632000D02*
X155666976Y-58593904D01*
X155666976Y-58593904D02*
X155705071Y-58517714D01*
X155705071Y-58517714D02*
X155743167Y-58365333D01*
X155743167Y-58365333D02*
X155743167Y-58174857D01*
X155743167Y-58174857D02*
X155705071Y-58022476D01*
X155705071Y-58022476D02*
X155666976Y-57946285D01*
X155666976Y-57946285D02*
X155628881Y-57908190D01*
X155628881Y-57908190D02*
X155552690Y-57870095D01*
X154524119Y-58670095D02*
X154981262Y-58670095D01*
X154752690Y-58670095D02*
X154752690Y-57870095D01*
X154752690Y-57870095D02*
X154828881Y-57984380D01*
X154828881Y-57984380D02*
X154905071Y-58060571D01*
X154905071Y-58060571D02*
X154981262Y-58098666D01*
X154028880Y-57870095D02*
X153952690Y-57870095D01*
X153952690Y-57870095D02*
X153876499Y-57908190D01*
X153876499Y-57908190D02*
X153838404Y-57946285D01*
X153838404Y-57946285D02*
X153800309Y-58022476D01*
X153800309Y-58022476D02*
X153762214Y-58174857D01*
X153762214Y-58174857D02*
X153762214Y-58365333D01*
X153762214Y-58365333D02*
X153800309Y-58517714D01*
X153800309Y-58517714D02*
X153838404Y-58593904D01*
X153838404Y-58593904D02*
X153876499Y-58632000D01*
X153876499Y-58632000D02*
X153952690Y-58670095D01*
X153952690Y-58670095D02*
X154028880Y-58670095D01*
X154028880Y-58670095D02*
X154105071Y-58632000D01*
X154105071Y-58632000D02*
X154143166Y-58593904D01*
X154143166Y-58593904D02*
X154181261Y-58517714D01*
X154181261Y-58517714D02*
X154219357Y-58365333D01*
X154219357Y-58365333D02*
X154219357Y-58174857D01*
X154219357Y-58174857D02*
X154181261Y-58022476D01*
X154181261Y-58022476D02*
X154143166Y-57946285D01*
X154143166Y-57946285D02*
X154105071Y-57908190D01*
X154105071Y-57908190D02*
X154028880Y-57870095D01*
X155286024Y-51050095D02*
X155743167Y-51050095D01*
X155514595Y-51050095D02*
X155514595Y-50250095D01*
X155514595Y-50250095D02*
X155590786Y-50364380D01*
X155590786Y-50364380D02*
X155666976Y-50440571D01*
X155666976Y-50440571D02*
X155743167Y-50478666D01*
X154524119Y-51050095D02*
X154981262Y-51050095D01*
X154752690Y-51050095D02*
X154752690Y-50250095D01*
X154752690Y-50250095D02*
X154828881Y-50364380D01*
X154828881Y-50364380D02*
X154905071Y-50440571D01*
X154905071Y-50440571D02*
X154981262Y-50478666D01*
X153800309Y-50250095D02*
X154181261Y-50250095D01*
X154181261Y-50250095D02*
X154219357Y-50631047D01*
X154219357Y-50631047D02*
X154181261Y-50592952D01*
X154181261Y-50592952D02*
X154105071Y-50554857D01*
X154105071Y-50554857D02*
X153914595Y-50554857D01*
X153914595Y-50554857D02*
X153838404Y-50592952D01*
X153838404Y-50592952D02*
X153800309Y-50631047D01*
X153800309Y-50631047D02*
X153762214Y-50707238D01*
X153762214Y-50707238D02*
X153762214Y-50897714D01*
X153762214Y-50897714D02*
X153800309Y-50973904D01*
X153800309Y-50973904D02*
X153838404Y-51012000D01*
X153838404Y-51012000D02*
X153914595Y-51050095D01*
X153914595Y-51050095D02*
X154105071Y-51050095D01*
X154105071Y-51050095D02*
X154181261Y-51012000D01*
X154181261Y-51012000D02*
X154219357Y-50973904D01*
X155552690Y-47710095D02*
X155476500Y-47710095D01*
X155476500Y-47710095D02*
X155400309Y-47748190D01*
X155400309Y-47748190D02*
X155362214Y-47786285D01*
X155362214Y-47786285D02*
X155324119Y-47862476D01*
X155324119Y-47862476D02*
X155286024Y-48014857D01*
X155286024Y-48014857D02*
X155286024Y-48205333D01*
X155286024Y-48205333D02*
X155324119Y-48357714D01*
X155324119Y-48357714D02*
X155362214Y-48433904D01*
X155362214Y-48433904D02*
X155400309Y-48472000D01*
X155400309Y-48472000D02*
X155476500Y-48510095D01*
X155476500Y-48510095D02*
X155552690Y-48510095D01*
X155552690Y-48510095D02*
X155628881Y-48472000D01*
X155628881Y-48472000D02*
X155666976Y-48433904D01*
X155666976Y-48433904D02*
X155705071Y-48357714D01*
X155705071Y-48357714D02*
X155743167Y-48205333D01*
X155743167Y-48205333D02*
X155743167Y-48014857D01*
X155743167Y-48014857D02*
X155705071Y-47862476D01*
X155705071Y-47862476D02*
X155666976Y-47786285D01*
X155666976Y-47786285D02*
X155628881Y-47748190D01*
X155628881Y-47748190D02*
X155552690Y-47710095D01*
X154790785Y-47710095D02*
X154714595Y-47710095D01*
X154714595Y-47710095D02*
X154638404Y-47748190D01*
X154638404Y-47748190D02*
X154600309Y-47786285D01*
X154600309Y-47786285D02*
X154562214Y-47862476D01*
X154562214Y-47862476D02*
X154524119Y-48014857D01*
X154524119Y-48014857D02*
X154524119Y-48205333D01*
X154524119Y-48205333D02*
X154562214Y-48357714D01*
X154562214Y-48357714D02*
X154600309Y-48433904D01*
X154600309Y-48433904D02*
X154638404Y-48472000D01*
X154638404Y-48472000D02*
X154714595Y-48510095D01*
X154714595Y-48510095D02*
X154790785Y-48510095D01*
X154790785Y-48510095D02*
X154866976Y-48472000D01*
X154866976Y-48472000D02*
X154905071Y-48433904D01*
X154905071Y-48433904D02*
X154943166Y-48357714D01*
X154943166Y-48357714D02*
X154981262Y-48205333D01*
X154981262Y-48205333D02*
X154981262Y-48014857D01*
X154981262Y-48014857D02*
X154943166Y-47862476D01*
X154943166Y-47862476D02*
X154905071Y-47786285D01*
X154905071Y-47786285D02*
X154866976Y-47748190D01*
X154866976Y-47748190D02*
X154790785Y-47710095D01*
X154219357Y-47786285D02*
X154181261Y-47748190D01*
X154181261Y-47748190D02*
X154105071Y-47710095D01*
X154105071Y-47710095D02*
X153914595Y-47710095D01*
X153914595Y-47710095D02*
X153838404Y-47748190D01*
X153838404Y-47748190D02*
X153800309Y-47786285D01*
X153800309Y-47786285D02*
X153762214Y-47862476D01*
X153762214Y-47862476D02*
X153762214Y-47938666D01*
X153762214Y-47938666D02*
X153800309Y-48052952D01*
X153800309Y-48052952D02*
X154257452Y-48510095D01*
X154257452Y-48510095D02*
X153762214Y-48510095D01*
X155552690Y-45170095D02*
X155476500Y-45170095D01*
X155476500Y-45170095D02*
X155400309Y-45208190D01*
X155400309Y-45208190D02*
X155362214Y-45246285D01*
X155362214Y-45246285D02*
X155324119Y-45322476D01*
X155324119Y-45322476D02*
X155286024Y-45474857D01*
X155286024Y-45474857D02*
X155286024Y-45665333D01*
X155286024Y-45665333D02*
X155324119Y-45817714D01*
X155324119Y-45817714D02*
X155362214Y-45893904D01*
X155362214Y-45893904D02*
X155400309Y-45932000D01*
X155400309Y-45932000D02*
X155476500Y-45970095D01*
X155476500Y-45970095D02*
X155552690Y-45970095D01*
X155552690Y-45970095D02*
X155628881Y-45932000D01*
X155628881Y-45932000D02*
X155666976Y-45893904D01*
X155666976Y-45893904D02*
X155705071Y-45817714D01*
X155705071Y-45817714D02*
X155743167Y-45665333D01*
X155743167Y-45665333D02*
X155743167Y-45474857D01*
X155743167Y-45474857D02*
X155705071Y-45322476D01*
X155705071Y-45322476D02*
X155666976Y-45246285D01*
X155666976Y-45246285D02*
X155628881Y-45208190D01*
X155628881Y-45208190D02*
X155552690Y-45170095D01*
X154981262Y-45246285D02*
X154943166Y-45208190D01*
X154943166Y-45208190D02*
X154866976Y-45170095D01*
X154866976Y-45170095D02*
X154676500Y-45170095D01*
X154676500Y-45170095D02*
X154600309Y-45208190D01*
X154600309Y-45208190D02*
X154562214Y-45246285D01*
X154562214Y-45246285D02*
X154524119Y-45322476D01*
X154524119Y-45322476D02*
X154524119Y-45398666D01*
X154524119Y-45398666D02*
X154562214Y-45512952D01*
X154562214Y-45512952D02*
X155019357Y-45970095D01*
X155019357Y-45970095D02*
X154524119Y-45970095D01*
X154143166Y-45970095D02*
X153990785Y-45970095D01*
X153990785Y-45970095D02*
X153914595Y-45932000D01*
X153914595Y-45932000D02*
X153876499Y-45893904D01*
X153876499Y-45893904D02*
X153800309Y-45779619D01*
X153800309Y-45779619D02*
X153762214Y-45627238D01*
X153762214Y-45627238D02*
X153762214Y-45322476D01*
X153762214Y-45322476D02*
X153800309Y-45246285D01*
X153800309Y-45246285D02*
X153838404Y-45208190D01*
X153838404Y-45208190D02*
X153914595Y-45170095D01*
X153914595Y-45170095D02*
X154066976Y-45170095D01*
X154066976Y-45170095D02*
X154143166Y-45208190D01*
X154143166Y-45208190D02*
X154181261Y-45246285D01*
X154181261Y-45246285D02*
X154219357Y-45322476D01*
X154219357Y-45322476D02*
X154219357Y-45512952D01*
X154219357Y-45512952D02*
X154181261Y-45589142D01*
X154181261Y-45589142D02*
X154143166Y-45627238D01*
X154143166Y-45627238D02*
X154066976Y-45665333D01*
X154066976Y-45665333D02*
X153914595Y-45665333D01*
X153914595Y-45665333D02*
X153838404Y-45627238D01*
X153838404Y-45627238D02*
X153800309Y-45589142D01*
X153800309Y-45589142D02*
X153762214Y-45512952D01*
X155241595Y-33270095D02*
X155508262Y-32889142D01*
X155698738Y-33270095D02*
X155698738Y-32470095D01*
X155698738Y-32470095D02*
X155393976Y-32470095D01*
X155393976Y-32470095D02*
X155317786Y-32508190D01*
X155317786Y-32508190D02*
X155279691Y-32546285D01*
X155279691Y-32546285D02*
X155241595Y-32622476D01*
X155241595Y-32622476D02*
X155241595Y-32736761D01*
X155241595Y-32736761D02*
X155279691Y-32812952D01*
X155279691Y-32812952D02*
X155317786Y-32851047D01*
X155317786Y-32851047D02*
X155393976Y-32889142D01*
X155393976Y-32889142D02*
X155698738Y-32889142D01*
X154936834Y-33041523D02*
X154555881Y-33041523D01*
X155013024Y-33270095D02*
X154746357Y-32470095D01*
X154746357Y-32470095D02*
X154479691Y-33270095D01*
X154289215Y-32470095D02*
X154098739Y-33270095D01*
X154098739Y-33270095D02*
X153946358Y-32698666D01*
X153946358Y-32698666D02*
X153793977Y-33270095D01*
X153793977Y-33270095D02*
X153603501Y-32470095D01*
X155279690Y-35048190D02*
X155355880Y-35010095D01*
X155355880Y-35010095D02*
X155470166Y-35010095D01*
X155470166Y-35010095D02*
X155584452Y-35048190D01*
X155584452Y-35048190D02*
X155660642Y-35124380D01*
X155660642Y-35124380D02*
X155698737Y-35200571D01*
X155698737Y-35200571D02*
X155736833Y-35352952D01*
X155736833Y-35352952D02*
X155736833Y-35467238D01*
X155736833Y-35467238D02*
X155698737Y-35619619D01*
X155698737Y-35619619D02*
X155660642Y-35695809D01*
X155660642Y-35695809D02*
X155584452Y-35772000D01*
X155584452Y-35772000D02*
X155470166Y-35810095D01*
X155470166Y-35810095D02*
X155393975Y-35810095D01*
X155393975Y-35810095D02*
X155279690Y-35772000D01*
X155279690Y-35772000D02*
X155241594Y-35733904D01*
X155241594Y-35733904D02*
X155241594Y-35467238D01*
X155241594Y-35467238D02*
X155393975Y-35467238D01*
X154898737Y-35810095D02*
X154898737Y-35010095D01*
X154898737Y-35010095D02*
X154441594Y-35810095D01*
X154441594Y-35810095D02*
X154441594Y-35010095D01*
X154060642Y-35810095D02*
X154060642Y-35010095D01*
X154060642Y-35010095D02*
X153870166Y-35010095D01*
X153870166Y-35010095D02*
X153755880Y-35048190D01*
X153755880Y-35048190D02*
X153679690Y-35124380D01*
X153679690Y-35124380D02*
X153641595Y-35200571D01*
X153641595Y-35200571D02*
X153603499Y-35352952D01*
X153603499Y-35352952D02*
X153603499Y-35467238D01*
X153603499Y-35467238D02*
X153641595Y-35619619D01*
X153641595Y-35619619D02*
X153679690Y-35695809D01*
X153679690Y-35695809D02*
X153755880Y-35772000D01*
X153755880Y-35772000D02*
X153870166Y-35810095D01*
X153870166Y-35810095D02*
X154060642Y-35810095D01*
X155819357Y-40090095D02*
X155552690Y-40890095D01*
X155552690Y-40890095D02*
X155286024Y-40090095D01*
X154562214Y-40813904D02*
X154600310Y-40852000D01*
X154600310Y-40852000D02*
X154714595Y-40890095D01*
X154714595Y-40890095D02*
X154790786Y-40890095D01*
X154790786Y-40890095D02*
X154905072Y-40852000D01*
X154905072Y-40852000D02*
X154981262Y-40775809D01*
X154981262Y-40775809D02*
X155019357Y-40699619D01*
X155019357Y-40699619D02*
X155057453Y-40547238D01*
X155057453Y-40547238D02*
X155057453Y-40432952D01*
X155057453Y-40432952D02*
X155019357Y-40280571D01*
X155019357Y-40280571D02*
X154981262Y-40204380D01*
X154981262Y-40204380D02*
X154905072Y-40128190D01*
X154905072Y-40128190D02*
X154790786Y-40090095D01*
X154790786Y-40090095D02*
X154714595Y-40090095D01*
X154714595Y-40090095D02*
X154600310Y-40128190D01*
X154600310Y-40128190D02*
X154562214Y-40166285D01*
X153762214Y-40813904D02*
X153800310Y-40852000D01*
X153800310Y-40852000D02*
X153914595Y-40890095D01*
X153914595Y-40890095D02*
X153990786Y-40890095D01*
X153990786Y-40890095D02*
X154105072Y-40852000D01*
X154105072Y-40852000D02*
X154181262Y-40775809D01*
X154181262Y-40775809D02*
X154219357Y-40699619D01*
X154219357Y-40699619D02*
X154257453Y-40547238D01*
X154257453Y-40547238D02*
X154257453Y-40432952D01*
X154257453Y-40432952D02*
X154219357Y-40280571D01*
X154219357Y-40280571D02*
X154181262Y-40204380D01*
X154181262Y-40204380D02*
X154105072Y-40128190D01*
X154105072Y-40128190D02*
X153990786Y-40090095D01*
X153990786Y-40090095D02*
X153914595Y-40090095D01*
X153914595Y-40090095D02*
X153800310Y-40128190D01*
X153800310Y-40128190D02*
X153762214Y-40166285D01*
X155552690Y-42630095D02*
X155476500Y-42630095D01*
X155476500Y-42630095D02*
X155400309Y-42668190D01*
X155400309Y-42668190D02*
X155362214Y-42706285D01*
X155362214Y-42706285D02*
X155324119Y-42782476D01*
X155324119Y-42782476D02*
X155286024Y-42934857D01*
X155286024Y-42934857D02*
X155286024Y-43125333D01*
X155286024Y-43125333D02*
X155324119Y-43277714D01*
X155324119Y-43277714D02*
X155362214Y-43353904D01*
X155362214Y-43353904D02*
X155400309Y-43392000D01*
X155400309Y-43392000D02*
X155476500Y-43430095D01*
X155476500Y-43430095D02*
X155552690Y-43430095D01*
X155552690Y-43430095D02*
X155628881Y-43392000D01*
X155628881Y-43392000D02*
X155666976Y-43353904D01*
X155666976Y-43353904D02*
X155705071Y-43277714D01*
X155705071Y-43277714D02*
X155743167Y-43125333D01*
X155743167Y-43125333D02*
X155743167Y-42934857D01*
X155743167Y-42934857D02*
X155705071Y-42782476D01*
X155705071Y-42782476D02*
X155666976Y-42706285D01*
X155666976Y-42706285D02*
X155628881Y-42668190D01*
X155628881Y-42668190D02*
X155552690Y-42630095D01*
X155019357Y-42630095D02*
X154524119Y-42630095D01*
X154524119Y-42630095D02*
X154790785Y-42934857D01*
X154790785Y-42934857D02*
X154676500Y-42934857D01*
X154676500Y-42934857D02*
X154600309Y-42972952D01*
X154600309Y-42972952D02*
X154562214Y-43011047D01*
X154562214Y-43011047D02*
X154524119Y-43087238D01*
X154524119Y-43087238D02*
X154524119Y-43277714D01*
X154524119Y-43277714D02*
X154562214Y-43353904D01*
X154562214Y-43353904D02*
X154600309Y-43392000D01*
X154600309Y-43392000D02*
X154676500Y-43430095D01*
X154676500Y-43430095D02*
X154905071Y-43430095D01*
X154905071Y-43430095D02*
X154981262Y-43392000D01*
X154981262Y-43392000D02*
X155019357Y-43353904D01*
X153762214Y-43430095D02*
X154219357Y-43430095D01*
X153990785Y-43430095D02*
X153990785Y-42630095D01*
X153990785Y-42630095D02*
X154066976Y-42744380D01*
X154066976Y-42744380D02*
X154143166Y-42820571D01*
X154143166Y-42820571D02*
X154219357Y-42858666D01*
X155286024Y-53590095D02*
X155743167Y-53590095D01*
X155514595Y-53590095D02*
X155514595Y-52790095D01*
X155514595Y-52790095D02*
X155590786Y-52904380D01*
X155590786Y-52904380D02*
X155666976Y-52980571D01*
X155666976Y-52980571D02*
X155743167Y-53018666D01*
X154524119Y-53590095D02*
X154981262Y-53590095D01*
X154752690Y-53590095D02*
X154752690Y-52790095D01*
X154752690Y-52790095D02*
X154828881Y-52904380D01*
X154828881Y-52904380D02*
X154905071Y-52980571D01*
X154905071Y-52980571D02*
X154981262Y-53018666D01*
X154257452Y-52790095D02*
X153762214Y-52790095D01*
X153762214Y-52790095D02*
X154028880Y-53094857D01*
X154028880Y-53094857D02*
X153914595Y-53094857D01*
X153914595Y-53094857D02*
X153838404Y-53132952D01*
X153838404Y-53132952D02*
X153800309Y-53171047D01*
X153800309Y-53171047D02*
X153762214Y-53247238D01*
X153762214Y-53247238D02*
X153762214Y-53437714D01*
X153762214Y-53437714D02*
X153800309Y-53513904D01*
X153800309Y-53513904D02*
X153838404Y-53552000D01*
X153838404Y-53552000D02*
X153914595Y-53590095D01*
X153914595Y-53590095D02*
X154143166Y-53590095D01*
X154143166Y-53590095D02*
X154219357Y-53552000D01*
X154219357Y-53552000D02*
X154257452Y-53513904D01*
X155286024Y-56130095D02*
X155743167Y-56130095D01*
X155514595Y-56130095D02*
X155514595Y-55330095D01*
X155514595Y-55330095D02*
X155590786Y-55444380D01*
X155590786Y-55444380D02*
X155666976Y-55520571D01*
X155666976Y-55520571D02*
X155743167Y-55558666D01*
X154524119Y-56130095D02*
X154981262Y-56130095D01*
X154752690Y-56130095D02*
X154752690Y-55330095D01*
X154752690Y-55330095D02*
X154828881Y-55444380D01*
X154828881Y-55444380D02*
X154905071Y-55520571D01*
X154905071Y-55520571D02*
X154981262Y-55558666D01*
X153762214Y-56130095D02*
X154219357Y-56130095D01*
X153990785Y-56130095D02*
X153990785Y-55330095D01*
X153990785Y-55330095D02*
X154066976Y-55444380D01*
X154066976Y-55444380D02*
X154143166Y-55520571D01*
X154143166Y-55520571D02*
X154219357Y-55558666D01*
X144211643Y-58670095D02*
X144668786Y-58670095D01*
X144440214Y-58670095D02*
X144440214Y-57870095D01*
X144440214Y-57870095D02*
X144516405Y-57984380D01*
X144516405Y-57984380D02*
X144592595Y-58060571D01*
X144592595Y-58060571D02*
X144668786Y-58098666D01*
X143716404Y-57870095D02*
X143640214Y-57870095D01*
X143640214Y-57870095D02*
X143564023Y-57908190D01*
X143564023Y-57908190D02*
X143525928Y-57946285D01*
X143525928Y-57946285D02*
X143487833Y-58022476D01*
X143487833Y-58022476D02*
X143449738Y-58174857D01*
X143449738Y-58174857D02*
X143449738Y-58365333D01*
X143449738Y-58365333D02*
X143487833Y-58517714D01*
X143487833Y-58517714D02*
X143525928Y-58593904D01*
X143525928Y-58593904D02*
X143564023Y-58632000D01*
X143564023Y-58632000D02*
X143640214Y-58670095D01*
X143640214Y-58670095D02*
X143716404Y-58670095D01*
X143716404Y-58670095D02*
X143792595Y-58632000D01*
X143792595Y-58632000D02*
X143830690Y-58593904D01*
X143830690Y-58593904D02*
X143868785Y-58517714D01*
X143868785Y-58517714D02*
X143906881Y-58365333D01*
X143906881Y-58365333D02*
X143906881Y-58174857D01*
X143906881Y-58174857D02*
X143868785Y-58022476D01*
X143868785Y-58022476D02*
X143830690Y-57946285D01*
X143830690Y-57946285D02*
X143792595Y-57908190D01*
X143792595Y-57908190D02*
X143716404Y-57870095D01*
X142764023Y-58136761D02*
X142764023Y-58670095D01*
X142954499Y-57832000D02*
X143144976Y-58403428D01*
X143144976Y-58403428D02*
X142649737Y-58403428D01*
X144211643Y-53590095D02*
X144668786Y-53590095D01*
X144440214Y-53590095D02*
X144440214Y-52790095D01*
X144440214Y-52790095D02*
X144516405Y-52904380D01*
X144516405Y-52904380D02*
X144592595Y-52980571D01*
X144592595Y-52980571D02*
X144668786Y-53018666D01*
X143716404Y-52790095D02*
X143640214Y-52790095D01*
X143640214Y-52790095D02*
X143564023Y-52828190D01*
X143564023Y-52828190D02*
X143525928Y-52866285D01*
X143525928Y-52866285D02*
X143487833Y-52942476D01*
X143487833Y-52942476D02*
X143449738Y-53094857D01*
X143449738Y-53094857D02*
X143449738Y-53285333D01*
X143449738Y-53285333D02*
X143487833Y-53437714D01*
X143487833Y-53437714D02*
X143525928Y-53513904D01*
X143525928Y-53513904D02*
X143564023Y-53552000D01*
X143564023Y-53552000D02*
X143640214Y-53590095D01*
X143640214Y-53590095D02*
X143716404Y-53590095D01*
X143716404Y-53590095D02*
X143792595Y-53552000D01*
X143792595Y-53552000D02*
X143830690Y-53513904D01*
X143830690Y-53513904D02*
X143868785Y-53437714D01*
X143868785Y-53437714D02*
X143906881Y-53285333D01*
X143906881Y-53285333D02*
X143906881Y-53094857D01*
X143906881Y-53094857D02*
X143868785Y-52942476D01*
X143868785Y-52942476D02*
X143830690Y-52866285D01*
X143830690Y-52866285D02*
X143792595Y-52828190D01*
X143792595Y-52828190D02*
X143716404Y-52790095D01*
X142954499Y-52790095D02*
X142878309Y-52790095D01*
X142878309Y-52790095D02*
X142802118Y-52828190D01*
X142802118Y-52828190D02*
X142764023Y-52866285D01*
X142764023Y-52866285D02*
X142725928Y-52942476D01*
X142725928Y-52942476D02*
X142687833Y-53094857D01*
X142687833Y-53094857D02*
X142687833Y-53285333D01*
X142687833Y-53285333D02*
X142725928Y-53437714D01*
X142725928Y-53437714D02*
X142764023Y-53513904D01*
X142764023Y-53513904D02*
X142802118Y-53552000D01*
X142802118Y-53552000D02*
X142878309Y-53590095D01*
X142878309Y-53590095D02*
X142954499Y-53590095D01*
X142954499Y-53590095D02*
X143030690Y-53552000D01*
X143030690Y-53552000D02*
X143068785Y-53513904D01*
X143068785Y-53513904D02*
X143106880Y-53437714D01*
X143106880Y-53437714D02*
X143144976Y-53285333D01*
X143144976Y-53285333D02*
X143144976Y-53094857D01*
X143144976Y-53094857D02*
X143106880Y-52942476D01*
X143106880Y-52942476D02*
X143068785Y-52866285D01*
X143068785Y-52866285D02*
X143030690Y-52828190D01*
X143030690Y-52828190D02*
X142954499Y-52790095D01*
X144478309Y-50240095D02*
X144402119Y-50240095D01*
X144402119Y-50240095D02*
X144325928Y-50278190D01*
X144325928Y-50278190D02*
X144287833Y-50316285D01*
X144287833Y-50316285D02*
X144249738Y-50392476D01*
X144249738Y-50392476D02*
X144211643Y-50544857D01*
X144211643Y-50544857D02*
X144211643Y-50735333D01*
X144211643Y-50735333D02*
X144249738Y-50887714D01*
X144249738Y-50887714D02*
X144287833Y-50963904D01*
X144287833Y-50963904D02*
X144325928Y-51002000D01*
X144325928Y-51002000D02*
X144402119Y-51040095D01*
X144402119Y-51040095D02*
X144478309Y-51040095D01*
X144478309Y-51040095D02*
X144554500Y-51002000D01*
X144554500Y-51002000D02*
X144592595Y-50963904D01*
X144592595Y-50963904D02*
X144630690Y-50887714D01*
X144630690Y-50887714D02*
X144668786Y-50735333D01*
X144668786Y-50735333D02*
X144668786Y-50544857D01*
X144668786Y-50544857D02*
X144630690Y-50392476D01*
X144630690Y-50392476D02*
X144592595Y-50316285D01*
X144592595Y-50316285D02*
X144554500Y-50278190D01*
X144554500Y-50278190D02*
X144478309Y-50240095D01*
X143906881Y-50316285D02*
X143868785Y-50278190D01*
X143868785Y-50278190D02*
X143792595Y-50240095D01*
X143792595Y-50240095D02*
X143602119Y-50240095D01*
X143602119Y-50240095D02*
X143525928Y-50278190D01*
X143525928Y-50278190D02*
X143487833Y-50316285D01*
X143487833Y-50316285D02*
X143449738Y-50392476D01*
X143449738Y-50392476D02*
X143449738Y-50468666D01*
X143449738Y-50468666D02*
X143487833Y-50582952D01*
X143487833Y-50582952D02*
X143944976Y-51040095D01*
X143944976Y-51040095D02*
X143449738Y-51040095D01*
X142764023Y-50506761D02*
X142764023Y-51040095D01*
X142954499Y-50202000D02*
X143144976Y-50773428D01*
X143144976Y-50773428D02*
X142649737Y-50773428D01*
X144478309Y-47740095D02*
X144402119Y-47740095D01*
X144402119Y-47740095D02*
X144325928Y-47778190D01*
X144325928Y-47778190D02*
X144287833Y-47816285D01*
X144287833Y-47816285D02*
X144249738Y-47892476D01*
X144249738Y-47892476D02*
X144211643Y-48044857D01*
X144211643Y-48044857D02*
X144211643Y-48235333D01*
X144211643Y-48235333D02*
X144249738Y-48387714D01*
X144249738Y-48387714D02*
X144287833Y-48463904D01*
X144287833Y-48463904D02*
X144325928Y-48502000D01*
X144325928Y-48502000D02*
X144402119Y-48540095D01*
X144402119Y-48540095D02*
X144478309Y-48540095D01*
X144478309Y-48540095D02*
X144554500Y-48502000D01*
X144554500Y-48502000D02*
X144592595Y-48463904D01*
X144592595Y-48463904D02*
X144630690Y-48387714D01*
X144630690Y-48387714D02*
X144668786Y-48235333D01*
X144668786Y-48235333D02*
X144668786Y-48044857D01*
X144668786Y-48044857D02*
X144630690Y-47892476D01*
X144630690Y-47892476D02*
X144592595Y-47816285D01*
X144592595Y-47816285D02*
X144554500Y-47778190D01*
X144554500Y-47778190D02*
X144478309Y-47740095D01*
X143906881Y-47816285D02*
X143868785Y-47778190D01*
X143868785Y-47778190D02*
X143792595Y-47740095D01*
X143792595Y-47740095D02*
X143602119Y-47740095D01*
X143602119Y-47740095D02*
X143525928Y-47778190D01*
X143525928Y-47778190D02*
X143487833Y-47816285D01*
X143487833Y-47816285D02*
X143449738Y-47892476D01*
X143449738Y-47892476D02*
X143449738Y-47968666D01*
X143449738Y-47968666D02*
X143487833Y-48082952D01*
X143487833Y-48082952D02*
X143944976Y-48540095D01*
X143944976Y-48540095D02*
X143449738Y-48540095D01*
X143144976Y-47816285D02*
X143106880Y-47778190D01*
X143106880Y-47778190D02*
X143030690Y-47740095D01*
X143030690Y-47740095D02*
X142840214Y-47740095D01*
X142840214Y-47740095D02*
X142764023Y-47778190D01*
X142764023Y-47778190D02*
X142725928Y-47816285D01*
X142725928Y-47816285D02*
X142687833Y-47892476D01*
X142687833Y-47892476D02*
X142687833Y-47968666D01*
X142687833Y-47968666D02*
X142725928Y-48082952D01*
X142725928Y-48082952D02*
X143183071Y-48540095D01*
X143183071Y-48540095D02*
X142687833Y-48540095D01*
X144364023Y-37588190D02*
X144440213Y-37550095D01*
X144440213Y-37550095D02*
X144554499Y-37550095D01*
X144554499Y-37550095D02*
X144668785Y-37588190D01*
X144668785Y-37588190D02*
X144744975Y-37664380D01*
X144744975Y-37664380D02*
X144783070Y-37740571D01*
X144783070Y-37740571D02*
X144821166Y-37892952D01*
X144821166Y-37892952D02*
X144821166Y-38007238D01*
X144821166Y-38007238D02*
X144783070Y-38159619D01*
X144783070Y-38159619D02*
X144744975Y-38235809D01*
X144744975Y-38235809D02*
X144668785Y-38312000D01*
X144668785Y-38312000D02*
X144554499Y-38350095D01*
X144554499Y-38350095D02*
X144478308Y-38350095D01*
X144478308Y-38350095D02*
X144364023Y-38312000D01*
X144364023Y-38312000D02*
X144325927Y-38273904D01*
X144325927Y-38273904D02*
X144325927Y-38007238D01*
X144325927Y-38007238D02*
X144478308Y-38007238D01*
X143983070Y-38350095D02*
X143983070Y-37550095D01*
X143983070Y-37550095D02*
X143525927Y-38350095D01*
X143525927Y-38350095D02*
X143525927Y-37550095D01*
X143144975Y-38350095D02*
X143144975Y-37550095D01*
X143144975Y-37550095D02*
X142954499Y-37550095D01*
X142954499Y-37550095D02*
X142840213Y-37588190D01*
X142840213Y-37588190D02*
X142764023Y-37664380D01*
X142764023Y-37664380D02*
X142725928Y-37740571D01*
X142725928Y-37740571D02*
X142687832Y-37892952D01*
X142687832Y-37892952D02*
X142687832Y-38007238D01*
X142687832Y-38007238D02*
X142725928Y-38159619D01*
X142725928Y-38159619D02*
X142764023Y-38235809D01*
X142764023Y-38235809D02*
X142840213Y-38312000D01*
X142840213Y-38312000D02*
X142954499Y-38350095D01*
X142954499Y-38350095D02*
X143144975Y-38350095D01*
X144364023Y-40128190D02*
X144440213Y-40090095D01*
X144440213Y-40090095D02*
X144554499Y-40090095D01*
X144554499Y-40090095D02*
X144668785Y-40128190D01*
X144668785Y-40128190D02*
X144744975Y-40204380D01*
X144744975Y-40204380D02*
X144783070Y-40280571D01*
X144783070Y-40280571D02*
X144821166Y-40432952D01*
X144821166Y-40432952D02*
X144821166Y-40547238D01*
X144821166Y-40547238D02*
X144783070Y-40699619D01*
X144783070Y-40699619D02*
X144744975Y-40775809D01*
X144744975Y-40775809D02*
X144668785Y-40852000D01*
X144668785Y-40852000D02*
X144554499Y-40890095D01*
X144554499Y-40890095D02*
X144478308Y-40890095D01*
X144478308Y-40890095D02*
X144364023Y-40852000D01*
X144364023Y-40852000D02*
X144325927Y-40813904D01*
X144325927Y-40813904D02*
X144325927Y-40547238D01*
X144325927Y-40547238D02*
X144478308Y-40547238D01*
X143983070Y-40890095D02*
X143983070Y-40090095D01*
X143983070Y-40090095D02*
X143525927Y-40890095D01*
X143525927Y-40890095D02*
X143525927Y-40090095D01*
X143144975Y-40890095D02*
X143144975Y-40090095D01*
X143144975Y-40090095D02*
X142954499Y-40090095D01*
X142954499Y-40090095D02*
X142840213Y-40128190D01*
X142840213Y-40128190D02*
X142764023Y-40204380D01*
X142764023Y-40204380D02*
X142725928Y-40280571D01*
X142725928Y-40280571D02*
X142687832Y-40432952D01*
X142687832Y-40432952D02*
X142687832Y-40547238D01*
X142687832Y-40547238D02*
X142725928Y-40699619D01*
X142725928Y-40699619D02*
X142764023Y-40775809D01*
X142764023Y-40775809D02*
X142840213Y-40852000D01*
X142840213Y-40852000D02*
X142954499Y-40890095D01*
X142954499Y-40890095D02*
X143144975Y-40890095D01*
X144478309Y-42630095D02*
X144402119Y-42630095D01*
X144402119Y-42630095D02*
X144325928Y-42668190D01*
X144325928Y-42668190D02*
X144287833Y-42706285D01*
X144287833Y-42706285D02*
X144249738Y-42782476D01*
X144249738Y-42782476D02*
X144211643Y-42934857D01*
X144211643Y-42934857D02*
X144211643Y-43125333D01*
X144211643Y-43125333D02*
X144249738Y-43277714D01*
X144249738Y-43277714D02*
X144287833Y-43353904D01*
X144287833Y-43353904D02*
X144325928Y-43392000D01*
X144325928Y-43392000D02*
X144402119Y-43430095D01*
X144402119Y-43430095D02*
X144478309Y-43430095D01*
X144478309Y-43430095D02*
X144554500Y-43392000D01*
X144554500Y-43392000D02*
X144592595Y-43353904D01*
X144592595Y-43353904D02*
X144630690Y-43277714D01*
X144630690Y-43277714D02*
X144668786Y-43125333D01*
X144668786Y-43125333D02*
X144668786Y-42934857D01*
X144668786Y-42934857D02*
X144630690Y-42782476D01*
X144630690Y-42782476D02*
X144592595Y-42706285D01*
X144592595Y-42706285D02*
X144554500Y-42668190D01*
X144554500Y-42668190D02*
X144478309Y-42630095D01*
X143449738Y-43430095D02*
X143906881Y-43430095D01*
X143678309Y-43430095D02*
X143678309Y-42630095D01*
X143678309Y-42630095D02*
X143754500Y-42744380D01*
X143754500Y-42744380D02*
X143830690Y-42820571D01*
X143830690Y-42820571D02*
X143906881Y-42858666D01*
X143183071Y-42630095D02*
X142649737Y-42630095D01*
X142649737Y-42630095D02*
X142992595Y-43430095D01*
X144478309Y-45240095D02*
X144402119Y-45240095D01*
X144402119Y-45240095D02*
X144325928Y-45278190D01*
X144325928Y-45278190D02*
X144287833Y-45316285D01*
X144287833Y-45316285D02*
X144249738Y-45392476D01*
X144249738Y-45392476D02*
X144211643Y-45544857D01*
X144211643Y-45544857D02*
X144211643Y-45735333D01*
X144211643Y-45735333D02*
X144249738Y-45887714D01*
X144249738Y-45887714D02*
X144287833Y-45963904D01*
X144287833Y-45963904D02*
X144325928Y-46002000D01*
X144325928Y-46002000D02*
X144402119Y-46040095D01*
X144402119Y-46040095D02*
X144478309Y-46040095D01*
X144478309Y-46040095D02*
X144554500Y-46002000D01*
X144554500Y-46002000D02*
X144592595Y-45963904D01*
X144592595Y-45963904D02*
X144630690Y-45887714D01*
X144630690Y-45887714D02*
X144668786Y-45735333D01*
X144668786Y-45735333D02*
X144668786Y-45544857D01*
X144668786Y-45544857D02*
X144630690Y-45392476D01*
X144630690Y-45392476D02*
X144592595Y-45316285D01*
X144592595Y-45316285D02*
X144554500Y-45278190D01*
X144554500Y-45278190D02*
X144478309Y-45240095D01*
X143906881Y-45316285D02*
X143868785Y-45278190D01*
X143868785Y-45278190D02*
X143792595Y-45240095D01*
X143792595Y-45240095D02*
X143602119Y-45240095D01*
X143602119Y-45240095D02*
X143525928Y-45278190D01*
X143525928Y-45278190D02*
X143487833Y-45316285D01*
X143487833Y-45316285D02*
X143449738Y-45392476D01*
X143449738Y-45392476D02*
X143449738Y-45468666D01*
X143449738Y-45468666D02*
X143487833Y-45582952D01*
X143487833Y-45582952D02*
X143944976Y-46040095D01*
X143944976Y-46040095D02*
X143449738Y-46040095D01*
X142954499Y-45240095D02*
X142878309Y-45240095D01*
X142878309Y-45240095D02*
X142802118Y-45278190D01*
X142802118Y-45278190D02*
X142764023Y-45316285D01*
X142764023Y-45316285D02*
X142725928Y-45392476D01*
X142725928Y-45392476D02*
X142687833Y-45544857D01*
X142687833Y-45544857D02*
X142687833Y-45735333D01*
X142687833Y-45735333D02*
X142725928Y-45887714D01*
X142725928Y-45887714D02*
X142764023Y-45963904D01*
X142764023Y-45963904D02*
X142802118Y-46002000D01*
X142802118Y-46002000D02*
X142878309Y-46040095D01*
X142878309Y-46040095D02*
X142954499Y-46040095D01*
X142954499Y-46040095D02*
X143030690Y-46002000D01*
X143030690Y-46002000D02*
X143068785Y-45963904D01*
X143068785Y-45963904D02*
X143106880Y-45887714D01*
X143106880Y-45887714D02*
X143144976Y-45735333D01*
X143144976Y-45735333D02*
X143144976Y-45544857D01*
X143144976Y-45544857D02*
X143106880Y-45392476D01*
X143106880Y-45392476D02*
X143068785Y-45316285D01*
X143068785Y-45316285D02*
X143030690Y-45278190D01*
X143030690Y-45278190D02*
X142954499Y-45240095D01*
X144478309Y-34940095D02*
X144402119Y-34940095D01*
X144402119Y-34940095D02*
X144325928Y-34978190D01*
X144325928Y-34978190D02*
X144287833Y-35016285D01*
X144287833Y-35016285D02*
X144249738Y-35092476D01*
X144249738Y-35092476D02*
X144211643Y-35244857D01*
X144211643Y-35244857D02*
X144211643Y-35435333D01*
X144211643Y-35435333D02*
X144249738Y-35587714D01*
X144249738Y-35587714D02*
X144287833Y-35663904D01*
X144287833Y-35663904D02*
X144325928Y-35702000D01*
X144325928Y-35702000D02*
X144402119Y-35740095D01*
X144402119Y-35740095D02*
X144478309Y-35740095D01*
X144478309Y-35740095D02*
X144554500Y-35702000D01*
X144554500Y-35702000D02*
X144592595Y-35663904D01*
X144592595Y-35663904D02*
X144630690Y-35587714D01*
X144630690Y-35587714D02*
X144668786Y-35435333D01*
X144668786Y-35435333D02*
X144668786Y-35244857D01*
X144668786Y-35244857D02*
X144630690Y-35092476D01*
X144630690Y-35092476D02*
X144592595Y-35016285D01*
X144592595Y-35016285D02*
X144554500Y-34978190D01*
X144554500Y-34978190D02*
X144478309Y-34940095D01*
X143716404Y-34940095D02*
X143640214Y-34940095D01*
X143640214Y-34940095D02*
X143564023Y-34978190D01*
X143564023Y-34978190D02*
X143525928Y-35016285D01*
X143525928Y-35016285D02*
X143487833Y-35092476D01*
X143487833Y-35092476D02*
X143449738Y-35244857D01*
X143449738Y-35244857D02*
X143449738Y-35435333D01*
X143449738Y-35435333D02*
X143487833Y-35587714D01*
X143487833Y-35587714D02*
X143525928Y-35663904D01*
X143525928Y-35663904D02*
X143564023Y-35702000D01*
X143564023Y-35702000D02*
X143640214Y-35740095D01*
X143640214Y-35740095D02*
X143716404Y-35740095D01*
X143716404Y-35740095D02*
X143792595Y-35702000D01*
X143792595Y-35702000D02*
X143830690Y-35663904D01*
X143830690Y-35663904D02*
X143868785Y-35587714D01*
X143868785Y-35587714D02*
X143906881Y-35435333D01*
X143906881Y-35435333D02*
X143906881Y-35244857D01*
X143906881Y-35244857D02*
X143868785Y-35092476D01*
X143868785Y-35092476D02*
X143830690Y-35016285D01*
X143830690Y-35016285D02*
X143792595Y-34978190D01*
X143792595Y-34978190D02*
X143716404Y-34940095D01*
X142992595Y-35282952D02*
X143068785Y-35244857D01*
X143068785Y-35244857D02*
X143106880Y-35206761D01*
X143106880Y-35206761D02*
X143144976Y-35130571D01*
X143144976Y-35130571D02*
X143144976Y-35092476D01*
X143144976Y-35092476D02*
X143106880Y-35016285D01*
X143106880Y-35016285D02*
X143068785Y-34978190D01*
X143068785Y-34978190D02*
X142992595Y-34940095D01*
X142992595Y-34940095D02*
X142840214Y-34940095D01*
X142840214Y-34940095D02*
X142764023Y-34978190D01*
X142764023Y-34978190D02*
X142725928Y-35016285D01*
X142725928Y-35016285D02*
X142687833Y-35092476D01*
X142687833Y-35092476D02*
X142687833Y-35130571D01*
X142687833Y-35130571D02*
X142725928Y-35206761D01*
X142725928Y-35206761D02*
X142764023Y-35244857D01*
X142764023Y-35244857D02*
X142840214Y-35282952D01*
X142840214Y-35282952D02*
X142992595Y-35282952D01*
X142992595Y-35282952D02*
X143068785Y-35321047D01*
X143068785Y-35321047D02*
X143106880Y-35359142D01*
X143106880Y-35359142D02*
X143144976Y-35435333D01*
X143144976Y-35435333D02*
X143144976Y-35587714D01*
X143144976Y-35587714D02*
X143106880Y-35663904D01*
X143106880Y-35663904D02*
X143068785Y-35702000D01*
X143068785Y-35702000D02*
X142992595Y-35740095D01*
X142992595Y-35740095D02*
X142840214Y-35740095D01*
X142840214Y-35740095D02*
X142764023Y-35702000D01*
X142764023Y-35702000D02*
X142725928Y-35663904D01*
X142725928Y-35663904D02*
X142687833Y-35587714D01*
X142687833Y-35587714D02*
X142687833Y-35435333D01*
X142687833Y-35435333D02*
X142725928Y-35359142D01*
X142725928Y-35359142D02*
X142764023Y-35321047D01*
X142764023Y-35321047D02*
X142840214Y-35282952D01*
D11*
G04 #@! TO.C,SW_PWR1*
X160115500Y-30157800D02*
X160115500Y-30947800D01*
X166415500Y-29147800D02*
X160715500Y-29147800D01*
X163665500Y-31997800D02*
X161965500Y-31997800D01*
X162165500Y-27857800D02*
X162165500Y-29147800D01*
X162365500Y-27647800D02*
X162165500Y-27857800D01*
X163265500Y-27647800D02*
X162365500Y-27647800D01*
X163265500Y-27647800D02*
X163465500Y-27857800D01*
X163465500Y-29147800D02*
X163465500Y-27857800D01*
X165165500Y-31997800D02*
X164965500Y-31997800D01*
X167015500Y-30947800D02*
X167015500Y-30157800D01*
D10*
G04 #@! TO.C,SW13*
X80513018Y-82124231D02*
X81143055Y-81803211D01*
X79431458Y-85452929D02*
X79752478Y-86082965D01*
X81143055Y-81803211D02*
X83996224Y-82730262D01*
X79752478Y-86082965D02*
X82130119Y-86855508D01*
X83996224Y-82730262D02*
X84317244Y-83360299D01*
X84008227Y-84311355D02*
X84317244Y-83360299D01*
X83093179Y-88745618D02*
X82876867Y-89411358D01*
X82876867Y-89411358D02*
X87156621Y-90801934D01*
X88609001Y-86331969D02*
X84329247Y-84941392D01*
X88423591Y-86902602D02*
X88609001Y-86331969D01*
X87156621Y-90801934D02*
X87311130Y-90326406D01*
X82130119Y-86855508D02*
G75*
G02*
X83093179Y-88745618I-463525J-1426585D01*
G01*
X84329247Y-84941392D02*
G75*
G02*
X84008227Y-84311355I154508J475528D01*
G01*
G04 #@! TO.C,SW17*
X96334218Y-91681031D02*
X96964255Y-91360011D01*
X95252658Y-95009729D02*
X95573678Y-95639765D01*
X96964255Y-91360011D02*
X99817424Y-92287062D01*
X95573678Y-95639765D02*
X97951319Y-96412308D01*
X99817424Y-92287062D02*
X100138444Y-92917099D01*
X99829427Y-93868155D02*
X100138444Y-92917099D01*
X98914379Y-98302418D02*
X98698067Y-98968158D01*
X98698067Y-98968158D02*
X102977821Y-100358734D01*
X104430201Y-95888769D02*
X100150447Y-94498192D01*
X104244791Y-96459402D02*
X104430201Y-95888769D01*
X102977821Y-100358734D02*
X103132330Y-99883206D01*
X97951319Y-96412308D02*
G75*
G02*
X98914379Y-98302418I-463525J-1426585D01*
G01*
X100150447Y-94498192D02*
G75*
G02*
X99829427Y-93868155I154508J475528D01*
G01*
G04 #@! TO.C,SW21*
X116435118Y-102628331D02*
X117065155Y-102307311D01*
X115353558Y-105957029D02*
X115674578Y-106587065D01*
X117065155Y-102307311D02*
X119918324Y-103234362D01*
X115674578Y-106587065D02*
X118052219Y-107359608D01*
X119918324Y-103234362D02*
X120239344Y-103864399D01*
X119930327Y-104815455D02*
X120239344Y-103864399D01*
X119015279Y-109249718D02*
X118798967Y-109915458D01*
X118798967Y-109915458D02*
X123078721Y-111306034D01*
X124531101Y-106836069D02*
X120251347Y-105445492D01*
X124345691Y-107406702D02*
X124531101Y-106836069D01*
X123078721Y-111306034D02*
X123233230Y-110830506D01*
X118052219Y-107359608D02*
G75*
G02*
X119015279Y-109249718I-463525J-1426585D01*
G01*
X120251347Y-105445492D02*
G75*
G02*
X119930327Y-104815455I154508J475528D01*
G01*
G04 #@! TO.C,SW25*
X178010056Y-103864399D02*
X178331076Y-103234362D01*
X179091616Y-107193097D02*
X179721652Y-107514116D01*
X178331076Y-103234362D02*
X181184245Y-102307311D01*
X179721652Y-107514116D02*
X182099294Y-106741574D01*
X181184245Y-102307311D02*
X181814282Y-102628331D01*
X182123299Y-103579387D02*
X181814282Y-102628331D01*
X183989404Y-107704633D02*
X184205716Y-108370373D01*
X184205716Y-108370373D02*
X188485470Y-106979796D01*
X187033090Y-102509831D02*
X182753336Y-103900407D01*
X187218500Y-103080465D02*
X187033090Y-102509831D01*
X188485470Y-106979796D02*
X188330962Y-106504268D01*
X182099294Y-106741574D02*
G75*
G02*
X183989404Y-107704633I463525J-1426585D01*
G01*
X182753336Y-103900407D02*
G75*
G02*
X182123299Y-103579387I-154509J475528D01*
G01*
G04 #@! TO.C,SW29*
X198110956Y-92917099D02*
X198431976Y-92287062D01*
X199192516Y-96245797D02*
X199822552Y-96566816D01*
X198431976Y-92287062D02*
X201285145Y-91360011D01*
X199822552Y-96566816D02*
X202200194Y-95794274D01*
X201285145Y-91360011D02*
X201915182Y-91681031D01*
X202224199Y-92632087D02*
X201915182Y-91681031D01*
X204090304Y-96757333D02*
X204306616Y-97423073D01*
X204306616Y-97423073D02*
X208586370Y-96032496D01*
X207133990Y-91562531D02*
X202854236Y-92953107D01*
X207319400Y-92133165D02*
X207133990Y-91562531D01*
X208586370Y-96032496D02*
X208431862Y-95556968D01*
X202200194Y-95794274D02*
G75*
G02*
X204090304Y-96757333I463525J-1426585D01*
G01*
X202854236Y-92953107D02*
G75*
G02*
X202224199Y-92632087I-154509J475528D01*
G01*
G04 #@! TO.C,SW33*
X218675336Y-83396307D02*
G75*
G02*
X218045299Y-83075287I-154509J475528D01*
G01*
X218021294Y-86237474D02*
G75*
G02*
X219911404Y-87200533I463525J-1426585D01*
G01*
X224407470Y-86475696D02*
X224252962Y-86000168D01*
X223140500Y-82576365D02*
X222955090Y-82005731D01*
X222955090Y-82005731D02*
X218675336Y-83396307D01*
X220127716Y-87866273D02*
X224407470Y-86475696D01*
X219911404Y-87200533D02*
X220127716Y-87866273D01*
X218045299Y-83075287D02*
X217736282Y-82124231D01*
X217106245Y-81803211D02*
X217736282Y-82124231D01*
X215643652Y-87010016D02*
X218021294Y-86237474D01*
X214253076Y-82730262D02*
X217106245Y-81803211D01*
X215013616Y-86688997D02*
X215643652Y-87010016D01*
X213932056Y-83360299D02*
X214253076Y-82730262D01*
G04 #@! TO.C,SW3*
X30515618Y-61252731D02*
X31145655Y-60931711D01*
X29434058Y-64581429D02*
X29755078Y-65211465D01*
X31145655Y-60931711D02*
X33998824Y-61858762D01*
X29755078Y-65211465D02*
X32132719Y-65984008D01*
X33998824Y-61858762D02*
X34319844Y-62488799D01*
X34010827Y-63439855D02*
X34319844Y-62488799D01*
X33095779Y-67874118D02*
X32879467Y-68539858D01*
X32879467Y-68539858D02*
X37159221Y-69930434D01*
X38611601Y-65460469D02*
X34331847Y-64069892D01*
X38426191Y-66031102D02*
X38611601Y-65460469D01*
X37159221Y-69930434D02*
X37313730Y-69454906D01*
X32132719Y-65984008D02*
G75*
G02*
X33095779Y-67874118I-463525J-1426585D01*
G01*
X34331847Y-64069892D02*
G75*
G02*
X34010827Y-63439855I154508J475528D01*
G01*
G04 #@! TO.C,SW6*
X48932518Y-62820531D02*
X49562555Y-62499511D01*
X47850958Y-66149229D02*
X48171978Y-66779265D01*
X49562555Y-62499511D02*
X52415724Y-63426562D01*
X48171978Y-66779265D02*
X50549619Y-67551808D01*
X52415724Y-63426562D02*
X52736744Y-64056599D01*
X52427727Y-65007655D02*
X52736744Y-64056599D01*
X51512679Y-69441918D02*
X51296367Y-70107658D01*
X51296367Y-70107658D02*
X55576121Y-71498234D01*
X57028501Y-67028269D02*
X52748747Y-65637692D01*
X56843091Y-67598902D02*
X57028501Y-67028269D01*
X55576121Y-71498234D02*
X55730630Y-71022706D01*
X50549619Y-67551808D02*
G75*
G02*
X51512679Y-69441918I-463525J-1426585D01*
G01*
X52748747Y-65637692D02*
G75*
G02*
X52427727Y-65007655I154508J475528D01*
G01*
G04 #@! TO.C,SW9*
X67349418Y-64388431D02*
X67979455Y-64067411D01*
X66267858Y-67717129D02*
X66588878Y-68347165D01*
X67979455Y-64067411D02*
X70832624Y-64994462D01*
X66588878Y-68347165D02*
X68966519Y-69119708D01*
X70832624Y-64994462D02*
X71153644Y-65624499D01*
X70844627Y-66575555D02*
X71153644Y-65624499D01*
X69929579Y-71009818D02*
X69713267Y-71675558D01*
X69713267Y-71675558D02*
X73993021Y-73066134D01*
X75445401Y-68596169D02*
X71165647Y-67205592D01*
X75259991Y-69166802D02*
X75445401Y-68596169D01*
X73993021Y-73066134D02*
X74147530Y-72590606D01*
X68966519Y-69119708D02*
G75*
G02*
X69929579Y-71009818I-463525J-1426585D01*
G01*
X71165647Y-67205592D02*
G75*
G02*
X70844627Y-66575555I154508J475528D01*
G01*
G04 #@! TO.C,SW12*
X85766318Y-65956331D02*
X86396355Y-65635311D01*
X84684758Y-69285029D02*
X85005778Y-69915065D01*
X86396355Y-65635311D02*
X89249524Y-66562362D01*
X85005778Y-69915065D02*
X87383419Y-70687608D01*
X89249524Y-66562362D02*
X89570544Y-67192399D01*
X89261527Y-68143455D02*
X89570544Y-67192399D01*
X88346479Y-72577718D02*
X88130167Y-73243458D01*
X88130167Y-73243458D02*
X92409921Y-74634034D01*
X93862301Y-70164069D02*
X89582547Y-68773492D01*
X93676891Y-70734702D02*
X93862301Y-70164069D01*
X92409921Y-74634034D02*
X92564430Y-74158506D01*
X87383419Y-70687608D02*
G75*
G02*
X88346479Y-72577718I-463525J-1426585D01*
G01*
X89582547Y-68773492D02*
G75*
G02*
X89261527Y-68143455I154508J475528D01*
G01*
G04 #@! TO.C,SW16*
X101587418Y-75513031D02*
X102217455Y-75192011D01*
X100505858Y-78841729D02*
X100826878Y-79471765D01*
X102217455Y-75192011D02*
X105070624Y-76119062D01*
X100826878Y-79471765D02*
X103204519Y-80244308D01*
X105070624Y-76119062D02*
X105391644Y-76749099D01*
X105082627Y-77700155D02*
X105391644Y-76749099D01*
X104167579Y-82134418D02*
X103951267Y-82800158D01*
X103951267Y-82800158D02*
X108231021Y-84190734D01*
X109683401Y-79720769D02*
X105403647Y-78330192D01*
X109497991Y-80291402D02*
X109683401Y-79720769D01*
X108231021Y-84190734D02*
X108385530Y-83715206D01*
X103204519Y-80244308D02*
G75*
G02*
X104167579Y-82134418I-463525J-1426585D01*
G01*
X105403647Y-78330192D02*
G75*
G02*
X105082627Y-77700155I154508J475528D01*
G01*
G04 #@! TO.C,SW20*
X117408618Y-85069831D02*
X118038655Y-84748811D01*
X116327058Y-88398529D02*
X116648078Y-89028565D01*
X118038655Y-84748811D02*
X120891824Y-85675862D01*
X116648078Y-89028565D02*
X119025719Y-89801108D01*
X120891824Y-85675862D02*
X121212844Y-86305899D01*
X120903827Y-87256955D02*
X121212844Y-86305899D01*
X119988779Y-91691218D02*
X119772467Y-92356958D01*
X119772467Y-92356958D02*
X124052221Y-93747534D01*
X125504601Y-89277569D02*
X121224847Y-87886992D01*
X125319191Y-89848202D02*
X125504601Y-89277569D01*
X124052221Y-93747534D02*
X124206730Y-93272006D01*
X119025719Y-89801108D02*
G75*
G02*
X119988779Y-91691218I-463525J-1426585D01*
G01*
X121224847Y-87886992D02*
G75*
G02*
X120903827Y-87256955I154508J475528D01*
G01*
G04 #@! TO.C,SW24*
X177036556Y-86305899D02*
X177357576Y-85675862D01*
X178118116Y-89634597D02*
X178748152Y-89955616D01*
X177357576Y-85675862D02*
X180210745Y-84748811D01*
X178748152Y-89955616D02*
X181125794Y-89183074D01*
X180210745Y-84748811D02*
X180840782Y-85069831D01*
X181149799Y-86020887D02*
X180840782Y-85069831D01*
X183015904Y-90146133D02*
X183232216Y-90811873D01*
X183232216Y-90811873D02*
X187511970Y-89421296D01*
X186059590Y-84951331D02*
X181779836Y-86341907D01*
X186245000Y-85521965D02*
X186059590Y-84951331D01*
X187511970Y-89421296D02*
X187357462Y-88945768D01*
X181125794Y-89183074D02*
G75*
G02*
X183015904Y-90146133I463525J-1426585D01*
G01*
X181779836Y-86341907D02*
G75*
G02*
X181149799Y-86020887I-154509J475528D01*
G01*
G04 #@! TO.C,SW28*
X192857656Y-76749099D02*
X193178676Y-76119062D01*
X193939216Y-80077797D02*
X194569252Y-80398816D01*
X193178676Y-76119062D02*
X196031845Y-75192011D01*
X194569252Y-80398816D02*
X196946894Y-79626274D01*
X196031845Y-75192011D02*
X196661882Y-75513031D01*
X196970899Y-76464087D02*
X196661882Y-75513031D01*
X198837004Y-80589333D02*
X199053316Y-81255073D01*
X199053316Y-81255073D02*
X203333070Y-79864496D01*
X201880690Y-75394531D02*
X197600936Y-76785107D01*
X202066100Y-75965165D02*
X201880690Y-75394531D01*
X203333070Y-79864496D02*
X203178562Y-79388968D01*
X196946894Y-79626274D02*
G75*
G02*
X198837004Y-80589333I463525J-1426585D01*
G01*
X197600936Y-76785107D02*
G75*
G02*
X196970899Y-76464087I-154509J475528D01*
G01*
G04 #@! TO.C,SW32*
X208678756Y-67192399D02*
X208999776Y-66562362D01*
X209760316Y-70521097D02*
X210390352Y-70842116D01*
X208999776Y-66562362D02*
X211852945Y-65635311D01*
X210390352Y-70842116D02*
X212767994Y-70069574D01*
X211852945Y-65635311D02*
X212482982Y-65956331D01*
X212791999Y-66907387D02*
X212482982Y-65956331D01*
X214658104Y-71032633D02*
X214874416Y-71698373D01*
X214874416Y-71698373D02*
X219154170Y-70307796D01*
X217701790Y-65837831D02*
X213422036Y-67228407D01*
X217887200Y-66408465D02*
X217701790Y-65837831D01*
X219154170Y-70307796D02*
X218999662Y-69832268D01*
X212767994Y-70069574D02*
G75*
G02*
X214658104Y-71032633I463525J-1426585D01*
G01*
X213422036Y-67228407D02*
G75*
G02*
X212791999Y-66907387I-154509J475528D01*
G01*
G04 #@! TO.C,SW36*
X227095656Y-65624499D02*
X227416676Y-64994462D01*
X228177216Y-68953197D02*
X228807252Y-69274216D01*
X227416676Y-64994462D02*
X230269845Y-64067411D01*
X228807252Y-69274216D02*
X231184894Y-68501674D01*
X230269845Y-64067411D02*
X230899882Y-64388431D01*
X231208899Y-65339487D02*
X230899882Y-64388431D01*
X233075004Y-69464733D02*
X233291316Y-70130473D01*
X233291316Y-70130473D02*
X237571070Y-68739896D01*
X236118690Y-64269931D02*
X231838936Y-65660507D01*
X236304100Y-64840565D02*
X236118690Y-64269931D01*
X237571070Y-68739896D02*
X237416562Y-68264368D01*
X231184894Y-68501674D02*
G75*
G02*
X233075004Y-69464733I463525J-1426585D01*
G01*
X231838936Y-65660507D02*
G75*
G02*
X231208899Y-65339487I-154509J475528D01*
G01*
G04 #@! TO.C,SW39*
X245512556Y-64056599D02*
X245833576Y-63426562D01*
X246594116Y-67385297D02*
X247224152Y-67706316D01*
X245833576Y-63426562D02*
X248686745Y-62499511D01*
X247224152Y-67706316D02*
X249601794Y-66933774D01*
X248686745Y-62499511D02*
X249316782Y-62820531D01*
X249625799Y-63771587D02*
X249316782Y-62820531D01*
X251491904Y-67896833D02*
X251708216Y-68562573D01*
X251708216Y-68562573D02*
X255987970Y-67171996D01*
X254535590Y-62702031D02*
X250255836Y-64092607D01*
X254721000Y-63272665D02*
X254535590Y-62702031D01*
X255987970Y-67171996D02*
X255833462Y-66696468D01*
X249601794Y-66933774D02*
G75*
G02*
X251491904Y-67896833I463525J-1426585D01*
G01*
X250255836Y-64092607D02*
G75*
G02*
X249625799Y-63771587I-154509J475528D01*
G01*
G04 #@! TO.C,SW42*
X263929456Y-62488799D02*
X264250476Y-61858762D01*
X265011016Y-65817497D02*
X265641052Y-66138516D01*
X264250476Y-61858762D02*
X267103645Y-60931711D01*
X265641052Y-66138516D02*
X268018694Y-65365974D01*
X267103645Y-60931711D02*
X267733682Y-61252731D01*
X268042699Y-62203787D02*
X267733682Y-61252731D01*
X269908804Y-66329033D02*
X270125116Y-66994773D01*
X270125116Y-66994773D02*
X274404870Y-65604196D01*
X272952490Y-61134231D02*
X268672736Y-62524807D01*
X273137900Y-61704865D02*
X272952490Y-61134231D01*
X274404870Y-65604196D02*
X274250362Y-65128668D01*
X268018694Y-65365974D02*
G75*
G02*
X269908804Y-66329033I463525J-1426585D01*
G01*
X268672736Y-62524807D02*
G75*
G02*
X268042699Y-62203787I-154509J475528D01*
G01*
G04 #@! TO.C,SW2*
X35768918Y-45084731D02*
X36398955Y-44763711D01*
X34687358Y-48413429D02*
X35008378Y-49043465D01*
X36398955Y-44763711D02*
X39252124Y-45690762D01*
X35008378Y-49043465D02*
X37386019Y-49816008D01*
X39252124Y-45690762D02*
X39573144Y-46320799D01*
X39264127Y-47271855D02*
X39573144Y-46320799D01*
X38349079Y-51706118D02*
X38132767Y-52371858D01*
X38132767Y-52371858D02*
X42412521Y-53762434D01*
X43864901Y-49292469D02*
X39585147Y-47901892D01*
X43679491Y-49863102D02*
X43864901Y-49292469D01*
X42412521Y-53762434D02*
X42567030Y-53286906D01*
X37386019Y-49816008D02*
G75*
G02*
X38349079Y-51706118I-463525J-1426585D01*
G01*
X39585147Y-47901892D02*
G75*
G02*
X39264127Y-47271855I154508J475528D01*
G01*
G04 #@! TO.C,SW5*
X54185818Y-46652631D02*
X54815855Y-46331611D01*
X53104258Y-49981329D02*
X53425278Y-50611365D01*
X54815855Y-46331611D02*
X57669024Y-47258662D01*
X53425278Y-50611365D02*
X55802919Y-51383908D01*
X57669024Y-47258662D02*
X57990044Y-47888699D01*
X57681027Y-48839755D02*
X57990044Y-47888699D01*
X56765979Y-53274018D02*
X56549667Y-53939758D01*
X56549667Y-53939758D02*
X60829421Y-55330334D01*
X62281801Y-50860369D02*
X58002047Y-49469792D01*
X62096391Y-51431002D02*
X62281801Y-50860369D01*
X60829421Y-55330334D02*
X60983930Y-54854806D01*
X55802919Y-51383908D02*
G75*
G02*
X56765979Y-53274018I-463525J-1426585D01*
G01*
X58002047Y-49469792D02*
G75*
G02*
X57681027Y-48839755I154508J475528D01*
G01*
G04 #@! TO.C,SW8*
X72602718Y-48220431D02*
X73232755Y-47899411D01*
X71521158Y-51549129D02*
X71842178Y-52179165D01*
X73232755Y-47899411D02*
X76085924Y-48826462D01*
X71842178Y-52179165D02*
X74219819Y-52951708D01*
X76085924Y-48826462D02*
X76406944Y-49456499D01*
X76097927Y-50407555D02*
X76406944Y-49456499D01*
X75182879Y-54841818D02*
X74966567Y-55507558D01*
X74966567Y-55507558D02*
X79246321Y-56898134D01*
X80698701Y-52428169D02*
X76418947Y-51037592D01*
X80513291Y-52998802D02*
X80698701Y-52428169D01*
X79246321Y-56898134D02*
X79400830Y-56422606D01*
X74219819Y-52951708D02*
G75*
G02*
X75182879Y-54841818I-463525J-1426585D01*
G01*
X76418947Y-51037592D02*
G75*
G02*
X76097927Y-50407555I154508J475528D01*
G01*
G04 #@! TO.C,SW11*
X91019618Y-49788331D02*
X91649655Y-49467311D01*
X89938058Y-53117029D02*
X90259078Y-53747065D01*
X91649655Y-49467311D02*
X94502824Y-50394362D01*
X90259078Y-53747065D02*
X92636719Y-54519608D01*
X94502824Y-50394362D02*
X94823844Y-51024399D01*
X94514827Y-51975455D02*
X94823844Y-51024399D01*
X93599779Y-56409718D02*
X93383467Y-57075458D01*
X93383467Y-57075458D02*
X97663221Y-58466034D01*
X99115601Y-53996069D02*
X94835847Y-52605492D01*
X98930191Y-54566702D02*
X99115601Y-53996069D01*
X97663221Y-58466034D02*
X97817730Y-57990506D01*
X92636719Y-54519608D02*
G75*
G02*
X93599779Y-56409718I-463525J-1426585D01*
G01*
X94835847Y-52605492D02*
G75*
G02*
X94514827Y-51975455I154508J475528D01*
G01*
G04 #@! TO.C,SW15*
X106840718Y-59345131D02*
X107470755Y-59024111D01*
X105759158Y-62673829D02*
X106080178Y-63303865D01*
X107470755Y-59024111D02*
X110323924Y-59951162D01*
X106080178Y-63303865D02*
X108457819Y-64076408D01*
X110323924Y-59951162D02*
X110644944Y-60581199D01*
X110335927Y-61532255D02*
X110644944Y-60581199D01*
X109420879Y-65966518D02*
X109204567Y-66632258D01*
X109204567Y-66632258D02*
X113484321Y-68022834D01*
X114936701Y-63552869D02*
X110656947Y-62162292D01*
X114751291Y-64123502D02*
X114936701Y-63552869D01*
X113484321Y-68022834D02*
X113638830Y-67547306D01*
X108457819Y-64076408D02*
G75*
G02*
X109420879Y-65966518I-463525J-1426585D01*
G01*
X110656947Y-62162292D02*
G75*
G02*
X110335927Y-61532255I154508J475528D01*
G01*
G04 #@! TO.C,SW19*
X122661918Y-68901831D02*
X123291955Y-68580811D01*
X121580358Y-72230529D02*
X121901378Y-72860565D01*
X123291955Y-68580811D02*
X126145124Y-69507862D01*
X121901378Y-72860565D02*
X124279019Y-73633108D01*
X126145124Y-69507862D02*
X126466144Y-70137899D01*
X126157127Y-71088955D02*
X126466144Y-70137899D01*
X125242079Y-75523218D02*
X125025767Y-76188958D01*
X125025767Y-76188958D02*
X129305521Y-77579534D01*
X130757901Y-73109569D02*
X126478147Y-71718992D01*
X130572491Y-73680202D02*
X130757901Y-73109569D01*
X129305521Y-77579534D02*
X129460030Y-77104006D01*
X124279019Y-73633108D02*
G75*
G02*
X125242079Y-75523218I-463525J-1426585D01*
G01*
X126478147Y-71718992D02*
G75*
G02*
X126157127Y-71088955I154508J475528D01*
G01*
G04 #@! TO.C,SW23*
X171783256Y-70137899D02*
X172104276Y-69507862D01*
X172864816Y-73466597D02*
X173494852Y-73787616D01*
X172104276Y-69507862D02*
X174957445Y-68580811D01*
X173494852Y-73787616D02*
X175872494Y-73015074D01*
X174957445Y-68580811D02*
X175587482Y-68901831D01*
X175896499Y-69852887D02*
X175587482Y-68901831D01*
X177762604Y-73978133D02*
X177978916Y-74643873D01*
X177978916Y-74643873D02*
X182258670Y-73253296D01*
X180806290Y-68783331D02*
X176526536Y-70173907D01*
X180991700Y-69353965D02*
X180806290Y-68783331D01*
X182258670Y-73253296D02*
X182104162Y-72777768D01*
X175872494Y-73015074D02*
G75*
G02*
X177762604Y-73978133I463525J-1426585D01*
G01*
X176526536Y-70173907D02*
G75*
G02*
X175896499Y-69852887I-154509J475528D01*
G01*
G04 #@! TO.C,SW27*
X187604356Y-60581199D02*
X187925376Y-59951162D01*
X188685916Y-63909897D02*
X189315952Y-64230916D01*
X187925376Y-59951162D02*
X190778545Y-59024111D01*
X189315952Y-64230916D02*
X191693594Y-63458374D01*
X190778545Y-59024111D02*
X191408582Y-59345131D01*
X191717599Y-60296187D02*
X191408582Y-59345131D01*
X193583704Y-64421433D02*
X193800016Y-65087173D01*
X193800016Y-65087173D02*
X198079770Y-63696596D01*
X196627390Y-59226631D02*
X192347636Y-60617207D01*
X196812800Y-59797265D02*
X196627390Y-59226631D01*
X198079770Y-63696596D02*
X197925262Y-63221068D01*
X191693594Y-63458374D02*
G75*
G02*
X193583704Y-64421433I463525J-1426585D01*
G01*
X192347636Y-60617207D02*
G75*
G02*
X191717599Y-60296187I-154509J475528D01*
G01*
G04 #@! TO.C,SW31*
X203425556Y-51024399D02*
X203746576Y-50394362D01*
X204507116Y-54353097D02*
X205137152Y-54674116D01*
X203746576Y-50394362D02*
X206599745Y-49467311D01*
X205137152Y-54674116D02*
X207514794Y-53901574D01*
X206599745Y-49467311D02*
X207229782Y-49788331D01*
X207538799Y-50739387D02*
X207229782Y-49788331D01*
X209404904Y-54864633D02*
X209621216Y-55530373D01*
X209621216Y-55530373D02*
X213900970Y-54139796D01*
X212448590Y-49669831D02*
X208168836Y-51060407D01*
X212634000Y-50240465D02*
X212448590Y-49669831D01*
X213900970Y-54139796D02*
X213746462Y-53664268D01*
X207514794Y-53901574D02*
G75*
G02*
X209404904Y-54864633I463525J-1426585D01*
G01*
X208168836Y-51060407D02*
G75*
G02*
X207538799Y-50739387I-154509J475528D01*
G01*
G04 #@! TO.C,SW35*
X221842356Y-49456499D02*
X222163376Y-48826462D01*
X222923916Y-52785197D02*
X223553952Y-53106216D01*
X222163376Y-48826462D02*
X225016545Y-47899411D01*
X223553952Y-53106216D02*
X225931594Y-52333674D01*
X225016545Y-47899411D02*
X225646582Y-48220431D01*
X225955599Y-49171487D02*
X225646582Y-48220431D01*
X227821704Y-53296733D02*
X228038016Y-53962473D01*
X228038016Y-53962473D02*
X232317770Y-52571896D01*
X230865390Y-48101931D02*
X226585636Y-49492507D01*
X231050800Y-48672565D02*
X230865390Y-48101931D01*
X232317770Y-52571896D02*
X232163262Y-52096368D01*
X225931594Y-52333674D02*
G75*
G02*
X227821704Y-53296733I463525J-1426585D01*
G01*
X226585636Y-49492507D02*
G75*
G02*
X225955599Y-49171487I-154509J475528D01*
G01*
G04 #@! TO.C,SW38*
X240259256Y-47888699D02*
X240580276Y-47258662D01*
X241340816Y-51217397D02*
X241970852Y-51538416D01*
X240580276Y-47258662D02*
X243433445Y-46331611D01*
X241970852Y-51538416D02*
X244348494Y-50765874D01*
X243433445Y-46331611D02*
X244063482Y-46652631D01*
X244372499Y-47603687D02*
X244063482Y-46652631D01*
X246238604Y-51728933D02*
X246454916Y-52394673D01*
X246454916Y-52394673D02*
X250734670Y-51004096D01*
X249282290Y-46534131D02*
X245002536Y-47924707D01*
X249467700Y-47104765D02*
X249282290Y-46534131D01*
X250734670Y-51004096D02*
X250580162Y-50528568D01*
X244348494Y-50765874D02*
G75*
G02*
X246238604Y-51728933I463525J-1426585D01*
G01*
X245002536Y-47924707D02*
G75*
G02*
X244372499Y-47603687I-154509J475528D01*
G01*
G04 #@! TO.C,SW41*
X258676156Y-46320799D02*
X258997176Y-45690762D01*
X259757716Y-49649497D02*
X260387752Y-49970516D01*
X258997176Y-45690762D02*
X261850345Y-44763711D01*
X260387752Y-49970516D02*
X262765394Y-49197974D01*
X261850345Y-44763711D02*
X262480382Y-45084731D01*
X262789399Y-46035787D02*
X262480382Y-45084731D01*
X264655504Y-50161033D02*
X264871816Y-50826773D01*
X264871816Y-50826773D02*
X269151570Y-49436196D01*
X267699190Y-44966231D02*
X263419436Y-46356807D01*
X267884600Y-45536865D02*
X267699190Y-44966231D01*
X269151570Y-49436196D02*
X268997062Y-48960668D01*
X262765394Y-49197974D02*
G75*
G02*
X264655504Y-50161033I463525J-1426585D01*
G01*
X263419436Y-46356807D02*
G75*
G02*
X262789399Y-46035787I-154509J475528D01*
G01*
G04 #@! TO.C,SW1*
X44838447Y-31733892D02*
G75*
G02*
X44517427Y-31103855I154508J475528D01*
G01*
X42639319Y-33648008D02*
G75*
G02*
X43602379Y-35538118I-463525J-1426585D01*
G01*
X47665821Y-37594434D02*
X47820330Y-37118906D01*
X48932791Y-33695102D02*
X49118201Y-33124469D01*
X49118201Y-33124469D02*
X44838447Y-31733892D01*
X43386067Y-36203858D02*
X47665821Y-37594434D01*
X43602379Y-35538118D02*
X43386067Y-36203858D01*
X44517427Y-31103855D02*
X44826444Y-30152799D01*
X44505424Y-29522762D02*
X44826444Y-30152799D01*
X40261678Y-32875465D02*
X42639319Y-33648008D01*
X41652255Y-28595711D02*
X44505424Y-29522762D01*
X39940658Y-32245429D02*
X40261678Y-32875465D01*
X41022218Y-28916731D02*
X41652255Y-28595711D01*
G04 #@! TO.C,SW4*
X59439118Y-30484631D02*
X60069155Y-30163611D01*
X58357558Y-33813329D02*
X58678578Y-34443365D01*
X60069155Y-30163611D02*
X62922324Y-31090662D01*
X58678578Y-34443365D02*
X61056219Y-35215908D01*
X62922324Y-31090662D02*
X63243344Y-31720699D01*
X62934327Y-32671755D02*
X63243344Y-31720699D01*
X62019279Y-37106018D02*
X61802967Y-37771758D01*
X61802967Y-37771758D02*
X66082721Y-39162334D01*
X67535101Y-34692369D02*
X63255347Y-33301792D01*
X67349691Y-35263002D02*
X67535101Y-34692369D01*
X66082721Y-39162334D02*
X66237230Y-38686806D01*
X61056219Y-35215908D02*
G75*
G02*
X62019279Y-37106018I-463525J-1426585D01*
G01*
X63255347Y-33301792D02*
G75*
G02*
X62934327Y-32671755I154508J475528D01*
G01*
G04 #@! TO.C,SW7*
X77856018Y-32052531D02*
X78486055Y-31731511D01*
X76774458Y-35381229D02*
X77095478Y-36011265D01*
X78486055Y-31731511D02*
X81339224Y-32658562D01*
X77095478Y-36011265D02*
X79473119Y-36783808D01*
X81339224Y-32658562D02*
X81660244Y-33288599D01*
X81351227Y-34239655D02*
X81660244Y-33288599D01*
X80436179Y-38673918D02*
X80219867Y-39339658D01*
X80219867Y-39339658D02*
X84499621Y-40730234D01*
X85952001Y-36260269D02*
X81672247Y-34869692D01*
X85766591Y-36830902D02*
X85952001Y-36260269D01*
X84499621Y-40730234D02*
X84654130Y-40254706D01*
X79473119Y-36783808D02*
G75*
G02*
X80436179Y-38673918I-463525J-1426585D01*
G01*
X81672247Y-34869692D02*
G75*
G02*
X81351227Y-34239655I154508J475528D01*
G01*
G04 #@! TO.C,SW10*
X96272918Y-33620431D02*
X96902955Y-33299411D01*
X95191358Y-36949129D02*
X95512378Y-37579165D01*
X96902955Y-33299411D02*
X99756124Y-34226462D01*
X95512378Y-37579165D02*
X97890019Y-38351708D01*
X99756124Y-34226462D02*
X100077144Y-34856499D01*
X99768127Y-35807555D02*
X100077144Y-34856499D01*
X98853079Y-40241818D02*
X98636767Y-40907558D01*
X98636767Y-40907558D02*
X102916521Y-42298134D01*
X104368901Y-37828169D02*
X100089147Y-36437592D01*
X104183491Y-38398802D02*
X104368901Y-37828169D01*
X102916521Y-42298134D02*
X103071030Y-41822606D01*
X97890019Y-38351708D02*
G75*
G02*
X98853079Y-40241818I-463525J-1426585D01*
G01*
X100089147Y-36437592D02*
G75*
G02*
X99768127Y-35807555I154508J475528D01*
G01*
G04 #@! TO.C,SW14*
X112094018Y-43177131D02*
X112724055Y-42856111D01*
X111012458Y-46505829D02*
X111333478Y-47135865D01*
X112724055Y-42856111D02*
X115577224Y-43783162D01*
X111333478Y-47135865D02*
X113711119Y-47908408D01*
X115577224Y-43783162D02*
X115898244Y-44413199D01*
X115589227Y-45364255D02*
X115898244Y-44413199D01*
X114674179Y-49798518D02*
X114457867Y-50464258D01*
X114457867Y-50464258D02*
X118737621Y-51854834D01*
X120190001Y-47384869D02*
X115910247Y-45994292D01*
X120004591Y-47955502D02*
X120190001Y-47384869D01*
X118737621Y-51854834D02*
X118892130Y-51379306D01*
X113711119Y-47908408D02*
G75*
G02*
X114674179Y-49798518I-463525J-1426585D01*
G01*
X115910247Y-45994292D02*
G75*
G02*
X115589227Y-45364255I154508J475528D01*
G01*
G04 #@! TO.C,SW18*
X127915218Y-52733831D02*
X128545255Y-52412811D01*
X126833658Y-56062529D02*
X127154678Y-56692565D01*
X128545255Y-52412811D02*
X131398424Y-53339862D01*
X127154678Y-56692565D02*
X129532319Y-57465108D01*
X131398424Y-53339862D02*
X131719444Y-53969899D01*
X131410427Y-54920955D02*
X131719444Y-53969899D01*
X130495379Y-59355218D02*
X130279067Y-60020958D01*
X130279067Y-60020958D02*
X134558821Y-61411534D01*
X136011201Y-56941569D02*
X131731447Y-55550992D01*
X135825791Y-57512202D02*
X136011201Y-56941569D01*
X134558821Y-61411534D02*
X134713330Y-60936006D01*
X129532319Y-57465108D02*
G75*
G02*
X130495379Y-59355218I-463525J-1426585D01*
G01*
X131731447Y-55550992D02*
G75*
G02*
X131410427Y-54920955I154508J475528D01*
G01*
G04 #@! TO.C,SW22*
X166529956Y-53969899D02*
X166850976Y-53339862D01*
X167611516Y-57298597D02*
X168241552Y-57619616D01*
X166850976Y-53339862D02*
X169704145Y-52412811D01*
X168241552Y-57619616D02*
X170619194Y-56847074D01*
X169704145Y-52412811D02*
X170334182Y-52733831D01*
X170643199Y-53684887D02*
X170334182Y-52733831D01*
X172509304Y-57810133D02*
X172725616Y-58475873D01*
X172725616Y-58475873D02*
X177005370Y-57085296D01*
X175552990Y-52615331D02*
X171273236Y-54005907D01*
X175738400Y-53185965D02*
X175552990Y-52615331D01*
X177005370Y-57085296D02*
X176850862Y-56609768D01*
X170619194Y-56847074D02*
G75*
G02*
X172509304Y-57810133I463525J-1426585D01*
G01*
X171273236Y-54005907D02*
G75*
G02*
X170643199Y-53684887I-154509J475528D01*
G01*
G04 #@! TO.C,SW26*
X182351056Y-44413199D02*
X182672076Y-43783162D01*
X183432616Y-47741897D02*
X184062652Y-48062916D01*
X182672076Y-43783162D02*
X185525245Y-42856111D01*
X184062652Y-48062916D02*
X186440294Y-47290374D01*
X185525245Y-42856111D02*
X186155282Y-43177131D01*
X186464299Y-44128187D02*
X186155282Y-43177131D01*
X188330404Y-48253433D02*
X188546716Y-48919173D01*
X188546716Y-48919173D02*
X192826470Y-47528596D01*
X191374090Y-43058631D02*
X187094336Y-44449207D01*
X191559500Y-43629265D02*
X191374090Y-43058631D01*
X192826470Y-47528596D02*
X192671962Y-47053068D01*
X186440294Y-47290374D02*
G75*
G02*
X188330404Y-48253433I463525J-1426585D01*
G01*
X187094336Y-44449207D02*
G75*
G02*
X186464299Y-44128187I-154509J475528D01*
G01*
G04 #@! TO.C,SW30*
X198172256Y-34856499D02*
X198493276Y-34226462D01*
X199253816Y-38185197D02*
X199883852Y-38506216D01*
X198493276Y-34226462D02*
X201346445Y-33299411D01*
X199883852Y-38506216D02*
X202261494Y-37733674D01*
X201346445Y-33299411D02*
X201976482Y-33620431D01*
X202285499Y-34571487D02*
X201976482Y-33620431D01*
X204151604Y-38696733D02*
X204367916Y-39362473D01*
X204367916Y-39362473D02*
X208647670Y-37971896D01*
X207195290Y-33501931D02*
X202915536Y-34892507D01*
X207380700Y-34072565D02*
X207195290Y-33501931D01*
X208647670Y-37971896D02*
X208493162Y-37496368D01*
X202261494Y-37733674D02*
G75*
G02*
X204151604Y-38696733I463525J-1426585D01*
G01*
X202915536Y-34892507D02*
G75*
G02*
X202285499Y-34571487I-154509J475528D01*
G01*
G04 #@! TO.C,SW34*
X216589156Y-33288599D02*
X216910176Y-32658562D01*
X217670716Y-36617297D02*
X218300752Y-36938316D01*
X216910176Y-32658562D02*
X219763345Y-31731511D01*
X218300752Y-36938316D02*
X220678394Y-36165774D01*
X219763345Y-31731511D02*
X220393382Y-32052531D01*
X220702399Y-33003587D02*
X220393382Y-32052531D01*
X222568504Y-37128833D02*
X222784816Y-37794573D01*
X222784816Y-37794573D02*
X227064570Y-36403996D01*
X225612190Y-31934031D02*
X221332436Y-33324607D01*
X225797600Y-32504665D02*
X225612190Y-31934031D01*
X227064570Y-36403996D02*
X226910062Y-35928468D01*
X220678394Y-36165774D02*
G75*
G02*
X222568504Y-37128833I463525J-1426585D01*
G01*
X221332436Y-33324607D02*
G75*
G02*
X220702399Y-33003587I-154509J475528D01*
G01*
G04 #@! TO.C,SW37*
X235005956Y-31720699D02*
X235326976Y-31090662D01*
X236087516Y-35049397D02*
X236717552Y-35370416D01*
X235326976Y-31090662D02*
X238180145Y-30163611D01*
X236717552Y-35370416D02*
X239095194Y-34597874D01*
X238180145Y-30163611D02*
X238810182Y-30484631D01*
X239119199Y-31435687D02*
X238810182Y-30484631D01*
X240985304Y-35560933D02*
X241201616Y-36226673D01*
X241201616Y-36226673D02*
X245481370Y-34836096D01*
X244028990Y-30366131D02*
X239749236Y-31756707D01*
X244214400Y-30936765D02*
X244028990Y-30366131D01*
X245481370Y-34836096D02*
X245326862Y-34360568D01*
X239095194Y-34597874D02*
G75*
G02*
X240985304Y-35560933I463525J-1426585D01*
G01*
X239749236Y-31756707D02*
G75*
G02*
X239119199Y-31435687I-154509J475528D01*
G01*
G04 #@! TO.C,SW40*
X253422856Y-30152799D02*
X253743876Y-29522762D01*
X254504416Y-33481497D02*
X255134452Y-33802516D01*
X253743876Y-29522762D02*
X256597045Y-28595711D01*
X255134452Y-33802516D02*
X257512094Y-33029974D01*
X256597045Y-28595711D02*
X257227082Y-28916731D01*
X257536099Y-29867787D02*
X257227082Y-28916731D01*
X259402204Y-33993033D02*
X259618516Y-34658773D01*
X259618516Y-34658773D02*
X263898270Y-33268196D01*
X262445890Y-28798231D02*
X258166136Y-30188807D01*
X262631300Y-29368865D02*
X262445890Y-28798231D01*
X263898270Y-33268196D02*
X263743762Y-32792668D01*
X257512094Y-33029974D02*
G75*
G02*
X259402204Y-33993033I463525J-1426585D01*
G01*
X258166136Y-30188807D02*
G75*
G02*
X257536099Y-29867787I-154509J475528D01*
G01*
D13*
G04 #@! TO.C,U1*
X158105500Y-29097800D02*
X140325500Y-29097800D01*
X140325500Y-29097800D02*
X140325500Y-62117800D01*
X140325500Y-62117800D02*
X158105500Y-62117800D01*
X158105500Y-62117800D02*
X158105500Y-29097800D01*
D11*
G04 #@! TO.C,D11*
X95873078Y-66494559D02*
X96880473Y-63394115D01*
X97489874Y-67019888D02*
X95873078Y-66494559D01*
X97489874Y-67019888D02*
X98497269Y-63919444D01*
G04 #@! TO.C,D39*
X242825826Y-80205488D02*
X241818431Y-77105044D01*
X244442622Y-79680159D02*
X242825826Y-80205488D01*
X244442622Y-79680159D02*
X243435227Y-76579715D01*
G04 #@! TO.C,D12*
X92236574Y-83187788D02*
X93243969Y-80087344D01*
X92236574Y-83187788D02*
X90619778Y-82662459D01*
X90619778Y-82662459D02*
X91627173Y-79562015D01*
G04 #@! TO.C,D10*
X102743074Y-50851888D02*
X103750469Y-47751444D01*
X102743074Y-50851888D02*
X101126278Y-50326559D01*
X101126278Y-50326559D02*
X102133673Y-47226115D01*
G04 #@! TO.C,D26*
X179664326Y-60562088D02*
X178656931Y-57461644D01*
X181281122Y-60036759D02*
X179664326Y-60562088D01*
X181281122Y-60036759D02*
X180273727Y-56936315D01*
G04 #@! TO.C,D24*
X174349726Y-102454688D02*
X173342331Y-99354244D01*
X175966522Y-101929359D02*
X174349726Y-102454688D01*
X175966522Y-101929359D02*
X174959127Y-98828915D01*
G04 #@! TO.C,D4*
X65909374Y-47716188D02*
X66916769Y-44615744D01*
X65909374Y-47716188D02*
X64292578Y-47190859D01*
X64292578Y-47190859D02*
X65299973Y-44090415D01*
G04 #@! TO.C,D25*
X175323226Y-120013188D02*
X174315831Y-116912744D01*
X176940022Y-119487859D02*
X175323226Y-120013188D01*
X176940022Y-119487859D02*
X175932627Y-116387415D01*
G04 #@! TO.C,D16*
X108057674Y-92744588D02*
X109065069Y-89644144D01*
X108057674Y-92744588D02*
X106440878Y-92219259D01*
X106440878Y-92219259D02*
X107448273Y-89118815D01*
G04 #@! TO.C,D17*
X102804374Y-108912488D02*
X103811769Y-105812044D01*
X102804374Y-108912488D02*
X101187578Y-108387159D01*
X101187578Y-108387159D02*
X102194973Y-105286715D01*
G04 #@! TO.C,D14*
X118564274Y-60408588D02*
X119571669Y-57308144D01*
X118564274Y-60408588D02*
X116947478Y-59883259D01*
X116947478Y-59883259D02*
X117954873Y-56782815D01*
G04 #@! TO.C,D32*
X205992026Y-83341188D02*
X204984631Y-80240744D01*
X207608822Y-82815859D02*
X205992026Y-83341188D01*
X207608822Y-82815859D02*
X206601427Y-79715415D01*
G04 #@! TO.C,D27*
X184917626Y-76729988D02*
X183910231Y-73629544D01*
X186534422Y-76204659D02*
X184917626Y-76729988D01*
X186534422Y-76204659D02*
X185527027Y-73104215D01*
G04 #@! TO.C,D38*
X237572526Y-64037488D02*
X236565131Y-60937044D01*
X239189322Y-63512159D02*
X237572526Y-64037488D01*
X239189322Y-63512159D02*
X238181927Y-60411715D01*
G04 #@! TO.C,D20*
X123878874Y-102301288D02*
X124886269Y-99200844D01*
X123878874Y-102301288D02*
X122262078Y-101775959D01*
X122262078Y-101775959D02*
X123269473Y-98675515D01*
G04 #@! TO.C,D21*
X122905274Y-119859788D02*
X123912669Y-116759344D01*
X122905274Y-119859788D02*
X121288478Y-119334459D01*
X121288478Y-119334459D02*
X122295873Y-116234015D01*
G04 #@! TO.C,D3*
X36985874Y-78484188D02*
X37993269Y-75383744D01*
X36985874Y-78484188D02*
X35369078Y-77958859D01*
X35369078Y-77958859D02*
X36376473Y-74858415D01*
G04 #@! TO.C,D37*
X232319226Y-47869588D02*
X231311831Y-44769144D01*
X233936022Y-47344259D02*
X232319226Y-47869588D01*
X233936022Y-47344259D02*
X232928627Y-44243815D01*
G04 #@! TO.C,D30*
X195485426Y-51005288D02*
X194478031Y-47904844D01*
X197102222Y-50479959D02*
X195485426Y-51005288D01*
X197102222Y-50479959D02*
X196094827Y-47379515D01*
G04 #@! TO.C,D9*
X73819674Y-81619988D02*
X74827069Y-78519544D01*
X73819674Y-81619988D02*
X72202878Y-81094659D01*
X72202878Y-81094659D02*
X73210273Y-77994215D01*
G04 #@! TO.C,D18*
X132768578Y-69440059D02*
X133775973Y-66339615D01*
X134385374Y-69965388D02*
X132768578Y-69440059D01*
X134385374Y-69965388D02*
X135392769Y-66864944D01*
G04 #@! TO.C,D2*
X42239174Y-62316288D02*
X43246569Y-59215844D01*
X42239174Y-62316288D02*
X40622378Y-61790959D01*
X40622378Y-61790959D02*
X41629773Y-58690515D01*
G04 #@! TO.C,D34*
X213902326Y-49437388D02*
X212894931Y-46336944D01*
X215519122Y-48912059D02*
X213902326Y-49437388D01*
X215519122Y-48912059D02*
X214511727Y-45811615D01*
G04 #@! TO.C,D42*
X261242726Y-78637588D02*
X260235331Y-75537144D01*
X262859522Y-78112259D02*
X261242726Y-78637588D01*
X262859522Y-78112259D02*
X261852127Y-75011815D01*
G04 #@! TO.C,D31*
X200738726Y-67173288D02*
X199731331Y-64072844D01*
X202355522Y-66647959D02*
X200738726Y-67173288D01*
X202355522Y-66647959D02*
X201348127Y-63547515D01*
G04 #@! TO.C,D13*
X86983274Y-99355788D02*
X87990669Y-96255344D01*
X86983274Y-99355788D02*
X85366478Y-98830459D01*
X85366478Y-98830459D02*
X86373873Y-95730015D01*
G04 #@! TO.C,D40*
X250736126Y-46301688D02*
X249728731Y-43201244D01*
X252352922Y-45776359D02*
X250736126Y-46301688D01*
X252352922Y-45776359D02*
X251345527Y-42675915D01*
G04 #@! TO.C,D41*
X255989426Y-62469688D02*
X254982031Y-59369244D01*
X257606222Y-61944359D02*
X255989426Y-62469688D01*
X257606222Y-61944359D02*
X256598827Y-58843915D01*
G04 #@! TO.C,D6*
X55402774Y-80052088D02*
X56410169Y-76951644D01*
X55402774Y-80052088D02*
X53785978Y-79526759D01*
X53785978Y-79526759D02*
X54793373Y-76426315D01*
G04 #@! TO.C,D29*
X195424126Y-109065888D02*
X194416731Y-105965444D01*
X197040922Y-108540559D02*
X195424126Y-109065888D01*
X197040922Y-108540559D02*
X196033527Y-105440115D01*
G04 #@! TO.C,D22*
X163843126Y-70118788D02*
X162835731Y-67018344D01*
X165459922Y-69593459D02*
X163843126Y-70118788D01*
X165459922Y-69593459D02*
X164452527Y-66493015D01*
G04 #@! TO.C,D33*
X211245326Y-99509188D02*
X210237931Y-96408744D01*
X212862122Y-98983859D02*
X211245326Y-99509188D01*
X212862122Y-98983859D02*
X211854727Y-95883415D01*
G04 #@! TO.C,D15*
X113310974Y-76576588D02*
X114318369Y-73476144D01*
X113310974Y-76576588D02*
X111694178Y-76051259D01*
X111694178Y-76051259D02*
X112701573Y-72950815D01*
G04 #@! TO.C,D28*
X190170826Y-92897988D02*
X189163431Y-89797544D01*
X191787622Y-92372659D02*
X190170826Y-92897988D01*
X191787622Y-92372659D02*
X190780227Y-89272215D01*
G04 #@! TO.C,D36*
X224408926Y-81773388D02*
X223401531Y-78672944D01*
X226025722Y-81248059D02*
X224408926Y-81773388D01*
X226025722Y-81248059D02*
X225018327Y-78147615D01*
G04 #@! TO.C,D23*
X169096426Y-86286788D02*
X168089031Y-83186344D01*
X170713222Y-85761459D02*
X169096426Y-86286788D01*
X170713222Y-85761459D02*
X169705827Y-82661015D01*
G04 #@! TO.C,D1*
X45875178Y-45622859D02*
X46882573Y-42522415D01*
X47491974Y-46148188D02*
X45875178Y-45622859D01*
X47491974Y-46148188D02*
X48499369Y-43047744D01*
G04 #@! TO.C,D35*
X219155626Y-65605388D02*
X218148231Y-62504944D01*
X220772422Y-65080059D02*
X219155626Y-65605388D01*
X220772422Y-65080059D02*
X219765027Y-61979615D01*
G04 #@! TO.C,D5*
X60655074Y-63883788D02*
X61662469Y-60783344D01*
X60655074Y-63883788D02*
X59038278Y-63358459D01*
X59038278Y-63358459D02*
X60045673Y-60258015D01*
G04 #@! TO.C,D7*
X84326274Y-49283988D02*
X85333669Y-46183544D01*
X84326274Y-49283988D02*
X82709478Y-48758659D01*
X82709478Y-48758659D02*
X83716873Y-45658215D01*
G04 #@! TO.C,D19*
X129132074Y-86133388D02*
X130139469Y-83032944D01*
X129132074Y-86133388D02*
X127515278Y-85608059D01*
X127515278Y-85608059D02*
X128522673Y-82507615D01*
G04 #@! TO.C,D8*
X79072974Y-65451988D02*
X80080369Y-62351544D01*
X79072974Y-65451988D02*
X77456178Y-64926659D01*
X77456178Y-64926659D02*
X78463573Y-61826215D01*
G04 #@! TD*
D14*
G04 #@! TO.C,U1*
X149215500Y-55767800D03*
X146675500Y-55767800D03*
X144135500Y-55767800D03*
X141595500Y-30367800D03*
X156835500Y-30367800D03*
X156835500Y-32907800D03*
X141595500Y-60847800D03*
X156835500Y-35447800D03*
X156835500Y-37987800D03*
X156835500Y-40527800D03*
X156835500Y-43067800D03*
X156835500Y-45607800D03*
X156835500Y-48147800D03*
X156835500Y-50687800D03*
X156835500Y-53227800D03*
X156835500Y-55767800D03*
X156835500Y-58307800D03*
X156835500Y-60847800D03*
X141595500Y-58307800D03*
X141595500Y-55767800D03*
X141595500Y-53227800D03*
X141595500Y-50687800D03*
X141595500Y-48147800D03*
X141595500Y-45607800D03*
X141595500Y-43067800D03*
X141595500Y-40527800D03*
X141595500Y-37987800D03*
X141595500Y-35447800D03*
X141595500Y-32907800D03*
G04 #@! TD*
%LPC*%
D12*
G04 #@! TO.C,BATT1*
X150215500Y-34676358D02*
X148215500Y-34676358D01*
X148215500Y-33276358D01*
X150215500Y-33276358D01*
X150215500Y-34676358D01*
G36*
X150215500Y-34676358D02*
G01*
X148215500Y-34676358D01*
X148215500Y-33276358D01*
X150215500Y-33276358D01*
X150215500Y-34676358D01*
G37*
X150215500Y-32477800D02*
X148215500Y-32477800D01*
X148215500Y-31077800D01*
X150215500Y-31077800D01*
X150215500Y-32477800D01*
G36*
X150215500Y-32477800D02*
G01*
X148215500Y-32477800D01*
X148215500Y-31077800D01*
X150215500Y-31077800D01*
X150215500Y-32477800D01*
G37*
G04 #@! TD*
D15*
G04 #@! TO.C,SW_PWR1*
X159915500Y-31657800D03*
X159915500Y-29447800D03*
D16*
X162065500Y-30547800D03*
X165065500Y-30547800D03*
D15*
X167215500Y-31657800D03*
X167215500Y-29447800D03*
D17*
X161315500Y-32307800D03*
X164315500Y-32307800D03*
X165815500Y-32307800D03*
G04 #@! TD*
D18*
G04 #@! TO.C,SW13*
X74804889Y-88365807D03*
D19*
X81874351Y-84406614D03*
D20*
X80035700Y-90065400D03*
D19*
X85949796Y-88044023D03*
D18*
X85266511Y-91764993D03*
D21*
X78759641Y-83394583D03*
D22*
X78212500Y-95676633D03*
X74106153Y-92134330D03*
D21*
X89064506Y-89056054D03*
G04 #@! TD*
D18*
G04 #@! TO.C,SW17*
X90626089Y-97922607D03*
D19*
X97695551Y-93963414D03*
D20*
X95856900Y-99622200D03*
D19*
X101770996Y-97600823D03*
D18*
X101087711Y-101321793D03*
D21*
X94580841Y-92951383D03*
D22*
X94033700Y-105233433D03*
X89927353Y-101691130D03*
D21*
X104885706Y-98612854D03*
G04 #@! TD*
D18*
G04 #@! TO.C,SW21*
X110726989Y-108869907D03*
D19*
X117796451Y-104910714D03*
D20*
X115957800Y-110569500D03*
D19*
X121871896Y-108548123D03*
D18*
X121188611Y-112269093D03*
D21*
X114681741Y-103898683D03*
D22*
X114134600Y-116180733D03*
X110028253Y-112638430D03*
D21*
X124986606Y-109560154D03*
G04 #@! TD*
D18*
G04 #@! TO.C,SW25*
X177060789Y-112269093D03*
D19*
X180452949Y-104910714D03*
D20*
X182291600Y-110569500D03*
D19*
X185888069Y-105457953D03*
D18*
X187522411Y-108869907D03*
D23*
X177338239Y-105922744D03*
D22*
X184114800Y-116180733D03*
X178710582Y-115728600D03*
D23*
X189002779Y-104445922D03*
G04 #@! TD*
D18*
G04 #@! TO.C,SW29*
X197161689Y-101321793D03*
D19*
X200553849Y-93963414D03*
D20*
X202392500Y-99622200D03*
D19*
X205988969Y-94510653D03*
D18*
X207623311Y-97922607D03*
D23*
X197439139Y-94975444D03*
D22*
X204215700Y-105233433D03*
X198811482Y-104781300D03*
D23*
X209103679Y-93498622D03*
G04 #@! TD*
G04 #@! TO.C,SW33*
X224924779Y-83941822D03*
D22*
X214632582Y-95224500D03*
X220036800Y-95676633D03*
D23*
X213260239Y-85418644D03*
D18*
X223444411Y-88365807D03*
D19*
X221810069Y-84953853D03*
D20*
X218213600Y-90065400D03*
D19*
X216374949Y-84406614D03*
D18*
X212982789Y-91764993D03*
G04 #@! TD*
G04 #@! TO.C,SW3*
X24807489Y-67494307D03*
D19*
X31876951Y-63535114D03*
D20*
X30038300Y-69193900D03*
D19*
X35952396Y-67172523D03*
D18*
X35269111Y-70893493D03*
D21*
X28762241Y-62523083D03*
D22*
X28215100Y-74805133D03*
X24108753Y-71262830D03*
D21*
X39067106Y-68184554D03*
G04 #@! TD*
D18*
G04 #@! TO.C,SW6*
X43224389Y-69062107D03*
D19*
X50293851Y-65102914D03*
D20*
X48455200Y-70761700D03*
D19*
X54369296Y-68740323D03*
D18*
X53686011Y-72461293D03*
D21*
X47179141Y-64090883D03*
D22*
X46632000Y-76372933D03*
X42525653Y-72830630D03*
D21*
X57484006Y-69752354D03*
G04 #@! TD*
D18*
G04 #@! TO.C,SW9*
X61641289Y-70630007D03*
D19*
X68710751Y-66670814D03*
D20*
X66872100Y-72329600D03*
D19*
X72786196Y-70308223D03*
D18*
X72102911Y-74029193D03*
D21*
X65596041Y-65658783D03*
D22*
X65048900Y-77940833D03*
X60942553Y-74398530D03*
D21*
X75900906Y-71320254D03*
G04 #@! TD*
D18*
G04 #@! TO.C,SW12*
X80058189Y-72197907D03*
D19*
X87127651Y-68238714D03*
D20*
X85289000Y-73897500D03*
D19*
X91203096Y-71876123D03*
D18*
X90519811Y-75597093D03*
D21*
X84012941Y-67226683D03*
D22*
X83465800Y-79508733D03*
X79359453Y-75966430D03*
D21*
X94317806Y-72888154D03*
G04 #@! TD*
D18*
G04 #@! TO.C,SW16*
X95879289Y-81754607D03*
D19*
X102948751Y-77795414D03*
D20*
X101110100Y-83454200D03*
D19*
X107024196Y-81432823D03*
D18*
X106340911Y-85153793D03*
D21*
X99834041Y-76783383D03*
D22*
X99286900Y-89065433D03*
X95180553Y-85523130D03*
D21*
X110138906Y-82444854D03*
G04 #@! TD*
D18*
G04 #@! TO.C,SW20*
X111700489Y-91311407D03*
D19*
X118769951Y-87352214D03*
D20*
X116931300Y-93011000D03*
D19*
X122845396Y-90989623D03*
D18*
X122162111Y-94710593D03*
D21*
X115655241Y-86340183D03*
D22*
X115108100Y-98622233D03*
X111001753Y-95079930D03*
D21*
X125960106Y-92001654D03*
G04 #@! TD*
D18*
G04 #@! TO.C,SW24*
X176087289Y-94710593D03*
D19*
X179479449Y-87352214D03*
D20*
X181318100Y-93011000D03*
D19*
X184914569Y-87899453D03*
D18*
X186548911Y-91311407D03*
D23*
X176364739Y-88364244D03*
D22*
X183141300Y-98622233D03*
X177737082Y-98170100D03*
D23*
X188029279Y-86887422D03*
G04 #@! TD*
D18*
G04 #@! TO.C,SW28*
X191908389Y-85153793D03*
D19*
X195300549Y-77795414D03*
D20*
X197139200Y-83454200D03*
D19*
X200735669Y-78342653D03*
D18*
X202370011Y-81754607D03*
D23*
X192185839Y-78807444D03*
D22*
X198962400Y-89065433D03*
X193558182Y-88613300D03*
D23*
X203850379Y-77330622D03*
G04 #@! TD*
D18*
G04 #@! TO.C,SW32*
X207729489Y-75597093D03*
D19*
X211121649Y-68238714D03*
D20*
X212960300Y-73897500D03*
D19*
X216556769Y-68785953D03*
D18*
X218191111Y-72197907D03*
D23*
X208006939Y-69250744D03*
D22*
X214783500Y-79508733D03*
X209379282Y-79056600D03*
D23*
X219671479Y-67773922D03*
G04 #@! TD*
D18*
G04 #@! TO.C,SW36*
X226146389Y-74029193D03*
D19*
X229538549Y-66670814D03*
D20*
X231377200Y-72329600D03*
D19*
X234973669Y-67218053D03*
D18*
X236608011Y-70630007D03*
D23*
X226423839Y-67682844D03*
D22*
X233200400Y-77940833D03*
X227796182Y-77488700D03*
D23*
X238088379Y-66206022D03*
G04 #@! TD*
D18*
G04 #@! TO.C,SW39*
X244563289Y-72461293D03*
D19*
X247955449Y-65102914D03*
D20*
X249794100Y-70761700D03*
D19*
X253390569Y-65650153D03*
D18*
X255024911Y-69062107D03*
D23*
X244840739Y-66114944D03*
D22*
X251617300Y-76372933D03*
X246213082Y-75920800D03*
D23*
X256505279Y-64638122D03*
G04 #@! TD*
D18*
G04 #@! TO.C,SW42*
X262980189Y-70893493D03*
D19*
X266372349Y-63535114D03*
D20*
X268211000Y-69193900D03*
D19*
X271807469Y-64082353D03*
D18*
X273441811Y-67494307D03*
D23*
X263257639Y-64547144D03*
D22*
X270034200Y-74805133D03*
X264629982Y-74353000D03*
D23*
X274922179Y-63070322D03*
G04 #@! TD*
D18*
G04 #@! TO.C,SW2*
X30060789Y-51326307D03*
D19*
X37130251Y-47367114D03*
D20*
X35291600Y-53025900D03*
D19*
X41205696Y-51004523D03*
D18*
X40522411Y-54725493D03*
D21*
X34015541Y-46355083D03*
D22*
X33468400Y-58637133D03*
X29362053Y-55094830D03*
D21*
X44320406Y-52016554D03*
G04 #@! TD*
D18*
G04 #@! TO.C,SW5*
X48477689Y-52894207D03*
D19*
X55547151Y-48935014D03*
D20*
X53708500Y-54593800D03*
D19*
X59622596Y-52572423D03*
D18*
X58939311Y-56293393D03*
D21*
X52432441Y-47922983D03*
D22*
X51885300Y-60205033D03*
X47778953Y-56662730D03*
D21*
X62737306Y-53584454D03*
G04 #@! TD*
D18*
G04 #@! TO.C,SW8*
X66894589Y-54462007D03*
D19*
X73964051Y-50502814D03*
D20*
X72125400Y-56161600D03*
D19*
X78039496Y-54140223D03*
D18*
X77356211Y-57861193D03*
D21*
X70849341Y-49490783D03*
D22*
X70302200Y-61772833D03*
X66195853Y-58230530D03*
D21*
X81154206Y-55152254D03*
G04 #@! TD*
D18*
G04 #@! TO.C,SW11*
X85311489Y-56029907D03*
D19*
X92380951Y-52070714D03*
D20*
X90542300Y-57729500D03*
D19*
X96456396Y-55708123D03*
D18*
X95773111Y-59429093D03*
D21*
X89266241Y-51058683D03*
D22*
X88719100Y-63340733D03*
X84612753Y-59798430D03*
D21*
X99571106Y-56720154D03*
G04 #@! TD*
D18*
G04 #@! TO.C,SW15*
X101132589Y-65586707D03*
D19*
X108202051Y-61627514D03*
D20*
X106363400Y-67286300D03*
D19*
X112277496Y-65264923D03*
D18*
X111594211Y-68985893D03*
D21*
X105087341Y-60615483D03*
D22*
X104540200Y-72897533D03*
X100433853Y-69355230D03*
D21*
X115392206Y-66276954D03*
G04 #@! TD*
D18*
G04 #@! TO.C,SW19*
X116953789Y-75143407D03*
D19*
X124023251Y-71184214D03*
D20*
X122184600Y-76843000D03*
D19*
X128098696Y-74821623D03*
D18*
X127415411Y-78542593D03*
D21*
X120908541Y-70172183D03*
D22*
X120361400Y-82454233D03*
X116255053Y-78911930D03*
D21*
X131213406Y-75833654D03*
G04 #@! TD*
D18*
G04 #@! TO.C,SW23*
X170833989Y-78542593D03*
D19*
X174226149Y-71184214D03*
D20*
X176064800Y-76843000D03*
D19*
X179661269Y-71731453D03*
D18*
X181295611Y-75143407D03*
D23*
X171111439Y-72196244D03*
D22*
X177888000Y-82454233D03*
X172483782Y-82002100D03*
D23*
X182775979Y-70719422D03*
G04 #@! TD*
D18*
G04 #@! TO.C,SW27*
X186655089Y-68985893D03*
D19*
X190047249Y-61627514D03*
D20*
X191885900Y-67286300D03*
D19*
X195482369Y-62174753D03*
D18*
X197116711Y-65586707D03*
D23*
X186932539Y-62639544D03*
D22*
X193709100Y-72897533D03*
X188304882Y-72445400D03*
D23*
X198597079Y-61162722D03*
G04 #@! TD*
D18*
G04 #@! TO.C,SW31*
X202476289Y-59429093D03*
D19*
X205868449Y-52070714D03*
D20*
X207707100Y-57729500D03*
D19*
X211303569Y-52617953D03*
D18*
X212937911Y-56029907D03*
D23*
X202753739Y-53082744D03*
D22*
X209530300Y-63340733D03*
X204126082Y-62888600D03*
D23*
X214418279Y-51605922D03*
G04 #@! TD*
D18*
G04 #@! TO.C,SW35*
X220893089Y-57861193D03*
D19*
X224285249Y-50502814D03*
D20*
X226123900Y-56161600D03*
D19*
X229720369Y-51050053D03*
D18*
X231354711Y-54462007D03*
D23*
X221170539Y-51514844D03*
D22*
X227947100Y-61772833D03*
X222542882Y-61320700D03*
D23*
X232835079Y-50038022D03*
G04 #@! TD*
D18*
G04 #@! TO.C,SW38*
X239309989Y-56293393D03*
D19*
X242702149Y-48935014D03*
D20*
X244540800Y-54593800D03*
D19*
X248137269Y-49482253D03*
D18*
X249771611Y-52894207D03*
D23*
X239587439Y-49947044D03*
D22*
X246364000Y-60205033D03*
X240959782Y-59752900D03*
D23*
X251251979Y-48470222D03*
G04 #@! TD*
D18*
G04 #@! TO.C,SW41*
X257726889Y-54725493D03*
D19*
X261119049Y-47367114D03*
D20*
X262957700Y-53025900D03*
D19*
X266554169Y-47914353D03*
D18*
X268188511Y-51326307D03*
D23*
X258004339Y-48379144D03*
D22*
X264780900Y-58637133D03*
X259376682Y-58185000D03*
D23*
X269668879Y-46902322D03*
G04 #@! TD*
D21*
G04 #@! TO.C,SW1*
X49573706Y-35848554D03*
D22*
X34615353Y-38926830D03*
X38721700Y-42469133D03*
D21*
X39268841Y-30187083D03*
D18*
X45775711Y-38557493D03*
D19*
X46458996Y-34836523D03*
D20*
X40544900Y-36857900D03*
D19*
X42383551Y-31199114D03*
D18*
X35314089Y-35158307D03*
G04 #@! TD*
G04 #@! TO.C,SW4*
X53730989Y-36726207D03*
D19*
X60800451Y-32767014D03*
D20*
X58961800Y-38425800D03*
D19*
X64875896Y-36404423D03*
D18*
X64192611Y-40125393D03*
D21*
X57685741Y-31754983D03*
D22*
X57138600Y-44037033D03*
X53032253Y-40494730D03*
D21*
X67990606Y-37416454D03*
G04 #@! TD*
D18*
G04 #@! TO.C,SW7*
X72147889Y-38294107D03*
D19*
X79217351Y-34334914D03*
D20*
X77378700Y-39993700D03*
D19*
X83292796Y-37972323D03*
D18*
X82609511Y-41693293D03*
D21*
X76102641Y-33322883D03*
D22*
X75555500Y-45604933D03*
X71449153Y-42062630D03*
D21*
X86407506Y-38984354D03*
G04 #@! TD*
D18*
G04 #@! TO.C,SW10*
X90564789Y-39862007D03*
D19*
X97634251Y-35902814D03*
D20*
X95795600Y-41561600D03*
D19*
X101709696Y-39540223D03*
D18*
X101026411Y-43261193D03*
D21*
X94519541Y-34890783D03*
D22*
X93972400Y-47172833D03*
X89866053Y-43630530D03*
D21*
X104824406Y-40552254D03*
G04 #@! TD*
D18*
G04 #@! TO.C,SW14*
X106385889Y-49418707D03*
D19*
X113455351Y-45459514D03*
D20*
X111616700Y-51118300D03*
D19*
X117530796Y-49096923D03*
D18*
X116847511Y-52817893D03*
D21*
X110340641Y-44447483D03*
D22*
X109793500Y-56729533D03*
X105687153Y-53187230D03*
D21*
X120645506Y-50108954D03*
G04 #@! TD*
D18*
G04 #@! TO.C,SW18*
X122207089Y-58975407D03*
D19*
X129276551Y-55016214D03*
D20*
X127437900Y-60675000D03*
D19*
X133351996Y-58653623D03*
D18*
X132668711Y-62374593D03*
D21*
X126161841Y-54004183D03*
D22*
X125614700Y-66286233D03*
X121508353Y-62743930D03*
D21*
X136466706Y-59665654D03*
G04 #@! TD*
D18*
G04 #@! TO.C,SW22*
X165580689Y-62374593D03*
D19*
X168972849Y-55016214D03*
D20*
X170811500Y-60675000D03*
D19*
X174407969Y-55563453D03*
D18*
X176042311Y-58975407D03*
D23*
X165858139Y-56028244D03*
D22*
X172634700Y-66286233D03*
X167230482Y-65834100D03*
D23*
X177522679Y-54551422D03*
G04 #@! TD*
D18*
G04 #@! TO.C,SW26*
X181401789Y-52817893D03*
D19*
X184793949Y-45459514D03*
D20*
X186632600Y-51118300D03*
D19*
X190229069Y-46006753D03*
D18*
X191863411Y-49418707D03*
D23*
X181679239Y-46471544D03*
D22*
X188455800Y-56729533D03*
X183051582Y-56277400D03*
D23*
X193343779Y-44994722D03*
G04 #@! TD*
D18*
G04 #@! TO.C,SW30*
X197222989Y-43261193D03*
D19*
X200615149Y-35902814D03*
D20*
X202453800Y-41561600D03*
D19*
X206050269Y-36450053D03*
D18*
X207684611Y-39862007D03*
D23*
X197500439Y-36914844D03*
D22*
X204277000Y-47172833D03*
X198872782Y-46720700D03*
D23*
X209164979Y-35438022D03*
G04 #@! TD*
D18*
G04 #@! TO.C,SW34*
X215639889Y-41693293D03*
D19*
X219032049Y-34334914D03*
D20*
X220870700Y-39993700D03*
D19*
X224467169Y-34882153D03*
D18*
X226101511Y-38294107D03*
D23*
X215917339Y-35346944D03*
D22*
X222693900Y-45604933D03*
X217289682Y-45152800D03*
D23*
X227581879Y-33870122D03*
G04 #@! TD*
D18*
G04 #@! TO.C,SW37*
X234056689Y-40125393D03*
D19*
X237448849Y-32767014D03*
D20*
X239287500Y-38425800D03*
D19*
X242883969Y-33314253D03*
D18*
X244518311Y-36726207D03*
D23*
X234334139Y-33779044D03*
D22*
X241110700Y-44037033D03*
X235706482Y-43584900D03*
D23*
X245998679Y-32302222D03*
G04 #@! TD*
D18*
G04 #@! TO.C,SW40*
X252473589Y-38557493D03*
D19*
X255865749Y-31199114D03*
D20*
X257704400Y-36857900D03*
D19*
X261300869Y-31746353D03*
D18*
X262935211Y-35158307D03*
D23*
X252751039Y-32211144D03*
D22*
X259527600Y-42469133D03*
X254123382Y-42017000D03*
D23*
X264415579Y-30734322D03*
G04 #@! TD*
D14*
G04 #@! TO.C,U1*
X149215500Y-55767800D03*
X146675500Y-55767800D03*
X144135500Y-55767800D03*
X141595500Y-30367800D03*
X156835500Y-30367800D03*
X156835500Y-32907800D03*
X141595500Y-60847800D03*
X156835500Y-35447800D03*
X156835500Y-37987800D03*
X156835500Y-40527800D03*
X156835500Y-43067800D03*
X156835500Y-45607800D03*
X156835500Y-48147800D03*
X156835500Y-50687800D03*
X156835500Y-53227800D03*
X156835500Y-55767800D03*
X156835500Y-58307800D03*
X156835500Y-60847800D03*
X141595500Y-58307800D03*
X141595500Y-55767800D03*
X141595500Y-53227800D03*
X141595500Y-50687800D03*
X141595500Y-48147800D03*
X141595500Y-45607800D03*
X141595500Y-43067800D03*
X141595500Y-40527800D03*
X141595500Y-37987800D03*
X141595500Y-35447800D03*
X141595500Y-32907800D03*
G04 #@! TD*
D24*
G04 #@! TO.C,D11*
X96916329Y-66034421D03*
X97688871Y-63656779D03*
G04 #@! TD*
D25*
G04 #@! TO.C,D39*
X243399371Y-79220021D03*
X242626829Y-76842379D03*
G04 #@! TD*
D24*
G04 #@! TO.C,D12*
X92435571Y-79824679D03*
X91663029Y-82202321D03*
G04 #@! TD*
G04 #@! TO.C,D10*
X102942071Y-47488779D03*
X102169529Y-49866421D03*
G04 #@! TD*
D25*
G04 #@! TO.C,D26*
X180237871Y-59576621D03*
X179465329Y-57198979D03*
G04 #@! TD*
G04 #@! TO.C,D24*
X174923271Y-101469221D03*
X174150729Y-99091579D03*
G04 #@! TD*
D24*
G04 #@! TO.C,D4*
X66108371Y-44353079D03*
X65335829Y-46730721D03*
G04 #@! TD*
D25*
G04 #@! TO.C,D25*
X175896771Y-119027721D03*
X175124229Y-116650079D03*
G04 #@! TD*
D24*
G04 #@! TO.C,D16*
X108256671Y-89381479D03*
X107484129Y-91759121D03*
G04 #@! TD*
G04 #@! TO.C,D17*
X103003371Y-105549379D03*
X102230829Y-107927021D03*
G04 #@! TD*
G04 #@! TO.C,D14*
X118763271Y-57045479D03*
X117990729Y-59423121D03*
G04 #@! TD*
D25*
G04 #@! TO.C,D32*
X206565571Y-82355721D03*
X205793029Y-79978079D03*
G04 #@! TD*
G04 #@! TO.C,D27*
X185491171Y-75744521D03*
X184718629Y-73366879D03*
G04 #@! TD*
G04 #@! TO.C,D38*
X238146071Y-63052021D03*
X237373529Y-60674379D03*
G04 #@! TD*
D24*
G04 #@! TO.C,D20*
X124077871Y-98938179D03*
X123305329Y-101315821D03*
G04 #@! TD*
G04 #@! TO.C,D21*
X123104271Y-116496679D03*
X122331729Y-118874321D03*
G04 #@! TD*
G04 #@! TO.C,D3*
X37184871Y-75121079D03*
X36412329Y-77498721D03*
G04 #@! TD*
D25*
G04 #@! TO.C,D37*
X232892771Y-46884121D03*
X232120229Y-44506479D03*
G04 #@! TD*
G04 #@! TO.C,D30*
X196058971Y-50019821D03*
X195286429Y-47642179D03*
G04 #@! TD*
D24*
G04 #@! TO.C,D9*
X74018671Y-78256879D03*
X73246129Y-80634521D03*
G04 #@! TD*
G04 #@! TO.C,D18*
X133811829Y-68979921D03*
X134584371Y-66602279D03*
G04 #@! TD*
G04 #@! TO.C,D2*
X42438171Y-58953179D03*
X41665629Y-61330821D03*
G04 #@! TD*
D25*
G04 #@! TO.C,D34*
X214475871Y-48451921D03*
X213703329Y-46074279D03*
G04 #@! TD*
G04 #@! TO.C,D42*
X261816271Y-77652121D03*
X261043729Y-75274479D03*
G04 #@! TD*
G04 #@! TO.C,D31*
X201312271Y-66187821D03*
X200539729Y-63810179D03*
G04 #@! TD*
D24*
G04 #@! TO.C,D13*
X87182271Y-95992679D03*
X86409729Y-98370321D03*
G04 #@! TD*
D25*
G04 #@! TO.C,D40*
X251309671Y-45316221D03*
X250537129Y-42938579D03*
G04 #@! TD*
G04 #@! TO.C,D41*
X256562971Y-61484221D03*
X255790429Y-59106579D03*
G04 #@! TD*
D24*
G04 #@! TO.C,D6*
X55601771Y-76688979D03*
X54829229Y-79066621D03*
G04 #@! TD*
D25*
G04 #@! TO.C,D29*
X195997671Y-108080421D03*
X195225129Y-105702779D03*
G04 #@! TD*
G04 #@! TO.C,D22*
X164416671Y-69133321D03*
X163644129Y-66755679D03*
G04 #@! TD*
G04 #@! TO.C,D33*
X211818871Y-98523721D03*
X211046329Y-96146079D03*
G04 #@! TD*
D24*
G04 #@! TO.C,D15*
X113509971Y-73213479D03*
X112737429Y-75591121D03*
G04 #@! TD*
D25*
G04 #@! TO.C,D28*
X190744371Y-91912521D03*
X189971829Y-89534879D03*
G04 #@! TD*
G04 #@! TO.C,D36*
X224982471Y-80787921D03*
X224209929Y-78410279D03*
G04 #@! TD*
G04 #@! TO.C,D23*
X169669971Y-85301321D03*
X168897429Y-82923679D03*
G04 #@! TD*
D24*
G04 #@! TO.C,D1*
X46918429Y-45162721D03*
X47690971Y-42785079D03*
G04 #@! TD*
D25*
G04 #@! TO.C,D35*
X219729171Y-64619921D03*
X218956629Y-62242279D03*
G04 #@! TD*
D24*
G04 #@! TO.C,D5*
X60854071Y-60520679D03*
X60081529Y-62898321D03*
G04 #@! TD*
G04 #@! TO.C,D7*
X84525271Y-45920879D03*
X83752729Y-48298521D03*
G04 #@! TD*
G04 #@! TO.C,D19*
X129331071Y-82770279D03*
X128558529Y-85147921D03*
G04 #@! TD*
G04 #@! TO.C,D8*
X79271971Y-62088879D03*
X78499429Y-64466521D03*
G04 #@! TD*
%LPD*%
M02*
