G04 #@! TF.GenerationSoftware,KiCad,Pcbnew,8.0.4*
G04 #@! TF.CreationDate,2024-08-25T14:32:18+07:00*
G04 #@! TF.ProjectId,ozprey,6f7a7072-6579-42e6-9b69-6361645f7063,1.0*
G04 #@! TF.SameCoordinates,Original*
G04 #@! TF.FileFunction,Paste,Bot*
G04 #@! TF.FilePolarity,Positive*
%FSLAX46Y46*%
G04 Gerber Fmt 4.6, Leading zero omitted, Abs format (unit mm)*
G04 Created by KiCad (PCBNEW 8.0.4) date 2024-08-25 14:32:18*
%MOMM*%
%LPD*%
G01*
G04 APERTURE LIST*
G04 Aperture macros list*
%AMRoundRect*
0 Rectangle with rounded corners*
0 $1 Rounding radius*
0 $2 $3 $4 $5 $6 $7 $8 $9 X,Y pos of 4 corners*
0 Add a 4 corners polygon primitive as box body*
4,1,4,$2,$3,$4,$5,$6,$7,$8,$9,$2,$3,0*
0 Add four circle primitives for the rounded corners*
1,1,$1+$1,$2,$3*
1,1,$1+$1,$4,$5*
1,1,$1+$1,$6,$7*
1,1,$1+$1,$8,$9*
0 Add four rect primitives between the rounded corners*
20,1,$1+$1,$2,$3,$4,$5,0*
20,1,$1+$1,$4,$5,$6,$7,0*
20,1,$1+$1,$6,$7,$8,$9,0*
20,1,$1+$1,$8,$9,$2,$3,0*%
%AMRotRect*
0 Rectangle, with rotation*
0 The origin of the aperture is its center*
0 $1 length*
0 $2 width*
0 $3 Rotation angle, in degrees counterclockwise*
0 Add horizontal line*
21,1,$1,$2,0,0,$3*%
G04 Aperture macros list end*
%ADD10R,1.000000X0.800000*%
%ADD11R,0.700000X1.500000*%
%ADD12RotRect,2.600000X2.600000X342.000000*%
%ADD13RotRect,2.600000X2.600000X18.000000*%
%ADD14RoundRect,0.250000X0.160510X-0.315018X0.315018X0.160510X-0.160510X0.315018X-0.315018X-0.160510X0*%
%ADD15RoundRect,0.250000X0.315018X-0.160510X0.160510X0.315018X-0.315018X0.160510X-0.160510X-0.315018X0*%
G04 APERTURE END LIST*
D10*
G04 #@! TO.C,SW_PWR1*
X159915500Y-31657800D03*
X159915500Y-29447800D03*
X167215500Y-31657800D03*
X167215500Y-29447800D03*
D11*
X161315500Y-32307800D03*
X164315500Y-32307800D03*
X165815500Y-32307800D03*
G04 #@! TD*
D12*
G04 #@! TO.C,SW13*
X78759641Y-83394583D03*
X89064506Y-89056054D03*
G04 #@! TD*
G04 #@! TO.C,SW17*
X94580841Y-92951383D03*
X104885706Y-98612854D03*
G04 #@! TD*
G04 #@! TO.C,SW21*
X114681741Y-103898683D03*
X124986606Y-109560154D03*
G04 #@! TD*
D13*
G04 #@! TO.C,SW25*
X177338239Y-105922744D03*
X189002779Y-104445922D03*
G04 #@! TD*
G04 #@! TO.C,SW29*
X197439139Y-94975444D03*
X209103679Y-93498622D03*
G04 #@! TD*
G04 #@! TO.C,SW33*
X224924779Y-83941822D03*
X213260239Y-85418644D03*
G04 #@! TD*
D12*
G04 #@! TO.C,SW3*
X28762241Y-62523083D03*
X39067106Y-68184554D03*
G04 #@! TD*
G04 #@! TO.C,SW6*
X47179141Y-64090883D03*
X57484006Y-69752354D03*
G04 #@! TD*
G04 #@! TO.C,SW9*
X65596041Y-65658783D03*
X75900906Y-71320254D03*
G04 #@! TD*
G04 #@! TO.C,SW12*
X84012941Y-67226683D03*
X94317806Y-72888154D03*
G04 #@! TD*
G04 #@! TO.C,SW16*
X99834041Y-76783383D03*
X110138906Y-82444854D03*
G04 #@! TD*
G04 #@! TO.C,SW20*
X115655241Y-86340183D03*
X125960106Y-92001654D03*
G04 #@! TD*
D13*
G04 #@! TO.C,SW24*
X176364739Y-88364244D03*
X188029279Y-86887422D03*
G04 #@! TD*
G04 #@! TO.C,SW28*
X192185839Y-78807444D03*
X203850379Y-77330622D03*
G04 #@! TD*
G04 #@! TO.C,SW32*
X208006939Y-69250744D03*
X219671479Y-67773922D03*
G04 #@! TD*
G04 #@! TO.C,SW36*
X226423839Y-67682844D03*
X238088379Y-66206022D03*
G04 #@! TD*
G04 #@! TO.C,SW39*
X244840739Y-66114944D03*
X256505279Y-64638122D03*
G04 #@! TD*
G04 #@! TO.C,SW42*
X263257639Y-64547144D03*
X274922179Y-63070322D03*
G04 #@! TD*
D12*
G04 #@! TO.C,SW2*
X34015541Y-46355083D03*
X44320406Y-52016554D03*
G04 #@! TD*
G04 #@! TO.C,SW5*
X52432441Y-47922983D03*
X62737306Y-53584454D03*
G04 #@! TD*
G04 #@! TO.C,SW8*
X70849341Y-49490783D03*
X81154206Y-55152254D03*
G04 #@! TD*
G04 #@! TO.C,SW11*
X89266241Y-51058683D03*
X99571106Y-56720154D03*
G04 #@! TD*
G04 #@! TO.C,SW15*
X105087341Y-60615483D03*
X115392206Y-66276954D03*
G04 #@! TD*
G04 #@! TO.C,SW19*
X120908541Y-70172183D03*
X131213406Y-75833654D03*
G04 #@! TD*
D13*
G04 #@! TO.C,SW23*
X171111439Y-72196244D03*
X182775979Y-70719422D03*
G04 #@! TD*
G04 #@! TO.C,SW27*
X186932539Y-62639544D03*
X198597079Y-61162722D03*
G04 #@! TD*
G04 #@! TO.C,SW31*
X202753739Y-53082744D03*
X214418279Y-51605922D03*
G04 #@! TD*
G04 #@! TO.C,SW35*
X221170539Y-51514844D03*
X232835079Y-50038022D03*
G04 #@! TD*
G04 #@! TO.C,SW38*
X239587439Y-49947044D03*
X251251979Y-48470222D03*
G04 #@! TD*
G04 #@! TO.C,SW41*
X258004339Y-48379144D03*
X269668879Y-46902322D03*
G04 #@! TD*
D12*
G04 #@! TO.C,SW1*
X49573706Y-35848554D03*
X39268841Y-30187083D03*
G04 #@! TD*
G04 #@! TO.C,SW4*
X57685741Y-31754983D03*
X67990606Y-37416454D03*
G04 #@! TD*
G04 #@! TO.C,SW7*
X76102641Y-33322883D03*
X86407506Y-38984354D03*
G04 #@! TD*
G04 #@! TO.C,SW10*
X94519541Y-34890783D03*
X104824406Y-40552254D03*
G04 #@! TD*
G04 #@! TO.C,SW14*
X110340641Y-44447483D03*
X120645506Y-50108954D03*
G04 #@! TD*
G04 #@! TO.C,SW18*
X126161841Y-54004183D03*
X136466706Y-59665654D03*
G04 #@! TD*
D13*
G04 #@! TO.C,SW22*
X165858139Y-56028244D03*
X177522679Y-54551422D03*
G04 #@! TD*
G04 #@! TO.C,SW26*
X181679239Y-46471544D03*
X193343779Y-44994722D03*
G04 #@! TD*
G04 #@! TO.C,SW30*
X197500439Y-36914844D03*
X209164979Y-35438022D03*
G04 #@! TD*
G04 #@! TO.C,SW34*
X215917339Y-35346944D03*
X227581879Y-33870122D03*
G04 #@! TD*
G04 #@! TO.C,SW37*
X234334139Y-33779044D03*
X245998679Y-32302222D03*
G04 #@! TD*
G04 #@! TO.C,SW40*
X252751039Y-32211144D03*
X264415579Y-30734322D03*
G04 #@! TD*
D14*
G04 #@! TO.C,D11*
X96916329Y-66034421D03*
X97688871Y-63656779D03*
G04 #@! TD*
D15*
G04 #@! TO.C,D39*
X243399371Y-79220021D03*
X242626829Y-76842379D03*
G04 #@! TD*
D14*
G04 #@! TO.C,D12*
X92435571Y-79824679D03*
X91663029Y-82202321D03*
G04 #@! TD*
G04 #@! TO.C,D10*
X102942071Y-47488779D03*
X102169529Y-49866421D03*
G04 #@! TD*
D15*
G04 #@! TO.C,D26*
X180237871Y-59576621D03*
X179465329Y-57198979D03*
G04 #@! TD*
G04 #@! TO.C,D24*
X174923271Y-101469221D03*
X174150729Y-99091579D03*
G04 #@! TD*
D14*
G04 #@! TO.C,D4*
X66108371Y-44353079D03*
X65335829Y-46730721D03*
G04 #@! TD*
D15*
G04 #@! TO.C,D25*
X175896771Y-119027721D03*
X175124229Y-116650079D03*
G04 #@! TD*
D14*
G04 #@! TO.C,D16*
X108256671Y-89381479D03*
X107484129Y-91759121D03*
G04 #@! TD*
G04 #@! TO.C,D17*
X103003371Y-105549379D03*
X102230829Y-107927021D03*
G04 #@! TD*
G04 #@! TO.C,D14*
X118763271Y-57045479D03*
X117990729Y-59423121D03*
G04 #@! TD*
D15*
G04 #@! TO.C,D32*
X206565571Y-82355721D03*
X205793029Y-79978079D03*
G04 #@! TD*
G04 #@! TO.C,D27*
X185491171Y-75744521D03*
X184718629Y-73366879D03*
G04 #@! TD*
G04 #@! TO.C,D38*
X238146071Y-63052021D03*
X237373529Y-60674379D03*
G04 #@! TD*
D14*
G04 #@! TO.C,D20*
X124077871Y-98938179D03*
X123305329Y-101315821D03*
G04 #@! TD*
G04 #@! TO.C,D21*
X123104271Y-116496679D03*
X122331729Y-118874321D03*
G04 #@! TD*
G04 #@! TO.C,D3*
X37184871Y-75121079D03*
X36412329Y-77498721D03*
G04 #@! TD*
D15*
G04 #@! TO.C,D37*
X232892771Y-46884121D03*
X232120229Y-44506479D03*
G04 #@! TD*
G04 #@! TO.C,D30*
X196058971Y-50019821D03*
X195286429Y-47642179D03*
G04 #@! TD*
D14*
G04 #@! TO.C,D9*
X74018671Y-78256879D03*
X73246129Y-80634521D03*
G04 #@! TD*
G04 #@! TO.C,D18*
X133811829Y-68979921D03*
X134584371Y-66602279D03*
G04 #@! TD*
G04 #@! TO.C,D2*
X42438171Y-58953179D03*
X41665629Y-61330821D03*
G04 #@! TD*
D15*
G04 #@! TO.C,D34*
X214475871Y-48451921D03*
X213703329Y-46074279D03*
G04 #@! TD*
G04 #@! TO.C,D42*
X261816271Y-77652121D03*
X261043729Y-75274479D03*
G04 #@! TD*
G04 #@! TO.C,D31*
X201312271Y-66187821D03*
X200539729Y-63810179D03*
G04 #@! TD*
D14*
G04 #@! TO.C,D13*
X87182271Y-95992679D03*
X86409729Y-98370321D03*
G04 #@! TD*
D15*
G04 #@! TO.C,D40*
X251309671Y-45316221D03*
X250537129Y-42938579D03*
G04 #@! TD*
G04 #@! TO.C,D41*
X256562971Y-61484221D03*
X255790429Y-59106579D03*
G04 #@! TD*
D14*
G04 #@! TO.C,D6*
X55601771Y-76688979D03*
X54829229Y-79066621D03*
G04 #@! TD*
D15*
G04 #@! TO.C,D29*
X195997671Y-108080421D03*
X195225129Y-105702779D03*
G04 #@! TD*
G04 #@! TO.C,D22*
X164416671Y-69133321D03*
X163644129Y-66755679D03*
G04 #@! TD*
G04 #@! TO.C,D33*
X211818871Y-98523721D03*
X211046329Y-96146079D03*
G04 #@! TD*
D14*
G04 #@! TO.C,D15*
X113509971Y-73213479D03*
X112737429Y-75591121D03*
G04 #@! TD*
D15*
G04 #@! TO.C,D28*
X190744371Y-91912521D03*
X189971829Y-89534879D03*
G04 #@! TD*
G04 #@! TO.C,D36*
X224982471Y-80787921D03*
X224209929Y-78410279D03*
G04 #@! TD*
G04 #@! TO.C,D23*
X169669971Y-85301321D03*
X168897429Y-82923679D03*
G04 #@! TD*
D14*
G04 #@! TO.C,D1*
X46918429Y-45162721D03*
X47690971Y-42785079D03*
G04 #@! TD*
D15*
G04 #@! TO.C,D35*
X219729171Y-64619921D03*
X218956629Y-62242279D03*
G04 #@! TD*
D14*
G04 #@! TO.C,D5*
X60854071Y-60520679D03*
X60081529Y-62898321D03*
G04 #@! TD*
G04 #@! TO.C,D7*
X84525271Y-45920879D03*
X83752729Y-48298521D03*
G04 #@! TD*
G04 #@! TO.C,D19*
X129331071Y-82770279D03*
X128558529Y-85147921D03*
G04 #@! TD*
G04 #@! TO.C,D8*
X79271971Y-62088879D03*
X78499429Y-64466521D03*
G04 #@! TD*
M02*
