M48
; DRILL file {KiCad 8.0.4} date 2024-08-25T14:32:27+0700
; FORMAT={-:-/ absolute / metric / decimal}
; #@! TF.CreationDate,2024-08-25T14:32:27+07:00
; #@! TF.GenerationSoftware,Kicad,Pcbnew,8.0.4
; #@! TF.FileFunction,NonPlated,1,2,NPTH
FMAT,2
METRIC
; #@! TA.AperFunction,NonPlated,NPTH,ComponentDrill
T1C0.900
; #@! TA.AperFunction,NonPlated,NPTH,ComponentDrill
T2C1.702
; #@! TA.AperFunction,NonPlated,NPTH,ComponentDrill
T3C3.000
; #@! TA.AperFunction,NonPlated,NPTH,ComponentDrill
T4C3.429
%
G90
G05
T1
X162.065Y-30.548
X165.065Y-30.548
T2
X24.807Y-67.494
X30.061Y-51.326
X35.269Y-70.893
X35.314Y-35.158
X40.522Y-54.725
X43.224Y-69.062
X45.776Y-38.557
X48.478Y-52.894
X53.686Y-72.461
X53.731Y-36.726
X58.939Y-56.293
X61.641Y-70.63
X64.193Y-40.125
X66.895Y-54.462
X72.103Y-74.029
X72.148Y-38.294
X74.805Y-88.366
X77.356Y-57.861
X80.058Y-72.198
X82.61Y-41.693
X85.267Y-91.765
X85.311Y-56.03
X90.52Y-75.597
X90.565Y-39.862
X90.626Y-97.923
X95.773Y-59.429
X95.879Y-81.755
X101.026Y-43.261
X101.088Y-101.322
X101.133Y-65.587
X106.341Y-85.154
X106.386Y-49.419
X110.727Y-108.87
X111.594Y-68.986
X111.7Y-91.311
X116.848Y-52.818
X116.954Y-75.143
X121.189Y-112.269
X122.162Y-94.711
X122.207Y-58.975
X127.415Y-78.543
X132.669Y-62.375
X165.581Y-62.375
X170.834Y-78.543
X176.042Y-58.975
X176.087Y-94.711
X177.061Y-112.269
X181.296Y-75.143
X181.402Y-52.818
X186.549Y-91.311
X186.655Y-68.986
X187.522Y-108.87
X191.863Y-49.419
X191.908Y-85.154
X197.117Y-65.587
X197.162Y-101.322
X197.223Y-43.261
X202.37Y-81.755
X202.476Y-59.429
X207.623Y-97.923
X207.685Y-39.862
X207.729Y-75.597
X212.938Y-56.03
X212.983Y-91.765
X215.64Y-41.693
X218.191Y-72.198
X220.893Y-57.861
X223.444Y-88.366
X226.102Y-38.294
X226.146Y-74.029
X231.355Y-54.462
X234.057Y-40.125
X236.608Y-70.63
X239.31Y-56.293
X244.518Y-36.726
X244.563Y-72.461
X249.772Y-52.894
X252.474Y-38.557
X255.025Y-69.062
X257.727Y-54.725
X262.935Y-35.158
X262.98Y-70.893
X268.189Y-51.326
X273.442Y-67.494
T3
X31.877Y-63.535
X35.952Y-67.173
X37.13Y-47.367
X41.206Y-51.005
X42.384Y-31.199
X46.459Y-34.837
X50.294Y-65.103
X54.369Y-68.74
X55.547Y-48.935
X59.623Y-52.572
X60.8Y-32.767
X64.876Y-36.404
X68.711Y-66.671
X72.786Y-70.308
X73.964Y-50.503
X78.039Y-54.14
X79.217Y-34.335
X81.874Y-84.407
X83.293Y-37.972
X85.95Y-88.044
X87.128Y-68.239
X91.203Y-71.876
X92.381Y-52.071
X96.456Y-55.708
X97.634Y-35.903
X97.696Y-93.963
X101.71Y-39.54
X101.771Y-97.601
X102.949Y-77.795
X107.024Y-81.433
X108.202Y-61.628
X112.277Y-65.265
X113.455Y-45.46
X117.531Y-49.097
X117.796Y-104.911
X118.77Y-87.352
X121.872Y-108.548
X122.845Y-90.99
X124.023Y-71.184
X128.099Y-74.822
X129.277Y-55.016
X133.352Y-58.654
X168.973Y-55.016
X174.226Y-71.184
X174.408Y-55.563
X179.479Y-87.352
X179.661Y-71.731
X180.453Y-104.911
X184.794Y-45.46
X184.915Y-87.899
X185.888Y-105.458
X190.047Y-61.628
X190.229Y-46.007
X195.301Y-77.795
X195.482Y-62.175
X200.554Y-93.963
X200.615Y-35.903
X200.736Y-78.343
X205.868Y-52.071
X205.989Y-94.511
X206.05Y-36.45
X211.122Y-68.239
X211.304Y-52.618
X216.375Y-84.407
X216.557Y-68.786
X219.032Y-34.335
X221.81Y-84.954
X224.285Y-50.503
X224.467Y-34.882
X229.539Y-66.671
X229.72Y-51.05
X234.974Y-67.218
X237.449Y-32.767
X242.702Y-48.935
X242.884Y-33.314
X247.955Y-65.103
X248.137Y-49.482
X253.391Y-65.65
X255.866Y-31.199
X261.119Y-47.367
X261.301Y-31.746
X266.372Y-63.535
X266.554Y-47.914
X271.807Y-64.082
T4
X30.038Y-69.194
X35.292Y-53.026
X40.545Y-36.858
X48.455Y-70.762
X53.709Y-54.594
X58.962Y-38.426
X66.872Y-72.33
X72.125Y-56.162
X77.379Y-39.994
X80.036Y-90.065
X85.289Y-73.897
X90.542Y-57.729
X95.796Y-41.562
X95.857Y-99.622
X101.11Y-83.454
X106.363Y-67.286
X111.617Y-51.118
X115.958Y-110.569
X116.931Y-93.011
X122.185Y-76.843
X127.438Y-60.675
X170.811Y-60.675
X176.065Y-76.843
X181.318Y-93.011
X182.292Y-110.569
X186.633Y-51.118
X191.886Y-67.286
X197.139Y-83.454
X202.392Y-99.622
X202.454Y-41.562
X207.707Y-57.729
X212.96Y-73.897
X218.214Y-90.065
X220.871Y-39.994
X226.124Y-56.162
X231.377Y-72.33
X239.287Y-38.426
X244.541Y-54.594
X249.794Y-70.762
X257.704Y-36.858
X262.958Y-53.026
X268.211Y-69.194
M30
