G04 #@! TF.GenerationSoftware,KiCad,Pcbnew,8.0.4*
G04 #@! TF.CreationDate,2024-08-25T14:32:17+07:00*
G04 #@! TF.ProjectId,ozprey,6f7a7072-6579-42e6-9b69-6361645f7063,1.0*
G04 #@! TF.SameCoordinates,Original*
G04 #@! TF.FileFunction,Copper,L1,Top*
G04 #@! TF.FilePolarity,Positive*
%FSLAX46Y46*%
G04 Gerber Fmt 4.6, Leading zero omitted, Abs format (unit mm)*
G04 Created by KiCad (PCBNEW 8.0.4) date 2024-08-25 14:32:17*
%MOMM*%
%LPD*%
G01*
G04 APERTURE LIST*
G04 #@! TA.AperFunction,SMDPad,CuDef*
%ADD10R,1.700000X1.000000*%
G04 #@! TD*
G04 #@! TA.AperFunction,ComponentPad*
%ADD11C,2.032000*%
G04 #@! TD*
G04 #@! TA.AperFunction,ComponentPad*
%ADD12C,1.752600*%
G04 #@! TD*
G04 #@! TA.AperFunction,ViaPad*
%ADD13C,0.500000*%
G04 #@! TD*
G04 #@! TA.AperFunction,Conductor*
%ADD14C,0.300000*%
G04 #@! TD*
G04 APERTURE END LIST*
D10*
G04 #@! TO.P,SW_RST1,1,1*
G04 #@! TO.N,GND*
X137365500Y-34277832D03*
X131065500Y-34277832D03*
G04 #@! TO.P,SW_RST1,2,2*
G04 #@! TO.N,RST*
X137365500Y-30477832D03*
X131065500Y-30477832D03*
G04 #@! TD*
D11*
G04 #@! TO.P,SW13,1,1*
G04 #@! TO.N,COL3*
X78212500Y-95676633D03*
G04 #@! TO.P,SW13,2,2*
G04 #@! TO.N,Net-(D13-A)*
X74106153Y-92134330D03*
G04 #@! TD*
G04 #@! TO.P,SW17,1,1*
G04 #@! TO.N,COL4*
X94033700Y-105233433D03*
G04 #@! TO.P,SW17,2,2*
G04 #@! TO.N,Net-(D17-A)*
X89927353Y-101691130D03*
G04 #@! TD*
G04 #@! TO.P,SW21,1,1*
G04 #@! TO.N,COL5*
X114134600Y-116180733D03*
G04 #@! TO.P,SW21,2,2*
G04 #@! TO.N,Net-(D21-A)*
X110028253Y-112638430D03*
G04 #@! TD*
G04 #@! TO.P,SW25,1,1*
G04 #@! TO.N,COL6*
X184114800Y-116180733D03*
G04 #@! TO.P,SW25,2,2*
G04 #@! TO.N,Net-(D25-A)*
X178710582Y-115728600D03*
G04 #@! TD*
G04 #@! TO.P,SW29,1,1*
G04 #@! TO.N,COL7*
X204215700Y-105233433D03*
G04 #@! TO.P,SW29,2,2*
G04 #@! TO.N,Net-(D29-A)*
X198811482Y-104781300D03*
G04 #@! TD*
G04 #@! TO.P,SW33,2,2*
G04 #@! TO.N,Net-(D33-A)*
X214632582Y-95224500D03*
G04 #@! TO.P,SW33,1,1*
G04 #@! TO.N,COL8*
X220036800Y-95676633D03*
G04 #@! TD*
G04 #@! TO.P,SW3,1,1*
G04 #@! TO.N,COL0*
X28215100Y-74805133D03*
G04 #@! TO.P,SW3,2,2*
G04 #@! TO.N,Net-(D3-A)*
X24108753Y-71262830D03*
G04 #@! TD*
G04 #@! TO.P,SW6,1,1*
G04 #@! TO.N,COL1*
X46632000Y-76372933D03*
G04 #@! TO.P,SW6,2,2*
G04 #@! TO.N,Net-(D6-A)*
X42525653Y-72830630D03*
G04 #@! TD*
G04 #@! TO.P,SW9,1,1*
G04 #@! TO.N,COL2*
X65048900Y-77940833D03*
G04 #@! TO.P,SW9,2,2*
G04 #@! TO.N,Net-(D9-A)*
X60942553Y-74398530D03*
G04 #@! TD*
G04 #@! TO.P,SW12,1,1*
G04 #@! TO.N,COL3*
X83465800Y-79508733D03*
G04 #@! TO.P,SW12,2,2*
G04 #@! TO.N,Net-(D12-A)*
X79359453Y-75966430D03*
G04 #@! TD*
G04 #@! TO.P,SW16,1,1*
G04 #@! TO.N,COL4*
X99286900Y-89065433D03*
G04 #@! TO.P,SW16,2,2*
G04 #@! TO.N,Net-(D16-A)*
X95180553Y-85523130D03*
G04 #@! TD*
G04 #@! TO.P,SW20,1,1*
G04 #@! TO.N,COL5*
X115108100Y-98622233D03*
G04 #@! TO.P,SW20,2,2*
G04 #@! TO.N,Net-(D20-A)*
X111001753Y-95079930D03*
G04 #@! TD*
G04 #@! TO.P,SW24,1,1*
G04 #@! TO.N,COL6*
X183141300Y-98622233D03*
G04 #@! TO.P,SW24,2,2*
G04 #@! TO.N,Net-(D24-A)*
X177737082Y-98170100D03*
G04 #@! TD*
G04 #@! TO.P,SW28,1,1*
G04 #@! TO.N,COL7*
X198962400Y-89065433D03*
G04 #@! TO.P,SW28,2,2*
G04 #@! TO.N,Net-(D28-A)*
X193558182Y-88613300D03*
G04 #@! TD*
G04 #@! TO.P,SW32,1,1*
G04 #@! TO.N,COL8*
X214783500Y-79508733D03*
G04 #@! TO.P,SW32,2,2*
G04 #@! TO.N,Net-(D32-A)*
X209379282Y-79056600D03*
G04 #@! TD*
G04 #@! TO.P,SW36,1,1*
G04 #@! TO.N,COL9*
X233200400Y-77940833D03*
G04 #@! TO.P,SW36,2,2*
G04 #@! TO.N,Net-(D36-A)*
X227796182Y-77488700D03*
G04 #@! TD*
G04 #@! TO.P,SW39,1,1*
G04 #@! TO.N,COL10*
X251617300Y-76372933D03*
G04 #@! TO.P,SW39,2,2*
G04 #@! TO.N,Net-(D39-A)*
X246213082Y-75920800D03*
G04 #@! TD*
G04 #@! TO.P,SW42,1,1*
G04 #@! TO.N,COL11*
X270034200Y-74805133D03*
G04 #@! TO.P,SW42,2,2*
G04 #@! TO.N,Net-(D42-A)*
X264629982Y-74353000D03*
G04 #@! TD*
G04 #@! TO.P,SW2,1,1*
G04 #@! TO.N,COL0*
X33468400Y-58637133D03*
G04 #@! TO.P,SW2,2,2*
G04 #@! TO.N,Net-(D2-A)*
X29362053Y-55094830D03*
G04 #@! TD*
G04 #@! TO.P,SW5,1,1*
G04 #@! TO.N,COL1*
X51885300Y-60205033D03*
G04 #@! TO.P,SW5,2,2*
G04 #@! TO.N,Net-(D5-A)*
X47778953Y-56662730D03*
G04 #@! TD*
G04 #@! TO.P,SW8,1,1*
G04 #@! TO.N,COL2*
X70302200Y-61772833D03*
G04 #@! TO.P,SW8,2,2*
G04 #@! TO.N,Net-(D8-A)*
X66195853Y-58230530D03*
G04 #@! TD*
G04 #@! TO.P,SW11,1,1*
G04 #@! TO.N,COL3*
X88719100Y-63340733D03*
G04 #@! TO.P,SW11,2,2*
G04 #@! TO.N,Net-(D11-A)*
X84612753Y-59798430D03*
G04 #@! TD*
G04 #@! TO.P,SW15,1,1*
G04 #@! TO.N,COL4*
X104540200Y-72897533D03*
G04 #@! TO.P,SW15,2,2*
G04 #@! TO.N,Net-(D15-A)*
X100433853Y-69355230D03*
G04 #@! TD*
G04 #@! TO.P,SW19,1,1*
G04 #@! TO.N,COL5*
X120361400Y-82454233D03*
G04 #@! TO.P,SW19,2,2*
G04 #@! TO.N,Net-(D19-A)*
X116255053Y-78911930D03*
G04 #@! TD*
G04 #@! TO.P,SW23,1,1*
G04 #@! TO.N,COL6*
X177888000Y-82454233D03*
G04 #@! TO.P,SW23,2,2*
G04 #@! TO.N,Net-(D23-A)*
X172483782Y-82002100D03*
G04 #@! TD*
G04 #@! TO.P,SW27,1,1*
G04 #@! TO.N,COL7*
X193709100Y-72897533D03*
G04 #@! TO.P,SW27,2,2*
G04 #@! TO.N,Net-(D27-A)*
X188304882Y-72445400D03*
G04 #@! TD*
G04 #@! TO.P,SW31,1,1*
G04 #@! TO.N,COL8*
X209530300Y-63340733D03*
G04 #@! TO.P,SW31,2,2*
G04 #@! TO.N,Net-(D31-A)*
X204126082Y-62888600D03*
G04 #@! TD*
G04 #@! TO.P,SW35,1,1*
G04 #@! TO.N,COL9*
X227947100Y-61772833D03*
G04 #@! TO.P,SW35,2,2*
G04 #@! TO.N,Net-(D35-A)*
X222542882Y-61320700D03*
G04 #@! TD*
G04 #@! TO.P,SW38,1,1*
G04 #@! TO.N,COL10*
X246364000Y-60205033D03*
G04 #@! TO.P,SW38,2,2*
G04 #@! TO.N,Net-(D38-A)*
X240959782Y-59752900D03*
G04 #@! TD*
G04 #@! TO.P,SW41,1,1*
G04 #@! TO.N,COL11*
X264780900Y-58637133D03*
G04 #@! TO.P,SW41,2,2*
G04 #@! TO.N,Net-(D41-A)*
X259376682Y-58185000D03*
G04 #@! TD*
G04 #@! TO.P,SW1,2,2*
G04 #@! TO.N,Net-(D1-A)*
X34615353Y-38926830D03*
G04 #@! TO.P,SW1,1,1*
G04 #@! TO.N,COL0*
X38721700Y-42469133D03*
G04 #@! TD*
G04 #@! TO.P,SW4,1,1*
G04 #@! TO.N,COL1*
X57138600Y-44037033D03*
G04 #@! TO.P,SW4,2,2*
G04 #@! TO.N,Net-(D4-A)*
X53032253Y-40494730D03*
G04 #@! TD*
G04 #@! TO.P,SW7,1,1*
G04 #@! TO.N,COL2*
X75555500Y-45604933D03*
G04 #@! TO.P,SW7,2,2*
G04 #@! TO.N,Net-(D7-A)*
X71449153Y-42062630D03*
G04 #@! TD*
G04 #@! TO.P,SW10,1,1*
G04 #@! TO.N,COL3*
X93972400Y-47172833D03*
G04 #@! TO.P,SW10,2,2*
G04 #@! TO.N,Net-(D10-A)*
X89866053Y-43630530D03*
G04 #@! TD*
G04 #@! TO.P,SW14,1,1*
G04 #@! TO.N,COL4*
X109793500Y-56729533D03*
G04 #@! TO.P,SW14,2,2*
G04 #@! TO.N,Net-(D14-A)*
X105687153Y-53187230D03*
G04 #@! TD*
G04 #@! TO.P,SW18,1,1*
G04 #@! TO.N,COL5*
X125614700Y-66286233D03*
G04 #@! TO.P,SW18,2,2*
G04 #@! TO.N,Net-(D18-A)*
X121508353Y-62743930D03*
G04 #@! TD*
G04 #@! TO.P,SW22,1,1*
G04 #@! TO.N,COL6*
X172634700Y-66286233D03*
G04 #@! TO.P,SW22,2,2*
G04 #@! TO.N,Net-(D22-A)*
X167230482Y-65834100D03*
G04 #@! TD*
G04 #@! TO.P,SW26,1,1*
G04 #@! TO.N,COL7*
X188455800Y-56729533D03*
G04 #@! TO.P,SW26,2,2*
G04 #@! TO.N,Net-(D26-A)*
X183051582Y-56277400D03*
G04 #@! TD*
G04 #@! TO.P,SW30,1,1*
G04 #@! TO.N,COL8*
X204277000Y-47172833D03*
G04 #@! TO.P,SW30,2,2*
G04 #@! TO.N,Net-(D30-A)*
X198872782Y-46720700D03*
G04 #@! TD*
G04 #@! TO.P,SW34,1,1*
G04 #@! TO.N,COL9*
X222693900Y-45604933D03*
G04 #@! TO.P,SW34,2,2*
G04 #@! TO.N,Net-(D34-A)*
X217289682Y-45152800D03*
G04 #@! TD*
G04 #@! TO.P,SW37,1,1*
G04 #@! TO.N,COL10*
X241110700Y-44037033D03*
G04 #@! TO.P,SW37,2,2*
G04 #@! TO.N,Net-(D37-A)*
X235706482Y-43584900D03*
G04 #@! TD*
G04 #@! TO.P,SW40,1,1*
G04 #@! TO.N,COL11*
X259527600Y-42469133D03*
G04 #@! TO.P,SW40,2,2*
G04 #@! TO.N,Net-(D40-A)*
X254123382Y-42017000D03*
G04 #@! TD*
D12*
G04 #@! TO.P,U1,33,P1.07*
G04 #@! TO.N,unconnected-(U1-P1.07-Pad33)*
X149215500Y-55767800D03*
G04 #@! TO.P,U1,32,P1.02*
G04 #@! TO.N,unconnected-(U1-P1.02-Pad32)*
X146675500Y-55767800D03*
G04 #@! TO.P,U1,31,P1.01*
G04 #@! TO.N,unconnected-(U1-P1.01-Pad31)*
X144135500Y-55767800D03*
G04 #@! TO.P,U1,30*
G04 #@! TO.N,N/C*
X141595500Y-30367800D03*
G04 #@! TO.P,U1,34*
X156835500Y-30367800D03*
G04 #@! TO.P,U1,24,BATIN/P0.04*
G04 #@! TO.N,RAW*
X156835500Y-32907800D03*
G04 #@! TO.P,U1,12,P1.06*
G04 #@! TO.N,ROW1*
X141595500Y-60847800D03*
G04 #@! TO.P,U1,23,GND*
G04 #@! TO.N,GND*
X156835500Y-35447800D03*
G04 #@! TO.P,U1,22,RST*
G04 #@! TO.N,RST*
X156835500Y-37987800D03*
G04 #@! TO.P,U1,21,VCC*
G04 #@! TO.N,3.3V*
X156835500Y-40527800D03*
G04 #@! TO.P,U1,20,AIN7/P0.31*
G04 #@! TO.N,COL11*
X156835500Y-43067800D03*
G04 #@! TO.P,U1,19,AIN5/P0.29*
G04 #@! TO.N,COL10*
X156835500Y-45607800D03*
G04 #@! TO.P,U1,18,AIN0/P0.02*
G04 #@! TO.N,COL9*
X156835500Y-48147800D03*
G04 #@! TO.P,U1,17,P1.15*
G04 #@! TO.N,COL8*
X156835500Y-50687800D03*
G04 #@! TO.P,U1,16,P1.13*
G04 #@! TO.N,COL7*
X156835500Y-53227800D03*
G04 #@! TO.P,U1,15,P1.11*
G04 #@! TO.N,COL6*
X156835500Y-55767800D03*
G04 #@! TO.P,U1,14,NFC2/P0.10*
G04 #@! TO.N,ROW2*
X156835500Y-58307800D03*
G04 #@! TO.P,U1,13,NFC1/P0.09*
G04 #@! TO.N,ROW3*
X156835500Y-60847800D03*
G04 #@! TO.P,U1,11,P1.04*
G04 #@! TO.N,ROW0*
X141595500Y-58307800D03*
G04 #@! TO.P,U1,10,P0.11*
G04 #@! TO.N,COL5*
X141595500Y-55767800D03*
G04 #@! TO.P,U1,9,P1.00*
G04 #@! TO.N,COL4*
X141595500Y-53227800D03*
G04 #@! TO.P,U1,8,P0.24*
G04 #@! TO.N,COL3*
X141595500Y-50687800D03*
G04 #@! TO.P,U1,7,P0.22*
G04 #@! TO.N,COL2*
X141595500Y-48147800D03*
G04 #@! TO.P,U1,6,P0.20*
G04 #@! TO.N,COL1*
X141595500Y-45607800D03*
G04 #@! TO.P,U1,5,P0.17*
G04 #@! TO.N,COL0*
X141595500Y-43067800D03*
G04 #@! TO.P,U1,4,GND*
G04 #@! TO.N,GND*
X141595500Y-40527800D03*
G04 #@! TO.P,U1,3,GND*
X141595500Y-37987800D03*
G04 #@! TO.P,U1,2,RX1/P0.08*
G04 #@! TO.N,unconnected-(U1-RX1{slash}P0.08-Pad2)*
X141595500Y-35447800D03*
G04 #@! TO.P,U1,1,TX0/P0.06*
G04 #@! TO.N,unconnected-(U1-TX0{slash}P0.06-Pad1)*
X141595500Y-32907800D03*
G04 #@! TD*
D13*
G04 #@! TO.N,Net-(BATT1--)*
X149215469Y-31877832D03*
X165822280Y-32351327D03*
G04 #@! TO.N,ROW0*
X120108800Y-57305000D03*
G04 #@! TO.N,Net-(D40-A)*
X264415579Y-30734322D03*
G04 #@! TO.N,COL6*
X165715469Y-56074540D03*
G04 #@! TO.N,Net-(D2-A)*
X37215469Y-57377832D03*
G04 #@! TO.N,COL6*
X176364700Y-88364200D03*
G04 #@! TO.N,Net-(D41-A)*
X269715469Y-46877832D03*
G04 #@! TO.N,COL10*
X237434500Y-47277832D03*
X244715469Y-63877832D03*
G04 #@! TO.N,COL9*
X214991000Y-45622300D03*
X218398000Y-48742300D03*
X226256200Y-64865000D03*
G04 #@! TO.N,COL8*
X203962569Y-50624932D03*
X209719600Y-70714000D03*
G04 #@! TO.N,COL7*
X200088101Y-101505200D03*
X193487500Y-60121200D03*
X190482200Y-80242400D03*
G04 #@! TO.N,COL5*
X123460618Y-79122981D03*
G04 #@! TO.N,COL4*
X101199300Y-87341400D03*
G04 #@! TO.N,COL3*
X84650400Y-65102500D03*
X107731300Y-47081300D03*
X71715469Y-82083631D03*
G04 #@! TO.N,COL2*
X71533600Y-47371000D03*
X65797000Y-63534500D03*
G04 #@! TO.N,COL1*
X108109400Y-45983901D03*
X52691400Y-45798800D03*
X48384500Y-61644900D03*
G04 #@! TO.N,ROW0*
X162315469Y-62661716D03*
X85783000Y-49130100D03*
X101215469Y-49130100D03*
G04 #@! TO.N,Net-(D24-A)*
X188835600Y-89452300D03*
G04 #@! TO.N,Net-(D1-A)*
X39215469Y-39877832D03*
G04 #@! TD*
D14*
G04 #@! TO.N,RST*
X156835500Y-37987800D02*
X153025500Y-34177800D01*
X153025500Y-34177800D02*
X141015437Y-34177800D01*
X141015437Y-34177800D02*
X137365500Y-30527863D01*
X137365500Y-30527863D02*
X137365500Y-30477832D01*
G04 #@! TO.N,GND*
X141595500Y-37987800D02*
X140825437Y-37987800D01*
X140825437Y-37987800D02*
X137365500Y-34527863D01*
X137365500Y-34527863D02*
X137365500Y-34277832D01*
G04 #@! TO.N,COL1*
X54612368Y-43877832D02*
X52691400Y-45798800D01*
X64313125Y-43877832D02*
X54612368Y-43877832D01*
X73715469Y-44377832D02*
X64813125Y-44377832D01*
X74715469Y-43377832D02*
X73715469Y-44377832D01*
X64813125Y-44377832D02*
X64313125Y-43877832D01*
X79132400Y-46377832D02*
X76132400Y-43377832D01*
X76132400Y-43377832D02*
X74715469Y-43377832D01*
X92275527Y-46377832D02*
X79132400Y-46377832D01*
X93275527Y-45377832D02*
X92275527Y-46377832D01*
X107503331Y-45377832D02*
X93275527Y-45377832D01*
X108109400Y-45983901D02*
X107503331Y-45377832D01*
G04 #@! TO.N,COL4*
X141595500Y-53227800D02*
X140245532Y-51877832D01*
X140245532Y-51877832D02*
X122715469Y-51877832D01*
X122715469Y-51877832D02*
X117863801Y-56729500D01*
X117863801Y-56729500D02*
X110367600Y-56729500D01*
G04 #@! TO.N,COL0*
X38721700Y-42469100D02*
X63611500Y-42469100D01*
X79339506Y-45877832D02*
X92068420Y-45877832D01*
X63611500Y-42469100D02*
X65020232Y-43877832D01*
X76339506Y-42877832D02*
X79339506Y-45877832D01*
X65020232Y-43877832D02*
X73508363Y-43877832D01*
X73508363Y-43877832D02*
X74215469Y-43170725D01*
X92068420Y-45877832D02*
X93068420Y-44877832D01*
X74215469Y-43170725D02*
X74508362Y-42877832D01*
X93068420Y-44877832D02*
X104715469Y-44877832D01*
X74508362Y-42877832D02*
X76339506Y-42877832D01*
X104715469Y-44877832D02*
X107715469Y-41877832D01*
X107715469Y-41877832D02*
X140405532Y-41877832D01*
X140405532Y-41877832D02*
X141595500Y-43067800D01*
G04 #@! TO.N,COL11*
X259527600Y-42469133D02*
X257618901Y-44377832D01*
X257618901Y-44377832D02*
X245215469Y-44377832D01*
X232715469Y-43377832D02*
X216215469Y-43377832D01*
X245215469Y-44377832D02*
X242715469Y-41877832D01*
X242715469Y-41877832D02*
X234215469Y-41877832D01*
X198215469Y-41377832D02*
X158525468Y-41377832D01*
X234215469Y-41877832D02*
X232715469Y-43377832D01*
X216215469Y-43377832D02*
X215215469Y-44377832D01*
X215215469Y-44377832D02*
X201215469Y-44377832D01*
X201215469Y-44377832D02*
X198215469Y-41377832D01*
X158525468Y-41377832D02*
X156835500Y-43067800D01*
G04 #@! TO.N,ROW0*
X101215469Y-49130100D02*
X100967737Y-49377832D01*
X100967737Y-49377832D02*
X86030732Y-49377832D01*
X86030732Y-49377832D02*
X85783000Y-49130100D01*
G04 #@! TO.N,COL2*
X141595500Y-48147800D02*
X139825532Y-46377832D01*
X84874800Y-47371000D02*
X75555500Y-47371000D01*
X139825532Y-46377832D02*
X116163943Y-46377832D01*
X116163943Y-46377832D02*
X114768275Y-47773500D01*
X114768275Y-47773500D02*
X97266600Y-47773500D01*
X97266600Y-47773500D02*
X96162268Y-48877832D01*
X96162268Y-48877832D02*
X86381632Y-48877832D01*
X86381632Y-48877832D02*
X84874800Y-47371000D01*
G04 #@! TO.N,RST*
X137825153Y-30477832D02*
X137365500Y-30477832D01*
G04 #@! TO.N,Net-(BATT1--)*
X165822280Y-32351327D02*
X165152453Y-31681500D01*
X165152453Y-31681500D02*
X149411801Y-31681500D01*
X149411801Y-31681500D02*
X149215469Y-31877832D01*
G04 #@! TO.N,ROW0*
X130788301Y-57305000D02*
X132215469Y-55877832D01*
X120108800Y-57305000D02*
X130788301Y-57305000D01*
X132215469Y-55877832D02*
X139165532Y-55877832D01*
X139165532Y-55877832D02*
X141595500Y-58307800D01*
G04 #@! TO.N,COL3*
X72461300Y-81337800D02*
X81636700Y-81337800D01*
X71715469Y-82083631D02*
X72461300Y-81337800D01*
X81636700Y-81337800D02*
X83465800Y-79508700D01*
G04 #@! TO.N,Net-(D1-A)*
X38264437Y-38926800D02*
X34615400Y-38926800D01*
X39215469Y-39877832D02*
X38264437Y-38926800D01*
G04 #@! TO.N,COL10*
X237434500Y-47277832D02*
X240675299Y-44037033D01*
X240675299Y-44037033D02*
X241110700Y-44037033D01*
X241110700Y-44037033D02*
X241110700Y-44037000D01*
X237434500Y-47277832D02*
X217482898Y-47277832D01*
X217482898Y-47277832D02*
X215591000Y-45385934D01*
X215591000Y-45385934D02*
X215591000Y-45373771D01*
X215591000Y-45373771D02*
X215239529Y-45022300D01*
X215239529Y-45022300D02*
X196359937Y-45022300D01*
X196359937Y-45022300D02*
X194215469Y-42877832D01*
X194215469Y-42877832D02*
X159565468Y-42877832D01*
X159565468Y-42877832D02*
X156835500Y-45607800D01*
G04 #@! TO.N,Net-(D40-A)*
X254123382Y-42017000D02*
X254123382Y-41969919D01*
X254123382Y-41969919D02*
X255715469Y-40377832D01*
X255715469Y-40377832D02*
X261215469Y-40377832D01*
X261215469Y-40377832D02*
X264715469Y-36877832D01*
X264715469Y-36877832D02*
X264715469Y-31034212D01*
X264715469Y-31034212D02*
X264415579Y-30734322D01*
G04 #@! TO.N,COL10*
X244715469Y-63877832D02*
X246364000Y-62229301D01*
X246364000Y-62229301D02*
X246364000Y-60205000D01*
G04 #@! TO.N,COL8*
X204277000Y-47172800D02*
X204277000Y-50310501D01*
X204277000Y-50310501D02*
X203962569Y-50624932D01*
G04 #@! TO.N,COL5*
X123460618Y-79122981D02*
X123460618Y-79122982D01*
X123460618Y-79122982D02*
X120361400Y-82222200D01*
X120361400Y-82222200D02*
X120361400Y-82454200D01*
G04 #@! TO.N,COL6*
X165715469Y-56074540D02*
X165715469Y-59367002D01*
X165715469Y-59367002D02*
X172634700Y-66286233D01*
G04 #@! TO.N,Net-(D2-A)*
X37215469Y-57377832D02*
X35715469Y-57377832D01*
X35715469Y-57377832D02*
X33432467Y-55094830D01*
X33432467Y-55094830D02*
X29362053Y-55094830D01*
G04 #@! TO.N,Net-(D24-A)*
X177737100Y-98170100D02*
X180423201Y-98170100D01*
X180423201Y-98170100D02*
X184755401Y-93837900D01*
X184755401Y-93837900D02*
X186755401Y-93837900D01*
X186755401Y-93837900D02*
X188835600Y-91757701D01*
X188835600Y-91757701D02*
X188835600Y-89452300D01*
G04 #@! TO.N,COL6*
X177888000Y-82454233D02*
X176364700Y-83977533D01*
X176364700Y-83977533D02*
X176364700Y-88364200D01*
G04 #@! TO.N,COL7*
X200088101Y-101505200D02*
X203816301Y-105233400D01*
X203816301Y-105233400D02*
X204215700Y-105233400D01*
G04 #@! TO.N,Net-(D41-A)*
X269715469Y-46877832D02*
X269715469Y-54377832D01*
X269715469Y-54377832D02*
X268215469Y-55877832D01*
X268215469Y-55877832D02*
X264215469Y-55877832D01*
X264215469Y-55877832D02*
X261908301Y-58185000D01*
X261908301Y-58185000D02*
X259376682Y-58185000D01*
G04 #@! TO.N,RST*
X131065500Y-30477832D02*
X137365500Y-30477832D01*
G04 #@! TO.N,COL9*
X218111000Y-48742300D02*
X218398000Y-48742300D01*
X214991000Y-45622300D02*
X218111000Y-48742300D01*
X227947100Y-63174100D02*
X226256200Y-64865000D01*
X227947100Y-61772800D02*
X227947100Y-63174100D01*
G04 #@! TO.N,COL8*
X209719600Y-74444800D02*
X209719600Y-70714000D01*
X214783500Y-79508700D02*
X209719600Y-74444800D01*
G04 #@! TO.N,COL7*
X190095800Y-56729500D02*
X193487500Y-60121200D01*
X188455800Y-56729500D02*
X190095800Y-56729500D01*
X198962400Y-88722600D02*
X190482200Y-80242400D01*
X198962400Y-89065400D02*
X198962400Y-88722600D01*
G04 #@! TO.N,COL4*
X99475300Y-89065400D02*
X101199300Y-87341400D01*
X99286900Y-89065400D02*
X99475300Y-89065400D01*
X108806000Y-68631700D02*
X104540200Y-72897500D01*
X108806000Y-65099000D02*
X108806000Y-68631700D01*
X110367600Y-63537400D02*
X108806000Y-65099000D01*
X110367600Y-56729500D02*
X110367600Y-63537400D01*
X110367600Y-56729500D02*
X109793500Y-56729500D01*
G04 #@! TO.N,COL3*
X86412200Y-63340700D02*
X84650400Y-65102500D01*
X88719100Y-63340700D02*
X86412200Y-63340700D01*
X94063900Y-47081300D02*
X93972400Y-47172800D01*
X107731300Y-47081300D02*
X94063900Y-47081300D01*
G04 #@! TO.N,COL2*
X75555500Y-47371000D02*
X75555500Y-45604900D01*
X75555500Y-47371000D02*
X71533600Y-47371000D01*
X67558700Y-61772800D02*
X65797000Y-63534500D01*
X70302200Y-61772800D02*
X67558700Y-61772800D01*
G04 #@! TO.N,COL1*
X49824400Y-60205000D02*
X48384500Y-61644900D01*
X51885300Y-60205000D02*
X49824400Y-60205000D01*
G04 #@! TO.N,GND*
X131065500Y-34277832D02*
X137365500Y-34277832D01*
G04 #@! TO.N,ROW0*
X155940500Y-62377832D02*
X151870468Y-58307800D01*
X162031585Y-62377832D02*
X155940500Y-62377832D01*
X151870468Y-58307800D02*
X141595500Y-58307800D01*
X162315469Y-62661716D02*
X162031585Y-62377832D01*
G04 #@! TD*
M02*
