%TF.GenerationSoftware,KiCad,Pcbnew,8.0.4*%
%TF.CreationDate,2024-08-25T16:08:26+07:00*%
%TF.ProjectId,ozprey,6f7a7072-6579-42e6-9b69-6361645f7063,1.0*%
%TF.SameCoordinates,Original*%
%TF.FileFunction,Drillmap*%
%TF.FilePolarity,Positive*%
%FSLAX45Y45*%
G04 Gerber Fmt 4.5, Leading zero omitted, Abs format (unit mm)*
G04 Created by KiCad (PCBNEW 8.0.4) date 2024-08-25 16:08:26*
%MOMM*%
%LPD*%
G01*
G04 APERTURE LIST*
%ADD10C,0.100000*%
%ADD11C,0.200000*%
%ADD12C,0.109220*%
%ADD13C,0.127000*%
G04 APERTURE END LIST*
D10*
X26237766Y-4884487D02*
X17268617Y-5282085D01*
X12412749Y-5282085D02*
X3444277Y-4884486D01*
X10196537Y-13955196D02*
G75*
G02*
X7834057Y-12733072I12267321J26608389D01*
G01*
X3237099Y-5021967D02*
X1677485Y-9822338D01*
X3237099Y-5021967D02*
G75*
G02*
X3444277Y-4884486I190208J-61791D01*
G01*
X21847986Y-12733071D02*
G75*
G02*
X19485507Y-13955195I-14629879J25386414D01*
G01*
X1805896Y-10074350D02*
X1991803Y-10134752D01*
X28004558Y-9822339D02*
X26444944Y-5021967D01*
X1991803Y-10134752D02*
G75*
G02*
X7834057Y-12733071I-9486547J-29197495D01*
G01*
X21847986Y-12733071D02*
G75*
G02*
X27690240Y-10134752I15328831J-26599236D01*
G01*
X14090252Y-14809547D02*
G75*
G02*
X10196537Y-13955196I-5J9299980D01*
G01*
X19485507Y-13955195D02*
G75*
G02*
X15591791Y-14809547I-3893710J8445618D01*
G01*
X12412749Y-5282085D02*
X17268617Y-5282085D01*
X26237766Y-4884487D02*
G75*
G02*
X26444941Y-5021968I16961J-199281D01*
G01*
X27690240Y-10134752D02*
X27876147Y-10074349D01*
X1805896Y-10074350D02*
G75*
G02*
X1677490Y-9822340I61811J190212D01*
G01*
X14090252Y-14809547D02*
X15591791Y-14809547D01*
X28004558Y-9822339D02*
G75*
G02*
X27876147Y-10074348I-190211J-61798D01*
G01*
D11*
D10*
X3635104Y-8144970D02*
X3665104Y-8174970D01*
X3665104Y-8144970D02*
X3635104Y-8174970D01*
X3835104Y-6394970D02*
X3865104Y-6424970D01*
X3865104Y-6394970D02*
X3835104Y-6424970D01*
X4752007Y-8571677D02*
X4782007Y-8601677D01*
X4782007Y-8571677D02*
X4752007Y-8601677D01*
X5182697Y-6987067D02*
X5212697Y-7017067D01*
X5212697Y-6987067D02*
X5182697Y-7017067D01*
X6493257Y-8760637D02*
X6523257Y-8790637D01*
X6523257Y-8760637D02*
X6493257Y-8790637D01*
X7066917Y-7144287D02*
X7096917Y-7174287D01*
X7096917Y-7144287D02*
X7066917Y-7174287D01*
X7085104Y-10615550D02*
X7115104Y-10645550D01*
X7115104Y-10615550D02*
X7085104Y-10645550D01*
X8378597Y-8917437D02*
X8408597Y-8947437D01*
X8408597Y-8917437D02*
X8378597Y-8947437D01*
X8491857Y-7320197D02*
X8521857Y-7350197D01*
X8521857Y-7320197D02*
X8491857Y-7350197D01*
X10033487Y-11141327D02*
X10063487Y-11171327D01*
X10063487Y-11141327D02*
X10033487Y-11171327D01*
X10035104Y-7320197D02*
X10065104Y-7350197D01*
X10065104Y-7320197D02*
X10035104Y-7350197D01*
X10686687Y-7115317D02*
X10716687Y-7145317D01*
X10716687Y-7115317D02*
X10686687Y-7145317D01*
X10724497Y-7005577D02*
X10754497Y-7035577D01*
X10754497Y-7005577D02*
X10724497Y-7035577D01*
X11924437Y-8137687D02*
X11954437Y-8167687D01*
X11954437Y-8137687D02*
X11924437Y-8167687D01*
X12259619Y-10319485D02*
X12289619Y-10349485D01*
X12289619Y-10319485D02*
X12259619Y-10349485D01*
X13027613Y-5662298D02*
X13057613Y-5692298D01*
X13057613Y-5662298D02*
X13027613Y-5692298D01*
X16145104Y-8673359D02*
X16175104Y-8703359D01*
X16175104Y-8673359D02*
X16145104Y-8703359D01*
X16485104Y-8014641D02*
X16515104Y-8044641D01*
X16515104Y-8014641D02*
X16485104Y-8044641D01*
X17550027Y-11243607D02*
X17580027Y-11273607D01*
X17580027Y-11243607D02*
X17550027Y-11273607D01*
X18797117Y-11352417D02*
X18827117Y-11382417D01*
X18827117Y-11352417D02*
X18797117Y-11382417D01*
X18961777Y-10431427D02*
X18991777Y-10461427D01*
X18991777Y-10431427D02*
X18961777Y-10461427D01*
X19262307Y-8419307D02*
X19292307Y-8449307D01*
X19292307Y-8419307D02*
X19262307Y-8449307D01*
X19922368Y-12557707D02*
X19952368Y-12587707D01*
X19952368Y-12557707D02*
X19922368Y-12587707D01*
X20309814Y-7469680D02*
X20339814Y-7499680D01*
X20339814Y-7469680D02*
X20309814Y-7499680D01*
X20885517Y-9478587D02*
X20915517Y-9508587D01*
X20915517Y-9478587D02*
X20885517Y-9508587D01*
X21412657Y-6969417D02*
X21442657Y-6999417D01*
X21442657Y-6969417D02*
X21412657Y-6999417D01*
X21753357Y-7281417D02*
X21783357Y-7311417D01*
X21783357Y-7281417D02*
X21753357Y-7311417D01*
X22539177Y-8893687D02*
X22569177Y-8923687D01*
X22569177Y-8893687D02*
X22539177Y-8923687D01*
X23657007Y-7134970D02*
X23687007Y-7164970D01*
X23687007Y-7134970D02*
X23657007Y-7164970D01*
X24385104Y-8794970D02*
X24415104Y-8824970D01*
X24415104Y-8794970D02*
X24385104Y-8824970D01*
X26355115Y-5480619D02*
X26385115Y-5510619D01*
X26385115Y-5480619D02*
X26355115Y-5510619D01*
X26885104Y-7094970D02*
X26915104Y-7124970D01*
X26915104Y-7094970D02*
X26885104Y-7124970D01*
D12*
X14142717Y-5458967D02*
G75*
G02*
X14033497Y-5458967I-54610J0D01*
G01*
X14033497Y-5458967D02*
G75*
G02*
X14142717Y-5458967I54610J0D01*
G01*
X14142717Y-5712967D02*
G75*
G02*
X14033497Y-5712967I-54610J0D01*
G01*
X14033497Y-5712967D02*
G75*
G02*
X14142717Y-5712967I54610J0D01*
G01*
X14142717Y-5966967D02*
G75*
G02*
X14033497Y-5966967I-54610J0D01*
G01*
X14033497Y-5966967D02*
G75*
G02*
X14142717Y-5966967I54610J0D01*
G01*
X14142717Y-6220967D02*
G75*
G02*
X14033497Y-6220967I-54610J0D01*
G01*
X14033497Y-6220967D02*
G75*
G02*
X14142717Y-6220967I54610J0D01*
G01*
X14142717Y-6474967D02*
G75*
G02*
X14033497Y-6474967I-54610J0D01*
G01*
X14033497Y-6474967D02*
G75*
G02*
X14142717Y-6474967I54610J0D01*
G01*
X14142717Y-6728967D02*
G75*
G02*
X14033497Y-6728967I-54610J0D01*
G01*
X14033497Y-6728967D02*
G75*
G02*
X14142717Y-6728967I54610J0D01*
G01*
X14142717Y-6982967D02*
G75*
G02*
X14033497Y-6982967I-54610J0D01*
G01*
X14033497Y-6982967D02*
G75*
G02*
X14142717Y-6982967I54610J0D01*
G01*
X14142717Y-7236967D02*
G75*
G02*
X14033497Y-7236967I-54610J0D01*
G01*
X14033497Y-7236967D02*
G75*
G02*
X14142717Y-7236967I54610J0D01*
G01*
X14142717Y-7490967D02*
G75*
G02*
X14033497Y-7490967I-54610J0D01*
G01*
X14033497Y-7490967D02*
G75*
G02*
X14142717Y-7490967I54610J0D01*
G01*
X14142717Y-7744967D02*
G75*
G02*
X14033497Y-7744967I-54610J0D01*
G01*
X14033497Y-7744967D02*
G75*
G02*
X14142717Y-7744967I54610J0D01*
G01*
X14142717Y-7998967D02*
G75*
G02*
X14033497Y-7998967I-54610J0D01*
G01*
X14033497Y-7998967D02*
G75*
G02*
X14142717Y-7998967I54610J0D01*
G01*
X14142717Y-8252967D02*
G75*
G02*
X14033497Y-8252967I-54610J0D01*
G01*
X14033497Y-8252967D02*
G75*
G02*
X14142717Y-8252967I54610J0D01*
G01*
X14142717Y-8506967D02*
G75*
G02*
X14033497Y-8506967I-54610J0D01*
G01*
X14033497Y-8506967D02*
G75*
G02*
X14142717Y-8506967I54610J0D01*
G01*
X14396717Y-7998967D02*
G75*
G02*
X14287497Y-7998967I-54610J0D01*
G01*
X14287497Y-7998967D02*
G75*
G02*
X14396717Y-7998967I54610J0D01*
G01*
X14650717Y-7998967D02*
G75*
G02*
X14541497Y-7998967I-54610J0D01*
G01*
X14541497Y-7998967D02*
G75*
G02*
X14650717Y-7998967I54610J0D01*
G01*
X14904717Y-7998967D02*
G75*
G02*
X14795497Y-7998967I-54610J0D01*
G01*
X14795497Y-7998967D02*
G75*
G02*
X14904717Y-7998967I54610J0D01*
G01*
X15666717Y-5458967D02*
G75*
G02*
X15557497Y-5458967I-54610J0D01*
G01*
X15557497Y-5458967D02*
G75*
G02*
X15666717Y-5458967I54610J0D01*
G01*
X15666717Y-5712967D02*
G75*
G02*
X15557497Y-5712967I-54610J0D01*
G01*
X15557497Y-5712967D02*
G75*
G02*
X15666717Y-5712967I54610J0D01*
G01*
X15666717Y-5966967D02*
G75*
G02*
X15557497Y-5966967I-54610J0D01*
G01*
X15557497Y-5966967D02*
G75*
G02*
X15666717Y-5966967I54610J0D01*
G01*
X15666717Y-6220967D02*
G75*
G02*
X15557497Y-6220967I-54610J0D01*
G01*
X15557497Y-6220967D02*
G75*
G02*
X15666717Y-6220967I54610J0D01*
G01*
X15666717Y-6474967D02*
G75*
G02*
X15557497Y-6474967I-54610J0D01*
G01*
X15557497Y-6474967D02*
G75*
G02*
X15666717Y-6474967I54610J0D01*
G01*
X15666717Y-6728967D02*
G75*
G02*
X15557497Y-6728967I-54610J0D01*
G01*
X15557497Y-6728967D02*
G75*
G02*
X15666717Y-6728967I54610J0D01*
G01*
X15666717Y-6982967D02*
G75*
G02*
X15557497Y-6982967I-54610J0D01*
G01*
X15557497Y-6982967D02*
G75*
G02*
X15666717Y-6982967I54610J0D01*
G01*
X15666717Y-7236967D02*
G75*
G02*
X15557497Y-7236967I-54610J0D01*
G01*
X15557497Y-7236967D02*
G75*
G02*
X15666717Y-7236967I54610J0D01*
G01*
X15666717Y-7490967D02*
G75*
G02*
X15557497Y-7490967I-54610J0D01*
G01*
X15557497Y-7490967D02*
G75*
G02*
X15666717Y-7490967I54610J0D01*
G01*
X15666717Y-7744967D02*
G75*
G02*
X15557497Y-7744967I-54610J0D01*
G01*
X15557497Y-7744967D02*
G75*
G02*
X15666717Y-7744967I54610J0D01*
G01*
X15666717Y-7998967D02*
G75*
G02*
X15557497Y-7998967I-54610J0D01*
G01*
X15557497Y-7998967D02*
G75*
G02*
X15666717Y-7998967I54610J0D01*
G01*
X15666717Y-8252967D02*
G75*
G02*
X15557497Y-8252967I-54610J0D01*
G01*
X15557497Y-8252967D02*
G75*
G02*
X15666717Y-8252967I54610J0D01*
G01*
X15666717Y-8506967D02*
G75*
G02*
X15557497Y-8506967I-54610J0D01*
G01*
X15557497Y-8506967D02*
G75*
G02*
X15666717Y-8506967I54610J0D01*
G01*
D13*
X2339433Y-9484970D02*
X2339433Y-9611970D01*
X2275933Y-9548470D02*
X2402933Y-9548470D01*
X2750067Y-9839200D02*
X2750067Y-9966200D01*
X2686567Y-9902700D02*
X2813567Y-9902700D01*
X2864763Y-7868170D02*
X2864763Y-7995170D01*
X2801263Y-7931670D02*
X2928263Y-7931670D01*
X3275397Y-8222400D02*
X3275397Y-8349400D01*
X3211897Y-8285900D02*
X3338897Y-8285900D01*
X3390093Y-6251370D02*
X3390093Y-6378370D01*
X3326593Y-6314870D02*
X3453593Y-6314870D01*
X3800727Y-6605600D02*
X3800727Y-6732600D01*
X3737227Y-6669100D02*
X3864227Y-6669100D01*
X4181123Y-9641750D02*
X4181123Y-9768750D01*
X4117623Y-9705250D02*
X4244623Y-9705250D01*
X4591757Y-9995980D02*
X4591757Y-10122980D01*
X4528257Y-10059480D02*
X4655257Y-10059480D01*
X4706453Y-8024960D02*
X4706453Y-8151960D01*
X4642953Y-8088460D02*
X4769953Y-8088460D01*
X5117087Y-8379190D02*
X5117087Y-8506190D01*
X5053587Y-8442690D02*
X5180587Y-8442690D01*
X5231783Y-6408160D02*
X5231783Y-6535160D01*
X5168283Y-6471660D02*
X5295283Y-6471660D01*
X5642417Y-6762390D02*
X5642417Y-6889390D01*
X5578917Y-6825890D02*
X5705917Y-6825890D01*
X6022813Y-9798540D02*
X6022813Y-9925540D01*
X5959313Y-9862040D02*
X6086313Y-9862040D01*
X6433447Y-10152770D02*
X6433447Y-10279770D01*
X6369947Y-10216270D02*
X6496947Y-10216270D01*
X6548143Y-8181740D02*
X6548143Y-8308740D01*
X6484643Y-8245240D02*
X6611643Y-8245240D01*
X6958777Y-8535970D02*
X6958777Y-8662970D01*
X6895277Y-8599470D02*
X7022277Y-8599470D01*
X7073473Y-6564950D02*
X7073473Y-6691950D01*
X7009973Y-6628450D02*
X7136973Y-6628450D01*
X7339173Y-11572120D02*
X7339173Y-11699120D01*
X7275673Y-11635620D02*
X7402673Y-11635620D01*
X7484107Y-6919180D02*
X7484107Y-7046180D01*
X7420607Y-6982680D02*
X7547607Y-6982680D01*
X7749807Y-11926350D02*
X7749807Y-12053350D01*
X7686307Y-11989850D02*
X7813307Y-11989850D01*
X7864503Y-9955330D02*
X7864503Y-10082330D01*
X7801003Y-10018830D02*
X7928003Y-10018830D01*
X8275137Y-10309560D02*
X8275137Y-10436560D01*
X8211637Y-10373060D02*
X8338637Y-10373060D01*
X8389833Y-8338530D02*
X8389833Y-8465530D01*
X8326333Y-8402030D02*
X8453333Y-8402030D01*
X8800467Y-8692760D02*
X8800467Y-8819760D01*
X8736967Y-8756260D02*
X8863967Y-8756260D01*
X8915163Y-6721740D02*
X8915163Y-6848740D01*
X8851663Y-6785240D02*
X8978663Y-6785240D01*
X8921293Y-12527800D02*
X8921293Y-12654800D01*
X8857793Y-12591300D02*
X8984793Y-12591300D01*
X9325797Y-7075970D02*
X9325797Y-7202970D01*
X9262297Y-7139470D02*
X9389297Y-7139470D01*
X9331927Y-12882030D02*
X9331927Y-13009030D01*
X9268427Y-12945530D02*
X9395427Y-12945530D01*
X9446613Y-10911000D02*
X9446613Y-11038000D01*
X9383113Y-10974500D02*
X9510113Y-10974500D01*
X9857247Y-11265230D02*
X9857247Y-11392230D01*
X9793747Y-11328730D02*
X9920747Y-11328730D01*
X9971943Y-9294210D02*
X9971943Y-9421210D01*
X9908443Y-9357710D02*
X10035443Y-9357710D01*
X10382577Y-9648440D02*
X10382577Y-9775440D01*
X10319077Y-9711940D02*
X10446077Y-9711940D01*
X10497273Y-7677410D02*
X10497273Y-7804410D01*
X10433773Y-7740910D02*
X10560773Y-7740910D01*
X10907907Y-8031640D02*
X10907907Y-8158640D01*
X10844407Y-8095140D02*
X10971407Y-8095140D01*
X10931383Y-13622530D02*
X10931383Y-13749530D01*
X10867883Y-13686030D02*
X10994883Y-13686030D01*
X11028733Y-11866680D02*
X11028733Y-11993680D01*
X10965233Y-11930180D02*
X11092233Y-11930180D01*
X11342017Y-13976760D02*
X11342017Y-14103760D01*
X11278517Y-14040260D02*
X11405517Y-14040260D01*
X11439367Y-12220910D02*
X11439367Y-12347910D01*
X11375867Y-12284410D02*
X11502867Y-12284410D01*
X11554063Y-10249880D02*
X11554063Y-10376880D01*
X11490563Y-10313380D02*
X11617563Y-10313380D01*
X11964697Y-10604110D02*
X11964697Y-10731110D01*
X11901197Y-10667610D02*
X12028197Y-10667610D01*
X12079393Y-8633080D02*
X12079393Y-8760080D01*
X12015893Y-8696580D02*
X12142893Y-8696580D01*
X12490027Y-8987310D02*
X12490027Y-9114310D01*
X12426527Y-9050810D02*
X12553527Y-9050810D01*
X16651606Y-8942097D02*
X16651606Y-9069097D01*
X16588106Y-9005597D02*
X16715106Y-9005597D01*
X17176936Y-10558897D02*
X17176936Y-10685897D01*
X17113436Y-10622397D02*
X17240436Y-10622397D01*
X17192027Y-8987310D02*
X17192027Y-9114310D01*
X17128527Y-9050810D02*
X17255527Y-9050810D01*
X17702266Y-12175697D02*
X17702266Y-12302697D01*
X17638766Y-12239197D02*
X17765766Y-12239197D01*
X17717357Y-10604110D02*
X17717357Y-10731110D01*
X17653857Y-10667610D02*
X17780857Y-10667610D01*
X17799616Y-13931547D02*
X17799616Y-14058547D01*
X17736116Y-13995047D02*
X17863116Y-13995047D01*
X18233716Y-7986427D02*
X18233716Y-8113427D01*
X18170216Y-8049927D02*
X18297216Y-8049927D01*
X18242687Y-12220910D02*
X18242687Y-12347910D01*
X18179187Y-12284410D02*
X18306187Y-12284410D01*
X18340037Y-13976760D02*
X18340037Y-14103760D01*
X18276537Y-14040260D02*
X18403537Y-14040260D01*
X18759046Y-9603227D02*
X18759046Y-9730227D01*
X18695546Y-9666727D02*
X18822546Y-9666727D01*
X18774137Y-8031640D02*
X18774137Y-8158640D01*
X18710637Y-8095140D02*
X18837637Y-8095140D01*
X19284376Y-11220017D02*
X19284376Y-11347017D01*
X19220876Y-11283517D02*
X19347876Y-11283517D01*
X19299467Y-9648440D02*
X19299467Y-9775440D01*
X19235967Y-9711940D02*
X19362967Y-9711940D01*
X19809706Y-12836817D02*
X19809706Y-12963817D01*
X19746206Y-12900317D02*
X19873206Y-12900317D01*
X19815836Y-7030757D02*
X19815836Y-7157757D01*
X19752336Y-7094257D02*
X19879336Y-7094257D01*
X19824797Y-11265230D02*
X19824797Y-11392230D01*
X19761297Y-11328730D02*
X19888297Y-11328730D01*
X20341166Y-8647547D02*
X20341166Y-8774547D01*
X20277666Y-8711047D02*
X20404666Y-8711047D01*
X20350127Y-12882030D02*
X20350127Y-13009030D01*
X20286627Y-12945530D02*
X20413627Y-12945530D01*
X20356257Y-7075970D02*
X20356257Y-7202970D01*
X20292757Y-7139470D02*
X20419757Y-7139470D01*
X20866486Y-10264347D02*
X20866486Y-10391347D01*
X20802986Y-10327847D02*
X20929986Y-10327847D01*
X20881587Y-8692760D02*
X20881587Y-8819760D01*
X20818087Y-8756260D02*
X20945087Y-8756260D01*
X21391816Y-11881137D02*
X21391816Y-12008137D01*
X21328316Y-11944637D02*
X21455316Y-11944637D01*
X21406907Y-10309560D02*
X21406907Y-10436560D01*
X21343407Y-10373060D02*
X21470407Y-10373060D01*
X21657526Y-6873967D02*
X21657526Y-7000967D01*
X21594026Y-6937467D02*
X21721026Y-6937467D01*
X21932237Y-11926350D02*
X21932237Y-12053350D01*
X21868737Y-11989850D02*
X21995737Y-11989850D01*
X22182846Y-8490757D02*
X22182846Y-8617757D01*
X22119346Y-8554257D02*
X22246346Y-8554257D01*
X22197947Y-6919180D02*
X22197947Y-7046180D01*
X22134447Y-6982680D02*
X22261447Y-6982680D01*
X22708176Y-10107557D02*
X22708176Y-10234557D01*
X22644676Y-10171057D02*
X22771676Y-10171057D01*
X22723267Y-8535970D02*
X22723267Y-8662970D01*
X22659767Y-8599470D02*
X22786767Y-8599470D01*
X23248597Y-10152770D02*
X23248597Y-10279770D01*
X23185097Y-10216270D02*
X23312097Y-10216270D01*
X23499206Y-6717177D02*
X23499206Y-6844177D01*
X23435706Y-6780677D02*
X23562706Y-6780677D01*
X24024536Y-8333977D02*
X24024536Y-8460977D01*
X23961036Y-8397477D02*
X24088036Y-8397477D01*
X24039627Y-6762390D02*
X24039627Y-6889390D01*
X23976127Y-6825890D02*
X24103127Y-6825890D01*
X24549866Y-9950767D02*
X24549866Y-10077767D01*
X24486366Y-10014267D02*
X24613366Y-10014267D01*
X24564957Y-8379190D02*
X24564957Y-8506190D01*
X24501457Y-8442690D02*
X24628457Y-8442690D01*
X25090287Y-9995980D02*
X25090287Y-10122980D01*
X25026787Y-10059480D02*
X25153787Y-10059480D01*
X25340896Y-6560387D02*
X25340896Y-6687387D01*
X25277396Y-6623887D02*
X25404396Y-6623887D01*
X25866226Y-8177187D02*
X25866226Y-8304187D01*
X25802726Y-8240687D02*
X25929726Y-8240687D01*
X25881317Y-6605600D02*
X25881317Y-6732600D01*
X25817817Y-6669100D02*
X25944817Y-6669100D01*
X26391556Y-9793987D02*
X26391556Y-9920987D01*
X26328056Y-9857487D02*
X26455056Y-9857487D01*
X26406647Y-8222400D02*
X26406647Y-8349400D01*
X26343147Y-8285900D02*
X26470147Y-8285900D01*
X26931977Y-9839200D02*
X26931977Y-9966200D01*
X26868477Y-9902700D02*
X26995477Y-9902700D01*
D11*
X1923481Y-15126031D02*
X1923481Y-14926031D01*
X1923481Y-14926031D02*
X1971100Y-14926031D01*
X1971100Y-14926031D02*
X1999671Y-14935555D01*
X1999671Y-14935555D02*
X2018719Y-14954602D01*
X2018719Y-14954602D02*
X2028243Y-14973650D01*
X2028243Y-14973650D02*
X2037766Y-15011745D01*
X2037766Y-15011745D02*
X2037766Y-15040317D01*
X2037766Y-15040317D02*
X2028243Y-15078412D01*
X2028243Y-15078412D02*
X2018719Y-15097459D01*
X2018719Y-15097459D02*
X1999671Y-15116507D01*
X1999671Y-15116507D02*
X1971100Y-15126031D01*
X1971100Y-15126031D02*
X1923481Y-15126031D01*
X2123481Y-15126031D02*
X2123481Y-14992698D01*
X2123481Y-15030793D02*
X2133005Y-15011745D01*
X2133005Y-15011745D02*
X2142528Y-15002221D01*
X2142528Y-15002221D02*
X2161576Y-14992698D01*
X2161576Y-14992698D02*
X2180624Y-14992698D01*
X2247290Y-15126031D02*
X2247290Y-14992698D01*
X2247290Y-14926031D02*
X2237767Y-14935555D01*
X2237767Y-14935555D02*
X2247290Y-14945079D01*
X2247290Y-14945079D02*
X2256814Y-14935555D01*
X2256814Y-14935555D02*
X2247290Y-14926031D01*
X2247290Y-14926031D02*
X2247290Y-14945079D01*
X2371100Y-15126031D02*
X2352052Y-15116507D01*
X2352052Y-15116507D02*
X2342528Y-15097459D01*
X2342528Y-15097459D02*
X2342528Y-14926031D01*
X2475862Y-15126031D02*
X2456814Y-15116507D01*
X2456814Y-15116507D02*
X2447290Y-15097459D01*
X2447290Y-15097459D02*
X2447290Y-14926031D01*
X2704433Y-15126031D02*
X2704433Y-14926031D01*
X2704433Y-14926031D02*
X2771100Y-15068888D01*
X2771100Y-15068888D02*
X2837766Y-14926031D01*
X2837766Y-14926031D02*
X2837766Y-15126031D01*
X3018719Y-15126031D02*
X3018719Y-15021269D01*
X3018719Y-15021269D02*
X3009195Y-15002221D01*
X3009195Y-15002221D02*
X2990147Y-14992698D01*
X2990147Y-14992698D02*
X2952052Y-14992698D01*
X2952052Y-14992698D02*
X2933005Y-15002221D01*
X3018719Y-15116507D02*
X2999671Y-15126031D01*
X2999671Y-15126031D02*
X2952052Y-15126031D01*
X2952052Y-15126031D02*
X2933005Y-15116507D01*
X2933005Y-15116507D02*
X2923481Y-15097459D01*
X2923481Y-15097459D02*
X2923481Y-15078412D01*
X2923481Y-15078412D02*
X2933005Y-15059364D01*
X2933005Y-15059364D02*
X2952052Y-15049840D01*
X2952052Y-15049840D02*
X2999671Y-15049840D01*
X2999671Y-15049840D02*
X3018719Y-15040317D01*
X3113957Y-14992698D02*
X3113957Y-15192698D01*
X3113957Y-15002221D02*
X3133005Y-14992698D01*
X3133005Y-14992698D02*
X3171100Y-14992698D01*
X3171100Y-14992698D02*
X3190147Y-15002221D01*
X3190147Y-15002221D02*
X3199671Y-15011745D01*
X3199671Y-15011745D02*
X3209195Y-15030793D01*
X3209195Y-15030793D02*
X3209195Y-15087936D01*
X3209195Y-15087936D02*
X3199671Y-15106983D01*
X3199671Y-15106983D02*
X3190147Y-15116507D01*
X3190147Y-15116507D02*
X3171100Y-15126031D01*
X3171100Y-15126031D02*
X3133005Y-15126031D01*
X3133005Y-15126031D02*
X3113957Y-15116507D01*
X3294909Y-15106983D02*
X3304433Y-15116507D01*
X3304433Y-15116507D02*
X3294909Y-15126031D01*
X3294909Y-15126031D02*
X3285386Y-15116507D01*
X3285386Y-15116507D02*
X3294909Y-15106983D01*
X3294909Y-15106983D02*
X3294909Y-15126031D01*
X3294909Y-15002221D02*
X3304433Y-15011745D01*
X3304433Y-15011745D02*
X3294909Y-15021269D01*
X3294909Y-15021269D02*
X3285386Y-15011745D01*
X3285386Y-15011745D02*
X3294909Y-15002221D01*
X3294909Y-15002221D02*
X3294909Y-15021269D01*
D10*
X1632704Y-15439547D02*
X1662704Y-15469547D01*
X1662704Y-15439547D02*
X1632704Y-15469547D01*
D11*
X1961576Y-15346031D02*
X1980624Y-15346031D01*
X1980624Y-15346031D02*
X1999671Y-15355555D01*
X1999671Y-15355555D02*
X2009195Y-15365079D01*
X2009195Y-15365079D02*
X2018719Y-15384126D01*
X2018719Y-15384126D02*
X2028243Y-15422221D01*
X2028243Y-15422221D02*
X2028243Y-15469840D01*
X2028243Y-15469840D02*
X2018719Y-15507936D01*
X2018719Y-15507936D02*
X2009195Y-15526983D01*
X2009195Y-15526983D02*
X1999671Y-15536507D01*
X1999671Y-15536507D02*
X1980624Y-15546031D01*
X1980624Y-15546031D02*
X1961576Y-15546031D01*
X1961576Y-15546031D02*
X1942528Y-15536507D01*
X1942528Y-15536507D02*
X1933005Y-15526983D01*
X1933005Y-15526983D02*
X1923481Y-15507936D01*
X1923481Y-15507936D02*
X1913957Y-15469840D01*
X1913957Y-15469840D02*
X1913957Y-15422221D01*
X1913957Y-15422221D02*
X1923481Y-15384126D01*
X1923481Y-15384126D02*
X1933005Y-15365079D01*
X1933005Y-15365079D02*
X1942528Y-15355555D01*
X1942528Y-15355555D02*
X1961576Y-15346031D01*
X2113957Y-15526983D02*
X2123481Y-15536507D01*
X2123481Y-15536507D02*
X2113957Y-15546031D01*
X2113957Y-15546031D02*
X2104433Y-15536507D01*
X2104433Y-15536507D02*
X2113957Y-15526983D01*
X2113957Y-15526983D02*
X2113957Y-15546031D01*
X2190148Y-15346031D02*
X2313957Y-15346031D01*
X2313957Y-15346031D02*
X2247290Y-15422221D01*
X2247290Y-15422221D02*
X2275862Y-15422221D01*
X2275862Y-15422221D02*
X2294909Y-15431745D01*
X2294909Y-15431745D02*
X2304433Y-15441269D01*
X2304433Y-15441269D02*
X2313957Y-15460317D01*
X2313957Y-15460317D02*
X2313957Y-15507936D01*
X2313957Y-15507936D02*
X2304433Y-15526983D01*
X2304433Y-15526983D02*
X2294909Y-15536507D01*
X2294909Y-15536507D02*
X2275862Y-15546031D01*
X2275862Y-15546031D02*
X2218719Y-15546031D01*
X2218719Y-15546031D02*
X2199671Y-15536507D01*
X2199671Y-15536507D02*
X2190148Y-15526983D01*
X2437767Y-15346031D02*
X2456814Y-15346031D01*
X2456814Y-15346031D02*
X2475862Y-15355555D01*
X2475862Y-15355555D02*
X2485386Y-15365079D01*
X2485386Y-15365079D02*
X2494909Y-15384126D01*
X2494909Y-15384126D02*
X2504433Y-15422221D01*
X2504433Y-15422221D02*
X2504433Y-15469840D01*
X2504433Y-15469840D02*
X2494909Y-15507936D01*
X2494909Y-15507936D02*
X2485386Y-15526983D01*
X2485386Y-15526983D02*
X2475862Y-15536507D01*
X2475862Y-15536507D02*
X2456814Y-15546031D01*
X2456814Y-15546031D02*
X2437767Y-15546031D01*
X2437767Y-15546031D02*
X2418719Y-15536507D01*
X2418719Y-15536507D02*
X2409195Y-15526983D01*
X2409195Y-15526983D02*
X2399671Y-15507936D01*
X2399671Y-15507936D02*
X2390148Y-15469840D01*
X2390148Y-15469840D02*
X2390148Y-15422221D01*
X2390148Y-15422221D02*
X2399671Y-15384126D01*
X2399671Y-15384126D02*
X2409195Y-15365079D01*
X2409195Y-15365079D02*
X2418719Y-15355555D01*
X2418719Y-15355555D02*
X2437767Y-15346031D01*
X2628243Y-15346031D02*
X2647290Y-15346031D01*
X2647290Y-15346031D02*
X2666338Y-15355555D01*
X2666338Y-15355555D02*
X2675862Y-15365079D01*
X2675862Y-15365079D02*
X2685386Y-15384126D01*
X2685386Y-15384126D02*
X2694909Y-15422221D01*
X2694909Y-15422221D02*
X2694909Y-15469840D01*
X2694909Y-15469840D02*
X2685386Y-15507936D01*
X2685386Y-15507936D02*
X2675862Y-15526983D01*
X2675862Y-15526983D02*
X2666338Y-15536507D01*
X2666338Y-15536507D02*
X2647290Y-15546031D01*
X2647290Y-15546031D02*
X2628243Y-15546031D01*
X2628243Y-15546031D02*
X2609195Y-15536507D01*
X2609195Y-15536507D02*
X2599671Y-15526983D01*
X2599671Y-15526983D02*
X2590148Y-15507936D01*
X2590148Y-15507936D02*
X2580624Y-15469840D01*
X2580624Y-15469840D02*
X2580624Y-15422221D01*
X2580624Y-15422221D02*
X2590148Y-15384126D01*
X2590148Y-15384126D02*
X2599671Y-15365079D01*
X2599671Y-15365079D02*
X2609195Y-15355555D01*
X2609195Y-15355555D02*
X2628243Y-15346031D01*
X2780624Y-15546031D02*
X2780624Y-15412698D01*
X2780624Y-15431745D02*
X2790148Y-15422221D01*
X2790148Y-15422221D02*
X2809195Y-15412698D01*
X2809195Y-15412698D02*
X2837767Y-15412698D01*
X2837767Y-15412698D02*
X2856814Y-15422221D01*
X2856814Y-15422221D02*
X2866338Y-15441269D01*
X2866338Y-15441269D02*
X2866338Y-15546031D01*
X2866338Y-15441269D02*
X2875862Y-15422221D01*
X2875862Y-15422221D02*
X2894909Y-15412698D01*
X2894909Y-15412698D02*
X2923481Y-15412698D01*
X2923481Y-15412698D02*
X2942528Y-15422221D01*
X2942528Y-15422221D02*
X2952052Y-15441269D01*
X2952052Y-15441269D02*
X2952052Y-15546031D01*
X3047290Y-15546031D02*
X3047290Y-15412698D01*
X3047290Y-15431745D02*
X3056814Y-15422221D01*
X3056814Y-15422221D02*
X3075862Y-15412698D01*
X3075862Y-15412698D02*
X3104433Y-15412698D01*
X3104433Y-15412698D02*
X3123481Y-15422221D01*
X3123481Y-15422221D02*
X3133005Y-15441269D01*
X3133005Y-15441269D02*
X3133005Y-15546031D01*
X3133005Y-15441269D02*
X3142528Y-15422221D01*
X3142528Y-15422221D02*
X3161576Y-15412698D01*
X3161576Y-15412698D02*
X3190147Y-15412698D01*
X3190147Y-15412698D02*
X3209195Y-15422221D01*
X3209195Y-15422221D02*
X3218719Y-15441269D01*
X3218719Y-15441269D02*
X3218719Y-15546031D01*
X3609195Y-15336507D02*
X3437767Y-15593650D01*
X3866338Y-15346031D02*
X3885386Y-15346031D01*
X3885386Y-15346031D02*
X3904433Y-15355555D01*
X3904433Y-15355555D02*
X3913957Y-15365079D01*
X3913957Y-15365079D02*
X3923481Y-15384126D01*
X3923481Y-15384126D02*
X3933005Y-15422221D01*
X3933005Y-15422221D02*
X3933005Y-15469840D01*
X3933005Y-15469840D02*
X3923481Y-15507936D01*
X3923481Y-15507936D02*
X3913957Y-15526983D01*
X3913957Y-15526983D02*
X3904433Y-15536507D01*
X3904433Y-15536507D02*
X3885386Y-15546031D01*
X3885386Y-15546031D02*
X3866338Y-15546031D01*
X3866338Y-15546031D02*
X3847290Y-15536507D01*
X3847290Y-15536507D02*
X3837767Y-15526983D01*
X3837767Y-15526983D02*
X3828243Y-15507936D01*
X3828243Y-15507936D02*
X3818719Y-15469840D01*
X3818719Y-15469840D02*
X3818719Y-15422221D01*
X3818719Y-15422221D02*
X3828243Y-15384126D01*
X3828243Y-15384126D02*
X3837767Y-15365079D01*
X3837767Y-15365079D02*
X3847290Y-15355555D01*
X3847290Y-15355555D02*
X3866338Y-15346031D01*
X4018719Y-15526983D02*
X4028243Y-15536507D01*
X4028243Y-15536507D02*
X4018719Y-15546031D01*
X4018719Y-15546031D02*
X4009195Y-15536507D01*
X4009195Y-15536507D02*
X4018719Y-15526983D01*
X4018719Y-15526983D02*
X4018719Y-15546031D01*
X4152052Y-15346031D02*
X4171100Y-15346031D01*
X4171100Y-15346031D02*
X4190148Y-15355555D01*
X4190148Y-15355555D02*
X4199672Y-15365079D01*
X4199672Y-15365079D02*
X4209195Y-15384126D01*
X4209195Y-15384126D02*
X4218719Y-15422221D01*
X4218719Y-15422221D02*
X4218719Y-15469840D01*
X4218719Y-15469840D02*
X4209195Y-15507936D01*
X4209195Y-15507936D02*
X4199672Y-15526983D01*
X4199672Y-15526983D02*
X4190148Y-15536507D01*
X4190148Y-15536507D02*
X4171100Y-15546031D01*
X4171100Y-15546031D02*
X4152052Y-15546031D01*
X4152052Y-15546031D02*
X4133005Y-15536507D01*
X4133005Y-15536507D02*
X4123481Y-15526983D01*
X4123481Y-15526983D02*
X4113957Y-15507936D01*
X4113957Y-15507936D02*
X4104433Y-15469840D01*
X4104433Y-15469840D02*
X4104433Y-15422221D01*
X4104433Y-15422221D02*
X4113957Y-15384126D01*
X4113957Y-15384126D02*
X4123481Y-15365079D01*
X4123481Y-15365079D02*
X4133005Y-15355555D01*
X4133005Y-15355555D02*
X4152052Y-15346031D01*
X4409195Y-15546031D02*
X4294910Y-15546031D01*
X4352052Y-15546031D02*
X4352052Y-15346031D01*
X4352052Y-15346031D02*
X4333005Y-15374602D01*
X4333005Y-15374602D02*
X4313957Y-15393650D01*
X4313957Y-15393650D02*
X4294910Y-15403174D01*
X4599672Y-15546031D02*
X4485386Y-15546031D01*
X4542529Y-15546031D02*
X4542529Y-15346031D01*
X4542529Y-15346031D02*
X4523481Y-15374602D01*
X4523481Y-15374602D02*
X4504433Y-15393650D01*
X4504433Y-15393650D02*
X4485386Y-15403174D01*
X4713957Y-15431745D02*
X4694910Y-15422221D01*
X4694910Y-15422221D02*
X4685386Y-15412698D01*
X4685386Y-15412698D02*
X4675862Y-15393650D01*
X4675862Y-15393650D02*
X4675862Y-15384126D01*
X4675862Y-15384126D02*
X4685386Y-15365079D01*
X4685386Y-15365079D02*
X4694910Y-15355555D01*
X4694910Y-15355555D02*
X4713957Y-15346031D01*
X4713957Y-15346031D02*
X4752053Y-15346031D01*
X4752053Y-15346031D02*
X4771100Y-15355555D01*
X4771100Y-15355555D02*
X4780624Y-15365079D01*
X4780624Y-15365079D02*
X4790148Y-15384126D01*
X4790148Y-15384126D02*
X4790148Y-15393650D01*
X4790148Y-15393650D02*
X4780624Y-15412698D01*
X4780624Y-15412698D02*
X4771100Y-15422221D01*
X4771100Y-15422221D02*
X4752053Y-15431745D01*
X4752053Y-15431745D02*
X4713957Y-15431745D01*
X4713957Y-15431745D02*
X4694910Y-15441269D01*
X4694910Y-15441269D02*
X4685386Y-15450793D01*
X4685386Y-15450793D02*
X4675862Y-15469840D01*
X4675862Y-15469840D02*
X4675862Y-15507936D01*
X4675862Y-15507936D02*
X4685386Y-15526983D01*
X4685386Y-15526983D02*
X4694910Y-15536507D01*
X4694910Y-15536507D02*
X4713957Y-15546031D01*
X4713957Y-15546031D02*
X4752053Y-15546031D01*
X4752053Y-15546031D02*
X4771100Y-15536507D01*
X4771100Y-15536507D02*
X4780624Y-15526983D01*
X4780624Y-15526983D02*
X4790148Y-15507936D01*
X4790148Y-15507936D02*
X4790148Y-15469840D01*
X4790148Y-15469840D02*
X4780624Y-15450793D01*
X4780624Y-15450793D02*
X4771100Y-15441269D01*
X4771100Y-15441269D02*
X4752053Y-15431745D01*
X4866338Y-15346031D02*
X4866338Y-15384126D01*
X4942529Y-15346031D02*
X4942529Y-15384126D01*
X5237767Y-15622221D02*
X5228243Y-15612698D01*
X5228243Y-15612698D02*
X5209195Y-15584126D01*
X5209195Y-15584126D02*
X5199672Y-15565079D01*
X5199672Y-15565079D02*
X5190148Y-15536507D01*
X5190148Y-15536507D02*
X5180624Y-15488888D01*
X5180624Y-15488888D02*
X5180624Y-15450793D01*
X5180624Y-15450793D02*
X5190148Y-15403174D01*
X5190148Y-15403174D02*
X5199672Y-15374602D01*
X5199672Y-15374602D02*
X5209195Y-15355555D01*
X5209195Y-15355555D02*
X5228243Y-15326983D01*
X5228243Y-15326983D02*
X5237767Y-15317459D01*
X5294910Y-15346031D02*
X5418719Y-15346031D01*
X5418719Y-15346031D02*
X5352053Y-15422221D01*
X5352053Y-15422221D02*
X5380624Y-15422221D01*
X5380624Y-15422221D02*
X5399672Y-15431745D01*
X5399672Y-15431745D02*
X5409195Y-15441269D01*
X5409195Y-15441269D02*
X5418719Y-15460317D01*
X5418719Y-15460317D02*
X5418719Y-15507936D01*
X5418719Y-15507936D02*
X5409195Y-15526983D01*
X5409195Y-15526983D02*
X5399672Y-15536507D01*
X5399672Y-15536507D02*
X5380624Y-15546031D01*
X5380624Y-15546031D02*
X5323481Y-15546031D01*
X5323481Y-15546031D02*
X5304434Y-15536507D01*
X5304434Y-15536507D02*
X5294910Y-15526983D01*
X5494910Y-15365079D02*
X5504434Y-15355555D01*
X5504434Y-15355555D02*
X5523481Y-15346031D01*
X5523481Y-15346031D02*
X5571100Y-15346031D01*
X5571100Y-15346031D02*
X5590148Y-15355555D01*
X5590148Y-15355555D02*
X5599672Y-15365079D01*
X5599672Y-15365079D02*
X5609195Y-15384126D01*
X5609195Y-15384126D02*
X5609195Y-15403174D01*
X5609195Y-15403174D02*
X5599672Y-15431745D01*
X5599672Y-15431745D02*
X5485386Y-15546031D01*
X5485386Y-15546031D02*
X5609195Y-15546031D01*
X5847291Y-15546031D02*
X5847291Y-15346031D01*
X5933005Y-15546031D02*
X5933005Y-15441269D01*
X5933005Y-15441269D02*
X5923481Y-15422221D01*
X5923481Y-15422221D02*
X5904434Y-15412698D01*
X5904434Y-15412698D02*
X5875862Y-15412698D01*
X5875862Y-15412698D02*
X5856814Y-15422221D01*
X5856814Y-15422221D02*
X5847291Y-15431745D01*
X6056814Y-15546031D02*
X6037767Y-15536507D01*
X6037767Y-15536507D02*
X6028243Y-15526983D01*
X6028243Y-15526983D02*
X6018719Y-15507936D01*
X6018719Y-15507936D02*
X6018719Y-15450793D01*
X6018719Y-15450793D02*
X6028243Y-15431745D01*
X6028243Y-15431745D02*
X6037767Y-15422221D01*
X6037767Y-15422221D02*
X6056814Y-15412698D01*
X6056814Y-15412698D02*
X6085386Y-15412698D01*
X6085386Y-15412698D02*
X6104434Y-15422221D01*
X6104434Y-15422221D02*
X6113957Y-15431745D01*
X6113957Y-15431745D02*
X6123481Y-15450793D01*
X6123481Y-15450793D02*
X6123481Y-15507936D01*
X6123481Y-15507936D02*
X6113957Y-15526983D01*
X6113957Y-15526983D02*
X6104434Y-15536507D01*
X6104434Y-15536507D02*
X6085386Y-15546031D01*
X6085386Y-15546031D02*
X6056814Y-15546031D01*
X6237767Y-15546031D02*
X6218719Y-15536507D01*
X6218719Y-15536507D02*
X6209195Y-15517459D01*
X6209195Y-15517459D02*
X6209195Y-15346031D01*
X6390148Y-15536507D02*
X6371100Y-15546031D01*
X6371100Y-15546031D02*
X6333005Y-15546031D01*
X6333005Y-15546031D02*
X6313957Y-15536507D01*
X6313957Y-15536507D02*
X6304434Y-15517459D01*
X6304434Y-15517459D02*
X6304434Y-15441269D01*
X6304434Y-15441269D02*
X6313957Y-15422221D01*
X6313957Y-15422221D02*
X6333005Y-15412698D01*
X6333005Y-15412698D02*
X6371100Y-15412698D01*
X6371100Y-15412698D02*
X6390148Y-15422221D01*
X6390148Y-15422221D02*
X6399672Y-15441269D01*
X6399672Y-15441269D02*
X6399672Y-15460317D01*
X6399672Y-15460317D02*
X6304434Y-15479364D01*
X6475862Y-15536507D02*
X6494910Y-15546031D01*
X6494910Y-15546031D02*
X6533005Y-15546031D01*
X6533005Y-15546031D02*
X6552053Y-15536507D01*
X6552053Y-15536507D02*
X6561576Y-15517459D01*
X6561576Y-15517459D02*
X6561576Y-15507936D01*
X6561576Y-15507936D02*
X6552053Y-15488888D01*
X6552053Y-15488888D02*
X6533005Y-15479364D01*
X6533005Y-15479364D02*
X6504434Y-15479364D01*
X6504434Y-15479364D02*
X6485386Y-15469840D01*
X6485386Y-15469840D02*
X6475862Y-15450793D01*
X6475862Y-15450793D02*
X6475862Y-15441269D01*
X6475862Y-15441269D02*
X6485386Y-15422221D01*
X6485386Y-15422221D02*
X6504434Y-15412698D01*
X6504434Y-15412698D02*
X6533005Y-15412698D01*
X6533005Y-15412698D02*
X6552053Y-15422221D01*
X6628243Y-15622221D02*
X6637767Y-15612698D01*
X6637767Y-15612698D02*
X6656815Y-15584126D01*
X6656815Y-15584126D02*
X6666338Y-15565079D01*
X6666338Y-15565079D02*
X6675862Y-15536507D01*
X6675862Y-15536507D02*
X6685386Y-15488888D01*
X6685386Y-15488888D02*
X6685386Y-15450793D01*
X6685386Y-15450793D02*
X6675862Y-15403174D01*
X6675862Y-15403174D02*
X6666338Y-15374602D01*
X6666338Y-15374602D02*
X6656815Y-15355555D01*
X6656815Y-15355555D02*
X6637767Y-15326983D01*
X6637767Y-15326983D02*
X6628243Y-15317459D01*
D12*
X1662704Y-15718547D02*
G75*
G02*
X1553484Y-15718547I-54610J0D01*
G01*
X1553484Y-15718547D02*
G75*
G02*
X1662704Y-15718547I54610J0D01*
G01*
D11*
X2028243Y-15810031D02*
X1913957Y-15810031D01*
X1971100Y-15810031D02*
X1971100Y-15610031D01*
X1971100Y-15610031D02*
X1952052Y-15638602D01*
X1952052Y-15638602D02*
X1933005Y-15657650D01*
X1933005Y-15657650D02*
X1913957Y-15667174D01*
X2113957Y-15790983D02*
X2123481Y-15800507D01*
X2123481Y-15800507D02*
X2113957Y-15810031D01*
X2113957Y-15810031D02*
X2104433Y-15800507D01*
X2104433Y-15800507D02*
X2113957Y-15790983D01*
X2113957Y-15790983D02*
X2113957Y-15810031D01*
X2247290Y-15610031D02*
X2266338Y-15610031D01*
X2266338Y-15610031D02*
X2285386Y-15619555D01*
X2285386Y-15619555D02*
X2294909Y-15629079D01*
X2294909Y-15629079D02*
X2304433Y-15648126D01*
X2304433Y-15648126D02*
X2313957Y-15686221D01*
X2313957Y-15686221D02*
X2313957Y-15733840D01*
X2313957Y-15733840D02*
X2304433Y-15771936D01*
X2304433Y-15771936D02*
X2294909Y-15790983D01*
X2294909Y-15790983D02*
X2285386Y-15800507D01*
X2285386Y-15800507D02*
X2266338Y-15810031D01*
X2266338Y-15810031D02*
X2247290Y-15810031D01*
X2247290Y-15810031D02*
X2228243Y-15800507D01*
X2228243Y-15800507D02*
X2218719Y-15790983D01*
X2218719Y-15790983D02*
X2209195Y-15771936D01*
X2209195Y-15771936D02*
X2199671Y-15733840D01*
X2199671Y-15733840D02*
X2199671Y-15686221D01*
X2199671Y-15686221D02*
X2209195Y-15648126D01*
X2209195Y-15648126D02*
X2218719Y-15629079D01*
X2218719Y-15629079D02*
X2228243Y-15619555D01*
X2228243Y-15619555D02*
X2247290Y-15610031D01*
X2409195Y-15810031D02*
X2447290Y-15810031D01*
X2447290Y-15810031D02*
X2466338Y-15800507D01*
X2466338Y-15800507D02*
X2475862Y-15790983D01*
X2475862Y-15790983D02*
X2494909Y-15762412D01*
X2494909Y-15762412D02*
X2504433Y-15724317D01*
X2504433Y-15724317D02*
X2504433Y-15648126D01*
X2504433Y-15648126D02*
X2494909Y-15629079D01*
X2494909Y-15629079D02*
X2485386Y-15619555D01*
X2485386Y-15619555D02*
X2466338Y-15610031D01*
X2466338Y-15610031D02*
X2428243Y-15610031D01*
X2428243Y-15610031D02*
X2409195Y-15619555D01*
X2409195Y-15619555D02*
X2399671Y-15629079D01*
X2399671Y-15629079D02*
X2390148Y-15648126D01*
X2390148Y-15648126D02*
X2390148Y-15695745D01*
X2390148Y-15695745D02*
X2399671Y-15714793D01*
X2399671Y-15714793D02*
X2409195Y-15724317D01*
X2409195Y-15724317D02*
X2428243Y-15733840D01*
X2428243Y-15733840D02*
X2466338Y-15733840D01*
X2466338Y-15733840D02*
X2485386Y-15724317D01*
X2485386Y-15724317D02*
X2494909Y-15714793D01*
X2494909Y-15714793D02*
X2504433Y-15695745D01*
X2580624Y-15629079D02*
X2590148Y-15619555D01*
X2590148Y-15619555D02*
X2609195Y-15610031D01*
X2609195Y-15610031D02*
X2656814Y-15610031D01*
X2656814Y-15610031D02*
X2675862Y-15619555D01*
X2675862Y-15619555D02*
X2685386Y-15629079D01*
X2685386Y-15629079D02*
X2694909Y-15648126D01*
X2694909Y-15648126D02*
X2694909Y-15667174D01*
X2694909Y-15667174D02*
X2685386Y-15695745D01*
X2685386Y-15695745D02*
X2571100Y-15810031D01*
X2571100Y-15810031D02*
X2694909Y-15810031D01*
X2780624Y-15810031D02*
X2780624Y-15676698D01*
X2780624Y-15695745D02*
X2790148Y-15686221D01*
X2790148Y-15686221D02*
X2809195Y-15676698D01*
X2809195Y-15676698D02*
X2837767Y-15676698D01*
X2837767Y-15676698D02*
X2856814Y-15686221D01*
X2856814Y-15686221D02*
X2866338Y-15705269D01*
X2866338Y-15705269D02*
X2866338Y-15810031D01*
X2866338Y-15705269D02*
X2875862Y-15686221D01*
X2875862Y-15686221D02*
X2894909Y-15676698D01*
X2894909Y-15676698D02*
X2923481Y-15676698D01*
X2923481Y-15676698D02*
X2942528Y-15686221D01*
X2942528Y-15686221D02*
X2952052Y-15705269D01*
X2952052Y-15705269D02*
X2952052Y-15810031D01*
X3047290Y-15810031D02*
X3047290Y-15676698D01*
X3047290Y-15695745D02*
X3056814Y-15686221D01*
X3056814Y-15686221D02*
X3075862Y-15676698D01*
X3075862Y-15676698D02*
X3104433Y-15676698D01*
X3104433Y-15676698D02*
X3123481Y-15686221D01*
X3123481Y-15686221D02*
X3133005Y-15705269D01*
X3133005Y-15705269D02*
X3133005Y-15810031D01*
X3133005Y-15705269D02*
X3142528Y-15686221D01*
X3142528Y-15686221D02*
X3161576Y-15676698D01*
X3161576Y-15676698D02*
X3190147Y-15676698D01*
X3190147Y-15676698D02*
X3209195Y-15686221D01*
X3209195Y-15686221D02*
X3218719Y-15705269D01*
X3218719Y-15705269D02*
X3218719Y-15810031D01*
X3609195Y-15600507D02*
X3437767Y-15857650D01*
X3866338Y-15610031D02*
X3885386Y-15610031D01*
X3885386Y-15610031D02*
X3904433Y-15619555D01*
X3904433Y-15619555D02*
X3913957Y-15629079D01*
X3913957Y-15629079D02*
X3923481Y-15648126D01*
X3923481Y-15648126D02*
X3933005Y-15686221D01*
X3933005Y-15686221D02*
X3933005Y-15733840D01*
X3933005Y-15733840D02*
X3923481Y-15771936D01*
X3923481Y-15771936D02*
X3913957Y-15790983D01*
X3913957Y-15790983D02*
X3904433Y-15800507D01*
X3904433Y-15800507D02*
X3885386Y-15810031D01*
X3885386Y-15810031D02*
X3866338Y-15810031D01*
X3866338Y-15810031D02*
X3847290Y-15800507D01*
X3847290Y-15800507D02*
X3837767Y-15790983D01*
X3837767Y-15790983D02*
X3828243Y-15771936D01*
X3828243Y-15771936D02*
X3818719Y-15733840D01*
X3818719Y-15733840D02*
X3818719Y-15686221D01*
X3818719Y-15686221D02*
X3828243Y-15648126D01*
X3828243Y-15648126D02*
X3837767Y-15629079D01*
X3837767Y-15629079D02*
X3847290Y-15619555D01*
X3847290Y-15619555D02*
X3866338Y-15610031D01*
X4018719Y-15790983D02*
X4028243Y-15800507D01*
X4028243Y-15800507D02*
X4018719Y-15810031D01*
X4018719Y-15810031D02*
X4009195Y-15800507D01*
X4009195Y-15800507D02*
X4018719Y-15790983D01*
X4018719Y-15790983D02*
X4018719Y-15810031D01*
X4152052Y-15610031D02*
X4171100Y-15610031D01*
X4171100Y-15610031D02*
X4190148Y-15619555D01*
X4190148Y-15619555D02*
X4199672Y-15629079D01*
X4199672Y-15629079D02*
X4209195Y-15648126D01*
X4209195Y-15648126D02*
X4218719Y-15686221D01*
X4218719Y-15686221D02*
X4218719Y-15733840D01*
X4218719Y-15733840D02*
X4209195Y-15771936D01*
X4209195Y-15771936D02*
X4199672Y-15790983D01*
X4199672Y-15790983D02*
X4190148Y-15800507D01*
X4190148Y-15800507D02*
X4171100Y-15810031D01*
X4171100Y-15810031D02*
X4152052Y-15810031D01*
X4152052Y-15810031D02*
X4133005Y-15800507D01*
X4133005Y-15800507D02*
X4123481Y-15790983D01*
X4123481Y-15790983D02*
X4113957Y-15771936D01*
X4113957Y-15771936D02*
X4104433Y-15733840D01*
X4104433Y-15733840D02*
X4104433Y-15686221D01*
X4104433Y-15686221D02*
X4113957Y-15648126D01*
X4113957Y-15648126D02*
X4123481Y-15629079D01*
X4123481Y-15629079D02*
X4133005Y-15619555D01*
X4133005Y-15619555D02*
X4152052Y-15610031D01*
X4390148Y-15676698D02*
X4390148Y-15810031D01*
X4342529Y-15600507D02*
X4294910Y-15743364D01*
X4294910Y-15743364D02*
X4418719Y-15743364D01*
X4475862Y-15610031D02*
X4599672Y-15610031D01*
X4599672Y-15610031D02*
X4533005Y-15686221D01*
X4533005Y-15686221D02*
X4561576Y-15686221D01*
X4561576Y-15686221D02*
X4580624Y-15695745D01*
X4580624Y-15695745D02*
X4590148Y-15705269D01*
X4590148Y-15705269D02*
X4599672Y-15724317D01*
X4599672Y-15724317D02*
X4599672Y-15771936D01*
X4599672Y-15771936D02*
X4590148Y-15790983D01*
X4590148Y-15790983D02*
X4580624Y-15800507D01*
X4580624Y-15800507D02*
X4561576Y-15810031D01*
X4561576Y-15810031D02*
X4504433Y-15810031D01*
X4504433Y-15810031D02*
X4485386Y-15800507D01*
X4485386Y-15800507D02*
X4475862Y-15790983D01*
X4723481Y-15610031D02*
X4742529Y-15610031D01*
X4742529Y-15610031D02*
X4761576Y-15619555D01*
X4761576Y-15619555D02*
X4771100Y-15629079D01*
X4771100Y-15629079D02*
X4780624Y-15648126D01*
X4780624Y-15648126D02*
X4790148Y-15686221D01*
X4790148Y-15686221D02*
X4790148Y-15733840D01*
X4790148Y-15733840D02*
X4780624Y-15771936D01*
X4780624Y-15771936D02*
X4771100Y-15790983D01*
X4771100Y-15790983D02*
X4761576Y-15800507D01*
X4761576Y-15800507D02*
X4742529Y-15810031D01*
X4742529Y-15810031D02*
X4723481Y-15810031D01*
X4723481Y-15810031D02*
X4704433Y-15800507D01*
X4704433Y-15800507D02*
X4694910Y-15790983D01*
X4694910Y-15790983D02*
X4685386Y-15771936D01*
X4685386Y-15771936D02*
X4675862Y-15733840D01*
X4675862Y-15733840D02*
X4675862Y-15686221D01*
X4675862Y-15686221D02*
X4685386Y-15648126D01*
X4685386Y-15648126D02*
X4694910Y-15629079D01*
X4694910Y-15629079D02*
X4704433Y-15619555D01*
X4704433Y-15619555D02*
X4723481Y-15610031D01*
X4866338Y-15610031D02*
X4866338Y-15648126D01*
X4942529Y-15610031D02*
X4942529Y-15648126D01*
X5237767Y-15886221D02*
X5228243Y-15876698D01*
X5228243Y-15876698D02*
X5209195Y-15848126D01*
X5209195Y-15848126D02*
X5199672Y-15829079D01*
X5199672Y-15829079D02*
X5190148Y-15800507D01*
X5190148Y-15800507D02*
X5180624Y-15752888D01*
X5180624Y-15752888D02*
X5180624Y-15714793D01*
X5180624Y-15714793D02*
X5190148Y-15667174D01*
X5190148Y-15667174D02*
X5199672Y-15638602D01*
X5199672Y-15638602D02*
X5209195Y-15619555D01*
X5209195Y-15619555D02*
X5228243Y-15590983D01*
X5228243Y-15590983D02*
X5237767Y-15581459D01*
X5304434Y-15629079D02*
X5313957Y-15619555D01*
X5313957Y-15619555D02*
X5333005Y-15610031D01*
X5333005Y-15610031D02*
X5380624Y-15610031D01*
X5380624Y-15610031D02*
X5399672Y-15619555D01*
X5399672Y-15619555D02*
X5409195Y-15629079D01*
X5409195Y-15629079D02*
X5418719Y-15648126D01*
X5418719Y-15648126D02*
X5418719Y-15667174D01*
X5418719Y-15667174D02*
X5409195Y-15695745D01*
X5409195Y-15695745D02*
X5294910Y-15810031D01*
X5294910Y-15810031D02*
X5418719Y-15810031D01*
X5513957Y-15810031D02*
X5552053Y-15810031D01*
X5552053Y-15810031D02*
X5571100Y-15800507D01*
X5571100Y-15800507D02*
X5580624Y-15790983D01*
X5580624Y-15790983D02*
X5599672Y-15762412D01*
X5599672Y-15762412D02*
X5609195Y-15724317D01*
X5609195Y-15724317D02*
X5609195Y-15648126D01*
X5609195Y-15648126D02*
X5599672Y-15629079D01*
X5599672Y-15629079D02*
X5590148Y-15619555D01*
X5590148Y-15619555D02*
X5571100Y-15610031D01*
X5571100Y-15610031D02*
X5533005Y-15610031D01*
X5533005Y-15610031D02*
X5513957Y-15619555D01*
X5513957Y-15619555D02*
X5504434Y-15629079D01*
X5504434Y-15629079D02*
X5494910Y-15648126D01*
X5494910Y-15648126D02*
X5494910Y-15695745D01*
X5494910Y-15695745D02*
X5504434Y-15714793D01*
X5504434Y-15714793D02*
X5513957Y-15724317D01*
X5513957Y-15724317D02*
X5533005Y-15733840D01*
X5533005Y-15733840D02*
X5571100Y-15733840D01*
X5571100Y-15733840D02*
X5590148Y-15724317D01*
X5590148Y-15724317D02*
X5599672Y-15714793D01*
X5599672Y-15714793D02*
X5609195Y-15695745D01*
X5847291Y-15810031D02*
X5847291Y-15610031D01*
X5933005Y-15810031D02*
X5933005Y-15705269D01*
X5933005Y-15705269D02*
X5923481Y-15686221D01*
X5923481Y-15686221D02*
X5904434Y-15676698D01*
X5904434Y-15676698D02*
X5875862Y-15676698D01*
X5875862Y-15676698D02*
X5856814Y-15686221D01*
X5856814Y-15686221D02*
X5847291Y-15695745D01*
X6056814Y-15810031D02*
X6037767Y-15800507D01*
X6037767Y-15800507D02*
X6028243Y-15790983D01*
X6028243Y-15790983D02*
X6018719Y-15771936D01*
X6018719Y-15771936D02*
X6018719Y-15714793D01*
X6018719Y-15714793D02*
X6028243Y-15695745D01*
X6028243Y-15695745D02*
X6037767Y-15686221D01*
X6037767Y-15686221D02*
X6056814Y-15676698D01*
X6056814Y-15676698D02*
X6085386Y-15676698D01*
X6085386Y-15676698D02*
X6104434Y-15686221D01*
X6104434Y-15686221D02*
X6113957Y-15695745D01*
X6113957Y-15695745D02*
X6123481Y-15714793D01*
X6123481Y-15714793D02*
X6123481Y-15771936D01*
X6123481Y-15771936D02*
X6113957Y-15790983D01*
X6113957Y-15790983D02*
X6104434Y-15800507D01*
X6104434Y-15800507D02*
X6085386Y-15810031D01*
X6085386Y-15810031D02*
X6056814Y-15810031D01*
X6237767Y-15810031D02*
X6218719Y-15800507D01*
X6218719Y-15800507D02*
X6209195Y-15781459D01*
X6209195Y-15781459D02*
X6209195Y-15610031D01*
X6390148Y-15800507D02*
X6371100Y-15810031D01*
X6371100Y-15810031D02*
X6333005Y-15810031D01*
X6333005Y-15810031D02*
X6313957Y-15800507D01*
X6313957Y-15800507D02*
X6304434Y-15781459D01*
X6304434Y-15781459D02*
X6304434Y-15705269D01*
X6304434Y-15705269D02*
X6313957Y-15686221D01*
X6313957Y-15686221D02*
X6333005Y-15676698D01*
X6333005Y-15676698D02*
X6371100Y-15676698D01*
X6371100Y-15676698D02*
X6390148Y-15686221D01*
X6390148Y-15686221D02*
X6399672Y-15705269D01*
X6399672Y-15705269D02*
X6399672Y-15724317D01*
X6399672Y-15724317D02*
X6304434Y-15743364D01*
X6475862Y-15800507D02*
X6494910Y-15810031D01*
X6494910Y-15810031D02*
X6533005Y-15810031D01*
X6533005Y-15810031D02*
X6552053Y-15800507D01*
X6552053Y-15800507D02*
X6561576Y-15781459D01*
X6561576Y-15781459D02*
X6561576Y-15771936D01*
X6561576Y-15771936D02*
X6552053Y-15752888D01*
X6552053Y-15752888D02*
X6533005Y-15743364D01*
X6533005Y-15743364D02*
X6504434Y-15743364D01*
X6504434Y-15743364D02*
X6485386Y-15733840D01*
X6485386Y-15733840D02*
X6475862Y-15714793D01*
X6475862Y-15714793D02*
X6475862Y-15705269D01*
X6475862Y-15705269D02*
X6485386Y-15686221D01*
X6485386Y-15686221D02*
X6504434Y-15676698D01*
X6504434Y-15676698D02*
X6533005Y-15676698D01*
X6533005Y-15676698D02*
X6552053Y-15686221D01*
X6628243Y-15886221D02*
X6637767Y-15876698D01*
X6637767Y-15876698D02*
X6656815Y-15848126D01*
X6656815Y-15848126D02*
X6666338Y-15829079D01*
X6666338Y-15829079D02*
X6675862Y-15800507D01*
X6675862Y-15800507D02*
X6685386Y-15752888D01*
X6685386Y-15752888D02*
X6685386Y-15714793D01*
X6685386Y-15714793D02*
X6675862Y-15667174D01*
X6675862Y-15667174D02*
X6666338Y-15638602D01*
X6666338Y-15638602D02*
X6656815Y-15619555D01*
X6656815Y-15619555D02*
X6637767Y-15590983D01*
X6637767Y-15590983D02*
X6628243Y-15581459D01*
D13*
X1599204Y-15919047D02*
X1599204Y-16046047D01*
X1535704Y-15982547D02*
X1662704Y-15982547D01*
D11*
X2028243Y-16074031D02*
X1913957Y-16074031D01*
X1971100Y-16074031D02*
X1971100Y-15874031D01*
X1971100Y-15874031D02*
X1952052Y-15902602D01*
X1952052Y-15902602D02*
X1933005Y-15921650D01*
X1933005Y-15921650D02*
X1913957Y-15931174D01*
X2113957Y-16054983D02*
X2123481Y-16064507D01*
X2123481Y-16064507D02*
X2113957Y-16074031D01*
X2113957Y-16074031D02*
X2104433Y-16064507D01*
X2104433Y-16064507D02*
X2113957Y-16054983D01*
X2113957Y-16054983D02*
X2113957Y-16074031D01*
X2199671Y-15893079D02*
X2209195Y-15883555D01*
X2209195Y-15883555D02*
X2228243Y-15874031D01*
X2228243Y-15874031D02*
X2275862Y-15874031D01*
X2275862Y-15874031D02*
X2294909Y-15883555D01*
X2294909Y-15883555D02*
X2304433Y-15893079D01*
X2304433Y-15893079D02*
X2313957Y-15912126D01*
X2313957Y-15912126D02*
X2313957Y-15931174D01*
X2313957Y-15931174D02*
X2304433Y-15959745D01*
X2304433Y-15959745D02*
X2190148Y-16074031D01*
X2190148Y-16074031D02*
X2313957Y-16074031D01*
X2380624Y-15874031D02*
X2513957Y-15874031D01*
X2513957Y-15874031D02*
X2428243Y-16074031D01*
X2628243Y-15874031D02*
X2647290Y-15874031D01*
X2647290Y-15874031D02*
X2666338Y-15883555D01*
X2666338Y-15883555D02*
X2675862Y-15893079D01*
X2675862Y-15893079D02*
X2685386Y-15912126D01*
X2685386Y-15912126D02*
X2694909Y-15950221D01*
X2694909Y-15950221D02*
X2694909Y-15997840D01*
X2694909Y-15997840D02*
X2685386Y-16035936D01*
X2685386Y-16035936D02*
X2675862Y-16054983D01*
X2675862Y-16054983D02*
X2666338Y-16064507D01*
X2666338Y-16064507D02*
X2647290Y-16074031D01*
X2647290Y-16074031D02*
X2628243Y-16074031D01*
X2628243Y-16074031D02*
X2609195Y-16064507D01*
X2609195Y-16064507D02*
X2599671Y-16054983D01*
X2599671Y-16054983D02*
X2590148Y-16035936D01*
X2590148Y-16035936D02*
X2580624Y-15997840D01*
X2580624Y-15997840D02*
X2580624Y-15950221D01*
X2580624Y-15950221D02*
X2590148Y-15912126D01*
X2590148Y-15912126D02*
X2599671Y-15893079D01*
X2599671Y-15893079D02*
X2609195Y-15883555D01*
X2609195Y-15883555D02*
X2628243Y-15874031D01*
X2780624Y-16074031D02*
X2780624Y-15940698D01*
X2780624Y-15959745D02*
X2790148Y-15950221D01*
X2790148Y-15950221D02*
X2809195Y-15940698D01*
X2809195Y-15940698D02*
X2837767Y-15940698D01*
X2837767Y-15940698D02*
X2856814Y-15950221D01*
X2856814Y-15950221D02*
X2866338Y-15969269D01*
X2866338Y-15969269D02*
X2866338Y-16074031D01*
X2866338Y-15969269D02*
X2875862Y-15950221D01*
X2875862Y-15950221D02*
X2894909Y-15940698D01*
X2894909Y-15940698D02*
X2923481Y-15940698D01*
X2923481Y-15940698D02*
X2942528Y-15950221D01*
X2942528Y-15950221D02*
X2952052Y-15969269D01*
X2952052Y-15969269D02*
X2952052Y-16074031D01*
X3047290Y-16074031D02*
X3047290Y-15940698D01*
X3047290Y-15959745D02*
X3056814Y-15950221D01*
X3056814Y-15950221D02*
X3075862Y-15940698D01*
X3075862Y-15940698D02*
X3104433Y-15940698D01*
X3104433Y-15940698D02*
X3123481Y-15950221D01*
X3123481Y-15950221D02*
X3133005Y-15969269D01*
X3133005Y-15969269D02*
X3133005Y-16074031D01*
X3133005Y-15969269D02*
X3142528Y-15950221D01*
X3142528Y-15950221D02*
X3161576Y-15940698D01*
X3161576Y-15940698D02*
X3190147Y-15940698D01*
X3190147Y-15940698D02*
X3209195Y-15950221D01*
X3209195Y-15950221D02*
X3218719Y-15969269D01*
X3218719Y-15969269D02*
X3218719Y-16074031D01*
X3609195Y-15864507D02*
X3437767Y-16121650D01*
X3866338Y-15874031D02*
X3885386Y-15874031D01*
X3885386Y-15874031D02*
X3904433Y-15883555D01*
X3904433Y-15883555D02*
X3913957Y-15893079D01*
X3913957Y-15893079D02*
X3923481Y-15912126D01*
X3923481Y-15912126D02*
X3933005Y-15950221D01*
X3933005Y-15950221D02*
X3933005Y-15997840D01*
X3933005Y-15997840D02*
X3923481Y-16035936D01*
X3923481Y-16035936D02*
X3913957Y-16054983D01*
X3913957Y-16054983D02*
X3904433Y-16064507D01*
X3904433Y-16064507D02*
X3885386Y-16074031D01*
X3885386Y-16074031D02*
X3866338Y-16074031D01*
X3866338Y-16074031D02*
X3847290Y-16064507D01*
X3847290Y-16064507D02*
X3837767Y-16054983D01*
X3837767Y-16054983D02*
X3828243Y-16035936D01*
X3828243Y-16035936D02*
X3818719Y-15997840D01*
X3818719Y-15997840D02*
X3818719Y-15950221D01*
X3818719Y-15950221D02*
X3828243Y-15912126D01*
X3828243Y-15912126D02*
X3837767Y-15893079D01*
X3837767Y-15893079D02*
X3847290Y-15883555D01*
X3847290Y-15883555D02*
X3866338Y-15874031D01*
X4018719Y-16054983D02*
X4028243Y-16064507D01*
X4028243Y-16064507D02*
X4018719Y-16074031D01*
X4018719Y-16074031D02*
X4009195Y-16064507D01*
X4009195Y-16064507D02*
X4018719Y-16054983D01*
X4018719Y-16054983D02*
X4018719Y-16074031D01*
X4152052Y-15874031D02*
X4171100Y-15874031D01*
X4171100Y-15874031D02*
X4190148Y-15883555D01*
X4190148Y-15883555D02*
X4199672Y-15893079D01*
X4199672Y-15893079D02*
X4209195Y-15912126D01*
X4209195Y-15912126D02*
X4218719Y-15950221D01*
X4218719Y-15950221D02*
X4218719Y-15997840D01*
X4218719Y-15997840D02*
X4209195Y-16035936D01*
X4209195Y-16035936D02*
X4199672Y-16054983D01*
X4199672Y-16054983D02*
X4190148Y-16064507D01*
X4190148Y-16064507D02*
X4171100Y-16074031D01*
X4171100Y-16074031D02*
X4152052Y-16074031D01*
X4152052Y-16074031D02*
X4133005Y-16064507D01*
X4133005Y-16064507D02*
X4123481Y-16054983D01*
X4123481Y-16054983D02*
X4113957Y-16035936D01*
X4113957Y-16035936D02*
X4104433Y-15997840D01*
X4104433Y-15997840D02*
X4104433Y-15950221D01*
X4104433Y-15950221D02*
X4113957Y-15912126D01*
X4113957Y-15912126D02*
X4123481Y-15893079D01*
X4123481Y-15893079D02*
X4133005Y-15883555D01*
X4133005Y-15883555D02*
X4152052Y-15874031D01*
X4399672Y-15874031D02*
X4304433Y-15874031D01*
X4304433Y-15874031D02*
X4294910Y-15969269D01*
X4294910Y-15969269D02*
X4304433Y-15959745D01*
X4304433Y-15959745D02*
X4323481Y-15950221D01*
X4323481Y-15950221D02*
X4371100Y-15950221D01*
X4371100Y-15950221D02*
X4390148Y-15959745D01*
X4390148Y-15959745D02*
X4399672Y-15969269D01*
X4399672Y-15969269D02*
X4409195Y-15988317D01*
X4409195Y-15988317D02*
X4409195Y-16035936D01*
X4409195Y-16035936D02*
X4399672Y-16054983D01*
X4399672Y-16054983D02*
X4390148Y-16064507D01*
X4390148Y-16064507D02*
X4371100Y-16074031D01*
X4371100Y-16074031D02*
X4323481Y-16074031D01*
X4323481Y-16074031D02*
X4304433Y-16064507D01*
X4304433Y-16064507D02*
X4294910Y-16054983D01*
X4533005Y-15874031D02*
X4552053Y-15874031D01*
X4552053Y-15874031D02*
X4571100Y-15883555D01*
X4571100Y-15883555D02*
X4580624Y-15893079D01*
X4580624Y-15893079D02*
X4590148Y-15912126D01*
X4590148Y-15912126D02*
X4599672Y-15950221D01*
X4599672Y-15950221D02*
X4599672Y-15997840D01*
X4599672Y-15997840D02*
X4590148Y-16035936D01*
X4590148Y-16035936D02*
X4580624Y-16054983D01*
X4580624Y-16054983D02*
X4571100Y-16064507D01*
X4571100Y-16064507D02*
X4552053Y-16074031D01*
X4552053Y-16074031D02*
X4533005Y-16074031D01*
X4533005Y-16074031D02*
X4513957Y-16064507D01*
X4513957Y-16064507D02*
X4504433Y-16054983D01*
X4504433Y-16054983D02*
X4494910Y-16035936D01*
X4494910Y-16035936D02*
X4485386Y-15997840D01*
X4485386Y-15997840D02*
X4485386Y-15950221D01*
X4485386Y-15950221D02*
X4494910Y-15912126D01*
X4494910Y-15912126D02*
X4504433Y-15893079D01*
X4504433Y-15893079D02*
X4513957Y-15883555D01*
X4513957Y-15883555D02*
X4533005Y-15874031D01*
X4723481Y-15874031D02*
X4742529Y-15874031D01*
X4742529Y-15874031D02*
X4761576Y-15883555D01*
X4761576Y-15883555D02*
X4771100Y-15893079D01*
X4771100Y-15893079D02*
X4780624Y-15912126D01*
X4780624Y-15912126D02*
X4790148Y-15950221D01*
X4790148Y-15950221D02*
X4790148Y-15997840D01*
X4790148Y-15997840D02*
X4780624Y-16035936D01*
X4780624Y-16035936D02*
X4771100Y-16054983D01*
X4771100Y-16054983D02*
X4761576Y-16064507D01*
X4761576Y-16064507D02*
X4742529Y-16074031D01*
X4742529Y-16074031D02*
X4723481Y-16074031D01*
X4723481Y-16074031D02*
X4704433Y-16064507D01*
X4704433Y-16064507D02*
X4694910Y-16054983D01*
X4694910Y-16054983D02*
X4685386Y-16035936D01*
X4685386Y-16035936D02*
X4675862Y-15997840D01*
X4675862Y-15997840D02*
X4675862Y-15950221D01*
X4675862Y-15950221D02*
X4685386Y-15912126D01*
X4685386Y-15912126D02*
X4694910Y-15893079D01*
X4694910Y-15893079D02*
X4704433Y-15883555D01*
X4704433Y-15883555D02*
X4723481Y-15874031D01*
X4866338Y-15874031D02*
X4866338Y-15912126D01*
X4942529Y-15874031D02*
X4942529Y-15912126D01*
X5237767Y-16150221D02*
X5228243Y-16140698D01*
X5228243Y-16140698D02*
X5209195Y-16112126D01*
X5209195Y-16112126D02*
X5199672Y-16093079D01*
X5199672Y-16093079D02*
X5190148Y-16064507D01*
X5190148Y-16064507D02*
X5180624Y-16016888D01*
X5180624Y-16016888D02*
X5180624Y-15978793D01*
X5180624Y-15978793D02*
X5190148Y-15931174D01*
X5190148Y-15931174D02*
X5199672Y-15902602D01*
X5199672Y-15902602D02*
X5209195Y-15883555D01*
X5209195Y-15883555D02*
X5228243Y-15854983D01*
X5228243Y-15854983D02*
X5237767Y-15845459D01*
X5342529Y-15959745D02*
X5323481Y-15950221D01*
X5323481Y-15950221D02*
X5313957Y-15940698D01*
X5313957Y-15940698D02*
X5304434Y-15921650D01*
X5304434Y-15921650D02*
X5304434Y-15912126D01*
X5304434Y-15912126D02*
X5313957Y-15893079D01*
X5313957Y-15893079D02*
X5323481Y-15883555D01*
X5323481Y-15883555D02*
X5342529Y-15874031D01*
X5342529Y-15874031D02*
X5380624Y-15874031D01*
X5380624Y-15874031D02*
X5399672Y-15883555D01*
X5399672Y-15883555D02*
X5409195Y-15893079D01*
X5409195Y-15893079D02*
X5418719Y-15912126D01*
X5418719Y-15912126D02*
X5418719Y-15921650D01*
X5418719Y-15921650D02*
X5409195Y-15940698D01*
X5409195Y-15940698D02*
X5399672Y-15950221D01*
X5399672Y-15950221D02*
X5380624Y-15959745D01*
X5380624Y-15959745D02*
X5342529Y-15959745D01*
X5342529Y-15959745D02*
X5323481Y-15969269D01*
X5323481Y-15969269D02*
X5313957Y-15978793D01*
X5313957Y-15978793D02*
X5304434Y-15997840D01*
X5304434Y-15997840D02*
X5304434Y-16035936D01*
X5304434Y-16035936D02*
X5313957Y-16054983D01*
X5313957Y-16054983D02*
X5323481Y-16064507D01*
X5323481Y-16064507D02*
X5342529Y-16074031D01*
X5342529Y-16074031D02*
X5380624Y-16074031D01*
X5380624Y-16074031D02*
X5399672Y-16064507D01*
X5399672Y-16064507D02*
X5409195Y-16054983D01*
X5409195Y-16054983D02*
X5418719Y-16035936D01*
X5418719Y-16035936D02*
X5418719Y-15997840D01*
X5418719Y-15997840D02*
X5409195Y-15978793D01*
X5409195Y-15978793D02*
X5399672Y-15969269D01*
X5399672Y-15969269D02*
X5380624Y-15959745D01*
X5590148Y-15940698D02*
X5590148Y-16074031D01*
X5542529Y-15864507D02*
X5494910Y-16007364D01*
X5494910Y-16007364D02*
X5618719Y-16007364D01*
X5847291Y-16074031D02*
X5847291Y-15874031D01*
X5933005Y-16074031D02*
X5933005Y-15969269D01*
X5933005Y-15969269D02*
X5923481Y-15950221D01*
X5923481Y-15950221D02*
X5904434Y-15940698D01*
X5904434Y-15940698D02*
X5875862Y-15940698D01*
X5875862Y-15940698D02*
X5856814Y-15950221D01*
X5856814Y-15950221D02*
X5847291Y-15959745D01*
X6056814Y-16074031D02*
X6037767Y-16064507D01*
X6037767Y-16064507D02*
X6028243Y-16054983D01*
X6028243Y-16054983D02*
X6018719Y-16035936D01*
X6018719Y-16035936D02*
X6018719Y-15978793D01*
X6018719Y-15978793D02*
X6028243Y-15959745D01*
X6028243Y-15959745D02*
X6037767Y-15950221D01*
X6037767Y-15950221D02*
X6056814Y-15940698D01*
X6056814Y-15940698D02*
X6085386Y-15940698D01*
X6085386Y-15940698D02*
X6104434Y-15950221D01*
X6104434Y-15950221D02*
X6113957Y-15959745D01*
X6113957Y-15959745D02*
X6123481Y-15978793D01*
X6123481Y-15978793D02*
X6123481Y-16035936D01*
X6123481Y-16035936D02*
X6113957Y-16054983D01*
X6113957Y-16054983D02*
X6104434Y-16064507D01*
X6104434Y-16064507D02*
X6085386Y-16074031D01*
X6085386Y-16074031D02*
X6056814Y-16074031D01*
X6237767Y-16074031D02*
X6218719Y-16064507D01*
X6218719Y-16064507D02*
X6209195Y-16045459D01*
X6209195Y-16045459D02*
X6209195Y-15874031D01*
X6390148Y-16064507D02*
X6371100Y-16074031D01*
X6371100Y-16074031D02*
X6333005Y-16074031D01*
X6333005Y-16074031D02*
X6313957Y-16064507D01*
X6313957Y-16064507D02*
X6304434Y-16045459D01*
X6304434Y-16045459D02*
X6304434Y-15969269D01*
X6304434Y-15969269D02*
X6313957Y-15950221D01*
X6313957Y-15950221D02*
X6333005Y-15940698D01*
X6333005Y-15940698D02*
X6371100Y-15940698D01*
X6371100Y-15940698D02*
X6390148Y-15950221D01*
X6390148Y-15950221D02*
X6399672Y-15969269D01*
X6399672Y-15969269D02*
X6399672Y-15988317D01*
X6399672Y-15988317D02*
X6304434Y-16007364D01*
X6475862Y-16064507D02*
X6494910Y-16074031D01*
X6494910Y-16074031D02*
X6533005Y-16074031D01*
X6533005Y-16074031D02*
X6552053Y-16064507D01*
X6552053Y-16064507D02*
X6561576Y-16045459D01*
X6561576Y-16045459D02*
X6561576Y-16035936D01*
X6561576Y-16035936D02*
X6552053Y-16016888D01*
X6552053Y-16016888D02*
X6533005Y-16007364D01*
X6533005Y-16007364D02*
X6504434Y-16007364D01*
X6504434Y-16007364D02*
X6485386Y-15997840D01*
X6485386Y-15997840D02*
X6475862Y-15978793D01*
X6475862Y-15978793D02*
X6475862Y-15969269D01*
X6475862Y-15969269D02*
X6485386Y-15950221D01*
X6485386Y-15950221D02*
X6504434Y-15940698D01*
X6504434Y-15940698D02*
X6533005Y-15940698D01*
X6533005Y-15940698D02*
X6552053Y-15950221D01*
X6628243Y-16150221D02*
X6637767Y-16140698D01*
X6637767Y-16140698D02*
X6656815Y-16112126D01*
X6656815Y-16112126D02*
X6666338Y-16093079D01*
X6666338Y-16093079D02*
X6675862Y-16064507D01*
X6675862Y-16064507D02*
X6685386Y-16016888D01*
X6685386Y-16016888D02*
X6685386Y-15978793D01*
X6685386Y-15978793D02*
X6675862Y-15931174D01*
X6675862Y-15931174D02*
X6666338Y-15902602D01*
X6666338Y-15902602D02*
X6656815Y-15883555D01*
X6656815Y-15883555D02*
X6637767Y-15854983D01*
X6637767Y-15854983D02*
X6628243Y-15845459D01*
M02*
