G04 #@! TF.GenerationSoftware,KiCad,Pcbnew,8.0.4*
G04 #@! TF.CreationDate,2024-08-25T14:32:18+07:00*
G04 #@! TF.ProjectId,ozprey,6f7a7072-6579-42e6-9b69-6361645f7063,1.0*
G04 #@! TF.SameCoordinates,Original*
G04 #@! TF.FileFunction,Soldermask,Top*
G04 #@! TF.FilePolarity,Negative*
%FSLAX46Y46*%
G04 Gerber Fmt 4.6, Leading zero omitted, Abs format (unit mm)*
G04 Created by KiCad (PCBNEW 8.0.4) date 2024-08-25 14:32:18*
%MOMM*%
%LPD*%
G01*
G04 APERTURE LIST*
%ADD10C,0.900000*%
%ADD11R,1.700000X1.000000*%
%ADD12C,1.701800*%
%ADD13C,3.000000*%
%ADD14C,3.429000*%
%ADD15C,2.032000*%
%ADD16C,1.752600*%
G04 APERTURE END LIST*
D10*
G04 #@! TO.C,SW_PWR1*
X162065500Y-30547800D03*
X165065500Y-30547800D03*
G04 #@! TD*
D11*
G04 #@! TO.C,SW_RST1*
X137365500Y-34277832D03*
X131065500Y-34277832D03*
X137365500Y-30477832D03*
X131065500Y-30477832D03*
G04 #@! TD*
D12*
G04 #@! TO.C,SW13*
X74804889Y-88365807D03*
D13*
X81874351Y-84406614D03*
D14*
X80035700Y-90065400D03*
D13*
X85949796Y-88044023D03*
D12*
X85266511Y-91764993D03*
D15*
X78212500Y-95676633D03*
X74106153Y-92134330D03*
G04 #@! TD*
D12*
G04 #@! TO.C,SW17*
X90626089Y-97922607D03*
D13*
X97695551Y-93963414D03*
D14*
X95856900Y-99622200D03*
D13*
X101770996Y-97600823D03*
D12*
X101087711Y-101321793D03*
D15*
X94033700Y-105233433D03*
X89927353Y-101691130D03*
G04 #@! TD*
D12*
G04 #@! TO.C,SW21*
X110726989Y-108869907D03*
D13*
X117796451Y-104910714D03*
D14*
X115957800Y-110569500D03*
D13*
X121871896Y-108548123D03*
D12*
X121188611Y-112269093D03*
D15*
X114134600Y-116180733D03*
X110028253Y-112638430D03*
G04 #@! TD*
D12*
G04 #@! TO.C,SW25*
X177060789Y-112269093D03*
D13*
X180452949Y-104910714D03*
D14*
X182291600Y-110569500D03*
D13*
X185888069Y-105457953D03*
D12*
X187522411Y-108869907D03*
D15*
X184114800Y-116180733D03*
X178710582Y-115728600D03*
G04 #@! TD*
D12*
G04 #@! TO.C,SW29*
X197161689Y-101321793D03*
D13*
X200553849Y-93963414D03*
D14*
X202392500Y-99622200D03*
D13*
X205988969Y-94510653D03*
D12*
X207623311Y-97922607D03*
D15*
X204215700Y-105233433D03*
X198811482Y-104781300D03*
G04 #@! TD*
G04 #@! TO.C,SW33*
X214632582Y-95224500D03*
X220036800Y-95676633D03*
D12*
X223444411Y-88365807D03*
D13*
X221810069Y-84953853D03*
D14*
X218213600Y-90065400D03*
D13*
X216374949Y-84406614D03*
D12*
X212982789Y-91764993D03*
G04 #@! TD*
G04 #@! TO.C,SW3*
X24807489Y-67494307D03*
D13*
X31876951Y-63535114D03*
D14*
X30038300Y-69193900D03*
D13*
X35952396Y-67172523D03*
D12*
X35269111Y-70893493D03*
D15*
X28215100Y-74805133D03*
X24108753Y-71262830D03*
G04 #@! TD*
D12*
G04 #@! TO.C,SW6*
X43224389Y-69062107D03*
D13*
X50293851Y-65102914D03*
D14*
X48455200Y-70761700D03*
D13*
X54369296Y-68740323D03*
D12*
X53686011Y-72461293D03*
D15*
X46632000Y-76372933D03*
X42525653Y-72830630D03*
G04 #@! TD*
D12*
G04 #@! TO.C,SW9*
X61641289Y-70630007D03*
D13*
X68710751Y-66670814D03*
D14*
X66872100Y-72329600D03*
D13*
X72786196Y-70308223D03*
D12*
X72102911Y-74029193D03*
D15*
X65048900Y-77940833D03*
X60942553Y-74398530D03*
G04 #@! TD*
D12*
G04 #@! TO.C,SW12*
X80058189Y-72197907D03*
D13*
X87127651Y-68238714D03*
D14*
X85289000Y-73897500D03*
D13*
X91203096Y-71876123D03*
D12*
X90519811Y-75597093D03*
D15*
X83465800Y-79508733D03*
X79359453Y-75966430D03*
G04 #@! TD*
D12*
G04 #@! TO.C,SW16*
X95879289Y-81754607D03*
D13*
X102948751Y-77795414D03*
D14*
X101110100Y-83454200D03*
D13*
X107024196Y-81432823D03*
D12*
X106340911Y-85153793D03*
D15*
X99286900Y-89065433D03*
X95180553Y-85523130D03*
G04 #@! TD*
D12*
G04 #@! TO.C,SW20*
X111700489Y-91311407D03*
D13*
X118769951Y-87352214D03*
D14*
X116931300Y-93011000D03*
D13*
X122845396Y-90989623D03*
D12*
X122162111Y-94710593D03*
D15*
X115108100Y-98622233D03*
X111001753Y-95079930D03*
G04 #@! TD*
D12*
G04 #@! TO.C,SW24*
X176087289Y-94710593D03*
D13*
X179479449Y-87352214D03*
D14*
X181318100Y-93011000D03*
D13*
X184914569Y-87899453D03*
D12*
X186548911Y-91311407D03*
D15*
X183141300Y-98622233D03*
X177737082Y-98170100D03*
G04 #@! TD*
D12*
G04 #@! TO.C,SW28*
X191908389Y-85153793D03*
D13*
X195300549Y-77795414D03*
D14*
X197139200Y-83454200D03*
D13*
X200735669Y-78342653D03*
D12*
X202370011Y-81754607D03*
D15*
X198962400Y-89065433D03*
X193558182Y-88613300D03*
G04 #@! TD*
D12*
G04 #@! TO.C,SW32*
X207729489Y-75597093D03*
D13*
X211121649Y-68238714D03*
D14*
X212960300Y-73897500D03*
D13*
X216556769Y-68785953D03*
D12*
X218191111Y-72197907D03*
D15*
X214783500Y-79508733D03*
X209379282Y-79056600D03*
G04 #@! TD*
D12*
G04 #@! TO.C,SW36*
X226146389Y-74029193D03*
D13*
X229538549Y-66670814D03*
D14*
X231377200Y-72329600D03*
D13*
X234973669Y-67218053D03*
D12*
X236608011Y-70630007D03*
D15*
X233200400Y-77940833D03*
X227796182Y-77488700D03*
G04 #@! TD*
D12*
G04 #@! TO.C,SW39*
X244563289Y-72461293D03*
D13*
X247955449Y-65102914D03*
D14*
X249794100Y-70761700D03*
D13*
X253390569Y-65650153D03*
D12*
X255024911Y-69062107D03*
D15*
X251617300Y-76372933D03*
X246213082Y-75920800D03*
G04 #@! TD*
D12*
G04 #@! TO.C,SW42*
X262980189Y-70893493D03*
D13*
X266372349Y-63535114D03*
D14*
X268211000Y-69193900D03*
D13*
X271807469Y-64082353D03*
D12*
X273441811Y-67494307D03*
D15*
X270034200Y-74805133D03*
X264629982Y-74353000D03*
G04 #@! TD*
D12*
G04 #@! TO.C,SW2*
X30060789Y-51326307D03*
D13*
X37130251Y-47367114D03*
D14*
X35291600Y-53025900D03*
D13*
X41205696Y-51004523D03*
D12*
X40522411Y-54725493D03*
D15*
X33468400Y-58637133D03*
X29362053Y-55094830D03*
G04 #@! TD*
D12*
G04 #@! TO.C,SW5*
X48477689Y-52894207D03*
D13*
X55547151Y-48935014D03*
D14*
X53708500Y-54593800D03*
D13*
X59622596Y-52572423D03*
D12*
X58939311Y-56293393D03*
D15*
X51885300Y-60205033D03*
X47778953Y-56662730D03*
G04 #@! TD*
D12*
G04 #@! TO.C,SW8*
X66894589Y-54462007D03*
D13*
X73964051Y-50502814D03*
D14*
X72125400Y-56161600D03*
D13*
X78039496Y-54140223D03*
D12*
X77356211Y-57861193D03*
D15*
X70302200Y-61772833D03*
X66195853Y-58230530D03*
G04 #@! TD*
D12*
G04 #@! TO.C,SW11*
X85311489Y-56029907D03*
D13*
X92380951Y-52070714D03*
D14*
X90542300Y-57729500D03*
D13*
X96456396Y-55708123D03*
D12*
X95773111Y-59429093D03*
D15*
X88719100Y-63340733D03*
X84612753Y-59798430D03*
G04 #@! TD*
D12*
G04 #@! TO.C,SW15*
X101132589Y-65586707D03*
D13*
X108202051Y-61627514D03*
D14*
X106363400Y-67286300D03*
D13*
X112277496Y-65264923D03*
D12*
X111594211Y-68985893D03*
D15*
X104540200Y-72897533D03*
X100433853Y-69355230D03*
G04 #@! TD*
D12*
G04 #@! TO.C,SW19*
X116953789Y-75143407D03*
D13*
X124023251Y-71184214D03*
D14*
X122184600Y-76843000D03*
D13*
X128098696Y-74821623D03*
D12*
X127415411Y-78542593D03*
D15*
X120361400Y-82454233D03*
X116255053Y-78911930D03*
G04 #@! TD*
D12*
G04 #@! TO.C,SW23*
X170833989Y-78542593D03*
D13*
X174226149Y-71184214D03*
D14*
X176064800Y-76843000D03*
D13*
X179661269Y-71731453D03*
D12*
X181295611Y-75143407D03*
D15*
X177888000Y-82454233D03*
X172483782Y-82002100D03*
G04 #@! TD*
D12*
G04 #@! TO.C,SW27*
X186655089Y-68985893D03*
D13*
X190047249Y-61627514D03*
D14*
X191885900Y-67286300D03*
D13*
X195482369Y-62174753D03*
D12*
X197116711Y-65586707D03*
D15*
X193709100Y-72897533D03*
X188304882Y-72445400D03*
G04 #@! TD*
D12*
G04 #@! TO.C,SW31*
X202476289Y-59429093D03*
D13*
X205868449Y-52070714D03*
D14*
X207707100Y-57729500D03*
D13*
X211303569Y-52617953D03*
D12*
X212937911Y-56029907D03*
D15*
X209530300Y-63340733D03*
X204126082Y-62888600D03*
G04 #@! TD*
D12*
G04 #@! TO.C,SW35*
X220893089Y-57861193D03*
D13*
X224285249Y-50502814D03*
D14*
X226123900Y-56161600D03*
D13*
X229720369Y-51050053D03*
D12*
X231354711Y-54462007D03*
D15*
X227947100Y-61772833D03*
X222542882Y-61320700D03*
G04 #@! TD*
D12*
G04 #@! TO.C,SW38*
X239309989Y-56293393D03*
D13*
X242702149Y-48935014D03*
D14*
X244540800Y-54593800D03*
D13*
X248137269Y-49482253D03*
D12*
X249771611Y-52894207D03*
D15*
X246364000Y-60205033D03*
X240959782Y-59752900D03*
G04 #@! TD*
D12*
G04 #@! TO.C,SW41*
X257726889Y-54725493D03*
D13*
X261119049Y-47367114D03*
D14*
X262957700Y-53025900D03*
D13*
X266554169Y-47914353D03*
D12*
X268188511Y-51326307D03*
D15*
X264780900Y-58637133D03*
X259376682Y-58185000D03*
G04 #@! TD*
G04 #@! TO.C,SW1*
X34615353Y-38926830D03*
X38721700Y-42469133D03*
D12*
X45775711Y-38557493D03*
D13*
X46458996Y-34836523D03*
D14*
X40544900Y-36857900D03*
D13*
X42383551Y-31199114D03*
D12*
X35314089Y-35158307D03*
G04 #@! TD*
G04 #@! TO.C,SW4*
X53730989Y-36726207D03*
D13*
X60800451Y-32767014D03*
D14*
X58961800Y-38425800D03*
D13*
X64875896Y-36404423D03*
D12*
X64192611Y-40125393D03*
D15*
X57138600Y-44037033D03*
X53032253Y-40494730D03*
G04 #@! TD*
D12*
G04 #@! TO.C,SW7*
X72147889Y-38294107D03*
D13*
X79217351Y-34334914D03*
D14*
X77378700Y-39993700D03*
D13*
X83292796Y-37972323D03*
D12*
X82609511Y-41693293D03*
D15*
X75555500Y-45604933D03*
X71449153Y-42062630D03*
G04 #@! TD*
D12*
G04 #@! TO.C,SW10*
X90564789Y-39862007D03*
D13*
X97634251Y-35902814D03*
D14*
X95795600Y-41561600D03*
D13*
X101709696Y-39540223D03*
D12*
X101026411Y-43261193D03*
D15*
X93972400Y-47172833D03*
X89866053Y-43630530D03*
G04 #@! TD*
D12*
G04 #@! TO.C,SW14*
X106385889Y-49418707D03*
D13*
X113455351Y-45459514D03*
D14*
X111616700Y-51118300D03*
D13*
X117530796Y-49096923D03*
D12*
X116847511Y-52817893D03*
D15*
X109793500Y-56729533D03*
X105687153Y-53187230D03*
G04 #@! TD*
D12*
G04 #@! TO.C,SW18*
X122207089Y-58975407D03*
D13*
X129276551Y-55016214D03*
D14*
X127437900Y-60675000D03*
D13*
X133351996Y-58653623D03*
D12*
X132668711Y-62374593D03*
D15*
X125614700Y-66286233D03*
X121508353Y-62743930D03*
G04 #@! TD*
D12*
G04 #@! TO.C,SW22*
X165580689Y-62374593D03*
D13*
X168972849Y-55016214D03*
D14*
X170811500Y-60675000D03*
D13*
X174407969Y-55563453D03*
D12*
X176042311Y-58975407D03*
D15*
X172634700Y-66286233D03*
X167230482Y-65834100D03*
G04 #@! TD*
D12*
G04 #@! TO.C,SW26*
X181401789Y-52817893D03*
D13*
X184793949Y-45459514D03*
D14*
X186632600Y-51118300D03*
D13*
X190229069Y-46006753D03*
D12*
X191863411Y-49418707D03*
D15*
X188455800Y-56729533D03*
X183051582Y-56277400D03*
G04 #@! TD*
D12*
G04 #@! TO.C,SW30*
X197222989Y-43261193D03*
D13*
X200615149Y-35902814D03*
D14*
X202453800Y-41561600D03*
D13*
X206050269Y-36450053D03*
D12*
X207684611Y-39862007D03*
D15*
X204277000Y-47172833D03*
X198872782Y-46720700D03*
G04 #@! TD*
D12*
G04 #@! TO.C,SW34*
X215639889Y-41693293D03*
D13*
X219032049Y-34334914D03*
D14*
X220870700Y-39993700D03*
D13*
X224467169Y-34882153D03*
D12*
X226101511Y-38294107D03*
D15*
X222693900Y-45604933D03*
X217289682Y-45152800D03*
G04 #@! TD*
D12*
G04 #@! TO.C,SW37*
X234056689Y-40125393D03*
D13*
X237448849Y-32767014D03*
D14*
X239287500Y-38425800D03*
D13*
X242883969Y-33314253D03*
D12*
X244518311Y-36726207D03*
D15*
X241110700Y-44037033D03*
X235706482Y-43584900D03*
G04 #@! TD*
D12*
G04 #@! TO.C,SW40*
X252473589Y-38557493D03*
D13*
X255865749Y-31199114D03*
D14*
X257704400Y-36857900D03*
D13*
X261300869Y-31746353D03*
D12*
X262935211Y-35158307D03*
D15*
X259527600Y-42469133D03*
X254123382Y-42017000D03*
G04 #@! TD*
D16*
G04 #@! TO.C,U1*
X149215500Y-55767800D03*
X146675500Y-55767800D03*
X144135500Y-55767800D03*
X141595500Y-30367800D03*
X156835500Y-30367800D03*
X156835500Y-32907800D03*
X141595500Y-60847800D03*
X156835500Y-35447800D03*
X156835500Y-37987800D03*
X156835500Y-40527800D03*
X156835500Y-43067800D03*
X156835500Y-45607800D03*
X156835500Y-48147800D03*
X156835500Y-50687800D03*
X156835500Y-53227800D03*
X156835500Y-55767800D03*
X156835500Y-58307800D03*
X156835500Y-60847800D03*
X141595500Y-58307800D03*
X141595500Y-55767800D03*
X141595500Y-53227800D03*
X141595500Y-50687800D03*
X141595500Y-48147800D03*
X141595500Y-45607800D03*
X141595500Y-43067800D03*
X141595500Y-40527800D03*
X141595500Y-37987800D03*
X141595500Y-35447800D03*
X141595500Y-32907800D03*
G04 #@! TD*
M02*
