M48
; DRILL file {KiCad 8.0.4} date 2024-08-25T14:32:27+0700
; FORMAT={-:-/ absolute / metric / decimal}
; #@! TF.CreationDate,2024-08-25T14:32:27+07:00
; #@! TF.GenerationSoftware,Kicad,Pcbnew,8.0.4
; #@! TF.FileFunction,Plated,1,2,PTH
FMAT,2
METRIC
; #@! TA.AperFunction,Plated,PTH,ViaDrill
T1C0.300
; #@! TA.AperFunction,Plated,PTH,ComponentDrill
T2C1.092
; #@! TA.AperFunction,Plated,PTH,ComponentDrill
T3C1.270
%
G90
G05
T1
X37.215Y-57.378
X39.215Y-39.878
X48.384Y-61.645
X52.691Y-45.799
X65.797Y-63.534
X71.534Y-47.371
X71.715Y-82.084
X84.65Y-65.102
X85.783Y-49.13
X101.199Y-87.341
X101.215Y-49.13
X107.731Y-47.081
X108.109Y-45.984
X120.109Y-57.305
X123.461Y-79.123
X149.215Y-31.878
X162.315Y-62.662
X165.715Y-56.075
X165.822Y-32.351
X176.365Y-88.364
X188.836Y-89.452
X190.482Y-80.242
X193.487Y-60.121
X200.088Y-101.505
X203.963Y-50.625
X209.72Y-70.714
X214.991Y-45.622
X218.398Y-48.742
X226.256Y-64.865
X237.434Y-47.278
X244.715Y-63.878
X264.416Y-30.734
X269.715Y-46.878
T2
X141.595Y-30.368
X141.595Y-32.908
X141.595Y-35.448
X141.595Y-37.988
X141.595Y-40.528
X141.595Y-43.068
X141.595Y-45.608
X141.595Y-48.148
X141.595Y-50.688
X141.595Y-53.228
X141.595Y-55.768
X141.595Y-58.308
X141.595Y-60.848
X144.136Y-55.768
X146.675Y-55.768
X149.215Y-55.768
X156.835Y-30.368
X156.835Y-32.908
X156.835Y-35.448
X156.835Y-37.988
X156.835Y-40.528
X156.835Y-43.068
X156.835Y-45.608
X156.835Y-48.148
X156.835Y-50.688
X156.835Y-53.228
X156.835Y-55.768
X156.835Y-58.308
X156.835Y-60.848
T3
X24.109Y-71.263
X28.215Y-74.805
X29.362Y-55.095
X33.468Y-58.637
X34.615Y-38.927
X38.722Y-42.469
X42.526Y-72.831
X46.632Y-76.373
X47.779Y-56.663
X51.885Y-60.205
X53.032Y-40.495
X57.139Y-44.037
X60.943Y-74.399
X65.049Y-77.941
X66.196Y-58.231
X70.302Y-61.773
X71.449Y-42.063
X74.106Y-92.134
X75.555Y-45.605
X78.212Y-95.677
X79.359Y-75.966
X83.466Y-79.509
X84.613Y-59.798
X88.719Y-63.341
X89.866Y-43.631
X89.927Y-101.691
X93.972Y-47.173
X94.034Y-105.233
X95.181Y-85.523
X99.287Y-89.065
X100.434Y-69.355
X104.54Y-72.898
X105.687Y-53.187
X109.793Y-56.73
X110.028Y-112.638
X111.002Y-95.08
X114.135Y-116.181
X115.108Y-98.622
X116.255Y-78.912
X120.361Y-82.454
X121.508Y-62.744
X125.615Y-66.286
X167.23Y-65.834
X172.484Y-82.002
X172.635Y-66.286
X177.737Y-98.17
X177.888Y-82.454
X178.711Y-115.729
X183.052Y-56.277
X183.141Y-98.622
X184.115Y-116.181
X188.305Y-72.445
X188.456Y-56.73
X193.558Y-88.613
X193.709Y-72.898
X198.811Y-104.781
X198.873Y-46.721
X198.962Y-89.065
X204.126Y-62.889
X204.216Y-105.233
X204.277Y-47.173
X209.379Y-79.057
X209.53Y-63.341
X214.633Y-95.224
X214.784Y-79.509
X217.29Y-45.153
X220.037Y-95.677
X222.543Y-61.321
X222.694Y-45.605
X227.796Y-77.489
X227.947Y-61.773
X233.2Y-77.941
X235.706Y-43.585
X240.96Y-59.753
X241.111Y-44.037
X246.213Y-75.921
X246.364Y-60.205
X251.617Y-76.373
X254.123Y-42.017
X259.377Y-58.185
X259.528Y-42.469
X264.63Y-74.353
X264.781Y-58.637
X270.034Y-74.805
M30
