G04 #@! TF.GenerationSoftware,KiCad,Pcbnew,8.0.4*
G04 #@! TF.CreationDate,2024-08-25T14:32:18+07:00*
G04 #@! TF.ProjectId,ozprey,6f7a7072-6579-42e6-9b69-6361645f7063,1.0*
G04 #@! TF.SameCoordinates,Original*
G04 #@! TF.FileFunction,Profile,NP*
%FSLAX46Y46*%
G04 Gerber Fmt 4.6, Leading zero omitted, Abs format (unit mm)*
G04 Created by KiCad (PCBNEW 8.0.4) date 2024-08-25 14:32:18*
%MOMM*%
%LPD*%
G01*
G04 APERTURE LIST*
G04 #@! TA.AperFunction,Profile*
%ADD10C,0.100000*%
G04 #@! TD*
G04 APERTURE END LIST*
D10*
X102679793Y-115330086D02*
G75*
G02*
X79054992Y-103108846I122673207J266083886D01*
G01*
X33085419Y-25997795D02*
X17489276Y-74001511D01*
X33085419Y-25997795D02*
G75*
G02*
X35157198Y-24622983I1902081J-617905D01*
G01*
X219194290Y-103108840D02*
G75*
G02*
X195569495Y-115330082I-146298836J253864140D01*
G01*
X18773386Y-76521623D02*
X20632455Y-77125651D01*
X280760006Y-74001516D02*
X265163866Y-25997797D01*
X174107699Y-28891867D02*
X176268360Y-31052528D01*
X20632455Y-77125651D02*
G75*
G02*
X79054994Y-103108843I-94865470J-291974954D01*
G01*
X219194290Y-103108840D02*
G75*
G02*
X277616827Y-77125653I153288164J-265992160D01*
G01*
X83687842Y-28754534D02*
X35157197Y-24622992D01*
X214561443Y-28754535D02*
X187938779Y-31020998D01*
X141616947Y-123873597D02*
G75*
G02*
X102679794Y-115330085I-47J92999797D01*
G01*
X121970597Y-31056082D02*
G75*
G02*
X121263489Y-31348958I-707197J707382D01*
G01*
X176975467Y-31345421D02*
G75*
G02*
X176268349Y-31052538I-13J1000021D01*
G01*
X121263489Y-31348975D02*
X118029650Y-31348975D01*
X263092086Y-24622994D02*
X214561443Y-28754535D01*
X187938779Y-31020998D02*
X180219633Y-31348972D01*
X195569495Y-115330082D02*
G75*
G02*
X156632336Y-123873600I-38937091J84456152D01*
G01*
X124841915Y-28598975D02*
X173400591Y-28598975D01*
X176975467Y-31345421D02*
X180219633Y-31345420D01*
X118029650Y-31348975D02*
X110310503Y-31020992D01*
X121970597Y-31056082D02*
X124134808Y-28891869D01*
X263092086Y-24622994D02*
G75*
G02*
X265163826Y-25997810I169668J-1992706D01*
G01*
X277616826Y-77125651D02*
X279475897Y-76521620D01*
X110310503Y-31020992D02*
X83687842Y-28754534D01*
X173400591Y-28598975D02*
G75*
G02*
X174107705Y-28891861I-37J-1000125D01*
G01*
X18773386Y-76521623D02*
G75*
G02*
X17489331Y-74001529I618114J1902123D01*
G01*
X141616947Y-123873597D02*
X156632336Y-123873600D01*
X280760006Y-74001516D02*
G75*
G02*
X279475881Y-76521571I-1902052J-617984D01*
G01*
X124134808Y-28891869D02*
G75*
G02*
X124841915Y-28599005I706992J-706931D01*
G01*
M02*
