G04 #@! TF.GenerationSoftware,KiCad,Pcbnew,8.0.4*
G04 #@! TF.CreationDate,2024-08-25T16:08:23+07:00*
G04 #@! TF.ProjectId,ozprey,6f7a7072-6579-42e6-9b69-6361645f7063,1.0*
G04 #@! TF.SameCoordinates,Original*
G04 #@! TF.FileFunction,Copper,L1,Top*
G04 #@! TF.FilePolarity,Positive*
%FSLAX46Y46*%
G04 Gerber Fmt 4.6, Leading zero omitted, Abs format (unit mm)*
G04 Created by KiCad (PCBNEW 8.0.4) date 2024-08-25 16:08:23*
%MOMM*%
%LPD*%
G01*
G04 APERTURE LIST*
G04 #@! TA.AperFunction,ComponentPad*
%ADD10C,2.032000*%
G04 #@! TD*
G04 #@! TA.AperFunction,ComponentPad*
%ADD11C,1.752600*%
G04 #@! TD*
G04 #@! TA.AperFunction,SMDPad,CuDef*
%ADD12R,0.700000X1.500000*%
G04 #@! TD*
G04 #@! TA.AperFunction,SMDPad,CuDef*
%ADD13R,1.000000X0.800000*%
G04 #@! TD*
G04 #@! TA.AperFunction,SMDPad,CuDef*
%ADD14R,1.700000X1.000000*%
G04 #@! TD*
G04 #@! TA.AperFunction,ViaPad*
%ADD15C,0.500000*%
G04 #@! TD*
G04 #@! TA.AperFunction,Conductor*
%ADD16C,0.300000*%
G04 #@! TD*
G04 APERTURE END LIST*
D10*
G04 #@! TO.P,SW40,2,2*
G04 #@! TO.N,Net-(D40-A)*
X253408956Y-66238872D03*
G04 #@! TO.P,SW40,1,1*
G04 #@! TO.N,COL11*
X258813174Y-66691004D03*
G04 #@! TD*
G04 #@! TO.P,SW37,2,2*
G04 #@! TO.N,Net-(D37-A)*
X234992056Y-67806772D03*
G04 #@! TO.P,SW37,1,1*
G04 #@! TO.N,COL10*
X240396274Y-68258904D03*
G04 #@! TD*
G04 #@! TO.P,SW34,2,2*
G04 #@! TO.N,Net-(D34-A)*
X216575256Y-69374672D03*
G04 #@! TO.P,SW34,1,1*
G04 #@! TO.N,COL9*
X221979474Y-69826804D03*
G04 #@! TD*
G04 #@! TO.P,SW30,2,2*
G04 #@! TO.N,Net-(D30-A)*
X198158356Y-70942572D03*
G04 #@! TO.P,SW30,1,1*
G04 #@! TO.N,COL8*
X203562574Y-71394704D03*
G04 #@! TD*
G04 #@! TO.P,SW26,2,2*
G04 #@! TO.N,Net-(D26-A)*
X182337156Y-80499272D03*
G04 #@! TO.P,SW26,1,1*
G04 #@! TO.N,COL7*
X187741374Y-80951404D03*
G04 #@! TD*
G04 #@! TO.P,SW22,2,2*
G04 #@! TO.N,Net-(D22-A)*
X166516056Y-90055972D03*
G04 #@! TO.P,SW22,1,1*
G04 #@! TO.N,COL6*
X171920274Y-90508104D03*
G04 #@! TD*
G04 #@! TO.P,SW18,2,2*
G04 #@! TO.N,Net-(D18-A)*
X120793927Y-86965802D03*
G04 #@! TO.P,SW18,1,1*
G04 #@! TO.N,COL5*
X124900274Y-90508104D03*
G04 #@! TD*
G04 #@! TO.P,SW14,2,2*
G04 #@! TO.N,Net-(D14-A)*
X104972727Y-77409102D03*
G04 #@! TO.P,SW14,1,1*
G04 #@! TO.N,COL4*
X109079074Y-80951404D03*
G04 #@! TD*
G04 #@! TO.P,SW10,2,2*
G04 #@! TO.N,Net-(D10-A)*
X89151627Y-67852402D03*
G04 #@! TO.P,SW10,1,1*
G04 #@! TO.N,COL3*
X93257974Y-71394704D03*
G04 #@! TD*
G04 #@! TO.P,SW7,2,2*
G04 #@! TO.N,Net-(D7-A)*
X70734727Y-66284502D03*
G04 #@! TO.P,SW7,1,1*
G04 #@! TO.N,COL2*
X74841074Y-69826804D03*
G04 #@! TD*
G04 #@! TO.P,SW4,2,2*
G04 #@! TO.N,Net-(D4-A)*
X52317827Y-64716602D03*
G04 #@! TO.P,SW4,1,1*
G04 #@! TO.N,COL1*
X56424174Y-68258904D03*
G04 #@! TD*
G04 #@! TO.P,SW1,2,2*
G04 #@! TO.N,Net-(D1-A)*
X33900927Y-63148702D03*
G04 #@! TO.P,SW1,1,1*
G04 #@! TO.N,COL0*
X38007274Y-66691004D03*
G04 #@! TD*
G04 #@! TO.P,SW41,2,2*
G04 #@! TO.N,Net-(D41-A)*
X258662256Y-82406872D03*
G04 #@! TO.P,SW41,1,1*
G04 #@! TO.N,COL11*
X264066474Y-82859004D03*
G04 #@! TD*
G04 #@! TO.P,SW38,2,2*
G04 #@! TO.N,Net-(D38-A)*
X240245356Y-83974772D03*
G04 #@! TO.P,SW38,1,1*
G04 #@! TO.N,COL10*
X245649574Y-84426904D03*
G04 #@! TD*
G04 #@! TO.P,SW35,2,2*
G04 #@! TO.N,Net-(D35-A)*
X221828456Y-85542572D03*
G04 #@! TO.P,SW35,1,1*
G04 #@! TO.N,COL9*
X227232674Y-85994704D03*
G04 #@! TD*
G04 #@! TO.P,SW31,2,2*
G04 #@! TO.N,Net-(D31-A)*
X203411656Y-87110472D03*
G04 #@! TO.P,SW31,1,1*
G04 #@! TO.N,COL8*
X208815874Y-87562604D03*
G04 #@! TD*
G04 #@! TO.P,SW27,2,2*
G04 #@! TO.N,Net-(D27-A)*
X187590456Y-96667272D03*
G04 #@! TO.P,SW27,1,1*
G04 #@! TO.N,COL7*
X192994674Y-97119404D03*
G04 #@! TD*
G04 #@! TO.P,SW23,2,2*
G04 #@! TO.N,Net-(D23-A)*
X171769356Y-106223972D03*
G04 #@! TO.P,SW23,1,1*
G04 #@! TO.N,COL6*
X177173574Y-106676104D03*
G04 #@! TD*
G04 #@! TO.P,SW19,2,2*
G04 #@! TO.N,Net-(D19-A)*
X115540627Y-103133802D03*
G04 #@! TO.P,SW19,1,1*
G04 #@! TO.N,COL5*
X119646974Y-106676104D03*
G04 #@! TD*
G04 #@! TO.P,SW15,2,2*
G04 #@! TO.N,Net-(D15-A)*
X99719427Y-93577102D03*
G04 #@! TO.P,SW15,1,1*
G04 #@! TO.N,COL4*
X103825774Y-97119404D03*
G04 #@! TD*
G04 #@! TO.P,SW11,2,2*
G04 #@! TO.N,Net-(D11-A)*
X83898327Y-84020302D03*
G04 #@! TO.P,SW11,1,1*
G04 #@! TO.N,COL3*
X88004674Y-87562604D03*
G04 #@! TD*
G04 #@! TO.P,SW8,2,2*
G04 #@! TO.N,Net-(D8-A)*
X65481427Y-82452402D03*
G04 #@! TO.P,SW8,1,1*
G04 #@! TO.N,COL2*
X69587774Y-85994704D03*
G04 #@! TD*
G04 #@! TO.P,SW5,2,2*
G04 #@! TO.N,Net-(D5-A)*
X47064527Y-80884602D03*
G04 #@! TO.P,SW5,1,1*
G04 #@! TO.N,COL1*
X51170874Y-84426904D03*
G04 #@! TD*
G04 #@! TO.P,SW2,2,2*
G04 #@! TO.N,Net-(D2-A)*
X28647627Y-79316702D03*
G04 #@! TO.P,SW2,1,1*
G04 #@! TO.N,COL0*
X32753974Y-82859004D03*
G04 #@! TD*
G04 #@! TO.P,SW42,2,2*
G04 #@! TO.N,Net-(D42-A)*
X263915556Y-98574872D03*
G04 #@! TO.P,SW42,1,1*
G04 #@! TO.N,COL11*
X269319774Y-99027004D03*
G04 #@! TD*
G04 #@! TO.P,SW39,2,2*
G04 #@! TO.N,Net-(D39-A)*
X245498656Y-100142672D03*
G04 #@! TO.P,SW39,1,1*
G04 #@! TO.N,COL10*
X250902874Y-100594804D03*
G04 #@! TD*
G04 #@! TO.P,SW36,2,2*
G04 #@! TO.N,Net-(D36-A)*
X227081756Y-101710572D03*
G04 #@! TO.P,SW36,1,1*
G04 #@! TO.N,COL9*
X232485974Y-102162704D03*
G04 #@! TD*
G04 #@! TO.P,SW32,2,2*
G04 #@! TO.N,Net-(D32-A)*
X208664856Y-103278472D03*
G04 #@! TO.P,SW32,1,1*
G04 #@! TO.N,COL8*
X214069074Y-103730604D03*
G04 #@! TD*
G04 #@! TO.P,SW28,2,2*
G04 #@! TO.N,Net-(D28-A)*
X192843756Y-112835172D03*
G04 #@! TO.P,SW28,1,1*
G04 #@! TO.N,COL7*
X198247974Y-113287304D03*
G04 #@! TD*
G04 #@! TO.P,SW24,2,2*
G04 #@! TO.N,Net-(D24-A)*
X177022656Y-122391972D03*
G04 #@! TO.P,SW24,1,1*
G04 #@! TO.N,COL6*
X182426874Y-122844104D03*
G04 #@! TD*
G04 #@! TO.P,SW20,2,2*
G04 #@! TO.N,Net-(D20-A)*
X110287327Y-119301802D03*
G04 #@! TO.P,SW20,1,1*
G04 #@! TO.N,COL5*
X114393674Y-122844104D03*
G04 #@! TD*
G04 #@! TO.P,SW16,2,2*
G04 #@! TO.N,Net-(D16-A)*
X94466127Y-109745002D03*
G04 #@! TO.P,SW16,1,1*
G04 #@! TO.N,COL4*
X98572474Y-113287304D03*
G04 #@! TD*
G04 #@! TO.P,SW12,2,2*
G04 #@! TO.N,Net-(D12-A)*
X78645027Y-100188302D03*
G04 #@! TO.P,SW12,1,1*
G04 #@! TO.N,COL3*
X82751374Y-103730604D03*
G04 #@! TD*
G04 #@! TO.P,SW9,2,2*
G04 #@! TO.N,Net-(D9-A)*
X60228127Y-98620402D03*
G04 #@! TO.P,SW9,1,1*
G04 #@! TO.N,COL2*
X64334474Y-102162704D03*
G04 #@! TD*
G04 #@! TO.P,SW6,2,2*
G04 #@! TO.N,Net-(D6-A)*
X41811227Y-97052502D03*
G04 #@! TO.P,SW6,1,1*
G04 #@! TO.N,COL1*
X45917574Y-100594804D03*
G04 #@! TD*
G04 #@! TO.P,SW3,2,2*
G04 #@! TO.N,Net-(D3-A)*
X23394327Y-95484702D03*
G04 #@! TO.P,SW3,1,1*
G04 #@! TO.N,COL0*
X27500674Y-99027004D03*
G04 #@! TD*
G04 #@! TO.P,SW33,2,2*
G04 #@! TO.N,Net-(D33-A)*
X213918156Y-119446372D03*
G04 #@! TO.P,SW33,1,1*
G04 #@! TO.N,COL8*
X219322374Y-119898504D03*
G04 #@! TD*
G04 #@! TO.P,SW29,2,2*
G04 #@! TO.N,Net-(D29-A)*
X198097056Y-129003172D03*
G04 #@! TO.P,SW29,1,1*
G04 #@! TO.N,COL7*
X203501274Y-129455304D03*
G04 #@! TD*
G04 #@! TO.P,SW21,2,2*
G04 #@! TO.N,Net-(D21-A)*
X109313827Y-136860302D03*
G04 #@! TO.P,SW21,1,1*
G04 #@! TO.N,COL5*
X113420174Y-140402604D03*
G04 #@! TD*
G04 #@! TO.P,SW17,2,2*
G04 #@! TO.N,Net-(D17-A)*
X89212927Y-125913002D03*
G04 #@! TO.P,SW17,1,1*
G04 #@! TO.N,COL4*
X93319274Y-129455304D03*
G04 #@! TD*
G04 #@! TO.P,SW25,2,2*
G04 #@! TO.N,Net-(D25-A)*
X177996156Y-139950472D03*
G04 #@! TO.P,SW25,1,1*
G04 #@! TO.N,COL6*
X183400374Y-140402604D03*
G04 #@! TD*
G04 #@! TO.P,SW13,2,2*
G04 #@! TO.N,Net-(D13-A)*
X73391727Y-116356202D03*
G04 #@! TO.P,SW13,1,1*
G04 #@! TO.N,COL3*
X77498074Y-119898504D03*
G04 #@! TD*
D11*
G04 #@! TO.P,U1,34*
G04 #@! TO.N,N/C*
X156121074Y-54589672D03*
G04 #@! TO.P,U1,33,P1.07*
G04 #@! TO.N,unconnected-(U1-P1.07-Pad33)*
X148501074Y-79989672D03*
G04 #@! TO.P,U1,32,P1.02*
G04 #@! TO.N,unconnected-(U1-P1.02-Pad32)*
X145961074Y-79989672D03*
G04 #@! TO.P,U1,31,P1.01*
G04 #@! TO.N,unconnected-(U1-P1.01-Pad31)*
X143421074Y-79989672D03*
G04 #@! TO.P,U1,30*
G04 #@! TO.N,N/C*
X140881074Y-54589672D03*
G04 #@! TO.P,U1,24,BATIN/P0.04*
G04 #@! TO.N,RAW*
X156121074Y-57129672D03*
G04 #@! TO.P,U1,23,GND*
G04 #@! TO.N,GND*
X156121074Y-59669672D03*
G04 #@! TO.P,U1,22,RST*
G04 #@! TO.N,RST*
X156121074Y-62209672D03*
G04 #@! TO.P,U1,21,VCC*
G04 #@! TO.N,3.3V*
X156121074Y-64749672D03*
G04 #@! TO.P,U1,20,AIN7/P0.31*
G04 #@! TO.N,COL11*
X156121074Y-67289672D03*
G04 #@! TO.P,U1,19,AIN5/P0.29*
G04 #@! TO.N,COL10*
X156121074Y-69829672D03*
G04 #@! TO.P,U1,18,AIN0/P0.02*
G04 #@! TO.N,COL9*
X156121074Y-72369672D03*
G04 #@! TO.P,U1,17,P1.15*
G04 #@! TO.N,COL8*
X156121074Y-74909672D03*
G04 #@! TO.P,U1,16,P1.13*
G04 #@! TO.N,COL7*
X156121074Y-77449672D03*
G04 #@! TO.P,U1,15,P1.11*
G04 #@! TO.N,COL6*
X156121074Y-79989672D03*
G04 #@! TO.P,U1,14,NFC2/P0.10*
G04 #@! TO.N,ROW2*
X156121074Y-82529672D03*
G04 #@! TO.P,U1,13,NFC1/P0.09*
G04 #@! TO.N,ROW3*
X156121074Y-85069672D03*
G04 #@! TO.P,U1,12,P1.06*
G04 #@! TO.N,ROW1*
X140881074Y-85069672D03*
G04 #@! TO.P,U1,11,P1.04*
G04 #@! TO.N,ROW0*
X140881074Y-82529672D03*
G04 #@! TO.P,U1,10,P0.11*
G04 #@! TO.N,COL5*
X140881074Y-79989672D03*
G04 #@! TO.P,U1,9,P1.00*
G04 #@! TO.N,COL4*
X140881074Y-77449672D03*
G04 #@! TO.P,U1,8,P0.24*
G04 #@! TO.N,COL3*
X140881074Y-74909672D03*
G04 #@! TO.P,U1,7,P0.22*
G04 #@! TO.N,COL2*
X140881074Y-72369672D03*
G04 #@! TO.P,U1,6,P0.20*
G04 #@! TO.N,COL1*
X140881074Y-69829672D03*
G04 #@! TO.P,U1,5,P0.17*
G04 #@! TO.N,COL0*
X140881074Y-67289672D03*
G04 #@! TO.P,U1,4,GND*
G04 #@! TO.N,GND*
X140881074Y-64749672D03*
G04 #@! TO.P,U1,3,GND*
X140881074Y-62209672D03*
G04 #@! TO.P,U1,2,RX1/P0.08*
G04 #@! TO.N,unconnected-(U1-RX1{slash}P0.08-Pad2)*
X140881074Y-59669672D03*
G04 #@! TO.P,U1,1,TX0/P0.06*
G04 #@! TO.N,unconnected-(U1-TX0{slash}P0.06-Pad1)*
X140881074Y-57129672D03*
G04 #@! TD*
D12*
G04 #@! TO.P,SW_PWR1,3,C*
G04 #@! TO.N,Net-(BATT1--)*
X130465469Y-56529672D03*
G04 #@! TO.P,SW_PWR1,2,B*
G04 #@! TO.N,GND*
X131965469Y-56529672D03*
G04 #@! TO.P,SW_PWR1,1,A*
G04 #@! TO.N,unconnected-(SW_PWR1-A-Pad1)*
X134965469Y-56529672D03*
D13*
G04 #@! TO.P,SW_PWR1,*
G04 #@! TO.N,*
X129065469Y-55879672D03*
X129065469Y-53669672D03*
X136365469Y-55879672D03*
X136365469Y-53669672D03*
G04 #@! TD*
D14*
G04 #@! TO.P,SW_RST1,1,1*
G04 #@! TO.N,GND*
X161065469Y-54477832D03*
X167365469Y-54477832D03*
G04 #@! TO.P,SW_RST1,2,2*
G04 #@! TO.N,RST*
X161065469Y-58277832D03*
X167365469Y-58277832D03*
G04 #@! TD*
D15*
G04 #@! TO.N,Net-(BATT1--)*
X130426129Y-56772979D03*
G04 #@! TO.N,Net-(D1-A)*
X38501043Y-64099704D03*
G04 #@! TO.N,Net-(D2-A)*
X36501043Y-81599704D03*
G04 #@! TO.N,Net-(D24-A)*
X188121174Y-113674172D03*
G04 #@! TO.N,Net-(D40-A)*
X263701153Y-54956194D03*
G04 #@! TO.N,Net-(D41-A)*
X269001043Y-71099704D03*
G04 #@! TO.N,ROW0*
X85068574Y-73351972D03*
X161601043Y-86883588D03*
X119394374Y-81526872D03*
X100501043Y-73351972D03*
G04 #@! TO.N,COL1*
X51976974Y-70020672D03*
X107394974Y-70205773D03*
X47670074Y-85866772D03*
G04 #@! TO.N,COL2*
X65082574Y-87756372D03*
X70819174Y-71592872D03*
G04 #@! TO.N,COL3*
X107016874Y-71303172D03*
X83935974Y-89324372D03*
X71001043Y-106305503D03*
G04 #@! TO.N,COL4*
X100484874Y-111563272D03*
G04 #@! TO.N,COL5*
X122746192Y-103344853D03*
G04 #@! TO.N,COL6*
X165001043Y-80296412D03*
X175650274Y-112586072D03*
G04 #@! TO.N,COL7*
X192773074Y-84343072D03*
X199373675Y-125727072D03*
X189767774Y-104464272D03*
G04 #@! TO.N,COL8*
X209005174Y-94935872D03*
X203248143Y-74846804D03*
G04 #@! TO.N,COL9*
X225541774Y-89086872D03*
X214276574Y-69844172D03*
X217683574Y-72964172D03*
G04 #@! TO.N,COL10*
X244001043Y-88099704D03*
X236720074Y-71499704D03*
G04 #@! TD*
D16*
G04 #@! TO.N,GND*
X131965469Y-56529672D02*
X137645469Y-62209672D01*
X137645469Y-62209672D02*
X140881074Y-62209672D01*
G04 #@! TO.N,RST*
X161065469Y-58277832D02*
X160052914Y-58277832D01*
X160052914Y-58277832D02*
X156121074Y-62209672D01*
G04 #@! TO.N,GND*
X161065469Y-54477832D02*
X161065469Y-54725277D01*
X161065469Y-54725277D02*
X156121074Y-59669672D01*
G04 #@! TO.N,RST*
X161065469Y-58277832D02*
X167365469Y-58277832D01*
G04 #@! TO.N,GND*
X161065469Y-54477832D02*
X167365469Y-54477832D01*
G04 #@! TO.N,COL0*
X38007274Y-66690972D02*
X62897074Y-66690972D01*
X64305806Y-68099704D02*
X72793937Y-68099704D01*
X62897074Y-66690972D02*
X64305806Y-68099704D01*
X78625080Y-70099704D02*
X91353994Y-70099704D01*
X72793937Y-68099704D02*
X73501043Y-67392597D01*
X73793936Y-67099704D02*
X75625080Y-67099704D01*
X73501043Y-67392597D02*
X73793936Y-67099704D01*
X75625080Y-67099704D02*
X78625080Y-70099704D01*
X104001043Y-69099704D02*
X106778270Y-66322477D01*
X106778270Y-66322477D02*
X139913879Y-66322477D01*
X91353994Y-70099704D02*
X92353994Y-69099704D01*
X92353994Y-69099704D02*
X104001043Y-69099704D01*
X139913879Y-66322477D02*
X140881074Y-67289672D01*
G04 #@! TO.N,COL11*
X258813174Y-66691005D02*
X256904475Y-68599704D01*
X157186674Y-66224072D02*
X156121074Y-67289672D01*
X256904475Y-68599704D02*
X244501043Y-68599704D01*
X244501043Y-68599704D02*
X242001043Y-66099704D01*
X242001043Y-66099704D02*
X233501043Y-66099704D01*
X233501043Y-66099704D02*
X232001043Y-67599704D01*
X232001043Y-67599704D02*
X215501043Y-67599704D01*
X215501043Y-67599704D02*
X214501043Y-68599704D01*
X198125411Y-66224072D02*
X157186674Y-66224072D01*
X214501043Y-68599704D02*
X200501043Y-68599704D01*
X200501043Y-68599704D02*
X198125411Y-66224072D01*
G04 #@! TO.N,Net-(D1-A)*
X37550011Y-63148672D02*
X33900974Y-63148672D01*
X38501043Y-64099704D02*
X37550011Y-63148672D01*
G04 #@! TO.N,Net-(D2-A)*
X35001043Y-81599704D02*
X32718041Y-79316702D01*
X36501043Y-81599704D02*
X35001043Y-81599704D01*
X32718041Y-79316702D02*
X28647627Y-79316702D01*
G04 #@! TO.N,Net-(D24-A)*
X186040975Y-118059772D02*
X188121174Y-115979573D01*
X184040975Y-118059772D02*
X186040975Y-118059772D01*
X188121174Y-115979573D02*
X188121174Y-113674172D01*
X177022674Y-122391972D02*
X179708775Y-122391972D01*
X179708775Y-122391972D02*
X184040975Y-118059772D01*
G04 #@! TO.N,Net-(D40-A)*
X264001043Y-61099704D02*
X264001043Y-55256084D01*
X253408956Y-66191791D02*
X255001043Y-64599704D01*
X253408956Y-66238872D02*
X253408956Y-66191791D01*
X260501043Y-64599704D02*
X264001043Y-61099704D01*
X264001043Y-55256084D02*
X263701153Y-54956194D01*
X255001043Y-64599704D02*
X260501043Y-64599704D01*
G04 #@! TO.N,Net-(D41-A)*
X269001043Y-71099704D02*
X269001043Y-78599704D01*
X267501043Y-80099704D02*
X263501043Y-80099704D01*
X261193875Y-82406872D02*
X258662256Y-82406872D01*
X269001043Y-78599704D02*
X267501043Y-80099704D01*
X263501043Y-80099704D02*
X261193875Y-82406872D01*
G04 #@! TO.N,ROW0*
X85316306Y-73599704D02*
X85068574Y-73351972D01*
X161601043Y-86883588D02*
X161317159Y-86599704D01*
X100501043Y-73351972D02*
X100253311Y-73599704D01*
X138451106Y-80099704D02*
X140881074Y-82529672D01*
X131501043Y-80099704D02*
X138451106Y-80099704D01*
X119394374Y-81526872D02*
X130073875Y-81526872D01*
X155226074Y-86599704D02*
X151156042Y-82529672D01*
X100253311Y-73599704D02*
X85316306Y-73599704D01*
X130073875Y-81526872D02*
X131501043Y-80099704D01*
X161317159Y-86599704D02*
X155226074Y-86599704D01*
X151156042Y-82529672D02*
X140881074Y-82529672D01*
G04 #@! TO.N,COL1*
X78417974Y-70599704D02*
X75417974Y-67599704D01*
X75417974Y-67599704D02*
X74001043Y-67599704D01*
X107394974Y-70205773D02*
X106788905Y-69599704D01*
X92561101Y-69599704D02*
X91561101Y-70599704D01*
X73001043Y-68599704D02*
X64098699Y-68599704D01*
X49109974Y-84426872D02*
X47670074Y-85866772D01*
X51170874Y-84426872D02*
X49109974Y-84426872D01*
X91561101Y-70599704D02*
X78417974Y-70599704D01*
X74001043Y-67599704D02*
X73001043Y-68599704D01*
X53897942Y-68099704D02*
X51976974Y-70020672D01*
X63598699Y-68099704D02*
X53897942Y-68099704D01*
X106788905Y-69599704D02*
X92561101Y-69599704D01*
X64098699Y-68599704D02*
X63598699Y-68099704D01*
G04 #@! TO.N,COL2*
X115449517Y-70599704D02*
X114053849Y-71995372D01*
X140881074Y-72369672D02*
X139111106Y-70599704D01*
X74841074Y-71592872D02*
X70819174Y-71592872D01*
X96552174Y-71995372D02*
X95447842Y-73099704D01*
X139111106Y-70599704D02*
X115449517Y-70599704D01*
X85667206Y-73099704D02*
X84160374Y-71592872D01*
X114053849Y-71995372D02*
X96552174Y-71995372D01*
X69587774Y-85994672D02*
X66844274Y-85994672D01*
X66844274Y-85994672D02*
X65082574Y-87756372D01*
X74841074Y-71592872D02*
X74841074Y-69826772D01*
X84160374Y-71592872D02*
X74841074Y-71592872D01*
X95447842Y-73099704D02*
X85667206Y-73099704D01*
G04 #@! TO.N,COL3*
X71001043Y-106305503D02*
X71746874Y-105559672D01*
X80922274Y-105559672D02*
X82751374Y-103730572D01*
X93349474Y-71303172D02*
X93257974Y-71394672D01*
X107016874Y-71303172D02*
X93349474Y-71303172D01*
X85697774Y-87562572D02*
X83935974Y-89324372D01*
X88004674Y-87562572D02*
X85697774Y-87562572D01*
X71746874Y-105559672D02*
X80922274Y-105559672D01*
G04 #@! TO.N,COL4*
X109653174Y-87759272D02*
X108091574Y-89320872D01*
X139531106Y-76099704D02*
X122001043Y-76099704D01*
X98572474Y-113287272D02*
X98760874Y-113287272D01*
X109653174Y-80951372D02*
X109653174Y-87759272D01*
X109653174Y-80951372D02*
X109079074Y-80951372D01*
X122001043Y-76099704D02*
X117149375Y-80951372D01*
X140881074Y-77449672D02*
X139531106Y-76099704D01*
X98760874Y-113287272D02*
X100484874Y-111563272D01*
X108091574Y-92853572D02*
X103825774Y-97119372D01*
X117149375Y-80951372D02*
X109653174Y-80951372D01*
X108091574Y-89320872D02*
X108091574Y-92853572D01*
G04 #@! TO.N,COL5*
X122746192Y-103344854D02*
X119646974Y-106444072D01*
X119646974Y-106444072D02*
X119646974Y-106676072D01*
X122746192Y-103344853D02*
X122746192Y-103344854D01*
G04 #@! TO.N,COL6*
X165001043Y-83588874D02*
X171920274Y-90508105D01*
X177173574Y-106676105D02*
X175650274Y-108199405D01*
X175650274Y-108199405D02*
X175650274Y-112586072D01*
X165001043Y-80296412D02*
X165001043Y-83588874D01*
G04 #@! TO.N,COL7*
X199373675Y-125727072D02*
X203101875Y-129455272D01*
X198247974Y-113287272D02*
X198247974Y-112944472D01*
X198247974Y-112944472D02*
X189767774Y-104464272D01*
X187741374Y-80951372D02*
X189381374Y-80951372D01*
X189381374Y-80951372D02*
X192773074Y-84343072D01*
X203101875Y-129455272D02*
X203501274Y-129455272D01*
G04 #@! TO.N,COL8*
X209005174Y-98666672D02*
X209005174Y-94935872D01*
X203562574Y-71394672D02*
X203562574Y-74532373D01*
X203562574Y-74532373D02*
X203248143Y-74846804D01*
X214069074Y-103730572D02*
X209005174Y-98666672D01*
G04 #@! TO.N,COL9*
X217396574Y-72964172D02*
X217683574Y-72964172D01*
X227232674Y-87395972D02*
X225541774Y-89086872D01*
X227232674Y-85994672D02*
X227232674Y-87395972D01*
X214276574Y-69844172D02*
X217396574Y-72964172D01*
G04 #@! TO.N,COL10*
X216768472Y-71499704D02*
X214876574Y-69607806D01*
X195645511Y-69244172D02*
X193501043Y-67099704D01*
X214876574Y-69595643D02*
X214525103Y-69244172D01*
X244001043Y-88099704D02*
X245649574Y-86451173D01*
X158851042Y-67099704D02*
X156121074Y-69829672D01*
X240396274Y-68258905D02*
X240396274Y-68258872D01*
X214525103Y-69244172D02*
X195645511Y-69244172D01*
X214876574Y-69607806D02*
X214876574Y-69595643D01*
X245649574Y-86451173D02*
X245649574Y-84426872D01*
X236720074Y-71499704D02*
X239960873Y-68258905D01*
X236720074Y-71499704D02*
X216768472Y-71499704D01*
X239960873Y-68258905D02*
X240396274Y-68258905D01*
X193501043Y-67099704D02*
X158851042Y-67099704D01*
G04 #@! TD*
M02*
