G04 #@! TF.GenerationSoftware,KiCad,Pcbnew,8.0.4*
G04 #@! TF.CreationDate,2024-08-25T14:32:17+07:00*
G04 #@! TF.ProjectId,ozprey,6f7a7072-6579-42e6-9b69-6361645f7063,1.0*
G04 #@! TF.SameCoordinates,Original*
G04 #@! TF.FileFunction,Copper,L2,Bot*
G04 #@! TF.FilePolarity,Positive*
%FSLAX46Y46*%
G04 Gerber Fmt 4.6, Leading zero omitted, Abs format (unit mm)*
G04 Created by KiCad (PCBNEW 8.0.4) date 2024-08-25 14:32:17*
%MOMM*%
%LPD*%
G01*
G04 APERTURE LIST*
G04 Aperture macros list*
%AMRoundRect*
0 Rectangle with rounded corners*
0 $1 Rounding radius*
0 $2 $3 $4 $5 $6 $7 $8 $9 X,Y pos of 4 corners*
0 Add a 4 corners polygon primitive as box body*
4,1,4,$2,$3,$4,$5,$6,$7,$8,$9,$2,$3,0*
0 Add four circle primitives for the rounded corners*
1,1,$1+$1,$2,$3*
1,1,$1+$1,$4,$5*
1,1,$1+$1,$6,$7*
1,1,$1+$1,$8,$9*
0 Add four rect primitives between the rounded corners*
20,1,$1+$1,$2,$3,$4,$5,0*
20,1,$1+$1,$4,$5,$6,$7,0*
20,1,$1+$1,$6,$7,$8,$9,0*
20,1,$1+$1,$8,$9,$2,$3,0*%
%AMRotRect*
0 Rectangle, with rotation*
0 The origin of the aperture is its center*
0 $1 length*
0 $2 width*
0 $3 Rotation angle, in degrees counterclockwise*
0 Add horizontal line*
21,1,$1,$2,0,0,$3*%
G04 Aperture macros list end*
G04 #@! TA.AperFunction,SMDPad,CuDef*
%ADD10R,1.000000X0.800000*%
G04 #@! TD*
G04 #@! TA.AperFunction,SMDPad,CuDef*
%ADD11R,0.700000X1.500000*%
G04 #@! TD*
G04 #@! TA.AperFunction,SMDPad,CuDef*
%ADD12R,2.100000X1.500000*%
G04 #@! TD*
G04 #@! TA.AperFunction,SMDPad,CuDef*
%ADD13RotRect,2.600000X2.600000X342.000000*%
G04 #@! TD*
G04 #@! TA.AperFunction,ComponentPad*
%ADD14C,2.032000*%
G04 #@! TD*
G04 #@! TA.AperFunction,SMDPad,CuDef*
%ADD15RotRect,2.600000X2.600000X18.000000*%
G04 #@! TD*
G04 #@! TA.AperFunction,ComponentPad*
%ADD16C,1.752600*%
G04 #@! TD*
G04 #@! TA.AperFunction,SMDPad,CuDef*
%ADD17RoundRect,0.250000X0.160510X-0.315018X0.315018X0.160510X-0.160510X0.315018X-0.315018X-0.160510X0*%
G04 #@! TD*
G04 #@! TA.AperFunction,SMDPad,CuDef*
%ADD18RoundRect,0.250000X0.315018X-0.160510X0.160510X0.315018X-0.315018X0.160510X-0.160510X-0.315018X0*%
G04 #@! TD*
G04 #@! TA.AperFunction,ViaPad*
%ADD19C,0.500000*%
G04 #@! TD*
G04 #@! TA.AperFunction,Conductor*
%ADD20C,0.300000*%
G04 #@! TD*
G04 APERTURE END LIST*
D10*
G04 #@! TO.P,SW_PWR1,*
G04 #@! TO.N,*
X159915500Y-31657800D03*
X159915500Y-29447800D03*
X167215500Y-31657800D03*
X167215500Y-29447800D03*
D11*
G04 #@! TO.P,SW_PWR1,1,A*
G04 #@! TO.N,unconnected-(SW_PWR1-A-Pad1)*
X161315500Y-32307800D03*
G04 #@! TO.P,SW_PWR1,2,B*
G04 #@! TO.N,GND*
X164315500Y-32307800D03*
G04 #@! TO.P,SW_PWR1,3,C*
G04 #@! TO.N,Net-(BATT1--)*
X165815500Y-32307800D03*
G04 #@! TD*
D12*
G04 #@! TO.P,BATT1,1,+*
G04 #@! TO.N,RAW*
X149215500Y-33977800D03*
G04 #@! TO.P,BATT1,2,-*
G04 #@! TO.N,Net-(BATT1--)*
X149215500Y-31777800D03*
G04 #@! TD*
D13*
G04 #@! TO.P,SW13,1,1*
G04 #@! TO.N,COL3*
X78759641Y-83394583D03*
D14*
X78212500Y-95676633D03*
G04 #@! TO.P,SW13,2,2*
G04 #@! TO.N,Net-(D13-A)*
X74106153Y-92134330D03*
D13*
X89064506Y-89056054D03*
G04 #@! TD*
G04 #@! TO.P,SW17,1,1*
G04 #@! TO.N,COL4*
X94580841Y-92951383D03*
D14*
X94033700Y-105233433D03*
G04 #@! TO.P,SW17,2,2*
G04 #@! TO.N,Net-(D17-A)*
X89927353Y-101691130D03*
D13*
X104885706Y-98612854D03*
G04 #@! TD*
G04 #@! TO.P,SW21,1,1*
G04 #@! TO.N,COL5*
X114681741Y-103898683D03*
D14*
X114134600Y-116180733D03*
G04 #@! TO.P,SW21,2,2*
G04 #@! TO.N,Net-(D21-A)*
X110028253Y-112638430D03*
D13*
X124986606Y-109560154D03*
G04 #@! TD*
D15*
G04 #@! TO.P,SW25,1,1*
G04 #@! TO.N,COL6*
X177338239Y-105922744D03*
D14*
X184114800Y-116180733D03*
G04 #@! TO.P,SW25,2,2*
G04 #@! TO.N,Net-(D25-A)*
X178710582Y-115728600D03*
D15*
X189002779Y-104445922D03*
G04 #@! TD*
G04 #@! TO.P,SW29,1,1*
G04 #@! TO.N,COL7*
X197439139Y-94975444D03*
D14*
X204215700Y-105233433D03*
G04 #@! TO.P,SW29,2,2*
G04 #@! TO.N,Net-(D29-A)*
X198811482Y-104781300D03*
D15*
X209103679Y-93498622D03*
G04 #@! TD*
G04 #@! TO.P,SW33,2,2*
G04 #@! TO.N,Net-(D33-A)*
X224924779Y-83941822D03*
D14*
X214632582Y-95224500D03*
G04 #@! TO.P,SW33,1,1*
G04 #@! TO.N,COL8*
X220036800Y-95676633D03*
D15*
X213260239Y-85418644D03*
G04 #@! TD*
D13*
G04 #@! TO.P,SW3,1,1*
G04 #@! TO.N,COL0*
X28762241Y-62523083D03*
D14*
X28215100Y-74805133D03*
G04 #@! TO.P,SW3,2,2*
G04 #@! TO.N,Net-(D3-A)*
X24108753Y-71262830D03*
D13*
X39067106Y-68184554D03*
G04 #@! TD*
G04 #@! TO.P,SW6,1,1*
G04 #@! TO.N,COL1*
X47179141Y-64090883D03*
D14*
X46632000Y-76372933D03*
G04 #@! TO.P,SW6,2,2*
G04 #@! TO.N,Net-(D6-A)*
X42525653Y-72830630D03*
D13*
X57484006Y-69752354D03*
G04 #@! TD*
G04 #@! TO.P,SW9,1,1*
G04 #@! TO.N,COL2*
X65596041Y-65658783D03*
D14*
X65048900Y-77940833D03*
G04 #@! TO.P,SW9,2,2*
G04 #@! TO.N,Net-(D9-A)*
X60942553Y-74398530D03*
D13*
X75900906Y-71320254D03*
G04 #@! TD*
G04 #@! TO.P,SW12,1,1*
G04 #@! TO.N,COL3*
X84012941Y-67226683D03*
D14*
X83465800Y-79508733D03*
G04 #@! TO.P,SW12,2,2*
G04 #@! TO.N,Net-(D12-A)*
X79359453Y-75966430D03*
D13*
X94317806Y-72888154D03*
G04 #@! TD*
G04 #@! TO.P,SW16,1,1*
G04 #@! TO.N,COL4*
X99834041Y-76783383D03*
D14*
X99286900Y-89065433D03*
G04 #@! TO.P,SW16,2,2*
G04 #@! TO.N,Net-(D16-A)*
X95180553Y-85523130D03*
D13*
X110138906Y-82444854D03*
G04 #@! TD*
G04 #@! TO.P,SW20,1,1*
G04 #@! TO.N,COL5*
X115655241Y-86340183D03*
D14*
X115108100Y-98622233D03*
G04 #@! TO.P,SW20,2,2*
G04 #@! TO.N,Net-(D20-A)*
X111001753Y-95079930D03*
D13*
X125960106Y-92001654D03*
G04 #@! TD*
D15*
G04 #@! TO.P,SW24,1,1*
G04 #@! TO.N,COL6*
X176364739Y-88364244D03*
D14*
X183141300Y-98622233D03*
G04 #@! TO.P,SW24,2,2*
G04 #@! TO.N,Net-(D24-A)*
X177737082Y-98170100D03*
D15*
X188029279Y-86887422D03*
G04 #@! TD*
G04 #@! TO.P,SW28,1,1*
G04 #@! TO.N,COL7*
X192185839Y-78807444D03*
D14*
X198962400Y-89065433D03*
G04 #@! TO.P,SW28,2,2*
G04 #@! TO.N,Net-(D28-A)*
X193558182Y-88613300D03*
D15*
X203850379Y-77330622D03*
G04 #@! TD*
G04 #@! TO.P,SW32,1,1*
G04 #@! TO.N,COL8*
X208006939Y-69250744D03*
D14*
X214783500Y-79508733D03*
G04 #@! TO.P,SW32,2,2*
G04 #@! TO.N,Net-(D32-A)*
X209379282Y-79056600D03*
D15*
X219671479Y-67773922D03*
G04 #@! TD*
G04 #@! TO.P,SW36,1,1*
G04 #@! TO.N,COL9*
X226423839Y-67682844D03*
D14*
X233200400Y-77940833D03*
G04 #@! TO.P,SW36,2,2*
G04 #@! TO.N,Net-(D36-A)*
X227796182Y-77488700D03*
D15*
X238088379Y-66206022D03*
G04 #@! TD*
G04 #@! TO.P,SW39,1,1*
G04 #@! TO.N,COL10*
X244840739Y-66114944D03*
D14*
X251617300Y-76372933D03*
G04 #@! TO.P,SW39,2,2*
G04 #@! TO.N,Net-(D39-A)*
X246213082Y-75920800D03*
D15*
X256505279Y-64638122D03*
G04 #@! TD*
G04 #@! TO.P,SW42,1,1*
G04 #@! TO.N,COL11*
X263257639Y-64547144D03*
D14*
X270034200Y-74805133D03*
G04 #@! TO.P,SW42,2,2*
G04 #@! TO.N,Net-(D42-A)*
X264629982Y-74353000D03*
D15*
X274922179Y-63070322D03*
G04 #@! TD*
D13*
G04 #@! TO.P,SW2,1,1*
G04 #@! TO.N,COL0*
X34015541Y-46355083D03*
D14*
X33468400Y-58637133D03*
G04 #@! TO.P,SW2,2,2*
G04 #@! TO.N,Net-(D2-A)*
X29362053Y-55094830D03*
D13*
X44320406Y-52016554D03*
G04 #@! TD*
G04 #@! TO.P,SW5,1,1*
G04 #@! TO.N,COL1*
X52432441Y-47922983D03*
D14*
X51885300Y-60205033D03*
G04 #@! TO.P,SW5,2,2*
G04 #@! TO.N,Net-(D5-A)*
X47778953Y-56662730D03*
D13*
X62737306Y-53584454D03*
G04 #@! TD*
G04 #@! TO.P,SW8,1,1*
G04 #@! TO.N,COL2*
X70849341Y-49490783D03*
D14*
X70302200Y-61772833D03*
G04 #@! TO.P,SW8,2,2*
G04 #@! TO.N,Net-(D8-A)*
X66195853Y-58230530D03*
D13*
X81154206Y-55152254D03*
G04 #@! TD*
G04 #@! TO.P,SW11,1,1*
G04 #@! TO.N,COL3*
X89266241Y-51058683D03*
D14*
X88719100Y-63340733D03*
G04 #@! TO.P,SW11,2,2*
G04 #@! TO.N,Net-(D11-A)*
X84612753Y-59798430D03*
D13*
X99571106Y-56720154D03*
G04 #@! TD*
G04 #@! TO.P,SW15,1,1*
G04 #@! TO.N,COL4*
X105087341Y-60615483D03*
D14*
X104540200Y-72897533D03*
G04 #@! TO.P,SW15,2,2*
G04 #@! TO.N,Net-(D15-A)*
X100433853Y-69355230D03*
D13*
X115392206Y-66276954D03*
G04 #@! TD*
G04 #@! TO.P,SW19,1,1*
G04 #@! TO.N,COL5*
X120908541Y-70172183D03*
D14*
X120361400Y-82454233D03*
G04 #@! TO.P,SW19,2,2*
G04 #@! TO.N,Net-(D19-A)*
X116255053Y-78911930D03*
D13*
X131213406Y-75833654D03*
G04 #@! TD*
D15*
G04 #@! TO.P,SW23,1,1*
G04 #@! TO.N,COL6*
X171111439Y-72196244D03*
D14*
X177888000Y-82454233D03*
G04 #@! TO.P,SW23,2,2*
G04 #@! TO.N,Net-(D23-A)*
X172483782Y-82002100D03*
D15*
X182775979Y-70719422D03*
G04 #@! TD*
G04 #@! TO.P,SW27,1,1*
G04 #@! TO.N,COL7*
X186932539Y-62639544D03*
D14*
X193709100Y-72897533D03*
G04 #@! TO.P,SW27,2,2*
G04 #@! TO.N,Net-(D27-A)*
X188304882Y-72445400D03*
D15*
X198597079Y-61162722D03*
G04 #@! TD*
G04 #@! TO.P,SW31,1,1*
G04 #@! TO.N,COL8*
X202753739Y-53082744D03*
D14*
X209530300Y-63340733D03*
G04 #@! TO.P,SW31,2,2*
G04 #@! TO.N,Net-(D31-A)*
X204126082Y-62888600D03*
D15*
X214418279Y-51605922D03*
G04 #@! TD*
G04 #@! TO.P,SW35,1,1*
G04 #@! TO.N,COL9*
X221170539Y-51514844D03*
D14*
X227947100Y-61772833D03*
G04 #@! TO.P,SW35,2,2*
G04 #@! TO.N,Net-(D35-A)*
X222542882Y-61320700D03*
D15*
X232835079Y-50038022D03*
G04 #@! TD*
G04 #@! TO.P,SW38,1,1*
G04 #@! TO.N,COL10*
X239587439Y-49947044D03*
D14*
X246364000Y-60205033D03*
G04 #@! TO.P,SW38,2,2*
G04 #@! TO.N,Net-(D38-A)*
X240959782Y-59752900D03*
D15*
X251251979Y-48470222D03*
G04 #@! TD*
G04 #@! TO.P,SW41,1,1*
G04 #@! TO.N,COL11*
X258004339Y-48379144D03*
D14*
X264780900Y-58637133D03*
G04 #@! TO.P,SW41,2,2*
G04 #@! TO.N,Net-(D41-A)*
X259376682Y-58185000D03*
D15*
X269668879Y-46902322D03*
G04 #@! TD*
D13*
G04 #@! TO.P,SW1,2,2*
G04 #@! TO.N,Net-(D1-A)*
X49573706Y-35848554D03*
D14*
X34615353Y-38926830D03*
G04 #@! TO.P,SW1,1,1*
G04 #@! TO.N,COL0*
X38721700Y-42469133D03*
D13*
X39268841Y-30187083D03*
G04 #@! TD*
G04 #@! TO.P,SW4,1,1*
G04 #@! TO.N,COL1*
X57685741Y-31754983D03*
D14*
X57138600Y-44037033D03*
G04 #@! TO.P,SW4,2,2*
G04 #@! TO.N,Net-(D4-A)*
X53032253Y-40494730D03*
D13*
X67990606Y-37416454D03*
G04 #@! TD*
G04 #@! TO.P,SW7,1,1*
G04 #@! TO.N,COL2*
X76102641Y-33322883D03*
D14*
X75555500Y-45604933D03*
G04 #@! TO.P,SW7,2,2*
G04 #@! TO.N,Net-(D7-A)*
X71449153Y-42062630D03*
D13*
X86407506Y-38984354D03*
G04 #@! TD*
G04 #@! TO.P,SW10,1,1*
G04 #@! TO.N,COL3*
X94519541Y-34890783D03*
D14*
X93972400Y-47172833D03*
G04 #@! TO.P,SW10,2,2*
G04 #@! TO.N,Net-(D10-A)*
X89866053Y-43630530D03*
D13*
X104824406Y-40552254D03*
G04 #@! TD*
G04 #@! TO.P,SW14,1,1*
G04 #@! TO.N,COL4*
X110340641Y-44447483D03*
D14*
X109793500Y-56729533D03*
G04 #@! TO.P,SW14,2,2*
G04 #@! TO.N,Net-(D14-A)*
X105687153Y-53187230D03*
D13*
X120645506Y-50108954D03*
G04 #@! TD*
G04 #@! TO.P,SW18,1,1*
G04 #@! TO.N,COL5*
X126161841Y-54004183D03*
D14*
X125614700Y-66286233D03*
G04 #@! TO.P,SW18,2,2*
G04 #@! TO.N,Net-(D18-A)*
X121508353Y-62743930D03*
D13*
X136466706Y-59665654D03*
G04 #@! TD*
D15*
G04 #@! TO.P,SW22,1,1*
G04 #@! TO.N,COL6*
X165858139Y-56028244D03*
D14*
X172634700Y-66286233D03*
G04 #@! TO.P,SW22,2,2*
G04 #@! TO.N,Net-(D22-A)*
X167230482Y-65834100D03*
D15*
X177522679Y-54551422D03*
G04 #@! TD*
G04 #@! TO.P,SW26,1,1*
G04 #@! TO.N,COL7*
X181679239Y-46471544D03*
D14*
X188455800Y-56729533D03*
G04 #@! TO.P,SW26,2,2*
G04 #@! TO.N,Net-(D26-A)*
X183051582Y-56277400D03*
D15*
X193343779Y-44994722D03*
G04 #@! TD*
G04 #@! TO.P,SW30,1,1*
G04 #@! TO.N,COL8*
X197500439Y-36914844D03*
D14*
X204277000Y-47172833D03*
G04 #@! TO.P,SW30,2,2*
G04 #@! TO.N,Net-(D30-A)*
X198872782Y-46720700D03*
D15*
X209164979Y-35438022D03*
G04 #@! TD*
G04 #@! TO.P,SW34,1,1*
G04 #@! TO.N,COL9*
X215917339Y-35346944D03*
D14*
X222693900Y-45604933D03*
G04 #@! TO.P,SW34,2,2*
G04 #@! TO.N,Net-(D34-A)*
X217289682Y-45152800D03*
D15*
X227581879Y-33870122D03*
G04 #@! TD*
G04 #@! TO.P,SW37,1,1*
G04 #@! TO.N,COL10*
X234334139Y-33779044D03*
D14*
X241110700Y-44037033D03*
G04 #@! TO.P,SW37,2,2*
G04 #@! TO.N,Net-(D37-A)*
X235706482Y-43584900D03*
D15*
X245998679Y-32302222D03*
G04 #@! TD*
G04 #@! TO.P,SW40,1,1*
G04 #@! TO.N,COL11*
X252751039Y-32211144D03*
D14*
X259527600Y-42469133D03*
G04 #@! TO.P,SW40,2,2*
G04 #@! TO.N,Net-(D40-A)*
X254123382Y-42017000D03*
D15*
X264415579Y-30734322D03*
G04 #@! TD*
D16*
G04 #@! TO.P,U1,33,P1.07*
G04 #@! TO.N,unconnected-(U1-P1.07-Pad33)*
X149215500Y-55767800D03*
G04 #@! TO.P,U1,32,P1.02*
G04 #@! TO.N,unconnected-(U1-P1.02-Pad32)*
X146675500Y-55767800D03*
G04 #@! TO.P,U1,31,P1.01*
G04 #@! TO.N,unconnected-(U1-P1.01-Pad31)*
X144135500Y-55767800D03*
G04 #@! TO.P,U1,30*
G04 #@! TO.N,N/C*
X141595500Y-30367800D03*
G04 #@! TO.P,U1,34*
X156835500Y-30367800D03*
G04 #@! TO.P,U1,24,BATIN/P0.04*
G04 #@! TO.N,RAW*
X156835500Y-32907800D03*
G04 #@! TO.P,U1,12,P1.06*
G04 #@! TO.N,ROW1*
X141595500Y-60847800D03*
G04 #@! TO.P,U1,23,GND*
G04 #@! TO.N,GND*
X156835500Y-35447800D03*
G04 #@! TO.P,U1,22,RST*
G04 #@! TO.N,RST*
X156835500Y-37987800D03*
G04 #@! TO.P,U1,21,VCC*
G04 #@! TO.N,3.3V*
X156835500Y-40527800D03*
G04 #@! TO.P,U1,20,AIN7/P0.31*
G04 #@! TO.N,COL11*
X156835500Y-43067800D03*
G04 #@! TO.P,U1,19,AIN5/P0.29*
G04 #@! TO.N,COL10*
X156835500Y-45607800D03*
G04 #@! TO.P,U1,18,AIN0/P0.02*
G04 #@! TO.N,COL9*
X156835500Y-48147800D03*
G04 #@! TO.P,U1,17,P1.15*
G04 #@! TO.N,COL8*
X156835500Y-50687800D03*
G04 #@! TO.P,U1,16,P1.13*
G04 #@! TO.N,COL7*
X156835500Y-53227800D03*
G04 #@! TO.P,U1,15,P1.11*
G04 #@! TO.N,COL6*
X156835500Y-55767800D03*
G04 #@! TO.P,U1,14,NFC2/P0.10*
G04 #@! TO.N,ROW2*
X156835500Y-58307800D03*
G04 #@! TO.P,U1,13,NFC1/P0.09*
G04 #@! TO.N,ROW3*
X156835500Y-60847800D03*
G04 #@! TO.P,U1,11,P1.04*
G04 #@! TO.N,ROW0*
X141595500Y-58307800D03*
G04 #@! TO.P,U1,10,P0.11*
G04 #@! TO.N,COL5*
X141595500Y-55767800D03*
G04 #@! TO.P,U1,9,P1.00*
G04 #@! TO.N,COL4*
X141595500Y-53227800D03*
G04 #@! TO.P,U1,8,P0.24*
G04 #@! TO.N,COL3*
X141595500Y-50687800D03*
G04 #@! TO.P,U1,7,P0.22*
G04 #@! TO.N,COL2*
X141595500Y-48147800D03*
G04 #@! TO.P,U1,6,P0.20*
G04 #@! TO.N,COL1*
X141595500Y-45607800D03*
G04 #@! TO.P,U1,5,P0.17*
G04 #@! TO.N,COL0*
X141595500Y-43067800D03*
G04 #@! TO.P,U1,4,GND*
G04 #@! TO.N,GND*
X141595500Y-40527800D03*
G04 #@! TO.P,U1,3,GND*
X141595500Y-37987800D03*
G04 #@! TO.P,U1,2,RX1/P0.08*
G04 #@! TO.N,unconnected-(U1-RX1{slash}P0.08-Pad2)*
X141595500Y-35447800D03*
G04 #@! TO.P,U1,1,TX0/P0.06*
G04 #@! TO.N,unconnected-(U1-TX0{slash}P0.06-Pad1)*
X141595500Y-32907800D03*
G04 #@! TD*
D17*
G04 #@! TO.P,D11,1,K*
G04 #@! TO.N,ROW1*
X96916329Y-66034421D03*
G04 #@! TO.P,D11,2,A*
G04 #@! TO.N,Net-(D11-A)*
X97688871Y-63656779D03*
G04 #@! TD*
D18*
G04 #@! TO.P,D39,1,K*
G04 #@! TO.N,ROW2*
X243399371Y-79220021D03*
G04 #@! TO.P,D39,2,A*
G04 #@! TO.N,Net-(D39-A)*
X242626829Y-76842379D03*
G04 #@! TD*
D17*
G04 #@! TO.P,D12,2,A*
G04 #@! TO.N,Net-(D12-A)*
X92435571Y-79824679D03*
G04 #@! TO.P,D12,1,K*
G04 #@! TO.N,ROW2*
X91663029Y-82202321D03*
G04 #@! TD*
G04 #@! TO.P,D10,2,A*
G04 #@! TO.N,Net-(D10-A)*
X102942071Y-47488779D03*
G04 #@! TO.P,D10,1,K*
G04 #@! TO.N,ROW0*
X102169529Y-49866421D03*
G04 #@! TD*
D18*
G04 #@! TO.P,D26,1,K*
G04 #@! TO.N,ROW0*
X180237871Y-59576621D03*
G04 #@! TO.P,D26,2,A*
G04 #@! TO.N,Net-(D26-A)*
X179465329Y-57198979D03*
G04 #@! TD*
G04 #@! TO.P,D24,1,K*
G04 #@! TO.N,ROW2*
X174923271Y-101469221D03*
G04 #@! TO.P,D24,2,A*
G04 #@! TO.N,Net-(D24-A)*
X174150729Y-99091579D03*
G04 #@! TD*
D17*
G04 #@! TO.P,D4,2,A*
G04 #@! TO.N,Net-(D4-A)*
X66108371Y-44353079D03*
G04 #@! TO.P,D4,1,K*
G04 #@! TO.N,ROW0*
X65335829Y-46730721D03*
G04 #@! TD*
D18*
G04 #@! TO.P,D25,1,K*
G04 #@! TO.N,ROW3*
X175896771Y-119027721D03*
G04 #@! TO.P,D25,2,A*
G04 #@! TO.N,Net-(D25-A)*
X175124229Y-116650079D03*
G04 #@! TD*
D17*
G04 #@! TO.P,D16,2,A*
G04 #@! TO.N,Net-(D16-A)*
X108256671Y-89381479D03*
G04 #@! TO.P,D16,1,K*
G04 #@! TO.N,ROW2*
X107484129Y-91759121D03*
G04 #@! TD*
G04 #@! TO.P,D17,2,A*
G04 #@! TO.N,Net-(D17-A)*
X103003371Y-105549379D03*
G04 #@! TO.P,D17,1,K*
G04 #@! TO.N,ROW3*
X102230829Y-107927021D03*
G04 #@! TD*
G04 #@! TO.P,D14,2,A*
G04 #@! TO.N,Net-(D14-A)*
X118763271Y-57045479D03*
G04 #@! TO.P,D14,1,K*
G04 #@! TO.N,ROW0*
X117990729Y-59423121D03*
G04 #@! TD*
D18*
G04 #@! TO.P,D32,1,K*
G04 #@! TO.N,ROW2*
X206565571Y-82355721D03*
G04 #@! TO.P,D32,2,A*
G04 #@! TO.N,Net-(D32-A)*
X205793029Y-79978079D03*
G04 #@! TD*
G04 #@! TO.P,D27,1,K*
G04 #@! TO.N,ROW1*
X185491171Y-75744521D03*
G04 #@! TO.P,D27,2,A*
G04 #@! TO.N,Net-(D27-A)*
X184718629Y-73366879D03*
G04 #@! TD*
G04 #@! TO.P,D38,1,K*
G04 #@! TO.N,ROW1*
X238146071Y-63052021D03*
G04 #@! TO.P,D38,2,A*
G04 #@! TO.N,Net-(D38-A)*
X237373529Y-60674379D03*
G04 #@! TD*
D17*
G04 #@! TO.P,D20,2,A*
G04 #@! TO.N,Net-(D20-A)*
X124077871Y-98938179D03*
G04 #@! TO.P,D20,1,K*
G04 #@! TO.N,ROW2*
X123305329Y-101315821D03*
G04 #@! TD*
G04 #@! TO.P,D21,2,A*
G04 #@! TO.N,Net-(D21-A)*
X123104271Y-116496679D03*
G04 #@! TO.P,D21,1,K*
G04 #@! TO.N,ROW3*
X122331729Y-118874321D03*
G04 #@! TD*
G04 #@! TO.P,D3,2,A*
G04 #@! TO.N,Net-(D3-A)*
X37184871Y-75121079D03*
G04 #@! TO.P,D3,1,K*
G04 #@! TO.N,ROW2*
X36412329Y-77498721D03*
G04 #@! TD*
D18*
G04 #@! TO.P,D37,1,K*
G04 #@! TO.N,ROW0*
X232892771Y-46884121D03*
G04 #@! TO.P,D37,2,A*
G04 #@! TO.N,Net-(D37-A)*
X232120229Y-44506479D03*
G04 #@! TD*
G04 #@! TO.P,D30,1,K*
G04 #@! TO.N,ROW0*
X196058971Y-50019821D03*
G04 #@! TO.P,D30,2,A*
G04 #@! TO.N,Net-(D30-A)*
X195286429Y-47642179D03*
G04 #@! TD*
D17*
G04 #@! TO.P,D9,2,A*
G04 #@! TO.N,Net-(D9-A)*
X74018671Y-78256879D03*
G04 #@! TO.P,D9,1,K*
G04 #@! TO.N,ROW2*
X73246129Y-80634521D03*
G04 #@! TD*
G04 #@! TO.P,D18,1,K*
G04 #@! TO.N,ROW0*
X133811829Y-68979921D03*
G04 #@! TO.P,D18,2,A*
G04 #@! TO.N,Net-(D18-A)*
X134584371Y-66602279D03*
G04 #@! TD*
G04 #@! TO.P,D2,2,A*
G04 #@! TO.N,Net-(D2-A)*
X42438171Y-58953179D03*
G04 #@! TO.P,D2,1,K*
G04 #@! TO.N,ROW1*
X41665629Y-61330821D03*
G04 #@! TD*
D18*
G04 #@! TO.P,D34,1,K*
G04 #@! TO.N,ROW0*
X214475871Y-48451921D03*
G04 #@! TO.P,D34,2,A*
G04 #@! TO.N,Net-(D34-A)*
X213703329Y-46074279D03*
G04 #@! TD*
G04 #@! TO.P,D42,1,K*
G04 #@! TO.N,ROW2*
X261816271Y-77652121D03*
G04 #@! TO.P,D42,2,A*
G04 #@! TO.N,Net-(D42-A)*
X261043729Y-75274479D03*
G04 #@! TD*
G04 #@! TO.P,D31,1,K*
G04 #@! TO.N,ROW1*
X201312271Y-66187821D03*
G04 #@! TO.P,D31,2,A*
G04 #@! TO.N,Net-(D31-A)*
X200539729Y-63810179D03*
G04 #@! TD*
D17*
G04 #@! TO.P,D13,2,A*
G04 #@! TO.N,Net-(D13-A)*
X87182271Y-95992679D03*
G04 #@! TO.P,D13,1,K*
G04 #@! TO.N,ROW3*
X86409729Y-98370321D03*
G04 #@! TD*
D18*
G04 #@! TO.P,D40,1,K*
G04 #@! TO.N,ROW0*
X251309671Y-45316221D03*
G04 #@! TO.P,D40,2,A*
G04 #@! TO.N,Net-(D40-A)*
X250537129Y-42938579D03*
G04 #@! TD*
G04 #@! TO.P,D41,1,K*
G04 #@! TO.N,ROW1*
X256562971Y-61484221D03*
G04 #@! TO.P,D41,2,A*
G04 #@! TO.N,Net-(D41-A)*
X255790429Y-59106579D03*
G04 #@! TD*
D17*
G04 #@! TO.P,D6,2,A*
G04 #@! TO.N,Net-(D6-A)*
X55601771Y-76688979D03*
G04 #@! TO.P,D6,1,K*
G04 #@! TO.N,ROW2*
X54829229Y-79066621D03*
G04 #@! TD*
D18*
G04 #@! TO.P,D29,1,K*
G04 #@! TO.N,ROW3*
X195997671Y-108080421D03*
G04 #@! TO.P,D29,2,A*
G04 #@! TO.N,Net-(D29-A)*
X195225129Y-105702779D03*
G04 #@! TD*
G04 #@! TO.P,D22,1,K*
G04 #@! TO.N,ROW0*
X164416671Y-69133321D03*
G04 #@! TO.P,D22,2,A*
G04 #@! TO.N,Net-(D22-A)*
X163644129Y-66755679D03*
G04 #@! TD*
G04 #@! TO.P,D33,1,K*
G04 #@! TO.N,ROW3*
X211818871Y-98523721D03*
G04 #@! TO.P,D33,2,A*
G04 #@! TO.N,Net-(D33-A)*
X211046329Y-96146079D03*
G04 #@! TD*
D17*
G04 #@! TO.P,D15,2,A*
G04 #@! TO.N,Net-(D15-A)*
X113509971Y-73213479D03*
G04 #@! TO.P,D15,1,K*
G04 #@! TO.N,ROW1*
X112737429Y-75591121D03*
G04 #@! TD*
D18*
G04 #@! TO.P,D28,1,K*
G04 #@! TO.N,ROW2*
X190744371Y-91912521D03*
G04 #@! TO.P,D28,2,A*
G04 #@! TO.N,Net-(D28-A)*
X189971829Y-89534879D03*
G04 #@! TD*
G04 #@! TO.P,D36,1,K*
G04 #@! TO.N,ROW2*
X224982471Y-80787921D03*
G04 #@! TO.P,D36,2,A*
G04 #@! TO.N,Net-(D36-A)*
X224209929Y-78410279D03*
G04 #@! TD*
G04 #@! TO.P,D23,1,K*
G04 #@! TO.N,ROW1*
X169669971Y-85301321D03*
G04 #@! TO.P,D23,2,A*
G04 #@! TO.N,Net-(D23-A)*
X168897429Y-82923679D03*
G04 #@! TD*
D17*
G04 #@! TO.P,D1,1,K*
G04 #@! TO.N,ROW0*
X46918429Y-45162721D03*
G04 #@! TO.P,D1,2,A*
G04 #@! TO.N,Net-(D1-A)*
X47690971Y-42785079D03*
G04 #@! TD*
D18*
G04 #@! TO.P,D35,1,K*
G04 #@! TO.N,ROW1*
X219729171Y-64619921D03*
G04 #@! TO.P,D35,2,A*
G04 #@! TO.N,Net-(D35-A)*
X218956629Y-62242279D03*
G04 #@! TD*
D17*
G04 #@! TO.P,D5,2,A*
G04 #@! TO.N,Net-(D5-A)*
X60854071Y-60520679D03*
G04 #@! TO.P,D5,1,K*
G04 #@! TO.N,ROW1*
X60081529Y-62898321D03*
G04 #@! TD*
G04 #@! TO.P,D7,2,A*
G04 #@! TO.N,Net-(D7-A)*
X84525271Y-45920879D03*
G04 #@! TO.P,D7,1,K*
G04 #@! TO.N,ROW0*
X83752729Y-48298521D03*
G04 #@! TD*
G04 #@! TO.P,D19,2,A*
G04 #@! TO.N,Net-(D19-A)*
X129331071Y-82770279D03*
G04 #@! TO.P,D19,1,K*
G04 #@! TO.N,ROW1*
X128558529Y-85147921D03*
G04 #@! TD*
G04 #@! TO.P,D8,2,A*
G04 #@! TO.N,Net-(D8-A)*
X79271971Y-62088879D03*
G04 #@! TO.P,D8,1,K*
G04 #@! TO.N,ROW1*
X78499429Y-64466521D03*
G04 #@! TD*
D19*
G04 #@! TO.N,Net-(BATT1--)*
X149215469Y-31877832D03*
X165822280Y-32351327D03*
G04 #@! TO.N,ROW0*
X120108800Y-57305000D03*
G04 #@! TO.N,Net-(D40-A)*
X264415579Y-30734322D03*
G04 #@! TO.N,COL6*
X165715469Y-56074540D03*
G04 #@! TO.N,Net-(D2-A)*
X37215469Y-57377832D03*
G04 #@! TO.N,COL6*
X176364700Y-88364200D03*
G04 #@! TO.N,Net-(D41-A)*
X269715469Y-46877832D03*
G04 #@! TO.N,COL10*
X237434500Y-47277832D03*
X244715469Y-63877832D03*
G04 #@! TO.N,COL9*
X214991000Y-45622300D03*
X218398000Y-48742300D03*
X226256200Y-64865000D03*
G04 #@! TO.N,COL8*
X203962569Y-50624932D03*
X209719600Y-70714000D03*
G04 #@! TO.N,COL7*
X200088101Y-101505200D03*
X193487500Y-60121200D03*
X190482200Y-80242400D03*
G04 #@! TO.N,COL5*
X123460618Y-79122981D03*
G04 #@! TO.N,COL4*
X101199300Y-87341400D03*
G04 #@! TO.N,COL3*
X84650400Y-65102500D03*
X107731300Y-47081300D03*
X71715469Y-82083631D03*
G04 #@! TO.N,COL2*
X71533600Y-47371000D03*
X65797000Y-63534500D03*
G04 #@! TO.N,COL1*
X108109400Y-45983901D03*
X52691400Y-45798800D03*
X48384500Y-61644900D03*
G04 #@! TO.N,ROW0*
X162315469Y-62661716D03*
X85783000Y-49130100D03*
X101215469Y-49130100D03*
G04 #@! TO.N,Net-(D24-A)*
X188835600Y-89452300D03*
G04 #@! TO.N,Net-(D1-A)*
X39215469Y-39877832D03*
G04 #@! TD*
D20*
G04 #@! TO.N,COL1*
X116279400Y-45607800D02*
X141595500Y-45607800D01*
X108109400Y-45983901D02*
X109719599Y-47594100D01*
X109719599Y-47594100D02*
X114293100Y-47594100D01*
X114293100Y-47594100D02*
X116279400Y-45607800D01*
G04 #@! TO.N,ROW1*
X169669971Y-85301321D02*
X169047205Y-85301321D01*
X169047205Y-85301321D02*
X167978299Y-84232415D01*
X141745501Y-60847800D02*
X141595500Y-60847800D01*
X167978299Y-84232415D02*
X167978299Y-74140662D01*
X167978299Y-74140662D02*
X161715469Y-67877832D01*
X161715469Y-67877832D02*
X161715469Y-61428969D01*
X145555501Y-57037800D02*
X141745501Y-60847800D01*
X161715469Y-61428969D02*
X157324300Y-57037800D01*
X157324300Y-57037800D02*
X145555501Y-57037800D01*
G04 #@! TO.N,ROW2*
X103668100Y-87943100D02*
X103668100Y-81746100D01*
X103668100Y-81746100D02*
X106135900Y-79278300D01*
X122452727Y-80377832D02*
X127950000Y-85875105D01*
X106135900Y-79278300D02*
X112408830Y-79278300D01*
X112408830Y-79278300D02*
X114508362Y-81377832D01*
X114508362Y-81377832D02*
X117215469Y-81377832D01*
X117215469Y-81377832D02*
X118215469Y-80377832D01*
X118215469Y-80377832D02*
X122452727Y-80377832D01*
X127950000Y-85875105D02*
X127950000Y-86135500D01*
G04 #@! TO.N,ROW3*
X156835500Y-118874300D02*
X173719001Y-118874300D01*
X173719001Y-118874300D02*
X174205099Y-118388202D01*
X160715469Y-61843181D02*
X159720088Y-60847800D01*
X174205099Y-118388202D02*
X174205099Y-102080921D01*
X160715469Y-68313492D02*
X160715469Y-61843181D01*
X174205099Y-102080921D02*
X171849600Y-99725422D01*
X166978299Y-84646628D02*
X166978299Y-74576321D01*
X171849600Y-99725422D02*
X171849600Y-86877832D01*
X171849600Y-86877832D02*
X169209503Y-86877832D01*
X159720088Y-60847800D02*
X156835500Y-60847800D01*
X169209503Y-86877832D02*
X166978299Y-84646628D01*
X161008362Y-68606385D02*
X160715469Y-68313492D01*
X166978299Y-74576321D02*
X161008362Y-68606385D01*
G04 #@! TO.N,ROW2*
X174923300Y-101469200D02*
X174300484Y-101469200D01*
X172349600Y-99518316D02*
X172349600Y-86377832D01*
X174300484Y-101469200D02*
X172349600Y-99518316D01*
X197999200Y-87062400D02*
X200738008Y-87062400D01*
X188359500Y-89827000D02*
X190445000Y-91912500D01*
X182215469Y-88525201D02*
X184068100Y-90377832D01*
X185959401Y-89827000D02*
X188359500Y-89827000D01*
X193149100Y-91912500D02*
X197999200Y-87062400D01*
X185408569Y-90377832D02*
X185959401Y-89827000D01*
X184068100Y-90377832D02*
X185408569Y-90377832D01*
X174715468Y-86377832D02*
X175900300Y-85193000D01*
X182215469Y-86982351D02*
X182215469Y-88525201D01*
X214047800Y-78117500D02*
X222312100Y-78117500D01*
X190445000Y-91912500D02*
X193149100Y-91912500D01*
X180426118Y-85193000D02*
X182215469Y-86982351D01*
X200738008Y-87062400D02*
X205444708Y-82355700D01*
X175900300Y-85193000D02*
X180426118Y-85193000D01*
X205444708Y-82355700D02*
X209809600Y-82355700D01*
X234512507Y-80787900D02*
X236080386Y-79220021D01*
X236080386Y-79220021D02*
X260248379Y-79220021D01*
X172349600Y-86377832D02*
X174715468Y-86377832D01*
X209809600Y-82355700D02*
X214047800Y-78117500D01*
X222312100Y-78117500D02*
X224982500Y-80787900D01*
X224982500Y-80787900D02*
X234512507Y-80787900D01*
X260248379Y-79220021D02*
X261816300Y-77652100D01*
G04 #@! TO.N,ROW1*
X185491200Y-77516600D02*
X185491200Y-79602101D01*
X185491200Y-79602101D02*
X180400301Y-84693000D01*
X180400301Y-84693000D02*
X175693194Y-84693000D01*
X175693194Y-84693000D02*
X174508362Y-85877832D01*
X174508362Y-85877832D02*
X170246482Y-85877832D01*
X170246482Y-85877832D02*
X169669971Y-85301321D01*
G04 #@! TO.N,ROW2*
X172349600Y-86377832D02*
X169416610Y-86377832D01*
X169416610Y-86377832D02*
X167478299Y-84439521D01*
X167478299Y-84439521D02*
X167478299Y-74369215D01*
X167478299Y-74369215D02*
X161215469Y-68106385D01*
X161215469Y-68106385D02*
X161215469Y-61636075D01*
X161215469Y-61636075D02*
X157887194Y-58307800D01*
X157887194Y-58307800D02*
X156835500Y-58307800D01*
G04 #@! TO.N,Net-(D27-A)*
X185384800Y-72700700D02*
X184896000Y-72211900D01*
X184896000Y-72211900D02*
X184896000Y-60951351D01*
X184896000Y-60951351D02*
X186373451Y-59473900D01*
X186373451Y-59473900D02*
X196908257Y-59473900D01*
X196908257Y-59473900D02*
X198597079Y-61162722D01*
G04 #@! TO.N,COL6*
X165715469Y-56074540D02*
X165858139Y-56704400D01*
X165858139Y-56704400D02*
X165858139Y-55377832D01*
X165858139Y-55377832D02*
X157225468Y-55377832D01*
X157225468Y-55377832D02*
X156835500Y-55767800D01*
G04 #@! TO.N,Net-(D19-A)*
X116255100Y-78911900D02*
X116721032Y-79377832D01*
X116721032Y-79377832D02*
X122866940Y-79377832D01*
X122866940Y-79377832D02*
X123282601Y-79793493D01*
X126956693Y-79793493D02*
X127807700Y-80644500D01*
X123282601Y-79793493D02*
X126956693Y-79793493D01*
G04 #@! TO.N,COL3*
X89266241Y-51058683D02*
X87584031Y-51058683D01*
X87584031Y-51058683D02*
X83715469Y-54927245D01*
X83715469Y-54927245D02*
X83715469Y-56377832D01*
X85449369Y-63340700D02*
X88719100Y-63340700D01*
X83715469Y-56377832D02*
X82715469Y-57377832D01*
X82715469Y-57377832D02*
X82715469Y-60606800D01*
X82715469Y-60606800D02*
X85449369Y-63340700D01*
X89942400Y-48977400D02*
X89942400Y-50382524D01*
X89942400Y-50382524D02*
X89266241Y-51058683D01*
G04 #@! TO.N,Net-(D14-A)*
X120645500Y-50109000D02*
X119969300Y-52190200D01*
X119969300Y-52190200D02*
X119969400Y-52190200D01*
X119969400Y-52190200D02*
X119969400Y-55839400D01*
X119969400Y-55839400D02*
X118763300Y-57045500D01*
X118763300Y-57045500D02*
X113383137Y-57045500D01*
X113383137Y-57045500D02*
X109524837Y-53187200D01*
X109524837Y-53187200D02*
X105687200Y-53187200D01*
G04 #@! TO.N,RAW*
X156835500Y-32907800D02*
X155765500Y-33977800D01*
X155765500Y-33977800D02*
X149215500Y-33977800D01*
G04 #@! TO.N,COL3*
X141595500Y-50687800D02*
X141560469Y-50687800D01*
X141560469Y-50687800D02*
X137867869Y-46995200D01*
X137867869Y-46995200D02*
X116098101Y-46995200D01*
X116098101Y-46995200D02*
X114938001Y-48155300D01*
X114938001Y-48155300D02*
X108805300Y-48155300D01*
X108805300Y-48155300D02*
X107731300Y-47081300D01*
X71715469Y-82083631D02*
X71715469Y-92377832D01*
X71715469Y-92377832D02*
X75014237Y-95676600D01*
X75014237Y-95676600D02*
X78212500Y-95676600D01*
G04 #@! TO.N,Net-(D1-A)*
X40047332Y-39877832D02*
X42954579Y-42785079D01*
X39215469Y-39877832D02*
X40047332Y-39877832D01*
X42954579Y-42785079D02*
X47690971Y-42785079D01*
G04 #@! TO.N,COL0*
X33468400Y-58752700D02*
X29997700Y-62223400D01*
X26715469Y-68746331D02*
X26715469Y-73305469D01*
X33468400Y-58637100D02*
X33468400Y-58752700D01*
X37654500Y-52103900D02*
X37654500Y-54451000D01*
X39268800Y-30187100D02*
X37715469Y-31740431D01*
X29997700Y-62223400D02*
X29864500Y-62223400D01*
X26715469Y-73305469D02*
X28215100Y-74805100D01*
X37654500Y-54451000D02*
X33468400Y-58637100D01*
X34015500Y-48464900D02*
X37654500Y-52103900D01*
X34015500Y-46355100D02*
X34015500Y-48464900D01*
X36917000Y-44273800D02*
X34691700Y-44273800D01*
X34691700Y-44273800D02*
X34015500Y-46355100D01*
X38721700Y-42469100D02*
X36917000Y-44273800D01*
X29776800Y-62311100D02*
X29776800Y-62663100D01*
X37715469Y-31740431D02*
X37715469Y-41462869D01*
X29775300Y-62664600D02*
X29775300Y-64405600D01*
X29776800Y-64407100D02*
X29776800Y-65685000D01*
X37715469Y-41462869D02*
X38721700Y-42469100D01*
X29775300Y-64405600D02*
X29776800Y-64407100D01*
X29776800Y-65685000D02*
X26715469Y-68746331D01*
X29864500Y-62223400D02*
X29776800Y-62311100D01*
X29776800Y-62663100D02*
X29775300Y-62664600D01*
G04 #@! TO.N,Net-(D33-A)*
X224924800Y-83941800D02*
X225601000Y-86023100D01*
X225601000Y-86023100D02*
X225601000Y-93050401D01*
X217285932Y-97877832D02*
X214632600Y-95224500D01*
X225601000Y-93050401D02*
X220773569Y-97877832D01*
X220773569Y-97877832D02*
X217285932Y-97877832D01*
X214632600Y-95224500D02*
X213711000Y-96146100D01*
X213711000Y-96146100D02*
X211046300Y-96146100D01*
G04 #@! TO.N,COL8*
X214783500Y-79508733D02*
X213936300Y-80355933D01*
X213936300Y-80355933D02*
X213936300Y-89576100D01*
X213936300Y-89576100D02*
X220036800Y-95676600D01*
X214783500Y-79508700D02*
X214783500Y-79508733D01*
G04 #@! TO.N,Net-(D28-A)*
X203850379Y-77330622D02*
X204215469Y-77695712D01*
X195476662Y-88877832D02*
X193822714Y-88877832D01*
X204215469Y-77695712D02*
X204215469Y-82877832D01*
X193822714Y-88877832D02*
X193558182Y-88613300D01*
X204215469Y-82877832D02*
X200530901Y-86562400D01*
X200530901Y-86562400D02*
X197792094Y-86562400D01*
X197792094Y-86562400D02*
X195476662Y-88877832D01*
G04 #@! TO.N,Net-(D23-A)*
X182776000Y-70719400D02*
X183452200Y-72800700D01*
X183452200Y-72800700D02*
X183452200Y-80141101D01*
X171562200Y-82923700D02*
X168897400Y-82923700D01*
X183452200Y-80141101D02*
X179400301Y-84193000D01*
X174674700Y-84193000D02*
X172483800Y-82002100D01*
X179400301Y-84193000D02*
X174674700Y-84193000D01*
X172483800Y-82002100D02*
X171562200Y-82923700D01*
G04 #@! TO.N,COL6*
X181550300Y-98953200D02*
X181550300Y-98832932D01*
X177629400Y-94912032D02*
X177629400Y-89628905D01*
X181550300Y-98832932D02*
X177629400Y-94912032D01*
X177629400Y-89628905D02*
X176364700Y-88364205D01*
X176364700Y-88364205D02*
X176364700Y-88364200D01*
G04 #@! TO.N,Net-(D36-A)*
X224209900Y-78410300D02*
X226874600Y-78410300D01*
X226874600Y-78410300D02*
X227796200Y-77488700D01*
X227796200Y-77488700D02*
X230595400Y-80287900D01*
X234305401Y-80287900D02*
X238715469Y-75877832D01*
X230595400Y-80287900D02*
X234305401Y-80287900D01*
X238715469Y-75877832D02*
X238715469Y-66833069D01*
X238715469Y-66833069D02*
X238088400Y-66206000D01*
G04 #@! TO.N,Net-(D38-A)*
X240959800Y-60213600D02*
X241295568Y-59877832D01*
X241295568Y-59877832D02*
X243158832Y-59877832D01*
X243158832Y-59877832D02*
X245658832Y-62377832D01*
X247715469Y-62377832D02*
X251715469Y-58377832D01*
X245658832Y-62377832D02*
X247715469Y-62377832D01*
X251715469Y-48933669D02*
X251252000Y-48470200D01*
X251715469Y-58377832D02*
X251715469Y-48933669D01*
G04 #@! TO.N,Net-(D35-A)*
X218956600Y-62242300D02*
X219821068Y-61377832D01*
X219821068Y-61377832D02*
X222485768Y-61377832D01*
X222485768Y-61377832D02*
X222542900Y-61320700D01*
X222542900Y-61320700D02*
X224939900Y-63717700D01*
X228666500Y-63717700D02*
X233215469Y-59168731D01*
X224939900Y-63717700D02*
X228666500Y-63717700D01*
X233215469Y-50418369D02*
X232835100Y-50038000D01*
X233215469Y-59168731D02*
X233215469Y-50418369D01*
G04 #@! TO.N,Net-(D37-A)*
X235706500Y-44045700D02*
X238241400Y-44045700D01*
X246715469Y-33018969D02*
X245998700Y-32302200D01*
X238241400Y-44045700D02*
X240073532Y-45877832D01*
X242215469Y-45877832D02*
X246715469Y-41377832D01*
X240073532Y-45877832D02*
X242215469Y-45877832D01*
X246715469Y-41377832D02*
X246715469Y-33018969D01*
G04 #@! TO.N,Net-(D34-A)*
X213703300Y-46074300D02*
X213853000Y-46224000D01*
X213853000Y-46224000D02*
X216218500Y-46224000D01*
X217289700Y-45152800D02*
X219160900Y-47024000D01*
X228215469Y-34503669D02*
X227581900Y-33870100D01*
X216218500Y-46224000D02*
X217289700Y-45152800D01*
X219160900Y-47024000D02*
X223230000Y-47024000D01*
X223230000Y-47024000D02*
X228215469Y-42038531D01*
X228215469Y-42038531D02*
X228215469Y-34503669D01*
G04 #@! TO.N,COL10*
X237434500Y-47277832D02*
X239587439Y-49430771D01*
X239587439Y-49430771D02*
X239587439Y-49947044D01*
X240263600Y-50623205D02*
X240263600Y-52028300D01*
X239587439Y-49947044D02*
X240263600Y-50623205D01*
X240263500Y-52028300D02*
X240263500Y-54104500D01*
X240263600Y-52028300D02*
X240263500Y-52028300D01*
X240263500Y-54104500D02*
X246364000Y-60205000D01*
G04 #@! TO.N,ROW3*
X156835500Y-118874300D02*
X175743400Y-118874300D01*
X175743400Y-118874300D02*
X175896800Y-119027700D01*
X175896800Y-119027700D02*
X176546668Y-118377832D01*
X176546668Y-118377832D02*
X185422576Y-118377832D01*
X185422576Y-118377832D02*
X195720008Y-108080400D01*
X195720008Y-108080400D02*
X198012901Y-108080400D01*
X198012901Y-108080400D02*
X202864401Y-103228900D01*
X202864401Y-103228900D02*
X207113700Y-103228900D01*
X207113700Y-103228900D02*
X211818900Y-98523700D01*
G04 #@! TO.N,Net-(D25-A)*
X178710600Y-116189300D02*
X179022068Y-115877832D01*
X189715469Y-105158569D02*
X189002800Y-104445900D01*
X179022068Y-115877832D02*
X180798632Y-115877832D01*
X180798632Y-115877832D02*
X182798632Y-117877832D01*
X182798632Y-117877832D02*
X185215469Y-117877832D01*
X185215469Y-117877832D02*
X189715469Y-113377832D01*
X189715469Y-113377832D02*
X189715469Y-105158569D01*
G04 #@! TO.N,ROW3*
X86409700Y-98370300D02*
X86409700Y-101779169D01*
X86409700Y-101779169D02*
X92557531Y-107927000D01*
X92557531Y-107927000D02*
X102230829Y-107927000D01*
X102230829Y-107927000D02*
X102230829Y-107927030D01*
X102230829Y-107927030D02*
X110984499Y-116680700D01*
X112149620Y-116680700D02*
X113846752Y-118377832D01*
X110984499Y-116680700D02*
X112149620Y-116680700D01*
X122211937Y-118874300D02*
X156835500Y-118874300D01*
X113846752Y-118377832D02*
X121715469Y-118377832D01*
X121715469Y-118377832D02*
X122211937Y-118874300D01*
G04 #@! TO.N,ROW2*
X100597600Y-87493300D02*
X100597600Y-87590500D01*
X100950200Y-87943100D02*
X103668100Y-87943100D01*
X96453900Y-83349600D02*
X100597600Y-87493300D01*
X100597600Y-87590500D02*
X100950200Y-87943100D01*
X92810300Y-83349600D02*
X96453900Y-83349600D01*
X36412300Y-77498700D02*
X37980200Y-79066600D01*
X87716100Y-82202300D02*
X91663000Y-82202300D01*
X83040568Y-86877832D02*
X87716100Y-82202300D01*
X91663000Y-82202300D02*
X92810300Y-83349600D01*
X56397100Y-80634500D02*
X73246100Y-80634500D01*
X73246100Y-82408463D02*
X77715469Y-86877832D01*
X37980200Y-79066600D02*
X54829200Y-79066600D01*
X77715469Y-86877832D02*
X83040568Y-86877832D01*
X73246100Y-80634500D02*
X73246100Y-82408463D01*
X54829200Y-79066600D02*
X56397100Y-80634500D01*
G04 #@! TO.N,COL11*
X270034200Y-74805100D02*
X263933700Y-68704600D01*
X262581500Y-62465800D02*
X263352700Y-61694600D01*
X263933700Y-68704600D02*
X263933700Y-66628400D01*
X262581400Y-62465800D02*
X262581500Y-62465800D01*
X263933700Y-66628400D02*
X263933800Y-66628400D01*
X263933800Y-66628400D02*
X262581400Y-62465800D01*
X263352700Y-61694600D02*
X263352700Y-58637100D01*
G04 #@! TO.N,Net-(D39-A)*
X242626800Y-76842400D02*
X245291500Y-76842400D01*
X245291500Y-76842400D02*
X246213100Y-75920800D01*
X246213100Y-75920800D02*
X248067100Y-77774800D01*
X248067100Y-77774800D02*
X252157500Y-77774800D01*
X252157500Y-77774800D02*
X257215469Y-72716831D01*
X257215469Y-72716831D02*
X257215469Y-65348269D01*
X257215469Y-65348269D02*
X256505300Y-64638100D01*
G04 #@! TO.N,COL11*
X259527600Y-42469133D02*
X259715469Y-42657002D01*
X259715469Y-43910531D02*
X257328200Y-46297800D01*
X257328100Y-46297800D02*
X258680500Y-50460400D01*
X259715469Y-42657002D02*
X259715469Y-43910531D01*
X257328200Y-46297800D02*
X257328100Y-46297800D01*
X258680500Y-50460400D02*
X258680400Y-50460400D01*
X258680400Y-52936000D02*
X263352700Y-57608300D01*
X258680400Y-50460400D02*
X258680400Y-52936000D01*
X263352700Y-57608300D02*
X263352700Y-58637100D01*
X253427100Y-34292400D02*
X253427100Y-37110100D01*
X253427200Y-34292400D02*
X253427100Y-34292400D01*
X258786133Y-42469133D02*
X259527600Y-42469133D01*
X253427100Y-37110100D02*
X258786133Y-42469133D01*
X252751000Y-32211100D02*
X253427200Y-34292400D01*
G04 #@! TO.N,COL9*
X233200400Y-77940800D02*
X226423839Y-71164239D01*
X226423839Y-71164239D02*
X226423839Y-65260639D01*
X226423839Y-65260639D02*
X226256200Y-65093000D01*
X226256200Y-65093000D02*
X226256200Y-64865000D01*
G04 #@! TO.N,Net-(D38-A)*
X237373500Y-60674400D02*
X238295000Y-59752900D01*
X238295000Y-59752900D02*
X240499100Y-59752900D01*
X240499100Y-59752900D02*
X240959800Y-60213600D01*
G04 #@! TO.N,ROW1*
X220131400Y-64217700D02*
X236980400Y-64217700D01*
X211081000Y-71291800D02*
X214156200Y-68216600D01*
X217676800Y-64619900D02*
X219729200Y-64619900D01*
X209992700Y-71291800D02*
X211081000Y-71291800D01*
X214156200Y-68140500D02*
X217676800Y-64619900D01*
X206416400Y-71291800D02*
X209446600Y-71291800D01*
X209968800Y-71315700D02*
X209992700Y-71291800D01*
X202405800Y-67281200D02*
X206416400Y-71291800D01*
X209470500Y-71315700D02*
X209968800Y-71315700D01*
X238320268Y-62877832D02*
X255169368Y-62877832D01*
X236980400Y-64217700D02*
X238320268Y-62877832D01*
X214156200Y-68216600D02*
X214156200Y-68140500D01*
X209446600Y-71291800D02*
X209470500Y-71315700D01*
X219729200Y-64619900D02*
X220131400Y-64217700D01*
X255169368Y-62877832D02*
X256563000Y-61484200D01*
G04 #@! TO.N,COL10*
X244715469Y-65008869D02*
X244840700Y-65134100D01*
X245516800Y-68196200D02*
X245516800Y-70272400D01*
X244715469Y-63877832D02*
X244715469Y-65008869D01*
X244840700Y-65134100D02*
X244840700Y-66114900D01*
X244840700Y-66114900D02*
X245516900Y-68196200D01*
X245516900Y-68196200D02*
X245516800Y-68196200D01*
X245516800Y-70272400D02*
X251617300Y-76372900D01*
G04 #@! TO.N,Net-(D25-A)*
X175124200Y-116650100D02*
X175896468Y-115877832D01*
X175896468Y-115877832D02*
X178399132Y-115877832D01*
X178399132Y-115877832D02*
X178710600Y-116189300D01*
G04 #@! TO.N,COL6*
X172634700Y-66286200D02*
X171111439Y-67809461D01*
X171111439Y-67809461D02*
X171111439Y-75677639D01*
X171111439Y-75677639D02*
X177888000Y-82454200D01*
G04 #@! TO.N,Net-(D26-A)*
X179465300Y-57199000D02*
X182130000Y-57199000D01*
X182130000Y-57199000D02*
X183051600Y-56277400D01*
X189498495Y-58387700D02*
X190224800Y-57661395D01*
X190224800Y-54020500D02*
X193343800Y-50901500D01*
X183051600Y-56277400D02*
X185161900Y-58387700D01*
X185161900Y-58387700D02*
X189498495Y-58387700D01*
X194019900Y-47076000D02*
X194020000Y-47076000D01*
X190224800Y-57661395D02*
X190224800Y-54020500D01*
X193343800Y-50901500D02*
X193343800Y-47752100D01*
X193343800Y-47752100D02*
X194019900Y-47076000D01*
X194020000Y-47076000D02*
X193343800Y-44994700D01*
G04 #@! TO.N,COL8*
X156835500Y-50687800D02*
X169932400Y-37590900D01*
X169932400Y-37590900D02*
X195419100Y-37590900D01*
X198176500Y-37590905D02*
X198176500Y-41072200D01*
X195419100Y-37590900D02*
X195419100Y-37591000D01*
X195419100Y-37591000D02*
X196824283Y-37591000D01*
X196824283Y-37591000D02*
X197500439Y-36914844D01*
X197500439Y-36914844D02*
X198176500Y-37590905D01*
X198176500Y-41072200D02*
X202503700Y-45399400D01*
X202503700Y-45399400D02*
X202503700Y-45399500D01*
X202503700Y-45399500D02*
X204277000Y-47172800D01*
G04 #@! TO.N,Net-(D30-A)*
X195286400Y-47642200D02*
X197951300Y-47642200D01*
X197951300Y-47642200D02*
X198872800Y-46720700D01*
X198872800Y-46720700D02*
X201029932Y-48877832D01*
X201029932Y-48877832D02*
X205116718Y-48877832D01*
X205116718Y-48877832D02*
X209715469Y-44279081D01*
X209715469Y-44279081D02*
X209715469Y-35988469D01*
X209715469Y-35988469D02*
X209165000Y-35438000D01*
G04 #@! TO.N,Net-(D31-A)*
X200539729Y-63810179D02*
X200721700Y-63628208D01*
X200721700Y-63628208D02*
X200721700Y-51607500D01*
X200721700Y-51607500D02*
X202451368Y-49877832D01*
X202451368Y-49877832D02*
X212690232Y-49877832D01*
X212690232Y-49877832D02*
X214418300Y-51605900D01*
G04 #@! TO.N,COL8*
X207215469Y-65655531D02*
X207215469Y-68459269D01*
X207215469Y-68459269D02*
X209470200Y-70714000D01*
X209530300Y-63340700D02*
X207215469Y-65655531D01*
X209470200Y-70714000D02*
X209719600Y-70714000D01*
X209313700Y-63124100D02*
X209530300Y-63340700D01*
X209313700Y-63124000D02*
X209313700Y-63124100D01*
X203429800Y-57240100D02*
X209313700Y-63124000D01*
X202753739Y-54487939D02*
X203429800Y-55164000D01*
X202753739Y-51833762D02*
X202753739Y-54487939D01*
X203962569Y-50624932D02*
X202753739Y-51833762D01*
X203429800Y-55164000D02*
X203429800Y-57240100D01*
G04 #@! TO.N,COL7*
X190482200Y-80242400D02*
X190482200Y-80242300D01*
X190482200Y-80242300D02*
X190750900Y-80242300D01*
X193709100Y-74526700D02*
X193709100Y-73296900D01*
X190750900Y-80242300D02*
X192185800Y-78807400D01*
X192185800Y-78807400D02*
X191509600Y-76726100D01*
X191509700Y-76726100D02*
X193709100Y-74526700D01*
X191509600Y-76726100D02*
X191509700Y-76726100D01*
X193709100Y-73296900D02*
X187608600Y-67196400D01*
X187608600Y-67196400D02*
X187608600Y-64720800D01*
X187608600Y-64720800D02*
X187608700Y-64720800D01*
G04 #@! TO.N,Net-(D27-A)*
X198597079Y-61162722D02*
X198597100Y-61162701D01*
X198597100Y-61162701D02*
X198597100Y-61162700D01*
G04 #@! TO.N,Net-(D31-A)*
X204126100Y-62888600D02*
X203636868Y-63377832D01*
X203636868Y-63377832D02*
X200972076Y-63377832D01*
X200972076Y-63377832D02*
X200539729Y-63810179D01*
G04 #@! TO.N,COL7*
X200088101Y-101505200D02*
X200088100Y-101505200D01*
X196762900Y-91264900D02*
X198962400Y-89065400D01*
X200088100Y-101505200D02*
X198115300Y-99532400D01*
X198115300Y-99532400D02*
X198115300Y-97056700D01*
X198115300Y-97056700D02*
X196762900Y-92894100D01*
X196762900Y-92894100D02*
X196762900Y-91264900D01*
G04 #@! TO.N,COL1*
X57685700Y-31755000D02*
X56892806Y-31497394D01*
X56892806Y-31497394D02*
X51215469Y-37174731D01*
X51215469Y-37174731D02*
X51215469Y-41377832D01*
X51215469Y-41377832D02*
X53874637Y-44037000D01*
X53874637Y-44037000D02*
X57138600Y-44037000D01*
G04 #@! TO.N,ROW0*
X46918400Y-45162700D02*
X55000400Y-45162700D01*
X73202869Y-46730700D02*
X74770669Y-48298500D01*
X74770669Y-48298500D02*
X84951400Y-48298500D01*
X55000400Y-45162700D02*
X56568400Y-46730700D01*
X56568400Y-46730700D02*
X73202869Y-46730700D01*
X84951400Y-48298500D02*
X85783000Y-49130100D01*
G04 #@! TO.N,COL2*
X76102600Y-33322900D02*
X75309706Y-33065294D01*
X72442537Y-45604900D02*
X75555500Y-45604900D01*
X75309706Y-33065294D02*
X69715469Y-38659531D01*
X69715469Y-38659531D02*
X69715469Y-42877832D01*
X69715469Y-42877832D02*
X72442537Y-45604900D01*
G04 #@! TO.N,COL4*
X110340641Y-44447483D02*
X108097217Y-44447483D01*
X108097217Y-44447483D02*
X103715469Y-48829231D01*
X103715469Y-48829231D02*
X103715469Y-56486169D01*
X103715469Y-56486169D02*
X105763500Y-58534200D01*
X104540200Y-72897500D02*
X104540200Y-72897533D01*
X104540200Y-72897533D02*
X101330509Y-76107224D01*
X101330509Y-76107224D02*
X100510200Y-76107224D01*
X100510200Y-76107224D02*
X98773500Y-77843924D01*
X98773500Y-77843924D02*
X98773500Y-84746100D01*
X98773500Y-84746100D02*
X101199300Y-87171900D01*
X101199300Y-87171900D02*
X101199300Y-87341400D01*
G04 #@! TO.N,Net-(D3-A)*
X39067100Y-68184600D02*
X38390900Y-70265800D01*
X38390900Y-70265800D02*
X38391000Y-70265800D01*
X38391000Y-70265800D02*
X38391000Y-73915000D01*
X38391000Y-73915000D02*
X35428168Y-76877832D01*
X24108800Y-73271163D02*
X24108800Y-71262800D01*
X35428168Y-76877832D02*
X27715469Y-76877832D01*
X27715469Y-76877832D02*
X24108800Y-73271163D01*
G04 #@! TO.N,COL3*
X94519500Y-34890800D02*
X93726606Y-34633194D01*
X93726606Y-34633194D02*
X88449400Y-39910400D01*
X88449400Y-39910400D02*
X88449400Y-47484400D01*
X88449400Y-47484400D02*
X89942400Y-48977400D01*
G04 #@! TO.N,ROW0*
X102169500Y-60668800D02*
X105234500Y-63733800D01*
X101215469Y-49130100D02*
X102169500Y-50084131D01*
X105234500Y-63733800D02*
X110635300Y-63733800D01*
X117990700Y-59423100D02*
X120108800Y-57305000D01*
X102169500Y-50084131D02*
X102169500Y-60668800D01*
X114946000Y-59423100D02*
X117990700Y-59423100D01*
X110635300Y-63733800D02*
X114946000Y-59423100D01*
G04 #@! TO.N,Net-(D6-A)*
X57484000Y-69752400D02*
X56807800Y-71833600D01*
X56807800Y-71833600D02*
X56807900Y-71833600D01*
X49392579Y-76688979D02*
X45534200Y-72830600D01*
X56807900Y-71833600D02*
X56807900Y-75482850D01*
X56807900Y-75482850D02*
X55601771Y-76688979D01*
X45534200Y-72830600D02*
X42525700Y-72830600D01*
X55601771Y-76688979D02*
X49392579Y-76688979D01*
G04 #@! TO.N,Net-(D1-A)*
X49573700Y-35848600D02*
X48897500Y-37929800D01*
X48897500Y-37929800D02*
X48897600Y-37929800D01*
X48897600Y-37929800D02*
X48897600Y-41578450D01*
X48897600Y-41578450D02*
X47690971Y-42785079D01*
G04 #@! TO.N,Net-(D4-A)*
X67990600Y-37416500D02*
X67314400Y-39497700D01*
X67314400Y-39497700D02*
X67314500Y-39497700D01*
X67314500Y-39497700D02*
X67314500Y-42911351D01*
X67314500Y-42911351D02*
X65872772Y-44353079D01*
X65872772Y-44353079D02*
X59899179Y-44353079D01*
X59899179Y-44353079D02*
X56040800Y-40494700D01*
X56040800Y-40494700D02*
X53032300Y-40494700D01*
G04 #@! TO.N,Net-(D7-A)*
X84525271Y-45920879D02*
X84482224Y-45877832D01*
X84482224Y-45877832D02*
X78272932Y-45877832D01*
X78272932Y-45877832D02*
X74457700Y-42062600D01*
X74457700Y-42062600D02*
X71449200Y-42062600D01*
X86407500Y-38984400D02*
X85731300Y-41065600D01*
X85731300Y-41065600D02*
X85731400Y-41065600D01*
X85731400Y-41065600D02*
X85731400Y-44714750D01*
X85731400Y-44714750D02*
X84525271Y-45920879D01*
G04 #@! TO.N,Net-(D10-A)*
X104824400Y-40552300D02*
X104148200Y-42633500D01*
X104148200Y-42633500D02*
X104148300Y-42633500D01*
X102942071Y-47488779D02*
X96732879Y-47488779D01*
X104148300Y-42633500D02*
X104148300Y-46282550D01*
X104148300Y-46282550D02*
X102942071Y-47488779D01*
X96732879Y-47488779D02*
X92874600Y-43630500D01*
X92874600Y-43630500D02*
X89866100Y-43630500D01*
G04 #@! TO.N,COL4*
X110340600Y-44447500D02*
X110340624Y-44447500D01*
X110340624Y-44447500D02*
X110340641Y-44447483D01*
G04 #@! TO.N,COL5*
X140362400Y-54536700D02*
X140364400Y-54536700D01*
X120610500Y-58469400D02*
X125342036Y-53737864D01*
X138668300Y-52842600D02*
X140362400Y-54536700D01*
X126161841Y-54004183D02*
X127323424Y-52842600D01*
X120289100Y-58790800D02*
X120291100Y-58790800D01*
X125342036Y-53737864D02*
X125895522Y-53737864D01*
X125895522Y-53737864D02*
X126161841Y-54004183D01*
X120610500Y-58471400D02*
X120610500Y-58469400D01*
X120291100Y-58790800D02*
X120610500Y-58471400D01*
X127323424Y-52842600D02*
X138668300Y-52842600D01*
X120108600Y-58971300D02*
X120289100Y-58790800D01*
X120108600Y-65502200D02*
X120108600Y-58971300D01*
X121584700Y-66978300D02*
X120108600Y-65502200D01*
X140364400Y-54536700D02*
X141595500Y-55767800D01*
X123460618Y-79122981D02*
X124537600Y-78045999D01*
X124537600Y-78045999D02*
X124537600Y-75878500D01*
X124537600Y-75878500D02*
X120908541Y-72249441D01*
X120908541Y-72249441D02*
X120908541Y-68767059D01*
X121584700Y-68090900D02*
X121584700Y-66978300D01*
X120908541Y-68767059D02*
X121584700Y-68090900D01*
G04 #@! TO.N,Net-(D20-A)*
X125960100Y-92001700D02*
X125283900Y-94082900D01*
X125283900Y-94082900D02*
X125284000Y-94082900D01*
X125284000Y-94082900D02*
X125284000Y-97732050D01*
X125284000Y-97732050D02*
X124077871Y-98938179D01*
X124077871Y-98938179D02*
X117694779Y-98938179D01*
X113836500Y-95079900D02*
X111001800Y-95079900D01*
X117694779Y-98938179D02*
X113836500Y-95079900D01*
G04 #@! TO.N,Net-(D21-A)*
X113036800Y-112638400D02*
X110028300Y-112638400D01*
X123104271Y-116496679D02*
X116895079Y-116496679D01*
X116895079Y-116496679D02*
X113036800Y-112638400D01*
G04 #@! TO.N,COL5*
X114134600Y-116180700D02*
X111191606Y-116180700D01*
X111191606Y-116180700D02*
X108215469Y-113204563D01*
X108215469Y-113204563D02*
X108215469Y-108377832D01*
X108215469Y-108377832D02*
X112694618Y-103898683D01*
X112694618Y-103898683D02*
X114681741Y-103898683D01*
X114681741Y-103898683D02*
X115108100Y-103472324D01*
X115108100Y-103472324D02*
X115108100Y-98622233D01*
X115108100Y-98622233D02*
X115108100Y-98622200D01*
X109215469Y-95587450D02*
X109215469Y-91377832D01*
X118139101Y-82454200D02*
X120361400Y-82454200D01*
X115108100Y-98622200D02*
X112250219Y-98622200D01*
X112250219Y-98622200D02*
X109215469Y-95587450D01*
X109215469Y-91377832D02*
X118139101Y-82454200D01*
G04 #@! TO.N,Net-(D9-A)*
X74018671Y-78256879D02*
X73639624Y-77877832D01*
X73639624Y-77877832D02*
X67430432Y-77877832D01*
X67430432Y-77877832D02*
X63951100Y-74398500D01*
X63951100Y-74398500D02*
X60942600Y-74398500D01*
X75900900Y-71320300D02*
X75224700Y-73401500D01*
X75224700Y-73401500D02*
X75224800Y-73401500D01*
X75224800Y-73401500D02*
X75224800Y-77050750D01*
X75224800Y-77050750D02*
X74018700Y-78256850D01*
X74018700Y-78256850D02*
X74018700Y-78256900D01*
G04 #@! TO.N,COL2*
X65048900Y-77940800D02*
X61778437Y-77940800D01*
X59215469Y-75377832D02*
X59215469Y-70877832D01*
X61778437Y-77940800D02*
X59215469Y-75377832D01*
X59215469Y-70877832D02*
X63758377Y-66334924D01*
X63758377Y-66334924D02*
X64919900Y-66334924D01*
X64919900Y-66334924D02*
X65596041Y-65658783D01*
G04 #@! TO.N,COL3*
X89266200Y-51058700D02*
X89942400Y-50382500D01*
X89942400Y-50382500D02*
X89942400Y-48977400D01*
G04 #@! TO.N,COL2*
X70302200Y-61772800D02*
X67110437Y-61772800D01*
X64215469Y-58877832D02*
X64215469Y-55043131D01*
X67110437Y-61772800D02*
X64215469Y-58877832D01*
X64215469Y-55043131D02*
X70033008Y-49225592D01*
X70033008Y-49225592D02*
X70849300Y-49490800D01*
X70849300Y-49490800D02*
X71525500Y-47409500D01*
X71525500Y-47409500D02*
X71525400Y-47409500D01*
X71525400Y-47409500D02*
X71525400Y-47379200D01*
X71525400Y-47379200D02*
X71533600Y-47371000D01*
G04 #@! TO.N,COL1*
X51885300Y-60205000D02*
X48938918Y-60205000D01*
X48938918Y-60205000D02*
X46215469Y-57481551D01*
X46215469Y-57481551D02*
X46215469Y-53045531D01*
X46215469Y-53045531D02*
X51641388Y-47619612D01*
X51641388Y-47619612D02*
X52691400Y-47923000D01*
X52691400Y-47923000D02*
X52691400Y-45798800D01*
G04 #@! TO.N,COL4*
X94033700Y-105233400D02*
X90571037Y-105233400D01*
X90571037Y-105233400D02*
X88215469Y-102877832D01*
X88215469Y-102877832D02*
X88215469Y-97877832D01*
X88215469Y-97877832D02*
X91060601Y-95032700D01*
X91060601Y-95032700D02*
X93319600Y-95032700D01*
X93319600Y-95032700D02*
X99286900Y-89065400D01*
G04 #@! TO.N,Net-(D13-A)*
X89064500Y-89056100D02*
X88388300Y-91137300D01*
X77114700Y-92134300D02*
X74106200Y-92134300D01*
X88388300Y-91137300D02*
X88388400Y-91137300D01*
X88388400Y-91137300D02*
X88388400Y-94786550D01*
X80973079Y-95992679D02*
X77114700Y-92134300D01*
X88388400Y-94786550D02*
X87182271Y-95992679D01*
X87182271Y-95992679D02*
X80973079Y-95992679D01*
X87182300Y-95992700D02*
X87182292Y-95992700D01*
X87182292Y-95992700D02*
X87182271Y-95992679D01*
G04 #@! TO.N,COL3*
X79435800Y-81313300D02*
X79435700Y-81313300D01*
X79435700Y-81313300D02*
X77715469Y-79593069D01*
X77715469Y-79593069D02*
X77715469Y-72409531D01*
X84650400Y-65474600D02*
X84650400Y-65102500D01*
X77715469Y-72409531D02*
X84650400Y-65474600D01*
G04 #@! TO.N,COL2*
X65596041Y-63735459D02*
X65797000Y-63534500D01*
X65596041Y-65658783D02*
X65596041Y-63735459D01*
G04 #@! TO.N,COL1*
X46632000Y-76372900D02*
X43669418Y-76372900D01*
X43669418Y-76372900D02*
X40715469Y-73418951D01*
X40715469Y-69460231D02*
X46353147Y-63822553D01*
X40715469Y-73418951D02*
X40715469Y-69460231D01*
X46353147Y-63822553D02*
X47179141Y-64090900D01*
X47179141Y-64090900D02*
X47179141Y-62850259D01*
X47179141Y-62850259D02*
X48384500Y-61644900D01*
G04 #@! TO.N,Net-(D2-A)*
X40862824Y-57377832D02*
X37215469Y-57377832D01*
X42438171Y-58953179D02*
X40862824Y-57377832D01*
G04 #@! TO.N,ROW1*
X202405800Y-67281200D02*
X198635500Y-71051500D01*
X198635500Y-71051500D02*
X198635500Y-77430500D01*
X198635500Y-77430500D02*
X195176300Y-80889700D01*
X195176300Y-80889700D02*
X188864300Y-80889700D01*
X188864300Y-80889700D02*
X185491200Y-77516600D01*
G04 #@! TO.N,Net-(D32-A)*
X219671479Y-67773922D02*
X220215469Y-68317912D01*
X220215469Y-68317912D02*
X220215469Y-72910211D01*
X220215469Y-72910211D02*
X216247848Y-76877832D01*
X216247848Y-76877832D02*
X211558050Y-76877832D01*
X211558050Y-76877832D02*
X209379282Y-79056600D01*
G04 #@! TO.N,Net-(D29-A)*
X209103679Y-93498622D02*
X209715469Y-94110412D01*
X209715469Y-94110412D02*
X209715469Y-98877832D01*
X209715469Y-98877832D02*
X206215469Y-102377832D01*
X206215469Y-102377832D02*
X201214950Y-102377832D01*
X201214950Y-102377832D02*
X198811482Y-104781300D01*
G04 #@! TO.N,COL9*
X156835500Y-48147800D02*
X169605468Y-35377832D01*
X169605468Y-35377832D02*
X193715469Y-35377832D01*
X193715469Y-35377832D02*
X196715469Y-32377832D01*
X196715469Y-32377832D02*
X212948227Y-32377832D01*
X212948227Y-32377832D02*
X218155500Y-37585105D01*
X218155500Y-37585105D02*
X218155500Y-42352800D01*
G04 #@! TO.N,Net-(D42-A)*
X274922179Y-63070322D02*
X274922179Y-73171122D01*
X274922179Y-73171122D02*
X271215469Y-76877832D01*
X271215469Y-76877832D02*
X267154814Y-76877832D01*
X267154814Y-76877832D02*
X264629982Y-74353000D01*
G04 #@! TO.N,COL11*
X264780900Y-58637100D02*
X263352700Y-58637100D01*
G04 #@! TO.N,COL10*
X234334100Y-33779000D02*
X235010300Y-35860300D01*
X235010200Y-35860300D02*
X235010300Y-35860300D01*
X235010200Y-37936400D02*
X235010200Y-35860300D01*
X240894100Y-43820300D02*
X235010200Y-37936400D01*
X240894100Y-43820400D02*
X240894100Y-43820300D01*
X241110700Y-44037000D02*
X240894100Y-43820400D01*
G04 #@! TO.N,COL9*
X221846600Y-53596100D02*
X221846700Y-53596100D01*
X221846600Y-55672300D02*
X221846600Y-53596100D01*
X227947100Y-61772800D02*
X221846600Y-55672300D01*
X221170500Y-51514800D02*
X221846700Y-53596100D01*
X219089200Y-49433500D02*
X220494300Y-49433500D01*
X218398000Y-48742300D02*
X219089200Y-49433500D01*
X221170500Y-51514800D02*
X220494300Y-49433500D01*
X219441800Y-42352800D02*
X218155500Y-42352800D01*
X222693900Y-45604900D02*
X219441800Y-42352800D01*
X214991000Y-45517300D02*
X214991000Y-45622300D01*
X218155500Y-42352800D02*
X214991000Y-45517300D01*
G04 #@! TO.N,COL7*
X181679200Y-46471500D02*
X179597900Y-47147700D01*
X179597900Y-47147600D02*
X179597900Y-47147700D01*
X166219700Y-47147600D02*
X179597900Y-47147600D01*
X166218200Y-47149100D02*
X166219700Y-47147600D01*
X162914200Y-47149100D02*
X166218200Y-47149100D01*
X156835500Y-53227800D02*
X162914200Y-47149100D01*
X182355300Y-50629000D02*
X188455800Y-56729500D01*
X182355300Y-48552800D02*
X182355300Y-50629000D01*
X182355400Y-48552800D02*
X182355300Y-48552800D01*
X181679200Y-46471500D02*
X182355400Y-48552800D01*
X186932500Y-62639500D02*
X187608700Y-64720800D01*
X193487500Y-61189200D02*
X193487500Y-60121200D01*
X189955900Y-64720800D02*
X193487500Y-61189200D01*
X187608700Y-64720800D02*
X189955900Y-64720800D01*
G04 #@! TO.N,COL6*
X165858100Y-56028200D02*
X165715469Y-56074540D01*
X183141300Y-98622200D02*
X182810300Y-98953200D01*
G04 #@! TO.N,COL5*
X124922600Y-66978300D02*
X121584700Y-66978300D01*
X125614700Y-66286200D02*
X124922600Y-66978300D01*
G04 #@! TO.N,COL4*
X107988800Y-58534200D02*
X105763500Y-58534200D01*
X109793500Y-56729500D02*
X107988800Y-58534200D01*
X105087300Y-60615500D02*
X105763500Y-58534200D01*
G04 #@! TO.N,COL3*
X92167800Y-48977400D02*
X89942400Y-48977400D01*
X93972400Y-47172800D02*
X92167800Y-48977400D01*
X78759600Y-83394600D02*
X79435800Y-81313300D01*
X81661200Y-81313300D02*
X79435800Y-81313300D01*
X83465800Y-79508700D02*
X81661200Y-81313300D01*
G04 #@! TO.N,ROW2*
X103668100Y-87943100D02*
X107484100Y-91759100D01*
X127950000Y-96671100D02*
X127950000Y-86135500D01*
X123305300Y-101315800D02*
X127950000Y-96671100D01*
G04 #@! TO.N,ROW1*
X201312300Y-66187800D02*
X202405800Y-67281200D01*
X185491200Y-77516600D02*
X185491200Y-75744500D01*
G04 #@! TO.N,Net-(D42-A)*
X263708500Y-75274500D02*
X264630000Y-74353000D01*
X261043700Y-75274500D02*
X263708500Y-75274500D01*
G04 #@! TO.N,Net-(D41-A)*
X258455100Y-59106600D02*
X259376700Y-58185000D01*
X255790400Y-59106600D02*
X258455100Y-59106600D01*
G04 #@! TO.N,Net-(D40-A)*
X253201800Y-42938600D02*
X254123400Y-42017000D01*
X250537100Y-42938600D02*
X253201800Y-42938600D01*
G04 #@! TO.N,Net-(D38-A)*
X240959800Y-60213600D02*
X240959800Y-59752900D01*
G04 #@! TO.N,Net-(D37-A)*
X235706500Y-44045700D02*
X235706500Y-43584900D01*
X235245700Y-44506500D02*
X235706500Y-44045700D01*
X232120200Y-44506500D02*
X235245700Y-44506500D01*
G04 #@! TO.N,Net-(D32-A)*
X208457800Y-79978100D02*
X209379300Y-79056600D01*
X205793000Y-79978100D02*
X208457800Y-79978100D01*
G04 #@! TO.N,Net-(D29-A)*
X197890000Y-105702800D02*
X198811500Y-104781300D01*
X195225100Y-105702800D02*
X197890000Y-105702800D01*
G04 #@! TO.N,Net-(D28-A)*
X192636600Y-89534900D02*
X193558200Y-88613300D01*
X189971800Y-89534900D02*
X192636600Y-89534900D01*
G04 #@! TO.N,Net-(D27-A)*
X184718600Y-73366900D02*
X185384800Y-72700700D01*
X188049600Y-72700700D02*
X185384800Y-72700700D01*
X188304900Y-72445400D02*
X188049600Y-72700700D01*
G04 #@! TO.N,Net-(D25-A)*
X178710600Y-116189300D02*
X178710600Y-115728600D01*
G04 #@! TO.N,Net-(D24-A)*
X176815600Y-99091600D02*
X177737100Y-98170100D01*
X174150700Y-99091600D02*
X176815600Y-99091600D01*
X188835600Y-89098800D02*
X188705500Y-88968700D01*
X188835600Y-89452300D02*
X188835600Y-89098800D01*
X188029300Y-86887400D02*
X188705500Y-88968700D01*
G04 #@! TO.N,Net-(D22-A)*
X166308900Y-66755700D02*
X167230500Y-65834100D01*
X163644100Y-66755700D02*
X166308900Y-66755700D01*
X177522700Y-55421100D02*
X177522700Y-54551400D01*
X173798700Y-59145100D02*
X177522700Y-55421100D01*
X173798700Y-60982300D02*
X173798700Y-59145100D01*
X168946900Y-65834100D02*
X173798700Y-60982300D01*
X167230500Y-65834100D02*
X168946900Y-65834100D01*
G04 #@! TO.N,Net-(D19-A)*
X131213400Y-75833700D02*
X130537200Y-77914900D01*
X130537300Y-77914900D02*
X127807700Y-80644500D01*
X130537200Y-77914900D02*
X130537300Y-77914900D01*
X129331100Y-82167900D02*
X127807700Y-80644500D01*
X129331100Y-82770300D02*
X129331100Y-82167900D01*
G04 #@! TO.N,Net-(D18-A)*
X136466700Y-59665700D02*
X135790500Y-61746900D01*
X135790600Y-61746900D02*
X135790500Y-61746900D01*
X135790600Y-65396100D02*
X135790600Y-61746900D01*
X134584400Y-66602300D02*
X135790600Y-65396100D01*
X123159800Y-64395300D02*
X121508400Y-62743900D01*
X132377400Y-64395300D02*
X123159800Y-64395300D01*
X134584400Y-66602300D02*
X132377400Y-64395300D01*
G04 #@! TO.N,Net-(D17-A)*
X104885700Y-98612900D02*
X104209500Y-100694100D01*
X104209600Y-100694100D02*
X104209500Y-100694100D01*
X104209600Y-104343200D02*
X104209600Y-100694100D01*
X103003400Y-105549400D02*
X104209600Y-104343200D01*
X91578800Y-103342500D02*
X89927400Y-101691100D01*
X100796500Y-103342500D02*
X91578800Y-103342500D01*
X103003400Y-105549400D02*
X100796500Y-103342500D01*
G04 #@! TO.N,Net-(D16-A)*
X110138900Y-82444900D02*
X109462700Y-84526100D01*
X108256700Y-89381500D02*
X108407500Y-89381500D01*
X109462800Y-84526100D02*
X109462700Y-84526100D01*
X109462800Y-88175400D02*
X109462800Y-84526100D01*
X108859800Y-88778400D02*
X109462800Y-88175400D01*
X108859800Y-88929200D02*
X108859800Y-88778400D01*
X108407500Y-89381500D02*
X108859800Y-88929200D01*
X108407500Y-92173000D02*
X108407500Y-89381500D01*
X107877800Y-92702700D02*
X108407500Y-92173000D01*
X105000400Y-92702700D02*
X107877800Y-92702700D01*
X97820800Y-85523100D02*
X105000400Y-92702700D01*
X95180600Y-85523100D02*
X97820800Y-85523100D01*
G04 #@! TO.N,Net-(D15-A)*
X115392200Y-66277000D02*
X114716000Y-68358200D01*
X114716100Y-72007400D02*
X113510000Y-73213500D01*
X114716100Y-68358200D02*
X114716100Y-72007400D01*
X114716000Y-68358200D02*
X114716100Y-68358200D01*
X101422000Y-70343300D02*
X100433900Y-69355200D01*
X110639800Y-70343300D02*
X101422000Y-70343300D01*
X113510000Y-73213500D02*
X110639800Y-70343300D01*
G04 #@! TO.N,Net-(D12-A)*
X94317800Y-72888200D02*
X93641600Y-74969400D01*
X92435600Y-79824700D02*
X92435600Y-79221600D01*
X93641700Y-78015500D02*
X92435600Y-79221600D01*
X93641700Y-74969400D02*
X93641700Y-78015500D01*
X93641600Y-74969400D02*
X93641700Y-74969400D01*
X82368000Y-75966400D02*
X79359500Y-75966400D01*
X85623200Y-79221600D02*
X82368000Y-75966400D01*
X92435600Y-79221600D02*
X85623200Y-79221600D01*
G04 #@! TO.N,Net-(D11-A)*
X99571100Y-56720200D02*
X98894900Y-58801400D01*
X97688900Y-63656800D02*
X97688900Y-63053700D01*
X98895000Y-61847600D02*
X97688900Y-63053700D01*
X98895000Y-58801400D02*
X98895000Y-61847600D01*
X98894900Y-58801400D02*
X98895000Y-58801400D01*
X87621300Y-59798400D02*
X84612800Y-59798400D01*
X90876600Y-63053700D02*
X87621300Y-59798400D01*
X97688900Y-63053700D02*
X90876600Y-63053700D01*
G04 #@! TO.N,Net-(D8-A)*
X81154200Y-55152300D02*
X80478000Y-57233500D01*
X79272000Y-62088900D02*
X79272000Y-61485800D01*
X80478100Y-60279700D02*
X79272000Y-61485800D01*
X80478100Y-57233500D02*
X80478100Y-60279700D01*
X80478000Y-57233500D02*
X80478100Y-57233500D01*
X69204400Y-58230500D02*
X66195900Y-58230500D01*
X72459700Y-61485800D02*
X69204400Y-58230500D01*
X79272000Y-61485800D02*
X72459700Y-61485800D01*
G04 #@! TO.N,Net-(D5-A)*
X62737300Y-53584500D02*
X62061100Y-55665700D01*
X60854100Y-60520700D02*
X60854100Y-59917100D01*
X62061200Y-58710000D02*
X60854100Y-59917100D01*
X62061200Y-55665700D02*
X62061200Y-58710000D01*
X62061100Y-55665700D02*
X62061200Y-55665700D01*
X50787500Y-56662700D02*
X47779000Y-56662700D01*
X54041900Y-59917100D02*
X50787500Y-56662700D01*
X60854100Y-59917100D02*
X54041900Y-59917100D01*
G04 #@! TO.N,Net-(D2-A)*
X43644300Y-54097800D02*
X43644200Y-54097800D01*
X43644300Y-57747100D02*
X43644300Y-54097800D01*
X42438200Y-58953200D02*
X43644300Y-57747100D01*
X44320400Y-52016600D02*
X43644200Y-54097800D01*
G04 #@! TO.N,GND*
X164315500Y-32307800D02*
X164315500Y-33409500D01*
X162277200Y-35447800D02*
X156835500Y-35447800D01*
X164315500Y-33409500D02*
X162277200Y-35447800D01*
X141595500Y-40527800D02*
X141595500Y-37987800D01*
X154295500Y-37987800D02*
X156835500Y-35447800D01*
X141595500Y-37987800D02*
X154295500Y-37987800D01*
G04 #@! TO.N,COL6*
X184114800Y-116180700D02*
X178014300Y-110080200D01*
X178014300Y-110080200D02*
X178014300Y-108004000D01*
X181550300Y-98953200D02*
X176662100Y-103841400D01*
X178014300Y-108004000D02*
X178014400Y-108004000D01*
X177338200Y-105922700D02*
X178014400Y-108004000D01*
X177338200Y-105922700D02*
X176662000Y-103841400D01*
X176662100Y-103841400D02*
X176662000Y-103841400D01*
X182810300Y-98953200D02*
X181550300Y-98953200D01*
G04 #@! TO.N,Net-(D21-A)*
X124986600Y-109560200D02*
X124310400Y-111641400D01*
X124310400Y-111641400D02*
X123215469Y-112736331D01*
X123215469Y-112736331D02*
X123215469Y-116385481D01*
X123215469Y-116385481D02*
X123104271Y-116496679D01*
G04 #@! TO.N,ROW0*
X178705100Y-61109400D02*
X180863100Y-58951400D01*
X174879100Y-61109400D02*
X178705100Y-61109400D01*
X213549968Y-49377832D02*
X214969100Y-47958700D01*
X166855200Y-69133300D02*
X174879100Y-61109400D01*
X231818200Y-47958700D02*
X233910400Y-45866500D01*
X162215469Y-67670726D02*
X163678043Y-69133300D01*
X180863100Y-58951400D02*
X189641901Y-58951400D01*
X163678043Y-69133300D02*
X166855200Y-69133300D01*
X233910400Y-45866500D02*
X237683700Y-45866500D01*
X162215469Y-62761716D02*
X162215469Y-67670726D01*
X162315469Y-62661716D02*
X162215469Y-62761716D01*
X189641901Y-58951400D02*
X196059000Y-52534301D01*
X196059000Y-52534301D02*
X196059000Y-50019800D01*
X238195032Y-46377832D02*
X250248068Y-46377832D01*
X196059000Y-50019800D02*
X196700968Y-49377832D01*
X196700968Y-49377832D02*
X213549968Y-49377832D01*
X214969100Y-47958700D02*
X231818200Y-47958700D01*
X237683700Y-45866500D02*
X238195032Y-46377832D01*
X250248068Y-46377832D02*
X251309700Y-45316200D01*
G04 #@! TO.N,ROW1*
X112737400Y-75591100D02*
X112737400Y-78899763D01*
X88331500Y-66034400D02*
X96916300Y-66034400D01*
X68072903Y-62898300D02*
X69641103Y-64466500D01*
X140215469Y-62227831D02*
X141595500Y-60847800D01*
X86763600Y-64466500D02*
X88331500Y-66034400D01*
X114715469Y-80877832D02*
X117008363Y-80877832D01*
X96916300Y-68578663D02*
X99353637Y-71016000D01*
X49880837Y-61043200D02*
X51735937Y-62898300D01*
X69641103Y-64466500D02*
X86763600Y-64466500D01*
X129181316Y-85147900D02*
X130715469Y-83613747D01*
X96916300Y-66034400D02*
X96916300Y-68578663D01*
X51735937Y-62898300D02*
X68072903Y-62898300D01*
X99353637Y-71016000D02*
X108162300Y-71016000D01*
X108162300Y-71016000D02*
X112737400Y-75591100D01*
X118008363Y-79877832D02*
X122659833Y-79877832D01*
X133715469Y-70670725D02*
X140215469Y-64170725D01*
X41953200Y-61043200D02*
X49880837Y-61043200D01*
X41665600Y-61330800D02*
X41953200Y-61043200D01*
X112737400Y-78899763D02*
X114715469Y-80877832D01*
X122659833Y-79877832D02*
X127929901Y-85147900D01*
X133715469Y-76877832D02*
X133715469Y-70670725D01*
X140215469Y-64170725D02*
X140215469Y-62227831D01*
X117008363Y-80877832D02*
X118008363Y-79877832D01*
X127929901Y-85147900D02*
X129181316Y-85147900D01*
X130715469Y-83613747D02*
X130715469Y-79877832D01*
X130715469Y-79877832D02*
X133715469Y-76877832D01*
G04 #@! TO.N,ROW0*
X133811800Y-68979900D02*
X134699188Y-68979900D01*
X134699188Y-68979900D02*
X139715469Y-63963619D01*
X139715469Y-63963619D02*
X139715469Y-60187831D01*
X139715469Y-60187831D02*
X141595500Y-58307800D01*
G04 #@! TO.N,ROW2*
X156835500Y-58307800D02*
X146785501Y-58307800D01*
X146785501Y-58307800D02*
X134215469Y-70877832D01*
X131215469Y-83820853D02*
X128900822Y-86135500D01*
X128900822Y-86135500D02*
X127950000Y-86135500D01*
X134215469Y-70877832D02*
X134215469Y-77084939D01*
X134215469Y-77084939D02*
X131215469Y-80084939D01*
X131215469Y-80084939D02*
X131215469Y-83820853D01*
G04 #@! TD*
M02*
