G04 #@! TF.GenerationSoftware,KiCad,Pcbnew,8.0.4*
G04 #@! TF.CreationDate,2024-08-25T16:30:50+07:00*
G04 #@! TF.ProjectId,ozprey,6f7a7072-6579-42e6-9b69-6361645f7063,1.0*
G04 #@! TF.SameCoordinates,Original*
G04 #@! TF.FileFunction,Copper,L2,Bot*
G04 #@! TF.FilePolarity,Positive*
%FSLAX46Y46*%
G04 Gerber Fmt 4.6, Leading zero omitted, Abs format (unit mm)*
G04 Created by KiCad (PCBNEW 8.0.4) date 2024-08-25 16:30:50*
%MOMM*%
%LPD*%
G01*
G04 APERTURE LIST*
G04 Aperture macros list*
%AMRoundRect*
0 Rectangle with rounded corners*
0 $1 Rounding radius*
0 $2 $3 $4 $5 $6 $7 $8 $9 X,Y pos of 4 corners*
0 Add a 4 corners polygon primitive as box body*
4,1,4,$2,$3,$4,$5,$6,$7,$8,$9,$2,$3,0*
0 Add four circle primitives for the rounded corners*
1,1,$1+$1,$2,$3*
1,1,$1+$1,$4,$5*
1,1,$1+$1,$6,$7*
1,1,$1+$1,$8,$9*
0 Add four rect primitives between the rounded corners*
20,1,$1+$1,$2,$3,$4,$5,0*
20,1,$1+$1,$4,$5,$6,$7,0*
20,1,$1+$1,$6,$7,$8,$9,0*
20,1,$1+$1,$8,$9,$2,$3,0*%
%AMRotRect*
0 Rectangle, with rotation*
0 The origin of the aperture is its center*
0 $1 length*
0 $2 width*
0 $3 Rotation angle, in degrees counterclockwise*
0 Add horizontal line*
21,1,$1,$2,0,0,$3*%
G04 Aperture macros list end*
G04 #@! TA.AperFunction,SMDPad,CuDef*
%ADD10RotRect,2.600000X2.600000X18.000000*%
G04 #@! TD*
G04 #@! TA.AperFunction,ComponentPad*
%ADD11C,2.032000*%
G04 #@! TD*
G04 #@! TA.AperFunction,SMDPad,CuDef*
%ADD12RotRect,2.600000X2.600000X342.000000*%
G04 #@! TD*
G04 #@! TA.AperFunction,ComponentPad*
%ADD13C,1.752600*%
G04 #@! TD*
G04 #@! TA.AperFunction,SMDPad,CuDef*
%ADD14RoundRect,0.250000X0.160510X-0.315018X0.315018X0.160510X-0.160510X0.315018X-0.315018X-0.160510X0*%
G04 #@! TD*
G04 #@! TA.AperFunction,SMDPad,CuDef*
%ADD15R,2.100000X1.500000*%
G04 #@! TD*
G04 #@! TA.AperFunction,SMDPad,CuDef*
%ADD16RoundRect,0.250000X0.315018X-0.160510X0.160510X0.315018X-0.315018X0.160510X-0.160510X-0.315018X0*%
G04 #@! TD*
G04 #@! TA.AperFunction,ViaPad*
%ADD17C,0.500000*%
G04 #@! TD*
G04 #@! TA.AperFunction,Conductor*
%ADD18C,0.300000*%
G04 #@! TD*
G04 APERTURE END LIST*
D10*
G04 #@! TO.P,SW40,1,1*
G04 #@! TO.N,COL11*
X252036613Y-56433016D03*
D11*
X258813174Y-66691004D03*
G04 #@! TO.P,SW40,2,2*
G04 #@! TO.N,Net-(D40-A)*
X253408956Y-66238872D03*
D10*
X263701153Y-54956194D03*
G04 #@! TD*
G04 #@! TO.P,SW37,1,1*
G04 #@! TO.N,COL10*
X233619713Y-58000916D03*
D11*
X240396274Y-68258904D03*
G04 #@! TO.P,SW37,2,2*
G04 #@! TO.N,Net-(D37-A)*
X234992056Y-67806772D03*
D10*
X245284253Y-56524094D03*
G04 #@! TD*
G04 #@! TO.P,SW34,1,1*
G04 #@! TO.N,COL9*
X215202913Y-59568816D03*
D11*
X221979474Y-69826804D03*
G04 #@! TO.P,SW34,2,2*
G04 #@! TO.N,Net-(D34-A)*
X216575256Y-69374672D03*
D10*
X226867453Y-58091994D03*
G04 #@! TD*
G04 #@! TO.P,SW30,1,1*
G04 #@! TO.N,COL8*
X196786013Y-61136716D03*
D11*
X203562574Y-71394704D03*
G04 #@! TO.P,SW30,2,2*
G04 #@! TO.N,Net-(D30-A)*
X198158356Y-70942572D03*
D10*
X208450553Y-59659894D03*
G04 #@! TD*
G04 #@! TO.P,SW26,1,1*
G04 #@! TO.N,COL7*
X180964813Y-70693416D03*
D11*
X187741374Y-80951404D03*
G04 #@! TO.P,SW26,2,2*
G04 #@! TO.N,Net-(D26-A)*
X182337156Y-80499272D03*
D10*
X192629353Y-69216594D03*
G04 #@! TD*
G04 #@! TO.P,SW22,1,1*
G04 #@! TO.N,COL6*
X165143713Y-80250116D03*
D11*
X171920274Y-90508104D03*
G04 #@! TO.P,SW22,2,2*
G04 #@! TO.N,Net-(D22-A)*
X166516056Y-90055972D03*
D10*
X176808253Y-78773294D03*
G04 #@! TD*
D12*
G04 #@! TO.P,SW18,1,1*
G04 #@! TO.N,COL5*
X125447415Y-78226055D03*
D11*
X124900274Y-90508104D03*
G04 #@! TO.P,SW18,2,2*
G04 #@! TO.N,Net-(D18-A)*
X120793927Y-86965802D03*
D12*
X135752280Y-83887526D03*
G04 #@! TD*
G04 #@! TO.P,SW14,1,1*
G04 #@! TO.N,COL4*
X109626215Y-68669355D03*
D11*
X109079074Y-80951404D03*
G04 #@! TO.P,SW14,2,2*
G04 #@! TO.N,Net-(D14-A)*
X104972727Y-77409102D03*
D12*
X119931080Y-74330826D03*
G04 #@! TD*
G04 #@! TO.P,SW10,1,1*
G04 #@! TO.N,COL3*
X93805115Y-59112655D03*
D11*
X93257974Y-71394704D03*
G04 #@! TO.P,SW10,2,2*
G04 #@! TO.N,Net-(D10-A)*
X89151627Y-67852402D03*
D12*
X104109980Y-64774126D03*
G04 #@! TD*
G04 #@! TO.P,SW7,1,1*
G04 #@! TO.N,COL2*
X75388215Y-57544755D03*
D11*
X74841074Y-69826804D03*
G04 #@! TO.P,SW7,2,2*
G04 #@! TO.N,Net-(D7-A)*
X70734727Y-66284502D03*
D12*
X85693080Y-63206226D03*
G04 #@! TD*
G04 #@! TO.P,SW4,1,1*
G04 #@! TO.N,COL1*
X56971315Y-55976855D03*
D11*
X56424174Y-68258904D03*
G04 #@! TO.P,SW4,2,2*
G04 #@! TO.N,Net-(D4-A)*
X52317827Y-64716602D03*
D12*
X67276180Y-61638326D03*
G04 #@! TD*
G04 #@! TO.P,SW1,1,1*
G04 #@! TO.N,COL0*
X38554415Y-54408955D03*
D11*
X38007274Y-66691004D03*
G04 #@! TO.P,SW1,2,2*
G04 #@! TO.N,Net-(D1-A)*
X33900927Y-63148702D03*
D12*
X48859280Y-60070426D03*
G04 #@! TD*
D10*
G04 #@! TO.P,SW41,1,1*
G04 #@! TO.N,COL11*
X257289913Y-72601016D03*
D11*
X264066474Y-82859004D03*
G04 #@! TO.P,SW41,2,2*
G04 #@! TO.N,Net-(D41-A)*
X258662256Y-82406872D03*
D10*
X268954453Y-71124194D03*
G04 #@! TD*
G04 #@! TO.P,SW38,1,1*
G04 #@! TO.N,COL10*
X238873013Y-74168916D03*
D11*
X245649574Y-84426904D03*
G04 #@! TO.P,SW38,2,2*
G04 #@! TO.N,Net-(D38-A)*
X240245356Y-83974772D03*
D10*
X250537553Y-72692094D03*
G04 #@! TD*
G04 #@! TO.P,SW35,1,1*
G04 #@! TO.N,COL9*
X220456113Y-75736716D03*
D11*
X227232674Y-85994704D03*
G04 #@! TO.P,SW35,2,2*
G04 #@! TO.N,Net-(D35-A)*
X221828456Y-85542572D03*
D10*
X232120653Y-74259894D03*
G04 #@! TD*
G04 #@! TO.P,SW31,1,1*
G04 #@! TO.N,COL8*
X202039313Y-77304616D03*
D11*
X208815874Y-87562604D03*
G04 #@! TO.P,SW31,2,2*
G04 #@! TO.N,Net-(D31-A)*
X203411656Y-87110472D03*
D10*
X213703853Y-75827794D03*
G04 #@! TD*
G04 #@! TO.P,SW27,1,1*
G04 #@! TO.N,COL7*
X186218113Y-86861416D03*
D11*
X192994674Y-97119404D03*
G04 #@! TO.P,SW27,2,2*
G04 #@! TO.N,Net-(D27-A)*
X187590456Y-96667272D03*
D10*
X197882653Y-85384594D03*
G04 #@! TD*
G04 #@! TO.P,SW23,1,1*
G04 #@! TO.N,COL6*
X170397013Y-96418116D03*
D11*
X177173574Y-106676104D03*
G04 #@! TO.P,SW23,2,2*
G04 #@! TO.N,Net-(D23-A)*
X171769356Y-106223972D03*
D10*
X182061553Y-94941294D03*
G04 #@! TD*
D12*
G04 #@! TO.P,SW19,1,1*
G04 #@! TO.N,COL5*
X120194115Y-94394055D03*
D11*
X119646974Y-106676104D03*
G04 #@! TO.P,SW19,2,2*
G04 #@! TO.N,Net-(D19-A)*
X115540627Y-103133802D03*
D12*
X130498980Y-100055526D03*
G04 #@! TD*
G04 #@! TO.P,SW15,1,1*
G04 #@! TO.N,COL4*
X104372915Y-84837355D03*
D11*
X103825774Y-97119404D03*
G04 #@! TO.P,SW15,2,2*
G04 #@! TO.N,Net-(D15-A)*
X99719427Y-93577102D03*
D12*
X114677780Y-90498826D03*
G04 #@! TD*
G04 #@! TO.P,SW11,1,1*
G04 #@! TO.N,COL3*
X88551815Y-75280555D03*
D11*
X88004674Y-87562604D03*
G04 #@! TO.P,SW11,2,2*
G04 #@! TO.N,Net-(D11-A)*
X83898327Y-84020302D03*
D12*
X98856680Y-80942026D03*
G04 #@! TD*
G04 #@! TO.P,SW8,1,1*
G04 #@! TO.N,COL2*
X70134915Y-73712655D03*
D11*
X69587774Y-85994704D03*
G04 #@! TO.P,SW8,2,2*
G04 #@! TO.N,Net-(D8-A)*
X65481427Y-82452402D03*
D12*
X80439780Y-79374126D03*
G04 #@! TD*
G04 #@! TO.P,SW5,1,1*
G04 #@! TO.N,COL1*
X51718015Y-72144855D03*
D11*
X51170874Y-84426904D03*
G04 #@! TO.P,SW5,2,2*
G04 #@! TO.N,Net-(D5-A)*
X47064527Y-80884602D03*
D12*
X62022880Y-77806326D03*
G04 #@! TD*
G04 #@! TO.P,SW2,1,1*
G04 #@! TO.N,COL0*
X33301115Y-70576955D03*
D11*
X32753974Y-82859004D03*
G04 #@! TO.P,SW2,2,2*
G04 #@! TO.N,Net-(D2-A)*
X28647627Y-79316702D03*
D12*
X43605980Y-76238426D03*
G04 #@! TD*
D10*
G04 #@! TO.P,SW42,1,1*
G04 #@! TO.N,COL11*
X262543213Y-88769016D03*
D11*
X269319774Y-99027004D03*
G04 #@! TO.P,SW42,2,2*
G04 #@! TO.N,Net-(D42-A)*
X263915556Y-98574872D03*
D10*
X274207753Y-87292194D03*
G04 #@! TD*
G04 #@! TO.P,SW39,1,1*
G04 #@! TO.N,COL10*
X244126313Y-90336816D03*
D11*
X250902874Y-100594804D03*
G04 #@! TO.P,SW39,2,2*
G04 #@! TO.N,Net-(D39-A)*
X245498656Y-100142672D03*
D10*
X255790853Y-88859994D03*
G04 #@! TD*
G04 #@! TO.P,SW36,1,1*
G04 #@! TO.N,COL9*
X225709413Y-91904716D03*
D11*
X232485974Y-102162704D03*
G04 #@! TO.P,SW36,2,2*
G04 #@! TO.N,Net-(D36-A)*
X227081756Y-101710572D03*
D10*
X237373953Y-90427894D03*
G04 #@! TD*
G04 #@! TO.P,SW32,1,1*
G04 #@! TO.N,COL8*
X207292513Y-93472616D03*
D11*
X214069074Y-103730604D03*
G04 #@! TO.P,SW32,2,2*
G04 #@! TO.N,Net-(D32-A)*
X208664856Y-103278472D03*
D10*
X218957053Y-91995794D03*
G04 #@! TD*
G04 #@! TO.P,SW28,1,1*
G04 #@! TO.N,COL7*
X191471413Y-103029316D03*
D11*
X198247974Y-113287304D03*
G04 #@! TO.P,SW28,2,2*
G04 #@! TO.N,Net-(D28-A)*
X192843756Y-112835172D03*
D10*
X203135953Y-101552494D03*
G04 #@! TD*
G04 #@! TO.P,SW24,1,1*
G04 #@! TO.N,COL6*
X175650313Y-112586116D03*
D11*
X182426874Y-122844104D03*
G04 #@! TO.P,SW24,2,2*
G04 #@! TO.N,Net-(D24-A)*
X177022656Y-122391972D03*
D10*
X187314853Y-111109294D03*
G04 #@! TD*
D12*
G04 #@! TO.P,SW20,1,1*
G04 #@! TO.N,COL5*
X114940815Y-110562055D03*
D11*
X114393674Y-122844104D03*
G04 #@! TO.P,SW20,2,2*
G04 #@! TO.N,Net-(D20-A)*
X110287327Y-119301802D03*
D12*
X125245680Y-116223526D03*
G04 #@! TD*
G04 #@! TO.P,SW16,1,1*
G04 #@! TO.N,COL4*
X99119615Y-101005255D03*
D11*
X98572474Y-113287304D03*
G04 #@! TO.P,SW16,2,2*
G04 #@! TO.N,Net-(D16-A)*
X94466127Y-109745002D03*
D12*
X109424480Y-106666726D03*
G04 #@! TD*
G04 #@! TO.P,SW12,1,1*
G04 #@! TO.N,COL3*
X83298515Y-91448555D03*
D11*
X82751374Y-103730604D03*
G04 #@! TO.P,SW12,2,2*
G04 #@! TO.N,Net-(D12-A)*
X78645027Y-100188302D03*
D12*
X93603380Y-97110026D03*
G04 #@! TD*
G04 #@! TO.P,SW9,1,1*
G04 #@! TO.N,COL2*
X64881615Y-89880655D03*
D11*
X64334474Y-102162704D03*
G04 #@! TO.P,SW9,2,2*
G04 #@! TO.N,Net-(D9-A)*
X60228127Y-98620402D03*
D12*
X75186480Y-95542126D03*
G04 #@! TD*
G04 #@! TO.P,SW6,1,1*
G04 #@! TO.N,COL1*
X46464715Y-88312755D03*
D11*
X45917574Y-100594804D03*
G04 #@! TO.P,SW6,2,2*
G04 #@! TO.N,Net-(D6-A)*
X41811227Y-97052502D03*
D12*
X56769580Y-93974226D03*
G04 #@! TD*
G04 #@! TO.P,SW3,1,1*
G04 #@! TO.N,COL0*
X28047815Y-86744955D03*
D11*
X27500674Y-99027004D03*
G04 #@! TO.P,SW3,2,2*
G04 #@! TO.N,Net-(D3-A)*
X23394327Y-95484702D03*
D12*
X38352680Y-92406426D03*
G04 #@! TD*
D10*
G04 #@! TO.P,SW33,1,1*
G04 #@! TO.N,COL8*
X212545813Y-109640516D03*
D11*
X219322374Y-119898504D03*
G04 #@! TO.P,SW33,2,2*
G04 #@! TO.N,Net-(D33-A)*
X213918156Y-119446372D03*
D10*
X224210353Y-108163694D03*
G04 #@! TD*
G04 #@! TO.P,SW29,1,1*
G04 #@! TO.N,COL7*
X196724713Y-119197316D03*
D11*
X203501274Y-129455304D03*
G04 #@! TO.P,SW29,2,2*
G04 #@! TO.N,Net-(D29-A)*
X198097056Y-129003172D03*
D10*
X208389253Y-117720494D03*
G04 #@! TD*
D12*
G04 #@! TO.P,SW21,1,1*
G04 #@! TO.N,COL5*
X113967315Y-128120555D03*
D11*
X113420174Y-140402604D03*
G04 #@! TO.P,SW21,2,2*
G04 #@! TO.N,Net-(D21-A)*
X109313827Y-136860302D03*
D12*
X124272180Y-133782026D03*
G04 #@! TD*
G04 #@! TO.P,SW17,1,1*
G04 #@! TO.N,COL4*
X93866415Y-117173255D03*
D11*
X93319274Y-129455304D03*
G04 #@! TO.P,SW17,2,2*
G04 #@! TO.N,Net-(D17-A)*
X89212927Y-125913002D03*
D12*
X104171280Y-122834726D03*
G04 #@! TD*
D10*
G04 #@! TO.P,SW25,1,1*
G04 #@! TO.N,COL6*
X176623813Y-130144616D03*
D11*
X183400374Y-140402604D03*
G04 #@! TO.P,SW25,2,2*
G04 #@! TO.N,Net-(D25-A)*
X177996156Y-139950472D03*
D10*
X188288353Y-128667794D03*
G04 #@! TD*
D12*
G04 #@! TO.P,SW13,1,1*
G04 #@! TO.N,COL3*
X78045215Y-107616455D03*
D11*
X77498074Y-119898504D03*
G04 #@! TO.P,SW13,2,2*
G04 #@! TO.N,Net-(D13-A)*
X73391727Y-116356202D03*
D12*
X88350080Y-113277926D03*
G04 #@! TD*
D13*
G04 #@! TO.P,U1,1,TX0/P0.06*
G04 #@! TO.N,unconnected-(U1-TX0{slash}P0.06-Pad1)*
X140881074Y-57129672D03*
G04 #@! TO.P,U1,2,RX1/P0.08*
G04 #@! TO.N,unconnected-(U1-RX1{slash}P0.08-Pad2)*
X140881074Y-59669672D03*
G04 #@! TO.P,U1,3,GND*
G04 #@! TO.N,GND*
X140881074Y-62209672D03*
G04 #@! TO.P,U1,4,GND*
X140881074Y-64749672D03*
G04 #@! TO.P,U1,5,P0.17*
G04 #@! TO.N,COL0*
X140881074Y-67289672D03*
G04 #@! TO.P,U1,6,P0.20*
G04 #@! TO.N,COL1*
X140881074Y-69829672D03*
G04 #@! TO.P,U1,7,P0.22*
G04 #@! TO.N,COL2*
X140881074Y-72369672D03*
G04 #@! TO.P,U1,8,P0.24*
G04 #@! TO.N,COL3*
X140881074Y-74909672D03*
G04 #@! TO.P,U1,9,P1.00*
G04 #@! TO.N,COL4*
X140881074Y-77449672D03*
G04 #@! TO.P,U1,10,P0.11*
G04 #@! TO.N,COL5*
X140881074Y-79989672D03*
G04 #@! TO.P,U1,11,P1.04*
G04 #@! TO.N,ROW0*
X140881074Y-82529672D03*
G04 #@! TO.P,U1,12,P1.06*
G04 #@! TO.N,ROW1*
X140881074Y-85069672D03*
G04 #@! TO.P,U1,13,NFC1/P0.09*
G04 #@! TO.N,ROW3*
X156121074Y-85069672D03*
G04 #@! TO.P,U1,14,NFC2/P0.10*
G04 #@! TO.N,ROW2*
X156121074Y-82529672D03*
G04 #@! TO.P,U1,15,P1.11*
G04 #@! TO.N,COL6*
X156121074Y-79989672D03*
G04 #@! TO.P,U1,16,P1.13*
G04 #@! TO.N,COL7*
X156121074Y-77449672D03*
G04 #@! TO.P,U1,17,P1.15*
G04 #@! TO.N,COL8*
X156121074Y-74909672D03*
G04 #@! TO.P,U1,18,AIN0/P0.02*
G04 #@! TO.N,COL9*
X156121074Y-72369672D03*
G04 #@! TO.P,U1,19,AIN5/P0.29*
G04 #@! TO.N,COL10*
X156121074Y-69829672D03*
G04 #@! TO.P,U1,20,AIN7/P0.31*
G04 #@! TO.N,COL11*
X156121074Y-67289672D03*
G04 #@! TO.P,U1,21,VCC*
G04 #@! TO.N,3.3V*
X156121074Y-64749672D03*
G04 #@! TO.P,U1,22,RST*
G04 #@! TO.N,RST*
X156121074Y-62209672D03*
G04 #@! TO.P,U1,23,GND*
G04 #@! TO.N,GND*
X156121074Y-59669672D03*
G04 #@! TO.P,U1,24,BATIN/P0.04*
G04 #@! TO.N,RAW*
X156121074Y-57129672D03*
G04 #@! TO.P,U1,30*
G04 #@! TO.N,N/C*
X140881074Y-54589672D03*
G04 #@! TO.P,U1,31,P1.01*
G04 #@! TO.N,unconnected-(U1-P1.01-Pad31)*
X143421074Y-79989672D03*
G04 #@! TO.P,U1,32,P1.02*
G04 #@! TO.N,unconnected-(U1-P1.02-Pad32)*
X145961074Y-79989672D03*
G04 #@! TO.P,U1,33,P1.07*
G04 #@! TO.N,unconnected-(U1-P1.07-Pad33)*
X148501074Y-79989672D03*
G04 #@! TO.P,U1,34*
G04 #@! TO.N,N/C*
X156121074Y-54589672D03*
G04 #@! TD*
D14*
G04 #@! TO.P,D11,1,K*
G04 #@! TO.N,ROW1*
X96201903Y-90256293D03*
G04 #@! TO.P,D11,2,A*
G04 #@! TO.N,Net-(D11-A)*
X96974445Y-87878651D03*
G04 #@! TD*
D15*
G04 #@! TO.P,BATT1,1,+*
G04 #@! TO.N,RAW*
X148501074Y-58199672D03*
G04 #@! TO.P,BATT1,2,-*
G04 #@! TO.N,Net-(BATT1--)*
X148501074Y-55999672D03*
G04 #@! TD*
D16*
G04 #@! TO.P,D39,1,K*
G04 #@! TO.N,ROW2*
X242684945Y-103441893D03*
G04 #@! TO.P,D39,2,A*
G04 #@! TO.N,Net-(D39-A)*
X241912403Y-101064251D03*
G04 #@! TD*
D14*
G04 #@! TO.P,D12,1,K*
G04 #@! TO.N,ROW2*
X90948603Y-106424193D03*
G04 #@! TO.P,D12,2,A*
G04 #@! TO.N,Net-(D12-A)*
X91721145Y-104046551D03*
G04 #@! TD*
G04 #@! TO.P,D10,1,K*
G04 #@! TO.N,ROW0*
X101455103Y-74088293D03*
G04 #@! TO.P,D10,2,A*
G04 #@! TO.N,Net-(D10-A)*
X102227645Y-71710651D03*
G04 #@! TD*
D16*
G04 #@! TO.P,D26,1,K*
G04 #@! TO.N,ROW0*
X179523445Y-83798493D03*
G04 #@! TO.P,D26,2,A*
G04 #@! TO.N,Net-(D26-A)*
X178750903Y-81420851D03*
G04 #@! TD*
G04 #@! TO.P,D24,1,K*
G04 #@! TO.N,ROW2*
X174208845Y-125691093D03*
G04 #@! TO.P,D24,2,A*
G04 #@! TO.N,Net-(D24-A)*
X173436303Y-123313451D03*
G04 #@! TD*
D14*
G04 #@! TO.P,D4,1,K*
G04 #@! TO.N,ROW0*
X64621403Y-70952593D03*
G04 #@! TO.P,D4,2,A*
G04 #@! TO.N,Net-(D4-A)*
X65393945Y-68574951D03*
G04 #@! TD*
D16*
G04 #@! TO.P,D25,1,K*
G04 #@! TO.N,ROW3*
X175182345Y-143249593D03*
G04 #@! TO.P,D25,2,A*
G04 #@! TO.N,Net-(D25-A)*
X174409803Y-140871951D03*
G04 #@! TD*
D14*
G04 #@! TO.P,D16,1,K*
G04 #@! TO.N,ROW2*
X106769703Y-115980993D03*
G04 #@! TO.P,D16,2,A*
G04 #@! TO.N,Net-(D16-A)*
X107542245Y-113603351D03*
G04 #@! TD*
G04 #@! TO.P,D17,1,K*
G04 #@! TO.N,ROW3*
X101516403Y-132148893D03*
G04 #@! TO.P,D17,2,A*
G04 #@! TO.N,Net-(D17-A)*
X102288945Y-129771251D03*
G04 #@! TD*
G04 #@! TO.P,D14,1,K*
G04 #@! TO.N,ROW0*
X117276303Y-83644993D03*
G04 #@! TO.P,D14,2,A*
G04 #@! TO.N,Net-(D14-A)*
X118048845Y-81267351D03*
G04 #@! TD*
D16*
G04 #@! TO.P,D32,1,K*
G04 #@! TO.N,ROW2*
X205851145Y-106577593D03*
G04 #@! TO.P,D32,2,A*
G04 #@! TO.N,Net-(D32-A)*
X205078603Y-104199951D03*
G04 #@! TD*
G04 #@! TO.P,D27,1,K*
G04 #@! TO.N,ROW1*
X184776745Y-99966393D03*
G04 #@! TO.P,D27,2,A*
G04 #@! TO.N,Net-(D27-A)*
X184004203Y-97588751D03*
G04 #@! TD*
G04 #@! TO.P,D38,1,K*
G04 #@! TO.N,ROW1*
X237431645Y-87273893D03*
G04 #@! TO.P,D38,2,A*
G04 #@! TO.N,Net-(D38-A)*
X236659103Y-84896251D03*
G04 #@! TD*
D14*
G04 #@! TO.P,D20,1,K*
G04 #@! TO.N,ROW2*
X122590903Y-125537693D03*
G04 #@! TO.P,D20,2,A*
G04 #@! TO.N,Net-(D20-A)*
X123363445Y-123160051D03*
G04 #@! TD*
G04 #@! TO.P,D21,1,K*
G04 #@! TO.N,ROW3*
X121617303Y-143096193D03*
G04 #@! TO.P,D21,2,A*
G04 #@! TO.N,Net-(D21-A)*
X122389845Y-140718551D03*
G04 #@! TD*
G04 #@! TO.P,D3,1,K*
G04 #@! TO.N,ROW2*
X35697903Y-101720593D03*
G04 #@! TO.P,D3,2,A*
G04 #@! TO.N,Net-(D3-A)*
X36470445Y-99342951D03*
G04 #@! TD*
D16*
G04 #@! TO.P,D37,1,K*
G04 #@! TO.N,ROW0*
X232178345Y-71105993D03*
G04 #@! TO.P,D37,2,A*
G04 #@! TO.N,Net-(D37-A)*
X231405803Y-68728351D03*
G04 #@! TD*
G04 #@! TO.P,D30,1,K*
G04 #@! TO.N,ROW0*
X195344545Y-74241693D03*
G04 #@! TO.P,D30,2,A*
G04 #@! TO.N,Net-(D30-A)*
X194572003Y-71864051D03*
G04 #@! TD*
D14*
G04 #@! TO.P,D9,1,K*
G04 #@! TO.N,ROW2*
X72531703Y-104856393D03*
G04 #@! TO.P,D9,2,A*
G04 #@! TO.N,Net-(D9-A)*
X73304245Y-102478751D03*
G04 #@! TD*
G04 #@! TO.P,D18,1,K*
G04 #@! TO.N,ROW0*
X133097403Y-93201793D03*
G04 #@! TO.P,D18,2,A*
G04 #@! TO.N,Net-(D18-A)*
X133869945Y-90824151D03*
G04 #@! TD*
G04 #@! TO.P,D2,1,K*
G04 #@! TO.N,ROW1*
X40951203Y-85552693D03*
G04 #@! TO.P,D2,2,A*
G04 #@! TO.N,Net-(D2-A)*
X41723745Y-83175051D03*
G04 #@! TD*
D16*
G04 #@! TO.P,D34,1,K*
G04 #@! TO.N,ROW0*
X213761445Y-72673793D03*
G04 #@! TO.P,D34,2,A*
G04 #@! TO.N,Net-(D34-A)*
X212988903Y-70296151D03*
G04 #@! TD*
G04 #@! TO.P,D42,1,K*
G04 #@! TO.N,ROW2*
X261101845Y-101873993D03*
G04 #@! TO.P,D42,2,A*
G04 #@! TO.N,Net-(D42-A)*
X260329303Y-99496351D03*
G04 #@! TD*
G04 #@! TO.P,D31,1,K*
G04 #@! TO.N,ROW1*
X200597845Y-90409693D03*
G04 #@! TO.P,D31,2,A*
G04 #@! TO.N,Net-(D31-A)*
X199825303Y-88032051D03*
G04 #@! TD*
D14*
G04 #@! TO.P,D13,1,K*
G04 #@! TO.N,ROW3*
X85695303Y-122592193D03*
G04 #@! TO.P,D13,2,A*
G04 #@! TO.N,Net-(D13-A)*
X86467845Y-120214551D03*
G04 #@! TD*
D16*
G04 #@! TO.P,D40,1,K*
G04 #@! TO.N,ROW0*
X250595245Y-69538093D03*
G04 #@! TO.P,D40,2,A*
G04 #@! TO.N,Net-(D40-A)*
X249822703Y-67160451D03*
G04 #@! TD*
G04 #@! TO.P,D41,1,K*
G04 #@! TO.N,ROW1*
X255848545Y-85706093D03*
G04 #@! TO.P,D41,2,A*
G04 #@! TO.N,Net-(D41-A)*
X255076003Y-83328451D03*
G04 #@! TD*
D14*
G04 #@! TO.P,D6,1,K*
G04 #@! TO.N,ROW2*
X54114803Y-103288493D03*
G04 #@! TO.P,D6,2,A*
G04 #@! TO.N,Net-(D6-A)*
X54887345Y-100910851D03*
G04 #@! TD*
D16*
G04 #@! TO.P,D29,1,K*
G04 #@! TO.N,ROW3*
X195283245Y-132302293D03*
G04 #@! TO.P,D29,2,A*
G04 #@! TO.N,Net-(D29-A)*
X194510703Y-129924651D03*
G04 #@! TD*
G04 #@! TO.P,D22,1,K*
G04 #@! TO.N,ROW0*
X163702245Y-93355193D03*
G04 #@! TO.P,D22,2,A*
G04 #@! TO.N,Net-(D22-A)*
X162929703Y-90977551D03*
G04 #@! TD*
G04 #@! TO.P,D33,1,K*
G04 #@! TO.N,ROW3*
X211104445Y-122745593D03*
G04 #@! TO.P,D33,2,A*
G04 #@! TO.N,Net-(D33-A)*
X210331903Y-120367951D03*
G04 #@! TD*
D14*
G04 #@! TO.P,D15,1,K*
G04 #@! TO.N,ROW1*
X112023003Y-99812993D03*
G04 #@! TO.P,D15,2,A*
G04 #@! TO.N,Net-(D15-A)*
X112795545Y-97435351D03*
G04 #@! TD*
D16*
G04 #@! TO.P,D28,1,K*
G04 #@! TO.N,ROW2*
X190029945Y-116134393D03*
G04 #@! TO.P,D28,2,A*
G04 #@! TO.N,Net-(D28-A)*
X189257403Y-113756751D03*
G04 #@! TD*
G04 #@! TO.P,D36,1,K*
G04 #@! TO.N,ROW2*
X224268045Y-105009793D03*
G04 #@! TO.P,D36,2,A*
G04 #@! TO.N,Net-(D36-A)*
X223495503Y-102632151D03*
G04 #@! TD*
G04 #@! TO.P,D23,1,K*
G04 #@! TO.N,ROW1*
X168955545Y-109523193D03*
G04 #@! TO.P,D23,2,A*
G04 #@! TO.N,Net-(D23-A)*
X168183003Y-107145551D03*
G04 #@! TD*
D14*
G04 #@! TO.P,D1,1,K*
G04 #@! TO.N,ROW0*
X46204003Y-69384593D03*
G04 #@! TO.P,D1,2,A*
G04 #@! TO.N,Net-(D1-A)*
X46976545Y-67006951D03*
G04 #@! TD*
D16*
G04 #@! TO.P,D35,1,K*
G04 #@! TO.N,ROW1*
X219014745Y-88841793D03*
G04 #@! TO.P,D35,2,A*
G04 #@! TO.N,Net-(D35-A)*
X218242203Y-86464151D03*
G04 #@! TD*
D14*
G04 #@! TO.P,D5,1,K*
G04 #@! TO.N,ROW1*
X59367103Y-87120193D03*
G04 #@! TO.P,D5,2,A*
G04 #@! TO.N,Net-(D5-A)*
X60139645Y-84742551D03*
G04 #@! TD*
G04 #@! TO.P,D7,1,K*
G04 #@! TO.N,ROW0*
X83038303Y-72520393D03*
G04 #@! TO.P,D7,2,A*
G04 #@! TO.N,Net-(D7-A)*
X83810845Y-70142751D03*
G04 #@! TD*
G04 #@! TO.P,D19,1,K*
G04 #@! TO.N,ROW1*
X127844103Y-109369793D03*
G04 #@! TO.P,D19,2,A*
G04 #@! TO.N,Net-(D19-A)*
X128616645Y-106992151D03*
G04 #@! TD*
G04 #@! TO.P,D8,1,K*
G04 #@! TO.N,ROW1*
X77785003Y-88688393D03*
G04 #@! TO.P,D8,2,A*
G04 #@! TO.N,Net-(D8-A)*
X78557545Y-86310751D03*
G04 #@! TD*
D17*
G04 #@! TO.N,Net-(D1-A)*
X38501043Y-64099704D03*
G04 #@! TO.N,Net-(D2-A)*
X36501043Y-81599704D03*
G04 #@! TO.N,Net-(D24-A)*
X188121174Y-113674172D03*
G04 #@! TO.N,Net-(D40-A)*
X263701153Y-54956194D03*
G04 #@! TO.N,Net-(D41-A)*
X269001043Y-71099704D03*
G04 #@! TO.N,ROW0*
X85068574Y-73351972D03*
X161601043Y-86883588D03*
X119394374Y-81526872D03*
X100501043Y-73351972D03*
G04 #@! TO.N,COL1*
X51976974Y-70020672D03*
X107394974Y-70205773D03*
X47670074Y-85866772D03*
G04 #@! TO.N,COL2*
X65082574Y-87756372D03*
X70819174Y-71592872D03*
G04 #@! TO.N,COL3*
X107016874Y-71303172D03*
X83935974Y-89324372D03*
X71001043Y-106305503D03*
G04 #@! TO.N,COL4*
X100484874Y-111563272D03*
G04 #@! TO.N,COL5*
X122746192Y-103344853D03*
G04 #@! TO.N,COL6*
X165001043Y-80296412D03*
X175650274Y-112586072D03*
G04 #@! TO.N,COL7*
X192773074Y-84343072D03*
X199373675Y-125727072D03*
X189767774Y-104464272D03*
G04 #@! TO.N,COL8*
X209005174Y-94935872D03*
X203248143Y-74846804D03*
G04 #@! TO.N,COL9*
X225541774Y-89086872D03*
X214276574Y-69844172D03*
X217683574Y-72964172D03*
G04 #@! TO.N,COL10*
X244001043Y-88099704D03*
X236720074Y-71499704D03*
G04 #@! TO.N,Net-(BATT1--)*
X130426129Y-56772979D03*
G04 #@! TD*
D18*
G04 #@! TO.N,COL7*
X156121074Y-77449672D02*
X158893629Y-77449672D01*
X158893629Y-77449672D02*
X165649929Y-70693372D01*
X165649929Y-70693372D02*
X180964774Y-70693372D01*
X180964774Y-70693372D02*
X181640974Y-72774672D01*
X181640974Y-72774672D02*
X181640874Y-72774672D01*
X181640874Y-74850872D02*
X187741374Y-80951372D01*
X181640874Y-72774672D02*
X181640874Y-74850872D01*
G04 #@! TO.N,COL9*
X156121074Y-72369672D02*
X162516523Y-72369672D01*
X162516523Y-72369672D02*
X177162123Y-57724072D01*
X177162123Y-57724072D02*
X207418653Y-57724072D01*
X207418653Y-57724072D02*
X207470927Y-57671798D01*
X207470927Y-57671798D02*
X213305895Y-57671798D01*
X213305895Y-57671798D02*
X217441074Y-61806977D01*
X217441074Y-61806977D02*
X217441074Y-66574672D01*
G04 #@! TO.N,COL8*
X156121074Y-74909672D02*
X160683629Y-74909672D01*
X160683629Y-74909672D02*
X177369229Y-58224072D01*
X177369229Y-58224072D02*
X196786013Y-58224072D01*
X196786013Y-58224072D02*
X196786013Y-61136716D01*
G04 #@! TO.N,GND*
X140881074Y-64749672D02*
X140881074Y-62209672D01*
X153581074Y-62209672D02*
X156121074Y-59669672D01*
X140881074Y-62209672D02*
X153581074Y-62209672D01*
G04 #@! TO.N,Net-(D1-A)*
X39332906Y-64099704D02*
X42240153Y-67006951D01*
X48183074Y-62151672D02*
X48183174Y-62151672D01*
X48183174Y-62151672D02*
X48183174Y-65800322D01*
X42240153Y-67006951D02*
X46976545Y-67006951D01*
X48183174Y-65800322D02*
X46976545Y-67006951D01*
X48859274Y-60070472D02*
X48183074Y-62151672D01*
X38501043Y-64099704D02*
X39332906Y-64099704D01*
G04 #@! TO.N,Net-(D2-A)*
X40148398Y-81599704D02*
X36501043Y-81599704D01*
X43605974Y-76238472D02*
X42929774Y-78319672D01*
X42929874Y-81968972D02*
X42929874Y-78319672D01*
X42929874Y-78319672D02*
X42929774Y-78319672D01*
X41723774Y-83175072D02*
X42929874Y-81968972D01*
X41723745Y-83175051D02*
X40148398Y-81599704D01*
G04 #@! TO.N,Net-(D3-A)*
X34713742Y-101099704D02*
X27001043Y-101099704D01*
X37676474Y-94487672D02*
X37676574Y-94487672D01*
X38352674Y-92406472D02*
X37676474Y-94487672D01*
X37676574Y-94487672D02*
X37676574Y-98136872D01*
X27001043Y-101099704D02*
X23394374Y-97493035D01*
X37676574Y-98136872D02*
X34713742Y-101099704D01*
X23394374Y-97493035D02*
X23394374Y-95484672D01*
G04 #@! TO.N,Net-(D4-A)*
X55326374Y-64716572D02*
X52317874Y-64716572D01*
X59184753Y-68574951D02*
X55326374Y-64716572D01*
X65158346Y-68574951D02*
X59184753Y-68574951D01*
X66600074Y-63719572D02*
X66600074Y-67133223D01*
X67276174Y-61638372D02*
X66599974Y-63719572D01*
X66600074Y-67133223D02*
X65158346Y-68574951D01*
X66599974Y-63719572D02*
X66600074Y-63719572D01*
G04 #@! TO.N,Net-(D5-A)*
X62022874Y-77806372D02*
X61346674Y-79887572D01*
X53327474Y-84138972D02*
X50073074Y-80884572D01*
X50073074Y-80884572D02*
X47064574Y-80884572D01*
X61346774Y-79887572D02*
X61346774Y-82931872D01*
X60139674Y-84742572D02*
X60139674Y-84138972D01*
X61346674Y-79887572D02*
X61346774Y-79887572D01*
X61346774Y-82931872D02*
X60139674Y-84138972D01*
X60139674Y-84138972D02*
X53327474Y-84138972D01*
G04 #@! TO.N,Net-(D6-A)*
X54887345Y-100910851D02*
X48678153Y-100910851D01*
X56093374Y-96055472D02*
X56093474Y-96055472D01*
X56093474Y-96055472D02*
X56093474Y-99704722D01*
X56769574Y-93974272D02*
X56093374Y-96055472D01*
X56093474Y-99704722D02*
X54887345Y-100910851D01*
X48678153Y-100910851D02*
X44819774Y-97052472D01*
X44819774Y-97052472D02*
X41811274Y-97052472D01*
G04 #@! TO.N,Net-(D7-A)*
X83767798Y-70099704D02*
X77558506Y-70099704D01*
X77558506Y-70099704D02*
X73743274Y-66284472D01*
X85016874Y-65287472D02*
X85016974Y-65287472D01*
X85693074Y-63206272D02*
X85016874Y-65287472D01*
X73743274Y-66284472D02*
X70734774Y-66284472D01*
X85016974Y-68936622D02*
X83810845Y-70142751D01*
X83810845Y-70142751D02*
X83767798Y-70099704D01*
X85016974Y-65287472D02*
X85016974Y-68936622D01*
G04 #@! TO.N,Net-(D8-A)*
X79763574Y-81455372D02*
X79763674Y-81455372D01*
X71745274Y-85707672D02*
X68489974Y-82452372D01*
X79763674Y-84501572D02*
X78557574Y-85707672D01*
X80439774Y-79374172D02*
X79763574Y-81455372D01*
X78557574Y-85707672D02*
X71745274Y-85707672D01*
X68489974Y-82452372D02*
X65481474Y-82452372D01*
X78557574Y-86310772D02*
X78557574Y-85707672D01*
X79763674Y-81455372D02*
X79763674Y-84501572D01*
G04 #@! TO.N,Net-(D9-A)*
X74510374Y-97623372D02*
X74510374Y-101272622D01*
X73304245Y-102478751D02*
X72925198Y-102099704D01*
X74510274Y-97623372D02*
X74510374Y-97623372D01*
X66716006Y-102099704D02*
X63236674Y-98620372D01*
X73304274Y-102478722D02*
X73304274Y-102478772D01*
X72925198Y-102099704D02*
X66716006Y-102099704D01*
X74510374Y-101272622D02*
X73304274Y-102478722D01*
X75186474Y-95542172D02*
X74510274Y-97623372D01*
X63236674Y-98620372D02*
X60228174Y-98620372D01*
G04 #@! TO.N,Net-(D10-A)*
X103433874Y-66855372D02*
X103433874Y-70504422D01*
X92160174Y-67852372D02*
X89151674Y-67852372D01*
X96018453Y-71710651D02*
X92160174Y-67852372D01*
X103433774Y-66855372D02*
X103433874Y-66855372D01*
X104109974Y-64774172D02*
X103433774Y-66855372D01*
X102227645Y-71710651D02*
X96018453Y-71710651D01*
X103433874Y-70504422D02*
X102227645Y-71710651D01*
G04 #@! TO.N,Net-(D11-A)*
X98180574Y-86069472D02*
X96974474Y-87275572D01*
X86906874Y-84020272D02*
X83898374Y-84020272D01*
X96974474Y-87275572D02*
X90162174Y-87275572D01*
X90162174Y-87275572D02*
X86906874Y-84020272D01*
X98856674Y-80942072D02*
X98180474Y-83023272D01*
X98180574Y-83023272D02*
X98180574Y-86069472D01*
X96974474Y-87878672D02*
X96974474Y-87275572D01*
X98180474Y-83023272D02*
X98180574Y-83023272D01*
G04 #@! TO.N,Net-(D12-A)*
X93603374Y-97110072D02*
X92927174Y-99191272D01*
X91721174Y-103443472D02*
X84908774Y-103443472D01*
X92927274Y-99191272D02*
X92927274Y-102237372D01*
X91721174Y-104046572D02*
X91721174Y-103443472D01*
X84908774Y-103443472D02*
X81653574Y-100188272D01*
X92927274Y-102237372D02*
X91721174Y-103443472D01*
X81653574Y-100188272D02*
X78645074Y-100188272D01*
X92927174Y-99191272D02*
X92927274Y-99191272D01*
G04 #@! TO.N,Net-(D13-A)*
X87673974Y-115359172D02*
X87673974Y-119008422D01*
X88350074Y-113277972D02*
X87673874Y-115359172D01*
X86467845Y-120214551D02*
X80258653Y-120214551D01*
X86467874Y-120214572D02*
X86467866Y-120214572D01*
X80258653Y-120214551D02*
X76400274Y-116356172D01*
X86467866Y-120214572D02*
X86467845Y-120214551D01*
X87673874Y-115359172D02*
X87673974Y-115359172D01*
X87673974Y-119008422D02*
X86467845Y-120214551D01*
X76400274Y-116356172D02*
X73391774Y-116356172D01*
G04 #@! TO.N,Net-(D14-A)*
X108810411Y-77409072D02*
X104972774Y-77409072D01*
X119254874Y-76412072D02*
X119254974Y-76412072D01*
X118048874Y-81267372D02*
X112668711Y-81267372D01*
X119254974Y-80061272D02*
X118048874Y-81267372D01*
X112668711Y-81267372D02*
X108810411Y-77409072D01*
X119254974Y-76412072D02*
X119254974Y-80061272D01*
X119931074Y-74330872D02*
X119254874Y-76412072D01*
G04 #@! TO.N,Net-(D15-A)*
X109925374Y-94565172D02*
X100707574Y-94565172D01*
X100707574Y-94565172D02*
X99719474Y-93577072D01*
X114001574Y-92580072D02*
X114001674Y-92580072D01*
X114001674Y-92580072D02*
X114001674Y-96229272D01*
X114001674Y-96229272D02*
X112795574Y-97435372D01*
X112795574Y-97435372D02*
X109925374Y-94565172D01*
X114677774Y-90498872D02*
X114001574Y-92580072D01*
G04 #@! TO.N,Net-(D16-A)*
X94466174Y-109744972D02*
X97106374Y-109744972D01*
X107693074Y-116394872D02*
X107693074Y-113603372D01*
X107542274Y-113603372D02*
X107693074Y-113603372D01*
X108748374Y-112397272D02*
X108748374Y-108747972D01*
X107693074Y-113603372D02*
X108145374Y-113151072D01*
X108748374Y-108747972D02*
X108748274Y-108747972D01*
X104285974Y-116924572D02*
X107163374Y-116924572D01*
X109424474Y-106666772D02*
X108748274Y-108747972D01*
X97106374Y-109744972D02*
X104285974Y-116924572D01*
X108145374Y-113151072D02*
X108145374Y-113000272D01*
X108145374Y-113000272D02*
X108748374Y-112397272D01*
X107163374Y-116924572D02*
X107693074Y-116394872D01*
G04 #@! TO.N,Net-(D17-A)*
X90864374Y-127564372D02*
X89212974Y-125912972D01*
X102288974Y-129771272D02*
X100082074Y-127564372D01*
X103495174Y-128565072D02*
X103495174Y-124915972D01*
X104171274Y-122834772D02*
X103495074Y-124915972D01*
X100082074Y-127564372D02*
X90864374Y-127564372D01*
X102288974Y-129771272D02*
X103495174Y-128565072D01*
X103495174Y-124915972D02*
X103495074Y-124915972D01*
G04 #@! TO.N,Net-(D18-A)*
X135076174Y-89617972D02*
X135076174Y-85968772D01*
X133869974Y-90824172D02*
X135076174Y-89617972D01*
X135752274Y-83887572D02*
X135076074Y-85968772D01*
X131662974Y-88617172D02*
X122445374Y-88617172D01*
X122445374Y-88617172D02*
X120793974Y-86965772D01*
X133869974Y-90824172D02*
X131662974Y-88617172D01*
X135076174Y-85968772D02*
X135076074Y-85968772D01*
G04 #@! TO.N,Net-(D19-A)*
X115540674Y-103133772D02*
X116006606Y-103599704D01*
X116006606Y-103599704D02*
X122152514Y-103599704D01*
X126242267Y-104015365D02*
X127093274Y-104866372D01*
X128616674Y-106992172D02*
X128616674Y-106389772D01*
X128616674Y-106389772D02*
X127093274Y-104866372D01*
X129822774Y-102136772D02*
X129822874Y-102136772D01*
X122568175Y-104015365D02*
X126242267Y-104015365D01*
X129822874Y-102136772D02*
X127093274Y-104866372D01*
X130498974Y-100055572D02*
X129822774Y-102136772D01*
X122152514Y-103599704D02*
X122568175Y-104015365D01*
G04 #@! TO.N,Net-(D20-A)*
X123363445Y-123160051D02*
X116980353Y-123160051D01*
X124569574Y-121953922D02*
X123363445Y-123160051D01*
X116980353Y-123160051D02*
X113122074Y-119301772D01*
X124569574Y-118304772D02*
X124569574Y-121953922D01*
X125245674Y-116223572D02*
X124569474Y-118304772D01*
X124569474Y-118304772D02*
X124569574Y-118304772D01*
X113122074Y-119301772D02*
X110287374Y-119301772D01*
G04 #@! TO.N,Net-(D21-A)*
X123595974Y-135863272D02*
X122501043Y-136958203D01*
X122501043Y-136958203D02*
X122501043Y-140607353D01*
X122389845Y-140718551D02*
X116180653Y-140718551D01*
X124272174Y-133782072D02*
X123595974Y-135863272D01*
X116180653Y-140718551D02*
X112322374Y-136860272D01*
X122501043Y-140607353D02*
X122389845Y-140718551D01*
X112322374Y-136860272D02*
X109313874Y-136860272D01*
G04 #@! TO.N,Net-(D22-A)*
X173084274Y-83366972D02*
X176808274Y-79642972D01*
X168232474Y-90055972D02*
X173084274Y-85204172D01*
X173084274Y-85204172D02*
X173084274Y-83366972D01*
X165594474Y-90977572D02*
X166516074Y-90055972D01*
X176808274Y-79642972D02*
X176808274Y-78773272D01*
X166516074Y-90055972D02*
X168232474Y-90055972D01*
X162929674Y-90977572D02*
X165594474Y-90977572D01*
G04 #@! TO.N,Net-(D23-A)*
X170847774Y-107145572D02*
X168182974Y-107145572D01*
X173960274Y-108414872D02*
X171769374Y-106223972D01*
X182061574Y-94941272D02*
X182737774Y-97022572D01*
X182737774Y-104362973D02*
X178685875Y-108414872D01*
X171769374Y-106223972D02*
X170847774Y-107145572D01*
X178685875Y-108414872D02*
X173960274Y-108414872D01*
X182737774Y-97022572D02*
X182737774Y-104362973D01*
G04 #@! TO.N,Net-(D24-A)*
X188121174Y-113674172D02*
X188121174Y-113320672D01*
X187314874Y-111109272D02*
X187991074Y-113190572D01*
X173436274Y-123313472D02*
X176101174Y-123313472D01*
X188121174Y-113320672D02*
X187991074Y-113190572D01*
X176101174Y-123313472D02*
X177022674Y-122391972D01*
G04 #@! TO.N,Net-(D25-A)*
X177996174Y-140411172D02*
X177996174Y-139950472D01*
X189001043Y-137599704D02*
X189001043Y-129380441D01*
X178307642Y-140099704D02*
X180084206Y-140099704D01*
X180084206Y-140099704D02*
X182084206Y-142099704D01*
X174409774Y-140871972D02*
X175182042Y-140099704D01*
X175182042Y-140099704D02*
X177684706Y-140099704D01*
X189001043Y-129380441D02*
X188288374Y-128667772D01*
X184501043Y-142099704D02*
X189001043Y-137599704D01*
X177996174Y-140411172D02*
X178307642Y-140099704D01*
X177684706Y-140099704D02*
X177996174Y-140411172D01*
X182084206Y-142099704D02*
X184501043Y-142099704D01*
G04 #@! TO.N,Net-(D26-A)*
X189510374Y-78242372D02*
X192629374Y-75123372D01*
X192629374Y-71973972D02*
X193305474Y-71297872D01*
X184447474Y-82609572D02*
X188784069Y-82609572D01*
X182337174Y-80499272D02*
X184447474Y-82609572D01*
X193305474Y-71297872D02*
X193305574Y-71297872D01*
X193305574Y-71297872D02*
X192629374Y-69216572D01*
X192629374Y-75123372D02*
X192629374Y-71973972D01*
X178750874Y-81420872D02*
X181415574Y-81420872D01*
X189510374Y-81883267D02*
X189510374Y-78242372D01*
X188784069Y-82609572D02*
X189510374Y-81883267D01*
X181415574Y-81420872D02*
X182337174Y-80499272D01*
G04 #@! TO.N,Net-(D27-A)*
X184670374Y-96922572D02*
X184181574Y-96433772D01*
X184004174Y-97588772D02*
X184670374Y-96922572D01*
X187335174Y-96922572D02*
X184670374Y-96922572D01*
X184181574Y-85173223D02*
X185659025Y-83695772D01*
X187590474Y-96667272D02*
X187335174Y-96922572D01*
X197882674Y-85384573D02*
X197882674Y-85384572D01*
X196193831Y-83695772D02*
X197882653Y-85384594D01*
X197882653Y-85384594D02*
X197882674Y-85384573D01*
X185659025Y-83695772D02*
X196193831Y-83695772D01*
X184181574Y-96433772D02*
X184181574Y-85173223D01*
G04 #@! TO.N,Net-(D28-A)*
X194762236Y-113099704D02*
X193108288Y-113099704D01*
X193108288Y-113099704D02*
X192843756Y-112835172D01*
X203135953Y-101552494D02*
X203501043Y-101917584D01*
X191922174Y-113756772D02*
X192843774Y-112835172D01*
X199816475Y-110784272D02*
X197077668Y-110784272D01*
X189257374Y-113756772D02*
X191922174Y-113756772D01*
X197077668Y-110784272D02*
X194762236Y-113099704D01*
X203501043Y-107099704D02*
X199816475Y-110784272D01*
X203501043Y-101917584D02*
X203501043Y-107099704D01*
G04 #@! TO.N,Net-(D29-A)*
X205501043Y-126599704D02*
X200500524Y-126599704D01*
X200500524Y-126599704D02*
X198097056Y-129003172D01*
X197175574Y-129924672D02*
X198097074Y-129003172D01*
X194510674Y-129924672D02*
X197175574Y-129924672D01*
X208389253Y-117720494D02*
X209001043Y-118332284D01*
X209001043Y-118332284D02*
X209001043Y-123099704D01*
X209001043Y-123099704D02*
X205501043Y-126599704D01*
G04 #@! TO.N,Net-(D30-A)*
X204402292Y-73099704D02*
X209001043Y-68500953D01*
X200315506Y-73099704D02*
X204402292Y-73099704D01*
X209001043Y-60210341D02*
X208450574Y-59659872D01*
X194571974Y-71864072D02*
X197236874Y-71864072D01*
X197236874Y-71864072D02*
X198158374Y-70942572D01*
X209001043Y-68500953D02*
X209001043Y-60210341D01*
X198158374Y-70942572D02*
X200315506Y-73099704D01*
G04 #@! TO.N,Net-(D31-A)*
X200007274Y-75829372D02*
X201736942Y-74099704D01*
X211975806Y-74099704D02*
X213703874Y-75827772D01*
X200257650Y-87599704D02*
X199825303Y-88032051D01*
X199825303Y-88032051D02*
X200007274Y-87850080D01*
X203411674Y-87110472D02*
X202922442Y-87599704D01*
X202922442Y-87599704D02*
X200257650Y-87599704D01*
X200007274Y-87850080D02*
X200007274Y-75829372D01*
X201736942Y-74099704D02*
X211975806Y-74099704D01*
G04 #@! TO.N,Net-(D32-A)*
X215533422Y-101099704D02*
X210843624Y-101099704D01*
X218957053Y-91995794D02*
X219501043Y-92539784D01*
X210843624Y-101099704D02*
X208664856Y-103278472D01*
X219501043Y-97132083D02*
X215533422Y-101099704D01*
X207743374Y-104199972D02*
X208664874Y-103278472D01*
X205078574Y-104199972D02*
X207743374Y-104199972D01*
X219501043Y-92539784D02*
X219501043Y-97132083D01*
G04 #@! TO.N,Net-(D33-A)*
X212996574Y-120367972D02*
X210331874Y-120367972D01*
X220059143Y-122099704D02*
X216571506Y-122099704D01*
X213918174Y-119446372D02*
X212996574Y-120367972D01*
X224210374Y-108163672D02*
X224886574Y-110244972D01*
X224886574Y-110244972D02*
X224886574Y-117272273D01*
X216571506Y-122099704D02*
X213918174Y-119446372D01*
X224886574Y-117272273D02*
X220059143Y-122099704D01*
G04 #@! TO.N,Net-(D34-A)*
X215504074Y-70445872D02*
X216575274Y-69374672D01*
X213138574Y-70445872D02*
X215504074Y-70445872D01*
X212988874Y-70296172D02*
X213138574Y-70445872D01*
X216575274Y-69374672D02*
X218446474Y-71245872D01*
X227501043Y-58725541D02*
X226867474Y-58091972D01*
X227501043Y-66260403D02*
X227501043Y-58725541D01*
X218446474Y-71245872D02*
X222515574Y-71245872D01*
X222515574Y-71245872D02*
X227501043Y-66260403D01*
G04 #@! TO.N,Net-(D35-A)*
X218242174Y-86464172D02*
X219106642Y-85599704D01*
X232501043Y-74640241D02*
X232120674Y-74259872D01*
X224225474Y-87939572D02*
X227952074Y-87939572D01*
X227952074Y-87939572D02*
X232501043Y-83390603D01*
X221771342Y-85599704D02*
X221828474Y-85542572D01*
X232501043Y-83390603D02*
X232501043Y-74640241D01*
X219106642Y-85599704D02*
X221771342Y-85599704D01*
X221828474Y-85542572D02*
X224225474Y-87939572D01*
G04 #@! TO.N,Net-(D36-A)*
X233590975Y-104509772D02*
X238001043Y-100099704D01*
X227081774Y-101710572D02*
X229880974Y-104509772D01*
X226160174Y-102632172D02*
X227081774Y-101710572D01*
X238001043Y-91054941D02*
X237373974Y-90427872D01*
X238001043Y-100099704D02*
X238001043Y-91054941D01*
X223495474Y-102632172D02*
X226160174Y-102632172D01*
X229880974Y-104509772D02*
X233590975Y-104509772D01*
G04 #@! TO.N,Net-(D37-A)*
X246001043Y-65599704D02*
X246001043Y-57240841D01*
X234992074Y-68267572D02*
X234992074Y-67806772D01*
X246001043Y-57240841D02*
X245284274Y-56524072D01*
X237526974Y-68267572D02*
X239359106Y-70099704D01*
X234531274Y-68728372D02*
X234992074Y-68267572D01*
X239359106Y-70099704D02*
X241501043Y-70099704D01*
X241501043Y-70099704D02*
X246001043Y-65599704D01*
X234992074Y-68267572D02*
X237526974Y-68267572D01*
X231405774Y-68728372D02*
X234531274Y-68728372D01*
G04 #@! TO.N,Net-(D38-A)*
X247001043Y-86599704D02*
X251001043Y-82599704D01*
X236659074Y-84896272D02*
X237580574Y-83974772D01*
X237580574Y-83974772D02*
X239784674Y-83974772D01*
X240245374Y-84435472D02*
X240245374Y-83974772D01*
X251001043Y-82599704D02*
X251001043Y-73155541D01*
X239784674Y-83974772D02*
X240245374Y-84435472D01*
X244944406Y-86599704D02*
X247001043Y-86599704D01*
X242444406Y-84099704D02*
X244944406Y-86599704D01*
X240581142Y-84099704D02*
X242444406Y-84099704D01*
X251001043Y-73155541D02*
X250537574Y-72692072D01*
X240245374Y-84435472D02*
X240581142Y-84099704D01*
G04 #@! TO.N,Net-(D39-A)*
X245498674Y-100142672D02*
X247352674Y-101996672D01*
X244577074Y-101064272D02*
X245498674Y-100142672D01*
X247352674Y-101996672D02*
X251443074Y-101996672D01*
X256501043Y-89570141D02*
X255790874Y-88859972D01*
X241912374Y-101064272D02*
X244577074Y-101064272D01*
X251443074Y-101996672D02*
X256501043Y-96938703D01*
X256501043Y-96938703D02*
X256501043Y-89570141D01*
G04 #@! TO.N,Net-(D40-A)*
X249822674Y-67160472D02*
X252487374Y-67160472D01*
X252487374Y-67160472D02*
X253408974Y-66238872D01*
G04 #@! TO.N,Net-(D41-A)*
X257740674Y-83328472D02*
X258662274Y-82406872D01*
X255075974Y-83328472D02*
X257740674Y-83328472D01*
G04 #@! TO.N,Net-(D42-A)*
X266440388Y-101099704D02*
X263915556Y-98574872D01*
X274207753Y-97392994D02*
X270501043Y-101099704D01*
X262994074Y-99496372D02*
X263915574Y-98574872D01*
X270501043Y-101099704D02*
X266440388Y-101099704D01*
X260329274Y-99496372D02*
X262994074Y-99496372D01*
X274207753Y-87292194D02*
X274207753Y-97392994D01*
G04 #@! TO.N,RAW*
X155051074Y-58199672D02*
X148501074Y-58199672D01*
X156121074Y-57129672D02*
X155051074Y-58199672D01*
G04 #@! TO.N,ROW0*
X74056243Y-72520372D02*
X84236974Y-72520372D01*
X195344574Y-74241672D02*
X195986542Y-73599704D01*
X161601043Y-86883588D02*
X161501043Y-86983588D01*
X101455074Y-74306003D02*
X101455074Y-84890672D01*
X54285974Y-69384572D02*
X55853974Y-70952572D01*
X166140774Y-93355172D02*
X174164674Y-85331272D01*
X133984762Y-93201772D02*
X139001043Y-88185491D01*
X72488443Y-70952572D02*
X74056243Y-72520372D01*
X109920874Y-87955672D02*
X114231574Y-83644972D01*
X177990674Y-85331272D02*
X180148674Y-83173272D01*
X46203974Y-69384572D02*
X54285974Y-69384572D01*
X114231574Y-83644972D02*
X117276274Y-83644972D01*
X55853974Y-70952572D02*
X72488443Y-70952572D01*
X162963617Y-93355172D02*
X166140774Y-93355172D01*
X188927475Y-83173272D02*
X195344574Y-76756173D01*
X161501043Y-86983588D02*
X161501043Y-91892598D01*
X212835542Y-73599704D02*
X214254674Y-72180572D01*
X236969274Y-70088372D02*
X237480606Y-70599704D01*
X100501043Y-73351972D02*
X101455074Y-74306003D01*
X139001043Y-84409703D02*
X140881074Y-82529672D01*
X231103774Y-72180572D02*
X233195974Y-70088372D01*
X139001043Y-88185491D02*
X139001043Y-84409703D01*
X161501043Y-91892598D02*
X162963617Y-93355172D01*
X84236974Y-72520372D02*
X85068574Y-73351972D01*
X101455074Y-84890672D02*
X104520074Y-87955672D01*
X195986542Y-73599704D02*
X212835542Y-73599704D01*
X214254674Y-72180572D02*
X231103774Y-72180572D01*
X117276274Y-83644972D02*
X119394374Y-81526872D01*
X180148674Y-83173272D02*
X188927475Y-83173272D01*
X237480606Y-70599704D02*
X249533642Y-70599704D01*
X174164674Y-85331272D02*
X177990674Y-85331272D01*
X249533642Y-70599704D02*
X250595274Y-69538072D01*
X195344574Y-76756173D02*
X195344574Y-74241672D01*
X133097374Y-93201772D02*
X133984762Y-93201772D01*
X233195974Y-70088372D02*
X236969274Y-70088372D01*
X104520074Y-87955672D02*
X109920874Y-87955672D01*
G04 #@! TO.N,ROW1*
X173793936Y-110099704D02*
X169532056Y-110099704D01*
X41238774Y-85265072D02*
X49166411Y-85265072D01*
X219416974Y-88439572D02*
X236265974Y-88439572D01*
X67358477Y-87120172D02*
X68926677Y-88688372D01*
X116293937Y-105099704D02*
X117293937Y-104099704D01*
X98639211Y-95237872D02*
X107447874Y-95237872D01*
X141031075Y-85069672D02*
X140881074Y-85069672D01*
X167263873Y-98362534D02*
X161001043Y-92099704D01*
X188149874Y-105111572D02*
X184776774Y-101738472D01*
X210366574Y-95513672D02*
X213441774Y-92438472D01*
X184776774Y-101738472D02*
X184776774Y-99966372D01*
X168955545Y-109523193D02*
X168332779Y-109523193D01*
X213441774Y-92438472D02*
X213441774Y-92362372D01*
X197921074Y-95273372D02*
X197921074Y-101652372D01*
X179685875Y-108914872D02*
X174978768Y-108914872D01*
X133001043Y-101099704D02*
X133001043Y-94892597D01*
X205701974Y-95513672D02*
X208732174Y-95513672D01*
X161001043Y-92099704D02*
X161001043Y-85650841D01*
X128466890Y-109369772D02*
X130001043Y-107835619D01*
X86049174Y-88688372D02*
X87617074Y-90256272D01*
X237605842Y-87099704D02*
X254454942Y-87099704D01*
X112022974Y-99812972D02*
X112022974Y-103121635D01*
X167263873Y-108454287D02*
X167263873Y-98362534D01*
X168332779Y-109523193D02*
X167263873Y-108454287D01*
X130001043Y-104099704D02*
X133001043Y-101099704D01*
X133001043Y-94892597D02*
X139501043Y-88392597D01*
X156609874Y-81259672D02*
X144841075Y-81259672D01*
X208732174Y-95513672D02*
X208756074Y-95537572D01*
X213441774Y-92362372D02*
X216962374Y-88841772D01*
X201691374Y-91503072D02*
X205701974Y-95513672D01*
X236265974Y-88439572D02*
X237605842Y-87099704D01*
X87617074Y-90256272D02*
X96201874Y-90256272D01*
X174978768Y-108914872D02*
X173793936Y-110099704D01*
X117293937Y-104099704D02*
X121945407Y-104099704D01*
X197921074Y-101652372D02*
X194461874Y-105111572D01*
X208756074Y-95537572D02*
X209254374Y-95537572D01*
X209278274Y-95513672D02*
X210366574Y-95513672D01*
X112022974Y-103121635D02*
X114001043Y-105099704D01*
X216962374Y-88841772D02*
X219014774Y-88841772D01*
X201691374Y-91503072D02*
X197921074Y-95273372D01*
X209254374Y-95537572D02*
X209278274Y-95513672D01*
X114001043Y-105099704D02*
X116293937Y-105099704D01*
X130001043Y-107835619D02*
X130001043Y-104099704D01*
X107447874Y-95237872D02*
X112022974Y-99812972D01*
X40951174Y-85552672D02*
X41238774Y-85265072D01*
X200597874Y-90409672D02*
X201691374Y-91503072D01*
X51021511Y-87120172D02*
X67358477Y-87120172D01*
X68926677Y-88688372D02*
X86049174Y-88688372D01*
X144841075Y-81259672D02*
X141031075Y-85069672D01*
X127215475Y-109369772D02*
X128466890Y-109369772D01*
X184776774Y-101738472D02*
X184776774Y-103823973D01*
X161001043Y-85650841D02*
X156609874Y-81259672D01*
X219014774Y-88841772D02*
X219416974Y-88439572D01*
X49166411Y-85265072D02*
X51021511Y-87120172D01*
X139501043Y-86449703D02*
X140881074Y-85069672D01*
X121945407Y-104099704D02*
X127215475Y-109369772D01*
X139501043Y-88392597D02*
X139501043Y-86449703D01*
X254454942Y-87099704D02*
X255848574Y-85706072D01*
X96201874Y-92800535D02*
X98639211Y-95237872D01*
X194461874Y-105111572D02*
X188149874Y-105111572D01*
X184776774Y-103823973D02*
X179685875Y-108914872D01*
X169532056Y-110099704D02*
X168955545Y-109523193D01*
X96201874Y-90256272D02*
X96201874Y-92800535D01*
G04 #@! TO.N,ROW2*
X127235574Y-110096977D02*
X127235574Y-110357372D01*
X174208874Y-125691072D02*
X173586058Y-125691072D01*
X209095174Y-106577572D02*
X213333374Y-102339372D01*
X221597674Y-102339372D02*
X224268074Y-105009772D01*
X146071075Y-82529672D02*
X133501043Y-95099704D01*
X117501043Y-104599704D02*
X121738301Y-104599704D01*
X160501043Y-85857947D02*
X157172768Y-82529672D01*
X54114774Y-103288472D02*
X55682674Y-104856372D01*
X105421474Y-103500172D02*
X111694404Y-103500172D01*
X213333374Y-102339372D02*
X221597674Y-102339372D01*
X55682674Y-104856372D02*
X72531674Y-104856372D01*
X187645074Y-114048872D02*
X189730574Y-116134372D01*
X179711692Y-109414872D02*
X181501043Y-111204223D01*
X168702184Y-110599704D02*
X166763873Y-108661393D01*
X102953674Y-112164972D02*
X102953674Y-105967972D01*
X92095874Y-107571472D02*
X95739474Y-107571472D01*
X87001674Y-106424172D02*
X90948574Y-106424172D01*
X99883174Y-111812372D02*
X100235774Y-112164972D01*
X185244975Y-114048872D02*
X187645074Y-114048872D01*
X233798081Y-105009772D02*
X235365960Y-103441893D01*
X111694404Y-103500172D02*
X113793936Y-105599704D01*
X235365960Y-103441893D02*
X259533953Y-103441893D01*
X90948574Y-106424172D02*
X92095874Y-107571472D01*
X192434674Y-116134372D02*
X197284774Y-111284272D01*
X37265774Y-103288472D02*
X54114774Y-103288472D01*
X189730574Y-116134372D02*
X192434674Y-116134372D01*
X102953674Y-112164972D02*
X106769674Y-115980972D01*
X171635174Y-110599704D02*
X168702184Y-110599704D01*
X166763873Y-98591087D02*
X160501043Y-92328257D01*
X156121074Y-82529672D02*
X146071075Y-82529672D01*
X72531674Y-104856372D02*
X72531674Y-106630335D01*
X95739474Y-107571472D02*
X99883174Y-111715172D01*
X197284774Y-111284272D02*
X200023582Y-111284272D01*
X175185874Y-109414872D02*
X179711692Y-109414872D01*
X200023582Y-111284272D02*
X204730282Y-106577572D01*
X72531674Y-106630335D02*
X77001043Y-111099704D01*
X157172768Y-82529672D02*
X156121074Y-82529672D01*
X122590874Y-125537672D02*
X127235574Y-120892972D01*
X204730282Y-106577572D02*
X209095174Y-106577572D01*
X174001042Y-110599704D02*
X175185874Y-109414872D01*
X173586058Y-125691072D02*
X171635174Y-123740188D01*
X77001043Y-111099704D02*
X82326142Y-111099704D01*
X113793936Y-105599704D02*
X116501043Y-105599704D01*
X224268074Y-105009772D02*
X233798081Y-105009772D01*
X181501043Y-112747073D02*
X183353674Y-114599704D01*
X127235574Y-120892972D02*
X127235574Y-110357372D01*
X121738301Y-104599704D02*
X127235574Y-110096977D01*
X181501043Y-111204223D02*
X181501043Y-112747073D01*
X130501043Y-104306811D02*
X130501043Y-108042725D01*
X128186396Y-110357372D02*
X127235574Y-110357372D01*
X133501043Y-101306811D02*
X130501043Y-104306811D01*
X100235774Y-112164972D02*
X102953674Y-112164972D01*
X160501043Y-92328257D02*
X160501043Y-85857947D01*
X259533953Y-103441893D02*
X261101874Y-101873972D01*
X166763873Y-108661393D02*
X166763873Y-98591087D01*
X184694143Y-114599704D02*
X185244975Y-114048872D01*
X171635174Y-110599704D02*
X174001042Y-110599704D01*
X130501043Y-108042725D02*
X128186396Y-110357372D01*
X102953674Y-105967972D02*
X105421474Y-103500172D01*
X116501043Y-105599704D02*
X117501043Y-104599704D01*
X133501043Y-95099704D02*
X133501043Y-101306811D01*
X82326142Y-111099704D02*
X87001674Y-106424172D01*
X99883174Y-111715172D02*
X99883174Y-111812372D01*
X35697874Y-101720572D02*
X37265774Y-103288472D01*
X183353674Y-114599704D02*
X184694143Y-114599704D01*
X171635174Y-123740188D02*
X171635174Y-110599704D01*
G04 #@! TO.N,ROW3*
X175182374Y-143249572D02*
X175832242Y-142599704D01*
X91843105Y-132148872D02*
X101516403Y-132148872D01*
X202149975Y-127450772D02*
X206399274Y-127450772D01*
X113132326Y-142599704D02*
X121001043Y-142599704D01*
X173490673Y-126302793D02*
X171135174Y-123947294D01*
X166263873Y-98798193D02*
X160293936Y-92828257D01*
X168495077Y-111099704D02*
X166263873Y-108868500D01*
X171135174Y-111099704D02*
X168495077Y-111099704D01*
X173490673Y-142610074D02*
X173490673Y-126302793D01*
X159005662Y-85069672D02*
X156121074Y-85069672D01*
X173004575Y-143096172D02*
X173490673Y-142610074D01*
X156121074Y-143096172D02*
X173004575Y-143096172D01*
X195005582Y-132302272D02*
X197298475Y-132302272D01*
X111435194Y-140902572D02*
X113132326Y-142599704D01*
X160293936Y-92828257D02*
X160001043Y-92535364D01*
X121001043Y-142599704D02*
X121497511Y-143096172D01*
X175028974Y-143096172D02*
X175182374Y-143249572D01*
X166263873Y-108868500D02*
X166263873Y-98798193D01*
X110270073Y-140902572D02*
X111435194Y-140902572D01*
X197298475Y-132302272D02*
X202149975Y-127450772D01*
X121497511Y-143096172D02*
X156121074Y-143096172D01*
X175832242Y-142599704D02*
X184708150Y-142599704D01*
X184708150Y-142599704D02*
X195005582Y-132302272D01*
X160001043Y-86065053D02*
X159005662Y-85069672D01*
X206399274Y-127450772D02*
X211104474Y-122745572D01*
X160001043Y-92535364D02*
X160001043Y-86065053D01*
X171135174Y-123947294D02*
X171135174Y-111099704D01*
X101516403Y-132148902D02*
X110270073Y-140902572D01*
X156121074Y-143096172D02*
X175028974Y-143096172D01*
X85695274Y-126001041D02*
X91843105Y-132148872D01*
X101516403Y-132148872D02*
X101516403Y-132148902D01*
X85695274Y-122592172D02*
X85695274Y-126001041D01*
G04 #@! TO.N,COL0*
X37001043Y-65684741D02*
X38007274Y-66690972D01*
X29060874Y-86886472D02*
X29060874Y-88627472D01*
X29062374Y-86532972D02*
X29062374Y-86884972D01*
X29150074Y-86445272D02*
X29062374Y-86532972D01*
X32753974Y-82858972D02*
X32753974Y-82974572D01*
X29062374Y-86884972D02*
X29060874Y-86886472D01*
X26001043Y-97527341D02*
X27500674Y-99026972D01*
X36202574Y-68495672D02*
X33977274Y-68495672D01*
X29060874Y-88627472D02*
X29062374Y-88628972D01*
X33301074Y-70576972D02*
X33301074Y-72686772D01*
X38554374Y-54408972D02*
X37001043Y-55962303D01*
X33977274Y-68495672D02*
X33301074Y-70576972D01*
X26001043Y-92968203D02*
X26001043Y-97527341D01*
X36940074Y-78672872D02*
X32753974Y-82858972D01*
X38007274Y-66690972D02*
X36202574Y-68495672D01*
X29283274Y-86445272D02*
X29150074Y-86445272D01*
X29062374Y-88628972D02*
X29062374Y-89906872D01*
X32753974Y-82974572D02*
X29283274Y-86445272D01*
X37001043Y-55962303D02*
X37001043Y-65684741D01*
X36940074Y-76325772D02*
X36940074Y-78672872D01*
X33301074Y-72686772D02*
X36940074Y-76325772D01*
X29062374Y-89906872D02*
X26001043Y-92968203D01*
G04 #@! TO.N,COL1*
X42954992Y-100594772D02*
X40001043Y-97640823D01*
X51976974Y-72144872D02*
X51976974Y-70020672D01*
X113578674Y-71815972D02*
X115564974Y-69829672D01*
X40001043Y-97640823D02*
X40001043Y-93682103D01*
X107394974Y-70205773D02*
X109005173Y-71815972D01*
X56971274Y-55976872D02*
X56178380Y-55719266D01*
X109005173Y-71815972D02*
X113578674Y-71815972D01*
X45917574Y-100594772D02*
X42954992Y-100594772D01*
X46464715Y-87072131D02*
X47670074Y-85866772D01*
X51170874Y-84426872D02*
X48224492Y-84426872D01*
X46464715Y-88312772D02*
X46464715Y-87072131D01*
X53160211Y-68258872D02*
X56424174Y-68258872D01*
X56178380Y-55719266D02*
X50501043Y-61396603D01*
X50926962Y-71841484D02*
X51976974Y-72144872D01*
X45638721Y-88044425D02*
X46464715Y-88312772D01*
X45501043Y-77267403D02*
X50926962Y-71841484D01*
X115564974Y-69829672D02*
X140881074Y-69829672D01*
X45501043Y-81703423D02*
X45501043Y-77267403D01*
X48224492Y-84426872D02*
X45501043Y-81703423D01*
X40001043Y-93682103D02*
X45638721Y-88044425D01*
X50501043Y-65599704D02*
X53160211Y-68258872D01*
X50501043Y-61396603D02*
X50501043Y-65599704D01*
G04 #@! TO.N,COL2*
X69587774Y-85994672D02*
X66396011Y-85994672D01*
X63501043Y-83099704D02*
X63501043Y-79265003D01*
X69318582Y-73447464D02*
X70134874Y-73712672D01*
X58501043Y-95099704D02*
X63043951Y-90556796D01*
X63043951Y-90556796D02*
X64205474Y-90556796D01*
X70810974Y-71601072D02*
X70819174Y-71592872D01*
X69001043Y-67099704D02*
X71728111Y-69826772D01*
X63501043Y-79265003D02*
X69318582Y-73447464D01*
X75388174Y-57544772D02*
X74595280Y-57287166D01*
X64334474Y-102162672D02*
X61064011Y-102162672D01*
X70811074Y-71631372D02*
X70810974Y-71631372D01*
X64881615Y-87957331D02*
X65082574Y-87756372D01*
X74595280Y-57287166D02*
X69001043Y-62881403D01*
X69001043Y-62881403D02*
X69001043Y-67099704D01*
X58501043Y-99599704D02*
X58501043Y-95099704D01*
X64205474Y-90556796D02*
X64881615Y-89880655D01*
X70134874Y-73712672D02*
X70811074Y-71631372D01*
X66396011Y-85994672D02*
X63501043Y-83099704D01*
X71728111Y-69826772D02*
X74841074Y-69826772D01*
X64881615Y-89880655D02*
X64881615Y-87957331D01*
X70810974Y-71631372D02*
X70810974Y-71601072D01*
X61064011Y-102162672D02*
X58501043Y-99599704D01*
G04 #@! TO.N,COL3*
X88551815Y-75280555D02*
X86869605Y-75280555D01*
X71001043Y-116599704D02*
X74299811Y-119898472D01*
X74299811Y-119898472D02*
X77498074Y-119898472D01*
X89227974Y-73199272D02*
X89227974Y-74604396D01*
X82001043Y-81599704D02*
X82001043Y-84828672D01*
X71001043Y-106305503D02*
X71001043Y-116599704D01*
X83001043Y-80599704D02*
X82001043Y-81599704D01*
X114223575Y-72377172D02*
X108090874Y-72377172D01*
X93805074Y-59112672D02*
X93012180Y-58855066D01*
X82751374Y-103730572D02*
X80946774Y-105535172D01*
X115383675Y-71217072D02*
X114223575Y-72377172D01*
X87734974Y-71706272D02*
X89227974Y-73199272D01*
X93257974Y-71394672D02*
X91453374Y-73199272D01*
X83001043Y-79149117D02*
X83001043Y-80599704D01*
X87734974Y-64132272D02*
X87734974Y-71706272D01*
X140846043Y-74909672D02*
X137153443Y-71217072D01*
X84734943Y-87562572D02*
X88004674Y-87562572D01*
X77001043Y-96631403D02*
X83935974Y-89696472D01*
X89227974Y-74604372D02*
X89227974Y-73199272D01*
X78721274Y-105535172D02*
X77001043Y-103814941D01*
X82001043Y-84828672D02*
X84734943Y-87562572D01*
X77001043Y-103814941D02*
X77001043Y-96631403D01*
X78721374Y-105535172D02*
X78721274Y-105535172D01*
X89227974Y-74604396D02*
X88551815Y-75280555D01*
X91453374Y-73199272D02*
X89227974Y-73199272D01*
X108090874Y-72377172D02*
X107016874Y-71303172D01*
X80946774Y-105535172D02*
X78721374Y-105535172D01*
X83935974Y-89696472D02*
X83935974Y-89324372D01*
X140881074Y-74909672D02*
X140846043Y-74909672D01*
X137153443Y-71217072D02*
X115383675Y-71217072D01*
X88551774Y-75280572D02*
X89227974Y-74604372D01*
X86869605Y-75280555D02*
X83001043Y-79149117D01*
X93012180Y-58855066D02*
X87734974Y-64132272D01*
X78045174Y-107616472D02*
X78721374Y-105535172D01*
G04 #@! TO.N,COL4*
X87501043Y-127099704D02*
X87501043Y-122099704D01*
X107382791Y-68669355D02*
X103001043Y-73051103D01*
X109626215Y-68669355D02*
X107382791Y-68669355D01*
X103825774Y-97119372D02*
X103825774Y-97119405D01*
X109626174Y-68669372D02*
X109626198Y-68669372D01*
X109079074Y-80951372D02*
X107274374Y-82756072D01*
X99795774Y-100329096D02*
X98059074Y-102065796D01*
X100484874Y-111393772D02*
X100484874Y-111563272D01*
X90346175Y-119254572D02*
X92605174Y-119254572D01*
X98059074Y-102065796D02*
X98059074Y-108967972D01*
X93319274Y-129455272D02*
X89856611Y-129455272D01*
X89856611Y-129455272D02*
X87501043Y-127099704D01*
X87501043Y-122099704D02*
X90346175Y-119254572D01*
X92605174Y-119254572D02*
X98572474Y-113287272D01*
X109626198Y-68669372D02*
X109626215Y-68669355D01*
X104372874Y-84837372D02*
X105049074Y-82756072D01*
X98059074Y-108967972D02*
X100484874Y-111393772D01*
X103825774Y-97119405D02*
X100616083Y-100329096D01*
X100616083Y-100329096D02*
X99795774Y-100329096D01*
X107274374Y-82756072D02*
X105049074Y-82756072D01*
X103001043Y-73051103D02*
X103001043Y-80708041D01*
X103001043Y-80708041D02*
X105049074Y-82756072D01*
G04 #@! TO.N,COL5*
X120194115Y-92988931D02*
X120870274Y-92312772D01*
X119576674Y-83012672D02*
X119896074Y-82693272D01*
X114393674Y-122844105D02*
X114393674Y-122844072D01*
X120194115Y-96471313D02*
X120194115Y-92988931D01*
X120870274Y-92312772D02*
X120870274Y-91200172D01*
X111535793Y-122844072D02*
X108501043Y-119809322D01*
X113420174Y-140402572D02*
X110477180Y-140402572D01*
X119896074Y-82693272D02*
X119896074Y-82691272D01*
X108501043Y-115599704D02*
X117424675Y-106676072D01*
X107501043Y-132599704D02*
X111980192Y-128120555D01*
X119574674Y-83012672D02*
X119576674Y-83012672D01*
X123823174Y-102267871D02*
X123823174Y-100100372D01*
X137953874Y-77064472D02*
X139647974Y-78758572D01*
X139649974Y-78758572D02*
X140881074Y-79989672D01*
X114393674Y-122844072D02*
X111535793Y-122844072D01*
X125447415Y-78226055D02*
X126608998Y-77064472D01*
X125181096Y-77959736D02*
X125447415Y-78226055D01*
X122746192Y-103344853D02*
X123823174Y-102267871D01*
X119394174Y-83193172D02*
X119574674Y-83012672D01*
X124627610Y-77959736D02*
X125181096Y-77959736D01*
X124900274Y-90508072D02*
X124208174Y-91200172D01*
X110477180Y-140402572D02*
X107501043Y-137426435D01*
X139647974Y-78758572D02*
X139649974Y-78758572D01*
X119896074Y-82691272D02*
X124627610Y-77959736D01*
X126608998Y-77064472D02*
X137953874Y-77064472D01*
X119394174Y-89724072D02*
X119394174Y-83193172D01*
X113967315Y-128120555D02*
X114393674Y-127694196D01*
X124208174Y-91200172D02*
X120870274Y-91200172D01*
X107501043Y-137426435D02*
X107501043Y-132599704D01*
X117424675Y-106676072D02*
X119646974Y-106676072D01*
X120870274Y-91200172D02*
X119394174Y-89724072D01*
X114393674Y-127694196D02*
X114393674Y-122844105D01*
X123823174Y-100100372D02*
X120194115Y-96471313D01*
X108501043Y-119809322D02*
X108501043Y-115599704D01*
X111980192Y-128120555D02*
X113967315Y-128120555D01*
G04 #@! TO.N,COL6*
X165001043Y-80296412D02*
X165143713Y-80926272D01*
X170397013Y-99899511D02*
X177173574Y-106676072D01*
X165143713Y-80926272D02*
X165143713Y-79599704D01*
X175650274Y-112586077D02*
X175650274Y-112586072D01*
X183400374Y-140402572D02*
X177299874Y-134302072D01*
X177299874Y-132225872D02*
X177299974Y-132225872D01*
X180835874Y-123175072D02*
X180835874Y-123054804D01*
X171920274Y-90508072D02*
X170397013Y-92031333D01*
X156511042Y-79599704D02*
X156121074Y-79989672D01*
X182426874Y-122844072D02*
X182095874Y-123175072D01*
X176623774Y-130144572D02*
X177299974Y-132225872D01*
X170397013Y-92031333D02*
X170397013Y-99899511D01*
X180835874Y-123054804D02*
X176914974Y-119133904D01*
X176623774Y-130144572D02*
X175947574Y-128063272D01*
X175947674Y-128063272D02*
X175947574Y-128063272D01*
X165143713Y-79599704D02*
X156511042Y-79599704D01*
X176914974Y-119133904D02*
X176914974Y-113850777D01*
X176914974Y-113850777D02*
X175650274Y-112586077D01*
X165143674Y-80250072D02*
X165001043Y-80296412D01*
X177299874Y-134302072D02*
X177299874Y-132225872D01*
X180835874Y-123175072D02*
X175947674Y-128063272D01*
X182095874Y-123175072D02*
X180835874Y-123175072D01*
G04 #@! TO.N,COL7*
X190795274Y-100947972D02*
X192994674Y-98748572D01*
X197400874Y-123754272D02*
X197400874Y-121278572D01*
X192994674Y-97518772D02*
X186894174Y-91418272D01*
X192994674Y-98748572D02*
X192994674Y-97518772D01*
X190795174Y-100947972D02*
X190795274Y-100947972D01*
X196048474Y-115486772D02*
X198247974Y-113287272D01*
X191471374Y-103029272D02*
X190795174Y-100947972D01*
X196048474Y-117115972D02*
X196048474Y-115486772D01*
X189241474Y-88942672D02*
X192773074Y-85411072D01*
X189767774Y-104464172D02*
X190036474Y-104464172D01*
X199373674Y-125727072D02*
X197400874Y-123754272D01*
X197400874Y-121278572D02*
X196048474Y-117115972D01*
X186894174Y-88942672D02*
X186894274Y-88942672D01*
X190036474Y-104464172D02*
X191471374Y-103029272D01*
X199373675Y-125727072D02*
X199373674Y-125727072D01*
X186894174Y-91418272D02*
X186894174Y-88942672D01*
X186218074Y-86861372D02*
X186894274Y-88942672D01*
X192773074Y-85411072D02*
X192773074Y-84343072D01*
X189767774Y-104464272D02*
X189767774Y-104464172D01*
X186894274Y-88942672D02*
X189241474Y-88942672D01*
G04 #@! TO.N,COL8*
X202715374Y-79385872D02*
X202715374Y-81461972D01*
X214069074Y-103730572D02*
X214069074Y-103730605D01*
X203248143Y-74846804D02*
X202039313Y-76055634D01*
X213221874Y-104577805D02*
X213221874Y-113797972D01*
X213221874Y-113797972D02*
X219322374Y-119898472D01*
X197462074Y-65294072D02*
X201789274Y-69621272D01*
X201789274Y-69621272D02*
X201789274Y-69621372D01*
X206501043Y-92681141D02*
X208755774Y-94935872D01*
X208815874Y-87562572D02*
X206501043Y-89877403D01*
X196786013Y-61136716D02*
X197462074Y-61812777D01*
X202039313Y-76055634D02*
X202039313Y-78709811D01*
X206501043Y-89877403D02*
X206501043Y-92681141D01*
X214069074Y-103730605D02*
X213221874Y-104577805D01*
X208755774Y-94935872D02*
X209005174Y-94935872D01*
X208599274Y-87345972D02*
X208815874Y-87562572D01*
X201789274Y-69621372D02*
X203562574Y-71394672D01*
X197462074Y-61812777D02*
X197462074Y-65294072D01*
X202715374Y-81461972D02*
X208599274Y-87345872D01*
X202039313Y-78709811D02*
X202715374Y-79385872D01*
X208599274Y-87345872D02*
X208599274Y-87345972D01*
G04 #@! TO.N,COL9*
X220456074Y-75736672D02*
X221132274Y-77817972D01*
X225709413Y-89482511D02*
X225541774Y-89314872D01*
X227232674Y-85994672D02*
X221132174Y-79894172D01*
X221132174Y-77817972D02*
X221132274Y-77817972D01*
X214276574Y-69739172D02*
X214276574Y-69844172D01*
X225541774Y-89314872D02*
X225541774Y-89086872D01*
X220456074Y-75736672D02*
X219779874Y-73655372D01*
X218374774Y-73655372D02*
X219779874Y-73655372D01*
X218727374Y-66574672D02*
X217441074Y-66574672D01*
X221132174Y-79894172D02*
X221132174Y-77817972D01*
X217441074Y-66574672D02*
X214276574Y-69739172D01*
X217683574Y-72964172D02*
X218374774Y-73655372D01*
X225709413Y-95386111D02*
X225709413Y-89482511D01*
X221979474Y-69826772D02*
X218727374Y-66574672D01*
X232485974Y-102162672D02*
X225709413Y-95386111D01*
G04 #@! TO.N,COL10*
X244802374Y-92418072D02*
X244802374Y-94494272D01*
X234295774Y-62158272D02*
X234295774Y-60082172D01*
X239549174Y-74845077D02*
X239549174Y-76250172D01*
X238873013Y-73652643D02*
X238873013Y-74168916D01*
X239549074Y-76250172D02*
X239549074Y-78326372D01*
X239549074Y-78326372D02*
X245649574Y-84426872D01*
X238873013Y-74168916D02*
X239549174Y-74845077D01*
X244802474Y-92418072D02*
X244802374Y-92418072D01*
X236720074Y-71499704D02*
X238873013Y-73652643D01*
X244126274Y-89355972D02*
X244126274Y-90336772D01*
X240396274Y-68258872D02*
X240179674Y-68042272D01*
X240179674Y-68042172D02*
X234295774Y-62158272D01*
X244001043Y-89230741D02*
X244126274Y-89355972D01*
X244001043Y-88099704D02*
X244001043Y-89230741D01*
X234295774Y-60082172D02*
X234295874Y-60082172D01*
X239549174Y-76250172D02*
X239549074Y-76250172D01*
X233619674Y-58000872D02*
X234295874Y-60082172D01*
X244126274Y-90336772D02*
X244802474Y-92418072D01*
X244802374Y-94494272D02*
X250902874Y-100594772D01*
X240179674Y-68042272D02*
X240179674Y-68042172D01*
G04 #@! TO.N,COL11*
X259001043Y-66878874D02*
X259001043Y-68132403D01*
X257966074Y-74682272D02*
X257965974Y-74682272D01*
X264066474Y-82858972D02*
X262638274Y-82858972D01*
X262638274Y-81830172D02*
X262638274Y-82858972D01*
X262638274Y-85916472D02*
X262638274Y-82858972D01*
X257965974Y-74682272D02*
X257965974Y-77157872D01*
X261866974Y-86687672D02*
X261867074Y-86687672D01*
X258071707Y-66691005D02*
X258813174Y-66691005D01*
X263219274Y-92926472D02*
X263219274Y-90850272D01*
X263219274Y-90850272D02*
X263219374Y-90850272D01*
X256613774Y-70519672D02*
X256613674Y-70519672D01*
X252036574Y-56432972D02*
X252712774Y-58514272D01*
X252712674Y-61331972D02*
X258071707Y-66691005D01*
X261867074Y-86687672D02*
X262638274Y-85916472D01*
X257965974Y-77157872D02*
X262638274Y-81830172D01*
X259001043Y-68132403D02*
X256613774Y-70519672D01*
X258813174Y-66691005D02*
X259001043Y-66878874D01*
X269319774Y-99026972D02*
X263219274Y-92926472D01*
X252712774Y-58514272D02*
X252712674Y-58514272D01*
X252712674Y-58514272D02*
X252712674Y-61331972D01*
X256613674Y-70519672D02*
X257966074Y-74682272D01*
X263219374Y-90850272D02*
X261866974Y-86687672D01*
G04 #@! TO.N,Net-(BATT1--)*
X148404774Y-55903372D02*
X131295736Y-55903372D01*
X131295736Y-55903372D02*
X130426129Y-56772979D01*
X148501074Y-55999672D02*
X148317374Y-55815972D01*
X148501074Y-55999672D02*
X148404774Y-55903372D01*
G04 #@! TD*
M02*
