G04 #@! TF.GenerationSoftware,KiCad,Pcbnew,8.0.4*
G04 #@! TF.CreationDate,2024-09-01T14:28:51+07:00*
G04 #@! TF.ProjectId,ozprey,6f7a7072-6579-42e6-9b69-6361645f7063,1.0*
G04 #@! TF.SameCoordinates,Original*
G04 #@! TF.FileFunction,Soldermask,Top*
G04 #@! TF.FilePolarity,Negative*
%FSLAX46Y46*%
G04 Gerber Fmt 4.6, Leading zero omitted, Abs format (unit mm)*
G04 Created by KiCad (PCBNEW 8.0.4) date 2024-09-01 14:28:51*
%MOMM*%
%LPD*%
G01*
G04 APERTURE LIST*
G04 Aperture macros list*
%AMHorizOval*
0 Thick line with rounded ends*
0 $1 width*
0 $2 $3 position (X,Y) of the first rounded end (center of the circle)*
0 $4 $5 position (X,Y) of the second rounded end (center of the circle)*
0 Add line between two ends*
20,1,$1,$2,$3,$4,$5,0*
0 Add two circle primitives to create the rounded ends*
1,1,$1,$2,$3*
1,1,$1,$4,$5*%
G04 Aperture macros list end*
%ADD10HorizOval,0.508000X-2.084629X6.415827X2.084629X-6.415827X0*%
%ADD11HorizOval,0.508000X6.415827X2.084629X-6.415827X-2.084629X0*%
%ADD12HorizOval,0.508000X2.084629X6.415827X-2.084629X-6.415827X0*%
%ADD13HorizOval,0.508000X6.415827X-2.084629X-6.415827X2.084629X0*%
%ADD14C,2.200000*%
G04 APERTURE END LIST*
D10*
G04 #@! TO.C,SW42*
X260493108Y-95596770D03*
D11*
X264801845Y-87014239D03*
X269014055Y-99978090D03*
D10*
X273316920Y-91377488D03*
G04 #@! TD*
G04 #@! TO.C,SW41*
X255239808Y-79428770D03*
D11*
X259548545Y-70846239D03*
X263760755Y-83810090D03*
D10*
X268063620Y-75209488D03*
G04 #@! TD*
G04 #@! TO.C,SW40*
X249986508Y-63260770D03*
D11*
X254295245Y-54678239D03*
X258507455Y-67642090D03*
D10*
X262810320Y-59041488D03*
G04 #@! TD*
G04 #@! TO.C,SW39*
X242076208Y-97164570D03*
D11*
X246384945Y-88582039D03*
X250597155Y-101545890D03*
D10*
X254900020Y-92945288D03*
G04 #@! TD*
G04 #@! TO.C,SW38*
X236822908Y-80996670D03*
D11*
X241131645Y-72414139D03*
X245343855Y-85377990D03*
D10*
X249646720Y-76777388D03*
G04 #@! TD*
G04 #@! TO.C,SW37*
X231569608Y-64828670D03*
D11*
X235878345Y-56246139D03*
X240090555Y-69209990D03*
D10*
X244393420Y-60609388D03*
G04 #@! TD*
G04 #@! TO.C,SW36*
X223659308Y-98732470D03*
D11*
X227968045Y-90149939D03*
X232180255Y-103113790D03*
D10*
X236483120Y-94513188D03*
G04 #@! TD*
G04 #@! TO.C,SW35*
X218406008Y-82564470D03*
D11*
X222714745Y-73981939D03*
X226926955Y-86945790D03*
D10*
X231229820Y-78345188D03*
G04 #@! TD*
G04 #@! TO.C,SW34*
X213152808Y-66396570D03*
D11*
X217461545Y-57814039D03*
X221673755Y-70777890D03*
D10*
X225976620Y-62177288D03*
G04 #@! TD*
G04 #@! TO.C,SW33*
X210495708Y-116468270D03*
D11*
X214804445Y-107885739D03*
X219016655Y-120849590D03*
D10*
X223319520Y-112248988D03*
G04 #@! TD*
G04 #@! TO.C,SW32*
X205242408Y-100300370D03*
D11*
X209551145Y-91717839D03*
X213763355Y-104681690D03*
D10*
X218066220Y-96081088D03*
G04 #@! TD*
G04 #@! TO.C,SW31*
X199989208Y-84132370D03*
D11*
X204297945Y-75549839D03*
X208510155Y-88513690D03*
D10*
X212813020Y-79913088D03*
G04 #@! TD*
G04 #@! TO.C,SW30*
X194735908Y-67964470D03*
D11*
X199044645Y-59381939D03*
X203256855Y-72345790D03*
D10*
X207559720Y-63745188D03*
G04 #@! TD*
G04 #@! TO.C,SW29*
X194674608Y-126025070D03*
D11*
X198983345Y-117442539D03*
X203195555Y-130406390D03*
D10*
X207498420Y-121805788D03*
G04 #@! TD*
G04 #@! TO.C,SW28*
X189421308Y-109857070D03*
D11*
X193730045Y-101274539D03*
X197942255Y-114238390D03*
D10*
X202245120Y-105637788D03*
G04 #@! TD*
G04 #@! TO.C,SW27*
X184168008Y-93689170D03*
D11*
X188476745Y-85106639D03*
X192688955Y-98070490D03*
D10*
X196991820Y-89469888D03*
G04 #@! TD*
G04 #@! TO.C,SW26*
X178914708Y-77521170D03*
D11*
X183223445Y-68938639D03*
X187435655Y-81902490D03*
D10*
X191738520Y-73301888D03*
G04 #@! TD*
G04 #@! TO.C,SW25*
X174573708Y-136972370D03*
D11*
X178882445Y-128389839D03*
X183094655Y-141353690D03*
D10*
X187397520Y-132753088D03*
G04 #@! TD*
G04 #@! TO.C,SW24*
X173600208Y-119413870D03*
D11*
X177908945Y-110831339D03*
X182121155Y-123795190D03*
D10*
X186424020Y-115194588D03*
G04 #@! TD*
G04 #@! TO.C,SW23*
X168346908Y-103245870D03*
D11*
X172655645Y-94663339D03*
X176867855Y-107627190D03*
D10*
X181170720Y-99026588D03*
G04 #@! TD*
G04 #@! TO.C,SW22*
X163093608Y-87077870D03*
D11*
X167402345Y-78495339D03*
X171614555Y-91459190D03*
D10*
X175917420Y-82858588D03*
G04 #@! TD*
D12*
G04 #@! TO.C,SW21*
X108178105Y-132800641D03*
D13*
X116708631Y-128389839D03*
X112496421Y-141353690D03*
D12*
X121032819Y-136924818D03*
G04 #@! TD*
G04 #@! TO.C,SW20*
X109151605Y-115242141D03*
D13*
X117682131Y-110831339D03*
X113469921Y-123795190D03*
D12*
X122006319Y-119366318D03*
G04 #@! TD*
G04 #@! TO.C,SW19*
X114404905Y-99074141D03*
D13*
X122935431Y-94663339D03*
X118723221Y-107627190D03*
D12*
X127259619Y-103198318D03*
G04 #@! TD*
G04 #@! TO.C,SW18*
X119658205Y-82906141D03*
D13*
X128188731Y-78495339D03*
X123976521Y-91459190D03*
D12*
X132512919Y-87030318D03*
G04 #@! TD*
G04 #@! TO.C,SW17*
X88077205Y-121853341D03*
D13*
X96607731Y-117442539D03*
X92395521Y-130406390D03*
D12*
X100931919Y-125977518D03*
G04 #@! TD*
G04 #@! TO.C,SW16*
X93330405Y-105685341D03*
D13*
X101860931Y-101274539D03*
X97648721Y-114238390D03*
D12*
X106185119Y-109809518D03*
G04 #@! TD*
G04 #@! TO.C,SW15*
X98583705Y-89517441D03*
D13*
X107114231Y-85106639D03*
X102902021Y-98070490D03*
D12*
X111438419Y-93641618D03*
G04 #@! TD*
G04 #@! TO.C,SW14*
X103837005Y-73349441D03*
D13*
X112367531Y-68938639D03*
X108155321Y-81902490D03*
D12*
X116691719Y-77473618D03*
G04 #@! TD*
G04 #@! TO.C,SW13*
X72256005Y-112296541D03*
D13*
X80786531Y-107885739D03*
X76574321Y-120849590D03*
D12*
X85110719Y-116420718D03*
G04 #@! TD*
G04 #@! TO.C,SW12*
X77509305Y-96128641D03*
D13*
X86039831Y-91717839D03*
X81827621Y-104681690D03*
D12*
X90364019Y-100252818D03*
G04 #@! TD*
G04 #@! TO.C,SW11*
X82762605Y-79960641D03*
D13*
X91293131Y-75549839D03*
X87080921Y-88513690D03*
D12*
X95617319Y-84084818D03*
G04 #@! TD*
G04 #@! TO.C,SW10*
X88015905Y-63792741D03*
D13*
X96546431Y-59381939D03*
X92334221Y-72345790D03*
D12*
X100870619Y-67916918D03*
G04 #@! TD*
G04 #@! TO.C,SW9*
X59092405Y-94560741D03*
D13*
X67622931Y-90149939D03*
X63410721Y-103113790D03*
D12*
X71947119Y-98684918D03*
G04 #@! TD*
G04 #@! TO.C,SW8*
X64345705Y-78392741D03*
D13*
X72876231Y-73981939D03*
X68664021Y-86945790D03*
D12*
X77200419Y-82516918D03*
G04 #@! TD*
G04 #@! TO.C,SW7*
X69599005Y-62224841D03*
D13*
X78129531Y-57814039D03*
X73917321Y-70777890D03*
D12*
X82453719Y-66349018D03*
G04 #@! TD*
G04 #@! TO.C,SW6*
X40675505Y-92992841D03*
D13*
X49206031Y-88582039D03*
X44993821Y-101545890D03*
D12*
X53530219Y-97117018D03*
G04 #@! TD*
G04 #@! TO.C,SW5*
X45928805Y-76824941D03*
D13*
X54459331Y-72414139D03*
X50247121Y-85377990D03*
D12*
X58783519Y-80949118D03*
G04 #@! TD*
G04 #@! TO.C,SW4*
X51182105Y-60656941D03*
D13*
X59712631Y-56246139D03*
X55500421Y-69209990D03*
D12*
X64036819Y-64781118D03*
G04 #@! TD*
G04 #@! TO.C,SW3*
X22258605Y-91425041D03*
D13*
X30789131Y-87014239D03*
X26576921Y-99978090D03*
D12*
X35113319Y-95549218D03*
G04 #@! TD*
G04 #@! TO.C,SW2*
X27511905Y-75257041D03*
D13*
X36042431Y-70846239D03*
X31830221Y-83810090D03*
D12*
X40366619Y-79381218D03*
G04 #@! TD*
G04 #@! TO.C,SW1*
X32765205Y-59089041D03*
D13*
X41295731Y-54678239D03*
X37083521Y-67642090D03*
D12*
X45619919Y-63213218D03*
G04 #@! TD*
D14*
G04 #@! TO.C,H_M2_4*
X210100738Y-55377800D03*
G04 #@! TD*
G04 #@! TO.C,H_M2_3*
X148250707Y-89277832D03*
G04 #@! TD*
G04 #@! TO.C,H_M2_5*
X239600738Y-109877800D03*
G04 #@! TD*
G04 #@! TO.C,H_M2_1*
X85600738Y-55377800D03*
G04 #@! TD*
G04 #@! TO.C,H_M2_2*
X56279438Y-109877800D03*
G04 #@! TD*
G04 #@! TO.C,H_M2_6*
X148279438Y-137724100D03*
G04 #@! TD*
M02*
