%TF.GenerationSoftware,KiCad,Pcbnew,8.0.4*%
%TF.CreationDate,2024-09-01T14:28:54+07:00*%
%TF.ProjectId,ozprey,6f7a7072-6579-42e6-9b69-6361645f7063,1.0*%
%TF.SameCoordinates,Original*%
%TF.FileFunction,Drillmap*%
%TF.FilePolarity,Positive*%
%FSLAX45Y45*%
G04 Gerber Fmt 4.5, Leading zero omitted, Abs format (unit mm)*
G04 Created by KiCad (PCBNEW 8.0.4) date 2024-09-01 14:28:54*
%MOMM*%
%LPD*%
G01*
G04 APERTURE LIST*
%ADD10C,0.100000*%
%ADD11C,0.200000*%
G04 APERTURE END LIST*
D10*
X16601547Y-6287783D02*
X17207140Y-5282085D01*
X12351273Y-5282085D02*
X12971547Y-6287783D01*
X10135061Y-13955196D02*
G75*
G02*
X7772581Y-12733071I12267189J26608116D01*
G01*
X3175623Y-5021967D02*
X1616009Y-9822338D01*
X3175623Y-5021967D02*
G75*
G02*
X3382801Y-4884487I190206J-61789D01*
G01*
X21786510Y-12733071D02*
G75*
G02*
X19424031Y-13955195I-14629880J25386411D01*
G01*
X1744420Y-10074350D02*
X1930327Y-10134752D01*
X27943082Y-9822339D02*
X26383468Y-5021967D01*
X1930327Y-10134752D02*
G75*
G02*
X7772581Y-12733071I-9486547J-29197495D01*
G01*
X21786510Y-12733071D02*
G75*
G02*
X27628764Y-10134753I15328780J-26599139D01*
G01*
X12351273Y-5282085D02*
X3382801Y-4884486D01*
X14028776Y-14809547D02*
G75*
G02*
X10135060Y-13955196I-1J9300001D01*
G01*
X19424031Y-13955195D02*
G75*
G02*
X15530315Y-14809546I-3893711J8445635D01*
G01*
X26176290Y-4884487D02*
G75*
G02*
X26383466Y-5021968I16960J-199283D01*
G01*
X26176290Y-4884487D02*
X17207140Y-5282085D01*
X27628764Y-10134752D02*
X27814671Y-10074349D01*
X1744420Y-10074350D02*
G75*
G02*
X1616005Y-9822337I61810J190220D01*
G01*
X14028776Y-14809547D02*
X15530315Y-14809547D01*
X27943082Y-9822339D02*
G75*
G02*
X27814670Y-10074346I-190202J-61801D01*
G01*
X15721547Y-8587783D02*
G75*
G02*
X15621547Y-8687783I-100000J0D01*
G01*
X15621547Y-8687783D02*
X13947258Y-8687073D01*
X13847258Y-8587073D02*
X13847257Y-6387073D01*
X13747257Y-6287073D02*
G75*
G02*
X13847257Y-6387073I0J-100000D01*
G01*
X13947258Y-8687073D02*
G75*
G02*
X13847258Y-8587073I0J100000D01*
G01*
X15721547Y-6387783D02*
X15721547Y-8587783D01*
X13747257Y-6287073D02*
X12971547Y-6287783D01*
X15721547Y-6387783D02*
G75*
G02*
X15821547Y-6287783I100000J0D01*
G01*
X15821547Y-6287783D02*
X16601547Y-6287783D01*
D11*
X1861997Y-15126031D02*
X1861997Y-14926031D01*
X1861997Y-14926031D02*
X1909616Y-14926031D01*
X1909616Y-14926031D02*
X1938187Y-14935555D01*
X1938187Y-14935555D02*
X1957235Y-14954602D01*
X1957235Y-14954602D02*
X1966759Y-14973650D01*
X1966759Y-14973650D02*
X1976283Y-15011745D01*
X1976283Y-15011745D02*
X1976283Y-15040317D01*
X1976283Y-15040317D02*
X1966759Y-15078412D01*
X1966759Y-15078412D02*
X1957235Y-15097459D01*
X1957235Y-15097459D02*
X1938187Y-15116507D01*
X1938187Y-15116507D02*
X1909616Y-15126031D01*
X1909616Y-15126031D02*
X1861997Y-15126031D01*
X2061997Y-15126031D02*
X2061997Y-14992698D01*
X2061997Y-15030793D02*
X2071521Y-15011745D01*
X2071521Y-15011745D02*
X2081044Y-15002221D01*
X2081044Y-15002221D02*
X2100092Y-14992698D01*
X2100092Y-14992698D02*
X2119140Y-14992698D01*
X2185806Y-15126031D02*
X2185806Y-14992698D01*
X2185806Y-14926031D02*
X2176283Y-14935555D01*
X2176283Y-14935555D02*
X2185806Y-14945079D01*
X2185806Y-14945079D02*
X2195330Y-14935555D01*
X2195330Y-14935555D02*
X2185806Y-14926031D01*
X2185806Y-14926031D02*
X2185806Y-14945079D01*
X2309616Y-15126031D02*
X2290568Y-15116507D01*
X2290568Y-15116507D02*
X2281045Y-15097459D01*
X2281045Y-15097459D02*
X2281045Y-14926031D01*
X2414378Y-15126031D02*
X2395330Y-15116507D01*
X2395330Y-15116507D02*
X2385806Y-15097459D01*
X2385806Y-15097459D02*
X2385806Y-14926031D01*
X2642949Y-15126031D02*
X2642949Y-14926031D01*
X2642949Y-14926031D02*
X2709616Y-15068888D01*
X2709616Y-15068888D02*
X2776283Y-14926031D01*
X2776283Y-14926031D02*
X2776283Y-15126031D01*
X2957235Y-15126031D02*
X2957235Y-15021269D01*
X2957235Y-15021269D02*
X2947711Y-15002221D01*
X2947711Y-15002221D02*
X2928664Y-14992698D01*
X2928664Y-14992698D02*
X2890568Y-14992698D01*
X2890568Y-14992698D02*
X2871521Y-15002221D01*
X2957235Y-15116507D02*
X2938187Y-15126031D01*
X2938187Y-15126031D02*
X2890568Y-15126031D01*
X2890568Y-15126031D02*
X2871521Y-15116507D01*
X2871521Y-15116507D02*
X2861997Y-15097459D01*
X2861997Y-15097459D02*
X2861997Y-15078412D01*
X2861997Y-15078412D02*
X2871521Y-15059364D01*
X2871521Y-15059364D02*
X2890568Y-15049840D01*
X2890568Y-15049840D02*
X2938187Y-15049840D01*
X2938187Y-15049840D02*
X2957235Y-15040317D01*
X3052473Y-14992698D02*
X3052473Y-15192698D01*
X3052473Y-15002221D02*
X3071521Y-14992698D01*
X3071521Y-14992698D02*
X3109616Y-14992698D01*
X3109616Y-14992698D02*
X3128664Y-15002221D01*
X3128664Y-15002221D02*
X3138187Y-15011745D01*
X3138187Y-15011745D02*
X3147711Y-15030793D01*
X3147711Y-15030793D02*
X3147711Y-15087936D01*
X3147711Y-15087936D02*
X3138187Y-15106983D01*
X3138187Y-15106983D02*
X3128664Y-15116507D01*
X3128664Y-15116507D02*
X3109616Y-15126031D01*
X3109616Y-15126031D02*
X3071521Y-15126031D01*
X3071521Y-15126031D02*
X3052473Y-15116507D01*
X3233425Y-15106983D02*
X3242949Y-15116507D01*
X3242949Y-15116507D02*
X3233425Y-15126031D01*
X3233425Y-15126031D02*
X3223902Y-15116507D01*
X3223902Y-15116507D02*
X3233425Y-15106983D01*
X3233425Y-15106983D02*
X3233425Y-15126031D01*
X3233425Y-15002221D02*
X3242949Y-15011745D01*
X3242949Y-15011745D02*
X3233425Y-15021269D01*
X3233425Y-15021269D02*
X3223902Y-15011745D01*
X3223902Y-15011745D02*
X3233425Y-15002221D01*
X3233425Y-15002221D02*
X3233425Y-15021269D01*
M02*
