G04 #@! TF.GenerationSoftware,KiCad,Pcbnew,8.0.4*
G04 #@! TF.CreationDate,2024-09-01T14:28:51+07:00*
G04 #@! TF.ProjectId,ozprey,6f7a7072-6579-42e6-9b69-6361645f7063,1.0*
G04 #@! TF.SameCoordinates,Original*
G04 #@! TF.FileFunction,Legend,Top*
G04 #@! TF.FilePolarity,Positive*
%FSLAX46Y46*%
G04 Gerber Fmt 4.6, Leading zero omitted, Abs format (unit mm)*
G04 Created by KiCad (PCBNEW 8.0.4) date 2024-09-01 14:28:51*
%MOMM*%
%LPD*%
G01*
G04 APERTURE LIST*
G04 Aperture macros list*
%AMHorizOval*
0 Thick line with rounded ends*
0 $1 width*
0 $2 $3 position (X,Y) of the first rounded end (center of the circle)*
0 $4 $5 position (X,Y) of the second rounded end (center of the circle)*
0 Add line between two ends*
20,1,$1,$2,$3,$4,$5,0*
0 Add two circle primitives to create the rounded ends*
1,1,$1,$2,$3*
1,1,$1,$4,$5*%
G04 Aperture macros list end*
%ADD10C,0.300000*%
%ADD11C,0.125000*%
%ADD12HorizOval,0.508000X-2.084629X6.415827X2.084629X-6.415827X0*%
%ADD13HorizOval,0.508000X6.415827X2.084629X-6.415827X-2.084629X0*%
%ADD14HorizOval,0.508000X2.084629X6.415827X-2.084629X-6.415827X0*%
%ADD15HorizOval,0.508000X6.415827X-2.084629X-6.415827X2.084629X0*%
%ADD16C,2.200000*%
G04 APERTURE END LIST*
D10*
G36*
X136587256Y-141100223D02*
G01*
X136881939Y-141145454D01*
X137198111Y-141234068D01*
X137492302Y-141362066D01*
X137562415Y-141400220D01*
X137825556Y-141570946D01*
X138058106Y-141768050D01*
X138260064Y-141991532D01*
X138431431Y-142241392D01*
X138568634Y-142510304D01*
X138666637Y-142792404D01*
X138725438Y-143087694D01*
X138745039Y-143396172D01*
X138723913Y-143703161D01*
X138660534Y-144001492D01*
X138566253Y-144265188D01*
X138426336Y-144540410D01*
X138250401Y-144793812D01*
X138059205Y-145005244D01*
X137817971Y-145211137D01*
X137547646Y-145385513D01*
X137276651Y-145516689D01*
X136984962Y-145616380D01*
X136674096Y-145679149D01*
X136377920Y-145704071D01*
X136275743Y-145705733D01*
X135964161Y-145690656D01*
X135669267Y-145645426D01*
X135352683Y-145556811D01*
X135057897Y-145428813D01*
X134987607Y-145390660D01*
X134725015Y-145220025D01*
X134492648Y-145023196D01*
X134290507Y-144800172D01*
X134118591Y-144550953D01*
X133982028Y-144282041D01*
X133884484Y-143999941D01*
X133825957Y-143704651D01*
X133806448Y-143396172D01*
X135436036Y-143396172D01*
X135475300Y-143693507D01*
X135547411Y-143866584D01*
X135737955Y-144095035D01*
X135849295Y-144171399D01*
X136132718Y-144267931D01*
X136275743Y-144278378D01*
X136577364Y-144227814D01*
X136700726Y-144171399D01*
X136926595Y-143980730D01*
X137004076Y-143866584D01*
X137102290Y-143574736D01*
X137115450Y-143396172D01*
X137076703Y-143098131D01*
X137005541Y-142925761D01*
X136816949Y-142696680D01*
X136705122Y-142620946D01*
X136420314Y-142524414D01*
X136275743Y-142513967D01*
X135982423Y-142560039D01*
X135844899Y-142620946D01*
X135621045Y-142810986D01*
X135544480Y-142925761D01*
X135448851Y-143216947D01*
X135436036Y-143396172D01*
X133806448Y-143396172D01*
X133827401Y-143088522D01*
X133890260Y-142790223D01*
X133983769Y-142527156D01*
X134124520Y-142251935D01*
X134300943Y-141998533D01*
X134492282Y-141787101D01*
X134733516Y-141580374D01*
X135003841Y-141405509D01*
X135274836Y-141274191D01*
X135567785Y-141174499D01*
X135878765Y-141111731D01*
X136174064Y-141086808D01*
X136275743Y-141085147D01*
X136587256Y-141100223D01*
G37*
G36*
X139266741Y-145579704D02*
G01*
X139266741Y-144487938D01*
X140971068Y-142681029D01*
X139341480Y-142681029D01*
X139341480Y-141211176D01*
X143054948Y-141211176D01*
X143054948Y-142304407D01*
X141475185Y-144109850D01*
X143088653Y-144109850D01*
X143088653Y-145579704D01*
X139266741Y-145579704D01*
G37*
G36*
X147055829Y-141102641D02*
G01*
X147373527Y-141164142D01*
X147671287Y-141269926D01*
X147858716Y-141365049D01*
X148117694Y-141541389D01*
X148343983Y-141755519D01*
X148537582Y-142007439D01*
X148631012Y-142163723D01*
X148755393Y-142434741D01*
X148844236Y-142730489D01*
X148897542Y-143050966D01*
X148915033Y-143351669D01*
X148915311Y-143396172D01*
X148899569Y-143698452D01*
X148845888Y-144014099D01*
X148754110Y-144312083D01*
X148627527Y-144587761D01*
X148469428Y-144838503D01*
X148298353Y-145044812D01*
X148062392Y-145259547D01*
X147796343Y-145435539D01*
X147602261Y-145531343D01*
X147317862Y-145630630D01*
X147014762Y-145688703D01*
X146722987Y-145705733D01*
X146422935Y-145684484D01*
X146135339Y-145620736D01*
X145845898Y-145505928D01*
X145606309Y-145361350D01*
X145606309Y-147344114D01*
X143934222Y-147344114D01*
X143934222Y-143396172D01*
X145606309Y-143396172D01*
X145644539Y-143693507D01*
X145714752Y-143866584D01*
X145903974Y-144095035D01*
X146015171Y-144171399D01*
X146301302Y-144267931D01*
X146446016Y-144278378D01*
X146738705Y-144232306D01*
X146875394Y-144171399D01*
X147099878Y-143980730D01*
X147175813Y-143866584D01*
X147272735Y-143574736D01*
X147285722Y-143396172D01*
X147246459Y-143098131D01*
X147174348Y-142925761D01*
X146983804Y-142696680D01*
X146872464Y-142620946D01*
X146589041Y-142524414D01*
X146446016Y-142513967D01*
X146143702Y-142564531D01*
X146019568Y-142620946D01*
X145795021Y-142810986D01*
X145717683Y-142925761D01*
X145619469Y-143216947D01*
X145606309Y-143396172D01*
X143934222Y-143396172D01*
X143934222Y-141211176D01*
X145363043Y-141211176D01*
X145363043Y-141640555D01*
X145586880Y-141434189D01*
X145841947Y-141281744D01*
X145952157Y-141233158D01*
X146235654Y-141142963D01*
X146540995Y-141094397D01*
X146756692Y-141085147D01*
X147055829Y-141102641D01*
G37*
G36*
X149637781Y-145579704D02*
G01*
X149637781Y-141211176D01*
X151318660Y-141211176D01*
X151318660Y-141665468D01*
X151502715Y-141419331D01*
X151749883Y-141241458D01*
X151787607Y-141222900D01*
X152068665Y-141123724D01*
X152373286Y-141080086D01*
X152464648Y-141077819D01*
X152731361Y-141096870D01*
X152952645Y-141136438D01*
X152763601Y-142858350D01*
X152473807Y-142769392D01*
X152429477Y-142760164D01*
X152129862Y-142724422D01*
X152074836Y-142723528D01*
X151775150Y-142767858D01*
X151532617Y-142900848D01*
X151365672Y-143144769D01*
X151318660Y-143454791D01*
X151318660Y-145579704D01*
X149637781Y-145579704D01*
G37*
G36*
X155884758Y-141101839D02*
G01*
X156188958Y-141151917D01*
X156472292Y-141235379D01*
X156620684Y-141296172D01*
X156895142Y-141443462D01*
X157137830Y-141623382D01*
X157348747Y-141835930D01*
X157387118Y-141882355D01*
X157556905Y-142129708D01*
X157688911Y-142402822D01*
X157783135Y-142701695D01*
X157797446Y-142764560D01*
X157840955Y-143056138D01*
X157847833Y-143362089D01*
X157818080Y-143682415D01*
X157785722Y-143866584D01*
X154636455Y-143866584D01*
X154757144Y-144143653D01*
X154780070Y-144168468D01*
X155033448Y-144337375D01*
X155122987Y-144372167D01*
X155413903Y-144435136D01*
X155610984Y-144445440D01*
X155925901Y-144430203D01*
X156222921Y-144384492D01*
X156353971Y-144353116D01*
X156633056Y-144260205D01*
X156910690Y-144131500D01*
X157038339Y-144060025D01*
X157526337Y-145167910D01*
X157264667Y-145325355D01*
X157000237Y-145437554D01*
X156701467Y-145534727D01*
X156407964Y-145608382D01*
X156290956Y-145632460D01*
X155990774Y-145679901D01*
X155683188Y-145703944D01*
X155577279Y-145705733D01*
X155264263Y-145691848D01*
X154968919Y-145650194D01*
X154653022Y-145568587D01*
X154360205Y-145450709D01*
X154290607Y-145415572D01*
X154031130Y-145256112D01*
X153802244Y-145067893D01*
X153603949Y-144850913D01*
X153436246Y-144605175D01*
X153303530Y-144333973D01*
X153208734Y-144040607D01*
X153151856Y-143725076D01*
X153133192Y-143430804D01*
X153132896Y-143387380D01*
X153150213Y-143078002D01*
X153202162Y-142785512D01*
X153205599Y-142774819D01*
X154744899Y-142774819D01*
X156207425Y-142774819D01*
X156107494Y-142492206D01*
X156013985Y-142405523D01*
X155742944Y-142285611D01*
X155509868Y-142261909D01*
X155217143Y-142297812D01*
X154977907Y-142405523D01*
X154782350Y-142628699D01*
X154744899Y-142774819D01*
X153205599Y-142774819D01*
X153299307Y-142483277D01*
X153310217Y-142456814D01*
X153450448Y-142180334D01*
X153625313Y-141931213D01*
X153814334Y-141728482D01*
X154052687Y-141534192D01*
X154318399Y-141372456D01*
X154583699Y-141253674D01*
X154869177Y-141164802D01*
X155172400Y-141108846D01*
X155493370Y-141085805D01*
X155559693Y-141085147D01*
X155884758Y-141101839D01*
G37*
G36*
X159347900Y-147452558D02*
G01*
X159053778Y-147439935D01*
X158746118Y-147398397D01*
X158685513Y-147386612D01*
X158399126Y-147311994D01*
X158125590Y-147201169D01*
X158109588Y-147193172D01*
X158456902Y-145798057D01*
X158735714Y-145898575D01*
X158767579Y-145906500D01*
X159066561Y-145948625D01*
X159095841Y-145948999D01*
X159391901Y-145899965D01*
X159441689Y-145880122D01*
X159639488Y-145662609D01*
X159649784Y-145629529D01*
X159667369Y-145563583D01*
X157986490Y-141211176D01*
X159802191Y-141211176D01*
X160616986Y-143958908D01*
X161405401Y-141211176D01*
X163178605Y-141211176D01*
X161414194Y-145890380D01*
X161292836Y-146163688D01*
X161142952Y-146436126D01*
X160959827Y-146695329D01*
X160861717Y-146807757D01*
X160633282Y-147020827D01*
X160389262Y-147188529D01*
X160153901Y-147301616D01*
X159859894Y-147393596D01*
X159555995Y-147443124D01*
X159347900Y-147452558D01*
G37*
G36*
X136587256Y-141100223D02*
G01*
X136881939Y-141145454D01*
X137198111Y-141234068D01*
X137492302Y-141362066D01*
X137562415Y-141400220D01*
X137825556Y-141570946D01*
X138058106Y-141768050D01*
X138260064Y-141991532D01*
X138431431Y-142241392D01*
X138568634Y-142510304D01*
X138666637Y-142792404D01*
X138725438Y-143087694D01*
X138745039Y-143396172D01*
X138723913Y-143703161D01*
X138660534Y-144001492D01*
X138566253Y-144265188D01*
X138426336Y-144540410D01*
X138250401Y-144793812D01*
X138059205Y-145005244D01*
X137817971Y-145211137D01*
X137547646Y-145385513D01*
X137276651Y-145516689D01*
X136984962Y-145616380D01*
X136674096Y-145679149D01*
X136377920Y-145704071D01*
X136275743Y-145705733D01*
X135964161Y-145690656D01*
X135669267Y-145645426D01*
X135352683Y-145556811D01*
X135057897Y-145428813D01*
X134987607Y-145390660D01*
X134725015Y-145220025D01*
X134492648Y-145023196D01*
X134290507Y-144800172D01*
X134118591Y-144550953D01*
X133982028Y-144282041D01*
X133884484Y-143999941D01*
X133825957Y-143704651D01*
X133806448Y-143396172D01*
X135436036Y-143396172D01*
X135475300Y-143693507D01*
X135547411Y-143866584D01*
X135737955Y-144095035D01*
X135849295Y-144171399D01*
X136132718Y-144267931D01*
X136275743Y-144278378D01*
X136577364Y-144227814D01*
X136700726Y-144171399D01*
X136926595Y-143980730D01*
X137004076Y-143866584D01*
X137102290Y-143574736D01*
X137115450Y-143396172D01*
X137076703Y-143098131D01*
X137005541Y-142925761D01*
X136816949Y-142696680D01*
X136705122Y-142620946D01*
X136420314Y-142524414D01*
X136275743Y-142513967D01*
X135982423Y-142560039D01*
X135844899Y-142620946D01*
X135621045Y-142810986D01*
X135544480Y-142925761D01*
X135448851Y-143216947D01*
X135436036Y-143396172D01*
X133806448Y-143396172D01*
X133827401Y-143088522D01*
X133890260Y-142790223D01*
X133983769Y-142527156D01*
X134124520Y-142251935D01*
X134300943Y-141998533D01*
X134492282Y-141787101D01*
X134733516Y-141580374D01*
X135003841Y-141405509D01*
X135274836Y-141274191D01*
X135567785Y-141174499D01*
X135878765Y-141111731D01*
X136174064Y-141086808D01*
X136275743Y-141085147D01*
X136587256Y-141100223D01*
G37*
G36*
X139266741Y-145579704D02*
G01*
X139266741Y-144487938D01*
X140971068Y-142681029D01*
X139341480Y-142681029D01*
X139341480Y-141211176D01*
X143054948Y-141211176D01*
X143054948Y-142304407D01*
X141475185Y-144109850D01*
X143088653Y-144109850D01*
X143088653Y-145579704D01*
X139266741Y-145579704D01*
G37*
G36*
X147055829Y-141102641D02*
G01*
X147373527Y-141164142D01*
X147671287Y-141269926D01*
X147858716Y-141365049D01*
X148117694Y-141541389D01*
X148343983Y-141755519D01*
X148537582Y-142007439D01*
X148631012Y-142163723D01*
X148755393Y-142434741D01*
X148844236Y-142730489D01*
X148897542Y-143050966D01*
X148915033Y-143351669D01*
X148915311Y-143396172D01*
X148899569Y-143698452D01*
X148845888Y-144014099D01*
X148754110Y-144312083D01*
X148627527Y-144587761D01*
X148469428Y-144838503D01*
X148298353Y-145044812D01*
X148062392Y-145259547D01*
X147796343Y-145435539D01*
X147602261Y-145531343D01*
X147317862Y-145630630D01*
X147014762Y-145688703D01*
X146722987Y-145705733D01*
X146422935Y-145684484D01*
X146135339Y-145620736D01*
X145845898Y-145505928D01*
X145606309Y-145361350D01*
X145606309Y-147344114D01*
X143934222Y-147344114D01*
X143934222Y-143396172D01*
X145606309Y-143396172D01*
X145644539Y-143693507D01*
X145714752Y-143866584D01*
X145903974Y-144095035D01*
X146015171Y-144171399D01*
X146301302Y-144267931D01*
X146446016Y-144278378D01*
X146738705Y-144232306D01*
X146875394Y-144171399D01*
X147099878Y-143980730D01*
X147175813Y-143866584D01*
X147272735Y-143574736D01*
X147285722Y-143396172D01*
X147246459Y-143098131D01*
X147174348Y-142925761D01*
X146983804Y-142696680D01*
X146872464Y-142620946D01*
X146589041Y-142524414D01*
X146446016Y-142513967D01*
X146143702Y-142564531D01*
X146019568Y-142620946D01*
X145795021Y-142810986D01*
X145717683Y-142925761D01*
X145619469Y-143216947D01*
X145606309Y-143396172D01*
X143934222Y-143396172D01*
X143934222Y-141211176D01*
X145363043Y-141211176D01*
X145363043Y-141640555D01*
X145586880Y-141434189D01*
X145841947Y-141281744D01*
X145952157Y-141233158D01*
X146235654Y-141142963D01*
X146540995Y-141094397D01*
X146756692Y-141085147D01*
X147055829Y-141102641D01*
G37*
G36*
X149637781Y-145579704D02*
G01*
X149637781Y-141211176D01*
X151318660Y-141211176D01*
X151318660Y-141665468D01*
X151502715Y-141419331D01*
X151749883Y-141241458D01*
X151787607Y-141222900D01*
X152068665Y-141123724D01*
X152373286Y-141080086D01*
X152464648Y-141077819D01*
X152731361Y-141096870D01*
X152952645Y-141136438D01*
X152763601Y-142858350D01*
X152473807Y-142769392D01*
X152429477Y-142760164D01*
X152129862Y-142724422D01*
X152074836Y-142723528D01*
X151775150Y-142767858D01*
X151532617Y-142900848D01*
X151365672Y-143144769D01*
X151318660Y-143454791D01*
X151318660Y-145579704D01*
X149637781Y-145579704D01*
G37*
G36*
X155884758Y-141101839D02*
G01*
X156188958Y-141151917D01*
X156472292Y-141235379D01*
X156620684Y-141296172D01*
X156895142Y-141443462D01*
X157137830Y-141623382D01*
X157348747Y-141835930D01*
X157387118Y-141882355D01*
X157556905Y-142129708D01*
X157688911Y-142402822D01*
X157783135Y-142701695D01*
X157797446Y-142764560D01*
X157840955Y-143056138D01*
X157847833Y-143362089D01*
X157818080Y-143682415D01*
X157785722Y-143866584D01*
X154636455Y-143866584D01*
X154757144Y-144143653D01*
X154780070Y-144168468D01*
X155033448Y-144337375D01*
X155122987Y-144372167D01*
X155413903Y-144435136D01*
X155610984Y-144445440D01*
X155925901Y-144430203D01*
X156222921Y-144384492D01*
X156353971Y-144353116D01*
X156633056Y-144260205D01*
X156910690Y-144131500D01*
X157038339Y-144060025D01*
X157526337Y-145167910D01*
X157264667Y-145325355D01*
X157000237Y-145437554D01*
X156701467Y-145534727D01*
X156407964Y-145608382D01*
X156290956Y-145632460D01*
X155990774Y-145679901D01*
X155683188Y-145703944D01*
X155577279Y-145705733D01*
X155264263Y-145691848D01*
X154968919Y-145650194D01*
X154653022Y-145568587D01*
X154360205Y-145450709D01*
X154290607Y-145415572D01*
X154031130Y-145256112D01*
X153802244Y-145067893D01*
X153603949Y-144850913D01*
X153436246Y-144605175D01*
X153303530Y-144333973D01*
X153208734Y-144040607D01*
X153151856Y-143725076D01*
X153133192Y-143430804D01*
X153132896Y-143387380D01*
X153150213Y-143078002D01*
X153202162Y-142785512D01*
X153205599Y-142774819D01*
X154744899Y-142774819D01*
X156207425Y-142774819D01*
X156107494Y-142492206D01*
X156013985Y-142405523D01*
X155742944Y-142285611D01*
X155509868Y-142261909D01*
X155217143Y-142297812D01*
X154977907Y-142405523D01*
X154782350Y-142628699D01*
X154744899Y-142774819D01*
X153205599Y-142774819D01*
X153299307Y-142483277D01*
X153310217Y-142456814D01*
X153450448Y-142180334D01*
X153625313Y-141931213D01*
X153814334Y-141728482D01*
X154052687Y-141534192D01*
X154318399Y-141372456D01*
X154583699Y-141253674D01*
X154869177Y-141164802D01*
X155172400Y-141108846D01*
X155493370Y-141085805D01*
X155559693Y-141085147D01*
X155884758Y-141101839D01*
G37*
G36*
X159347900Y-147452558D02*
G01*
X159053778Y-147439935D01*
X158746118Y-147398397D01*
X158685513Y-147386612D01*
X158399126Y-147311994D01*
X158125590Y-147201169D01*
X158109588Y-147193172D01*
X158456902Y-145798057D01*
X158735714Y-145898575D01*
X158767579Y-145906500D01*
X159066561Y-145948625D01*
X159095841Y-145948999D01*
X159391901Y-145899965D01*
X159441689Y-145880122D01*
X159639488Y-145662609D01*
X159649784Y-145629529D01*
X159667369Y-145563583D01*
X157986490Y-141211176D01*
X159802191Y-141211176D01*
X160616986Y-143958908D01*
X161405401Y-141211176D01*
X163178605Y-141211176D01*
X161414194Y-145890380D01*
X161292836Y-146163688D01*
X161142952Y-146436126D01*
X160959827Y-146695329D01*
X160861717Y-146807757D01*
X160633282Y-147020827D01*
X160389262Y-147188529D01*
X160153901Y-147301616D01*
X159859894Y-147393596D01*
X159555995Y-147443124D01*
X159347900Y-147452558D01*
G37*
D11*
G36*
X148651284Y-146770736D02*
G01*
X148683868Y-146730516D01*
X148720435Y-146697784D01*
X148747027Y-146680122D01*
X148793290Y-146659406D01*
X148842778Y-146649251D01*
X148866706Y-146648126D01*
X148920512Y-146652029D01*
X148968175Y-146663737D01*
X149013927Y-146685900D01*
X149030105Y-146697463D01*
X149065892Y-146732259D01*
X149095096Y-146774972D01*
X149115751Y-146820185D01*
X149121451Y-146836682D01*
X149135383Y-146889479D01*
X149143939Y-146940400D01*
X149148893Y-146995076D01*
X149150272Y-147045998D01*
X149148636Y-147095337D01*
X149142759Y-147148777D01*
X149132607Y-147199072D01*
X149118182Y-147246222D01*
X149116078Y-147251895D01*
X149094274Y-147299656D01*
X149067332Y-147341273D01*
X149031368Y-147380309D01*
X149015206Y-147393800D01*
X148970503Y-147420977D01*
X148919741Y-147438088D01*
X148868876Y-147444882D01*
X148850830Y-147445335D01*
X148796053Y-147440742D01*
X148746699Y-147426962D01*
X148702768Y-147403997D01*
X148664259Y-147371845D01*
X148644689Y-147349348D01*
X148636141Y-147429704D01*
X148530628Y-147429704D01*
X148530628Y-146875028D01*
X148651284Y-146875028D01*
X148651284Y-147248231D01*
X148682196Y-147286406D01*
X148722740Y-147317898D01*
X148725534Y-147319550D01*
X148772123Y-147339150D01*
X148822010Y-147345684D01*
X148871857Y-147339849D01*
X148919132Y-147319680D01*
X148957867Y-147285105D01*
X148967823Y-147271923D01*
X148992499Y-147224211D01*
X149007653Y-147171355D01*
X149015679Y-147117042D01*
X149018670Y-147064497D01*
X149018869Y-147045754D01*
X149017305Y-146992502D01*
X149010349Y-146929648D01*
X148997830Y-146876105D01*
X148974356Y-146822272D01*
X148942188Y-146782988D01*
X148892111Y-146755052D01*
X148840816Y-146747777D01*
X148791918Y-146754308D01*
X148744848Y-146775946D01*
X148729442Y-146787345D01*
X148693330Y-146820904D01*
X148661113Y-146860200D01*
X148651284Y-146875028D01*
X148530628Y-146875028D01*
X148530628Y-146355768D01*
X148651284Y-146340625D01*
X148651284Y-146770736D01*
G37*
G36*
X150020265Y-146663758D02*
G01*
X149754529Y-147434588D01*
X149736530Y-147481867D01*
X149715813Y-147526618D01*
X149689883Y-147572924D01*
X149687362Y-147576982D01*
X149656602Y-147618854D01*
X149620069Y-147655473D01*
X149581849Y-147684205D01*
X149537857Y-147707618D01*
X149487091Y-147724734D01*
X149435609Y-147734754D01*
X149417230Y-147736961D01*
X149398423Y-147639752D01*
X149448399Y-147629069D01*
X149497341Y-147612275D01*
X149522010Y-147599697D01*
X149562432Y-147569105D01*
X149593329Y-147531064D01*
X149616663Y-147487991D01*
X149635924Y-147440721D01*
X149639735Y-147429704D01*
X149599435Y-147429704D01*
X149335408Y-146663758D01*
X149464613Y-146663758D01*
X149681256Y-147336891D01*
X149895213Y-146663758D01*
X150020265Y-146663758D01*
G37*
G36*
X151399260Y-146304232D02*
G01*
X151446718Y-146315892D01*
X151463252Y-146328901D01*
X151486275Y-146374154D01*
X151487432Y-146389229D01*
X151473831Y-146437955D01*
X151463252Y-146451267D01*
X151418281Y-146474622D01*
X151399260Y-146476179D01*
X151351555Y-146463309D01*
X151336734Y-146451267D01*
X151313836Y-146406937D01*
X151312310Y-146389229D01*
X151326048Y-146341922D01*
X151336734Y-146328901D01*
X151381064Y-146305774D01*
X151399260Y-146304232D01*
G37*
G36*
X151495492Y-146663758D02*
G01*
X151495492Y-147330052D01*
X151708716Y-147330052D01*
X151708716Y-147429704D01*
X151141340Y-147429704D01*
X151141340Y-147330052D01*
X151374836Y-147330052D01*
X151374836Y-146763409D01*
X151148667Y-146763409D01*
X151148667Y-146663758D01*
X151495492Y-146663758D01*
G37*
G36*
X152573580Y-147391113D02*
G01*
X152527821Y-147415122D01*
X152479546Y-147430925D01*
X152431621Y-147440776D01*
X152381103Y-147445208D01*
X152371103Y-147445335D01*
X152320446Y-147442273D01*
X152269079Y-147431274D01*
X152219611Y-147409340D01*
X152183036Y-147381343D01*
X152151158Y-147342293D01*
X152129712Y-147297409D01*
X152118700Y-147246690D01*
X152117090Y-147215991D01*
X152117090Y-146763409D01*
X151943189Y-146763409D01*
X151943189Y-146663758D01*
X152117090Y-146663758D01*
X152117090Y-146489857D01*
X152237746Y-146475447D01*
X152237746Y-146663758D01*
X152499086Y-146663758D01*
X152484675Y-146763409D01*
X152237746Y-146763409D01*
X152237746Y-147215747D01*
X152244104Y-147265515D01*
X152268919Y-147310361D01*
X152270963Y-147312467D01*
X152315415Y-147337380D01*
X152367718Y-147345392D01*
X152381849Y-147345684D01*
X152432396Y-147341772D01*
X152460251Y-147335670D01*
X152507194Y-147319130D01*
X152526929Y-147309780D01*
X152573580Y-147391113D01*
G37*
G36*
X153091130Y-147345684D02*
G01*
X153142259Y-147342488D01*
X153190016Y-147331589D01*
X153228883Y-147312955D01*
X153264998Y-147277174D01*
X153279148Y-147227768D01*
X153279197Y-147224295D01*
X153270813Y-147174535D01*
X153266497Y-147164700D01*
X153232974Y-147128979D01*
X153215206Y-147118294D01*
X153169850Y-147098938D01*
X153120351Y-147083608D01*
X153096260Y-147077261D01*
X153044783Y-147063077D01*
X152998154Y-147047393D01*
X152959972Y-147031832D01*
X152914445Y-147006233D01*
X152876560Y-146972269D01*
X152870335Y-146964665D01*
X152847369Y-146920319D01*
X152838620Y-146869148D01*
X152838339Y-146856954D01*
X152844637Y-146805775D01*
X152866409Y-146756478D01*
X152899301Y-146718922D01*
X152917962Y-146704302D01*
X152960888Y-146679725D01*
X153009798Y-146662170D01*
X153064691Y-146651637D01*
X153117632Y-146648181D01*
X153125569Y-146648126D01*
X153175077Y-146650097D01*
X153225691Y-146656909D01*
X153276021Y-146670022D01*
X153284571Y-146673039D01*
X153332610Y-146693166D01*
X153378142Y-146718226D01*
X153399853Y-146733123D01*
X153346853Y-146823981D01*
X153304918Y-146795416D01*
X153258797Y-146772003D01*
X153252331Y-146769271D01*
X153202743Y-146754578D01*
X153153764Y-146748533D01*
X153127034Y-146747777D01*
X153076502Y-146750520D01*
X153025857Y-146762288D01*
X153000761Y-146775865D01*
X152969559Y-146814699D01*
X152963391Y-146847917D01*
X152975484Y-146895346D01*
X152981710Y-146904093D01*
X153021164Y-146933421D01*
X153043747Y-146943660D01*
X153092033Y-146960723D01*
X153141172Y-146975532D01*
X153164403Y-146982006D01*
X153213060Y-146996809D01*
X153261071Y-147014933D01*
X153293608Y-147029878D01*
X153337185Y-147057300D01*
X153373396Y-147093944D01*
X153379337Y-147102174D01*
X153401251Y-147149697D01*
X153409390Y-147200348D01*
X153409867Y-147217701D01*
X153404442Y-147269842D01*
X153386146Y-147318494D01*
X153363950Y-147349348D01*
X153325699Y-147383236D01*
X153279823Y-147409431D01*
X153245003Y-147422620D01*
X153193983Y-147435553D01*
X153141000Y-147443117D01*
X153091130Y-147445335D01*
X153041732Y-147443473D01*
X152990685Y-147436925D01*
X152939584Y-147424122D01*
X152916253Y-147415537D01*
X152869459Y-147393580D01*
X152824665Y-147366268D01*
X152795352Y-147343486D01*
X152864229Y-147264107D01*
X152905816Y-147293332D01*
X152952359Y-147317321D01*
X152966567Y-147323214D01*
X153015050Y-147337762D01*
X153066435Y-147344894D01*
X153091130Y-147345684D01*
G37*
G36*
X154267893Y-146355768D02*
G01*
X154267893Y-147429704D01*
X154162135Y-147429704D01*
X154150656Y-147326877D01*
X154120106Y-147365157D01*
X154083355Y-147398096D01*
X154053447Y-147416759D01*
X154007587Y-147435261D01*
X153959309Y-147444330D01*
X153936211Y-147445335D01*
X153883568Y-147441374D01*
X153831466Y-147427683D01*
X153786090Y-147404213D01*
X153773789Y-147395265D01*
X153737143Y-147360108D01*
X153706890Y-147317222D01*
X153685127Y-147272018D01*
X153679023Y-147255558D01*
X153664147Y-147202858D01*
X153655010Y-147152185D01*
X153649721Y-147097910D01*
X153648255Y-147047708D01*
X153779651Y-147047708D01*
X153781246Y-147100959D01*
X153788335Y-147163814D01*
X153801095Y-147217356D01*
X153825019Y-147271190D01*
X153857805Y-147310474D01*
X153908844Y-147338409D01*
X153961123Y-147345684D01*
X154010134Y-147339718D01*
X154056242Y-147319950D01*
X154071033Y-147309536D01*
X154108219Y-147275943D01*
X154141421Y-147235593D01*
X154147237Y-147226982D01*
X154147237Y-146850604D01*
X154115366Y-146809638D01*
X154075218Y-146776589D01*
X154072498Y-146774888D01*
X154026581Y-146754555D01*
X153976267Y-146747777D01*
X153926419Y-146753670D01*
X153879144Y-146774040D01*
X153840409Y-146808959D01*
X153830454Y-146822272D01*
X153805896Y-146870222D01*
X153790814Y-146922997D01*
X153782826Y-146977015D01*
X153779849Y-147029139D01*
X153779651Y-147047708D01*
X153648255Y-147047708D01*
X153648248Y-147047463D01*
X153649931Y-146998410D01*
X153655976Y-146945211D01*
X153666418Y-146895064D01*
X153681256Y-146847971D01*
X153683419Y-146842299D01*
X153705676Y-146794519D01*
X153732879Y-146752844D01*
X153768904Y-146713698D01*
X153785024Y-146700150D01*
X153829169Y-146672716D01*
X153878562Y-146655442D01*
X153927501Y-146648584D01*
X153944759Y-146648126D01*
X153997358Y-146652509D01*
X154045304Y-146665657D01*
X154094405Y-146691417D01*
X154132384Y-146723349D01*
X154147237Y-146739717D01*
X154147237Y-146340625D01*
X154267893Y-146355768D01*
G37*
G36*
X155053866Y-146648126D02*
G01*
X155102195Y-146655746D01*
X155123475Y-146664246D01*
X155160837Y-146695826D01*
X155178674Y-146726040D01*
X155193367Y-146774092D01*
X155199139Y-146823194D01*
X155200167Y-146859641D01*
X155200167Y-147429704D01*
X155088304Y-147429704D01*
X155088304Y-146882844D01*
X155086853Y-146831269D01*
X155080052Y-146781552D01*
X155079511Y-146779529D01*
X155039868Y-146748274D01*
X155030174Y-146747777D01*
X154981597Y-146759512D01*
X154962519Y-146770492D01*
X154925528Y-146804968D01*
X154898039Y-146844498D01*
X154898039Y-147429704D01*
X154785199Y-147429704D01*
X154785199Y-146882844D01*
X154783788Y-146831269D01*
X154777176Y-146781552D01*
X154776650Y-146779529D01*
X154736820Y-146748274D01*
X154727069Y-146747777D01*
X154677646Y-146759512D01*
X154658925Y-146770492D01*
X154622526Y-146804968D01*
X154595178Y-146844498D01*
X154595178Y-147429704D01*
X154483803Y-147429704D01*
X154483803Y-146663758D01*
X154578569Y-146663758D01*
X154585652Y-146763409D01*
X154614196Y-146723658D01*
X154647892Y-146687709D01*
X154655017Y-146681343D01*
X154697943Y-146656431D01*
X154746504Y-146648159D01*
X154750028Y-146648126D01*
X154799470Y-146656220D01*
X154831117Y-146671085D01*
X154865947Y-146707680D01*
X154886143Y-146756139D01*
X154887292Y-146760234D01*
X154915763Y-146720069D01*
X154952079Y-146683097D01*
X154956902Y-146679145D01*
X155000560Y-146655881D01*
X155050252Y-146648157D01*
X155053866Y-146648126D01*
G37*
G36*
X155989316Y-146355768D02*
G01*
X155989316Y-147429704D01*
X155883559Y-147429704D01*
X155872080Y-147326877D01*
X155841529Y-147365157D01*
X155804778Y-147398096D01*
X155774871Y-147416759D01*
X155729011Y-147435261D01*
X155680732Y-147444330D01*
X155657634Y-147445335D01*
X155604992Y-147441374D01*
X155552890Y-147427683D01*
X155507514Y-147404213D01*
X155495213Y-147395265D01*
X155458567Y-147360108D01*
X155428313Y-147317222D01*
X155406550Y-147272018D01*
X155400447Y-147255558D01*
X155385570Y-147202858D01*
X155376434Y-147152185D01*
X155371145Y-147097910D01*
X155369679Y-147047708D01*
X155501075Y-147047708D01*
X155502670Y-147100959D01*
X155509758Y-147163814D01*
X155522518Y-147217356D01*
X155546443Y-147271190D01*
X155579228Y-147310474D01*
X155630267Y-147338409D01*
X155682547Y-147345684D01*
X155731557Y-147339718D01*
X155777666Y-147319950D01*
X155792456Y-147309536D01*
X155829642Y-147275943D01*
X155862844Y-147235593D01*
X155868660Y-147226982D01*
X155868660Y-146850604D01*
X155836789Y-146809638D01*
X155796642Y-146776589D01*
X155793922Y-146774888D01*
X155748004Y-146754555D01*
X155697690Y-146747777D01*
X155647842Y-146753670D01*
X155600568Y-146774040D01*
X155561833Y-146808959D01*
X155551877Y-146822272D01*
X155527319Y-146870222D01*
X155512237Y-146922997D01*
X155504250Y-146977015D01*
X155501273Y-147029139D01*
X155501075Y-147047708D01*
X155369679Y-147047708D01*
X155369672Y-147047463D01*
X155371355Y-146998410D01*
X155377400Y-146945211D01*
X155387841Y-146895064D01*
X155402679Y-146847971D01*
X155404843Y-146842299D01*
X155427100Y-146794519D01*
X155454302Y-146752844D01*
X155490328Y-146713698D01*
X155506448Y-146700150D01*
X155550593Y-146672716D01*
X155599985Y-146655442D01*
X155648925Y-146648584D01*
X155666183Y-146648126D01*
X155718781Y-146652509D01*
X155766728Y-146665657D01*
X155815828Y-146691417D01*
X155853807Y-146723349D01*
X155868660Y-146739717D01*
X155868660Y-146340625D01*
X155989316Y-146355768D01*
G37*
%LPC*%
D12*
G04 #@! TO.C,SW42*
X260493108Y-95596770D03*
D13*
X264801845Y-87014239D03*
X269014055Y-99978090D03*
D12*
X273316920Y-91377488D03*
G04 #@! TD*
G04 #@! TO.C,SW41*
X255239808Y-79428770D03*
D13*
X259548545Y-70846239D03*
X263760755Y-83810090D03*
D12*
X268063620Y-75209488D03*
G04 #@! TD*
G04 #@! TO.C,SW40*
X249986508Y-63260770D03*
D13*
X254295245Y-54678239D03*
X258507455Y-67642090D03*
D12*
X262810320Y-59041488D03*
G04 #@! TD*
G04 #@! TO.C,SW39*
X242076208Y-97164570D03*
D13*
X246384945Y-88582039D03*
X250597155Y-101545890D03*
D12*
X254900020Y-92945288D03*
G04 #@! TD*
G04 #@! TO.C,SW38*
X236822908Y-80996670D03*
D13*
X241131645Y-72414139D03*
X245343855Y-85377990D03*
D12*
X249646720Y-76777388D03*
G04 #@! TD*
G04 #@! TO.C,SW37*
X231569608Y-64828670D03*
D13*
X235878345Y-56246139D03*
X240090555Y-69209990D03*
D12*
X244393420Y-60609388D03*
G04 #@! TD*
G04 #@! TO.C,SW36*
X223659308Y-98732470D03*
D13*
X227968045Y-90149939D03*
X232180255Y-103113790D03*
D12*
X236483120Y-94513188D03*
G04 #@! TD*
G04 #@! TO.C,SW35*
X218406008Y-82564470D03*
D13*
X222714745Y-73981939D03*
X226926955Y-86945790D03*
D12*
X231229820Y-78345188D03*
G04 #@! TD*
G04 #@! TO.C,SW34*
X213152808Y-66396570D03*
D13*
X217461545Y-57814039D03*
X221673755Y-70777890D03*
D12*
X225976620Y-62177288D03*
G04 #@! TD*
G04 #@! TO.C,SW33*
X210495708Y-116468270D03*
D13*
X214804445Y-107885739D03*
X219016655Y-120849590D03*
D12*
X223319520Y-112248988D03*
G04 #@! TD*
G04 #@! TO.C,SW32*
X205242408Y-100300370D03*
D13*
X209551145Y-91717839D03*
X213763355Y-104681690D03*
D12*
X218066220Y-96081088D03*
G04 #@! TD*
G04 #@! TO.C,SW31*
X199989208Y-84132370D03*
D13*
X204297945Y-75549839D03*
X208510155Y-88513690D03*
D12*
X212813020Y-79913088D03*
G04 #@! TD*
G04 #@! TO.C,SW30*
X194735908Y-67964470D03*
D13*
X199044645Y-59381939D03*
X203256855Y-72345790D03*
D12*
X207559720Y-63745188D03*
G04 #@! TD*
G04 #@! TO.C,SW29*
X194674608Y-126025070D03*
D13*
X198983345Y-117442539D03*
X203195555Y-130406390D03*
D12*
X207498420Y-121805788D03*
G04 #@! TD*
G04 #@! TO.C,SW28*
X189421308Y-109857070D03*
D13*
X193730045Y-101274539D03*
X197942255Y-114238390D03*
D12*
X202245120Y-105637788D03*
G04 #@! TD*
G04 #@! TO.C,SW27*
X184168008Y-93689170D03*
D13*
X188476745Y-85106639D03*
X192688955Y-98070490D03*
D12*
X196991820Y-89469888D03*
G04 #@! TD*
G04 #@! TO.C,SW26*
X178914708Y-77521170D03*
D13*
X183223445Y-68938639D03*
X187435655Y-81902490D03*
D12*
X191738520Y-73301888D03*
G04 #@! TD*
G04 #@! TO.C,SW25*
X174573708Y-136972370D03*
D13*
X178882445Y-128389839D03*
X183094655Y-141353690D03*
D12*
X187397520Y-132753088D03*
G04 #@! TD*
G04 #@! TO.C,SW24*
X173600208Y-119413870D03*
D13*
X177908945Y-110831339D03*
X182121155Y-123795190D03*
D12*
X186424020Y-115194588D03*
G04 #@! TD*
G04 #@! TO.C,SW23*
X168346908Y-103245870D03*
D13*
X172655645Y-94663339D03*
X176867855Y-107627190D03*
D12*
X181170720Y-99026588D03*
G04 #@! TD*
G04 #@! TO.C,SW22*
X163093608Y-87077870D03*
D13*
X167402345Y-78495339D03*
X171614555Y-91459190D03*
D12*
X175917420Y-82858588D03*
G04 #@! TD*
D14*
G04 #@! TO.C,SW21*
X108178105Y-132800641D03*
D15*
X116708631Y-128389839D03*
X112496421Y-141353690D03*
D14*
X121032819Y-136924818D03*
G04 #@! TD*
G04 #@! TO.C,SW20*
X109151605Y-115242141D03*
D15*
X117682131Y-110831339D03*
X113469921Y-123795190D03*
D14*
X122006319Y-119366318D03*
G04 #@! TD*
G04 #@! TO.C,SW19*
X114404905Y-99074141D03*
D15*
X122935431Y-94663339D03*
X118723221Y-107627190D03*
D14*
X127259619Y-103198318D03*
G04 #@! TD*
G04 #@! TO.C,SW18*
X119658205Y-82906141D03*
D15*
X128188731Y-78495339D03*
X123976521Y-91459190D03*
D14*
X132512919Y-87030318D03*
G04 #@! TD*
G04 #@! TO.C,SW17*
X88077205Y-121853341D03*
D15*
X96607731Y-117442539D03*
X92395521Y-130406390D03*
D14*
X100931919Y-125977518D03*
G04 #@! TD*
G04 #@! TO.C,SW16*
X93330405Y-105685341D03*
D15*
X101860931Y-101274539D03*
X97648721Y-114238390D03*
D14*
X106185119Y-109809518D03*
G04 #@! TD*
G04 #@! TO.C,SW15*
X98583705Y-89517441D03*
D15*
X107114231Y-85106639D03*
X102902021Y-98070490D03*
D14*
X111438419Y-93641618D03*
G04 #@! TD*
G04 #@! TO.C,SW14*
X103837005Y-73349441D03*
D15*
X112367531Y-68938639D03*
X108155321Y-81902490D03*
D14*
X116691719Y-77473618D03*
G04 #@! TD*
G04 #@! TO.C,SW13*
X72256005Y-112296541D03*
D15*
X80786531Y-107885739D03*
X76574321Y-120849590D03*
D14*
X85110719Y-116420718D03*
G04 #@! TD*
G04 #@! TO.C,SW12*
X77509305Y-96128641D03*
D15*
X86039831Y-91717839D03*
X81827621Y-104681690D03*
D14*
X90364019Y-100252818D03*
G04 #@! TD*
G04 #@! TO.C,SW11*
X82762605Y-79960641D03*
D15*
X91293131Y-75549839D03*
X87080921Y-88513690D03*
D14*
X95617319Y-84084818D03*
G04 #@! TD*
G04 #@! TO.C,SW10*
X88015905Y-63792741D03*
D15*
X96546431Y-59381939D03*
X92334221Y-72345790D03*
D14*
X100870619Y-67916918D03*
G04 #@! TD*
G04 #@! TO.C,SW9*
X59092405Y-94560741D03*
D15*
X67622931Y-90149939D03*
X63410721Y-103113790D03*
D14*
X71947119Y-98684918D03*
G04 #@! TD*
G04 #@! TO.C,SW8*
X64345705Y-78392741D03*
D15*
X72876231Y-73981939D03*
X68664021Y-86945790D03*
D14*
X77200419Y-82516918D03*
G04 #@! TD*
G04 #@! TO.C,SW7*
X69599005Y-62224841D03*
D15*
X78129531Y-57814039D03*
X73917321Y-70777890D03*
D14*
X82453719Y-66349018D03*
G04 #@! TD*
G04 #@! TO.C,SW6*
X40675505Y-92992841D03*
D15*
X49206031Y-88582039D03*
X44993821Y-101545890D03*
D14*
X53530219Y-97117018D03*
G04 #@! TD*
G04 #@! TO.C,SW5*
X45928805Y-76824941D03*
D15*
X54459331Y-72414139D03*
X50247121Y-85377990D03*
D14*
X58783519Y-80949118D03*
G04 #@! TD*
G04 #@! TO.C,SW4*
X51182105Y-60656941D03*
D15*
X59712631Y-56246139D03*
X55500421Y-69209990D03*
D14*
X64036819Y-64781118D03*
G04 #@! TD*
G04 #@! TO.C,SW3*
X22258605Y-91425041D03*
D15*
X30789131Y-87014239D03*
X26576921Y-99978090D03*
D14*
X35113319Y-95549218D03*
G04 #@! TD*
G04 #@! TO.C,SW2*
X27511905Y-75257041D03*
D15*
X36042431Y-70846239D03*
X31830221Y-83810090D03*
D14*
X40366619Y-79381218D03*
G04 #@! TD*
G04 #@! TO.C,SW1*
X32765205Y-59089041D03*
D15*
X41295731Y-54678239D03*
X37083521Y-67642090D03*
D14*
X45619919Y-63213218D03*
G04 #@! TD*
D16*
G04 #@! TO.C,H_M2_4*
X210100738Y-55377800D03*
G04 #@! TD*
G04 #@! TO.C,H_M2_3*
X148250707Y-89277832D03*
G04 #@! TD*
G04 #@! TO.C,H_M2_5*
X239600738Y-109877800D03*
G04 #@! TD*
G04 #@! TO.C,H_M2_1*
X85600738Y-55377800D03*
G04 #@! TD*
G04 #@! TO.C,H_M2_2*
X56279438Y-109877800D03*
G04 #@! TD*
G04 #@! TO.C,H_M2_6*
X148279438Y-137724100D03*
G04 #@! TD*
%LPD*%
M02*
