G04 #@! TF.GenerationSoftware,KiCad,Pcbnew,8.0.4*
G04 #@! TF.CreationDate,2024-09-01T14:28:52+07:00*
G04 #@! TF.ProjectId,ozprey,6f7a7072-6579-42e6-9b69-6361645f7063,1.0*
G04 #@! TF.SameCoordinates,Original*
G04 #@! TF.FileFunction,Profile,NP*
%FSLAX46Y46*%
G04 Gerber Fmt 4.6, Leading zero omitted, Abs format (unit mm)*
G04 Created by KiCad (PCBNEW 8.0.4) date 2024-09-01 14:28:52*
%MOMM*%
%LPD*%
G01*
G04 APERTURE LIST*
G04 #@! TA.AperFunction,Profile*
%ADD10C,0.100000*%
G04 #@! TD*
G04 APERTURE END LIST*
D10*
X166015469Y-62877832D02*
X172071403Y-52820847D01*
X123512727Y-52820847D02*
X129715469Y-62877832D01*
X101350605Y-139551958D02*
G75*
G02*
X77725808Y-127330711I122671895J266081158D01*
G01*
X31756231Y-50219667D02*
X16160088Y-98223383D01*
X31756231Y-50219667D02*
G75*
G02*
X33828009Y-48844869I1902059J-617893D01*
G01*
X217865102Y-127330712D02*
G75*
G02*
X194240306Y-139551953I-146298802J253864112D01*
G01*
X17444198Y-100743495D02*
X19303267Y-101347523D01*
X279430818Y-98223388D02*
X263834678Y-50219669D01*
X19303267Y-101347523D02*
G75*
G02*
X77725806Y-127330715I-94865470J-291974954D01*
G01*
X217865102Y-127330712D02*
G75*
G02*
X276287640Y-101347529I153287798J-265991388D01*
G01*
X123512727Y-52820847D02*
X33828009Y-48844864D01*
X140287759Y-148095469D02*
G75*
G02*
X101350604Y-139551960I-9J93000009D01*
G01*
X194240307Y-139551954D02*
G75*
G02*
X155303148Y-148095460I-38937107J84456354D01*
G01*
X261762898Y-48844866D02*
G75*
G02*
X263834656Y-50219676I169602J-1992834D01*
G01*
X261762898Y-48844866D02*
X172071403Y-52820847D01*
X276287638Y-101347523D02*
X278146709Y-100743492D01*
X17444198Y-100743495D02*
G75*
G02*
X16160049Y-98223370I618102J1902195D01*
G01*
X140287759Y-148095469D02*
X155303148Y-148095472D01*
X279430818Y-98223388D02*
G75*
G02*
X278146697Y-100743455I-1902018J-618012D01*
G01*
X157215469Y-85877832D02*
G75*
G02*
X156215469Y-86877832I-999999J-1D01*
G01*
X156215469Y-86877832D02*
X139472576Y-86870725D01*
X138472576Y-85870725D02*
X138472575Y-63870726D01*
X137472575Y-62870726D02*
G75*
G02*
X138472575Y-63870726I0J-1000000D01*
G01*
X139472576Y-86870725D02*
G75*
G02*
X138472576Y-85870725I-1J999999D01*
G01*
X157215469Y-63877832D02*
X157215469Y-85877832D01*
X137472575Y-62870726D02*
X129715469Y-62877832D01*
X157215469Y-63877832D02*
G75*
G02*
X158215469Y-62877832I999999J1D01*
G01*
X158215469Y-62877832D02*
X166015469Y-62877832D01*
M02*
