M48
; DRILL file {KiCad 8.0.4} date 2024-09-01T14:28:53+0700
; FORMAT={-:-/ absolute / metric / decimal}
; #@! TF.CreationDate,2024-09-01T14:28:53+07:00
; #@! TF.GenerationSoftware,Kicad,Pcbnew,8.0.4
; #@! TF.FileFunction,NonPlated,1,2,NPTH
FMAT,2
METRIC
; #@! TA.AperFunction,NonPlated,NPTH,ComponentDrill
T1C0.508
; #@! TA.AperFunction,NonPlated,NPTH,ComponentDrill
T2C2.200
%
G90
G05
T2
X56.279Y-109.878
X85.601Y-55.378
X148.251Y-89.278
X148.279Y-137.724
X210.101Y-55.378
X239.601Y-109.878
T1
G00X20.174Y-97.841
M15
G01X24.343Y-85.009
M16
G05
G00X20.161Y-97.893
M15
G01X32.993Y-102.063
M16
G05
G00X25.427Y-81.673
M15
G01X29.597Y-68.841
M16
G05
G00X24.373Y-84.93
M15
G01X37.205Y-89.099
M16
G05
G00X25.414Y-81.725
M15
G01X38.246Y-85.895
M16
G05
G00X30.681Y-65.505
M15
G01X34.85Y-52.673
M16
G05
G00X33.029Y-101.965
M15
G01X37.198Y-89.133
M16
G05
G00X29.627Y-68.762
M15
G01X42.458Y-72.931
M16
G05
G00X30.668Y-65.557
M15
G01X43.499Y-69.727
M16
G05
G00X38.282Y-85.797
M15
G01X42.451Y-72.965
M16
G05
G00X38.591Y-99.409
M15
G01X42.76Y-86.577
M16
G05
G00X34.88Y-52.594
M15
G01X47.712Y-56.763
M16
G05
G00X38.578Y-99.461
M15
G01X51.41Y-103.631
M16
G05
G00X43.535Y-69.629
M15
G01X47.705Y-56.797
M16
G05
G00X43.844Y-83.241
M15
G01X48.013Y-70.409
M16
G05
G00X42.79Y-86.497
M15
G01X55.622Y-90.667
M16
G05
G00X43.831Y-83.293
M15
G01X56.663Y-87.463
M16
G05
G00X49.097Y-67.073
M15
G01X53.267Y-54.241
M16
G05
G00X51.446Y-103.533
M15
G01X55.615Y-90.701
M16
G05
G00X48.044Y-70.33
M15
G01X60.875Y-74.499
M16
G05
G00X49.085Y-67.125
M15
G01X61.916Y-71.295
M16
G05
G00X56.699Y-87.365
M15
G01X60.868Y-74.533
M16
G05
G00X57.008Y-100.977
M15
G01X61.177Y-88.145
M16
G05
G00X53.297Y-54.162
M15
G01X66.128Y-58.331
M16
G05
G00X56.995Y-101.029
M15
G01X69.827Y-105.198
M16
G05
G00X61.952Y-71.197
M15
G01X66.121Y-58.365
M16
G05
G00X62.261Y-84.809
M15
G01X66.43Y-71.977
M16
G05
G00X61.207Y-88.065
M15
G01X74.039Y-92.235
M16
G05
G00X62.248Y-84.861
M15
G01X75.08Y-89.03
M16
G05
G00X67.514Y-68.641
M15
G01X71.684Y-55.809
M16
G05
G00X69.862Y-105.101
M15
G01X74.032Y-92.269
M16
G05
G00X70.171Y-118.712
M15
G01X74.341Y-105.881
M16
G05
G00X66.46Y-71.897
M15
G01X79.292Y-76.067
M16
G05
G00X67.501Y-68.693
M15
G01X80.333Y-72.863
M16
G05
G00X70.158Y-118.765
M15
G01X82.99Y-122.934
M16
G05
G00X75.116Y-88.933
M15
G01X79.285Y-76.101
M16
G05
G00X75.425Y-102.544
M15
G01X79.594Y-89.713
M16
G05
G00X71.714Y-55.729
M15
G01X84.545Y-59.899
M16
G05
G00X74.371Y-105.801
M15
G01X87.202Y-109.97
M16
G05
G00X75.412Y-102.597
M15
G01X88.243Y-106.766
M16
G05
G00X80.369Y-72.765
M15
G01X84.538Y-59.933
M16
G05
G00X80.678Y-86.376
M15
G01X84.847Y-73.545
M16
G05
G00X83.026Y-122.837
M15
G01X87.195Y-110.005
M16
G05
G00X79.624Y-89.633
M15
G01X92.456Y-93.802
M16
G05
G00X80.665Y-86.429
M15
G01X93.497Y-90.598
M16
G05
G00X85.931Y-70.209
M15
G01X90.101Y-57.377
M16
G05
G00X85.993Y-128.269
M15
G01X90.162Y-115.438
M16
G05
G00X88.279Y-106.669
M15
G01X92.449Y-93.837
M16
G05
G00X84.877Y-73.465
M15
G01X97.709Y-77.634
M16
G05
G00X85.918Y-70.261
M15
G01X98.75Y-74.43
M16
G05
G00X85.98Y-128.322
M15
G01X98.811Y-132.491
M16
G05
G00X91.246Y-112.101
M15
G01X95.415Y-99.27
M16
G05
G00X93.533Y-90.501
M15
G01X97.702Y-77.669
M16
G05
G00X90.131Y-57.297
M15
G01X102.962Y-61.467
M16
G05
G00X90.192Y-115.358
M15
G01X103.024Y-119.527
M16
G05
G00X91.233Y-112.154
M15
G01X104.065Y-116.323
M16
G05
G00X96.499Y-95.933
M15
G01X100.668Y-83.102
M16
G05
G00X98.786Y-74.333
M15
G01X102.955Y-61.501
M16
G05
G00X98.847Y-132.393
M15
G01X103.017Y-119.562
M16
G05
G00X95.445Y-99.19
M15
G01X108.277Y-103.359
M16
G05
G00X96.486Y-95.986
M15
G01X109.318Y-100.155
M16
G05
G00X101.752Y-79.765
M15
G01X105.922Y-66.934
M16
G05
G00X104.1Y-116.225
M15
G01X108.27Y-103.394
M16
G05
G00X100.698Y-83.022
M15
G01X113.53Y-87.191
M16
G05
G00X101.739Y-79.818
M15
G01X114.571Y-83.987
M16
G05
G00X106.093Y-139.216
M15
G01X110.263Y-126.385
M16
G05
G00X107.067Y-121.658
M15
G01X111.236Y-108.826
M16
G05
G00X109.354Y-100.057
M15
G01X113.523Y-87.226
M16
G05
G00X105.952Y-66.854
M15
G01X118.783Y-71.023
M16
G05
G00X106.081Y-139.269
M15
G01X118.912Y-143.438
M16
G05
G00X107.054Y-121.711
M15
G01X119.886Y-125.88
M16
G05
G00X112.32Y-105.49
M15
G01X116.49Y-92.658
M16
G05
G00X114.607Y-83.889
M15
G01X118.776Y-71.058
M16
G05
G00X110.293Y-126.305
M15
G01X123.124Y-130.474
M16
G05
G00X111.266Y-108.747
M15
G01X124.098Y-112.916
M16
G05
G00X112.307Y-105.543
M15
G01X125.139Y-109.712
M16
G05
G00X117.574Y-89.322
M15
G01X121.743Y-76.49
M16
G05
G00X118.948Y-143.341
M15
G01X123.117Y-130.509
M16
G05
G00X119.922Y-125.782
M15
G01X124.091Y-112.95
M16
G05
G00X116.52Y-92.579
M15
G01X129.351Y-96.748
M16
G05
G00X117.561Y-89.375
M15
G01X130.392Y-93.544
M16
G05
G00X125.175Y-109.614
M15
G01X129.344Y-96.782
M16
G05
G00X121.773Y-76.411
M15
G01X134.605Y-80.58
M16
G05
G00X130.428Y-93.446
M15
G01X134.598Y-80.614
M16
G05
G00X165.178Y-93.494
M15
G01X161.009Y-80.662
M16
G05
G00X160.987Y-80.58
M15
G01X173.818Y-76.411
M16
G05
G00X170.432Y-109.662
M15
G01X166.262Y-96.83
M16
G05
G00X165.199Y-93.544
M15
G01X178.03Y-89.375
M16
G05
G00X166.24Y-96.748
M15
G01X179.071Y-92.579
M16
G05
G00X175.685Y-125.83
M15
G01X171.516Y-112.998
M16
G05
G00X176.658Y-143.388
M15
G01X172.489Y-130.557
M16
G05
G00X178.002Y-89.274
M15
G01X173.833Y-76.443
M16
G05
G00X170.452Y-109.712
M15
G01X183.284Y-105.543
M16
G05
G00X171.493Y-112.916
M15
G01X184.325Y-108.747
M16
G05
G00X172.467Y-130.474
M15
G01X185.298Y-126.305
M16
G05
G00X180.999Y-83.937
M15
G01X176.83Y-71.105
M16
G05
G00X183.255Y-105.442
M15
G01X179.086Y-92.611
M16
G05
G00X175.705Y-125.88
M15
G01X188.537Y-121.711
M16
G05
G00X176.679Y-143.438
M15
G01X189.51Y-139.269
M16
G05
G00X176.808Y-71.023
M15
G01X189.639Y-66.854
M16
G05
G00X186.253Y-100.105
M15
G01X182.083Y-87.273
M16
G05
G00X188.509Y-121.61
M15
G01X184.339Y-108.779
M16
G05
G00X189.482Y-139.169
M15
G01X185.313Y-126.337
M16
G05
G00X181.02Y-83.987
M15
G01X193.851Y-79.818
M16
G05
G00X182.061Y-87.191
M15
G01X194.893Y-83.022
M16
G05
G00X191.506Y-116.273
M15
G01X187.337Y-103.441
M16
G05
G00X193.823Y-79.718
M15
G01X189.654Y-66.886
M16
G05
G00X186.273Y-100.155
M15
G01X199.105Y-95.986
M16
G05
G00X187.314Y-103.359
M15
G01X200.146Y-99.19
M16
G05
G00X196.759Y-132.441
M15
G01X192.59Y-119.609
M16
G05
G00X196.821Y-74.38
M15
G01X192.651Y-61.549
M16
G05
G00X199.076Y-95.886
M15
G01X194.907Y-83.054
M16
G05
G00X191.526Y-116.323
M15
G01X204.358Y-112.154
M16
G05
G00X192.568Y-119.527
M15
G01X205.399Y-115.358
M16
G05
G00X192.629Y-61.467
M15
G01X205.46Y-57.297
M16
G05
G00X202.074Y-90.548
M15
G01X197.905Y-77.717
M16
G05
G00X204.33Y-112.054
M15
G01X200.16Y-99.222
M16
G05
G00X196.78Y-132.491
M15
G01X209.611Y-128.322
M16
G05
G00X196.841Y-74.43
M15
G01X209.673Y-70.261
M16
G05
G00X197.882Y-77.634
M15
G01X210.714Y-73.465
M16
G05
G00X207.327Y-106.716
M15
G01X203.158Y-93.885
M16
G05
G00X209.583Y-128.222
M15
G01X205.414Y-115.39
M16
G05
G00X209.644Y-70.161
M15
G01X205.475Y-57.329
M16
G05
G00X202.094Y-90.598
M15
G01X214.926Y-86.429
M16
G05
G00X203.135Y-93.802
M15
G01X215.967Y-89.633
M16
G05
G00X212.58Y-122.884
M15
G01X208.411Y-110.052
M16
G05
G00X214.898Y-86.329
M15
G01X210.728Y-73.497
M16
G05
G00X215.237Y-72.812
M15
G01X211.068Y-59.981
M16
G05
G00X207.348Y-106.766
M15
G01X220.179Y-102.597
M16
G05
G00X208.389Y-109.97
M15
G01X221.22Y-105.801
M16
G05
G00X211.046Y-59.899
M15
G01X223.877Y-55.729
M16
G05
G00X220.151Y-102.497
M15
G01X215.982Y-89.665
M16
G05
G00X220.491Y-88.98
M15
G01X216.321Y-76.149
M16
G05
G00X212.601Y-122.934
M15
G01X225.432Y-118.765
M16
G05
G00X215.258Y-72.863
M15
G01X228.09Y-68.693
M16
G05
G00X216.299Y-76.067
M15
G01X229.131Y-71.897
M16
G05
G00X225.404Y-118.665
M15
G01X221.235Y-105.833
M16
G05
G00X225.744Y-105.148
M15
G01X221.575Y-92.317
M16
G05
G00X228.061Y-68.593
M15
G01X223.892Y-55.761
M16
G05
G00X220.511Y-89.03
M15
G01X233.343Y-84.861
M16
G05
G00X221.552Y-92.235
M15
G01X234.384Y-88.065
M16
G05
G00X233.314Y-84.761
M15
G01X229.145Y-71.929
M16
G05
G00X233.654Y-71.244
M15
G01X229.485Y-58.413
M16
G05
G00X225.764Y-105.198
M15
G01X238.596Y-101.029
M16
G05
G00X229.463Y-58.331
M15
G01X242.294Y-54.162
M16
G05
G00X238.568Y-100.929
M15
G01X234.398Y-88.097
M16
G05
G00X238.908Y-87.412
M15
G01X234.738Y-74.581
M16
G05
G00X233.675Y-71.295
M15
G01X246.506Y-67.125
M16
G05
G00X234.716Y-74.499
M15
G01X247.547Y-70.33
M16
G05
G00X244.161Y-103.58
M15
G01X239.992Y-90.749
M16
G05
G00X246.478Y-67.025
M15
G01X242.309Y-54.194
M16
G05
G00X238.928Y-87.463
M15
G01X251.76Y-83.293
M16
G05
G00X239.969Y-90.667
M15
G01X252.801Y-86.497
M16
G05
G00X251.731Y-83.193
M15
G01X247.562Y-70.362
M16
G05
G00X252.071Y-69.677
M15
G01X247.902Y-56.845
M16
G05
G00X244.181Y-103.631
M15
G01X257.013Y-99.461
M16
G05
G00X247.879Y-56.763
M15
G01X260.711Y-52.594
M16
G05
G00X256.985Y-99.361
M15
G01X252.815Y-86.529
M16
G05
G00X257.324Y-85.845
M15
G01X253.155Y-73.013
M16
G05
G00X252.092Y-69.727
M15
G01X264.923Y-65.557
M16
G05
G00X253.133Y-72.931
M15
G01X265.964Y-68.762
M16
G05
G00X262.578Y-102.013
M15
G01X258.408Y-89.181
M16
G05
G00X264.895Y-65.457
M15
G01X260.726Y-52.626
M16
G05
G00X257.345Y-85.895
M15
G01X270.177Y-81.725
M16
G05
G00X258.386Y-89.099
M15
G01X271.218Y-84.93
M16
G05
G00X270.148Y-81.625
M15
G01X265.979Y-68.794
M16
G05
G00X262.598Y-102.063
M15
G01X275.43Y-97.893
M16
G05
G00X275.402Y-97.793
M15
G01X271.232Y-84.962
M16
G05
M30
