M48
; DRILL file {KiCad 8.0.4} date 2024-09-01T13:46:44+0700
; FORMAT={-:-/ absolute / metric / decimal}
; #@! TF.CreationDate,2024-09-01T13:46:44+07:00
; #@! TF.GenerationSoftware,Kicad,Pcbnew,8.0.4
; #@! TF.FileFunction,NonPlated,1,2,NPTH
FMAT,2
METRIC
; #@! TA.AperFunction,NonPlated,NPTH,ComponentDrill
T1C0.991
; #@! TA.AperFunction,NonPlated,NPTH,ComponentDrill
T2C1.000
; #@! TA.AperFunction,NonPlated,NPTH,ComponentDrill
T3C1.702
; #@! TA.AperFunction,NonPlated,NPTH,ComponentDrill
T4C2.200
; #@! TA.AperFunction,NonPlated,NPTH,ComponentDrill
T5C3.000
; #@! TA.AperFunction,NonPlated,NPTH,ComponentDrill
T6C3.429
%
G90
G05
T1
X22.447Y-95.797
X27.7Y-79.629
X32.953Y-63.461
X40.864Y-97.365
X46.117Y-81.197
X51.37Y-65.029
X59.281Y-98.933
X64.534Y-82.765
X69.787Y-66.597
X72.444Y-116.669
X77.697Y-100.501
X82.951Y-84.333
X88.204Y-68.165
X88.265Y-126.225
X93.519Y-110.057
X98.772Y-93.89
X104.025Y-77.722
X108.366Y-137.173
X109.34Y-119.614
X114.593Y-103.446
X119.846Y-87.278
X165.816Y-90.504
X171.069Y-106.672
X176.322Y-122.84
X177.296Y-140.399
X181.637Y-80.948
X186.89Y-97.116
X192.143Y-113.284
X197.397Y-129.452
X197.458Y-71.391
X202.711Y-87.559
X207.964Y-103.727
X213.218Y-119.895
X215.875Y-69.823
X221.128Y-85.991
X226.381Y-102.159
X234.292Y-68.255
X239.545Y-84.423
X244.798Y-100.591
X252.709Y-66.687
X257.962Y-82.855
X263.215Y-99.023
T2
X160.701Y-54.478
X162.901Y-54.478
T3
X23.478Y-91.716
X28.732Y-75.548
X33.94Y-95.115
X33.985Y-59.38
X39.193Y-78.947
X41.895Y-93.284
X44.447Y-62.779
X47.149Y-77.116
X52.357Y-96.683
X52.402Y-60.948
X57.61Y-80.515
X60.312Y-94.852
X62.863Y-64.347
X65.565Y-78.684
X70.774Y-98.251
X70.819Y-62.516
X73.476Y-112.588
X76.027Y-82.083
X78.729Y-96.42
X81.28Y-65.915
X83.937Y-115.987
X83.982Y-80.252
X89.191Y-99.819
X89.236Y-64.084
X89.297Y-122.145
X94.444Y-83.651
X94.55Y-105.977
X99.697Y-67.483
X99.759Y-125.544
X99.803Y-89.809
X105.012Y-109.376
X105.057Y-73.641
X109.398Y-133.092
X110.265Y-93.208
X110.371Y-115.533
X115.518Y-77.04
X115.625Y-99.365
X119.859Y-136.491
X120.833Y-118.932
X120.878Y-83.197
X126.086Y-102.764
X131.34Y-86.596
X164.252Y-86.596
X169.505Y-102.764
X174.713Y-83.197
X174.758Y-118.932
X175.732Y-136.491
X179.966Y-99.365
X180.073Y-77.04
X185.22Y-115.533
X185.326Y-93.208
X186.193Y-133.092
X190.534Y-73.641
X190.579Y-109.376
X195.788Y-89.809
X195.833Y-125.544
X195.894Y-67.483
X201.041Y-105.977
X201.147Y-83.651
X206.294Y-122.145
X206.355Y-64.084
X206.4Y-99.819
X211.609Y-80.252
X211.654Y-115.987
X214.311Y-65.915
X216.862Y-96.42
X219.564Y-82.083
X222.115Y-112.588
X224.772Y-62.516
X224.817Y-98.251
X230.026Y-78.684
X232.728Y-64.347
X235.279Y-94.852
X237.981Y-80.515
X243.189Y-60.948
X243.234Y-96.683
X248.442Y-77.116
X251.144Y-62.779
X253.696Y-93.284
X256.398Y-78.947
X261.606Y-59.38
X261.651Y-95.115
X266.859Y-75.548
X272.113Y-91.716
T4
X56.279Y-109.878
X85.601Y-55.378
X148.251Y-89.278
X148.279Y-137.724
X210.101Y-55.378
X239.601Y-109.878
T5
X30.548Y-87.757
X34.623Y-91.394
X35.801Y-71.589
X39.877Y-75.226
X41.054Y-55.421
X45.13Y-59.058
X48.965Y-89.325
X53.04Y-92.962
X54.218Y-73.157
X58.293Y-76.794
X59.471Y-56.989
X63.547Y-60.626
X67.382Y-90.893
X71.457Y-94.53
X72.635Y-74.725
X76.71Y-78.362
X77.888Y-58.557
X80.545Y-108.629
X81.964Y-62.194
X84.621Y-112.266
X85.798Y-92.461
X89.874Y-96.098
X91.052Y-76.293
X95.127Y-79.93
X96.305Y-60.125
X96.366Y-118.185
X100.381Y-63.762
X100.442Y-121.823
X101.62Y-102.017
X105.695Y-105.655
X106.873Y-85.849
X110.948Y-89.487
X112.126Y-69.681
X116.202Y-73.319
X116.467Y-129.133
X117.441Y-111.574
X120.543Y-132.77
X121.516Y-115.212
X122.694Y-95.406
X126.77Y-99.044
X127.947Y-79.238
X132.023Y-82.876
X167.644Y-79.238
X172.897Y-95.406
X173.079Y-79.785
X178.15Y-111.574
X178.332Y-95.953
X179.124Y-129.133
X183.465Y-69.681
X183.585Y-112.121
X184.559Y-129.68
X188.718Y-85.849
X188.9Y-70.229
X193.971Y-102.017
X194.153Y-86.397
X199.225Y-118.185
X199.286Y-60.125
X199.407Y-102.565
X204.539Y-76.293
X204.66Y-118.733
X204.721Y-60.672
X209.792Y-92.461
X209.974Y-76.84
X215.046Y-108.629
X215.228Y-93.008
X217.703Y-58.557
X220.481Y-109.176
X222.956Y-74.725
X223.138Y-59.104
X228.209Y-90.893
X228.391Y-75.272
X233.645Y-91.44
X236.12Y-56.989
X241.373Y-73.157
X241.555Y-57.536
X246.626Y-89.325
X246.808Y-73.704
X252.061Y-89.872
X254.537Y-55.421
X259.79Y-71.589
X259.972Y-55.968
X265.043Y-87.757
X265.225Y-72.136
X270.478Y-88.304
T6
X28.709Y-93.416
X33.962Y-77.248
X39.216Y-61.08
X47.126Y-94.984
X52.379Y-78.816
X57.633Y-62.648
X65.543Y-96.551
X70.796Y-80.383
X76.05Y-64.216
X78.707Y-114.287
X83.96Y-98.119
X89.213Y-81.951
X94.466Y-65.784
X94.528Y-123.844
X99.781Y-107.676
X105.034Y-91.508
X110.288Y-75.34
X114.629Y-134.791
X115.602Y-117.233
X120.855Y-101.065
X126.109Y-84.897
X169.482Y-84.897
X174.736Y-101.065
X179.989Y-117.233
X180.962Y-134.791
X185.303Y-75.34
X190.557Y-91.508
X195.81Y-107.676
X201.063Y-123.844
X201.125Y-65.784
X206.378Y-81.951
X211.631Y-98.119
X216.884Y-114.287
X219.542Y-64.216
X224.795Y-80.383
X230.048Y-96.551
X237.958Y-62.648
X243.212Y-78.816
X248.465Y-94.984
X256.375Y-61.08
X261.629Y-77.248
X266.882Y-93.416
M30
