G04 #@! TF.GenerationSoftware,KiCad,Pcbnew,8.0.4*
G04 #@! TF.CreationDate,2024-09-01T13:46:42+07:00*
G04 #@! TF.ProjectId,ozprey,6f7a7072-6579-42e6-9b69-6361645f7063,1.0*
G04 #@! TF.SameCoordinates,Original*
G04 #@! TF.FileFunction,Legend,Bot*
G04 #@! TF.FilePolarity,Positive*
%FSLAX46Y46*%
G04 Gerber Fmt 4.6, Leading zero omitted, Abs format (unit mm)*
G04 Created by KiCad (PCBNEW 8.0.4) date 2024-09-01 13:46:42*
%MOMM*%
%LPD*%
G01*
G04 APERTURE LIST*
G04 Aperture macros list*
%AMRoundRect*
0 Rectangle with rounded corners*
0 $1 Rounding radius*
0 $2 $3 $4 $5 $6 $7 $8 $9 X,Y pos of 4 corners*
0 Add a 4 corners polygon primitive as box body*
4,1,4,$2,$3,$4,$5,$6,$7,$8,$9,$2,$3,0*
0 Add four circle primitives for the rounded corners*
1,1,$1+$1,$2,$3*
1,1,$1+$1,$4,$5*
1,1,$1+$1,$6,$7*
1,1,$1+$1,$8,$9*
0 Add four rect primitives between the rounded corners*
20,1,$1+$1,$2,$3,$4,$5,0*
20,1,$1+$1,$4,$5,$6,$7,0*
20,1,$1+$1,$6,$7,$8,$9,0*
20,1,$1+$1,$8,$9,$2,$3,0*%
%AMRotRect*
0 Rectangle, with rotation*
0 The origin of the aperture is its center*
0 $1 length*
0 $2 width*
0 $3 Rotation angle, in degrees counterclockwise*
0 Add horizontal line*
21,1,$1,$2,0,0,$3*%
G04 Aperture macros list end*
%ADD10C,0.125000*%
%ADD11C,0.150000*%
%ADD12C,0.200000*%
%ADD13R,1.000000X1.700000*%
%ADD14C,1.800000*%
%ADD15RoundRect,0.450000X-0.450000X-0.450000X0.450000X-0.450000X0.450000X0.450000X-0.450000X0.450000X0*%
%ADD16RotRect,1.800000X1.500000X108.000000*%
%ADD17RotRect,1.800000X1.500000X72.000000*%
%ADD18C,0.900000*%
%ADD19C,2.200000*%
%ADD20R,1.700000X1.700000*%
%ADD21O,1.700000X1.700000*%
%ADD22C,2.304000*%
%ADD23C,1.512000*%
%ADD24RotRect,2.600000X2.600000X162.000000*%
%ADD25C,1.701800*%
%ADD26C,3.000000*%
%ADD27C,3.429000*%
%ADD28C,0.990600*%
%ADD29RotRect,2.600000X2.600000X198.000000*%
G04 APERTURE END LIST*
D10*
X148702611Y-72062641D02*
X148869277Y-71824546D01*
X148988325Y-72062641D02*
X148988325Y-71562641D01*
X148988325Y-71562641D02*
X148797849Y-71562641D01*
X148797849Y-71562641D02*
X148750230Y-71586451D01*
X148750230Y-71586451D02*
X148726420Y-71610260D01*
X148726420Y-71610260D02*
X148702611Y-71657879D01*
X148702611Y-71657879D02*
X148702611Y-71729308D01*
X148702611Y-71729308D02*
X148726420Y-71776927D01*
X148726420Y-71776927D02*
X148750230Y-71800736D01*
X148750230Y-71800736D02*
X148797849Y-71824546D01*
X148797849Y-71824546D02*
X148988325Y-71824546D01*
X148512134Y-72038832D02*
X148440706Y-72062641D01*
X148440706Y-72062641D02*
X148321658Y-72062641D01*
X148321658Y-72062641D02*
X148274039Y-72038832D01*
X148274039Y-72038832D02*
X148250230Y-72015022D01*
X148250230Y-72015022D02*
X148226420Y-71967403D01*
X148226420Y-71967403D02*
X148226420Y-71919784D01*
X148226420Y-71919784D02*
X148250230Y-71872165D01*
X148250230Y-71872165D02*
X148274039Y-71848355D01*
X148274039Y-71848355D02*
X148321658Y-71824546D01*
X148321658Y-71824546D02*
X148416896Y-71800736D01*
X148416896Y-71800736D02*
X148464515Y-71776927D01*
X148464515Y-71776927D02*
X148488325Y-71753117D01*
X148488325Y-71753117D02*
X148512134Y-71705498D01*
X148512134Y-71705498D02*
X148512134Y-71657879D01*
X148512134Y-71657879D02*
X148488325Y-71610260D01*
X148488325Y-71610260D02*
X148464515Y-71586451D01*
X148464515Y-71586451D02*
X148416896Y-71562641D01*
X148416896Y-71562641D02*
X148297849Y-71562641D01*
X148297849Y-71562641D02*
X148226420Y-71586451D01*
X148083563Y-71562641D02*
X147797849Y-71562641D01*
X147940706Y-72062641D02*
X147940706Y-71562641D01*
X147654992Y-71610260D02*
X147631183Y-71586451D01*
X147631183Y-71586451D02*
X147583564Y-71562641D01*
X147583564Y-71562641D02*
X147464516Y-71562641D01*
X147464516Y-71562641D02*
X147416897Y-71586451D01*
X147416897Y-71586451D02*
X147393088Y-71610260D01*
X147393088Y-71610260D02*
X147369278Y-71657879D01*
X147369278Y-71657879D02*
X147369278Y-71705498D01*
X147369278Y-71705498D02*
X147393088Y-71776927D01*
X147393088Y-71776927D02*
X147678802Y-72062641D01*
X147678802Y-72062641D02*
X147369278Y-72062641D01*
D11*
X147910707Y-103935365D02*
X148520231Y-103935365D01*
X148215469Y-104240127D02*
X148215469Y-103630603D01*
D10*
X137196418Y-61619665D02*
X136815466Y-61619665D01*
X136029751Y-61548236D02*
X135958323Y-61572046D01*
X135958323Y-61572046D02*
X135934513Y-61595855D01*
X135934513Y-61595855D02*
X135910704Y-61643474D01*
X135910704Y-61643474D02*
X135910704Y-61714903D01*
X135910704Y-61714903D02*
X135934513Y-61762522D01*
X135934513Y-61762522D02*
X135958323Y-61786332D01*
X135958323Y-61786332D02*
X136005942Y-61810141D01*
X136005942Y-61810141D02*
X136196418Y-61810141D01*
X136196418Y-61810141D02*
X136196418Y-61310141D01*
X136196418Y-61310141D02*
X136029751Y-61310141D01*
X136029751Y-61310141D02*
X135982132Y-61333951D01*
X135982132Y-61333951D02*
X135958323Y-61357760D01*
X135958323Y-61357760D02*
X135934513Y-61405379D01*
X135934513Y-61405379D02*
X135934513Y-61452998D01*
X135934513Y-61452998D02*
X135958323Y-61500617D01*
X135958323Y-61500617D02*
X135982132Y-61524427D01*
X135982132Y-61524427D02*
X136029751Y-61548236D01*
X136029751Y-61548236D02*
X136196418Y-61548236D01*
X135720227Y-61667284D02*
X135482132Y-61667284D01*
X135767846Y-61810141D02*
X135601180Y-61310141D01*
X135601180Y-61310141D02*
X135434513Y-61810141D01*
X135339275Y-61310141D02*
X135053561Y-61310141D01*
X135196418Y-61810141D02*
X135196418Y-61310141D01*
X134505943Y-61619665D02*
X134124991Y-61619665D01*
X134315467Y-61810141D02*
X134315467Y-61429189D01*
X149518324Y-67622641D02*
X149232610Y-67622641D01*
X149375467Y-68122641D02*
X149375467Y-67622641D01*
X148827849Y-68122641D02*
X149065944Y-68122641D01*
X149065944Y-68122641D02*
X149065944Y-67622641D01*
X148708801Y-67622641D02*
X148399277Y-67622641D01*
X148399277Y-67622641D02*
X148565944Y-67813117D01*
X148565944Y-67813117D02*
X148494515Y-67813117D01*
X148494515Y-67813117D02*
X148446896Y-67836927D01*
X148446896Y-67836927D02*
X148423087Y-67860736D01*
X148423087Y-67860736D02*
X148399277Y-67908355D01*
X148399277Y-67908355D02*
X148399277Y-68027403D01*
X148399277Y-68027403D02*
X148423087Y-68075022D01*
X148423087Y-68075022D02*
X148446896Y-68098832D01*
X148446896Y-68098832D02*
X148494515Y-68122641D01*
X148494515Y-68122641D02*
X148637372Y-68122641D01*
X148637372Y-68122641D02*
X148684991Y-68098832D01*
X148684991Y-68098832D02*
X148708801Y-68075022D01*
X148232611Y-67622641D02*
X147923087Y-67622641D01*
X147923087Y-67622641D02*
X148089754Y-67813117D01*
X148089754Y-67813117D02*
X148018325Y-67813117D01*
X148018325Y-67813117D02*
X147970706Y-67836927D01*
X147970706Y-67836927D02*
X147946897Y-67860736D01*
X147946897Y-67860736D02*
X147923087Y-67908355D01*
X147923087Y-67908355D02*
X147923087Y-68027403D01*
X147923087Y-68027403D02*
X147946897Y-68075022D01*
X147946897Y-68075022D02*
X147970706Y-68098832D01*
X147970706Y-68098832D02*
X148018325Y-68122641D01*
X148018325Y-68122641D02*
X148161182Y-68122641D01*
X148161182Y-68122641D02*
X148208801Y-68098832D01*
X148208801Y-68098832D02*
X148232611Y-68075022D01*
X147494516Y-67789308D02*
X147494516Y-68122641D01*
X147613564Y-67598832D02*
X147732611Y-67955974D01*
X147732611Y-67955974D02*
X147423088Y-67955974D01*
X147256421Y-67670260D02*
X147232612Y-67646451D01*
X147232612Y-67646451D02*
X147184993Y-67622641D01*
X147184993Y-67622641D02*
X147065945Y-67622641D01*
X147065945Y-67622641D02*
X147018326Y-67646451D01*
X147018326Y-67646451D02*
X146994517Y-67670260D01*
X146994517Y-67670260D02*
X146970707Y-67717879D01*
X146970707Y-67717879D02*
X146970707Y-67765498D01*
X146970707Y-67765498D02*
X146994517Y-67836927D01*
X146994517Y-67836927D02*
X147280231Y-68122641D01*
X147280231Y-68122641D02*
X146970707Y-68122641D01*
D11*
X76164416Y-111786545D02*
X76013836Y-111787688D01*
X76013836Y-111787688D02*
X75787394Y-111714113D01*
X75787394Y-111714113D02*
X75711532Y-111639394D01*
X75711532Y-111639394D02*
X75680959Y-111579391D01*
X75680959Y-111579391D02*
X75665101Y-111474099D01*
X75665101Y-111474099D02*
X75694531Y-111383522D01*
X75694531Y-111383522D02*
X75769249Y-111307660D01*
X75769249Y-111307660D02*
X75829253Y-111277087D01*
X75829253Y-111277087D02*
X75934545Y-111261229D01*
X75934545Y-111261229D02*
X76130414Y-111274801D01*
X76130414Y-111274801D02*
X76235705Y-111258943D01*
X76235705Y-111258943D02*
X76295709Y-111228369D01*
X76295709Y-111228369D02*
X76370428Y-111152508D01*
X76370428Y-111152508D02*
X76399858Y-111061931D01*
X76399858Y-111061931D02*
X76383999Y-110956639D01*
X76383999Y-110956639D02*
X76353426Y-110896635D01*
X76353426Y-110896635D02*
X76277564Y-110821917D01*
X76277564Y-110821917D02*
X76051122Y-110748341D01*
X76051122Y-110748341D02*
X75900542Y-110749484D01*
X75598238Y-110601190D02*
X75062779Y-111478671D01*
X75062779Y-111478671D02*
X75102352Y-110740485D01*
X75102352Y-110740485D02*
X74700472Y-111360951D01*
X74700472Y-111360951D02*
X74783047Y-110336319D01*
X73613550Y-111007788D02*
X74157011Y-111184370D01*
X73885281Y-111096079D02*
X74194298Y-110145022D01*
X74194298Y-110145022D02*
X74240729Y-110310318D01*
X74240729Y-110310318D02*
X74301876Y-110430325D01*
X74301876Y-110430325D02*
X74377738Y-110505043D01*
X73605549Y-109953726D02*
X73016799Y-109762430D01*
X73016799Y-109762430D02*
X73216097Y-110227743D01*
X73216097Y-110227743D02*
X73080232Y-110183598D01*
X73080232Y-110183598D02*
X72974940Y-110199456D01*
X72974940Y-110199456D02*
X72914937Y-110230029D01*
X72914937Y-110230029D02*
X72840218Y-110305891D01*
X72840218Y-110305891D02*
X72766643Y-110532333D01*
X72766643Y-110532333D02*
X72782501Y-110637625D01*
X72782501Y-110637625D02*
X72813074Y-110697628D01*
X72813074Y-110697628D02*
X72888936Y-110772347D01*
X72888936Y-110772347D02*
X73160666Y-110860637D01*
X73160666Y-110860637D02*
X73265958Y-110844779D01*
X73265958Y-110844779D02*
X73325962Y-110814206D01*
X177435912Y-134262468D02*
X177314762Y-134351902D01*
X177314762Y-134351902D02*
X177088319Y-134425477D01*
X177088319Y-134425477D02*
X176983028Y-134409619D01*
X176983028Y-134409619D02*
X176923024Y-134379046D01*
X176923024Y-134379046D02*
X176848305Y-134303184D01*
X176848305Y-134303184D02*
X176818875Y-134212607D01*
X176818875Y-134212607D02*
X176834734Y-134107315D01*
X176834734Y-134107315D02*
X176865307Y-134047312D01*
X176865307Y-134047312D02*
X176941169Y-133972593D01*
X176941169Y-133972593D02*
X177107607Y-133868444D01*
X177107607Y-133868444D02*
X177183469Y-133793726D01*
X177183469Y-133793726D02*
X177214042Y-133733722D01*
X177214042Y-133733722D02*
X177229900Y-133628430D01*
X177229900Y-133628430D02*
X177200470Y-133537854D01*
X177200470Y-133537854D02*
X177125752Y-133461992D01*
X177125752Y-133461992D02*
X177065748Y-133431419D01*
X177065748Y-133431419D02*
X176960456Y-133415560D01*
X176960456Y-133415560D02*
X176734014Y-133489136D01*
X176734014Y-133489136D02*
X176612864Y-133578570D01*
X176281130Y-133636287D02*
X176363705Y-134660919D01*
X176363705Y-134660919D02*
X175961825Y-134040453D01*
X175961825Y-134040453D02*
X176001398Y-134778640D01*
X176001398Y-134778640D02*
X175465939Y-133901159D01*
X175178350Y-134094741D02*
X175118347Y-134064168D01*
X175118347Y-134064168D02*
X175013055Y-134048309D01*
X175013055Y-134048309D02*
X174786613Y-134121885D01*
X174786613Y-134121885D02*
X174710751Y-134196603D01*
X174710751Y-134196603D02*
X174680178Y-134256607D01*
X174680178Y-134256607D02*
X174664319Y-134361899D01*
X174664319Y-134361899D02*
X174693750Y-134452476D01*
X174693750Y-134452476D02*
X174783183Y-134573626D01*
X174783183Y-134573626D02*
X175503225Y-134940506D01*
X175503225Y-134940506D02*
X174914476Y-135131802D01*
X173744979Y-134460332D02*
X174197863Y-134313181D01*
X174197863Y-134313181D02*
X174390303Y-134751350D01*
X174390303Y-134751350D02*
X174330299Y-134720777D01*
X174330299Y-134720777D02*
X174225007Y-134704919D01*
X174225007Y-134704919D02*
X173998565Y-134778494D01*
X173998565Y-134778494D02*
X173922704Y-134853213D01*
X173922704Y-134853213D02*
X173892130Y-134913216D01*
X173892130Y-134913216D02*
X173876272Y-135018508D01*
X173876272Y-135018508D02*
X173949848Y-135244950D01*
X173949848Y-135244950D02*
X174024566Y-135320812D01*
X174024566Y-135320812D02*
X174084570Y-135351385D01*
X174084570Y-135351385D02*
X174189862Y-135367243D01*
X174189862Y-135367243D02*
X174416304Y-135293668D01*
X174416304Y-135293668D02*
X174492165Y-135218949D01*
X174492165Y-135218949D02*
X174522739Y-135158946D01*
X91985616Y-121343345D02*
X91835036Y-121344488D01*
X91835036Y-121344488D02*
X91608594Y-121270913D01*
X91608594Y-121270913D02*
X91532732Y-121196194D01*
X91532732Y-121196194D02*
X91502159Y-121136191D01*
X91502159Y-121136191D02*
X91486301Y-121030899D01*
X91486301Y-121030899D02*
X91515731Y-120940322D01*
X91515731Y-120940322D02*
X91590449Y-120864460D01*
X91590449Y-120864460D02*
X91650453Y-120833887D01*
X91650453Y-120833887D02*
X91755745Y-120818029D01*
X91755745Y-120818029D02*
X91951614Y-120831601D01*
X91951614Y-120831601D02*
X92056905Y-120815743D01*
X92056905Y-120815743D02*
X92116909Y-120785169D01*
X92116909Y-120785169D02*
X92191628Y-120709308D01*
X92191628Y-120709308D02*
X92221058Y-120618731D01*
X92221058Y-120618731D02*
X92205199Y-120513439D01*
X92205199Y-120513439D02*
X92174626Y-120453435D01*
X92174626Y-120453435D02*
X92098764Y-120378717D01*
X92098764Y-120378717D02*
X91872322Y-120305141D01*
X91872322Y-120305141D02*
X91721742Y-120306284D01*
X91419438Y-120157990D02*
X90883979Y-121035471D01*
X90883979Y-121035471D02*
X90923552Y-120297285D01*
X90923552Y-120297285D02*
X90521672Y-120917751D01*
X90521672Y-120917751D02*
X90604247Y-119893119D01*
X89434750Y-120564588D02*
X89978211Y-120741170D01*
X89706481Y-120652879D02*
X90015498Y-119701822D01*
X90015498Y-119701822D02*
X90061929Y-119867118D01*
X90061929Y-119867118D02*
X90123076Y-119987125D01*
X90123076Y-119987125D02*
X90198938Y-120061843D01*
X89426749Y-119510526D02*
X88792711Y-119304515D01*
X88792711Y-119304515D02*
X88891290Y-120388007D01*
X112086516Y-132290645D02*
X111935936Y-132291788D01*
X111935936Y-132291788D02*
X111709494Y-132218213D01*
X111709494Y-132218213D02*
X111633632Y-132143494D01*
X111633632Y-132143494D02*
X111603059Y-132083491D01*
X111603059Y-132083491D02*
X111587201Y-131978199D01*
X111587201Y-131978199D02*
X111616631Y-131887622D01*
X111616631Y-131887622D02*
X111691349Y-131811760D01*
X111691349Y-131811760D02*
X111751353Y-131781187D01*
X111751353Y-131781187D02*
X111856645Y-131765329D01*
X111856645Y-131765329D02*
X112052514Y-131778901D01*
X112052514Y-131778901D02*
X112157805Y-131763043D01*
X112157805Y-131763043D02*
X112217809Y-131732469D01*
X112217809Y-131732469D02*
X112292528Y-131656608D01*
X112292528Y-131656608D02*
X112321958Y-131566031D01*
X112321958Y-131566031D02*
X112306099Y-131460739D01*
X112306099Y-131460739D02*
X112275526Y-131400735D01*
X112275526Y-131400735D02*
X112199664Y-131326017D01*
X112199664Y-131326017D02*
X111973222Y-131252441D01*
X111973222Y-131252441D02*
X111822642Y-131253584D01*
X111520338Y-131105290D02*
X110984879Y-131982771D01*
X110984879Y-131982771D02*
X111024452Y-131244585D01*
X111024452Y-131244585D02*
X110622572Y-131865051D01*
X110622572Y-131865051D02*
X110705147Y-130840419D01*
X110358698Y-130827990D02*
X110328125Y-130767986D01*
X110328125Y-130767986D02*
X110252263Y-130693268D01*
X110252263Y-130693268D02*
X110025821Y-130619692D01*
X110025821Y-130619692D02*
X109920529Y-130635551D01*
X109920529Y-130635551D02*
X109860526Y-130666124D01*
X109860526Y-130666124D02*
X109785807Y-130741986D01*
X109785807Y-130741986D02*
X109756377Y-130832562D01*
X109756377Y-130832562D02*
X109757520Y-130983143D01*
X109757520Y-130983143D02*
X110124400Y-131703185D01*
X110124400Y-131703185D02*
X109535650Y-131511888D01*
X108629882Y-131217587D02*
X109173343Y-131394168D01*
X108901613Y-131305877D02*
X109210630Y-130354821D01*
X109210630Y-130354821D02*
X109257061Y-130520116D01*
X109257061Y-130520116D02*
X109318208Y-130640123D01*
X109318208Y-130640123D02*
X109394070Y-130714842D01*
X197536812Y-123315168D02*
X197415662Y-123404602D01*
X197415662Y-123404602D02*
X197189219Y-123478177D01*
X197189219Y-123478177D02*
X197083928Y-123462319D01*
X197083928Y-123462319D02*
X197023924Y-123431746D01*
X197023924Y-123431746D02*
X196949205Y-123355884D01*
X196949205Y-123355884D02*
X196919775Y-123265307D01*
X196919775Y-123265307D02*
X196935634Y-123160015D01*
X196935634Y-123160015D02*
X196966207Y-123100012D01*
X196966207Y-123100012D02*
X197042069Y-123025293D01*
X197042069Y-123025293D02*
X197208507Y-122921144D01*
X197208507Y-122921144D02*
X197284369Y-122846426D01*
X197284369Y-122846426D02*
X197314942Y-122786422D01*
X197314942Y-122786422D02*
X197330800Y-122681130D01*
X197330800Y-122681130D02*
X197301370Y-122590554D01*
X197301370Y-122590554D02*
X197226652Y-122514692D01*
X197226652Y-122514692D02*
X197166648Y-122484119D01*
X197166648Y-122484119D02*
X197061356Y-122468260D01*
X197061356Y-122468260D02*
X196834914Y-122541836D01*
X196834914Y-122541836D02*
X196713764Y-122631270D01*
X196382030Y-122688987D02*
X196464605Y-123713619D01*
X196464605Y-123713619D02*
X196062725Y-123093153D01*
X196062725Y-123093153D02*
X196102298Y-123831340D01*
X196102298Y-123831340D02*
X195566839Y-122953859D01*
X195279250Y-123147441D02*
X195219247Y-123116868D01*
X195219247Y-123116868D02*
X195113955Y-123101009D01*
X195113955Y-123101009D02*
X194887513Y-123174585D01*
X194887513Y-123174585D02*
X194811651Y-123249303D01*
X194811651Y-123249303D02*
X194781078Y-123309307D01*
X194781078Y-123309307D02*
X194765219Y-123414599D01*
X194765219Y-123414599D02*
X194794650Y-123505176D01*
X194794650Y-123505176D02*
X194884083Y-123626326D01*
X194884083Y-123626326D02*
X195604125Y-123993206D01*
X195604125Y-123993206D02*
X195015376Y-124184502D01*
X194562492Y-124331653D02*
X194381338Y-124390513D01*
X194381338Y-124390513D02*
X194276046Y-124374655D01*
X194276046Y-124374655D02*
X194216043Y-124344082D01*
X194216043Y-124344082D02*
X194081321Y-124237647D01*
X194081321Y-124237647D02*
X193977172Y-124071208D01*
X193977172Y-124071208D02*
X193859451Y-123708901D01*
X193859451Y-123708901D02*
X193875310Y-123603609D01*
X193875310Y-123603609D02*
X193905883Y-123543605D01*
X193905883Y-123543605D02*
X193981745Y-123468887D01*
X193981745Y-123468887D02*
X194162898Y-123410026D01*
X194162898Y-123410026D02*
X194268190Y-123425885D01*
X194268190Y-123425885D02*
X194328194Y-123456458D01*
X194328194Y-123456458D02*
X194402912Y-123532320D01*
X194402912Y-123532320D02*
X194476488Y-123758762D01*
X194476488Y-123758762D02*
X194460629Y-123864054D01*
X194460629Y-123864054D02*
X194430056Y-123924057D01*
X194430056Y-123924057D02*
X194354194Y-123998776D01*
X194354194Y-123998776D02*
X194173041Y-124057636D01*
X194173041Y-124057636D02*
X194067749Y-124041778D01*
X194067749Y-124041778D02*
X194007745Y-124011205D01*
X194007745Y-124011205D02*
X193933027Y-123935343D01*
X213357912Y-113758368D02*
X213236762Y-113847802D01*
X213236762Y-113847802D02*
X213010319Y-113921377D01*
X213010319Y-113921377D02*
X212905028Y-113905519D01*
X212905028Y-113905519D02*
X212845024Y-113874946D01*
X212845024Y-113874946D02*
X212770305Y-113799084D01*
X212770305Y-113799084D02*
X212740875Y-113708507D01*
X212740875Y-113708507D02*
X212756734Y-113603215D01*
X212756734Y-113603215D02*
X212787307Y-113543212D01*
X212787307Y-113543212D02*
X212863169Y-113468493D01*
X212863169Y-113468493D02*
X213029607Y-113364344D01*
X213029607Y-113364344D02*
X213105469Y-113289626D01*
X213105469Y-113289626D02*
X213136042Y-113229622D01*
X213136042Y-113229622D02*
X213151900Y-113124330D01*
X213151900Y-113124330D02*
X213122470Y-113033754D01*
X213122470Y-113033754D02*
X213047752Y-112957892D01*
X213047752Y-112957892D02*
X212987748Y-112927319D01*
X212987748Y-112927319D02*
X212882456Y-112911460D01*
X212882456Y-112911460D02*
X212656014Y-112985036D01*
X212656014Y-112985036D02*
X212534864Y-113074470D01*
X212203130Y-113132187D02*
X212285705Y-114156819D01*
X212285705Y-114156819D02*
X211883825Y-113536353D01*
X211883825Y-113536353D02*
X211923398Y-114274540D01*
X211923398Y-114274540D02*
X211387939Y-113397059D01*
X211116208Y-113485349D02*
X210527459Y-113676645D01*
X210527459Y-113676645D02*
X210962199Y-113935947D01*
X210962199Y-113935947D02*
X210826333Y-113980092D01*
X210826333Y-113980092D02*
X210750472Y-114054811D01*
X210750472Y-114054811D02*
X210719898Y-114114814D01*
X210719898Y-114114814D02*
X210704040Y-114220106D01*
X210704040Y-114220106D02*
X210777616Y-114446548D01*
X210777616Y-114446548D02*
X210852334Y-114522410D01*
X210852334Y-114522410D02*
X210912338Y-114552983D01*
X210912338Y-114552983D02*
X211017630Y-114568841D01*
X211017630Y-114568841D02*
X211289360Y-114480551D01*
X211289360Y-114480551D02*
X211365222Y-114405832D01*
X211365222Y-114405832D02*
X211395795Y-114345829D01*
X210210440Y-113779651D02*
X209621691Y-113970947D01*
X209621691Y-113970947D02*
X210056431Y-114230249D01*
X210056431Y-114230249D02*
X209920565Y-114274394D01*
X209920565Y-114274394D02*
X209844704Y-114349113D01*
X209844704Y-114349113D02*
X209814130Y-114409116D01*
X209814130Y-114409116D02*
X209798272Y-114514408D01*
X209798272Y-114514408D02*
X209871848Y-114740850D01*
X209871848Y-114740850D02*
X209946566Y-114816712D01*
X209946566Y-114816712D02*
X210006570Y-114847285D01*
X210006570Y-114847285D02*
X210111862Y-114863143D01*
X210111862Y-114863143D02*
X210383592Y-114774853D01*
X210383592Y-114774853D02*
X210459454Y-114700134D01*
X210459454Y-114700134D02*
X210490027Y-114640131D01*
X25714132Y-90767894D02*
X25563551Y-90769037D01*
X25563551Y-90769037D02*
X25337109Y-90695462D01*
X25337109Y-90695462D02*
X25261248Y-90620743D01*
X25261248Y-90620743D02*
X25230674Y-90560740D01*
X25230674Y-90560740D02*
X25214816Y-90455448D01*
X25214816Y-90455448D02*
X25244246Y-90364871D01*
X25244246Y-90364871D02*
X25318965Y-90289009D01*
X25318965Y-90289009D02*
X25378968Y-90258436D01*
X25378968Y-90258436D02*
X25484260Y-90242578D01*
X25484260Y-90242578D02*
X25680129Y-90256150D01*
X25680129Y-90256150D02*
X25785421Y-90240292D01*
X25785421Y-90240292D02*
X25845424Y-90209718D01*
X25845424Y-90209718D02*
X25920143Y-90133857D01*
X25920143Y-90133857D02*
X25949573Y-90043280D01*
X25949573Y-90043280D02*
X25933715Y-89937988D01*
X25933715Y-89937988D02*
X25903142Y-89877984D01*
X25903142Y-89877984D02*
X25827280Y-89803266D01*
X25827280Y-89803266D02*
X25600838Y-89729690D01*
X25600838Y-89729690D02*
X25450258Y-89730833D01*
X25147954Y-89582539D02*
X24612495Y-90460020D01*
X24612495Y-90460020D02*
X24652068Y-89721834D01*
X24652068Y-89721834D02*
X24250188Y-90342300D01*
X24250188Y-90342300D02*
X24332762Y-89317668D01*
X24061032Y-89229377D02*
X23472283Y-89038081D01*
X23472283Y-89038081D02*
X23671581Y-89503394D01*
X23671581Y-89503394D02*
X23535716Y-89459248D01*
X23535716Y-89459248D02*
X23430424Y-89475107D01*
X23430424Y-89475107D02*
X23370420Y-89505680D01*
X23370420Y-89505680D02*
X23295702Y-89581542D01*
X23295702Y-89581542D02*
X23222126Y-89807984D01*
X23222126Y-89807984D02*
X23237985Y-89913276D01*
X23237985Y-89913276D02*
X23268558Y-89973279D01*
X23268558Y-89973279D02*
X23344420Y-90047998D01*
X23344420Y-90047998D02*
X23616150Y-90136288D01*
X23616150Y-90136288D02*
X23721442Y-90120430D01*
X23721442Y-90120430D02*
X23781445Y-90089857D01*
X44131032Y-92335694D02*
X43980451Y-92336837D01*
X43980451Y-92336837D02*
X43754009Y-92263262D01*
X43754009Y-92263262D02*
X43678148Y-92188543D01*
X43678148Y-92188543D02*
X43647574Y-92128540D01*
X43647574Y-92128540D02*
X43631716Y-92023248D01*
X43631716Y-92023248D02*
X43661146Y-91932671D01*
X43661146Y-91932671D02*
X43735865Y-91856809D01*
X43735865Y-91856809D02*
X43795868Y-91826236D01*
X43795868Y-91826236D02*
X43901160Y-91810378D01*
X43901160Y-91810378D02*
X44097029Y-91823950D01*
X44097029Y-91823950D02*
X44202321Y-91808092D01*
X44202321Y-91808092D02*
X44262324Y-91777518D01*
X44262324Y-91777518D02*
X44337043Y-91701657D01*
X44337043Y-91701657D02*
X44366473Y-91611080D01*
X44366473Y-91611080D02*
X44350615Y-91505788D01*
X44350615Y-91505788D02*
X44320042Y-91445784D01*
X44320042Y-91445784D02*
X44244180Y-91371066D01*
X44244180Y-91371066D02*
X44017738Y-91297490D01*
X44017738Y-91297490D02*
X43867158Y-91298633D01*
X43564854Y-91150339D02*
X43029395Y-92027820D01*
X43029395Y-92027820D02*
X43068968Y-91289634D01*
X43068968Y-91289634D02*
X42667088Y-91910100D01*
X42667088Y-91910100D02*
X42749662Y-90885468D01*
X41979760Y-90635311D02*
X42160913Y-90694171D01*
X42160913Y-90694171D02*
X42236775Y-90768890D01*
X42236775Y-90768890D02*
X42267348Y-90828893D01*
X42267348Y-90828893D02*
X42313780Y-90994189D01*
X42313780Y-90994189D02*
X42300208Y-91190058D01*
X42300208Y-91190058D02*
X42182487Y-91552365D01*
X42182487Y-91552365D02*
X42107769Y-91628227D01*
X42107769Y-91628227D02*
X42047765Y-91658800D01*
X42047765Y-91658800D02*
X41942473Y-91674658D01*
X41942473Y-91674658D02*
X41761320Y-91615798D01*
X41761320Y-91615798D02*
X41685458Y-91541079D01*
X41685458Y-91541079D02*
X41654885Y-91481076D01*
X41654885Y-91481076D02*
X41639026Y-91375784D01*
X41639026Y-91375784D02*
X41712602Y-91149342D01*
X41712602Y-91149342D02*
X41787320Y-91073480D01*
X41787320Y-91073480D02*
X41847324Y-91042907D01*
X41847324Y-91042907D02*
X41952616Y-91027048D01*
X41952616Y-91027048D02*
X42133769Y-91085909D01*
X42133769Y-91085909D02*
X42209631Y-91160627D01*
X42209631Y-91160627D02*
X42240204Y-91220631D01*
X42240204Y-91220631D02*
X42256063Y-91325923D01*
X62547932Y-93903594D02*
X62397351Y-93904737D01*
X62397351Y-93904737D02*
X62170909Y-93831162D01*
X62170909Y-93831162D02*
X62095048Y-93756443D01*
X62095048Y-93756443D02*
X62064474Y-93696440D01*
X62064474Y-93696440D02*
X62048616Y-93591148D01*
X62048616Y-93591148D02*
X62078046Y-93500571D01*
X62078046Y-93500571D02*
X62152765Y-93424709D01*
X62152765Y-93424709D02*
X62212768Y-93394136D01*
X62212768Y-93394136D02*
X62318060Y-93378278D01*
X62318060Y-93378278D02*
X62513929Y-93391850D01*
X62513929Y-93391850D02*
X62619221Y-93375992D01*
X62619221Y-93375992D02*
X62679224Y-93345418D01*
X62679224Y-93345418D02*
X62753943Y-93269557D01*
X62753943Y-93269557D02*
X62783373Y-93178980D01*
X62783373Y-93178980D02*
X62767515Y-93073688D01*
X62767515Y-93073688D02*
X62736942Y-93013684D01*
X62736942Y-93013684D02*
X62661080Y-92938966D01*
X62661080Y-92938966D02*
X62434638Y-92865390D01*
X62434638Y-92865390D02*
X62284058Y-92866533D01*
X61981754Y-92718239D02*
X61446295Y-93595720D01*
X61446295Y-93595720D02*
X61485868Y-92857534D01*
X61485868Y-92857534D02*
X61083988Y-93478000D01*
X61083988Y-93478000D02*
X61166562Y-92453368D01*
X60449950Y-93271988D02*
X60268796Y-93213128D01*
X60268796Y-93213128D02*
X60192935Y-93138409D01*
X60192935Y-93138409D02*
X60162361Y-93078406D01*
X60162361Y-93078406D02*
X60115930Y-92913110D01*
X60115930Y-92913110D02*
X60129502Y-92717242D01*
X60129502Y-92717242D02*
X60247223Y-92354934D01*
X60247223Y-92354934D02*
X60321941Y-92279073D01*
X60321941Y-92279073D02*
X60381945Y-92248499D01*
X60381945Y-92248499D02*
X60487237Y-92232641D01*
X60487237Y-92232641D02*
X60668390Y-92291502D01*
X60668390Y-92291502D02*
X60744252Y-92366220D01*
X60744252Y-92366220D02*
X60774825Y-92426224D01*
X60774825Y-92426224D02*
X60790683Y-92531516D01*
X60790683Y-92531516D02*
X60717108Y-92757958D01*
X60717108Y-92757958D02*
X60642389Y-92833819D01*
X60642389Y-92833819D02*
X60582386Y-92864393D01*
X60582386Y-92864393D02*
X60477094Y-92880251D01*
X60477094Y-92880251D02*
X60295940Y-92821390D01*
X60295940Y-92821390D02*
X60220079Y-92746672D01*
X60220079Y-92746672D02*
X60189505Y-92686668D01*
X60189505Y-92686668D02*
X60173647Y-92581376D01*
X81417716Y-95618645D02*
X81267136Y-95619788D01*
X81267136Y-95619788D02*
X81040694Y-95546213D01*
X81040694Y-95546213D02*
X80964832Y-95471494D01*
X80964832Y-95471494D02*
X80934259Y-95411491D01*
X80934259Y-95411491D02*
X80918401Y-95306199D01*
X80918401Y-95306199D02*
X80947831Y-95215622D01*
X80947831Y-95215622D02*
X81022549Y-95139760D01*
X81022549Y-95139760D02*
X81082553Y-95109187D01*
X81082553Y-95109187D02*
X81187845Y-95093329D01*
X81187845Y-95093329D02*
X81383714Y-95106901D01*
X81383714Y-95106901D02*
X81489005Y-95091043D01*
X81489005Y-95091043D02*
X81549009Y-95060469D01*
X81549009Y-95060469D02*
X81623728Y-94984608D01*
X81623728Y-94984608D02*
X81653158Y-94894031D01*
X81653158Y-94894031D02*
X81637299Y-94788739D01*
X81637299Y-94788739D02*
X81606726Y-94728735D01*
X81606726Y-94728735D02*
X81530864Y-94654017D01*
X81530864Y-94654017D02*
X81304422Y-94580441D01*
X81304422Y-94580441D02*
X81153842Y-94581584D01*
X80851538Y-94433290D02*
X80316079Y-95310771D01*
X80316079Y-95310771D02*
X80355652Y-94572585D01*
X80355652Y-94572585D02*
X79953772Y-95193051D01*
X79953772Y-95193051D02*
X80036347Y-94168419D01*
X78866850Y-94839888D02*
X79410311Y-95016470D01*
X79138581Y-94928179D02*
X79447598Y-93977122D01*
X79447598Y-93977122D02*
X79494029Y-94142418D01*
X79494029Y-94142418D02*
X79555176Y-94262425D01*
X79555176Y-94262425D02*
X79631038Y-94337143D01*
X78784130Y-93861688D02*
X78753557Y-93801684D01*
X78753557Y-93801684D02*
X78677695Y-93726966D01*
X78677695Y-93726966D02*
X78451253Y-93653390D01*
X78451253Y-93653390D02*
X78345961Y-93669249D01*
X78345961Y-93669249D02*
X78285958Y-93699822D01*
X78285958Y-93699822D02*
X78211239Y-93775684D01*
X78211239Y-93775684D02*
X78181809Y-93866260D01*
X78181809Y-93866260D02*
X78182952Y-94016841D01*
X78182952Y-94016841D02*
X78549832Y-94736883D01*
X78549832Y-94736883D02*
X77961082Y-94545587D01*
X97238816Y-105175345D02*
X97088236Y-105176488D01*
X97088236Y-105176488D02*
X96861794Y-105102913D01*
X96861794Y-105102913D02*
X96785932Y-105028194D01*
X96785932Y-105028194D02*
X96755359Y-104968191D01*
X96755359Y-104968191D02*
X96739501Y-104862899D01*
X96739501Y-104862899D02*
X96768931Y-104772322D01*
X96768931Y-104772322D02*
X96843649Y-104696460D01*
X96843649Y-104696460D02*
X96903653Y-104665887D01*
X96903653Y-104665887D02*
X97008945Y-104650029D01*
X97008945Y-104650029D02*
X97204814Y-104663601D01*
X97204814Y-104663601D02*
X97310105Y-104647743D01*
X97310105Y-104647743D02*
X97370109Y-104617169D01*
X97370109Y-104617169D02*
X97444828Y-104541308D01*
X97444828Y-104541308D02*
X97474258Y-104450731D01*
X97474258Y-104450731D02*
X97458399Y-104345439D01*
X97458399Y-104345439D02*
X97427826Y-104285435D01*
X97427826Y-104285435D02*
X97351964Y-104210717D01*
X97351964Y-104210717D02*
X97125522Y-104137141D01*
X97125522Y-104137141D02*
X96974942Y-104138284D01*
X96672638Y-103989990D02*
X96137179Y-104867471D01*
X96137179Y-104867471D02*
X96176752Y-104129285D01*
X96176752Y-104129285D02*
X95774872Y-104749751D01*
X95774872Y-104749751D02*
X95857447Y-103725119D01*
X94687950Y-104396588D02*
X95231411Y-104573170D01*
X94959681Y-104484879D02*
X95268698Y-103533822D01*
X95268698Y-103533822D02*
X95315129Y-103699118D01*
X95315129Y-103699118D02*
X95376276Y-103819125D01*
X95376276Y-103819125D02*
X95452138Y-103893843D01*
X94181776Y-103180660D02*
X94362930Y-103239521D01*
X94362930Y-103239521D02*
X94438791Y-103314239D01*
X94438791Y-103314239D02*
X94469365Y-103374243D01*
X94469365Y-103374243D02*
X94515796Y-103539538D01*
X94515796Y-103539538D02*
X94502224Y-103735407D01*
X94502224Y-103735407D02*
X94384504Y-104097714D01*
X94384504Y-104097714D02*
X94309785Y-104173576D01*
X94309785Y-104173576D02*
X94249781Y-104204149D01*
X94249781Y-104204149D02*
X94144490Y-104220007D01*
X94144490Y-104220007D02*
X93963336Y-104161147D01*
X93963336Y-104161147D02*
X93887474Y-104086428D01*
X93887474Y-104086428D02*
X93856901Y-104026425D01*
X93856901Y-104026425D02*
X93841043Y-103921133D01*
X93841043Y-103921133D02*
X93914618Y-103694691D01*
X93914618Y-103694691D02*
X93989337Y-103618829D01*
X93989337Y-103618829D02*
X94049340Y-103588256D01*
X94049340Y-103588256D02*
X94154632Y-103572398D01*
X94154632Y-103572398D02*
X94335786Y-103631258D01*
X94335786Y-103631258D02*
X94411648Y-103705977D01*
X94411648Y-103705977D02*
X94442221Y-103765980D01*
X94442221Y-103765980D02*
X94458079Y-103871272D01*
X113060016Y-114732145D02*
X112909436Y-114733288D01*
X112909436Y-114733288D02*
X112682994Y-114659713D01*
X112682994Y-114659713D02*
X112607132Y-114584994D01*
X112607132Y-114584994D02*
X112576559Y-114524991D01*
X112576559Y-114524991D02*
X112560701Y-114419699D01*
X112560701Y-114419699D02*
X112590131Y-114329122D01*
X112590131Y-114329122D02*
X112664849Y-114253260D01*
X112664849Y-114253260D02*
X112724853Y-114222687D01*
X112724853Y-114222687D02*
X112830145Y-114206829D01*
X112830145Y-114206829D02*
X113026014Y-114220401D01*
X113026014Y-114220401D02*
X113131305Y-114204543D01*
X113131305Y-114204543D02*
X113191309Y-114173969D01*
X113191309Y-114173969D02*
X113266028Y-114098108D01*
X113266028Y-114098108D02*
X113295458Y-114007531D01*
X113295458Y-114007531D02*
X113279599Y-113902239D01*
X113279599Y-113902239D02*
X113249026Y-113842235D01*
X113249026Y-113842235D02*
X113173164Y-113767517D01*
X113173164Y-113767517D02*
X112946722Y-113693941D01*
X112946722Y-113693941D02*
X112796142Y-113695084D01*
X112493838Y-113546790D02*
X111958379Y-114424271D01*
X111958379Y-114424271D02*
X111997952Y-113686085D01*
X111997952Y-113686085D02*
X111596072Y-114306551D01*
X111596072Y-114306551D02*
X111678647Y-113281919D01*
X111332198Y-113269490D02*
X111301625Y-113209486D01*
X111301625Y-113209486D02*
X111225763Y-113134768D01*
X111225763Y-113134768D02*
X110999321Y-113061192D01*
X110999321Y-113061192D02*
X110894029Y-113077051D01*
X110894029Y-113077051D02*
X110834026Y-113107624D01*
X110834026Y-113107624D02*
X110759307Y-113183486D01*
X110759307Y-113183486D02*
X110729877Y-113274062D01*
X110729877Y-113274062D02*
X110731020Y-113424643D01*
X110731020Y-113424643D02*
X111097900Y-114144685D01*
X111097900Y-114144685D02*
X110509150Y-113953388D01*
X110229418Y-112811036D02*
X110138841Y-112781605D01*
X110138841Y-112781605D02*
X110033549Y-112797464D01*
X110033549Y-112797464D02*
X109973546Y-112828037D01*
X109973546Y-112828037D02*
X109898827Y-112903899D01*
X109898827Y-112903899D02*
X109794679Y-113070337D01*
X109794679Y-113070337D02*
X109721103Y-113296779D01*
X109721103Y-113296779D02*
X109707531Y-113492648D01*
X109707531Y-113492648D02*
X109723389Y-113597940D01*
X109723389Y-113597940D02*
X109753963Y-113657943D01*
X109753963Y-113657943D02*
X109829824Y-113732662D01*
X109829824Y-113732662D02*
X109920401Y-113762092D01*
X109920401Y-113762092D02*
X110025693Y-113746234D01*
X110025693Y-113746234D02*
X110085697Y-113715661D01*
X110085697Y-113715661D02*
X110160415Y-113639799D01*
X110160415Y-113639799D02*
X110264564Y-113473360D01*
X110264564Y-113473360D02*
X110338139Y-113246918D01*
X110338139Y-113246918D02*
X110351711Y-113051050D01*
X110351711Y-113051050D02*
X110335853Y-112945758D01*
X110335853Y-112945758D02*
X110305280Y-112885754D01*
X110305280Y-112885754D02*
X110229418Y-112811036D01*
X176462412Y-116703968D02*
X176341262Y-116793402D01*
X176341262Y-116793402D02*
X176114819Y-116866977D01*
X176114819Y-116866977D02*
X176009528Y-116851119D01*
X176009528Y-116851119D02*
X175949524Y-116820546D01*
X175949524Y-116820546D02*
X175874805Y-116744684D01*
X175874805Y-116744684D02*
X175845375Y-116654107D01*
X175845375Y-116654107D02*
X175861234Y-116548815D01*
X175861234Y-116548815D02*
X175891807Y-116488812D01*
X175891807Y-116488812D02*
X175967669Y-116414093D01*
X175967669Y-116414093D02*
X176134107Y-116309944D01*
X176134107Y-116309944D02*
X176209969Y-116235226D01*
X176209969Y-116235226D02*
X176240542Y-116175222D01*
X176240542Y-116175222D02*
X176256400Y-116069930D01*
X176256400Y-116069930D02*
X176226970Y-115979354D01*
X176226970Y-115979354D02*
X176152252Y-115903492D01*
X176152252Y-115903492D02*
X176092248Y-115872919D01*
X176092248Y-115872919D02*
X175986956Y-115857060D01*
X175986956Y-115857060D02*
X175760514Y-115930636D01*
X175760514Y-115930636D02*
X175639364Y-116020070D01*
X175307630Y-116077787D02*
X175390205Y-117102419D01*
X175390205Y-117102419D02*
X174988325Y-116481953D01*
X174988325Y-116481953D02*
X175027898Y-117220140D01*
X175027898Y-117220140D02*
X174492439Y-116342659D01*
X174204850Y-116536241D02*
X174144847Y-116505668D01*
X174144847Y-116505668D02*
X174039555Y-116489809D01*
X174039555Y-116489809D02*
X173813113Y-116563385D01*
X173813113Y-116563385D02*
X173737251Y-116638103D01*
X173737251Y-116638103D02*
X173706678Y-116698107D01*
X173706678Y-116698107D02*
X173690819Y-116803399D01*
X173690819Y-116803399D02*
X173720250Y-116893976D01*
X173720250Y-116893976D02*
X173809683Y-117015126D01*
X173809683Y-117015126D02*
X174529725Y-117382006D01*
X174529725Y-117382006D02*
X173940976Y-117573302D01*
X172919773Y-117204136D02*
X173125785Y-117838174D01*
X173028495Y-116768253D02*
X173475663Y-117374004D01*
X173475663Y-117374004D02*
X172886914Y-117565300D01*
X192283512Y-107147168D02*
X192162362Y-107236602D01*
X192162362Y-107236602D02*
X191935919Y-107310177D01*
X191935919Y-107310177D02*
X191830628Y-107294319D01*
X191830628Y-107294319D02*
X191770624Y-107263746D01*
X191770624Y-107263746D02*
X191695905Y-107187884D01*
X191695905Y-107187884D02*
X191666475Y-107097307D01*
X191666475Y-107097307D02*
X191682334Y-106992015D01*
X191682334Y-106992015D02*
X191712907Y-106932012D01*
X191712907Y-106932012D02*
X191788769Y-106857293D01*
X191788769Y-106857293D02*
X191955207Y-106753144D01*
X191955207Y-106753144D02*
X192031069Y-106678426D01*
X192031069Y-106678426D02*
X192061642Y-106618422D01*
X192061642Y-106618422D02*
X192077500Y-106513130D01*
X192077500Y-106513130D02*
X192048070Y-106422554D01*
X192048070Y-106422554D02*
X191973352Y-106346692D01*
X191973352Y-106346692D02*
X191913348Y-106316119D01*
X191913348Y-106316119D02*
X191808056Y-106300260D01*
X191808056Y-106300260D02*
X191581614Y-106373836D01*
X191581614Y-106373836D02*
X191460464Y-106463270D01*
X191128730Y-106520987D02*
X191211305Y-107545619D01*
X191211305Y-107545619D02*
X190809425Y-106925153D01*
X190809425Y-106925153D02*
X190848998Y-107663340D01*
X190848998Y-107663340D02*
X190313539Y-106785859D01*
X190025950Y-106979441D02*
X189965947Y-106948868D01*
X189965947Y-106948868D02*
X189860655Y-106933009D01*
X189860655Y-106933009D02*
X189634213Y-107006585D01*
X189634213Y-107006585D02*
X189558351Y-107081303D01*
X189558351Y-107081303D02*
X189527778Y-107141307D01*
X189527778Y-107141307D02*
X189511919Y-107246599D01*
X189511919Y-107246599D02*
X189541350Y-107337176D01*
X189541350Y-107337176D02*
X189630783Y-107458326D01*
X189630783Y-107458326D02*
X190350825Y-107825206D01*
X190350825Y-107825206D02*
X189762076Y-108016502D01*
X189042034Y-107649622D02*
X189117896Y-107574903D01*
X189117896Y-107574903D02*
X189148469Y-107514900D01*
X189148469Y-107514900D02*
X189164327Y-107409608D01*
X189164327Y-107409608D02*
X189149612Y-107364320D01*
X189149612Y-107364320D02*
X189074894Y-107288458D01*
X189074894Y-107288458D02*
X189014890Y-107257885D01*
X189014890Y-107257885D02*
X188909598Y-107242026D01*
X188909598Y-107242026D02*
X188728445Y-107300887D01*
X188728445Y-107300887D02*
X188652583Y-107375605D01*
X188652583Y-107375605D02*
X188622010Y-107435609D01*
X188622010Y-107435609D02*
X188606151Y-107540901D01*
X188606151Y-107540901D02*
X188620866Y-107586189D01*
X188620866Y-107586189D02*
X188695585Y-107662051D01*
X188695585Y-107662051D02*
X188755589Y-107692624D01*
X188755589Y-107692624D02*
X188860880Y-107708482D01*
X188860880Y-107708482D02*
X189042034Y-107649622D01*
X189042034Y-107649622D02*
X189147326Y-107665480D01*
X189147326Y-107665480D02*
X189207329Y-107696054D01*
X189207329Y-107696054D02*
X189282048Y-107771915D01*
X189282048Y-107771915D02*
X189340908Y-107953069D01*
X189340908Y-107953069D02*
X189325050Y-108058361D01*
X189325050Y-108058361D02*
X189294477Y-108118364D01*
X189294477Y-108118364D02*
X189218615Y-108193083D01*
X189218615Y-108193083D02*
X189037462Y-108251943D01*
X189037462Y-108251943D02*
X188932170Y-108236085D01*
X188932170Y-108236085D02*
X188872166Y-108205512D01*
X188872166Y-108205512D02*
X188797448Y-108129650D01*
X188797448Y-108129650D02*
X188738587Y-107948496D01*
X188738587Y-107948496D02*
X188754445Y-107843205D01*
X188754445Y-107843205D02*
X188785019Y-107783201D01*
X188785019Y-107783201D02*
X188860880Y-107708482D01*
X208104612Y-97590468D02*
X207983462Y-97679902D01*
X207983462Y-97679902D02*
X207757019Y-97753477D01*
X207757019Y-97753477D02*
X207651728Y-97737619D01*
X207651728Y-97737619D02*
X207591724Y-97707046D01*
X207591724Y-97707046D02*
X207517005Y-97631184D01*
X207517005Y-97631184D02*
X207487575Y-97540607D01*
X207487575Y-97540607D02*
X207503434Y-97435315D01*
X207503434Y-97435315D02*
X207534007Y-97375312D01*
X207534007Y-97375312D02*
X207609869Y-97300593D01*
X207609869Y-97300593D02*
X207776307Y-97196444D01*
X207776307Y-97196444D02*
X207852169Y-97121726D01*
X207852169Y-97121726D02*
X207882742Y-97061722D01*
X207882742Y-97061722D02*
X207898600Y-96956430D01*
X207898600Y-96956430D02*
X207869170Y-96865854D01*
X207869170Y-96865854D02*
X207794452Y-96789992D01*
X207794452Y-96789992D02*
X207734448Y-96759419D01*
X207734448Y-96759419D02*
X207629156Y-96743560D01*
X207629156Y-96743560D02*
X207402714Y-96817136D01*
X207402714Y-96817136D02*
X207281564Y-96906570D01*
X206949830Y-96964287D02*
X207032405Y-97988919D01*
X207032405Y-97988919D02*
X206630525Y-97368453D01*
X206630525Y-97368453D02*
X206670098Y-98106640D01*
X206670098Y-98106640D02*
X206134639Y-97229159D01*
X205862908Y-97317449D02*
X205274159Y-97508745D01*
X205274159Y-97508745D02*
X205708899Y-97768047D01*
X205708899Y-97768047D02*
X205573033Y-97812192D01*
X205573033Y-97812192D02*
X205497172Y-97886911D01*
X205497172Y-97886911D02*
X205466598Y-97946914D01*
X205466598Y-97946914D02*
X205450740Y-98052206D01*
X205450740Y-98052206D02*
X205524316Y-98278648D01*
X205524316Y-98278648D02*
X205599034Y-98354510D01*
X205599034Y-98354510D02*
X205659038Y-98385083D01*
X205659038Y-98385083D02*
X205764330Y-98400941D01*
X205764330Y-98400941D02*
X206036060Y-98312651D01*
X206036060Y-98312651D02*
X206111922Y-98237932D01*
X206111922Y-98237932D02*
X206142495Y-98177929D01*
X204941282Y-97717043D02*
X204881279Y-97686470D01*
X204881279Y-97686470D02*
X204775987Y-97670611D01*
X204775987Y-97670611D02*
X204549545Y-97744187D01*
X204549545Y-97744187D02*
X204473683Y-97818905D01*
X204473683Y-97818905D02*
X204443110Y-97878909D01*
X204443110Y-97878909D02*
X204427251Y-97984201D01*
X204427251Y-97984201D02*
X204456682Y-98074778D01*
X204456682Y-98074778D02*
X204546115Y-98195928D01*
X204546115Y-98195928D02*
X205266157Y-98562807D01*
X205266157Y-98562807D02*
X204677408Y-98754104D01*
X226521512Y-96022568D02*
X226400362Y-96112002D01*
X226400362Y-96112002D02*
X226173919Y-96185577D01*
X226173919Y-96185577D02*
X226068628Y-96169719D01*
X226068628Y-96169719D02*
X226008624Y-96139146D01*
X226008624Y-96139146D02*
X225933905Y-96063284D01*
X225933905Y-96063284D02*
X225904475Y-95972707D01*
X225904475Y-95972707D02*
X225920334Y-95867415D01*
X225920334Y-95867415D02*
X225950907Y-95807412D01*
X225950907Y-95807412D02*
X226026769Y-95732693D01*
X226026769Y-95732693D02*
X226193207Y-95628544D01*
X226193207Y-95628544D02*
X226269069Y-95553826D01*
X226269069Y-95553826D02*
X226299642Y-95493822D01*
X226299642Y-95493822D02*
X226315500Y-95388530D01*
X226315500Y-95388530D02*
X226286070Y-95297954D01*
X226286070Y-95297954D02*
X226211352Y-95222092D01*
X226211352Y-95222092D02*
X226151348Y-95191519D01*
X226151348Y-95191519D02*
X226046056Y-95175660D01*
X226046056Y-95175660D02*
X225819614Y-95249236D01*
X225819614Y-95249236D02*
X225698464Y-95338670D01*
X225366730Y-95396387D02*
X225449305Y-96421019D01*
X225449305Y-96421019D02*
X225047425Y-95800553D01*
X225047425Y-95800553D02*
X225086998Y-96538740D01*
X225086998Y-96538740D02*
X224551539Y-95661259D01*
X224279808Y-95749549D02*
X223691059Y-95940845D01*
X223691059Y-95940845D02*
X224125799Y-96200147D01*
X224125799Y-96200147D02*
X223989933Y-96244292D01*
X223989933Y-96244292D02*
X223914072Y-96319011D01*
X223914072Y-96319011D02*
X223883498Y-96379014D01*
X223883498Y-96379014D02*
X223867640Y-96484306D01*
X223867640Y-96484306D02*
X223941216Y-96710748D01*
X223941216Y-96710748D02*
X224015934Y-96786610D01*
X224015934Y-96786610D02*
X224075938Y-96817183D01*
X224075938Y-96817183D02*
X224181230Y-96833041D01*
X224181230Y-96833041D02*
X224452960Y-96744751D01*
X224452960Y-96744751D02*
X224528822Y-96670032D01*
X224528822Y-96670032D02*
X224559395Y-96610029D01*
X222875868Y-96205717D02*
X223057021Y-96146857D01*
X223057021Y-96146857D02*
X223162313Y-96162715D01*
X223162313Y-96162715D02*
X223222317Y-96193288D01*
X223222317Y-96193288D02*
X223357039Y-96299723D01*
X223357039Y-96299723D02*
X223461188Y-96466162D01*
X223461188Y-96466162D02*
X223578908Y-96828469D01*
X223578908Y-96828469D02*
X223563050Y-96933761D01*
X223563050Y-96933761D02*
X223532477Y-96993764D01*
X223532477Y-96993764D02*
X223456615Y-97068483D01*
X223456615Y-97068483D02*
X223275462Y-97127343D01*
X223275462Y-97127343D02*
X223170170Y-97111485D01*
X223170170Y-97111485D02*
X223110166Y-97080912D01*
X223110166Y-97080912D02*
X223035448Y-97005050D01*
X223035448Y-97005050D02*
X222961872Y-96778608D01*
X222961872Y-96778608D02*
X222977730Y-96673316D01*
X222977730Y-96673316D02*
X223008304Y-96613313D01*
X223008304Y-96613313D02*
X223084165Y-96538594D01*
X223084165Y-96538594D02*
X223265319Y-96479734D01*
X223265319Y-96479734D02*
X223370611Y-96495592D01*
X223370611Y-96495592D02*
X223430614Y-96526165D01*
X223430614Y-96526165D02*
X223505333Y-96602027D01*
X244938412Y-94454668D02*
X244817262Y-94544102D01*
X244817262Y-94544102D02*
X244590819Y-94617677D01*
X244590819Y-94617677D02*
X244485528Y-94601819D01*
X244485528Y-94601819D02*
X244425524Y-94571246D01*
X244425524Y-94571246D02*
X244350805Y-94495384D01*
X244350805Y-94495384D02*
X244321375Y-94404807D01*
X244321375Y-94404807D02*
X244337234Y-94299515D01*
X244337234Y-94299515D02*
X244367807Y-94239512D01*
X244367807Y-94239512D02*
X244443669Y-94164793D01*
X244443669Y-94164793D02*
X244610107Y-94060644D01*
X244610107Y-94060644D02*
X244685969Y-93985926D01*
X244685969Y-93985926D02*
X244716542Y-93925922D01*
X244716542Y-93925922D02*
X244732400Y-93820630D01*
X244732400Y-93820630D02*
X244702970Y-93730054D01*
X244702970Y-93730054D02*
X244628252Y-93654192D01*
X244628252Y-93654192D02*
X244568248Y-93623619D01*
X244568248Y-93623619D02*
X244462956Y-93607760D01*
X244462956Y-93607760D02*
X244236514Y-93681336D01*
X244236514Y-93681336D02*
X244115364Y-93770770D01*
X243783630Y-93828487D02*
X243866205Y-94853119D01*
X243866205Y-94853119D02*
X243464325Y-94232653D01*
X243464325Y-94232653D02*
X243503898Y-94970840D01*
X243503898Y-94970840D02*
X242968439Y-94093359D01*
X242696708Y-94181649D02*
X242107959Y-94372945D01*
X242107959Y-94372945D02*
X242542699Y-94632247D01*
X242542699Y-94632247D02*
X242406833Y-94676392D01*
X242406833Y-94676392D02*
X242330972Y-94751111D01*
X242330972Y-94751111D02*
X242300398Y-94811114D01*
X242300398Y-94811114D02*
X242284540Y-94916406D01*
X242284540Y-94916406D02*
X242358116Y-95142848D01*
X242358116Y-95142848D02*
X242432834Y-95218710D01*
X242432834Y-95218710D02*
X242492838Y-95249283D01*
X242492838Y-95249283D02*
X242598130Y-95265141D01*
X242598130Y-95265141D02*
X242869860Y-95176851D01*
X242869860Y-95176851D02*
X242945722Y-95102132D01*
X242945722Y-95102132D02*
X242976295Y-95042129D01*
X241964092Y-95471153D02*
X241782938Y-95530013D01*
X241782938Y-95530013D02*
X241677646Y-95514155D01*
X241677646Y-95514155D02*
X241617643Y-95483582D01*
X241617643Y-95483582D02*
X241482921Y-95377147D01*
X241482921Y-95377147D02*
X241378772Y-95210708D01*
X241378772Y-95210708D02*
X241261051Y-94848401D01*
X241261051Y-94848401D02*
X241276910Y-94743109D01*
X241276910Y-94743109D02*
X241307483Y-94683105D01*
X241307483Y-94683105D02*
X241383345Y-94608387D01*
X241383345Y-94608387D02*
X241564498Y-94549526D01*
X241564498Y-94549526D02*
X241669790Y-94565385D01*
X241669790Y-94565385D02*
X241729794Y-94595958D01*
X241729794Y-94595958D02*
X241804512Y-94671820D01*
X241804512Y-94671820D02*
X241878088Y-94898262D01*
X241878088Y-94898262D02*
X241862229Y-95003554D01*
X241862229Y-95003554D02*
X241831656Y-95063557D01*
X241831656Y-95063557D02*
X241755794Y-95138276D01*
X241755794Y-95138276D02*
X241574641Y-95197136D01*
X241574641Y-95197136D02*
X241469349Y-95181278D01*
X241469349Y-95181278D02*
X241409345Y-95150705D01*
X241409345Y-95150705D02*
X241334627Y-95074843D01*
X263355312Y-92886868D02*
X263234162Y-92976302D01*
X263234162Y-92976302D02*
X263007719Y-93049877D01*
X263007719Y-93049877D02*
X262902428Y-93034019D01*
X262902428Y-93034019D02*
X262842424Y-93003446D01*
X262842424Y-93003446D02*
X262767705Y-92927584D01*
X262767705Y-92927584D02*
X262738275Y-92837007D01*
X262738275Y-92837007D02*
X262754134Y-92731715D01*
X262754134Y-92731715D02*
X262784707Y-92671712D01*
X262784707Y-92671712D02*
X262860569Y-92596993D01*
X262860569Y-92596993D02*
X263027007Y-92492844D01*
X263027007Y-92492844D02*
X263102869Y-92418126D01*
X263102869Y-92418126D02*
X263133442Y-92358122D01*
X263133442Y-92358122D02*
X263149300Y-92252830D01*
X263149300Y-92252830D02*
X263119870Y-92162254D01*
X263119870Y-92162254D02*
X263045152Y-92086392D01*
X263045152Y-92086392D02*
X262985148Y-92055819D01*
X262985148Y-92055819D02*
X262879856Y-92039960D01*
X262879856Y-92039960D02*
X262653414Y-92113536D01*
X262653414Y-92113536D02*
X262532264Y-92202970D01*
X262200530Y-92260687D02*
X262283105Y-93285319D01*
X262283105Y-93285319D02*
X261881225Y-92664853D01*
X261881225Y-92664853D02*
X261920798Y-93403040D01*
X261920798Y-93403040D02*
X261385339Y-92525559D01*
X260718442Y-93092734D02*
X260924453Y-93726772D01*
X260827163Y-92656851D02*
X261274331Y-93262602D01*
X261274331Y-93262602D02*
X260685582Y-93453898D01*
X260191982Y-93013443D02*
X260131979Y-92982870D01*
X260131979Y-92982870D02*
X260026687Y-92967011D01*
X260026687Y-92967011D02*
X259800245Y-93040587D01*
X259800245Y-93040587D02*
X259724383Y-93115305D01*
X259724383Y-93115305D02*
X259693810Y-93175309D01*
X259693810Y-93175309D02*
X259677951Y-93280601D01*
X259677951Y-93280601D02*
X259707382Y-93371178D01*
X259707382Y-93371178D02*
X259796815Y-93492328D01*
X259796815Y-93492328D02*
X260516857Y-93859207D01*
X260516857Y-93859207D02*
X259928108Y-94050504D01*
X30967432Y-74599894D02*
X30816851Y-74601037D01*
X30816851Y-74601037D02*
X30590409Y-74527462D01*
X30590409Y-74527462D02*
X30514548Y-74452743D01*
X30514548Y-74452743D02*
X30483974Y-74392740D01*
X30483974Y-74392740D02*
X30468116Y-74287448D01*
X30468116Y-74287448D02*
X30497546Y-74196871D01*
X30497546Y-74196871D02*
X30572265Y-74121009D01*
X30572265Y-74121009D02*
X30632268Y-74090436D01*
X30632268Y-74090436D02*
X30737560Y-74074578D01*
X30737560Y-74074578D02*
X30933429Y-74088150D01*
X30933429Y-74088150D02*
X31038721Y-74072292D01*
X31038721Y-74072292D02*
X31098724Y-74041718D01*
X31098724Y-74041718D02*
X31173443Y-73965857D01*
X31173443Y-73965857D02*
X31202873Y-73875280D01*
X31202873Y-73875280D02*
X31187015Y-73769988D01*
X31187015Y-73769988D02*
X31156442Y-73709984D01*
X31156442Y-73709984D02*
X31080580Y-73635266D01*
X31080580Y-73635266D02*
X30854138Y-73561690D01*
X30854138Y-73561690D02*
X30703558Y-73562833D01*
X30401254Y-73414539D02*
X29865795Y-74292020D01*
X29865795Y-74292020D02*
X29905368Y-73553834D01*
X29905368Y-73553834D02*
X29503488Y-74174300D01*
X29503488Y-74174300D02*
X29586062Y-73149668D01*
X29239614Y-73137239D02*
X29209040Y-73077235D01*
X29209040Y-73077235D02*
X29133179Y-73002517D01*
X29133179Y-73002517D02*
X28906737Y-72928941D01*
X28906737Y-72928941D02*
X28801445Y-72944799D01*
X28801445Y-72944799D02*
X28741441Y-72975373D01*
X28741441Y-72975373D02*
X28666723Y-73051234D01*
X28666723Y-73051234D02*
X28637292Y-73141811D01*
X28637292Y-73141811D02*
X28638435Y-73292392D01*
X28638435Y-73292392D02*
X29005315Y-74012434D01*
X29005315Y-74012434D02*
X28416566Y-73821137D01*
X49384332Y-76167794D02*
X49233751Y-76168937D01*
X49233751Y-76168937D02*
X49007309Y-76095362D01*
X49007309Y-76095362D02*
X48931448Y-76020643D01*
X48931448Y-76020643D02*
X48900874Y-75960640D01*
X48900874Y-75960640D02*
X48885016Y-75855348D01*
X48885016Y-75855348D02*
X48914446Y-75764771D01*
X48914446Y-75764771D02*
X48989165Y-75688909D01*
X48989165Y-75688909D02*
X49049168Y-75658336D01*
X49049168Y-75658336D02*
X49154460Y-75642478D01*
X49154460Y-75642478D02*
X49350329Y-75656050D01*
X49350329Y-75656050D02*
X49455621Y-75640192D01*
X49455621Y-75640192D02*
X49515624Y-75609618D01*
X49515624Y-75609618D02*
X49590343Y-75533757D01*
X49590343Y-75533757D02*
X49619773Y-75443180D01*
X49619773Y-75443180D02*
X49603915Y-75337888D01*
X49603915Y-75337888D02*
X49573342Y-75277884D01*
X49573342Y-75277884D02*
X49497480Y-75203166D01*
X49497480Y-75203166D02*
X49271038Y-75129590D01*
X49271038Y-75129590D02*
X49120458Y-75130733D01*
X48818154Y-74982439D02*
X48282695Y-75859920D01*
X48282695Y-75859920D02*
X48322268Y-75121734D01*
X48322268Y-75121734D02*
X47920388Y-75742200D01*
X47920388Y-75742200D02*
X48002962Y-74717568D01*
X47187771Y-74452696D02*
X47640655Y-74599847D01*
X47640655Y-74599847D02*
X47538793Y-75067446D01*
X47538793Y-75067446D02*
X47508220Y-75007443D01*
X47508220Y-75007443D02*
X47432358Y-74932724D01*
X47432358Y-74932724D02*
X47205916Y-74859148D01*
X47205916Y-74859148D02*
X47100624Y-74875007D01*
X47100624Y-74875007D02*
X47040620Y-74905580D01*
X47040620Y-74905580D02*
X46965902Y-74981442D01*
X46965902Y-74981442D02*
X46892326Y-75207884D01*
X46892326Y-75207884D02*
X46908185Y-75313176D01*
X46908185Y-75313176D02*
X46938758Y-75373179D01*
X46938758Y-75373179D02*
X47014620Y-75447898D01*
X47014620Y-75447898D02*
X47241062Y-75521473D01*
X47241062Y-75521473D02*
X47346353Y-75505615D01*
X47346353Y-75505615D02*
X47406357Y-75475042D01*
X67801232Y-77735594D02*
X67650651Y-77736737D01*
X67650651Y-77736737D02*
X67424209Y-77663162D01*
X67424209Y-77663162D02*
X67348348Y-77588443D01*
X67348348Y-77588443D02*
X67317774Y-77528440D01*
X67317774Y-77528440D02*
X67301916Y-77423148D01*
X67301916Y-77423148D02*
X67331346Y-77332571D01*
X67331346Y-77332571D02*
X67406065Y-77256709D01*
X67406065Y-77256709D02*
X67466068Y-77226136D01*
X67466068Y-77226136D02*
X67571360Y-77210278D01*
X67571360Y-77210278D02*
X67767229Y-77223850D01*
X67767229Y-77223850D02*
X67872521Y-77207992D01*
X67872521Y-77207992D02*
X67932524Y-77177418D01*
X67932524Y-77177418D02*
X68007243Y-77101557D01*
X68007243Y-77101557D02*
X68036673Y-77010980D01*
X68036673Y-77010980D02*
X68020815Y-76905688D01*
X68020815Y-76905688D02*
X67990242Y-76845684D01*
X67990242Y-76845684D02*
X67914380Y-76770966D01*
X67914380Y-76770966D02*
X67687938Y-76697390D01*
X67687938Y-76697390D02*
X67537358Y-76698533D01*
X67235054Y-76550239D02*
X66699595Y-77427720D01*
X66699595Y-77427720D02*
X66739168Y-76689534D01*
X66739168Y-76689534D02*
X66337288Y-77310000D01*
X66337288Y-77310000D02*
X66419862Y-76285368D01*
X65789254Y-76531097D02*
X65894546Y-76515239D01*
X65894546Y-76515239D02*
X65954550Y-76484666D01*
X65954550Y-76484666D02*
X66029268Y-76408804D01*
X66029268Y-76408804D02*
X66043983Y-76363516D01*
X66043983Y-76363516D02*
X66028125Y-76258224D01*
X66028125Y-76258224D02*
X65997552Y-76198220D01*
X65997552Y-76198220D02*
X65921690Y-76123502D01*
X65921690Y-76123502D02*
X65740537Y-76064641D01*
X65740537Y-76064641D02*
X65635245Y-76080499D01*
X65635245Y-76080499D02*
X65575241Y-76111073D01*
X65575241Y-76111073D02*
X65500523Y-76186934D01*
X65500523Y-76186934D02*
X65485807Y-76232223D01*
X65485807Y-76232223D02*
X65501666Y-76337515D01*
X65501666Y-76337515D02*
X65532239Y-76397518D01*
X65532239Y-76397518D02*
X65608101Y-76472237D01*
X65608101Y-76472237D02*
X65789254Y-76531097D01*
X65789254Y-76531097D02*
X65865116Y-76605816D01*
X65865116Y-76605816D02*
X65895689Y-76665819D01*
X65895689Y-76665819D02*
X65911548Y-76771111D01*
X65911548Y-76771111D02*
X65852687Y-76952265D01*
X65852687Y-76952265D02*
X65777969Y-77028127D01*
X65777969Y-77028127D02*
X65717965Y-77058700D01*
X65717965Y-77058700D02*
X65612673Y-77074558D01*
X65612673Y-77074558D02*
X65431520Y-77015698D01*
X65431520Y-77015698D02*
X65355658Y-76940979D01*
X65355658Y-76940979D02*
X65325085Y-76880976D01*
X65325085Y-76880976D02*
X65309226Y-76775684D01*
X65309226Y-76775684D02*
X65368087Y-76594530D01*
X65368087Y-76594530D02*
X65442805Y-76518668D01*
X65442805Y-76518668D02*
X65502809Y-76488095D01*
X65502809Y-76488095D02*
X65608101Y-76472237D01*
X86671016Y-79450645D02*
X86520436Y-79451788D01*
X86520436Y-79451788D02*
X86293994Y-79378213D01*
X86293994Y-79378213D02*
X86218132Y-79303494D01*
X86218132Y-79303494D02*
X86187559Y-79243491D01*
X86187559Y-79243491D02*
X86171701Y-79138199D01*
X86171701Y-79138199D02*
X86201131Y-79047622D01*
X86201131Y-79047622D02*
X86275849Y-78971760D01*
X86275849Y-78971760D02*
X86335853Y-78941187D01*
X86335853Y-78941187D02*
X86441145Y-78925329D01*
X86441145Y-78925329D02*
X86637014Y-78938901D01*
X86637014Y-78938901D02*
X86742305Y-78923043D01*
X86742305Y-78923043D02*
X86802309Y-78892469D01*
X86802309Y-78892469D02*
X86877028Y-78816608D01*
X86877028Y-78816608D02*
X86906458Y-78726031D01*
X86906458Y-78726031D02*
X86890599Y-78620739D01*
X86890599Y-78620739D02*
X86860026Y-78560735D01*
X86860026Y-78560735D02*
X86784164Y-78486017D01*
X86784164Y-78486017D02*
X86557722Y-78412441D01*
X86557722Y-78412441D02*
X86407142Y-78413584D01*
X86104838Y-78265290D02*
X85569379Y-79142771D01*
X85569379Y-79142771D02*
X85608952Y-78404585D01*
X85608952Y-78404585D02*
X85207072Y-79025051D01*
X85207072Y-79025051D02*
X85289647Y-78000419D01*
X84120150Y-78671888D02*
X84663611Y-78848470D01*
X84391881Y-78760179D02*
X84700898Y-77809122D01*
X84700898Y-77809122D02*
X84747329Y-77974418D01*
X84747329Y-77974418D02*
X84808476Y-78094425D01*
X84808476Y-78094425D02*
X84884338Y-78169143D01*
X83214382Y-78377587D02*
X83757843Y-78554168D01*
X83486113Y-78465877D02*
X83795130Y-77514821D01*
X83795130Y-77514821D02*
X83841561Y-77680116D01*
X83841561Y-77680116D02*
X83902708Y-77800123D01*
X83902708Y-77800123D02*
X83978570Y-77874842D01*
X102492116Y-89007445D02*
X102341536Y-89008588D01*
X102341536Y-89008588D02*
X102115094Y-88935013D01*
X102115094Y-88935013D02*
X102039232Y-88860294D01*
X102039232Y-88860294D02*
X102008659Y-88800291D01*
X102008659Y-88800291D02*
X101992801Y-88694999D01*
X101992801Y-88694999D02*
X102022231Y-88604422D01*
X102022231Y-88604422D02*
X102096949Y-88528560D01*
X102096949Y-88528560D02*
X102156953Y-88497987D01*
X102156953Y-88497987D02*
X102262245Y-88482129D01*
X102262245Y-88482129D02*
X102458114Y-88495701D01*
X102458114Y-88495701D02*
X102563405Y-88479843D01*
X102563405Y-88479843D02*
X102623409Y-88449269D01*
X102623409Y-88449269D02*
X102698128Y-88373408D01*
X102698128Y-88373408D02*
X102727558Y-88282831D01*
X102727558Y-88282831D02*
X102711699Y-88177539D01*
X102711699Y-88177539D02*
X102681126Y-88117535D01*
X102681126Y-88117535D02*
X102605264Y-88042817D01*
X102605264Y-88042817D02*
X102378822Y-87969241D01*
X102378822Y-87969241D02*
X102228242Y-87970384D01*
X101925938Y-87822090D02*
X101390479Y-88699571D01*
X101390479Y-88699571D02*
X101430052Y-87961385D01*
X101430052Y-87961385D02*
X101028172Y-88581851D01*
X101028172Y-88581851D02*
X101110747Y-87557219D01*
X99941250Y-88228688D02*
X100484711Y-88405270D01*
X100212981Y-88316979D02*
X100521998Y-87365922D01*
X100521998Y-87365922D02*
X100568429Y-87531218D01*
X100568429Y-87531218D02*
X100629576Y-87651225D01*
X100629576Y-87651225D02*
X100705438Y-87725943D01*
X99389788Y-86998045D02*
X99842672Y-87145196D01*
X99842672Y-87145196D02*
X99740809Y-87612795D01*
X99740809Y-87612795D02*
X99710236Y-87552792D01*
X99710236Y-87552792D02*
X99634374Y-87478073D01*
X99634374Y-87478073D02*
X99407932Y-87404498D01*
X99407932Y-87404498D02*
X99302640Y-87420356D01*
X99302640Y-87420356D02*
X99242637Y-87450929D01*
X99242637Y-87450929D02*
X99167918Y-87526791D01*
X99167918Y-87526791D02*
X99094343Y-87753233D01*
X99094343Y-87753233D02*
X99110201Y-87858525D01*
X99110201Y-87858525D02*
X99140774Y-87918528D01*
X99140774Y-87918528D02*
X99216636Y-87993247D01*
X99216636Y-87993247D02*
X99443078Y-88066822D01*
X99443078Y-88066822D02*
X99548370Y-88050964D01*
X99548370Y-88050964D02*
X99608373Y-88020391D01*
X118313316Y-98564145D02*
X118162736Y-98565288D01*
X118162736Y-98565288D02*
X117936294Y-98491713D01*
X117936294Y-98491713D02*
X117860432Y-98416994D01*
X117860432Y-98416994D02*
X117829859Y-98356991D01*
X117829859Y-98356991D02*
X117814001Y-98251699D01*
X117814001Y-98251699D02*
X117843431Y-98161122D01*
X117843431Y-98161122D02*
X117918149Y-98085260D01*
X117918149Y-98085260D02*
X117978153Y-98054687D01*
X117978153Y-98054687D02*
X118083445Y-98038829D01*
X118083445Y-98038829D02*
X118279314Y-98052401D01*
X118279314Y-98052401D02*
X118384605Y-98036543D01*
X118384605Y-98036543D02*
X118444609Y-98005969D01*
X118444609Y-98005969D02*
X118519328Y-97930108D01*
X118519328Y-97930108D02*
X118548758Y-97839531D01*
X118548758Y-97839531D02*
X118532899Y-97734239D01*
X118532899Y-97734239D02*
X118502326Y-97674235D01*
X118502326Y-97674235D02*
X118426464Y-97599517D01*
X118426464Y-97599517D02*
X118200022Y-97525941D01*
X118200022Y-97525941D02*
X118049442Y-97527084D01*
X117747138Y-97378790D02*
X117211679Y-98256271D01*
X117211679Y-98256271D02*
X117251252Y-97518085D01*
X117251252Y-97518085D02*
X116849372Y-98138551D01*
X116849372Y-98138551D02*
X116931947Y-97113919D01*
X115762450Y-97785388D02*
X116305911Y-97961970D01*
X116034181Y-97873679D02*
X116343198Y-96922622D01*
X116343198Y-96922622D02*
X116389629Y-97087918D01*
X116389629Y-97087918D02*
X116450776Y-97207925D01*
X116450776Y-97207925D02*
X116526638Y-97282643D01*
X115309566Y-97638237D02*
X115128413Y-97579377D01*
X115128413Y-97579377D02*
X115052551Y-97504658D01*
X115052551Y-97504658D02*
X115021978Y-97444655D01*
X115021978Y-97444655D02*
X114975546Y-97279360D01*
X114975546Y-97279360D02*
X114989118Y-97083491D01*
X114989118Y-97083491D02*
X115106839Y-96721184D01*
X115106839Y-96721184D02*
X115181558Y-96645322D01*
X115181558Y-96645322D02*
X115241561Y-96614749D01*
X115241561Y-96614749D02*
X115346853Y-96598890D01*
X115346853Y-96598890D02*
X115528007Y-96657751D01*
X115528007Y-96657751D02*
X115603868Y-96732469D01*
X115603868Y-96732469D02*
X115634442Y-96792473D01*
X115634442Y-96792473D02*
X115650300Y-96897765D01*
X115650300Y-96897765D02*
X115576724Y-97124207D01*
X115576724Y-97124207D02*
X115502006Y-97200069D01*
X115502006Y-97200069D02*
X115442002Y-97230642D01*
X115442002Y-97230642D02*
X115336710Y-97246500D01*
X115336710Y-97246500D02*
X115155557Y-97187640D01*
X115155557Y-97187640D02*
X115079695Y-97112921D01*
X115079695Y-97112921D02*
X115049122Y-97052918D01*
X115049122Y-97052918D02*
X115033263Y-96947626D01*
X171209112Y-100535968D02*
X171087962Y-100625402D01*
X171087962Y-100625402D02*
X170861519Y-100698977D01*
X170861519Y-100698977D02*
X170756228Y-100683119D01*
X170756228Y-100683119D02*
X170696224Y-100652546D01*
X170696224Y-100652546D02*
X170621505Y-100576684D01*
X170621505Y-100576684D02*
X170592075Y-100486107D01*
X170592075Y-100486107D02*
X170607934Y-100380815D01*
X170607934Y-100380815D02*
X170638507Y-100320812D01*
X170638507Y-100320812D02*
X170714369Y-100246093D01*
X170714369Y-100246093D02*
X170880807Y-100141944D01*
X170880807Y-100141944D02*
X170956669Y-100067226D01*
X170956669Y-100067226D02*
X170987242Y-100007222D01*
X170987242Y-100007222D02*
X171003100Y-99901930D01*
X171003100Y-99901930D02*
X170973670Y-99811354D01*
X170973670Y-99811354D02*
X170898952Y-99735492D01*
X170898952Y-99735492D02*
X170838948Y-99704919D01*
X170838948Y-99704919D02*
X170733656Y-99689060D01*
X170733656Y-99689060D02*
X170507214Y-99762636D01*
X170507214Y-99762636D02*
X170386064Y-99852070D01*
X170054330Y-99909787D02*
X170136905Y-100934419D01*
X170136905Y-100934419D02*
X169735025Y-100313953D01*
X169735025Y-100313953D02*
X169774598Y-101052140D01*
X169774598Y-101052140D02*
X169239139Y-100174659D01*
X168951550Y-100368241D02*
X168891547Y-100337668D01*
X168891547Y-100337668D02*
X168786255Y-100321809D01*
X168786255Y-100321809D02*
X168559813Y-100395385D01*
X168559813Y-100395385D02*
X168483951Y-100470103D01*
X168483951Y-100470103D02*
X168453378Y-100530107D01*
X168453378Y-100530107D02*
X168437519Y-100635399D01*
X168437519Y-100635399D02*
X168466950Y-100725976D01*
X168466950Y-100725976D02*
X168556383Y-100847126D01*
X168556383Y-100847126D02*
X169276425Y-101214006D01*
X169276425Y-101214006D02*
X168687676Y-101405302D01*
X168061640Y-100557251D02*
X167472891Y-100748547D01*
X167472891Y-100748547D02*
X167907631Y-101007849D01*
X167907631Y-101007849D02*
X167771765Y-101051994D01*
X167771765Y-101051994D02*
X167695904Y-101126713D01*
X167695904Y-101126713D02*
X167665330Y-101186716D01*
X167665330Y-101186716D02*
X167649472Y-101292008D01*
X167649472Y-101292008D02*
X167723048Y-101518450D01*
X167723048Y-101518450D02*
X167797766Y-101594312D01*
X167797766Y-101594312D02*
X167857770Y-101624885D01*
X167857770Y-101624885D02*
X167963062Y-101640743D01*
X167963062Y-101640743D02*
X168234792Y-101552453D01*
X168234792Y-101552453D02*
X168310654Y-101477734D01*
X168310654Y-101477734D02*
X168341227Y-101417731D01*
X187030212Y-90979268D02*
X186909062Y-91068702D01*
X186909062Y-91068702D02*
X186682619Y-91142277D01*
X186682619Y-91142277D02*
X186577328Y-91126419D01*
X186577328Y-91126419D02*
X186517324Y-91095846D01*
X186517324Y-91095846D02*
X186442605Y-91019984D01*
X186442605Y-91019984D02*
X186413175Y-90929407D01*
X186413175Y-90929407D02*
X186429034Y-90824115D01*
X186429034Y-90824115D02*
X186459607Y-90764112D01*
X186459607Y-90764112D02*
X186535469Y-90689393D01*
X186535469Y-90689393D02*
X186701907Y-90585244D01*
X186701907Y-90585244D02*
X186777769Y-90510526D01*
X186777769Y-90510526D02*
X186808342Y-90450522D01*
X186808342Y-90450522D02*
X186824200Y-90345230D01*
X186824200Y-90345230D02*
X186794770Y-90254654D01*
X186794770Y-90254654D02*
X186720052Y-90178792D01*
X186720052Y-90178792D02*
X186660048Y-90148219D01*
X186660048Y-90148219D02*
X186554756Y-90132360D01*
X186554756Y-90132360D02*
X186328314Y-90205936D01*
X186328314Y-90205936D02*
X186207164Y-90295370D01*
X185875430Y-90353087D02*
X185958005Y-91377719D01*
X185958005Y-91377719D02*
X185556125Y-90757253D01*
X185556125Y-90757253D02*
X185595698Y-91495440D01*
X185595698Y-91495440D02*
X185060239Y-90617959D01*
X184772650Y-90811541D02*
X184712647Y-90780968D01*
X184712647Y-90780968D02*
X184607355Y-90765109D01*
X184607355Y-90765109D02*
X184380913Y-90838685D01*
X184380913Y-90838685D02*
X184305051Y-90913403D01*
X184305051Y-90913403D02*
X184274478Y-90973407D01*
X184274478Y-90973407D02*
X184258619Y-91078699D01*
X184258619Y-91078699D02*
X184288050Y-91169276D01*
X184288050Y-91169276D02*
X184377483Y-91290426D01*
X184377483Y-91290426D02*
X185097525Y-91657306D01*
X185097525Y-91657306D02*
X184508776Y-91848602D01*
X183882740Y-91000551D02*
X183248703Y-91206562D01*
X183248703Y-91206562D02*
X183965315Y-92025183D01*
X202851412Y-81422468D02*
X202730262Y-81511902D01*
X202730262Y-81511902D02*
X202503819Y-81585477D01*
X202503819Y-81585477D02*
X202398528Y-81569619D01*
X202398528Y-81569619D02*
X202338524Y-81539046D01*
X202338524Y-81539046D02*
X202263805Y-81463184D01*
X202263805Y-81463184D02*
X202234375Y-81372607D01*
X202234375Y-81372607D02*
X202250234Y-81267315D01*
X202250234Y-81267315D02*
X202280807Y-81207312D01*
X202280807Y-81207312D02*
X202356669Y-81132593D01*
X202356669Y-81132593D02*
X202523107Y-81028444D01*
X202523107Y-81028444D02*
X202598969Y-80953726D01*
X202598969Y-80953726D02*
X202629542Y-80893722D01*
X202629542Y-80893722D02*
X202645400Y-80788430D01*
X202645400Y-80788430D02*
X202615970Y-80697854D01*
X202615970Y-80697854D02*
X202541252Y-80621992D01*
X202541252Y-80621992D02*
X202481248Y-80591419D01*
X202481248Y-80591419D02*
X202375956Y-80575560D01*
X202375956Y-80575560D02*
X202149514Y-80649136D01*
X202149514Y-80649136D02*
X202028364Y-80738570D01*
X201696630Y-80796287D02*
X201779205Y-81820919D01*
X201779205Y-81820919D02*
X201377325Y-81200453D01*
X201377325Y-81200453D02*
X201416898Y-81938640D01*
X201416898Y-81938640D02*
X200881439Y-81061159D01*
X200609708Y-81149449D02*
X200020959Y-81340745D01*
X200020959Y-81340745D02*
X200455699Y-81600047D01*
X200455699Y-81600047D02*
X200319833Y-81644192D01*
X200319833Y-81644192D02*
X200243972Y-81718911D01*
X200243972Y-81718911D02*
X200213398Y-81778914D01*
X200213398Y-81778914D02*
X200197540Y-81884206D01*
X200197540Y-81884206D02*
X200271116Y-82110648D01*
X200271116Y-82110648D02*
X200345834Y-82186510D01*
X200345834Y-82186510D02*
X200405838Y-82217083D01*
X200405838Y-82217083D02*
X200511130Y-82232941D01*
X200511130Y-82232941D02*
X200782860Y-82144651D01*
X200782860Y-82144651D02*
X200858722Y-82069932D01*
X200858722Y-82069932D02*
X200889295Y-82009929D01*
X199424208Y-82586104D02*
X199967669Y-82409523D01*
X199695938Y-82497813D02*
X199386921Y-81546757D01*
X199386921Y-81546757D02*
X199521643Y-81653192D01*
X199521643Y-81653192D02*
X199641650Y-81714338D01*
X199641650Y-81714338D02*
X199746942Y-81730196D01*
X221268212Y-79854568D02*
X221147062Y-79944002D01*
X221147062Y-79944002D02*
X220920619Y-80017577D01*
X220920619Y-80017577D02*
X220815328Y-80001719D01*
X220815328Y-80001719D02*
X220755324Y-79971146D01*
X220755324Y-79971146D02*
X220680605Y-79895284D01*
X220680605Y-79895284D02*
X220651175Y-79804707D01*
X220651175Y-79804707D02*
X220667034Y-79699415D01*
X220667034Y-79699415D02*
X220697607Y-79639412D01*
X220697607Y-79639412D02*
X220773469Y-79564693D01*
X220773469Y-79564693D02*
X220939907Y-79460544D01*
X220939907Y-79460544D02*
X221015769Y-79385826D01*
X221015769Y-79385826D02*
X221046342Y-79325822D01*
X221046342Y-79325822D02*
X221062200Y-79220530D01*
X221062200Y-79220530D02*
X221032770Y-79129954D01*
X221032770Y-79129954D02*
X220958052Y-79054092D01*
X220958052Y-79054092D02*
X220898048Y-79023519D01*
X220898048Y-79023519D02*
X220792756Y-79007660D01*
X220792756Y-79007660D02*
X220566314Y-79081236D01*
X220566314Y-79081236D02*
X220445164Y-79170670D01*
X220113430Y-79228387D02*
X220196005Y-80253019D01*
X220196005Y-80253019D02*
X219794125Y-79632553D01*
X219794125Y-79632553D02*
X219833698Y-80370740D01*
X219833698Y-80370740D02*
X219298239Y-79493259D01*
X219026508Y-79581549D02*
X218437759Y-79772845D01*
X218437759Y-79772845D02*
X218872499Y-80032147D01*
X218872499Y-80032147D02*
X218736633Y-80076292D01*
X218736633Y-80076292D02*
X218660772Y-80151011D01*
X218660772Y-80151011D02*
X218630198Y-80211014D01*
X218630198Y-80211014D02*
X218614340Y-80316306D01*
X218614340Y-80316306D02*
X218687916Y-80542748D01*
X218687916Y-80542748D02*
X218762634Y-80618610D01*
X218762634Y-80618610D02*
X218822638Y-80649183D01*
X218822638Y-80649183D02*
X218927930Y-80665041D01*
X218927930Y-80665041D02*
X219199660Y-80576751D01*
X219199660Y-80576751D02*
X219275522Y-80502032D01*
X219275522Y-80502032D02*
X219306095Y-80442029D01*
X217577279Y-80052432D02*
X218030163Y-79905281D01*
X218030163Y-79905281D02*
X218222603Y-80343450D01*
X218222603Y-80343450D02*
X218162599Y-80312877D01*
X218162599Y-80312877D02*
X218057307Y-80297019D01*
X218057307Y-80297019D02*
X217830865Y-80370594D01*
X217830865Y-80370594D02*
X217755004Y-80445313D01*
X217755004Y-80445313D02*
X217724430Y-80505316D01*
X217724430Y-80505316D02*
X217708572Y-80610608D01*
X217708572Y-80610608D02*
X217782148Y-80837050D01*
X217782148Y-80837050D02*
X217856866Y-80912912D01*
X217856866Y-80912912D02*
X217916870Y-80943485D01*
X217916870Y-80943485D02*
X218022162Y-80959343D01*
X218022162Y-80959343D02*
X218248604Y-80885768D01*
X218248604Y-80885768D02*
X218324465Y-80811049D01*
X218324465Y-80811049D02*
X218355039Y-80751046D01*
X239685112Y-78286768D02*
X239563962Y-78376202D01*
X239563962Y-78376202D02*
X239337519Y-78449777D01*
X239337519Y-78449777D02*
X239232228Y-78433919D01*
X239232228Y-78433919D02*
X239172224Y-78403346D01*
X239172224Y-78403346D02*
X239097505Y-78327484D01*
X239097505Y-78327484D02*
X239068075Y-78236907D01*
X239068075Y-78236907D02*
X239083934Y-78131615D01*
X239083934Y-78131615D02*
X239114507Y-78071612D01*
X239114507Y-78071612D02*
X239190369Y-77996893D01*
X239190369Y-77996893D02*
X239356807Y-77892744D01*
X239356807Y-77892744D02*
X239432669Y-77818026D01*
X239432669Y-77818026D02*
X239463242Y-77758022D01*
X239463242Y-77758022D02*
X239479100Y-77652730D01*
X239479100Y-77652730D02*
X239449670Y-77562154D01*
X239449670Y-77562154D02*
X239374952Y-77486292D01*
X239374952Y-77486292D02*
X239314948Y-77455719D01*
X239314948Y-77455719D02*
X239209656Y-77439860D01*
X239209656Y-77439860D02*
X238983214Y-77513436D01*
X238983214Y-77513436D02*
X238862064Y-77602870D01*
X238530330Y-77660587D02*
X238612905Y-78685219D01*
X238612905Y-78685219D02*
X238211025Y-78064753D01*
X238211025Y-78064753D02*
X238250598Y-78802940D01*
X238250598Y-78802940D02*
X237715139Y-77925459D01*
X237443408Y-78013749D02*
X236854659Y-78205045D01*
X236854659Y-78205045D02*
X237289399Y-78464347D01*
X237289399Y-78464347D02*
X237153533Y-78508492D01*
X237153533Y-78508492D02*
X237077672Y-78583211D01*
X237077672Y-78583211D02*
X237047098Y-78643214D01*
X237047098Y-78643214D02*
X237031240Y-78748506D01*
X237031240Y-78748506D02*
X237104816Y-78974948D01*
X237104816Y-78974948D02*
X237179534Y-79050810D01*
X237179534Y-79050810D02*
X237239538Y-79081383D01*
X237239538Y-79081383D02*
X237344830Y-79097241D01*
X237344830Y-79097241D02*
X237616560Y-79008951D01*
X237616560Y-79008951D02*
X237692422Y-78934232D01*
X237692422Y-78934232D02*
X237722995Y-78874229D01*
X236443634Y-78789222D02*
X236519496Y-78714503D01*
X236519496Y-78714503D02*
X236550069Y-78654500D01*
X236550069Y-78654500D02*
X236565927Y-78549208D01*
X236565927Y-78549208D02*
X236551212Y-78503920D01*
X236551212Y-78503920D02*
X236476494Y-78428058D01*
X236476494Y-78428058D02*
X236416490Y-78397485D01*
X236416490Y-78397485D02*
X236311198Y-78381626D01*
X236311198Y-78381626D02*
X236130045Y-78440487D01*
X236130045Y-78440487D02*
X236054183Y-78515205D01*
X236054183Y-78515205D02*
X236023610Y-78575209D01*
X236023610Y-78575209D02*
X236007751Y-78680501D01*
X236007751Y-78680501D02*
X236022466Y-78725789D01*
X236022466Y-78725789D02*
X236097185Y-78801651D01*
X236097185Y-78801651D02*
X236157189Y-78832224D01*
X236157189Y-78832224D02*
X236262480Y-78848082D01*
X236262480Y-78848082D02*
X236443634Y-78789222D01*
X236443634Y-78789222D02*
X236548926Y-78805080D01*
X236548926Y-78805080D02*
X236608929Y-78835654D01*
X236608929Y-78835654D02*
X236683648Y-78911515D01*
X236683648Y-78911515D02*
X236742508Y-79092669D01*
X236742508Y-79092669D02*
X236726650Y-79197961D01*
X236726650Y-79197961D02*
X236696077Y-79257964D01*
X236696077Y-79257964D02*
X236620215Y-79332683D01*
X236620215Y-79332683D02*
X236439062Y-79391543D01*
X236439062Y-79391543D02*
X236333770Y-79375685D01*
X236333770Y-79375685D02*
X236273766Y-79345112D01*
X236273766Y-79345112D02*
X236199048Y-79269250D01*
X236199048Y-79269250D02*
X236140187Y-79088096D01*
X236140187Y-79088096D02*
X236156045Y-78982805D01*
X236156045Y-78982805D02*
X236186619Y-78922801D01*
X236186619Y-78922801D02*
X236262480Y-78848082D01*
X258102012Y-76718868D02*
X257980862Y-76808302D01*
X257980862Y-76808302D02*
X257754419Y-76881877D01*
X257754419Y-76881877D02*
X257649128Y-76866019D01*
X257649128Y-76866019D02*
X257589124Y-76835446D01*
X257589124Y-76835446D02*
X257514405Y-76759584D01*
X257514405Y-76759584D02*
X257484975Y-76669007D01*
X257484975Y-76669007D02*
X257500834Y-76563715D01*
X257500834Y-76563715D02*
X257531407Y-76503712D01*
X257531407Y-76503712D02*
X257607269Y-76428993D01*
X257607269Y-76428993D02*
X257773707Y-76324844D01*
X257773707Y-76324844D02*
X257849569Y-76250126D01*
X257849569Y-76250126D02*
X257880142Y-76190122D01*
X257880142Y-76190122D02*
X257896000Y-76084830D01*
X257896000Y-76084830D02*
X257866570Y-75994254D01*
X257866570Y-75994254D02*
X257791852Y-75918392D01*
X257791852Y-75918392D02*
X257731848Y-75887819D01*
X257731848Y-75887819D02*
X257626556Y-75871960D01*
X257626556Y-75871960D02*
X257400114Y-75945536D01*
X257400114Y-75945536D02*
X257278964Y-76034970D01*
X256947230Y-76092687D02*
X257029805Y-77117319D01*
X257029805Y-77117319D02*
X256627925Y-76496853D01*
X256627925Y-76496853D02*
X256667498Y-77235040D01*
X256667498Y-77235040D02*
X256132039Y-76357559D01*
X255465142Y-76924734D02*
X255671153Y-77558772D01*
X255573863Y-76488851D02*
X256021031Y-77094602D01*
X256021031Y-77094602D02*
X255432282Y-77285898D01*
X254674808Y-77882504D02*
X255218269Y-77705923D01*
X254946538Y-77794213D02*
X254637521Y-76843157D01*
X254637521Y-76843157D02*
X254772243Y-76949592D01*
X254772243Y-76949592D02*
X254892250Y-77010738D01*
X254892250Y-77010738D02*
X254997542Y-77026596D01*
X36220732Y-58431894D02*
X36070151Y-58433037D01*
X36070151Y-58433037D02*
X35843709Y-58359462D01*
X35843709Y-58359462D02*
X35767848Y-58284743D01*
X35767848Y-58284743D02*
X35737274Y-58224740D01*
X35737274Y-58224740D02*
X35721416Y-58119448D01*
X35721416Y-58119448D02*
X35750846Y-58028871D01*
X35750846Y-58028871D02*
X35825565Y-57953009D01*
X35825565Y-57953009D02*
X35885568Y-57922436D01*
X35885568Y-57922436D02*
X35990860Y-57906578D01*
X35990860Y-57906578D02*
X36186729Y-57920150D01*
X36186729Y-57920150D02*
X36292021Y-57904292D01*
X36292021Y-57904292D02*
X36352024Y-57873718D01*
X36352024Y-57873718D02*
X36426743Y-57797857D01*
X36426743Y-57797857D02*
X36456173Y-57707280D01*
X36456173Y-57707280D02*
X36440315Y-57601988D01*
X36440315Y-57601988D02*
X36409742Y-57541984D01*
X36409742Y-57541984D02*
X36333880Y-57467266D01*
X36333880Y-57467266D02*
X36107438Y-57393690D01*
X36107438Y-57393690D02*
X35956858Y-57394833D01*
X35654554Y-57246539D02*
X35119095Y-58124020D01*
X35119095Y-58124020D02*
X35158668Y-57385834D01*
X35158668Y-57385834D02*
X34756788Y-58006300D01*
X34756788Y-58006300D02*
X34839362Y-56981668D01*
X33669866Y-57653137D02*
X34213327Y-57829718D01*
X33941596Y-57741428D02*
X34250613Y-56790371D01*
X34250613Y-56790371D02*
X34297045Y-56955667D01*
X34297045Y-56955667D02*
X34358191Y-57075674D01*
X34358191Y-57075674D02*
X34434053Y-57150392D01*
X54637632Y-59999794D02*
X54487051Y-60000937D01*
X54487051Y-60000937D02*
X54260609Y-59927362D01*
X54260609Y-59927362D02*
X54184748Y-59852643D01*
X54184748Y-59852643D02*
X54154174Y-59792640D01*
X54154174Y-59792640D02*
X54138316Y-59687348D01*
X54138316Y-59687348D02*
X54167746Y-59596771D01*
X54167746Y-59596771D02*
X54242465Y-59520909D01*
X54242465Y-59520909D02*
X54302468Y-59490336D01*
X54302468Y-59490336D02*
X54407760Y-59474478D01*
X54407760Y-59474478D02*
X54603629Y-59488050D01*
X54603629Y-59488050D02*
X54708921Y-59472192D01*
X54708921Y-59472192D02*
X54768924Y-59441618D01*
X54768924Y-59441618D02*
X54843643Y-59365757D01*
X54843643Y-59365757D02*
X54873073Y-59275180D01*
X54873073Y-59275180D02*
X54857215Y-59169888D01*
X54857215Y-59169888D02*
X54826642Y-59109884D01*
X54826642Y-59109884D02*
X54750780Y-59035166D01*
X54750780Y-59035166D02*
X54524338Y-58961590D01*
X54524338Y-58961590D02*
X54373758Y-58962733D01*
X54071454Y-58814439D02*
X53535995Y-59691920D01*
X53535995Y-59691920D02*
X53575568Y-58953734D01*
X53575568Y-58953734D02*
X53173688Y-59574200D01*
X53173688Y-59574200D02*
X53256262Y-58549568D01*
X52383354Y-58616430D02*
X52177343Y-59250468D01*
X52727517Y-58327698D02*
X52733232Y-59080600D01*
X52733232Y-59080600D02*
X52144483Y-58889303D01*
X73054532Y-61567694D02*
X72903951Y-61568837D01*
X72903951Y-61568837D02*
X72677509Y-61495262D01*
X72677509Y-61495262D02*
X72601648Y-61420543D01*
X72601648Y-61420543D02*
X72571074Y-61360540D01*
X72571074Y-61360540D02*
X72555216Y-61255248D01*
X72555216Y-61255248D02*
X72584646Y-61164671D01*
X72584646Y-61164671D02*
X72659365Y-61088809D01*
X72659365Y-61088809D02*
X72719368Y-61058236D01*
X72719368Y-61058236D02*
X72824660Y-61042378D01*
X72824660Y-61042378D02*
X73020529Y-61055950D01*
X73020529Y-61055950D02*
X73125821Y-61040092D01*
X73125821Y-61040092D02*
X73185824Y-61009518D01*
X73185824Y-61009518D02*
X73260543Y-60933657D01*
X73260543Y-60933657D02*
X73289973Y-60843080D01*
X73289973Y-60843080D02*
X73274115Y-60737788D01*
X73274115Y-60737788D02*
X73243542Y-60677784D01*
X73243542Y-60677784D02*
X73167680Y-60603066D01*
X73167680Y-60603066D02*
X72941238Y-60529490D01*
X72941238Y-60529490D02*
X72790658Y-60530633D01*
X72488354Y-60382339D02*
X71952895Y-61259820D01*
X71952895Y-61259820D02*
X71992468Y-60521634D01*
X71992468Y-60521634D02*
X71590588Y-61142100D01*
X71590588Y-61142100D02*
X71673162Y-60117468D01*
X71401432Y-60029177D02*
X70767395Y-59823166D01*
X70767395Y-59823166D02*
X70865973Y-60906658D01*
X91924316Y-63282745D02*
X91773736Y-63283888D01*
X91773736Y-63283888D02*
X91547294Y-63210313D01*
X91547294Y-63210313D02*
X91471432Y-63135594D01*
X91471432Y-63135594D02*
X91440859Y-63075591D01*
X91440859Y-63075591D02*
X91425001Y-62970299D01*
X91425001Y-62970299D02*
X91454431Y-62879722D01*
X91454431Y-62879722D02*
X91529149Y-62803860D01*
X91529149Y-62803860D02*
X91589153Y-62773287D01*
X91589153Y-62773287D02*
X91694445Y-62757429D01*
X91694445Y-62757429D02*
X91890314Y-62771001D01*
X91890314Y-62771001D02*
X91995605Y-62755143D01*
X91995605Y-62755143D02*
X92055609Y-62724569D01*
X92055609Y-62724569D02*
X92130328Y-62648708D01*
X92130328Y-62648708D02*
X92159758Y-62558131D01*
X92159758Y-62558131D02*
X92143899Y-62452839D01*
X92143899Y-62452839D02*
X92113326Y-62392835D01*
X92113326Y-62392835D02*
X92037464Y-62318117D01*
X92037464Y-62318117D02*
X91811022Y-62244541D01*
X91811022Y-62244541D02*
X91660442Y-62245684D01*
X91358138Y-62097390D02*
X90822679Y-62974871D01*
X90822679Y-62974871D02*
X90862252Y-62236685D01*
X90862252Y-62236685D02*
X90460372Y-62857151D01*
X90460372Y-62857151D02*
X90542947Y-61832519D01*
X89373450Y-62503988D02*
X89916911Y-62680570D01*
X89645181Y-62592279D02*
X89954198Y-61641222D01*
X89954198Y-61641222D02*
X90000629Y-61806518D01*
X90000629Y-61806518D02*
X90061776Y-61926525D01*
X90061776Y-61926525D02*
X90137638Y-62001243D01*
X89093718Y-61361636D02*
X89003141Y-61332205D01*
X89003141Y-61332205D02*
X88897849Y-61348064D01*
X88897849Y-61348064D02*
X88837846Y-61378637D01*
X88837846Y-61378637D02*
X88763127Y-61454499D01*
X88763127Y-61454499D02*
X88658979Y-61620937D01*
X88658979Y-61620937D02*
X88585403Y-61847379D01*
X88585403Y-61847379D02*
X88571831Y-62043248D01*
X88571831Y-62043248D02*
X88587689Y-62148540D01*
X88587689Y-62148540D02*
X88618263Y-62208543D01*
X88618263Y-62208543D02*
X88694124Y-62283262D01*
X88694124Y-62283262D02*
X88784701Y-62312692D01*
X88784701Y-62312692D02*
X88889993Y-62296834D01*
X88889993Y-62296834D02*
X88949997Y-62266261D01*
X88949997Y-62266261D02*
X89024715Y-62190399D01*
X89024715Y-62190399D02*
X89128864Y-62023960D01*
X89128864Y-62023960D02*
X89202439Y-61797518D01*
X89202439Y-61797518D02*
X89216011Y-61601650D01*
X89216011Y-61601650D02*
X89200153Y-61496358D01*
X89200153Y-61496358D02*
X89169580Y-61436354D01*
X89169580Y-61436354D02*
X89093718Y-61361636D01*
X107745416Y-72839445D02*
X107594836Y-72840588D01*
X107594836Y-72840588D02*
X107368394Y-72767013D01*
X107368394Y-72767013D02*
X107292532Y-72692294D01*
X107292532Y-72692294D02*
X107261959Y-72632291D01*
X107261959Y-72632291D02*
X107246101Y-72526999D01*
X107246101Y-72526999D02*
X107275531Y-72436422D01*
X107275531Y-72436422D02*
X107350249Y-72360560D01*
X107350249Y-72360560D02*
X107410253Y-72329987D01*
X107410253Y-72329987D02*
X107515545Y-72314129D01*
X107515545Y-72314129D02*
X107711414Y-72327701D01*
X107711414Y-72327701D02*
X107816705Y-72311843D01*
X107816705Y-72311843D02*
X107876709Y-72281269D01*
X107876709Y-72281269D02*
X107951428Y-72205408D01*
X107951428Y-72205408D02*
X107980858Y-72114831D01*
X107980858Y-72114831D02*
X107964999Y-72009539D01*
X107964999Y-72009539D02*
X107934426Y-71949535D01*
X107934426Y-71949535D02*
X107858564Y-71874817D01*
X107858564Y-71874817D02*
X107632122Y-71801241D01*
X107632122Y-71801241D02*
X107481542Y-71802384D01*
X107179238Y-71654090D02*
X106643779Y-72531571D01*
X106643779Y-72531571D02*
X106683352Y-71793385D01*
X106683352Y-71793385D02*
X106281472Y-72413851D01*
X106281472Y-72413851D02*
X106364047Y-71389219D01*
X105194550Y-72060688D02*
X105738011Y-72237270D01*
X105466281Y-72148979D02*
X105775298Y-71197922D01*
X105775298Y-71197922D02*
X105821729Y-71363218D01*
X105821729Y-71363218D02*
X105882876Y-71483225D01*
X105882876Y-71483225D02*
X105958738Y-71557943D01*
X104585370Y-71161779D02*
X104379359Y-71795817D01*
X104929533Y-70873047D02*
X104935249Y-71625949D01*
X104935249Y-71625949D02*
X104346500Y-71434653D01*
X123566616Y-82396145D02*
X123416036Y-82397288D01*
X123416036Y-82397288D02*
X123189594Y-82323713D01*
X123189594Y-82323713D02*
X123113732Y-82248994D01*
X123113732Y-82248994D02*
X123083159Y-82188991D01*
X123083159Y-82188991D02*
X123067301Y-82083699D01*
X123067301Y-82083699D02*
X123096731Y-81993122D01*
X123096731Y-81993122D02*
X123171449Y-81917260D01*
X123171449Y-81917260D02*
X123231453Y-81886687D01*
X123231453Y-81886687D02*
X123336745Y-81870829D01*
X123336745Y-81870829D02*
X123532614Y-81884401D01*
X123532614Y-81884401D02*
X123637905Y-81868543D01*
X123637905Y-81868543D02*
X123697909Y-81837969D01*
X123697909Y-81837969D02*
X123772628Y-81762108D01*
X123772628Y-81762108D02*
X123802058Y-81671531D01*
X123802058Y-81671531D02*
X123786199Y-81566239D01*
X123786199Y-81566239D02*
X123755626Y-81506235D01*
X123755626Y-81506235D02*
X123679764Y-81431517D01*
X123679764Y-81431517D02*
X123453322Y-81357941D01*
X123453322Y-81357941D02*
X123302742Y-81359084D01*
X123000438Y-81210790D02*
X122464979Y-82088271D01*
X122464979Y-82088271D02*
X122504552Y-81350085D01*
X122504552Y-81350085D02*
X122102672Y-81970551D01*
X122102672Y-81970551D02*
X122185247Y-80945919D01*
X121015750Y-81617388D02*
X121559211Y-81793970D01*
X121287481Y-81705679D02*
X121596498Y-80754622D01*
X121596498Y-80754622D02*
X121642929Y-80919918D01*
X121642929Y-80919918D02*
X121704076Y-81039925D01*
X121704076Y-81039925D02*
X121779938Y-81114643D01*
X120648871Y-80897346D02*
X120754163Y-80881488D01*
X120754163Y-80881488D02*
X120814166Y-80850915D01*
X120814166Y-80850915D02*
X120888885Y-80775053D01*
X120888885Y-80775053D02*
X120903600Y-80729765D01*
X120903600Y-80729765D02*
X120887742Y-80624473D01*
X120887742Y-80624473D02*
X120857168Y-80564469D01*
X120857168Y-80564469D02*
X120781307Y-80489751D01*
X120781307Y-80489751D02*
X120600153Y-80430890D01*
X120600153Y-80430890D02*
X120494861Y-80446749D01*
X120494861Y-80446749D02*
X120434858Y-80477322D01*
X120434858Y-80477322D02*
X120360139Y-80553184D01*
X120360139Y-80553184D02*
X120345424Y-80598472D01*
X120345424Y-80598472D02*
X120361282Y-80703764D01*
X120361282Y-80703764D02*
X120391855Y-80763767D01*
X120391855Y-80763767D02*
X120467717Y-80838486D01*
X120467717Y-80838486D02*
X120648871Y-80897346D01*
X120648871Y-80897346D02*
X120724732Y-80972065D01*
X120724732Y-80972065D02*
X120755306Y-81032069D01*
X120755306Y-81032069D02*
X120771164Y-81137360D01*
X120771164Y-81137360D02*
X120712304Y-81318514D01*
X120712304Y-81318514D02*
X120637585Y-81394376D01*
X120637585Y-81394376D02*
X120577581Y-81424949D01*
X120577581Y-81424949D02*
X120472290Y-81440807D01*
X120472290Y-81440807D02*
X120291136Y-81381947D01*
X120291136Y-81381947D02*
X120215274Y-81307228D01*
X120215274Y-81307228D02*
X120184701Y-81247225D01*
X120184701Y-81247225D02*
X120168843Y-81141933D01*
X120168843Y-81141933D02*
X120227703Y-80960779D01*
X120227703Y-80960779D02*
X120302422Y-80884918D01*
X120302422Y-80884918D02*
X120362425Y-80854344D01*
X120362425Y-80854344D02*
X120467717Y-80838486D01*
X165955812Y-84367968D02*
X165834662Y-84457402D01*
X165834662Y-84457402D02*
X165608219Y-84530977D01*
X165608219Y-84530977D02*
X165502928Y-84515119D01*
X165502928Y-84515119D02*
X165442924Y-84484546D01*
X165442924Y-84484546D02*
X165368205Y-84408684D01*
X165368205Y-84408684D02*
X165338775Y-84318107D01*
X165338775Y-84318107D02*
X165354634Y-84212815D01*
X165354634Y-84212815D02*
X165385207Y-84152812D01*
X165385207Y-84152812D02*
X165461069Y-84078093D01*
X165461069Y-84078093D02*
X165627507Y-83973944D01*
X165627507Y-83973944D02*
X165703369Y-83899226D01*
X165703369Y-83899226D02*
X165733942Y-83839222D01*
X165733942Y-83839222D02*
X165749800Y-83733930D01*
X165749800Y-83733930D02*
X165720370Y-83643354D01*
X165720370Y-83643354D02*
X165645652Y-83567492D01*
X165645652Y-83567492D02*
X165585648Y-83536919D01*
X165585648Y-83536919D02*
X165480356Y-83521060D01*
X165480356Y-83521060D02*
X165253914Y-83594636D01*
X165253914Y-83594636D02*
X165132764Y-83684070D01*
X164801030Y-83741787D02*
X164883605Y-84766419D01*
X164883605Y-84766419D02*
X164481725Y-84145953D01*
X164481725Y-84145953D02*
X164521298Y-84884140D01*
X164521298Y-84884140D02*
X163985839Y-84006659D01*
X163698250Y-84200241D02*
X163638247Y-84169668D01*
X163638247Y-84169668D02*
X163532955Y-84153809D01*
X163532955Y-84153809D02*
X163306513Y-84227385D01*
X163306513Y-84227385D02*
X163230651Y-84302103D01*
X163230651Y-84302103D02*
X163200078Y-84362107D01*
X163200078Y-84362107D02*
X163184219Y-84467399D01*
X163184219Y-84467399D02*
X163213650Y-84557976D01*
X163213650Y-84557976D02*
X163303083Y-84679126D01*
X163303083Y-84679126D02*
X164023125Y-85046006D01*
X164023125Y-85046006D02*
X163434376Y-85237302D01*
X162792482Y-84494543D02*
X162732479Y-84463970D01*
X162732479Y-84463970D02*
X162627187Y-84448111D01*
X162627187Y-84448111D02*
X162400745Y-84521687D01*
X162400745Y-84521687D02*
X162324883Y-84596405D01*
X162324883Y-84596405D02*
X162294310Y-84656409D01*
X162294310Y-84656409D02*
X162278451Y-84761701D01*
X162278451Y-84761701D02*
X162307882Y-84852278D01*
X162307882Y-84852278D02*
X162397315Y-84973428D01*
X162397315Y-84973428D02*
X163117357Y-85340307D01*
X163117357Y-85340307D02*
X162528608Y-85531604D01*
X181776912Y-74811268D02*
X181655762Y-74900702D01*
X181655762Y-74900702D02*
X181429319Y-74974277D01*
X181429319Y-74974277D02*
X181324028Y-74958419D01*
X181324028Y-74958419D02*
X181264024Y-74927846D01*
X181264024Y-74927846D02*
X181189305Y-74851984D01*
X181189305Y-74851984D02*
X181159875Y-74761407D01*
X181159875Y-74761407D02*
X181175734Y-74656115D01*
X181175734Y-74656115D02*
X181206307Y-74596112D01*
X181206307Y-74596112D02*
X181282169Y-74521393D01*
X181282169Y-74521393D02*
X181448607Y-74417244D01*
X181448607Y-74417244D02*
X181524469Y-74342526D01*
X181524469Y-74342526D02*
X181555042Y-74282522D01*
X181555042Y-74282522D02*
X181570900Y-74177230D01*
X181570900Y-74177230D02*
X181541470Y-74086654D01*
X181541470Y-74086654D02*
X181466752Y-74010792D01*
X181466752Y-74010792D02*
X181406748Y-73980219D01*
X181406748Y-73980219D02*
X181301456Y-73964360D01*
X181301456Y-73964360D02*
X181075014Y-74037936D01*
X181075014Y-74037936D02*
X180953864Y-74127370D01*
X180622130Y-74185087D02*
X180704705Y-75209719D01*
X180704705Y-75209719D02*
X180302825Y-74589253D01*
X180302825Y-74589253D02*
X180342398Y-75327440D01*
X180342398Y-75327440D02*
X179806939Y-74449959D01*
X179519350Y-74643541D02*
X179459347Y-74612968D01*
X179459347Y-74612968D02*
X179354055Y-74597109D01*
X179354055Y-74597109D02*
X179127613Y-74670685D01*
X179127613Y-74670685D02*
X179051751Y-74745403D01*
X179051751Y-74745403D02*
X179021178Y-74805407D01*
X179021178Y-74805407D02*
X179005319Y-74910699D01*
X179005319Y-74910699D02*
X179034750Y-75001276D01*
X179034750Y-75001276D02*
X179124183Y-75122426D01*
X179124183Y-75122426D02*
X179844225Y-75489306D01*
X179844225Y-75489306D02*
X179255476Y-75680602D01*
X178131268Y-74994417D02*
X178312421Y-74935557D01*
X178312421Y-74935557D02*
X178417713Y-74951415D01*
X178417713Y-74951415D02*
X178477717Y-74981988D01*
X178477717Y-74981988D02*
X178612439Y-75088423D01*
X178612439Y-75088423D02*
X178716588Y-75254862D01*
X178716588Y-75254862D02*
X178834308Y-75617169D01*
X178834308Y-75617169D02*
X178818450Y-75722461D01*
X178818450Y-75722461D02*
X178787877Y-75782464D01*
X178787877Y-75782464D02*
X178712015Y-75857183D01*
X178712015Y-75857183D02*
X178530862Y-75916043D01*
X178530862Y-75916043D02*
X178425570Y-75900185D01*
X178425570Y-75900185D02*
X178365566Y-75869612D01*
X178365566Y-75869612D02*
X178290848Y-75793750D01*
X178290848Y-75793750D02*
X178217272Y-75567308D01*
X178217272Y-75567308D02*
X178233130Y-75462016D01*
X178233130Y-75462016D02*
X178263704Y-75402013D01*
X178263704Y-75402013D02*
X178339565Y-75327294D01*
X178339565Y-75327294D02*
X178520719Y-75268434D01*
X178520719Y-75268434D02*
X178626011Y-75284292D01*
X178626011Y-75284292D02*
X178686014Y-75314865D01*
X178686014Y-75314865D02*
X178760733Y-75390727D01*
X197598112Y-65254568D02*
X197476962Y-65344002D01*
X197476962Y-65344002D02*
X197250519Y-65417577D01*
X197250519Y-65417577D02*
X197145228Y-65401719D01*
X197145228Y-65401719D02*
X197085224Y-65371146D01*
X197085224Y-65371146D02*
X197010505Y-65295284D01*
X197010505Y-65295284D02*
X196981075Y-65204707D01*
X196981075Y-65204707D02*
X196996934Y-65099415D01*
X196996934Y-65099415D02*
X197027507Y-65039412D01*
X197027507Y-65039412D02*
X197103369Y-64964693D01*
X197103369Y-64964693D02*
X197269807Y-64860544D01*
X197269807Y-64860544D02*
X197345669Y-64785826D01*
X197345669Y-64785826D02*
X197376242Y-64725822D01*
X197376242Y-64725822D02*
X197392100Y-64620530D01*
X197392100Y-64620530D02*
X197362670Y-64529954D01*
X197362670Y-64529954D02*
X197287952Y-64454092D01*
X197287952Y-64454092D02*
X197227948Y-64423519D01*
X197227948Y-64423519D02*
X197122656Y-64407660D01*
X197122656Y-64407660D02*
X196896214Y-64481236D01*
X196896214Y-64481236D02*
X196775064Y-64570670D01*
X196443330Y-64628387D02*
X196525905Y-65653019D01*
X196525905Y-65653019D02*
X196124025Y-65032553D01*
X196124025Y-65032553D02*
X196163598Y-65770740D01*
X196163598Y-65770740D02*
X195628139Y-64893259D01*
X195356408Y-64981549D02*
X194767659Y-65172845D01*
X194767659Y-65172845D02*
X195202399Y-65432147D01*
X195202399Y-65432147D02*
X195066533Y-65476292D01*
X195066533Y-65476292D02*
X194990672Y-65551011D01*
X194990672Y-65551011D02*
X194960098Y-65611014D01*
X194960098Y-65611014D02*
X194944240Y-65716306D01*
X194944240Y-65716306D02*
X195017816Y-65942748D01*
X195017816Y-65942748D02*
X195092534Y-66018610D01*
X195092534Y-66018610D02*
X195152538Y-66049183D01*
X195152538Y-66049183D02*
X195257830Y-66065041D01*
X195257830Y-66065041D02*
X195529560Y-65976751D01*
X195529560Y-65976751D02*
X195605422Y-65902032D01*
X195605422Y-65902032D02*
X195635995Y-65842029D01*
X194178910Y-65364142D02*
X194088333Y-65393572D01*
X194088333Y-65393572D02*
X194012471Y-65468290D01*
X194012471Y-65468290D02*
X193981898Y-65528294D01*
X193981898Y-65528294D02*
X193966040Y-65633586D01*
X193966040Y-65633586D02*
X193979612Y-65829454D01*
X193979612Y-65829454D02*
X194053187Y-66055896D01*
X194053187Y-66055896D02*
X194157336Y-66222335D01*
X194157336Y-66222335D02*
X194232055Y-66298197D01*
X194232055Y-66298197D02*
X194292058Y-66328770D01*
X194292058Y-66328770D02*
X194397350Y-66344628D01*
X194397350Y-66344628D02*
X194487927Y-66315198D01*
X194487927Y-66315198D02*
X194563789Y-66240479D01*
X194563789Y-66240479D02*
X194594362Y-66180476D01*
X194594362Y-66180476D02*
X194610220Y-66075184D01*
X194610220Y-66075184D02*
X194596648Y-65879315D01*
X194596648Y-65879315D02*
X194523073Y-65652873D01*
X194523073Y-65652873D02*
X194418924Y-65486435D01*
X194418924Y-65486435D02*
X194344205Y-65410573D01*
X194344205Y-65410573D02*
X194284202Y-65380000D01*
X194284202Y-65380000D02*
X194178910Y-65364142D01*
X216015012Y-63686668D02*
X215893862Y-63776102D01*
X215893862Y-63776102D02*
X215667419Y-63849677D01*
X215667419Y-63849677D02*
X215562128Y-63833819D01*
X215562128Y-63833819D02*
X215502124Y-63803246D01*
X215502124Y-63803246D02*
X215427405Y-63727384D01*
X215427405Y-63727384D02*
X215397975Y-63636807D01*
X215397975Y-63636807D02*
X215413834Y-63531515D01*
X215413834Y-63531515D02*
X215444407Y-63471512D01*
X215444407Y-63471512D02*
X215520269Y-63396793D01*
X215520269Y-63396793D02*
X215686707Y-63292644D01*
X215686707Y-63292644D02*
X215762569Y-63217926D01*
X215762569Y-63217926D02*
X215793142Y-63157922D01*
X215793142Y-63157922D02*
X215809000Y-63052630D01*
X215809000Y-63052630D02*
X215779570Y-62962054D01*
X215779570Y-62962054D02*
X215704852Y-62886192D01*
X215704852Y-62886192D02*
X215644848Y-62855619D01*
X215644848Y-62855619D02*
X215539556Y-62839760D01*
X215539556Y-62839760D02*
X215313114Y-62913336D01*
X215313114Y-62913336D02*
X215191964Y-63002770D01*
X214860230Y-63060487D02*
X214942805Y-64085119D01*
X214942805Y-64085119D02*
X214540925Y-63464653D01*
X214540925Y-63464653D02*
X214580498Y-64202840D01*
X214580498Y-64202840D02*
X214045039Y-63325359D01*
X213773308Y-63413649D02*
X213184559Y-63604945D01*
X213184559Y-63604945D02*
X213619299Y-63864247D01*
X213619299Y-63864247D02*
X213483433Y-63908392D01*
X213483433Y-63908392D02*
X213407572Y-63983111D01*
X213407572Y-63983111D02*
X213376998Y-64043114D01*
X213376998Y-64043114D02*
X213361140Y-64148406D01*
X213361140Y-64148406D02*
X213434716Y-64374848D01*
X213434716Y-64374848D02*
X213509434Y-64450710D01*
X213509434Y-64450710D02*
X213569438Y-64481283D01*
X213569438Y-64481283D02*
X213674730Y-64497141D01*
X213674730Y-64497141D02*
X213946460Y-64408851D01*
X213946460Y-64408851D02*
X214022322Y-64334132D01*
X214022322Y-64334132D02*
X214052895Y-64274129D01*
X212472373Y-64186836D02*
X212678385Y-64820874D01*
X212581095Y-63750953D02*
X213028263Y-64356704D01*
X213028263Y-64356704D02*
X212439514Y-64548000D01*
X234431812Y-62118768D02*
X234310662Y-62208202D01*
X234310662Y-62208202D02*
X234084219Y-62281777D01*
X234084219Y-62281777D02*
X233978928Y-62265919D01*
X233978928Y-62265919D02*
X233918924Y-62235346D01*
X233918924Y-62235346D02*
X233844205Y-62159484D01*
X233844205Y-62159484D02*
X233814775Y-62068907D01*
X233814775Y-62068907D02*
X233830634Y-61963615D01*
X233830634Y-61963615D02*
X233861207Y-61903612D01*
X233861207Y-61903612D02*
X233937069Y-61828893D01*
X233937069Y-61828893D02*
X234103507Y-61724744D01*
X234103507Y-61724744D02*
X234179369Y-61650026D01*
X234179369Y-61650026D02*
X234209942Y-61590022D01*
X234209942Y-61590022D02*
X234225800Y-61484730D01*
X234225800Y-61484730D02*
X234196370Y-61394154D01*
X234196370Y-61394154D02*
X234121652Y-61318292D01*
X234121652Y-61318292D02*
X234061648Y-61287719D01*
X234061648Y-61287719D02*
X233956356Y-61271860D01*
X233956356Y-61271860D02*
X233729914Y-61345436D01*
X233729914Y-61345436D02*
X233608764Y-61434870D01*
X233277030Y-61492587D02*
X233359605Y-62517219D01*
X233359605Y-62517219D02*
X232957725Y-61896753D01*
X232957725Y-61896753D02*
X232997298Y-62634940D01*
X232997298Y-62634940D02*
X232461839Y-61757459D01*
X232190108Y-61845749D02*
X231601359Y-62037045D01*
X231601359Y-62037045D02*
X232036099Y-62296347D01*
X232036099Y-62296347D02*
X231900233Y-62340492D01*
X231900233Y-62340492D02*
X231824372Y-62415211D01*
X231824372Y-62415211D02*
X231793798Y-62475214D01*
X231793798Y-62475214D02*
X231777940Y-62580506D01*
X231777940Y-62580506D02*
X231851516Y-62806948D01*
X231851516Y-62806948D02*
X231926234Y-62882810D01*
X231926234Y-62882810D02*
X231986238Y-62913383D01*
X231986238Y-62913383D02*
X232091530Y-62929241D01*
X232091530Y-62929241D02*
X232363260Y-62840951D01*
X232363260Y-62840951D02*
X232439122Y-62766232D01*
X232439122Y-62766232D02*
X232469695Y-62706229D01*
X231284340Y-62140051D02*
X230650303Y-62346062D01*
X230650303Y-62346062D02*
X231366915Y-63164683D01*
X252848712Y-60550868D02*
X252727562Y-60640302D01*
X252727562Y-60640302D02*
X252501119Y-60713877D01*
X252501119Y-60713877D02*
X252395828Y-60698019D01*
X252395828Y-60698019D02*
X252335824Y-60667446D01*
X252335824Y-60667446D02*
X252261105Y-60591584D01*
X252261105Y-60591584D02*
X252231675Y-60501007D01*
X252231675Y-60501007D02*
X252247534Y-60395715D01*
X252247534Y-60395715D02*
X252278107Y-60335712D01*
X252278107Y-60335712D02*
X252353969Y-60260993D01*
X252353969Y-60260993D02*
X252520407Y-60156844D01*
X252520407Y-60156844D02*
X252596269Y-60082126D01*
X252596269Y-60082126D02*
X252626842Y-60022122D01*
X252626842Y-60022122D02*
X252642700Y-59916830D01*
X252642700Y-59916830D02*
X252613270Y-59826254D01*
X252613270Y-59826254D02*
X252538552Y-59750392D01*
X252538552Y-59750392D02*
X252478548Y-59719819D01*
X252478548Y-59719819D02*
X252373256Y-59703960D01*
X252373256Y-59703960D02*
X252146814Y-59777536D01*
X252146814Y-59777536D02*
X252025664Y-59866970D01*
X251693930Y-59924687D02*
X251776505Y-60949319D01*
X251776505Y-60949319D02*
X251374625Y-60328853D01*
X251374625Y-60328853D02*
X251414198Y-61067040D01*
X251414198Y-61067040D02*
X250878739Y-60189559D01*
X250211842Y-60756734D02*
X250417853Y-61390772D01*
X250320563Y-60320851D02*
X250767731Y-60926602D01*
X250767731Y-60926602D02*
X250178982Y-61117898D01*
X249429510Y-60660442D02*
X249338933Y-60689872D01*
X249338933Y-60689872D02*
X249263071Y-60764590D01*
X249263071Y-60764590D02*
X249232498Y-60824594D01*
X249232498Y-60824594D02*
X249216640Y-60929886D01*
X249216640Y-60929886D02*
X249230212Y-61125754D01*
X249230212Y-61125754D02*
X249303787Y-61352196D01*
X249303787Y-61352196D02*
X249407936Y-61518635D01*
X249407936Y-61518635D02*
X249482655Y-61594497D01*
X249482655Y-61594497D02*
X249542658Y-61625070D01*
X249542658Y-61625070D02*
X249647950Y-61640928D01*
X249647950Y-61640928D02*
X249738527Y-61611498D01*
X249738527Y-61611498D02*
X249814389Y-61536779D01*
X249814389Y-61536779D02*
X249844962Y-61476776D01*
X249844962Y-61476776D02*
X249860820Y-61371484D01*
X249860820Y-61371484D02*
X249847248Y-61175615D01*
X249847248Y-61175615D02*
X249773673Y-60949173D01*
X249773673Y-60949173D02*
X249669524Y-60782735D01*
X249669524Y-60782735D02*
X249594805Y-60706873D01*
X249594805Y-60706873D02*
X249534802Y-60676300D01*
X249534802Y-60676300D02*
X249429510Y-60660442D01*
D12*
G04 #@! TO.C,RST2*
X147220707Y-65147832D02*
X149220707Y-65147832D01*
X145470707Y-66647832D02*
X145920707Y-66197832D01*
X150970707Y-66647832D02*
X150520707Y-66197832D01*
X145470707Y-66647832D02*
X145470707Y-69147832D01*
X150970707Y-66647832D02*
X150970707Y-69147832D01*
X145470707Y-69147832D02*
X145920707Y-69597832D01*
X150970707Y-69147832D02*
X150520707Y-69597832D01*
X147220707Y-70647832D02*
X149220707Y-70647832D01*
D11*
G04 #@! TO.C,D42*
X276643023Y-95604727D02*
X275699168Y-94965088D01*
X275699168Y-94965088D02*
X277030647Y-94532464D01*
X277030647Y-94532464D02*
X276643023Y-95604727D01*
X275977283Y-95821039D02*
X277308762Y-95388415D01*
G04 #@! TO.C,D41*
X271389723Y-79436827D02*
X270445868Y-78797188D01*
X270445868Y-78797188D02*
X271777347Y-78364564D01*
X271777347Y-78364564D02*
X271389723Y-79436827D01*
X270723983Y-79653139D02*
X272055462Y-79220515D01*
G04 #@! TO.C,D40*
X266136423Y-63268827D02*
X265192568Y-62629188D01*
X265192568Y-62629188D02*
X266524047Y-62196564D01*
X266524047Y-62196564D02*
X266136423Y-63268827D01*
X265470683Y-63485139D02*
X266802162Y-63052515D01*
G04 #@! TO.C,D39*
X258226123Y-97172627D02*
X257282268Y-96532988D01*
X257282268Y-96532988D02*
X258613747Y-96100364D01*
X258613747Y-96100364D02*
X258226123Y-97172627D01*
X257560383Y-97388939D02*
X258891862Y-96956315D01*
G04 #@! TO.C,D38*
X252972823Y-81004627D02*
X252028968Y-80364988D01*
X252028968Y-80364988D02*
X253360447Y-79932364D01*
X253360447Y-79932364D02*
X252972823Y-81004627D01*
X252307083Y-81220939D02*
X253638562Y-80788315D01*
G04 #@! TO.C,D37*
X247719523Y-64836727D02*
X246775668Y-64197088D01*
X246775668Y-64197088D02*
X248107147Y-63764464D01*
X248107147Y-63764464D02*
X247719523Y-64836727D01*
X247053783Y-65053039D02*
X248385262Y-64620415D01*
G04 #@! TO.C,D36*
X239809223Y-98740527D02*
X238865368Y-98100888D01*
X238865368Y-98100888D02*
X240196847Y-97668264D01*
X240196847Y-97668264D02*
X239809223Y-98740527D01*
X239143483Y-98956839D02*
X240474962Y-98524215D01*
G04 #@! TO.C,D35*
X234555923Y-82572527D02*
X233612068Y-81932888D01*
X233612068Y-81932888D02*
X234943547Y-81500264D01*
X234943547Y-81500264D02*
X234555923Y-82572527D01*
X233890183Y-82788839D02*
X235221662Y-82356215D01*
G04 #@! TO.C,D34*
X229302623Y-66404527D02*
X228358768Y-65764888D01*
X228358768Y-65764888D02*
X229690247Y-65332264D01*
X229690247Y-65332264D02*
X229302623Y-66404527D01*
X228636883Y-66620839D02*
X229968362Y-66188215D01*
G04 #@! TO.C,D33*
X226645623Y-116476327D02*
X225701768Y-115836688D01*
X225701768Y-115836688D02*
X227033247Y-115404064D01*
X227033247Y-115404064D02*
X226645623Y-116476327D01*
X225979883Y-116692639D02*
X227311362Y-116260015D01*
G04 #@! TO.C,D32*
X221392323Y-100308327D02*
X220448468Y-99668688D01*
X220448468Y-99668688D02*
X221779947Y-99236064D01*
X221779947Y-99236064D02*
X221392323Y-100308327D01*
X220726583Y-100524639D02*
X222058062Y-100092015D01*
G04 #@! TO.C,D31*
X216139023Y-84140427D02*
X215195168Y-83500788D01*
X215195168Y-83500788D02*
X216526647Y-83068164D01*
X216526647Y-83068164D02*
X216139023Y-84140427D01*
X215473283Y-84356739D02*
X216804762Y-83924115D01*
G04 #@! TO.C,D30*
X210885723Y-67972427D02*
X209941868Y-67332788D01*
X209941868Y-67332788D02*
X211273347Y-66900164D01*
X211273347Y-66900164D02*
X210885723Y-67972427D01*
X210219983Y-68188739D02*
X211551462Y-67756115D01*
G04 #@! TO.C,D29*
X210824423Y-126033027D02*
X209880568Y-125393388D01*
X209880568Y-125393388D02*
X211212047Y-124960764D01*
X211212047Y-124960764D02*
X210824423Y-126033027D01*
X210158683Y-126249339D02*
X211490162Y-125816715D01*
G04 #@! TO.C,D28*
X205571123Y-109865127D02*
X204627268Y-109225488D01*
X204627268Y-109225488D02*
X205958747Y-108792864D01*
X205958747Y-108792864D02*
X205571123Y-109865127D01*
X204905383Y-110081439D02*
X206236862Y-109648815D01*
G04 #@! TO.C,D27*
X200317923Y-93697127D02*
X199374068Y-93057488D01*
X199374068Y-93057488D02*
X200705547Y-92624864D01*
X200705547Y-92624864D02*
X200317923Y-93697127D01*
X199652183Y-93913439D02*
X200983662Y-93480815D01*
G04 #@! TO.C,D26*
X195064623Y-77529227D02*
X194120768Y-76889588D01*
X194120768Y-76889588D02*
X195452247Y-76456964D01*
X195452247Y-76456964D02*
X195064623Y-77529227D01*
X194398883Y-77745539D02*
X195730362Y-77312915D01*
G04 #@! TO.C,D25*
X190743023Y-137104727D02*
X189799168Y-136465088D01*
X189799168Y-136465088D02*
X191130647Y-136032464D01*
X191130647Y-136032464D02*
X190743023Y-137104727D01*
X190077283Y-137321039D02*
X191408762Y-136888415D01*
G04 #@! TO.C,D24*
X189750023Y-119421827D02*
X188806168Y-118782188D01*
X188806168Y-118782188D02*
X190137647Y-118349564D01*
X190137647Y-118349564D02*
X189750023Y-119421827D01*
X189084283Y-119638139D02*
X190415762Y-119205515D01*
G04 #@! TO.C,D23*
X184496723Y-103253927D02*
X183552868Y-102614288D01*
X183552868Y-102614288D02*
X184884347Y-102181664D01*
X184884347Y-102181664D02*
X184496723Y-103253927D01*
X183830983Y-103470239D02*
X185162462Y-103037615D01*
G04 #@! TO.C,D22*
X179243423Y-87085927D02*
X178299568Y-86446288D01*
X178299568Y-86446288D02*
X179631047Y-86013664D01*
X179631047Y-86013664D02*
X179243423Y-87085927D01*
X178577683Y-87302239D02*
X179909162Y-86869615D01*
G04 #@! TO.C,D21*
X121253007Y-142336424D02*
X120865383Y-141264161D01*
X120865383Y-141264161D02*
X122196862Y-141696785D01*
X122196862Y-141696785D02*
X121253007Y-142336424D01*
X120587268Y-142120112D02*
X121918747Y-142552736D01*
G04 #@! TO.C,D20*
X122226607Y-124777924D02*
X121838983Y-123705661D01*
X121838983Y-123705661D02*
X123170462Y-124138285D01*
X123170462Y-124138285D02*
X122226607Y-124777924D01*
X121560868Y-124561612D02*
X122892347Y-124994236D01*
G04 #@! TO.C,D19*
X127479807Y-108610024D02*
X127092183Y-107537761D01*
X127092183Y-107537761D02*
X128423662Y-107970385D01*
X128423662Y-107970385D02*
X127479807Y-108610024D01*
X126814068Y-108393712D02*
X128145547Y-108826336D01*
G04 #@! TO.C,D18*
X132733107Y-92442024D02*
X132345483Y-91369761D01*
X132345483Y-91369761D02*
X133676962Y-91802385D01*
X133676962Y-91802385D02*
X132733107Y-92442024D01*
X132067368Y-92225712D02*
X133398847Y-92658336D01*
G04 #@! TO.C,D17*
X101152107Y-131389124D02*
X100764483Y-130316861D01*
X100764483Y-130316861D02*
X102095962Y-130749485D01*
X102095962Y-130749485D02*
X101152107Y-131389124D01*
X100486368Y-131172812D02*
X101817847Y-131605436D01*
G04 #@! TO.C,D16*
X106405407Y-115221224D02*
X106017783Y-114148961D01*
X106017783Y-114148961D02*
X107349262Y-114581585D01*
X107349262Y-114581585D02*
X106405407Y-115221224D01*
X105739668Y-115004912D02*
X107071147Y-115437536D01*
G04 #@! TO.C,D15*
X111658707Y-99053224D02*
X111271083Y-97980961D01*
X111271083Y-97980961D02*
X112602562Y-98413585D01*
X112602562Y-98413585D02*
X111658707Y-99053224D01*
X110992968Y-98836912D02*
X112324447Y-99269536D01*
G04 #@! TO.C,D14*
X116912007Y-82885224D02*
X116524383Y-81812961D01*
X116524383Y-81812961D02*
X117855862Y-82245585D01*
X117855862Y-82245585D02*
X116912007Y-82885224D01*
X116246268Y-82668912D02*
X117577747Y-83101536D01*
G04 #@! TO.C,D13*
X85331007Y-121832424D02*
X84943383Y-120760161D01*
X84943383Y-120760161D02*
X86274862Y-121192785D01*
X86274862Y-121192785D02*
X85331007Y-121832424D01*
X84665268Y-121616112D02*
X85996747Y-122048736D01*
G04 #@! TO.C,D12*
X90584307Y-105664424D02*
X90196683Y-104592161D01*
X90196683Y-104592161D02*
X91528162Y-105024785D01*
X91528162Y-105024785D02*
X90584307Y-105664424D01*
X89918568Y-105448112D02*
X91250047Y-105880736D01*
G04 #@! TO.C,D11*
X95837607Y-89496524D02*
X95449983Y-88424261D01*
X95449983Y-88424261D02*
X96781462Y-88856885D01*
X96781462Y-88856885D02*
X95837607Y-89496524D01*
X95171868Y-89280212D02*
X96503347Y-89712836D01*
G04 #@! TO.C,D10*
X101090807Y-73328524D02*
X100703183Y-72256261D01*
X100703183Y-72256261D02*
X102034662Y-72688885D01*
X102034662Y-72688885D02*
X101090807Y-73328524D01*
X100425068Y-73112212D02*
X101756547Y-73544836D01*
G04 #@! TO.C,D9*
X72167407Y-104096624D02*
X71779783Y-103024361D01*
X71779783Y-103024361D02*
X73111262Y-103456985D01*
X73111262Y-103456985D02*
X72167407Y-104096624D01*
X71501668Y-103880312D02*
X72833147Y-104312936D01*
G04 #@! TO.C,D8*
X77420707Y-87928624D02*
X77033083Y-86856361D01*
X77033083Y-86856361D02*
X78364562Y-87288985D01*
X78364562Y-87288985D02*
X77420707Y-87928624D01*
X76754968Y-87712312D02*
X78086447Y-88144936D01*
G04 #@! TO.C,D7*
X82674007Y-71760624D02*
X82286383Y-70688361D01*
X82286383Y-70688361D02*
X83617862Y-71120985D01*
X83617862Y-71120985D02*
X82674007Y-71760624D01*
X82008268Y-71544312D02*
X83339747Y-71976936D01*
G04 #@! TO.C,D6*
X53750507Y-102528724D02*
X53362883Y-101456461D01*
X53362883Y-101456461D02*
X54694362Y-101889085D01*
X54694362Y-101889085D02*
X53750507Y-102528724D01*
X53084768Y-102312412D02*
X54416247Y-102745036D01*
G04 #@! TO.C,D5*
X59002807Y-86360424D02*
X58615183Y-85288161D01*
X58615183Y-85288161D02*
X59946662Y-85720785D01*
X59946662Y-85720785D02*
X59002807Y-86360424D01*
X58337068Y-86144112D02*
X59668547Y-86576736D01*
G04 #@! TO.C,D4*
X64257107Y-70192824D02*
X63869483Y-69120561D01*
X63869483Y-69120561D02*
X65200962Y-69553185D01*
X65200962Y-69553185D02*
X64257107Y-70192824D01*
X63591368Y-69976512D02*
X64922847Y-70409136D01*
G04 #@! TO.C,D3*
X35333607Y-100960824D02*
X34945983Y-99888561D01*
X34945983Y-99888561D02*
X36277462Y-100321185D01*
X36277462Y-100321185D02*
X35333607Y-100960824D01*
X34667868Y-100744512D02*
X35999347Y-101177136D01*
G04 #@! TO.C,D2*
X40586907Y-84792924D02*
X40199283Y-83720661D01*
X40199283Y-83720661D02*
X41530762Y-84153285D01*
X41530762Y-84153285D02*
X40586907Y-84792924D01*
X39921168Y-84576612D02*
X41252647Y-85009236D01*
G04 #@! TO.C,D1*
X45839707Y-68624824D02*
X45452083Y-67552561D01*
X45452083Y-67552561D02*
X46783562Y-67985185D01*
X46783562Y-67985185D02*
X45839707Y-68624824D01*
X45173968Y-68408512D02*
X46505447Y-68841136D01*
G04 #@! TO.C,SW13*
X83000085Y-109163292D02*
G75*
G02*
X82679065Y-108533255I154508J475528D01*
G01*
X80800957Y-111077408D02*
G75*
G02*
X81764017Y-112967518I-463525J-1426585D01*
G01*
X85827459Y-115023834D02*
X85981968Y-114548306D01*
X87094429Y-111124502D02*
X87279839Y-110553869D01*
X87279839Y-110553869D02*
X83000085Y-109163292D01*
X81547705Y-113633258D02*
X85827459Y-115023834D01*
X81764017Y-112967518D02*
X81547705Y-113633258D01*
X82679065Y-108533255D02*
X82988082Y-107582199D01*
X82667062Y-106952162D02*
X82988082Y-107582199D01*
X78423316Y-110304865D02*
X80800957Y-111077408D01*
X79813893Y-106025111D02*
X82667062Y-106952162D01*
X78102296Y-109674829D02*
X78423316Y-110304865D01*
X79183856Y-106346131D02*
X79813893Y-106025111D01*
G04 #@! TO.C,SW25*
X181424174Y-128122307D02*
G75*
G02*
X180794137Y-127801287I-154509J475528D01*
G01*
X180770132Y-130963474D02*
G75*
G02*
X182660242Y-131926533I463525J-1426585D01*
G01*
X187156308Y-131201696D02*
X187001800Y-130726168D01*
X185889338Y-127302365D02*
X185703928Y-126731731D01*
X185703928Y-126731731D02*
X181424174Y-128122307D01*
X182876554Y-132592273D02*
X187156308Y-131201696D01*
X182660242Y-131926533D02*
X182876554Y-132592273D01*
X180794137Y-127801287D02*
X180485120Y-126850231D01*
X179855083Y-126529211D02*
X180485120Y-126850231D01*
X178392490Y-131736016D02*
X180770132Y-130963474D01*
X177001914Y-127456262D02*
X179855083Y-126529211D01*
X177762454Y-131414997D02*
X178392490Y-131736016D01*
X176680894Y-128086299D02*
X177001914Y-127456262D01*
G04 #@! TO.C,SW17*
X98821285Y-118720092D02*
G75*
G02*
X98500265Y-118090055I154508J475528D01*
G01*
X96622157Y-120634208D02*
G75*
G02*
X97585217Y-122524318I-463525J-1426585D01*
G01*
X101648659Y-124580634D02*
X101803168Y-124105106D01*
X102915629Y-120681302D02*
X103101039Y-120110669D01*
X103101039Y-120110669D02*
X98821285Y-118720092D01*
X97368905Y-123190058D02*
X101648659Y-124580634D01*
X97585217Y-122524318D02*
X97368905Y-123190058D01*
X98500265Y-118090055D02*
X98809282Y-117138999D01*
X98488262Y-116508962D02*
X98809282Y-117138999D01*
X94244516Y-119861665D02*
X96622157Y-120634208D01*
X95635093Y-115581911D02*
X98488262Y-116508962D01*
X93923496Y-119231629D02*
X94244516Y-119861665D01*
X95005056Y-115902931D02*
X95635093Y-115581911D01*
G04 #@! TO.C,SW21*
X118922185Y-129667392D02*
G75*
G02*
X118601165Y-129037355I154508J475528D01*
G01*
X116723057Y-131581508D02*
G75*
G02*
X117686117Y-133471618I-463525J-1426585D01*
G01*
X121749559Y-135527934D02*
X121904068Y-135052406D01*
X123016529Y-131628602D02*
X123201939Y-131057969D01*
X123201939Y-131057969D02*
X118922185Y-129667392D01*
X117469805Y-134137358D02*
X121749559Y-135527934D01*
X117686117Y-133471618D02*
X117469805Y-134137358D01*
X118601165Y-129037355D02*
X118910182Y-128086299D01*
X118589162Y-127456262D02*
X118910182Y-128086299D01*
X114345416Y-130808965D02*
X116723057Y-131581508D01*
X115735993Y-126529211D02*
X118589162Y-127456262D01*
X114024396Y-130178929D02*
X114345416Y-130808965D01*
X115105956Y-126850231D02*
X115735993Y-126529211D01*
G04 #@! TO.C,SW29*
X201525074Y-117175007D02*
G75*
G02*
X200895037Y-116853987I-154509J475528D01*
G01*
X200871032Y-120016174D02*
G75*
G02*
X202761142Y-120979233I463525J-1426585D01*
G01*
X207257208Y-120254396D02*
X207102700Y-119778868D01*
X205990238Y-116355065D02*
X205804828Y-115784431D01*
X205804828Y-115784431D02*
X201525074Y-117175007D01*
X202977454Y-121644973D02*
X207257208Y-120254396D01*
X202761142Y-120979233D02*
X202977454Y-121644973D01*
X200895037Y-116853987D02*
X200586020Y-115902931D01*
X199955983Y-115581911D02*
X200586020Y-115902931D01*
X198493390Y-120788716D02*
X200871032Y-120016174D01*
X197102814Y-116508962D02*
X199955983Y-115581911D01*
X197863354Y-120467697D02*
X198493390Y-120788716D01*
X196781794Y-117138999D02*
X197102814Y-116508962D01*
G04 #@! TO.C,SW33*
X217346174Y-107618207D02*
G75*
G02*
X216716137Y-107297187I-154509J475528D01*
G01*
X216692132Y-110459374D02*
G75*
G02*
X218582242Y-111422433I463525J-1426585D01*
G01*
X223078308Y-110697596D02*
X222923800Y-110222068D01*
X221811338Y-106798265D02*
X221625928Y-106227631D01*
X221625928Y-106227631D02*
X217346174Y-107618207D01*
X218798554Y-112088173D02*
X223078308Y-110697596D01*
X218582242Y-111422433D02*
X218798554Y-112088173D01*
X216716137Y-107297187D02*
X216407120Y-106346131D01*
X215777083Y-106025111D02*
X216407120Y-106346131D01*
X214314490Y-111231916D02*
X216692132Y-110459374D01*
X212923914Y-106952162D02*
X215777083Y-106025111D01*
X213684454Y-110910897D02*
X214314490Y-111231916D01*
X212602894Y-107582199D02*
X212923914Y-106952162D01*
G04 #@! TO.C,SW3*
X33002685Y-88291792D02*
G75*
G02*
X32681665Y-87661755I154508J475528D01*
G01*
X30803557Y-90205908D02*
G75*
G02*
X31766617Y-92096018I-463525J-1426585D01*
G01*
X35830059Y-94152334D02*
X35984568Y-93676806D01*
X37097029Y-90253002D02*
X37282439Y-89682369D01*
X37282439Y-89682369D02*
X33002685Y-88291792D01*
X31550305Y-92761758D02*
X35830059Y-94152334D01*
X31766617Y-92096018D02*
X31550305Y-92761758D01*
X32681665Y-87661755D02*
X32990682Y-86710699D01*
X32669662Y-86080662D02*
X32990682Y-86710699D01*
X28425916Y-89433365D02*
X30803557Y-90205908D01*
X29816493Y-85153611D02*
X32669662Y-86080662D01*
X28104896Y-88803329D02*
X28425916Y-89433365D01*
X29186456Y-85474631D02*
X29816493Y-85153611D01*
G04 #@! TO.C,SW6*
X51419585Y-89859592D02*
G75*
G02*
X51098565Y-89229555I154508J475528D01*
G01*
X49220457Y-91773708D02*
G75*
G02*
X50183517Y-93663818I-463525J-1426585D01*
G01*
X54246959Y-95720134D02*
X54401468Y-95244606D01*
X55513929Y-91820802D02*
X55699339Y-91250169D01*
X55699339Y-91250169D02*
X51419585Y-89859592D01*
X49967205Y-94329558D02*
X54246959Y-95720134D01*
X50183517Y-93663818D02*
X49967205Y-94329558D01*
X51098565Y-89229555D02*
X51407582Y-88278499D01*
X51086562Y-87648462D02*
X51407582Y-88278499D01*
X46842816Y-91001165D02*
X49220457Y-91773708D01*
X48233393Y-86721411D02*
X51086562Y-87648462D01*
X46521796Y-90371129D02*
X46842816Y-91001165D01*
X47603356Y-87042431D02*
X48233393Y-86721411D01*
G04 #@! TO.C,SW9*
X69836485Y-91427492D02*
G75*
G02*
X69515465Y-90797455I154508J475528D01*
G01*
X67637357Y-93341608D02*
G75*
G02*
X68600417Y-95231718I-463525J-1426585D01*
G01*
X72663859Y-97288034D02*
X72818368Y-96812506D01*
X73930829Y-93388702D02*
X74116239Y-92818069D01*
X74116239Y-92818069D02*
X69836485Y-91427492D01*
X68384105Y-95897458D02*
X72663859Y-97288034D01*
X68600417Y-95231718D02*
X68384105Y-95897458D01*
X69515465Y-90797455D02*
X69824482Y-89846399D01*
X69503462Y-89216362D02*
X69824482Y-89846399D01*
X65259716Y-92569065D02*
X67637357Y-93341608D01*
X66650293Y-88289311D02*
X69503462Y-89216362D01*
X64938696Y-91939029D02*
X65259716Y-92569065D01*
X66020256Y-88610331D02*
X66650293Y-88289311D01*
G04 #@! TO.C,SW12*
X88253385Y-92995392D02*
G75*
G02*
X87932365Y-92365355I154508J475528D01*
G01*
X86054257Y-94909508D02*
G75*
G02*
X87017317Y-96799618I-463525J-1426585D01*
G01*
X91080759Y-98855934D02*
X91235268Y-98380406D01*
X92347729Y-94956602D02*
X92533139Y-94385969D01*
X92533139Y-94385969D02*
X88253385Y-92995392D01*
X86801005Y-97465358D02*
X91080759Y-98855934D01*
X87017317Y-96799618D02*
X86801005Y-97465358D01*
X87932365Y-92365355D02*
X88241382Y-91414299D01*
X87920362Y-90784262D02*
X88241382Y-91414299D01*
X83676616Y-94136965D02*
X86054257Y-94909508D01*
X85067193Y-89857211D02*
X87920362Y-90784262D01*
X83355596Y-93506929D02*
X83676616Y-94136965D01*
X84437156Y-90178231D02*
X85067193Y-89857211D01*
G04 #@! TO.C,SW16*
X104074485Y-102552092D02*
G75*
G02*
X103753465Y-101922055I154508J475528D01*
G01*
X101875357Y-104466208D02*
G75*
G02*
X102838417Y-106356318I-463525J-1426585D01*
G01*
X106901859Y-108412634D02*
X107056368Y-107937106D01*
X108168829Y-104513302D02*
X108354239Y-103942669D01*
X108354239Y-103942669D02*
X104074485Y-102552092D01*
X102622105Y-107022058D02*
X106901859Y-108412634D01*
X102838417Y-106356318D02*
X102622105Y-107022058D01*
X103753465Y-101922055D02*
X104062482Y-100970999D01*
X103741462Y-100340962D02*
X104062482Y-100970999D01*
X99497716Y-103693665D02*
X101875357Y-104466208D01*
X100888293Y-99413911D02*
X103741462Y-100340962D01*
X99176696Y-103063629D02*
X99497716Y-103693665D01*
X100258256Y-99734931D02*
X100888293Y-99413911D01*
G04 #@! TO.C,SW20*
X119895685Y-112108892D02*
G75*
G02*
X119574665Y-111478855I154508J475528D01*
G01*
X117696557Y-114023008D02*
G75*
G02*
X118659617Y-115913118I-463525J-1426585D01*
G01*
X122723059Y-117969434D02*
X122877568Y-117493906D01*
X123990029Y-114070102D02*
X124175439Y-113499469D01*
X124175439Y-113499469D02*
X119895685Y-112108892D01*
X118443305Y-116578858D02*
X122723059Y-117969434D01*
X118659617Y-115913118D02*
X118443305Y-116578858D01*
X119574665Y-111478855D02*
X119883682Y-110527799D01*
X119562662Y-109897762D02*
X119883682Y-110527799D01*
X115318916Y-113250465D02*
X117696557Y-114023008D01*
X116709493Y-108970711D02*
X119562662Y-109897762D01*
X114997896Y-112620429D02*
X115318916Y-113250465D01*
X116079456Y-109291731D02*
X116709493Y-108970711D01*
G04 #@! TO.C,SW24*
X180450674Y-110563807D02*
G75*
G02*
X179820637Y-110242787I-154509J475528D01*
G01*
X179796632Y-113404974D02*
G75*
G02*
X181686742Y-114368033I463525J-1426585D01*
G01*
X186182808Y-113643196D02*
X186028300Y-113167668D01*
X184915838Y-109743865D02*
X184730428Y-109173231D01*
X184730428Y-109173231D02*
X180450674Y-110563807D01*
X181903054Y-115033773D02*
X186182808Y-113643196D01*
X181686742Y-114368033D02*
X181903054Y-115033773D01*
X179820637Y-110242787D02*
X179511620Y-109291731D01*
X178881583Y-108970711D02*
X179511620Y-109291731D01*
X177418990Y-114177516D02*
X179796632Y-113404974D01*
X176028414Y-109897762D02*
X178881583Y-108970711D01*
X176788954Y-113856497D02*
X177418990Y-114177516D01*
X175707394Y-110527799D02*
X176028414Y-109897762D01*
G04 #@! TO.C,SW28*
X196271774Y-101007007D02*
G75*
G02*
X195641737Y-100685987I-154509J475528D01*
G01*
X195617732Y-103848174D02*
G75*
G02*
X197507842Y-104811233I463525J-1426585D01*
G01*
X202003908Y-104086396D02*
X201849400Y-103610868D01*
X200736938Y-100187065D02*
X200551528Y-99616431D01*
X200551528Y-99616431D02*
X196271774Y-101007007D01*
X197724154Y-105476973D02*
X202003908Y-104086396D01*
X197507842Y-104811233D02*
X197724154Y-105476973D01*
X195641737Y-100685987D02*
X195332720Y-99734931D01*
X194702683Y-99413911D02*
X195332720Y-99734931D01*
X193240090Y-104620716D02*
X195617732Y-103848174D01*
X191849514Y-100340962D02*
X194702683Y-99413911D01*
X192610054Y-104299697D02*
X193240090Y-104620716D01*
X191528494Y-100970999D02*
X191849514Y-100340962D01*
G04 #@! TO.C,SW32*
X212092874Y-91450307D02*
G75*
G02*
X211462837Y-91129287I-154509J475528D01*
G01*
X211438832Y-94291474D02*
G75*
G02*
X213328942Y-95254533I463525J-1426585D01*
G01*
X217825008Y-94529696D02*
X217670500Y-94054168D01*
X216558038Y-90630365D02*
X216372628Y-90059731D01*
X216372628Y-90059731D02*
X212092874Y-91450307D01*
X213545254Y-95920273D02*
X217825008Y-94529696D01*
X213328942Y-95254533D02*
X213545254Y-95920273D01*
X211462837Y-91129287D02*
X211153820Y-90178231D01*
X210523783Y-89857211D02*
X211153820Y-90178231D01*
X209061190Y-95064016D02*
X211438832Y-94291474D01*
X207670614Y-90784262D02*
X210523783Y-89857211D01*
X208431154Y-94742997D02*
X209061190Y-95064016D01*
X207349594Y-91414299D02*
X207670614Y-90784262D01*
G04 #@! TO.C,SW36*
X230509774Y-89882407D02*
G75*
G02*
X229879737Y-89561387I-154509J475528D01*
G01*
X229855732Y-92723574D02*
G75*
G02*
X231745842Y-93686633I463525J-1426585D01*
G01*
X236241908Y-92961796D02*
X236087400Y-92486268D01*
X234974938Y-89062465D02*
X234789528Y-88491831D01*
X234789528Y-88491831D02*
X230509774Y-89882407D01*
X231962154Y-94352373D02*
X236241908Y-92961796D01*
X231745842Y-93686633D02*
X231962154Y-94352373D01*
X229879737Y-89561387D02*
X229570720Y-88610331D01*
X228940683Y-88289311D02*
X229570720Y-88610331D01*
X227478090Y-93496116D02*
X229855732Y-92723574D01*
X226087514Y-89216362D02*
X228940683Y-88289311D01*
X226848054Y-93175097D02*
X227478090Y-93496116D01*
X225766494Y-89846399D02*
X226087514Y-89216362D01*
G04 #@! TO.C,SW39*
X248926674Y-88314507D02*
G75*
G02*
X248296637Y-87993487I-154509J475528D01*
G01*
X248272632Y-91155674D02*
G75*
G02*
X250162742Y-92118733I463525J-1426585D01*
G01*
X254658808Y-91393896D02*
X254504300Y-90918368D01*
X253391838Y-87494565D02*
X253206428Y-86923931D01*
X253206428Y-86923931D02*
X248926674Y-88314507D01*
X250379054Y-92784473D02*
X254658808Y-91393896D01*
X250162742Y-92118733D02*
X250379054Y-92784473D01*
X248296637Y-87993487D02*
X247987620Y-87042431D01*
X247357583Y-86721411D02*
X247987620Y-87042431D01*
X245894990Y-91928216D02*
X248272632Y-91155674D01*
X244504414Y-87648462D02*
X247357583Y-86721411D01*
X245264954Y-91607197D02*
X245894990Y-91928216D01*
X244183394Y-88278499D02*
X244504414Y-87648462D01*
G04 #@! TO.C,SW42*
X267343574Y-86746707D02*
G75*
G02*
X266713537Y-86425687I-154509J475528D01*
G01*
X266689532Y-89587874D02*
G75*
G02*
X268579642Y-90550933I463525J-1426585D01*
G01*
X273075708Y-89826096D02*
X272921200Y-89350568D01*
X271808738Y-85926765D02*
X271623328Y-85356131D01*
X271623328Y-85356131D02*
X267343574Y-86746707D01*
X268795954Y-91216673D02*
X273075708Y-89826096D01*
X268579642Y-90550933D02*
X268795954Y-91216673D01*
X266713537Y-86425687D02*
X266404520Y-85474631D01*
X265774483Y-85153611D02*
X266404520Y-85474631D01*
X264311890Y-90360416D02*
X266689532Y-89587874D01*
X262921314Y-86080662D02*
X265774483Y-85153611D01*
X263681854Y-90039397D02*
X264311890Y-90360416D01*
X262600294Y-86710699D02*
X262921314Y-86080662D01*
G04 #@! TO.C,SW2*
X38255985Y-72123792D02*
G75*
G02*
X37934965Y-71493755I154508J475528D01*
G01*
X36056857Y-74037908D02*
G75*
G02*
X37019917Y-75928018I-463525J-1426585D01*
G01*
X41083359Y-77984334D02*
X41237868Y-77508806D01*
X42350329Y-74085002D02*
X42535739Y-73514369D01*
X42535739Y-73514369D02*
X38255985Y-72123792D01*
X36803605Y-76593758D02*
X41083359Y-77984334D01*
X37019917Y-75928018D02*
X36803605Y-76593758D01*
X37934965Y-71493755D02*
X38243982Y-70542699D01*
X37922962Y-69912662D02*
X38243982Y-70542699D01*
X33679216Y-73265365D02*
X36056857Y-74037908D01*
X35069793Y-68985611D02*
X37922962Y-69912662D01*
X33358196Y-72635329D02*
X33679216Y-73265365D01*
X34439756Y-69306631D02*
X35069793Y-68985611D01*
G04 #@! TO.C,SW5*
X56672885Y-73691692D02*
G75*
G02*
X56351865Y-73061655I154508J475528D01*
G01*
X54473757Y-75605808D02*
G75*
G02*
X55436817Y-77495918I-463525J-1426585D01*
G01*
X59500259Y-79552234D02*
X59654768Y-79076706D01*
X60767229Y-75652902D02*
X60952639Y-75082269D01*
X60952639Y-75082269D02*
X56672885Y-73691692D01*
X55220505Y-78161658D02*
X59500259Y-79552234D01*
X55436817Y-77495918D02*
X55220505Y-78161658D01*
X56351865Y-73061655D02*
X56660882Y-72110599D01*
X56339862Y-71480562D02*
X56660882Y-72110599D01*
X52096116Y-74833265D02*
X54473757Y-75605808D01*
X53486693Y-70553511D02*
X56339862Y-71480562D01*
X51775096Y-74203229D02*
X52096116Y-74833265D01*
X52856656Y-70874531D02*
X53486693Y-70553511D01*
G04 #@! TO.C,SW8*
X75089785Y-75259492D02*
G75*
G02*
X74768765Y-74629455I154508J475528D01*
G01*
X72890657Y-77173608D02*
G75*
G02*
X73853717Y-79063718I-463525J-1426585D01*
G01*
X77917159Y-81120034D02*
X78071668Y-80644506D01*
X79184129Y-77220702D02*
X79369539Y-76650069D01*
X79369539Y-76650069D02*
X75089785Y-75259492D01*
X73637405Y-79729458D02*
X77917159Y-81120034D01*
X73853717Y-79063718D02*
X73637405Y-79729458D01*
X74768765Y-74629455D02*
X75077782Y-73678399D01*
X74756762Y-73048362D02*
X75077782Y-73678399D01*
X70513016Y-76401065D02*
X72890657Y-77173608D01*
X71903593Y-72121311D02*
X74756762Y-73048362D01*
X70191996Y-75771029D02*
X70513016Y-76401065D01*
X71273556Y-72442331D02*
X71903593Y-72121311D01*
G04 #@! TO.C,SW11*
X93506685Y-76827392D02*
G75*
G02*
X93185665Y-76197355I154508J475528D01*
G01*
X91307557Y-78741508D02*
G75*
G02*
X92270617Y-80631618I-463525J-1426585D01*
G01*
X96334059Y-82687934D02*
X96488568Y-82212406D01*
X97601029Y-78788602D02*
X97786439Y-78217969D01*
X97786439Y-78217969D02*
X93506685Y-76827392D01*
X92054305Y-81297358D02*
X96334059Y-82687934D01*
X92270617Y-80631618D02*
X92054305Y-81297358D01*
X93185665Y-76197355D02*
X93494682Y-75246299D01*
X93173662Y-74616262D02*
X93494682Y-75246299D01*
X88929916Y-77968965D02*
X91307557Y-78741508D01*
X90320493Y-73689211D02*
X93173662Y-74616262D01*
X88608896Y-77338929D02*
X88929916Y-77968965D01*
X89690456Y-74010231D02*
X90320493Y-73689211D01*
G04 #@! TO.C,SW15*
X109327785Y-86384192D02*
G75*
G02*
X109006765Y-85754155I154508J475528D01*
G01*
X107128657Y-88298308D02*
G75*
G02*
X108091717Y-90188418I-463525J-1426585D01*
G01*
X112155159Y-92244734D02*
X112309668Y-91769206D01*
X113422129Y-88345402D02*
X113607539Y-87774769D01*
X113607539Y-87774769D02*
X109327785Y-86384192D01*
X107875405Y-90854158D02*
X112155159Y-92244734D01*
X108091717Y-90188418D02*
X107875405Y-90854158D01*
X109006765Y-85754155D02*
X109315782Y-84803099D01*
X108994762Y-84173062D02*
X109315782Y-84803099D01*
X104751016Y-87525765D02*
X107128657Y-88298308D01*
X106141593Y-83246011D02*
X108994762Y-84173062D01*
X104429996Y-86895729D02*
X104751016Y-87525765D01*
X105511556Y-83567031D02*
X106141593Y-83246011D01*
G04 #@! TO.C,SW19*
X125148985Y-95940892D02*
G75*
G02*
X124827965Y-95310855I154508J475528D01*
G01*
X122949857Y-97855008D02*
G75*
G02*
X123912917Y-99745118I-463525J-1426585D01*
G01*
X127976359Y-101801434D02*
X128130868Y-101325906D01*
X129243329Y-97902102D02*
X129428739Y-97331469D01*
X129428739Y-97331469D02*
X125148985Y-95940892D01*
X123696605Y-100410858D02*
X127976359Y-101801434D01*
X123912917Y-99745118D02*
X123696605Y-100410858D01*
X124827965Y-95310855D02*
X125136982Y-94359799D01*
X124815962Y-93729762D02*
X125136982Y-94359799D01*
X120572216Y-97082465D02*
X122949857Y-97855008D01*
X121962793Y-92802711D02*
X124815962Y-93729762D01*
X120251196Y-96452429D02*
X120572216Y-97082465D01*
X121332756Y-93123731D02*
X121962793Y-92802711D01*
G04 #@! TO.C,SW23*
X175197374Y-94395807D02*
G75*
G02*
X174567337Y-94074787I-154509J475528D01*
G01*
X174543332Y-97236974D02*
G75*
G02*
X176433442Y-98200033I463525J-1426585D01*
G01*
X180929508Y-97475196D02*
X180775000Y-96999668D01*
X179662538Y-93575865D02*
X179477128Y-93005231D01*
X179477128Y-93005231D02*
X175197374Y-94395807D01*
X176649754Y-98865773D02*
X180929508Y-97475196D01*
X176433442Y-98200033D02*
X176649754Y-98865773D01*
X174567337Y-94074787D02*
X174258320Y-93123731D01*
X173628283Y-92802711D02*
X174258320Y-93123731D01*
X172165690Y-98009516D02*
X174543332Y-97236974D01*
X170775114Y-93729762D02*
X173628283Y-92802711D01*
X171535654Y-97688497D02*
X172165690Y-98009516D01*
X170454094Y-94359799D02*
X170775114Y-93729762D01*
G04 #@! TO.C,SW27*
X191018474Y-84839107D02*
G75*
G02*
X190388437Y-84518087I-154509J475528D01*
G01*
X190364432Y-87680274D02*
G75*
G02*
X192254542Y-88643333I463525J-1426585D01*
G01*
X196750608Y-87918496D02*
X196596100Y-87442968D01*
X195483638Y-84019165D02*
X195298228Y-83448531D01*
X195298228Y-83448531D02*
X191018474Y-84839107D01*
X192470854Y-89309073D02*
X196750608Y-87918496D01*
X192254542Y-88643333D02*
X192470854Y-89309073D01*
X190388437Y-84518087D02*
X190079420Y-83567031D01*
X189449383Y-83246011D02*
X190079420Y-83567031D01*
X187986790Y-88452816D02*
X190364432Y-87680274D01*
X186596214Y-84173062D02*
X189449383Y-83246011D01*
X187356754Y-88131797D02*
X187986790Y-88452816D01*
X186275194Y-84803099D02*
X186596214Y-84173062D01*
G04 #@! TO.C,SW31*
X206839674Y-75282307D02*
G75*
G02*
X206209637Y-74961287I-154509J475528D01*
G01*
X206185632Y-78123474D02*
G75*
G02*
X208075742Y-79086533I463525J-1426585D01*
G01*
X212571808Y-78361696D02*
X212417300Y-77886168D01*
X211304838Y-74462365D02*
X211119428Y-73891731D01*
X211119428Y-73891731D02*
X206839674Y-75282307D01*
X208292054Y-79752273D02*
X212571808Y-78361696D01*
X208075742Y-79086533D02*
X208292054Y-79752273D01*
X206209637Y-74961287D02*
X205900620Y-74010231D01*
X205270583Y-73689211D02*
X205900620Y-74010231D01*
X203807990Y-78896016D02*
X206185632Y-78123474D01*
X202417414Y-74616262D02*
X205270583Y-73689211D01*
X203177954Y-78574997D02*
X203807990Y-78896016D01*
X202096394Y-75246299D02*
X202417414Y-74616262D01*
G04 #@! TO.C,SW35*
X225256474Y-73714407D02*
G75*
G02*
X224626437Y-73393387I-154509J475528D01*
G01*
X224602432Y-76555574D02*
G75*
G02*
X226492542Y-77518633I463525J-1426585D01*
G01*
X230988608Y-76793796D02*
X230834100Y-76318268D01*
X229721638Y-72894465D02*
X229536228Y-72323831D01*
X229536228Y-72323831D02*
X225256474Y-73714407D01*
X226708854Y-78184373D02*
X230988608Y-76793796D01*
X226492542Y-77518633D02*
X226708854Y-78184373D01*
X224626437Y-73393387D02*
X224317420Y-72442331D01*
X223687383Y-72121311D02*
X224317420Y-72442331D01*
X222224790Y-77328116D02*
X224602432Y-76555574D01*
X220834214Y-73048362D02*
X223687383Y-72121311D01*
X221594754Y-77007097D02*
X222224790Y-77328116D01*
X220513194Y-73678399D02*
X220834214Y-73048362D01*
G04 #@! TO.C,SW38*
X243673374Y-72146607D02*
G75*
G02*
X243043337Y-71825587I-154509J475528D01*
G01*
X243019332Y-74987774D02*
G75*
G02*
X244909442Y-75950833I463525J-1426585D01*
G01*
X249405508Y-75225996D02*
X249251000Y-74750468D01*
X248138538Y-71326665D02*
X247953128Y-70756031D01*
X247953128Y-70756031D02*
X243673374Y-72146607D01*
X245125754Y-76616573D02*
X249405508Y-75225996D01*
X244909442Y-75950833D02*
X245125754Y-76616573D01*
X243043337Y-71825587D02*
X242734320Y-70874531D01*
X242104283Y-70553511D02*
X242734320Y-70874531D01*
X240641690Y-75760316D02*
X243019332Y-74987774D01*
X239251114Y-71480562D02*
X242104283Y-70553511D01*
X240011654Y-75439297D02*
X240641690Y-75760316D01*
X238930094Y-72110599D02*
X239251114Y-71480562D01*
G04 #@! TO.C,SW41*
X262090274Y-70578707D02*
G75*
G02*
X261460237Y-70257687I-154509J475528D01*
G01*
X261436232Y-73419874D02*
G75*
G02*
X263326342Y-74382933I463525J-1426585D01*
G01*
X267822408Y-73658096D02*
X267667900Y-73182568D01*
X266555438Y-69758765D02*
X266370028Y-69188131D01*
X266370028Y-69188131D02*
X262090274Y-70578707D01*
X263542654Y-75048673D02*
X267822408Y-73658096D01*
X263326342Y-74382933D02*
X263542654Y-75048673D01*
X261460237Y-70257687D02*
X261151220Y-69306631D01*
X260521183Y-68985611D02*
X261151220Y-69306631D01*
X259058590Y-74192416D02*
X261436232Y-73419874D01*
X257668014Y-69912662D02*
X260521183Y-68985611D01*
X258428554Y-73871397D02*
X259058590Y-74192416D01*
X257346994Y-70542699D02*
X257668014Y-69912662D01*
G04 #@! TO.C,SW1*
X43509285Y-55955792D02*
G75*
G02*
X43188265Y-55325755I154508J475528D01*
G01*
X41310157Y-57869908D02*
G75*
G02*
X42273217Y-59760018I-463525J-1426585D01*
G01*
X46336659Y-61816334D02*
X46491168Y-61340806D01*
X47603629Y-57917002D02*
X47789039Y-57346369D01*
X47789039Y-57346369D02*
X43509285Y-55955792D01*
X42056905Y-60425758D02*
X46336659Y-61816334D01*
X42273217Y-59760018D02*
X42056905Y-60425758D01*
X43188265Y-55325755D02*
X43497282Y-54374699D01*
X43176262Y-53744662D02*
X43497282Y-54374699D01*
X38932516Y-57097365D02*
X41310157Y-57869908D01*
X40323093Y-52817611D02*
X43176262Y-53744662D01*
X38611496Y-56467329D02*
X38932516Y-57097365D01*
X39693056Y-53138631D02*
X40323093Y-52817611D01*
G04 #@! TO.C,SW4*
X61926185Y-57523692D02*
G75*
G02*
X61605165Y-56893655I154508J475528D01*
G01*
X59727057Y-59437808D02*
G75*
G02*
X60690117Y-61327918I-463525J-1426585D01*
G01*
X64753559Y-63384234D02*
X64908068Y-62908706D01*
X66020529Y-59484902D02*
X66205939Y-58914269D01*
X66205939Y-58914269D02*
X61926185Y-57523692D01*
X60473805Y-61993658D02*
X64753559Y-63384234D01*
X60690117Y-61327918D02*
X60473805Y-61993658D01*
X61605165Y-56893655D02*
X61914182Y-55942599D01*
X61593162Y-55312562D02*
X61914182Y-55942599D01*
X57349416Y-58665265D02*
X59727057Y-59437808D01*
X58739993Y-54385511D02*
X61593162Y-55312562D01*
X57028396Y-58035229D02*
X57349416Y-58665265D01*
X58109956Y-54706531D02*
X58739993Y-54385511D01*
G04 #@! TO.C,SW7*
X80343085Y-59091592D02*
G75*
G02*
X80022065Y-58461555I154508J475528D01*
G01*
X78143957Y-61005708D02*
G75*
G02*
X79107017Y-62895818I-463525J-1426585D01*
G01*
X83170459Y-64952134D02*
X83324968Y-64476606D01*
X84437429Y-61052802D02*
X84622839Y-60482169D01*
X84622839Y-60482169D02*
X80343085Y-59091592D01*
X78890705Y-63561558D02*
X83170459Y-64952134D01*
X79107017Y-62895818D02*
X78890705Y-63561558D01*
X80022065Y-58461555D02*
X80331082Y-57510499D01*
X80010062Y-56880462D02*
X80331082Y-57510499D01*
X75766316Y-60233165D02*
X78143957Y-61005708D01*
X77156893Y-55953411D02*
X80010062Y-56880462D01*
X75445296Y-59603129D02*
X75766316Y-60233165D01*
X76526856Y-56274431D02*
X77156893Y-55953411D01*
G04 #@! TO.C,SW10*
X98759985Y-60659492D02*
G75*
G02*
X98438965Y-60029455I154508J475528D01*
G01*
X96560857Y-62573608D02*
G75*
G02*
X97523917Y-64463718I-463525J-1426585D01*
G01*
X101587359Y-66520034D02*
X101741868Y-66044506D01*
X102854329Y-62620702D02*
X103039739Y-62050069D01*
X103039739Y-62050069D02*
X98759985Y-60659492D01*
X97307605Y-65129458D02*
X101587359Y-66520034D01*
X97523917Y-64463718D02*
X97307605Y-65129458D01*
X98438965Y-60029455D02*
X98747982Y-59078399D01*
X98426962Y-58448362D02*
X98747982Y-59078399D01*
X94183216Y-61801065D02*
X96560857Y-62573608D01*
X95573793Y-57521311D02*
X98426962Y-58448362D01*
X93862196Y-61171029D02*
X94183216Y-61801065D01*
X94943756Y-57842331D02*
X95573793Y-57521311D01*
G04 #@! TO.C,SW14*
X114581085Y-70216192D02*
G75*
G02*
X114260065Y-69586155I154508J475528D01*
G01*
X112381957Y-72130308D02*
G75*
G02*
X113345017Y-74020418I-463525J-1426585D01*
G01*
X117408459Y-76076734D02*
X117562968Y-75601206D01*
X118675429Y-72177402D02*
X118860839Y-71606769D01*
X118860839Y-71606769D02*
X114581085Y-70216192D01*
X113128705Y-74686158D02*
X117408459Y-76076734D01*
X113345017Y-74020418D02*
X113128705Y-74686158D01*
X114260065Y-69586155D02*
X114569082Y-68635099D01*
X114248062Y-68005062D02*
X114569082Y-68635099D01*
X110004316Y-71357765D02*
X112381957Y-72130308D01*
X111394893Y-67078011D02*
X114248062Y-68005062D01*
X109683296Y-70727729D02*
X110004316Y-71357765D01*
X110764856Y-67399031D02*
X111394893Y-67078011D01*
G04 #@! TO.C,SW18*
X130402285Y-79772892D02*
G75*
G02*
X130081265Y-79142855I154508J475528D01*
G01*
X128203157Y-81687008D02*
G75*
G02*
X129166217Y-83577118I-463525J-1426585D01*
G01*
X133229659Y-85633434D02*
X133384168Y-85157906D01*
X134496629Y-81734102D02*
X134682039Y-81163469D01*
X134682039Y-81163469D02*
X130402285Y-79772892D01*
X128949905Y-84242858D02*
X133229659Y-85633434D01*
X129166217Y-83577118D02*
X128949905Y-84242858D01*
X130081265Y-79142855D02*
X130390282Y-78191799D01*
X130069262Y-77561762D02*
X130390282Y-78191799D01*
X125825516Y-80914465D02*
X128203157Y-81687008D01*
X127216093Y-76634711D02*
X130069262Y-77561762D01*
X125504496Y-80284429D02*
X125825516Y-80914465D01*
X126586056Y-76955731D02*
X127216093Y-76634711D01*
G04 #@! TO.C,SW22*
X169944074Y-78227807D02*
G75*
G02*
X169314037Y-77906787I-154509J475528D01*
G01*
X169290032Y-81068974D02*
G75*
G02*
X171180142Y-82032033I463525J-1426585D01*
G01*
X175676208Y-81307196D02*
X175521700Y-80831668D01*
X174409238Y-77407865D02*
X174223828Y-76837231D01*
X174223828Y-76837231D02*
X169944074Y-78227807D01*
X171396454Y-82697773D02*
X175676208Y-81307196D01*
X171180142Y-82032033D02*
X171396454Y-82697773D01*
X169314037Y-77906787D02*
X169005020Y-76955731D01*
X168374983Y-76634711D02*
X169005020Y-76955731D01*
X166912390Y-81841516D02*
X169290032Y-81068974D01*
X165521814Y-77561762D02*
X168374983Y-76634711D01*
X166282354Y-81520497D02*
X166912390Y-81841516D01*
X165200794Y-78191799D02*
X165521814Y-77561762D01*
G04 #@! TO.C,SW26*
X185765174Y-68671107D02*
G75*
G02*
X185135137Y-68350087I-154509J475528D01*
G01*
X185111132Y-71512274D02*
G75*
G02*
X187001242Y-72475333I463525J-1426585D01*
G01*
X191497308Y-71750496D02*
X191342800Y-71274968D01*
X190230338Y-67851165D02*
X190044928Y-67280531D01*
X190044928Y-67280531D02*
X185765174Y-68671107D01*
X187217554Y-73141073D02*
X191497308Y-71750496D01*
X187001242Y-72475333D02*
X187217554Y-73141073D01*
X185135137Y-68350087D02*
X184826120Y-67399031D01*
X184196083Y-67078011D02*
X184826120Y-67399031D01*
X182733490Y-72284816D02*
X185111132Y-71512274D01*
X181342914Y-68005062D02*
X184196083Y-67078011D01*
X182103454Y-71963797D02*
X182733490Y-72284816D01*
X181021894Y-68635099D02*
X181342914Y-68005062D01*
G04 #@! TO.C,SW30*
X201586374Y-59114407D02*
G75*
G02*
X200956337Y-58793387I-154509J475528D01*
G01*
X200932332Y-61955574D02*
G75*
G02*
X202822442Y-62918633I463525J-1426585D01*
G01*
X207318508Y-62193796D02*
X207164000Y-61718268D01*
X206051538Y-58294465D02*
X205866128Y-57723831D01*
X205866128Y-57723831D02*
X201586374Y-59114407D01*
X203038754Y-63584373D02*
X207318508Y-62193796D01*
X202822442Y-62918633D02*
X203038754Y-63584373D01*
X200956337Y-58793387D02*
X200647320Y-57842331D01*
X200017283Y-57521311D02*
X200647320Y-57842331D01*
X198554690Y-62728116D02*
X200932332Y-61955574D01*
X197164114Y-58448362D02*
X200017283Y-57521311D01*
X197924654Y-62407097D02*
X198554690Y-62728116D01*
X196843094Y-59078399D02*
X197164114Y-58448362D01*
G04 #@! TO.C,SW34*
X220003274Y-57546507D02*
G75*
G02*
X219373237Y-57225487I-154509J475528D01*
G01*
X219349232Y-60387674D02*
G75*
G02*
X221239342Y-61350733I463525J-1426585D01*
G01*
X225735408Y-60625896D02*
X225580900Y-60150368D01*
X224468438Y-56726565D02*
X224283028Y-56155931D01*
X224283028Y-56155931D02*
X220003274Y-57546507D01*
X221455654Y-62016473D02*
X225735408Y-60625896D01*
X221239342Y-61350733D02*
X221455654Y-62016473D01*
X219373237Y-57225487D02*
X219064220Y-56274431D01*
X218434183Y-55953411D02*
X219064220Y-56274431D01*
X216971590Y-61160216D02*
X219349232Y-60387674D01*
X215581014Y-56880462D02*
X218434183Y-55953411D01*
X216341554Y-60839197D02*
X216971590Y-61160216D01*
X215259994Y-57510499D02*
X215581014Y-56880462D01*
G04 #@! TO.C,SW37*
X238420074Y-55978607D02*
G75*
G02*
X237790037Y-55657587I-154509J475528D01*
G01*
X237766032Y-58819774D02*
G75*
G02*
X239656142Y-59782833I463525J-1426585D01*
G01*
X244152208Y-59057996D02*
X243997700Y-58582468D01*
X242885238Y-55158665D02*
X242699828Y-54588031D01*
X242699828Y-54588031D02*
X238420074Y-55978607D01*
X239872454Y-60448573D02*
X244152208Y-59057996D01*
X239656142Y-59782833D02*
X239872454Y-60448573D01*
X237790037Y-55657587D02*
X237481020Y-54706531D01*
X236850983Y-54385511D02*
X237481020Y-54706531D01*
X235388390Y-59592316D02*
X237766032Y-58819774D01*
X233997814Y-55312562D02*
X236850983Y-54385511D01*
X234758354Y-59271297D02*
X235388390Y-59592316D01*
X233676794Y-55942599D02*
X233997814Y-55312562D01*
G04 #@! TO.C,SW40*
X256836974Y-54410707D02*
G75*
G02*
X256206937Y-54089687I-154509J475528D01*
G01*
X256182932Y-57251874D02*
G75*
G02*
X258073042Y-58214933I463525J-1426585D01*
G01*
X262569108Y-57490096D02*
X262414600Y-57014568D01*
X261302138Y-53590765D02*
X261116728Y-53020131D01*
X261116728Y-53020131D02*
X256836974Y-54410707D01*
X258289354Y-58880673D02*
X262569108Y-57490096D01*
X258073042Y-58214933D02*
X258289354Y-58880673D01*
X256206937Y-54089687D02*
X255897920Y-53138631D01*
X255267883Y-52817611D02*
X255897920Y-53138631D01*
X253805290Y-58024416D02*
X256182932Y-57251874D01*
X252414714Y-53744662D02*
X255267883Y-52817611D01*
X253175254Y-57703397D02*
X253805290Y-58024416D01*
X252093694Y-54374699D02*
X252414714Y-53744662D01*
G04 #@! TD*
%LPC*%
D13*
G04 #@! TO.C,RST2*
X146320707Y-64747832D03*
X146320707Y-71047832D03*
X150120707Y-64747832D03*
X150120707Y-71047832D03*
G04 #@! TD*
D14*
G04 #@! TO.C,U1*
X140286338Y-57099700D03*
D15*
X140266338Y-59669700D03*
D14*
X140266338Y-62209700D03*
X140266338Y-64749700D03*
X140266338Y-67289700D03*
X140266338Y-69829700D03*
X140266338Y-72369700D03*
X140266338Y-74909700D03*
X140266338Y-77449700D03*
X140266338Y-79989700D03*
X140266338Y-82529700D03*
X140266338Y-85069700D03*
X155506338Y-85069700D03*
X155506338Y-82529700D03*
X155506338Y-79989700D03*
X155506338Y-77449700D03*
X155506338Y-74909700D03*
X155506338Y-72369700D03*
X155506338Y-69829700D03*
X155506338Y-67289700D03*
D15*
X155506338Y-64749700D03*
X155506338Y-62209700D03*
D14*
X155506338Y-59669700D03*
X155506338Y-57129700D03*
G04 #@! TD*
D16*
G04 #@! TO.C,D42*
X275975409Y-93561004D03*
X277026067Y-96794596D03*
G04 #@! TD*
G04 #@! TO.C,D41*
X270722109Y-77393104D03*
X271772767Y-80626696D03*
G04 #@! TD*
G04 #@! TO.C,D40*
X265468809Y-61225104D03*
X266519467Y-64458696D03*
G04 #@! TD*
G04 #@! TO.C,D39*
X257558509Y-95128904D03*
X258609167Y-98362496D03*
G04 #@! TD*
G04 #@! TO.C,D38*
X252305209Y-78960904D03*
X253355867Y-82194496D03*
G04 #@! TD*
G04 #@! TO.C,D37*
X247051909Y-62793004D03*
X248102567Y-66026596D03*
G04 #@! TD*
G04 #@! TO.C,D36*
X239141609Y-96696804D03*
X240192267Y-99930396D03*
G04 #@! TD*
G04 #@! TO.C,D35*
X233888309Y-80528804D03*
X234938967Y-83762396D03*
G04 #@! TD*
G04 #@! TO.C,D34*
X228635009Y-64360804D03*
X229685667Y-67594396D03*
G04 #@! TD*
G04 #@! TO.C,D33*
X225978009Y-114432604D03*
X227028667Y-117666196D03*
G04 #@! TD*
G04 #@! TO.C,D32*
X220724709Y-98264604D03*
X221775367Y-101498196D03*
G04 #@! TD*
G04 #@! TO.C,D31*
X215471409Y-82096704D03*
X216522067Y-85330296D03*
G04 #@! TD*
G04 #@! TO.C,D30*
X210218109Y-65928704D03*
X211268767Y-69162296D03*
G04 #@! TD*
G04 #@! TO.C,D29*
X210156809Y-123989304D03*
X211207467Y-127222896D03*
G04 #@! TD*
G04 #@! TO.C,D28*
X204903509Y-107821404D03*
X205954167Y-111054996D03*
G04 #@! TD*
G04 #@! TO.C,D27*
X199650309Y-91653404D03*
X200700967Y-94886996D03*
G04 #@! TD*
G04 #@! TO.C,D26*
X194397009Y-75485504D03*
X195447667Y-78719096D03*
G04 #@! TD*
G04 #@! TO.C,D25*
X190075409Y-135061004D03*
X191126067Y-138294596D03*
G04 #@! TD*
G04 #@! TO.C,D24*
X189082409Y-117378104D03*
X190133067Y-120611696D03*
G04 #@! TD*
G04 #@! TO.C,D23*
X183829109Y-101210204D03*
X184879767Y-104443796D03*
G04 #@! TD*
G04 #@! TO.C,D22*
X178575809Y-85042204D03*
X179626467Y-88275796D03*
G04 #@! TD*
D17*
G04 #@! TO.C,D21*
X121914167Y-140290604D03*
X120863509Y-143524196D03*
G04 #@! TD*
G04 #@! TO.C,D20*
X122887767Y-122732104D03*
X121837109Y-125965696D03*
G04 #@! TD*
G04 #@! TO.C,D19*
X128140967Y-106564204D03*
X127090309Y-109797796D03*
G04 #@! TD*
G04 #@! TO.C,D18*
X133394267Y-90396204D03*
X132343609Y-93629796D03*
G04 #@! TD*
G04 #@! TO.C,D17*
X101813267Y-129343304D03*
X100762609Y-132576896D03*
G04 #@! TD*
G04 #@! TO.C,D16*
X107066567Y-113175404D03*
X106015909Y-116408996D03*
G04 #@! TD*
G04 #@! TO.C,D15*
X112319867Y-97007404D03*
X111269209Y-100240996D03*
G04 #@! TD*
G04 #@! TO.C,D14*
X117573167Y-80839404D03*
X116522509Y-84072996D03*
G04 #@! TD*
G04 #@! TO.C,D13*
X85992167Y-119786604D03*
X84941509Y-123020196D03*
G04 #@! TD*
G04 #@! TO.C,D12*
X91245467Y-103618604D03*
X90194809Y-106852196D03*
G04 #@! TD*
G04 #@! TO.C,D11*
X96498767Y-87450704D03*
X95448109Y-90684296D03*
G04 #@! TD*
G04 #@! TO.C,D10*
X101751967Y-71282704D03*
X100701309Y-74516296D03*
G04 #@! TD*
G04 #@! TO.C,D9*
X72828567Y-102050804D03*
X71777909Y-105284396D03*
G04 #@! TD*
G04 #@! TO.C,D8*
X78081867Y-85882804D03*
X77031209Y-89116396D03*
G04 #@! TD*
G04 #@! TO.C,D7*
X83335167Y-69714804D03*
X82284509Y-72948396D03*
G04 #@! TD*
G04 #@! TO.C,D6*
X54411667Y-100482904D03*
X53361009Y-103716496D03*
G04 #@! TD*
G04 #@! TO.C,D5*
X59663967Y-84314604D03*
X58613309Y-87548196D03*
G04 #@! TD*
G04 #@! TO.C,D4*
X64918267Y-68147004D03*
X63867609Y-71380596D03*
G04 #@! TD*
G04 #@! TO.C,D3*
X35994767Y-98915004D03*
X34944109Y-102148596D03*
G04 #@! TD*
G04 #@! TO.C,D2*
X41248067Y-82747104D03*
X40197409Y-85980696D03*
G04 #@! TD*
G04 #@! TO.C,D1*
X46500867Y-66579004D03*
X45450209Y-69812596D03*
G04 #@! TD*
D18*
G04 #@! TO.C,SW_RST1*
X160700707Y-54477832D03*
X162900707Y-54477832D03*
G04 #@! TD*
D19*
G04 #@! TO.C,H_M2_6*
X148279438Y-137724100D03*
G04 #@! TD*
G04 #@! TO.C,H_M2_2*
X56279438Y-109877800D03*
G04 #@! TD*
D20*
G04 #@! TO.C,BATT1*
X136970707Y-59677832D03*
D21*
X134430707Y-59677832D03*
G04 #@! TD*
D19*
G04 #@! TO.C,H_M2_1*
X85600738Y-55377800D03*
G04 #@! TD*
G04 #@! TO.C,H_M2_5*
X239600738Y-109877800D03*
G04 #@! TD*
G04 #@! TO.C,H_M2_3*
X148250707Y-89277832D03*
G04 #@! TD*
G04 #@! TO.C,H_M2_4*
X210100738Y-55377800D03*
G04 #@! TD*
D22*
G04 #@! TO.C,SW43*
X136550707Y-55377832D03*
X128250707Y-55377832D03*
D23*
X132400707Y-55377832D03*
X134400707Y-55377832D03*
X130400707Y-55377832D03*
G04 #@! TD*
D24*
G04 #@! TO.C,SW13*
X87679466Y-113207225D03*
X77374601Y-107545754D03*
D25*
X83937349Y-115986893D03*
D26*
X84620634Y-112265923D03*
D27*
X78706538Y-114287300D03*
D26*
X80545189Y-108628514D03*
D28*
X72444152Y-116668669D03*
D25*
X73475727Y-112587707D03*
G04 #@! TD*
D29*
G04 #@! TO.C,SW25*
X187586837Y-128643446D03*
X175922297Y-130120268D03*
D25*
X186193249Y-133091807D03*
D26*
X184558907Y-129679853D03*
D27*
X180962438Y-134791400D03*
D26*
X179123787Y-129132614D03*
D28*
X177295794Y-140398906D03*
D25*
X175731627Y-136490993D03*
G04 #@! TD*
D24*
G04 #@! TO.C,SW17*
X103500666Y-122764025D03*
X93195801Y-117102554D03*
D25*
X99758549Y-125543693D03*
D26*
X100441834Y-121822723D03*
D27*
X94527738Y-123844100D03*
D26*
X96366389Y-118185314D03*
D28*
X88265352Y-126225469D03*
D25*
X89296927Y-122144507D03*
G04 #@! TD*
D24*
G04 #@! TO.C,SW21*
X123601566Y-133711325D03*
X113296701Y-128049854D03*
D25*
X119859449Y-136490993D03*
D26*
X120542734Y-132770023D03*
D27*
X114628638Y-134791400D03*
D26*
X116467289Y-129132614D03*
D28*
X108366252Y-137172769D03*
D25*
X109397827Y-133091807D03*
G04 #@! TD*
D29*
G04 #@! TO.C,SW29*
X207687737Y-117696146D03*
X196023197Y-119172968D03*
D25*
X206294149Y-122144507D03*
D26*
X204659807Y-118732553D03*
D27*
X201063338Y-123844100D03*
D26*
X199224687Y-118185314D03*
D28*
X197396694Y-129451606D03*
D25*
X195832527Y-125543693D03*
G04 #@! TD*
D29*
G04 #@! TO.C,SW33*
X223508837Y-108139346D03*
X211844297Y-109616168D03*
D25*
X222115249Y-112587707D03*
D26*
X220480907Y-109175753D03*
D27*
X216884438Y-114287300D03*
D26*
X215045787Y-108628514D03*
D28*
X213217794Y-119894806D03*
D25*
X211653627Y-115986893D03*
G04 #@! TD*
D24*
G04 #@! TO.C,SW3*
X37682066Y-92335725D03*
X27377201Y-86674254D03*
D25*
X33939949Y-95115393D03*
D26*
X34623234Y-91394423D03*
D27*
X28709138Y-93415800D03*
D26*
X30547789Y-87757014D03*
D28*
X22446752Y-95797169D03*
D25*
X23478327Y-91716207D03*
G04 #@! TD*
D24*
G04 #@! TO.C,SW6*
X56098966Y-93903525D03*
X45794101Y-88242054D03*
D25*
X52356849Y-96683193D03*
D26*
X53040134Y-92962223D03*
D27*
X47126038Y-94983600D03*
D26*
X48964689Y-89324814D03*
D28*
X40863652Y-97364969D03*
D25*
X41895227Y-93284007D03*
G04 #@! TD*
D24*
G04 #@! TO.C,SW9*
X74515866Y-95471425D03*
X64211001Y-89809954D03*
D25*
X70773749Y-98251093D03*
D26*
X71457034Y-94530123D03*
D27*
X65542938Y-96551500D03*
D26*
X67381589Y-90892714D03*
D28*
X59280552Y-98932869D03*
D25*
X60312127Y-94851907D03*
G04 #@! TD*
D24*
G04 #@! TO.C,SW12*
X92932766Y-97039325D03*
X82627901Y-91377854D03*
D25*
X89190649Y-99818993D03*
D26*
X89873934Y-96098023D03*
D27*
X83959838Y-98119400D03*
D26*
X85798489Y-92460614D03*
D28*
X77697452Y-100500769D03*
D25*
X78729027Y-96419807D03*
G04 #@! TD*
D24*
G04 #@! TO.C,SW16*
X108753866Y-106596025D03*
X98449001Y-100934554D03*
D25*
X105011749Y-109375693D03*
D26*
X105695034Y-105654723D03*
D27*
X99780938Y-107676100D03*
D26*
X101619589Y-102017314D03*
D28*
X93518552Y-110057469D03*
D25*
X94550127Y-105976507D03*
G04 #@! TD*
D24*
G04 #@! TO.C,SW20*
X124575066Y-116152825D03*
X114270201Y-110491354D03*
D25*
X120832949Y-118932493D03*
D26*
X121516234Y-115211523D03*
D27*
X115602138Y-117232900D03*
D26*
X117440789Y-111574114D03*
D28*
X109339752Y-119614269D03*
D25*
X110371327Y-115533307D03*
G04 #@! TD*
D29*
G04 #@! TO.C,SW24*
X186613337Y-111084946D03*
X174948797Y-112561768D03*
D25*
X185219749Y-115533307D03*
D26*
X183585407Y-112121353D03*
D27*
X179988938Y-117232900D03*
D26*
X178150287Y-111574114D03*
D28*
X176322294Y-122840406D03*
D25*
X174758127Y-118932493D03*
G04 #@! TD*
D29*
G04 #@! TO.C,SW28*
X202434437Y-101528146D03*
X190769897Y-103004968D03*
D25*
X201040849Y-105976507D03*
D26*
X199406507Y-102564553D03*
D27*
X195810038Y-107676100D03*
D26*
X193971387Y-102017314D03*
D28*
X192143394Y-113283606D03*
D25*
X190579227Y-109375693D03*
G04 #@! TD*
D29*
G04 #@! TO.C,SW32*
X218255537Y-91971446D03*
X206590997Y-93448268D03*
D25*
X216861949Y-96419807D03*
D26*
X215227607Y-93007853D03*
D27*
X211631138Y-98119400D03*
D26*
X209792487Y-92460614D03*
D28*
X207964494Y-103726906D03*
D25*
X206400327Y-99818993D03*
G04 #@! TD*
D29*
G04 #@! TO.C,SW36*
X236672437Y-90403546D03*
X225007897Y-91880368D03*
D25*
X235278849Y-94851907D03*
D26*
X233644507Y-91439953D03*
D27*
X230048038Y-96551500D03*
D26*
X228209387Y-90892714D03*
D28*
X226381394Y-102159006D03*
D25*
X224817227Y-98251093D03*
G04 #@! TD*
D29*
G04 #@! TO.C,SW39*
X255089337Y-88835646D03*
X243424797Y-90312468D03*
D25*
X253695749Y-93284007D03*
D26*
X252061407Y-89872053D03*
D27*
X248464938Y-94983600D03*
D26*
X246626287Y-89324814D03*
D28*
X244798294Y-100591106D03*
D25*
X243234127Y-96683193D03*
G04 #@! TD*
D29*
G04 #@! TO.C,SW42*
X273506237Y-87267846D03*
X261841697Y-88744668D03*
D25*
X272112649Y-91716207D03*
D26*
X270478307Y-88304253D03*
D27*
X266881838Y-93415800D03*
D26*
X265043187Y-87757014D03*
D28*
X263215194Y-99023306D03*
D25*
X261651027Y-95115393D03*
G04 #@! TD*
D24*
G04 #@! TO.C,SW2*
X42935366Y-76167725D03*
X32630501Y-70506254D03*
D25*
X39193249Y-78947393D03*
D26*
X39876534Y-75226423D03*
D27*
X33962438Y-77247800D03*
D26*
X35801089Y-71589014D03*
D28*
X27700052Y-79629169D03*
D25*
X28731627Y-75548207D03*
G04 #@! TD*
D24*
G04 #@! TO.C,SW5*
X61352266Y-77735625D03*
X51047401Y-72074154D03*
D25*
X57610149Y-80515293D03*
D26*
X58293434Y-76794323D03*
D27*
X52379338Y-78815700D03*
D26*
X54217989Y-73156914D03*
D28*
X46116952Y-81197069D03*
D25*
X47148527Y-77116107D03*
G04 #@! TD*
D24*
G04 #@! TO.C,SW8*
X79769166Y-79303425D03*
X69464301Y-73641954D03*
D25*
X76027049Y-82083093D03*
D26*
X76710334Y-78362123D03*
D27*
X70796238Y-80383500D03*
D26*
X72634889Y-74724714D03*
D28*
X64533852Y-82764869D03*
D25*
X65565427Y-78683907D03*
G04 #@! TD*
D24*
G04 #@! TO.C,SW11*
X98186066Y-80871325D03*
X87881201Y-75209854D03*
D25*
X94443949Y-83650993D03*
D26*
X95127234Y-79930023D03*
D27*
X89213138Y-81951400D03*
D26*
X91051789Y-76292614D03*
D28*
X82950752Y-84332769D03*
D25*
X83982327Y-80251807D03*
G04 #@! TD*
D24*
G04 #@! TO.C,SW15*
X114007166Y-90428125D03*
X103702301Y-84766654D03*
D25*
X110265049Y-93207793D03*
D26*
X110948334Y-89486823D03*
D27*
X105034238Y-91508200D03*
D26*
X106872889Y-85849414D03*
D28*
X98771852Y-93889569D03*
D25*
X99803427Y-89808607D03*
G04 #@! TD*
D24*
G04 #@! TO.C,SW19*
X129828366Y-99984825D03*
X119523501Y-94323354D03*
D25*
X126086249Y-102764493D03*
D26*
X126769534Y-99043523D03*
D27*
X120855438Y-101064900D03*
D26*
X122694089Y-95406114D03*
D28*
X114593052Y-103446269D03*
D25*
X115624627Y-99365307D03*
G04 #@! TD*
D29*
G04 #@! TO.C,SW23*
X181360037Y-94916946D03*
X169695497Y-96393768D03*
D25*
X179966449Y-99365307D03*
D26*
X178332107Y-95953353D03*
D27*
X174735638Y-101064900D03*
D26*
X172896987Y-95406114D03*
D28*
X171068994Y-106672406D03*
D25*
X169504827Y-102764493D03*
G04 #@! TD*
D29*
G04 #@! TO.C,SW27*
X197181137Y-85360246D03*
X185516597Y-86837068D03*
D25*
X195787549Y-89808607D03*
D26*
X194153207Y-86396653D03*
D27*
X190556738Y-91508200D03*
D26*
X188718087Y-85849414D03*
D28*
X186890094Y-97115706D03*
D25*
X185325927Y-93207793D03*
G04 #@! TD*
D29*
G04 #@! TO.C,SW31*
X213002337Y-75803446D03*
X201337797Y-77280268D03*
D25*
X211608749Y-80251807D03*
D26*
X209974407Y-76839853D03*
D27*
X206377938Y-81951400D03*
D26*
X204539287Y-76292614D03*
D28*
X202711294Y-87558906D03*
D25*
X201147127Y-83650993D03*
G04 #@! TD*
D29*
G04 #@! TO.C,SW35*
X231419137Y-74235546D03*
X219754597Y-75712368D03*
D25*
X230025549Y-78683907D03*
D26*
X228391207Y-75271953D03*
D27*
X224794738Y-80383500D03*
D26*
X222956087Y-74724714D03*
D28*
X221128094Y-85991006D03*
D25*
X219563927Y-82083093D03*
G04 #@! TD*
D29*
G04 #@! TO.C,SW38*
X249836037Y-72667746D03*
X238171497Y-74144568D03*
D25*
X248442449Y-77116107D03*
D26*
X246808107Y-73704153D03*
D27*
X243211638Y-78815700D03*
D26*
X241372987Y-73156914D03*
D28*
X239544994Y-84423206D03*
D25*
X237980827Y-80515293D03*
G04 #@! TD*
D29*
G04 #@! TO.C,SW41*
X268252937Y-71099846D03*
X256588397Y-72576668D03*
D25*
X266859349Y-75548207D03*
D26*
X265225007Y-72136253D03*
D27*
X261628538Y-77247800D03*
D26*
X259789887Y-71589014D03*
D28*
X257961894Y-82855306D03*
D25*
X256397727Y-78947393D03*
G04 #@! TD*
D24*
G04 #@! TO.C,SW1*
X48188666Y-59999725D03*
X37883801Y-54338254D03*
D25*
X44446549Y-62779393D03*
D26*
X45129834Y-59058423D03*
D27*
X39215738Y-61079800D03*
D26*
X41054389Y-55421014D03*
D28*
X32953352Y-63461169D03*
D25*
X33984927Y-59380207D03*
G04 #@! TD*
D24*
G04 #@! TO.C,SW4*
X66605566Y-61567625D03*
X56300701Y-55906154D03*
D25*
X62863449Y-64347293D03*
D26*
X63546734Y-60626323D03*
D27*
X57632638Y-62647700D03*
D26*
X59471289Y-56988914D03*
D28*
X51370252Y-65029069D03*
D25*
X52401827Y-60948107D03*
G04 #@! TD*
D24*
G04 #@! TO.C,SW7*
X85022466Y-63135525D03*
X74717601Y-57474054D03*
D25*
X81280349Y-65915193D03*
D26*
X81963634Y-62194223D03*
D27*
X76049538Y-64215600D03*
D26*
X77888189Y-58556814D03*
D28*
X69787152Y-66596969D03*
D25*
X70818727Y-62516007D03*
G04 #@! TD*
D24*
G04 #@! TO.C,SW10*
X103439366Y-64703425D03*
X93134501Y-59041954D03*
D25*
X99697249Y-67483093D03*
D26*
X100380534Y-63762123D03*
D27*
X94466438Y-65783500D03*
D26*
X96305089Y-60124714D03*
D28*
X88204052Y-68164869D03*
D25*
X89235627Y-64083907D03*
G04 #@! TD*
D24*
G04 #@! TO.C,SW14*
X119260466Y-74260125D03*
X108955601Y-68598654D03*
D25*
X115518349Y-77039793D03*
D26*
X116201634Y-73318823D03*
D27*
X110287538Y-75340200D03*
D26*
X112126189Y-69681414D03*
D28*
X104025152Y-77721569D03*
D25*
X105056727Y-73640607D03*
G04 #@! TD*
D24*
G04 #@! TO.C,SW18*
X135081666Y-83816825D03*
X124776801Y-78155354D03*
D25*
X131339549Y-86596493D03*
D26*
X132022834Y-82875523D03*
D27*
X126108738Y-84896900D03*
D26*
X127947389Y-79238114D03*
D28*
X119846352Y-87278269D03*
D25*
X120877927Y-83197307D03*
G04 #@! TD*
D29*
G04 #@! TO.C,SW22*
X176106737Y-78748946D03*
X164442197Y-80225768D03*
D25*
X174713149Y-83197307D03*
D26*
X173078807Y-79785353D03*
D27*
X169482338Y-84896900D03*
D26*
X167643687Y-79238114D03*
D28*
X165815694Y-90504406D03*
D25*
X164251527Y-86596493D03*
G04 #@! TD*
D29*
G04 #@! TO.C,SW26*
X191927837Y-69192246D03*
X180263297Y-70669068D03*
D25*
X190534249Y-73640607D03*
D26*
X188899907Y-70228653D03*
D27*
X185303438Y-75340200D03*
D26*
X183464787Y-69681414D03*
D28*
X181636794Y-80947706D03*
D25*
X180072627Y-77039793D03*
G04 #@! TD*
D29*
G04 #@! TO.C,SW30*
X207749037Y-59635546D03*
X196084497Y-61112368D03*
D25*
X206355449Y-64083907D03*
D26*
X204721107Y-60671953D03*
D27*
X201124638Y-65783500D03*
D26*
X199285987Y-60124714D03*
D28*
X197457994Y-71391006D03*
D25*
X195893827Y-67483093D03*
G04 #@! TD*
D29*
G04 #@! TO.C,SW34*
X226165937Y-58067646D03*
X214501397Y-59544468D03*
D25*
X224772349Y-62516007D03*
D26*
X223138007Y-59104053D03*
D27*
X219541538Y-64215600D03*
D26*
X217702887Y-58556814D03*
D28*
X215874894Y-69823106D03*
D25*
X214310727Y-65915193D03*
G04 #@! TD*
D29*
G04 #@! TO.C,SW37*
X244582737Y-56499746D03*
X232918197Y-57976568D03*
D25*
X243189149Y-60948107D03*
D26*
X241554807Y-57536153D03*
D27*
X237958338Y-62647700D03*
D26*
X236119687Y-56988914D03*
D28*
X234291694Y-68255206D03*
D25*
X232727527Y-64347293D03*
G04 #@! TD*
D29*
G04 #@! TO.C,SW40*
X262999637Y-54931846D03*
X251335097Y-56408668D03*
D25*
X261606049Y-59380207D03*
D26*
X259971707Y-55968253D03*
D27*
X256375238Y-61079800D03*
D26*
X254536587Y-55421014D03*
D28*
X252708594Y-66687306D03*
D25*
X251144427Y-62779393D03*
G04 #@! TD*
%LPD*%
M02*
