M48
; DRILL file {KiCad 8.0.4} date 2024-08-25T22:17:33+0700
; FORMAT={-:-/ absolute / metric / decimal}
; #@! TF.CreationDate,2024-08-25T22:17:33+07:00
; #@! TF.GenerationSoftware,Kicad,Pcbnew,8.0.4
; #@! TF.FileFunction,Plated,1,2,PTH
FMAT,2
METRIC
; #@! TA.AperFunction,Plated,PTH,ViaDrill
T1C0.300
; #@! TA.AperFunction,Plated,PTH,ComponentDrill
T2C0.800
; #@! TA.AperFunction,Plated,PTH,ComponentDrill
T3C1.092
; #@! TA.AperFunction,Plated,PTH,ComponentDrill
T4C1.270
; #@! TA.AperFunction,Plated,PTH,ComponentDrill
T5C1.400
%
G90
G05
T1
X36.501Y-81.6
X38.501Y-64.1
X47.67Y-85.867
X51.977Y-70.021
X65.083Y-87.756
X70.819Y-71.593
X71.001Y-106.306
X83.936Y-89.324
X85.069Y-73.352
X100.485Y-111.563
X100.501Y-73.352
X107.017Y-71.303
X107.395Y-70.206
X119.394Y-81.527
X122.746Y-103.345
X161.601Y-86.884
X165.001Y-80.296
X175.65Y-112.586
X188.121Y-113.674
X189.768Y-104.464
X192.773Y-84.343
X199.374Y-125.727
X203.248Y-74.847
X209.005Y-94.936
X214.277Y-69.844
X217.684Y-72.964
X225.542Y-89.087
X236.72Y-71.5
X244.001Y-88.1
X264.001Y-57.378
X269.215Y-73.878
T2
X162.215Y-55.378
X164.215Y-55.378
X166.215Y-55.378
T3
X140.881Y-54.59
X140.881Y-57.13
X140.881Y-59.67
X140.881Y-62.21
X140.881Y-64.75
X140.881Y-67.29
X140.881Y-69.83
X140.881Y-72.37
X140.881Y-74.91
X140.881Y-77.45
X140.881Y-79.99
X140.881Y-82.53
X140.881Y-85.07
X143.421Y-79.99
X145.961Y-79.99
X148.501Y-79.99
X156.121Y-54.59
X156.121Y-57.13
X156.121Y-59.67
X156.121Y-62.21
X156.121Y-64.75
X156.121Y-67.29
X156.121Y-69.83
X156.121Y-72.37
X156.121Y-74.91
X156.121Y-77.45
X156.121Y-79.99
X156.121Y-82.53
X156.121Y-85.07
T4
X23.394Y-95.485
X27.501Y-99.027
X28.648Y-79.317
X32.754Y-82.859
X33.901Y-63.149
X38.007Y-66.691
X41.811Y-97.053
X45.918Y-100.595
X47.065Y-80.885
X51.171Y-84.427
X52.318Y-64.717
X56.424Y-68.259
X60.228Y-98.62
X64.334Y-102.163
X65.481Y-82.452
X69.588Y-85.995
X70.735Y-66.285
X73.392Y-116.356
X74.841Y-69.827
X77.498Y-119.899
X78.645Y-100.188
X82.751Y-103.731
X83.898Y-84.02
X88.005Y-87.563
X89.152Y-67.852
X89.213Y-125.913
X93.258Y-71.395
X93.319Y-129.455
X94.466Y-109.745
X98.572Y-113.287
X99.719Y-93.577
X103.826Y-97.119
X104.973Y-77.409
X109.079Y-80.951
X109.314Y-136.86
X110.287Y-119.302
X113.42Y-140.403
X114.394Y-122.844
X115.541Y-103.134
X119.647Y-106.676
X120.794Y-86.966
X124.9Y-90.508
X166.516Y-90.056
X171.769Y-106.224
X171.92Y-90.508
X177.023Y-122.392
X177.174Y-106.676
X177.996Y-139.95
X182.337Y-80.499
X182.427Y-122.844
X183.4Y-140.403
X187.59Y-96.667
X187.741Y-80.951
X192.844Y-112.835
X192.995Y-97.119
X198.097Y-129.003
X198.158Y-70.943
X198.248Y-113.287
X203.412Y-87.11
X203.501Y-129.455
X203.563Y-71.395
X208.665Y-103.278
X208.816Y-87.563
X213.918Y-119.446
X214.069Y-103.731
X216.575Y-69.375
X219.322Y-119.899
X221.828Y-85.543
X221.979Y-69.827
X227.082Y-101.711
X227.233Y-85.995
X232.486Y-102.163
X234.992Y-67.807
X240.245Y-83.975
X240.396Y-68.259
X245.499Y-100.143
X245.65Y-84.427
X250.903Y-100.595
X253.409Y-66.239
X258.662Y-82.407
X258.813Y-66.691
X263.916Y-98.575
X264.066Y-82.859
X269.32Y-99.027
T5
X160.065Y-55.378
X168.365Y-55.378
M30
