G04 #@! TF.GenerationSoftware,KiCad,Pcbnew,8.0.4*
G04 #@! TF.CreationDate,2024-08-25T22:46:28+07:00*
G04 #@! TF.ProjectId,ozprey,6f7a7072-6579-42e6-9b69-6361645f7063,1.0*
G04 #@! TF.SameCoordinates,Original*
G04 #@! TF.FileFunction,Legend,Top*
G04 #@! TF.FilePolarity,Positive*
%FSLAX46Y46*%
G04 Gerber Fmt 4.6, Leading zero omitted, Abs format (unit mm)*
G04 Created by KiCad (PCBNEW 8.0.4) date 2024-08-25 22:46:28*
%MOMM*%
%LPD*%
G01*
G04 APERTURE LIST*
%ADD10C,0.150000*%
%ADD11C,0.075000*%
%ADD12C,0.300000*%
%ADD13C,0.125000*%
%ADD14C,0.250000*%
%ADD15C,0.127000*%
%ADD16C,0.100000*%
%ADD17C,1.752600*%
%ADD18C,1.701800*%
%ADD19C,3.000000*%
%ADD20C,3.429000*%
%ADD21C,2.032000*%
%ADD22C,1.512000*%
%ADD23C,2.304000*%
%ADD24C,2.200000*%
%ADD25C,0.900000*%
%ADD26R,0.900000X1.270000*%
%ADD27R,1.450000X0.800000*%
G04 APERTURE END LIST*
D10*
X161616533Y-54234032D02*
X161730819Y-54272127D01*
X161730819Y-54272127D02*
X161921295Y-54272127D01*
X161921295Y-54272127D02*
X161997486Y-54234032D01*
X161997486Y-54234032D02*
X162035581Y-54195936D01*
X162035581Y-54195936D02*
X162073676Y-54119746D01*
X162073676Y-54119746D02*
X162073676Y-54043555D01*
X162073676Y-54043555D02*
X162035581Y-53967365D01*
X162035581Y-53967365D02*
X161997486Y-53929270D01*
X161997486Y-53929270D02*
X161921295Y-53891174D01*
X161921295Y-53891174D02*
X161768914Y-53853079D01*
X161768914Y-53853079D02*
X161692724Y-53814984D01*
X161692724Y-53814984D02*
X161654629Y-53776889D01*
X161654629Y-53776889D02*
X161616533Y-53700698D01*
X161616533Y-53700698D02*
X161616533Y-53624508D01*
X161616533Y-53624508D02*
X161654629Y-53548317D01*
X161654629Y-53548317D02*
X161692724Y-53510222D01*
X161692724Y-53510222D02*
X161768914Y-53472127D01*
X161768914Y-53472127D02*
X161959391Y-53472127D01*
X161959391Y-53472127D02*
X162073676Y-53510222D01*
X162416534Y-54272127D02*
X162416534Y-53472127D01*
X162873677Y-54272127D02*
X162530819Y-53814984D01*
X162873677Y-53472127D02*
X162416534Y-53929270D01*
X163635581Y-54272127D02*
X163178438Y-54272127D01*
X163407010Y-54272127D02*
X163407010Y-53472127D01*
X163407010Y-53472127D02*
X163330819Y-53586412D01*
X163330819Y-53586412D02*
X163254629Y-53662603D01*
X163254629Y-53662603D02*
X163178438Y-53700698D01*
X163940343Y-53548317D02*
X163978439Y-53510222D01*
X163978439Y-53510222D02*
X164054629Y-53472127D01*
X164054629Y-53472127D02*
X164245105Y-53472127D01*
X164245105Y-53472127D02*
X164321296Y-53510222D01*
X164321296Y-53510222D02*
X164359391Y-53548317D01*
X164359391Y-53548317D02*
X164397486Y-53624508D01*
X164397486Y-53624508D02*
X164397486Y-53700698D01*
X164397486Y-53700698D02*
X164359391Y-53814984D01*
X164359391Y-53814984D02*
X163902248Y-54272127D01*
X163902248Y-54272127D02*
X164397486Y-54272127D01*
X164740344Y-54272127D02*
X164740344Y-53472127D01*
X164740344Y-53472127D02*
X164930820Y-53472127D01*
X164930820Y-53472127D02*
X165045106Y-53510222D01*
X165045106Y-53510222D02*
X165121296Y-53586412D01*
X165121296Y-53586412D02*
X165159391Y-53662603D01*
X165159391Y-53662603D02*
X165197487Y-53814984D01*
X165197487Y-53814984D02*
X165197487Y-53929270D01*
X165197487Y-53929270D02*
X165159391Y-54081651D01*
X165159391Y-54081651D02*
X165121296Y-54157841D01*
X165121296Y-54157841D02*
X165045106Y-54234032D01*
X165045106Y-54234032D02*
X164930820Y-54272127D01*
X164930820Y-54272127D02*
X164740344Y-54272127D01*
X165692725Y-53472127D02*
X165768915Y-53472127D01*
X165768915Y-53472127D02*
X165845106Y-53510222D01*
X165845106Y-53510222D02*
X165883201Y-53548317D01*
X165883201Y-53548317D02*
X165921296Y-53624508D01*
X165921296Y-53624508D02*
X165959391Y-53776889D01*
X165959391Y-53776889D02*
X165959391Y-53967365D01*
X165959391Y-53967365D02*
X165921296Y-54119746D01*
X165921296Y-54119746D02*
X165883201Y-54195936D01*
X165883201Y-54195936D02*
X165845106Y-54234032D01*
X165845106Y-54234032D02*
X165768915Y-54272127D01*
X165768915Y-54272127D02*
X165692725Y-54272127D01*
X165692725Y-54272127D02*
X165616534Y-54234032D01*
X165616534Y-54234032D02*
X165578439Y-54195936D01*
X165578439Y-54195936D02*
X165540344Y-54119746D01*
X165540344Y-54119746D02*
X165502248Y-53967365D01*
X165502248Y-53967365D02*
X165502248Y-53776889D01*
X165502248Y-53776889D02*
X165540344Y-53624508D01*
X165540344Y-53624508D02*
X165578439Y-53548317D01*
X165578439Y-53548317D02*
X165616534Y-53510222D01*
X165616534Y-53510222D02*
X165692725Y-53472127D01*
X166226058Y-53472127D02*
X166759392Y-53472127D01*
X166759392Y-53472127D02*
X166416534Y-54272127D01*
D11*
X131307668Y-55537217D02*
X131507668Y-55537217D01*
X131507668Y-55537217D02*
X131379096Y-55837217D01*
X131621953Y-55808646D02*
X131636239Y-55822932D01*
X131636239Y-55822932D02*
X131621953Y-55837217D01*
X131621953Y-55837217D02*
X131607667Y-55822932D01*
X131607667Y-55822932D02*
X131621953Y-55808646D01*
X131621953Y-55808646D02*
X131621953Y-55837217D01*
X131821953Y-55537217D02*
X131850524Y-55537217D01*
X131850524Y-55537217D02*
X131879096Y-55551503D01*
X131879096Y-55551503D02*
X131893382Y-55565789D01*
X131893382Y-55565789D02*
X131907667Y-55594360D01*
X131907667Y-55594360D02*
X131921953Y-55651503D01*
X131921953Y-55651503D02*
X131921953Y-55722932D01*
X131921953Y-55722932D02*
X131907667Y-55780074D01*
X131907667Y-55780074D02*
X131893382Y-55808646D01*
X131893382Y-55808646D02*
X131879096Y-55822932D01*
X131879096Y-55822932D02*
X131850524Y-55837217D01*
X131850524Y-55837217D02*
X131821953Y-55837217D01*
X131821953Y-55837217D02*
X131793382Y-55822932D01*
X131793382Y-55822932D02*
X131779096Y-55808646D01*
X131779096Y-55808646D02*
X131764810Y-55780074D01*
X131764810Y-55780074D02*
X131750524Y-55722932D01*
X131750524Y-55722932D02*
X131750524Y-55651503D01*
X131750524Y-55651503D02*
X131764810Y-55594360D01*
X131764810Y-55594360D02*
X131779096Y-55565789D01*
X131779096Y-55565789D02*
X131793382Y-55551503D01*
X131793382Y-55551503D02*
X131821953Y-55537217D01*
X132021953Y-55837217D02*
X132179096Y-55637217D01*
X132021953Y-55637217D02*
X132179096Y-55837217D01*
X132279095Y-55565789D02*
X132293381Y-55551503D01*
X132293381Y-55551503D02*
X132321953Y-55537217D01*
X132321953Y-55537217D02*
X132393381Y-55537217D01*
X132393381Y-55537217D02*
X132421953Y-55551503D01*
X132421953Y-55551503D02*
X132436238Y-55565789D01*
X132436238Y-55565789D02*
X132450524Y-55594360D01*
X132450524Y-55594360D02*
X132450524Y-55622932D01*
X132450524Y-55622932D02*
X132436238Y-55665789D01*
X132436238Y-55665789D02*
X132264810Y-55837217D01*
X132264810Y-55837217D02*
X132450524Y-55837217D01*
X132579095Y-55808646D02*
X132593381Y-55822932D01*
X132593381Y-55822932D02*
X132579095Y-55837217D01*
X132579095Y-55837217D02*
X132564809Y-55822932D01*
X132564809Y-55822932D02*
X132579095Y-55808646D01*
X132579095Y-55808646D02*
X132579095Y-55837217D01*
X132764809Y-55665789D02*
X132736238Y-55651503D01*
X132736238Y-55651503D02*
X132721952Y-55637217D01*
X132721952Y-55637217D02*
X132707666Y-55608646D01*
X132707666Y-55608646D02*
X132707666Y-55594360D01*
X132707666Y-55594360D02*
X132721952Y-55565789D01*
X132721952Y-55565789D02*
X132736238Y-55551503D01*
X132736238Y-55551503D02*
X132764809Y-55537217D01*
X132764809Y-55537217D02*
X132821952Y-55537217D01*
X132821952Y-55537217D02*
X132850524Y-55551503D01*
X132850524Y-55551503D02*
X132864809Y-55565789D01*
X132864809Y-55565789D02*
X132879095Y-55594360D01*
X132879095Y-55594360D02*
X132879095Y-55608646D01*
X132879095Y-55608646D02*
X132864809Y-55637217D01*
X132864809Y-55637217D02*
X132850524Y-55651503D01*
X132850524Y-55651503D02*
X132821952Y-55665789D01*
X132821952Y-55665789D02*
X132764809Y-55665789D01*
X132764809Y-55665789D02*
X132736238Y-55680074D01*
X132736238Y-55680074D02*
X132721952Y-55694360D01*
X132721952Y-55694360D02*
X132707666Y-55722932D01*
X132707666Y-55722932D02*
X132707666Y-55780074D01*
X132707666Y-55780074D02*
X132721952Y-55808646D01*
X132721952Y-55808646D02*
X132736238Y-55822932D01*
X132736238Y-55822932D02*
X132764809Y-55837217D01*
X132764809Y-55837217D02*
X132821952Y-55837217D01*
X132821952Y-55837217D02*
X132850524Y-55822932D01*
X132850524Y-55822932D02*
X132864809Y-55808646D01*
X132864809Y-55808646D02*
X132879095Y-55780074D01*
X132879095Y-55780074D02*
X132879095Y-55722932D01*
X132879095Y-55722932D02*
X132864809Y-55694360D01*
X132864809Y-55694360D02*
X132850524Y-55680074D01*
X132850524Y-55680074D02*
X132821952Y-55665789D01*
D12*
G36*
X137202018Y-141100223D02*
G01*
X137496701Y-141145454D01*
X137812873Y-141234068D01*
X138107064Y-141362066D01*
X138177177Y-141400220D01*
X138440318Y-141570946D01*
X138672868Y-141768050D01*
X138874826Y-141991532D01*
X139046193Y-142241392D01*
X139183396Y-142510304D01*
X139281399Y-142792404D01*
X139340200Y-143087694D01*
X139359801Y-143396172D01*
X139338675Y-143703161D01*
X139275296Y-144001492D01*
X139181015Y-144265188D01*
X139041098Y-144540410D01*
X138865163Y-144793812D01*
X138673967Y-145005244D01*
X138432733Y-145211137D01*
X138162408Y-145385513D01*
X137891413Y-145516689D01*
X137599724Y-145616380D01*
X137288858Y-145679149D01*
X136992682Y-145704071D01*
X136890505Y-145705733D01*
X136578923Y-145690656D01*
X136284029Y-145645426D01*
X135967445Y-145556811D01*
X135672659Y-145428813D01*
X135602369Y-145390660D01*
X135339777Y-145220025D01*
X135107410Y-145023196D01*
X134905269Y-144800172D01*
X134733353Y-144550953D01*
X134596790Y-144282041D01*
X134499246Y-143999941D01*
X134440719Y-143704651D01*
X134421210Y-143396172D01*
X136050798Y-143396172D01*
X136090062Y-143693507D01*
X136162173Y-143866584D01*
X136352717Y-144095035D01*
X136464057Y-144171399D01*
X136747480Y-144267931D01*
X136890505Y-144278378D01*
X137192126Y-144227814D01*
X137315488Y-144171399D01*
X137541357Y-143980730D01*
X137618838Y-143866584D01*
X137717052Y-143574736D01*
X137730212Y-143396172D01*
X137691465Y-143098131D01*
X137620303Y-142925761D01*
X137431711Y-142696680D01*
X137319884Y-142620946D01*
X137035076Y-142524414D01*
X136890505Y-142513967D01*
X136597185Y-142560039D01*
X136459661Y-142620946D01*
X136235807Y-142810986D01*
X136159242Y-142925761D01*
X136063613Y-143216947D01*
X136050798Y-143396172D01*
X134421210Y-143396172D01*
X134442163Y-143088522D01*
X134505022Y-142790223D01*
X134598531Y-142527156D01*
X134739282Y-142251935D01*
X134915705Y-141998533D01*
X135107044Y-141787101D01*
X135348278Y-141580374D01*
X135618603Y-141405509D01*
X135889598Y-141274191D01*
X136182547Y-141174499D01*
X136493527Y-141111731D01*
X136788826Y-141086808D01*
X136890505Y-141085147D01*
X137202018Y-141100223D01*
G37*
G36*
X139881503Y-145579704D02*
G01*
X139881503Y-144487938D01*
X141585830Y-142681029D01*
X139956242Y-142681029D01*
X139956242Y-141211176D01*
X143669710Y-141211176D01*
X143669710Y-142304407D01*
X142089947Y-144109850D01*
X143703415Y-144109850D01*
X143703415Y-145579704D01*
X139881503Y-145579704D01*
G37*
G36*
X147670591Y-141102641D02*
G01*
X147988289Y-141164142D01*
X148286049Y-141269926D01*
X148473478Y-141365049D01*
X148732456Y-141541389D01*
X148958745Y-141755519D01*
X149152344Y-142007439D01*
X149245774Y-142163723D01*
X149370155Y-142434741D01*
X149458998Y-142730489D01*
X149512304Y-143050966D01*
X149529795Y-143351669D01*
X149530073Y-143396172D01*
X149514331Y-143698452D01*
X149460650Y-144014099D01*
X149368872Y-144312083D01*
X149242289Y-144587761D01*
X149084190Y-144838503D01*
X148913115Y-145044812D01*
X148677154Y-145259547D01*
X148411105Y-145435539D01*
X148217023Y-145531343D01*
X147932624Y-145630630D01*
X147629524Y-145688703D01*
X147337749Y-145705733D01*
X147037697Y-145684484D01*
X146750101Y-145620736D01*
X146460660Y-145505928D01*
X146221071Y-145361350D01*
X146221071Y-147344114D01*
X144548984Y-147344114D01*
X144548984Y-143396172D01*
X146221071Y-143396172D01*
X146259301Y-143693507D01*
X146329514Y-143866584D01*
X146518736Y-144095035D01*
X146629933Y-144171399D01*
X146916064Y-144267931D01*
X147060778Y-144278378D01*
X147353467Y-144232306D01*
X147490156Y-144171399D01*
X147714640Y-143980730D01*
X147790575Y-143866584D01*
X147887497Y-143574736D01*
X147900484Y-143396172D01*
X147861221Y-143098131D01*
X147789110Y-142925761D01*
X147598566Y-142696680D01*
X147487226Y-142620946D01*
X147203803Y-142524414D01*
X147060778Y-142513967D01*
X146758464Y-142564531D01*
X146634330Y-142620946D01*
X146409783Y-142810986D01*
X146332445Y-142925761D01*
X146234231Y-143216947D01*
X146221071Y-143396172D01*
X144548984Y-143396172D01*
X144548984Y-141211176D01*
X145977805Y-141211176D01*
X145977805Y-141640555D01*
X146201642Y-141434189D01*
X146456709Y-141281744D01*
X146566919Y-141233158D01*
X146850416Y-141142963D01*
X147155757Y-141094397D01*
X147371454Y-141085147D01*
X147670591Y-141102641D01*
G37*
G36*
X150252543Y-145579704D02*
G01*
X150252543Y-141211176D01*
X151933422Y-141211176D01*
X151933422Y-141665468D01*
X152117477Y-141419331D01*
X152364645Y-141241458D01*
X152402369Y-141222900D01*
X152683427Y-141123724D01*
X152988048Y-141080086D01*
X153079410Y-141077819D01*
X153346123Y-141096870D01*
X153567407Y-141136438D01*
X153378363Y-142858350D01*
X153088569Y-142769392D01*
X153044239Y-142760164D01*
X152744624Y-142724422D01*
X152689598Y-142723528D01*
X152389912Y-142767858D01*
X152147379Y-142900848D01*
X151980434Y-143144769D01*
X151933422Y-143454791D01*
X151933422Y-145579704D01*
X150252543Y-145579704D01*
G37*
G36*
X156499520Y-141101839D02*
G01*
X156803720Y-141151917D01*
X157087054Y-141235379D01*
X157235446Y-141296172D01*
X157509904Y-141443462D01*
X157752592Y-141623382D01*
X157963509Y-141835930D01*
X158001880Y-141882355D01*
X158171667Y-142129708D01*
X158303673Y-142402822D01*
X158397897Y-142701695D01*
X158412208Y-142764560D01*
X158455717Y-143056138D01*
X158462595Y-143362089D01*
X158432842Y-143682415D01*
X158400484Y-143866584D01*
X155251217Y-143866584D01*
X155371906Y-144143653D01*
X155394832Y-144168468D01*
X155648210Y-144337375D01*
X155737749Y-144372167D01*
X156028665Y-144435136D01*
X156225746Y-144445440D01*
X156540663Y-144430203D01*
X156837683Y-144384492D01*
X156968733Y-144353116D01*
X157247818Y-144260205D01*
X157525452Y-144131500D01*
X157653101Y-144060025D01*
X158141099Y-145167910D01*
X157879429Y-145325355D01*
X157614999Y-145437554D01*
X157316229Y-145534727D01*
X157022726Y-145608382D01*
X156905718Y-145632460D01*
X156605536Y-145679901D01*
X156297950Y-145703944D01*
X156192041Y-145705733D01*
X155879025Y-145691848D01*
X155583681Y-145650194D01*
X155267784Y-145568587D01*
X154974967Y-145450709D01*
X154905369Y-145415572D01*
X154645892Y-145256112D01*
X154417006Y-145067893D01*
X154218711Y-144850913D01*
X154051008Y-144605175D01*
X153918292Y-144333973D01*
X153823496Y-144040607D01*
X153766618Y-143725076D01*
X153747954Y-143430804D01*
X153747658Y-143387380D01*
X153764975Y-143078002D01*
X153816924Y-142785512D01*
X153820361Y-142774819D01*
X155359661Y-142774819D01*
X156822187Y-142774819D01*
X156722256Y-142492206D01*
X156628747Y-142405523D01*
X156357706Y-142285611D01*
X156124630Y-142261909D01*
X155831905Y-142297812D01*
X155592669Y-142405523D01*
X155397112Y-142628699D01*
X155359661Y-142774819D01*
X153820361Y-142774819D01*
X153914069Y-142483277D01*
X153924979Y-142456814D01*
X154065210Y-142180334D01*
X154240075Y-141931213D01*
X154429096Y-141728482D01*
X154667449Y-141534192D01*
X154933161Y-141372456D01*
X155198461Y-141253674D01*
X155483939Y-141164802D01*
X155787162Y-141108846D01*
X156108132Y-141085805D01*
X156174455Y-141085147D01*
X156499520Y-141101839D01*
G37*
G36*
X159962662Y-147452558D02*
G01*
X159668540Y-147439935D01*
X159360880Y-147398397D01*
X159300275Y-147386612D01*
X159013888Y-147311994D01*
X158740352Y-147201169D01*
X158724350Y-147193172D01*
X159071664Y-145798057D01*
X159350476Y-145898575D01*
X159382341Y-145906500D01*
X159681323Y-145948625D01*
X159710603Y-145948999D01*
X160006663Y-145899965D01*
X160056451Y-145880122D01*
X160254250Y-145662609D01*
X160264546Y-145629529D01*
X160282131Y-145563583D01*
X158601252Y-141211176D01*
X160416953Y-141211176D01*
X161231748Y-143958908D01*
X162020163Y-141211176D01*
X163793367Y-141211176D01*
X162028956Y-145890380D01*
X161907598Y-146163688D01*
X161757714Y-146436126D01*
X161574589Y-146695329D01*
X161476479Y-146807757D01*
X161248044Y-147020827D01*
X161004024Y-147188529D01*
X160768663Y-147301616D01*
X160474656Y-147393596D01*
X160170757Y-147443124D01*
X159962662Y-147452558D01*
G37*
D13*
X158225865Y-53310140D02*
X158321103Y-53310140D01*
X158321103Y-53310140D02*
X158368722Y-53333950D01*
X158368722Y-53333950D02*
X158416341Y-53381569D01*
X158416341Y-53381569D02*
X158440151Y-53476807D01*
X158440151Y-53476807D02*
X158440151Y-53643473D01*
X158440151Y-53643473D02*
X158416341Y-53738711D01*
X158416341Y-53738711D02*
X158368722Y-53786331D01*
X158368722Y-53786331D02*
X158321103Y-53810140D01*
X158321103Y-53810140D02*
X158225865Y-53810140D01*
X158225865Y-53810140D02*
X158178246Y-53786331D01*
X158178246Y-53786331D02*
X158130627Y-53738711D01*
X158130627Y-53738711D02*
X158106818Y-53643473D01*
X158106818Y-53643473D02*
X158106818Y-53476807D01*
X158106818Y-53476807D02*
X158130627Y-53381569D01*
X158130627Y-53381569D02*
X158178246Y-53333950D01*
X158178246Y-53333950D02*
X158225865Y-53310140D01*
X158654437Y-53810140D02*
X158654437Y-53310140D01*
X158654437Y-53310140D02*
X158940151Y-53810140D01*
X158940151Y-53810140D02*
X158940151Y-53310140D01*
D12*
G36*
X137202018Y-141100223D02*
G01*
X137496701Y-141145454D01*
X137812873Y-141234068D01*
X138107064Y-141362066D01*
X138177177Y-141400220D01*
X138440318Y-141570946D01*
X138672868Y-141768050D01*
X138874826Y-141991532D01*
X139046193Y-142241392D01*
X139183396Y-142510304D01*
X139281399Y-142792404D01*
X139340200Y-143087694D01*
X139359801Y-143396172D01*
X139338675Y-143703161D01*
X139275296Y-144001492D01*
X139181015Y-144265188D01*
X139041098Y-144540410D01*
X138865163Y-144793812D01*
X138673967Y-145005244D01*
X138432733Y-145211137D01*
X138162408Y-145385513D01*
X137891413Y-145516689D01*
X137599724Y-145616380D01*
X137288858Y-145679149D01*
X136992682Y-145704071D01*
X136890505Y-145705733D01*
X136578923Y-145690656D01*
X136284029Y-145645426D01*
X135967445Y-145556811D01*
X135672659Y-145428813D01*
X135602369Y-145390660D01*
X135339777Y-145220025D01*
X135107410Y-145023196D01*
X134905269Y-144800172D01*
X134733353Y-144550953D01*
X134596790Y-144282041D01*
X134499246Y-143999941D01*
X134440719Y-143704651D01*
X134421210Y-143396172D01*
X136050798Y-143396172D01*
X136090062Y-143693507D01*
X136162173Y-143866584D01*
X136352717Y-144095035D01*
X136464057Y-144171399D01*
X136747480Y-144267931D01*
X136890505Y-144278378D01*
X137192126Y-144227814D01*
X137315488Y-144171399D01*
X137541357Y-143980730D01*
X137618838Y-143866584D01*
X137717052Y-143574736D01*
X137730212Y-143396172D01*
X137691465Y-143098131D01*
X137620303Y-142925761D01*
X137431711Y-142696680D01*
X137319884Y-142620946D01*
X137035076Y-142524414D01*
X136890505Y-142513967D01*
X136597185Y-142560039D01*
X136459661Y-142620946D01*
X136235807Y-142810986D01*
X136159242Y-142925761D01*
X136063613Y-143216947D01*
X136050798Y-143396172D01*
X134421210Y-143396172D01*
X134442163Y-143088522D01*
X134505022Y-142790223D01*
X134598531Y-142527156D01*
X134739282Y-142251935D01*
X134915705Y-141998533D01*
X135107044Y-141787101D01*
X135348278Y-141580374D01*
X135618603Y-141405509D01*
X135889598Y-141274191D01*
X136182547Y-141174499D01*
X136493527Y-141111731D01*
X136788826Y-141086808D01*
X136890505Y-141085147D01*
X137202018Y-141100223D01*
G37*
G36*
X139881503Y-145579704D02*
G01*
X139881503Y-144487938D01*
X141585830Y-142681029D01*
X139956242Y-142681029D01*
X139956242Y-141211176D01*
X143669710Y-141211176D01*
X143669710Y-142304407D01*
X142089947Y-144109850D01*
X143703415Y-144109850D01*
X143703415Y-145579704D01*
X139881503Y-145579704D01*
G37*
G36*
X147670591Y-141102641D02*
G01*
X147988289Y-141164142D01*
X148286049Y-141269926D01*
X148473478Y-141365049D01*
X148732456Y-141541389D01*
X148958745Y-141755519D01*
X149152344Y-142007439D01*
X149245774Y-142163723D01*
X149370155Y-142434741D01*
X149458998Y-142730489D01*
X149512304Y-143050966D01*
X149529795Y-143351669D01*
X149530073Y-143396172D01*
X149514331Y-143698452D01*
X149460650Y-144014099D01*
X149368872Y-144312083D01*
X149242289Y-144587761D01*
X149084190Y-144838503D01*
X148913115Y-145044812D01*
X148677154Y-145259547D01*
X148411105Y-145435539D01*
X148217023Y-145531343D01*
X147932624Y-145630630D01*
X147629524Y-145688703D01*
X147337749Y-145705733D01*
X147037697Y-145684484D01*
X146750101Y-145620736D01*
X146460660Y-145505928D01*
X146221071Y-145361350D01*
X146221071Y-147344114D01*
X144548984Y-147344114D01*
X144548984Y-143396172D01*
X146221071Y-143396172D01*
X146259301Y-143693507D01*
X146329514Y-143866584D01*
X146518736Y-144095035D01*
X146629933Y-144171399D01*
X146916064Y-144267931D01*
X147060778Y-144278378D01*
X147353467Y-144232306D01*
X147490156Y-144171399D01*
X147714640Y-143980730D01*
X147790575Y-143866584D01*
X147887497Y-143574736D01*
X147900484Y-143396172D01*
X147861221Y-143098131D01*
X147789110Y-142925761D01*
X147598566Y-142696680D01*
X147487226Y-142620946D01*
X147203803Y-142524414D01*
X147060778Y-142513967D01*
X146758464Y-142564531D01*
X146634330Y-142620946D01*
X146409783Y-142810986D01*
X146332445Y-142925761D01*
X146234231Y-143216947D01*
X146221071Y-143396172D01*
X144548984Y-143396172D01*
X144548984Y-141211176D01*
X145977805Y-141211176D01*
X145977805Y-141640555D01*
X146201642Y-141434189D01*
X146456709Y-141281744D01*
X146566919Y-141233158D01*
X146850416Y-141142963D01*
X147155757Y-141094397D01*
X147371454Y-141085147D01*
X147670591Y-141102641D01*
G37*
G36*
X150252543Y-145579704D02*
G01*
X150252543Y-141211176D01*
X151933422Y-141211176D01*
X151933422Y-141665468D01*
X152117477Y-141419331D01*
X152364645Y-141241458D01*
X152402369Y-141222900D01*
X152683427Y-141123724D01*
X152988048Y-141080086D01*
X153079410Y-141077819D01*
X153346123Y-141096870D01*
X153567407Y-141136438D01*
X153378363Y-142858350D01*
X153088569Y-142769392D01*
X153044239Y-142760164D01*
X152744624Y-142724422D01*
X152689598Y-142723528D01*
X152389912Y-142767858D01*
X152147379Y-142900848D01*
X151980434Y-143144769D01*
X151933422Y-143454791D01*
X151933422Y-145579704D01*
X150252543Y-145579704D01*
G37*
G36*
X156499520Y-141101839D02*
G01*
X156803720Y-141151917D01*
X157087054Y-141235379D01*
X157235446Y-141296172D01*
X157509904Y-141443462D01*
X157752592Y-141623382D01*
X157963509Y-141835930D01*
X158001880Y-141882355D01*
X158171667Y-142129708D01*
X158303673Y-142402822D01*
X158397897Y-142701695D01*
X158412208Y-142764560D01*
X158455717Y-143056138D01*
X158462595Y-143362089D01*
X158432842Y-143682415D01*
X158400484Y-143866584D01*
X155251217Y-143866584D01*
X155371906Y-144143653D01*
X155394832Y-144168468D01*
X155648210Y-144337375D01*
X155737749Y-144372167D01*
X156028665Y-144435136D01*
X156225746Y-144445440D01*
X156540663Y-144430203D01*
X156837683Y-144384492D01*
X156968733Y-144353116D01*
X157247818Y-144260205D01*
X157525452Y-144131500D01*
X157653101Y-144060025D01*
X158141099Y-145167910D01*
X157879429Y-145325355D01*
X157614999Y-145437554D01*
X157316229Y-145534727D01*
X157022726Y-145608382D01*
X156905718Y-145632460D01*
X156605536Y-145679901D01*
X156297950Y-145703944D01*
X156192041Y-145705733D01*
X155879025Y-145691848D01*
X155583681Y-145650194D01*
X155267784Y-145568587D01*
X154974967Y-145450709D01*
X154905369Y-145415572D01*
X154645892Y-145256112D01*
X154417006Y-145067893D01*
X154218711Y-144850913D01*
X154051008Y-144605175D01*
X153918292Y-144333973D01*
X153823496Y-144040607D01*
X153766618Y-143725076D01*
X153747954Y-143430804D01*
X153747658Y-143387380D01*
X153764975Y-143078002D01*
X153816924Y-142785512D01*
X153820361Y-142774819D01*
X155359661Y-142774819D01*
X156822187Y-142774819D01*
X156722256Y-142492206D01*
X156628747Y-142405523D01*
X156357706Y-142285611D01*
X156124630Y-142261909D01*
X155831905Y-142297812D01*
X155592669Y-142405523D01*
X155397112Y-142628699D01*
X155359661Y-142774819D01*
X153820361Y-142774819D01*
X153914069Y-142483277D01*
X153924979Y-142456814D01*
X154065210Y-142180334D01*
X154240075Y-141931213D01*
X154429096Y-141728482D01*
X154667449Y-141534192D01*
X154933161Y-141372456D01*
X155198461Y-141253674D01*
X155483939Y-141164802D01*
X155787162Y-141108846D01*
X156108132Y-141085805D01*
X156174455Y-141085147D01*
X156499520Y-141101839D01*
G37*
G36*
X159962662Y-147452558D02*
G01*
X159668540Y-147439935D01*
X159360880Y-147398397D01*
X159300275Y-147386612D01*
X159013888Y-147311994D01*
X158740352Y-147201169D01*
X158724350Y-147193172D01*
X159071664Y-145798057D01*
X159350476Y-145898575D01*
X159382341Y-145906500D01*
X159681323Y-145948625D01*
X159710603Y-145948999D01*
X160006663Y-145899965D01*
X160056451Y-145880122D01*
X160254250Y-145662609D01*
X160264546Y-145629529D01*
X160282131Y-145563583D01*
X158601252Y-141211176D01*
X160416953Y-141211176D01*
X161231748Y-143958908D01*
X162020163Y-141211176D01*
X163793367Y-141211176D01*
X162028956Y-145890380D01*
X161907598Y-146163688D01*
X161757714Y-146436126D01*
X161574589Y-146695329D01*
X161476479Y-146807757D01*
X161248044Y-147020827D01*
X161004024Y-147188529D01*
X160768663Y-147301616D01*
X160474656Y-147393596D01*
X160170757Y-147443124D01*
X159962662Y-147452558D01*
G37*
D13*
G36*
X149266046Y-146770736D02*
G01*
X149298630Y-146730516D01*
X149335197Y-146697784D01*
X149361789Y-146680122D01*
X149408052Y-146659406D01*
X149457540Y-146649251D01*
X149481468Y-146648126D01*
X149535274Y-146652029D01*
X149582937Y-146663737D01*
X149628689Y-146685900D01*
X149644867Y-146697463D01*
X149680654Y-146732259D01*
X149709858Y-146774972D01*
X149730513Y-146820185D01*
X149736213Y-146836682D01*
X149750145Y-146889479D01*
X149758701Y-146940400D01*
X149763655Y-146995076D01*
X149765034Y-147045998D01*
X149763398Y-147095337D01*
X149757521Y-147148777D01*
X149747369Y-147199072D01*
X149732944Y-147246222D01*
X149730840Y-147251895D01*
X149709036Y-147299656D01*
X149682094Y-147341273D01*
X149646130Y-147380309D01*
X149629968Y-147393800D01*
X149585265Y-147420977D01*
X149534503Y-147438088D01*
X149483638Y-147444882D01*
X149465592Y-147445335D01*
X149410815Y-147440742D01*
X149361461Y-147426962D01*
X149317530Y-147403997D01*
X149279021Y-147371845D01*
X149259451Y-147349348D01*
X149250903Y-147429704D01*
X149145390Y-147429704D01*
X149145390Y-146875028D01*
X149266046Y-146875028D01*
X149266046Y-147248231D01*
X149296958Y-147286406D01*
X149337502Y-147317898D01*
X149340296Y-147319550D01*
X149386885Y-147339150D01*
X149436772Y-147345684D01*
X149486619Y-147339849D01*
X149533894Y-147319680D01*
X149572629Y-147285105D01*
X149582585Y-147271923D01*
X149607261Y-147224211D01*
X149622415Y-147171355D01*
X149630441Y-147117042D01*
X149633432Y-147064497D01*
X149633631Y-147045754D01*
X149632067Y-146992502D01*
X149625111Y-146929648D01*
X149612592Y-146876105D01*
X149589118Y-146822272D01*
X149556950Y-146782988D01*
X149506873Y-146755052D01*
X149455578Y-146747777D01*
X149406680Y-146754308D01*
X149359610Y-146775946D01*
X149344204Y-146787345D01*
X149308092Y-146820904D01*
X149275875Y-146860200D01*
X149266046Y-146875028D01*
X149145390Y-146875028D01*
X149145390Y-146355768D01*
X149266046Y-146340625D01*
X149266046Y-146770736D01*
G37*
G36*
X150635027Y-146663758D02*
G01*
X150369291Y-147434588D01*
X150351292Y-147481867D01*
X150330575Y-147526618D01*
X150304645Y-147572924D01*
X150302124Y-147576982D01*
X150271364Y-147618854D01*
X150234831Y-147655473D01*
X150196611Y-147684205D01*
X150152619Y-147707618D01*
X150101853Y-147724734D01*
X150050371Y-147734754D01*
X150031992Y-147736961D01*
X150013185Y-147639752D01*
X150063161Y-147629069D01*
X150112103Y-147612275D01*
X150136772Y-147599697D01*
X150177194Y-147569105D01*
X150208091Y-147531064D01*
X150231425Y-147487991D01*
X150250686Y-147440721D01*
X150254497Y-147429704D01*
X150214197Y-147429704D01*
X149950170Y-146663758D01*
X150079375Y-146663758D01*
X150296018Y-147336891D01*
X150509975Y-146663758D01*
X150635027Y-146663758D01*
G37*
G36*
X152014022Y-146304232D02*
G01*
X152061480Y-146315892D01*
X152078014Y-146328901D01*
X152101037Y-146374154D01*
X152102194Y-146389229D01*
X152088593Y-146437955D01*
X152078014Y-146451267D01*
X152033043Y-146474622D01*
X152014022Y-146476179D01*
X151966317Y-146463309D01*
X151951496Y-146451267D01*
X151928598Y-146406937D01*
X151927072Y-146389229D01*
X151940810Y-146341922D01*
X151951496Y-146328901D01*
X151995826Y-146305774D01*
X152014022Y-146304232D01*
G37*
G36*
X152110254Y-146663758D02*
G01*
X152110254Y-147330052D01*
X152323478Y-147330052D01*
X152323478Y-147429704D01*
X151756102Y-147429704D01*
X151756102Y-147330052D01*
X151989598Y-147330052D01*
X151989598Y-146763409D01*
X151763429Y-146763409D01*
X151763429Y-146663758D01*
X152110254Y-146663758D01*
G37*
G36*
X153188342Y-147391113D02*
G01*
X153142583Y-147415122D01*
X153094308Y-147430925D01*
X153046383Y-147440776D01*
X152995865Y-147445208D01*
X152985865Y-147445335D01*
X152935208Y-147442273D01*
X152883841Y-147431274D01*
X152834373Y-147409340D01*
X152797798Y-147381343D01*
X152765920Y-147342293D01*
X152744474Y-147297409D01*
X152733462Y-147246690D01*
X152731852Y-147215991D01*
X152731852Y-146763409D01*
X152557951Y-146763409D01*
X152557951Y-146663758D01*
X152731852Y-146663758D01*
X152731852Y-146489857D01*
X152852508Y-146475447D01*
X152852508Y-146663758D01*
X153113848Y-146663758D01*
X153099437Y-146763409D01*
X152852508Y-146763409D01*
X152852508Y-147215747D01*
X152858866Y-147265515D01*
X152883681Y-147310361D01*
X152885725Y-147312467D01*
X152930177Y-147337380D01*
X152982480Y-147345392D01*
X152996611Y-147345684D01*
X153047158Y-147341772D01*
X153075013Y-147335670D01*
X153121956Y-147319130D01*
X153141691Y-147309780D01*
X153188342Y-147391113D01*
G37*
G36*
X153705892Y-147345684D02*
G01*
X153757021Y-147342488D01*
X153804778Y-147331589D01*
X153843645Y-147312955D01*
X153879760Y-147277174D01*
X153893910Y-147227768D01*
X153893959Y-147224295D01*
X153885575Y-147174535D01*
X153881259Y-147164700D01*
X153847736Y-147128979D01*
X153829968Y-147118294D01*
X153784612Y-147098938D01*
X153735113Y-147083608D01*
X153711022Y-147077261D01*
X153659545Y-147063077D01*
X153612916Y-147047393D01*
X153574734Y-147031832D01*
X153529207Y-147006233D01*
X153491322Y-146972269D01*
X153485097Y-146964665D01*
X153462131Y-146920319D01*
X153453382Y-146869148D01*
X153453101Y-146856954D01*
X153459399Y-146805775D01*
X153481171Y-146756478D01*
X153514063Y-146718922D01*
X153532724Y-146704302D01*
X153575650Y-146679725D01*
X153624560Y-146662170D01*
X153679453Y-146651637D01*
X153732394Y-146648181D01*
X153740331Y-146648126D01*
X153789839Y-146650097D01*
X153840453Y-146656909D01*
X153890783Y-146670022D01*
X153899333Y-146673039D01*
X153947372Y-146693166D01*
X153992904Y-146718226D01*
X154014615Y-146733123D01*
X153961615Y-146823981D01*
X153919680Y-146795416D01*
X153873559Y-146772003D01*
X153867093Y-146769271D01*
X153817505Y-146754578D01*
X153768526Y-146748533D01*
X153741796Y-146747777D01*
X153691264Y-146750520D01*
X153640619Y-146762288D01*
X153615523Y-146775865D01*
X153584321Y-146814699D01*
X153578153Y-146847917D01*
X153590246Y-146895346D01*
X153596472Y-146904093D01*
X153635926Y-146933421D01*
X153658509Y-146943660D01*
X153706795Y-146960723D01*
X153755934Y-146975532D01*
X153779165Y-146982006D01*
X153827822Y-146996809D01*
X153875833Y-147014933D01*
X153908370Y-147029878D01*
X153951947Y-147057300D01*
X153988158Y-147093944D01*
X153994099Y-147102174D01*
X154016013Y-147149697D01*
X154024152Y-147200348D01*
X154024629Y-147217701D01*
X154019204Y-147269842D01*
X154000908Y-147318494D01*
X153978712Y-147349348D01*
X153940461Y-147383236D01*
X153894585Y-147409431D01*
X153859765Y-147422620D01*
X153808745Y-147435553D01*
X153755762Y-147443117D01*
X153705892Y-147445335D01*
X153656494Y-147443473D01*
X153605447Y-147436925D01*
X153554346Y-147424122D01*
X153531015Y-147415537D01*
X153484221Y-147393580D01*
X153439427Y-147366268D01*
X153410114Y-147343486D01*
X153478991Y-147264107D01*
X153520578Y-147293332D01*
X153567121Y-147317321D01*
X153581329Y-147323214D01*
X153629812Y-147337762D01*
X153681197Y-147344894D01*
X153705892Y-147345684D01*
G37*
G36*
X154882655Y-146355768D02*
G01*
X154882655Y-147429704D01*
X154776897Y-147429704D01*
X154765418Y-147326877D01*
X154734868Y-147365157D01*
X154698117Y-147398096D01*
X154668209Y-147416759D01*
X154622349Y-147435261D01*
X154574071Y-147444330D01*
X154550973Y-147445335D01*
X154498330Y-147441374D01*
X154446228Y-147427683D01*
X154400852Y-147404213D01*
X154388551Y-147395265D01*
X154351905Y-147360108D01*
X154321652Y-147317222D01*
X154299889Y-147272018D01*
X154293785Y-147255558D01*
X154278909Y-147202858D01*
X154269772Y-147152185D01*
X154264483Y-147097910D01*
X154263017Y-147047708D01*
X154394413Y-147047708D01*
X154396008Y-147100959D01*
X154403097Y-147163814D01*
X154415857Y-147217356D01*
X154439781Y-147271190D01*
X154472567Y-147310474D01*
X154523606Y-147338409D01*
X154575885Y-147345684D01*
X154624896Y-147339718D01*
X154671004Y-147319950D01*
X154685795Y-147309536D01*
X154722981Y-147275943D01*
X154756183Y-147235593D01*
X154761999Y-147226982D01*
X154761999Y-146850604D01*
X154730128Y-146809638D01*
X154689980Y-146776589D01*
X154687260Y-146774888D01*
X154641343Y-146754555D01*
X154591029Y-146747777D01*
X154541181Y-146753670D01*
X154493906Y-146774040D01*
X154455171Y-146808959D01*
X154445216Y-146822272D01*
X154420658Y-146870222D01*
X154405576Y-146922997D01*
X154397588Y-146977015D01*
X154394611Y-147029139D01*
X154394413Y-147047708D01*
X154263017Y-147047708D01*
X154263010Y-147047463D01*
X154264693Y-146998410D01*
X154270738Y-146945211D01*
X154281180Y-146895064D01*
X154296018Y-146847971D01*
X154298181Y-146842299D01*
X154320438Y-146794519D01*
X154347641Y-146752844D01*
X154383666Y-146713698D01*
X154399786Y-146700150D01*
X154443931Y-146672716D01*
X154493324Y-146655442D01*
X154542263Y-146648584D01*
X154559521Y-146648126D01*
X154612120Y-146652509D01*
X154660066Y-146665657D01*
X154709167Y-146691417D01*
X154747146Y-146723349D01*
X154761999Y-146739717D01*
X154761999Y-146340625D01*
X154882655Y-146355768D01*
G37*
G36*
X155668628Y-146648126D02*
G01*
X155716957Y-146655746D01*
X155738237Y-146664246D01*
X155775599Y-146695826D01*
X155793436Y-146726040D01*
X155808129Y-146774092D01*
X155813901Y-146823194D01*
X155814929Y-146859641D01*
X155814929Y-147429704D01*
X155703066Y-147429704D01*
X155703066Y-146882844D01*
X155701615Y-146831269D01*
X155694814Y-146781552D01*
X155694273Y-146779529D01*
X155654630Y-146748274D01*
X155644936Y-146747777D01*
X155596359Y-146759512D01*
X155577281Y-146770492D01*
X155540290Y-146804968D01*
X155512801Y-146844498D01*
X155512801Y-147429704D01*
X155399961Y-147429704D01*
X155399961Y-146882844D01*
X155398550Y-146831269D01*
X155391938Y-146781552D01*
X155391412Y-146779529D01*
X155351582Y-146748274D01*
X155341831Y-146747777D01*
X155292408Y-146759512D01*
X155273687Y-146770492D01*
X155237288Y-146804968D01*
X155209940Y-146844498D01*
X155209940Y-147429704D01*
X155098565Y-147429704D01*
X155098565Y-146663758D01*
X155193331Y-146663758D01*
X155200414Y-146763409D01*
X155228958Y-146723658D01*
X155262654Y-146687709D01*
X155269779Y-146681343D01*
X155312705Y-146656431D01*
X155361266Y-146648159D01*
X155364790Y-146648126D01*
X155414232Y-146656220D01*
X155445879Y-146671085D01*
X155480709Y-146707680D01*
X155500905Y-146756139D01*
X155502054Y-146760234D01*
X155530525Y-146720069D01*
X155566841Y-146683097D01*
X155571664Y-146679145D01*
X155615322Y-146655881D01*
X155665014Y-146648157D01*
X155668628Y-146648126D01*
G37*
G36*
X156604078Y-146355768D02*
G01*
X156604078Y-147429704D01*
X156498321Y-147429704D01*
X156486842Y-147326877D01*
X156456291Y-147365157D01*
X156419540Y-147398096D01*
X156389633Y-147416759D01*
X156343773Y-147435261D01*
X156295494Y-147444330D01*
X156272396Y-147445335D01*
X156219754Y-147441374D01*
X156167652Y-147427683D01*
X156122276Y-147404213D01*
X156109975Y-147395265D01*
X156073329Y-147360108D01*
X156043075Y-147317222D01*
X156021312Y-147272018D01*
X156015209Y-147255558D01*
X156000332Y-147202858D01*
X155991196Y-147152185D01*
X155985907Y-147097910D01*
X155984441Y-147047708D01*
X156115837Y-147047708D01*
X156117432Y-147100959D01*
X156124520Y-147163814D01*
X156137280Y-147217356D01*
X156161205Y-147271190D01*
X156193990Y-147310474D01*
X156245029Y-147338409D01*
X156297309Y-147345684D01*
X156346319Y-147339718D01*
X156392428Y-147319950D01*
X156407218Y-147309536D01*
X156444404Y-147275943D01*
X156477606Y-147235593D01*
X156483422Y-147226982D01*
X156483422Y-146850604D01*
X156451551Y-146809638D01*
X156411404Y-146776589D01*
X156408684Y-146774888D01*
X156362766Y-146754555D01*
X156312452Y-146747777D01*
X156262604Y-146753670D01*
X156215330Y-146774040D01*
X156176595Y-146808959D01*
X156166639Y-146822272D01*
X156142081Y-146870222D01*
X156126999Y-146922997D01*
X156119012Y-146977015D01*
X156116035Y-147029139D01*
X156115837Y-147047708D01*
X155984441Y-147047708D01*
X155984434Y-147047463D01*
X155986117Y-146998410D01*
X155992162Y-146945211D01*
X156002603Y-146895064D01*
X156017441Y-146847971D01*
X156019605Y-146842299D01*
X156041862Y-146794519D01*
X156069064Y-146752844D01*
X156105090Y-146713698D01*
X156121210Y-146700150D01*
X156165355Y-146672716D01*
X156214747Y-146655442D01*
X156263687Y-146648584D01*
X156280945Y-146648126D01*
X156333543Y-146652509D01*
X156381490Y-146665657D01*
X156430590Y-146691417D01*
X156468569Y-146723349D01*
X156483422Y-146739717D01*
X156483422Y-146340625D01*
X156604078Y-146355768D01*
G37*
X137975311Y-53801404D02*
X137808645Y-53563309D01*
X137689597Y-53801404D02*
X137689597Y-53301404D01*
X137689597Y-53301404D02*
X137880073Y-53301404D01*
X137880073Y-53301404D02*
X137927692Y-53325214D01*
X137927692Y-53325214D02*
X137951502Y-53349023D01*
X137951502Y-53349023D02*
X137975311Y-53396642D01*
X137975311Y-53396642D02*
X137975311Y-53468071D01*
X137975311Y-53468071D02*
X137951502Y-53515690D01*
X137951502Y-53515690D02*
X137927692Y-53539499D01*
X137927692Y-53539499D02*
X137880073Y-53563309D01*
X137880073Y-53563309D02*
X137689597Y-53563309D01*
X138165788Y-53777595D02*
X138237216Y-53801404D01*
X138237216Y-53801404D02*
X138356264Y-53801404D01*
X138356264Y-53801404D02*
X138403883Y-53777595D01*
X138403883Y-53777595D02*
X138427692Y-53753785D01*
X138427692Y-53753785D02*
X138451502Y-53706166D01*
X138451502Y-53706166D02*
X138451502Y-53658547D01*
X138451502Y-53658547D02*
X138427692Y-53610928D01*
X138427692Y-53610928D02*
X138403883Y-53587118D01*
X138403883Y-53587118D02*
X138356264Y-53563309D01*
X138356264Y-53563309D02*
X138261026Y-53539499D01*
X138261026Y-53539499D02*
X138213407Y-53515690D01*
X138213407Y-53515690D02*
X138189597Y-53491880D01*
X138189597Y-53491880D02*
X138165788Y-53444261D01*
X138165788Y-53444261D02*
X138165788Y-53396642D01*
X138165788Y-53396642D02*
X138189597Y-53349023D01*
X138189597Y-53349023D02*
X138213407Y-53325214D01*
X138213407Y-53325214D02*
X138261026Y-53301404D01*
X138261026Y-53301404D02*
X138380073Y-53301404D01*
X138380073Y-53301404D02*
X138451502Y-53325214D01*
X138594359Y-53301404D02*
X138880073Y-53301404D01*
X138737216Y-53801404D02*
X138737216Y-53301404D01*
G36*
X149266046Y-146770736D02*
G01*
X149298630Y-146730516D01*
X149335197Y-146697784D01*
X149361789Y-146680122D01*
X149408052Y-146659406D01*
X149457540Y-146649251D01*
X149481468Y-146648126D01*
X149535274Y-146652029D01*
X149582937Y-146663737D01*
X149628689Y-146685900D01*
X149644867Y-146697463D01*
X149680654Y-146732259D01*
X149709858Y-146774972D01*
X149730513Y-146820185D01*
X149736213Y-146836682D01*
X149750145Y-146889479D01*
X149758701Y-146940400D01*
X149763655Y-146995076D01*
X149765034Y-147045998D01*
X149763398Y-147095337D01*
X149757521Y-147148777D01*
X149747369Y-147199072D01*
X149732944Y-147246222D01*
X149730840Y-147251895D01*
X149709036Y-147299656D01*
X149682094Y-147341273D01*
X149646130Y-147380309D01*
X149629968Y-147393800D01*
X149585265Y-147420977D01*
X149534503Y-147438088D01*
X149483638Y-147444882D01*
X149465592Y-147445335D01*
X149410815Y-147440742D01*
X149361461Y-147426962D01*
X149317530Y-147403997D01*
X149279021Y-147371845D01*
X149259451Y-147349348D01*
X149250903Y-147429704D01*
X149145390Y-147429704D01*
X149145390Y-146875028D01*
X149266046Y-146875028D01*
X149266046Y-147248231D01*
X149296958Y-147286406D01*
X149337502Y-147317898D01*
X149340296Y-147319550D01*
X149386885Y-147339150D01*
X149436772Y-147345684D01*
X149486619Y-147339849D01*
X149533894Y-147319680D01*
X149572629Y-147285105D01*
X149582585Y-147271923D01*
X149607261Y-147224211D01*
X149622415Y-147171355D01*
X149630441Y-147117042D01*
X149633432Y-147064497D01*
X149633631Y-147045754D01*
X149632067Y-146992502D01*
X149625111Y-146929648D01*
X149612592Y-146876105D01*
X149589118Y-146822272D01*
X149556950Y-146782988D01*
X149506873Y-146755052D01*
X149455578Y-146747777D01*
X149406680Y-146754308D01*
X149359610Y-146775946D01*
X149344204Y-146787345D01*
X149308092Y-146820904D01*
X149275875Y-146860200D01*
X149266046Y-146875028D01*
X149145390Y-146875028D01*
X149145390Y-146355768D01*
X149266046Y-146340625D01*
X149266046Y-146770736D01*
G37*
G36*
X150635027Y-146663758D02*
G01*
X150369291Y-147434588D01*
X150351292Y-147481867D01*
X150330575Y-147526618D01*
X150304645Y-147572924D01*
X150302124Y-147576982D01*
X150271364Y-147618854D01*
X150234831Y-147655473D01*
X150196611Y-147684205D01*
X150152619Y-147707618D01*
X150101853Y-147724734D01*
X150050371Y-147734754D01*
X150031992Y-147736961D01*
X150013185Y-147639752D01*
X150063161Y-147629069D01*
X150112103Y-147612275D01*
X150136772Y-147599697D01*
X150177194Y-147569105D01*
X150208091Y-147531064D01*
X150231425Y-147487991D01*
X150250686Y-147440721D01*
X150254497Y-147429704D01*
X150214197Y-147429704D01*
X149950170Y-146663758D01*
X150079375Y-146663758D01*
X150296018Y-147336891D01*
X150509975Y-146663758D01*
X150635027Y-146663758D01*
G37*
G36*
X152014022Y-146304232D02*
G01*
X152061480Y-146315892D01*
X152078014Y-146328901D01*
X152101037Y-146374154D01*
X152102194Y-146389229D01*
X152088593Y-146437955D01*
X152078014Y-146451267D01*
X152033043Y-146474622D01*
X152014022Y-146476179D01*
X151966317Y-146463309D01*
X151951496Y-146451267D01*
X151928598Y-146406937D01*
X151927072Y-146389229D01*
X151940810Y-146341922D01*
X151951496Y-146328901D01*
X151995826Y-146305774D01*
X152014022Y-146304232D01*
G37*
G36*
X152110254Y-146663758D02*
G01*
X152110254Y-147330052D01*
X152323478Y-147330052D01*
X152323478Y-147429704D01*
X151756102Y-147429704D01*
X151756102Y-147330052D01*
X151989598Y-147330052D01*
X151989598Y-146763409D01*
X151763429Y-146763409D01*
X151763429Y-146663758D01*
X152110254Y-146663758D01*
G37*
G36*
X153188342Y-147391113D02*
G01*
X153142583Y-147415122D01*
X153094308Y-147430925D01*
X153046383Y-147440776D01*
X152995865Y-147445208D01*
X152985865Y-147445335D01*
X152935208Y-147442273D01*
X152883841Y-147431274D01*
X152834373Y-147409340D01*
X152797798Y-147381343D01*
X152765920Y-147342293D01*
X152744474Y-147297409D01*
X152733462Y-147246690D01*
X152731852Y-147215991D01*
X152731852Y-146763409D01*
X152557951Y-146763409D01*
X152557951Y-146663758D01*
X152731852Y-146663758D01*
X152731852Y-146489857D01*
X152852508Y-146475447D01*
X152852508Y-146663758D01*
X153113848Y-146663758D01*
X153099437Y-146763409D01*
X152852508Y-146763409D01*
X152852508Y-147215747D01*
X152858866Y-147265515D01*
X152883681Y-147310361D01*
X152885725Y-147312467D01*
X152930177Y-147337380D01*
X152982480Y-147345392D01*
X152996611Y-147345684D01*
X153047158Y-147341772D01*
X153075013Y-147335670D01*
X153121956Y-147319130D01*
X153141691Y-147309780D01*
X153188342Y-147391113D01*
G37*
G36*
X153705892Y-147345684D02*
G01*
X153757021Y-147342488D01*
X153804778Y-147331589D01*
X153843645Y-147312955D01*
X153879760Y-147277174D01*
X153893910Y-147227768D01*
X153893959Y-147224295D01*
X153885575Y-147174535D01*
X153881259Y-147164700D01*
X153847736Y-147128979D01*
X153829968Y-147118294D01*
X153784612Y-147098938D01*
X153735113Y-147083608D01*
X153711022Y-147077261D01*
X153659545Y-147063077D01*
X153612916Y-147047393D01*
X153574734Y-147031832D01*
X153529207Y-147006233D01*
X153491322Y-146972269D01*
X153485097Y-146964665D01*
X153462131Y-146920319D01*
X153453382Y-146869148D01*
X153453101Y-146856954D01*
X153459399Y-146805775D01*
X153481171Y-146756478D01*
X153514063Y-146718922D01*
X153532724Y-146704302D01*
X153575650Y-146679725D01*
X153624560Y-146662170D01*
X153679453Y-146651637D01*
X153732394Y-146648181D01*
X153740331Y-146648126D01*
X153789839Y-146650097D01*
X153840453Y-146656909D01*
X153890783Y-146670022D01*
X153899333Y-146673039D01*
X153947372Y-146693166D01*
X153992904Y-146718226D01*
X154014615Y-146733123D01*
X153961615Y-146823981D01*
X153919680Y-146795416D01*
X153873559Y-146772003D01*
X153867093Y-146769271D01*
X153817505Y-146754578D01*
X153768526Y-146748533D01*
X153741796Y-146747777D01*
X153691264Y-146750520D01*
X153640619Y-146762288D01*
X153615523Y-146775865D01*
X153584321Y-146814699D01*
X153578153Y-146847917D01*
X153590246Y-146895346D01*
X153596472Y-146904093D01*
X153635926Y-146933421D01*
X153658509Y-146943660D01*
X153706795Y-146960723D01*
X153755934Y-146975532D01*
X153779165Y-146982006D01*
X153827822Y-146996809D01*
X153875833Y-147014933D01*
X153908370Y-147029878D01*
X153951947Y-147057300D01*
X153988158Y-147093944D01*
X153994099Y-147102174D01*
X154016013Y-147149697D01*
X154024152Y-147200348D01*
X154024629Y-147217701D01*
X154019204Y-147269842D01*
X154000908Y-147318494D01*
X153978712Y-147349348D01*
X153940461Y-147383236D01*
X153894585Y-147409431D01*
X153859765Y-147422620D01*
X153808745Y-147435553D01*
X153755762Y-147443117D01*
X153705892Y-147445335D01*
X153656494Y-147443473D01*
X153605447Y-147436925D01*
X153554346Y-147424122D01*
X153531015Y-147415537D01*
X153484221Y-147393580D01*
X153439427Y-147366268D01*
X153410114Y-147343486D01*
X153478991Y-147264107D01*
X153520578Y-147293332D01*
X153567121Y-147317321D01*
X153581329Y-147323214D01*
X153629812Y-147337762D01*
X153681197Y-147344894D01*
X153705892Y-147345684D01*
G37*
G36*
X154882655Y-146355768D02*
G01*
X154882655Y-147429704D01*
X154776897Y-147429704D01*
X154765418Y-147326877D01*
X154734868Y-147365157D01*
X154698117Y-147398096D01*
X154668209Y-147416759D01*
X154622349Y-147435261D01*
X154574071Y-147444330D01*
X154550973Y-147445335D01*
X154498330Y-147441374D01*
X154446228Y-147427683D01*
X154400852Y-147404213D01*
X154388551Y-147395265D01*
X154351905Y-147360108D01*
X154321652Y-147317222D01*
X154299889Y-147272018D01*
X154293785Y-147255558D01*
X154278909Y-147202858D01*
X154269772Y-147152185D01*
X154264483Y-147097910D01*
X154263017Y-147047708D01*
X154394413Y-147047708D01*
X154396008Y-147100959D01*
X154403097Y-147163814D01*
X154415857Y-147217356D01*
X154439781Y-147271190D01*
X154472567Y-147310474D01*
X154523606Y-147338409D01*
X154575885Y-147345684D01*
X154624896Y-147339718D01*
X154671004Y-147319950D01*
X154685795Y-147309536D01*
X154722981Y-147275943D01*
X154756183Y-147235593D01*
X154761999Y-147226982D01*
X154761999Y-146850604D01*
X154730128Y-146809638D01*
X154689980Y-146776589D01*
X154687260Y-146774888D01*
X154641343Y-146754555D01*
X154591029Y-146747777D01*
X154541181Y-146753670D01*
X154493906Y-146774040D01*
X154455171Y-146808959D01*
X154445216Y-146822272D01*
X154420658Y-146870222D01*
X154405576Y-146922997D01*
X154397588Y-146977015D01*
X154394611Y-147029139D01*
X154394413Y-147047708D01*
X154263017Y-147047708D01*
X154263010Y-147047463D01*
X154264693Y-146998410D01*
X154270738Y-146945211D01*
X154281180Y-146895064D01*
X154296018Y-146847971D01*
X154298181Y-146842299D01*
X154320438Y-146794519D01*
X154347641Y-146752844D01*
X154383666Y-146713698D01*
X154399786Y-146700150D01*
X154443931Y-146672716D01*
X154493324Y-146655442D01*
X154542263Y-146648584D01*
X154559521Y-146648126D01*
X154612120Y-146652509D01*
X154660066Y-146665657D01*
X154709167Y-146691417D01*
X154747146Y-146723349D01*
X154761999Y-146739717D01*
X154761999Y-146340625D01*
X154882655Y-146355768D01*
G37*
G36*
X155668628Y-146648126D02*
G01*
X155716957Y-146655746D01*
X155738237Y-146664246D01*
X155775599Y-146695826D01*
X155793436Y-146726040D01*
X155808129Y-146774092D01*
X155813901Y-146823194D01*
X155814929Y-146859641D01*
X155814929Y-147429704D01*
X155703066Y-147429704D01*
X155703066Y-146882844D01*
X155701615Y-146831269D01*
X155694814Y-146781552D01*
X155694273Y-146779529D01*
X155654630Y-146748274D01*
X155644936Y-146747777D01*
X155596359Y-146759512D01*
X155577281Y-146770492D01*
X155540290Y-146804968D01*
X155512801Y-146844498D01*
X155512801Y-147429704D01*
X155399961Y-147429704D01*
X155399961Y-146882844D01*
X155398550Y-146831269D01*
X155391938Y-146781552D01*
X155391412Y-146779529D01*
X155351582Y-146748274D01*
X155341831Y-146747777D01*
X155292408Y-146759512D01*
X155273687Y-146770492D01*
X155237288Y-146804968D01*
X155209940Y-146844498D01*
X155209940Y-147429704D01*
X155098565Y-147429704D01*
X155098565Y-146663758D01*
X155193331Y-146663758D01*
X155200414Y-146763409D01*
X155228958Y-146723658D01*
X155262654Y-146687709D01*
X155269779Y-146681343D01*
X155312705Y-146656431D01*
X155361266Y-146648159D01*
X155364790Y-146648126D01*
X155414232Y-146656220D01*
X155445879Y-146671085D01*
X155480709Y-146707680D01*
X155500905Y-146756139D01*
X155502054Y-146760234D01*
X155530525Y-146720069D01*
X155566841Y-146683097D01*
X155571664Y-146679145D01*
X155615322Y-146655881D01*
X155665014Y-146648157D01*
X155668628Y-146648126D01*
G37*
G36*
X156604078Y-146355768D02*
G01*
X156604078Y-147429704D01*
X156498321Y-147429704D01*
X156486842Y-147326877D01*
X156456291Y-147365157D01*
X156419540Y-147398096D01*
X156389633Y-147416759D01*
X156343773Y-147435261D01*
X156295494Y-147444330D01*
X156272396Y-147445335D01*
X156219754Y-147441374D01*
X156167652Y-147427683D01*
X156122276Y-147404213D01*
X156109975Y-147395265D01*
X156073329Y-147360108D01*
X156043075Y-147317222D01*
X156021312Y-147272018D01*
X156015209Y-147255558D01*
X156000332Y-147202858D01*
X155991196Y-147152185D01*
X155985907Y-147097910D01*
X155984441Y-147047708D01*
X156115837Y-147047708D01*
X156117432Y-147100959D01*
X156124520Y-147163814D01*
X156137280Y-147217356D01*
X156161205Y-147271190D01*
X156193990Y-147310474D01*
X156245029Y-147338409D01*
X156297309Y-147345684D01*
X156346319Y-147339718D01*
X156392428Y-147319950D01*
X156407218Y-147309536D01*
X156444404Y-147275943D01*
X156477606Y-147235593D01*
X156483422Y-147226982D01*
X156483422Y-146850604D01*
X156451551Y-146809638D01*
X156411404Y-146776589D01*
X156408684Y-146774888D01*
X156362766Y-146754555D01*
X156312452Y-146747777D01*
X156262604Y-146753670D01*
X156215330Y-146774040D01*
X156176595Y-146808959D01*
X156166639Y-146822272D01*
X156142081Y-146870222D01*
X156126999Y-146922997D01*
X156119012Y-146977015D01*
X156116035Y-147029139D01*
X156115837Y-147047708D01*
X155984441Y-147047708D01*
X155984434Y-147047463D01*
X155986117Y-146998410D01*
X155992162Y-146945211D01*
X156002603Y-146895064D01*
X156017441Y-146847971D01*
X156019605Y-146842299D01*
X156041862Y-146794519D01*
X156069064Y-146752844D01*
X156105090Y-146713698D01*
X156121210Y-146700150D01*
X156165355Y-146672716D01*
X156214747Y-146655442D01*
X156263687Y-146648584D01*
X156280945Y-146648126D01*
X156333543Y-146652509D01*
X156381490Y-146665657D01*
X156430590Y-146691417D01*
X156468569Y-146723349D01*
X156483422Y-146739717D01*
X156483422Y-146340625D01*
X156604078Y-146355768D01*
G37*
D10*
X142163884Y-66861967D02*
X142240074Y-66861967D01*
X142240074Y-66861967D02*
X142316265Y-66900062D01*
X142316265Y-66900062D02*
X142354360Y-66938157D01*
X142354360Y-66938157D02*
X142392455Y-67014348D01*
X142392455Y-67014348D02*
X142430550Y-67166729D01*
X142430550Y-67166729D02*
X142430550Y-67357205D01*
X142430550Y-67357205D02*
X142392455Y-67509586D01*
X142392455Y-67509586D02*
X142354360Y-67585776D01*
X142354360Y-67585776D02*
X142316265Y-67623872D01*
X142316265Y-67623872D02*
X142240074Y-67661967D01*
X142240074Y-67661967D02*
X142163884Y-67661967D01*
X142163884Y-67661967D02*
X142087693Y-67623872D01*
X142087693Y-67623872D02*
X142049598Y-67585776D01*
X142049598Y-67585776D02*
X142011503Y-67509586D01*
X142011503Y-67509586D02*
X141973407Y-67357205D01*
X141973407Y-67357205D02*
X141973407Y-67166729D01*
X141973407Y-67166729D02*
X142011503Y-67014348D01*
X142011503Y-67014348D02*
X142049598Y-66938157D01*
X142049598Y-66938157D02*
X142087693Y-66900062D01*
X142087693Y-66900062D02*
X142163884Y-66861967D01*
X143192455Y-67661967D02*
X142735312Y-67661967D01*
X142963884Y-67661967D02*
X142963884Y-66861967D01*
X142963884Y-66861967D02*
X142887693Y-66976252D01*
X142887693Y-66976252D02*
X142811503Y-67052443D01*
X142811503Y-67052443D02*
X142735312Y-67090538D01*
X143459122Y-66861967D02*
X143992456Y-66861967D01*
X143992456Y-66861967D02*
X143649598Y-67661967D01*
X153238265Y-69391967D02*
X153314455Y-69391967D01*
X153314455Y-69391967D02*
X153390646Y-69430062D01*
X153390646Y-69430062D02*
X153428741Y-69468157D01*
X153428741Y-69468157D02*
X153466836Y-69544348D01*
X153466836Y-69544348D02*
X153504931Y-69696729D01*
X153504931Y-69696729D02*
X153504931Y-69887205D01*
X153504931Y-69887205D02*
X153466836Y-70039586D01*
X153466836Y-70039586D02*
X153428741Y-70115776D01*
X153428741Y-70115776D02*
X153390646Y-70153872D01*
X153390646Y-70153872D02*
X153314455Y-70191967D01*
X153314455Y-70191967D02*
X153238265Y-70191967D01*
X153238265Y-70191967D02*
X153162074Y-70153872D01*
X153162074Y-70153872D02*
X153123979Y-70115776D01*
X153123979Y-70115776D02*
X153085884Y-70039586D01*
X153085884Y-70039586D02*
X153047788Y-69887205D01*
X153047788Y-69887205D02*
X153047788Y-69696729D01*
X153047788Y-69696729D02*
X153085884Y-69544348D01*
X153085884Y-69544348D02*
X153123979Y-69468157D01*
X153123979Y-69468157D02*
X153162074Y-69430062D01*
X153162074Y-69430062D02*
X153238265Y-69391967D01*
X153809693Y-69468157D02*
X153847789Y-69430062D01*
X153847789Y-69430062D02*
X153923979Y-69391967D01*
X153923979Y-69391967D02*
X154114455Y-69391967D01*
X154114455Y-69391967D02*
X154190646Y-69430062D01*
X154190646Y-69430062D02*
X154228741Y-69468157D01*
X154228741Y-69468157D02*
X154266836Y-69544348D01*
X154266836Y-69544348D02*
X154266836Y-69620538D01*
X154266836Y-69620538D02*
X154228741Y-69734824D01*
X154228741Y-69734824D02*
X153771598Y-70191967D01*
X153771598Y-70191967D02*
X154266836Y-70191967D01*
X154647789Y-70191967D02*
X154800170Y-70191967D01*
X154800170Y-70191967D02*
X154876360Y-70153872D01*
X154876360Y-70153872D02*
X154914456Y-70115776D01*
X154914456Y-70115776D02*
X154990646Y-70001491D01*
X154990646Y-70001491D02*
X155028741Y-69849110D01*
X155028741Y-69849110D02*
X155028741Y-69544348D01*
X155028741Y-69544348D02*
X154990646Y-69468157D01*
X154990646Y-69468157D02*
X154952551Y-69430062D01*
X154952551Y-69430062D02*
X154876360Y-69391967D01*
X154876360Y-69391967D02*
X154723979Y-69391967D01*
X154723979Y-69391967D02*
X154647789Y-69430062D01*
X154647789Y-69430062D02*
X154609694Y-69468157D01*
X154609694Y-69468157D02*
X154571598Y-69544348D01*
X154571598Y-69544348D02*
X154571598Y-69734824D01*
X154571598Y-69734824D02*
X154609694Y-69811014D01*
X154609694Y-69811014D02*
X154647789Y-69849110D01*
X154647789Y-69849110D02*
X154723979Y-69887205D01*
X154723979Y-69887205D02*
X154876360Y-69887205D01*
X154876360Y-69887205D02*
X154952551Y-69849110D01*
X154952551Y-69849110D02*
X154990646Y-69811014D01*
X154990646Y-69811014D02*
X155028741Y-69734824D01*
X142163884Y-59161967D02*
X142240074Y-59161967D01*
X142240074Y-59161967D02*
X142316265Y-59200062D01*
X142316265Y-59200062D02*
X142354360Y-59238157D01*
X142354360Y-59238157D02*
X142392455Y-59314348D01*
X142392455Y-59314348D02*
X142430550Y-59466729D01*
X142430550Y-59466729D02*
X142430550Y-59657205D01*
X142430550Y-59657205D02*
X142392455Y-59809586D01*
X142392455Y-59809586D02*
X142354360Y-59885776D01*
X142354360Y-59885776D02*
X142316265Y-59923872D01*
X142316265Y-59923872D02*
X142240074Y-59961967D01*
X142240074Y-59961967D02*
X142163884Y-59961967D01*
X142163884Y-59961967D02*
X142087693Y-59923872D01*
X142087693Y-59923872D02*
X142049598Y-59885776D01*
X142049598Y-59885776D02*
X142011503Y-59809586D01*
X142011503Y-59809586D02*
X141973407Y-59657205D01*
X141973407Y-59657205D02*
X141973407Y-59466729D01*
X141973407Y-59466729D02*
X142011503Y-59314348D01*
X142011503Y-59314348D02*
X142049598Y-59238157D01*
X142049598Y-59238157D02*
X142087693Y-59200062D01*
X142087693Y-59200062D02*
X142163884Y-59161967D01*
X142925789Y-59161967D02*
X143001979Y-59161967D01*
X143001979Y-59161967D02*
X143078170Y-59200062D01*
X143078170Y-59200062D02*
X143116265Y-59238157D01*
X143116265Y-59238157D02*
X143154360Y-59314348D01*
X143154360Y-59314348D02*
X143192455Y-59466729D01*
X143192455Y-59466729D02*
X143192455Y-59657205D01*
X143192455Y-59657205D02*
X143154360Y-59809586D01*
X143154360Y-59809586D02*
X143116265Y-59885776D01*
X143116265Y-59885776D02*
X143078170Y-59923872D01*
X143078170Y-59923872D02*
X143001979Y-59961967D01*
X143001979Y-59961967D02*
X142925789Y-59961967D01*
X142925789Y-59961967D02*
X142849598Y-59923872D01*
X142849598Y-59923872D02*
X142811503Y-59885776D01*
X142811503Y-59885776D02*
X142773408Y-59809586D01*
X142773408Y-59809586D02*
X142735312Y-59657205D01*
X142735312Y-59657205D02*
X142735312Y-59466729D01*
X142735312Y-59466729D02*
X142773408Y-59314348D01*
X142773408Y-59314348D02*
X142811503Y-59238157D01*
X142811503Y-59238157D02*
X142849598Y-59200062D01*
X142849598Y-59200062D02*
X142925789Y-59161967D01*
X143649598Y-59504824D02*
X143573408Y-59466729D01*
X143573408Y-59466729D02*
X143535313Y-59428633D01*
X143535313Y-59428633D02*
X143497217Y-59352443D01*
X143497217Y-59352443D02*
X143497217Y-59314348D01*
X143497217Y-59314348D02*
X143535313Y-59238157D01*
X143535313Y-59238157D02*
X143573408Y-59200062D01*
X143573408Y-59200062D02*
X143649598Y-59161967D01*
X143649598Y-59161967D02*
X143801979Y-59161967D01*
X143801979Y-59161967D02*
X143878170Y-59200062D01*
X143878170Y-59200062D02*
X143916265Y-59238157D01*
X143916265Y-59238157D02*
X143954360Y-59314348D01*
X143954360Y-59314348D02*
X143954360Y-59352443D01*
X143954360Y-59352443D02*
X143916265Y-59428633D01*
X143916265Y-59428633D02*
X143878170Y-59466729D01*
X143878170Y-59466729D02*
X143801979Y-59504824D01*
X143801979Y-59504824D02*
X143649598Y-59504824D01*
X143649598Y-59504824D02*
X143573408Y-59542919D01*
X143573408Y-59542919D02*
X143535313Y-59581014D01*
X143535313Y-59581014D02*
X143497217Y-59657205D01*
X143497217Y-59657205D02*
X143497217Y-59809586D01*
X143497217Y-59809586D02*
X143535313Y-59885776D01*
X143535313Y-59885776D02*
X143573408Y-59923872D01*
X143573408Y-59923872D02*
X143649598Y-59961967D01*
X143649598Y-59961967D02*
X143801979Y-59961967D01*
X143801979Y-59961967D02*
X143878170Y-59923872D01*
X143878170Y-59923872D02*
X143916265Y-59885776D01*
X143916265Y-59885776D02*
X143954360Y-59809586D01*
X143954360Y-59809586D02*
X143954360Y-59657205D01*
X143954360Y-59657205D02*
X143916265Y-59581014D01*
X143916265Y-59581014D02*
X143878170Y-59542919D01*
X143878170Y-59542919D02*
X143801979Y-59504824D01*
X153238265Y-71931967D02*
X153314455Y-71931967D01*
X153314455Y-71931967D02*
X153390646Y-71970062D01*
X153390646Y-71970062D02*
X153428741Y-72008157D01*
X153428741Y-72008157D02*
X153466836Y-72084348D01*
X153466836Y-72084348D02*
X153504931Y-72236729D01*
X153504931Y-72236729D02*
X153504931Y-72427205D01*
X153504931Y-72427205D02*
X153466836Y-72579586D01*
X153466836Y-72579586D02*
X153428741Y-72655776D01*
X153428741Y-72655776D02*
X153390646Y-72693872D01*
X153390646Y-72693872D02*
X153314455Y-72731967D01*
X153314455Y-72731967D02*
X153238265Y-72731967D01*
X153238265Y-72731967D02*
X153162074Y-72693872D01*
X153162074Y-72693872D02*
X153123979Y-72655776D01*
X153123979Y-72655776D02*
X153085884Y-72579586D01*
X153085884Y-72579586D02*
X153047788Y-72427205D01*
X153047788Y-72427205D02*
X153047788Y-72236729D01*
X153047788Y-72236729D02*
X153085884Y-72084348D01*
X153085884Y-72084348D02*
X153123979Y-72008157D01*
X153123979Y-72008157D02*
X153162074Y-71970062D01*
X153162074Y-71970062D02*
X153238265Y-71931967D01*
X154000170Y-71931967D02*
X154076360Y-71931967D01*
X154076360Y-71931967D02*
X154152551Y-71970062D01*
X154152551Y-71970062D02*
X154190646Y-72008157D01*
X154190646Y-72008157D02*
X154228741Y-72084348D01*
X154228741Y-72084348D02*
X154266836Y-72236729D01*
X154266836Y-72236729D02*
X154266836Y-72427205D01*
X154266836Y-72427205D02*
X154228741Y-72579586D01*
X154228741Y-72579586D02*
X154190646Y-72655776D01*
X154190646Y-72655776D02*
X154152551Y-72693872D01*
X154152551Y-72693872D02*
X154076360Y-72731967D01*
X154076360Y-72731967D02*
X154000170Y-72731967D01*
X154000170Y-72731967D02*
X153923979Y-72693872D01*
X153923979Y-72693872D02*
X153885884Y-72655776D01*
X153885884Y-72655776D02*
X153847789Y-72579586D01*
X153847789Y-72579586D02*
X153809693Y-72427205D01*
X153809693Y-72427205D02*
X153809693Y-72236729D01*
X153809693Y-72236729D02*
X153847789Y-72084348D01*
X153847789Y-72084348D02*
X153885884Y-72008157D01*
X153885884Y-72008157D02*
X153923979Y-71970062D01*
X153923979Y-71970062D02*
X154000170Y-71931967D01*
X154571598Y-72008157D02*
X154609694Y-71970062D01*
X154609694Y-71970062D02*
X154685884Y-71931967D01*
X154685884Y-71931967D02*
X154876360Y-71931967D01*
X154876360Y-71931967D02*
X154952551Y-71970062D01*
X154952551Y-71970062D02*
X154990646Y-72008157D01*
X154990646Y-72008157D02*
X155028741Y-72084348D01*
X155028741Y-72084348D02*
X155028741Y-72160538D01*
X155028741Y-72160538D02*
X154990646Y-72274824D01*
X154990646Y-72274824D02*
X154533503Y-72731967D01*
X154533503Y-72731967D02*
X155028741Y-72731967D01*
X153841455Y-54532919D02*
X153955741Y-54571014D01*
X153955741Y-54571014D02*
X153993836Y-54609110D01*
X153993836Y-54609110D02*
X154031932Y-54685300D01*
X154031932Y-54685300D02*
X154031932Y-54799586D01*
X154031932Y-54799586D02*
X153993836Y-54875776D01*
X153993836Y-54875776D02*
X153955741Y-54913872D01*
X153955741Y-54913872D02*
X153879551Y-54951967D01*
X153879551Y-54951967D02*
X153574789Y-54951967D01*
X153574789Y-54951967D02*
X153574789Y-54151967D01*
X153574789Y-54151967D02*
X153841455Y-54151967D01*
X153841455Y-54151967D02*
X153917646Y-54190062D01*
X153917646Y-54190062D02*
X153955741Y-54228157D01*
X153955741Y-54228157D02*
X153993836Y-54304348D01*
X153993836Y-54304348D02*
X153993836Y-54380538D01*
X153993836Y-54380538D02*
X153955741Y-54456729D01*
X153955741Y-54456729D02*
X153917646Y-54494824D01*
X153917646Y-54494824D02*
X153841455Y-54532919D01*
X153841455Y-54532919D02*
X153574789Y-54532919D01*
X154374789Y-54647205D02*
X154984313Y-54647205D01*
X154679551Y-54951967D02*
X154679551Y-54342443D01*
X142163884Y-56691967D02*
X142240074Y-56691967D01*
X142240074Y-56691967D02*
X142316265Y-56730062D01*
X142316265Y-56730062D02*
X142354360Y-56768157D01*
X142354360Y-56768157D02*
X142392455Y-56844348D01*
X142392455Y-56844348D02*
X142430550Y-56996729D01*
X142430550Y-56996729D02*
X142430550Y-57187205D01*
X142430550Y-57187205D02*
X142392455Y-57339586D01*
X142392455Y-57339586D02*
X142354360Y-57415776D01*
X142354360Y-57415776D02*
X142316265Y-57453872D01*
X142316265Y-57453872D02*
X142240074Y-57491967D01*
X142240074Y-57491967D02*
X142163884Y-57491967D01*
X142163884Y-57491967D02*
X142087693Y-57453872D01*
X142087693Y-57453872D02*
X142049598Y-57415776D01*
X142049598Y-57415776D02*
X142011503Y-57339586D01*
X142011503Y-57339586D02*
X141973407Y-57187205D01*
X141973407Y-57187205D02*
X141973407Y-56996729D01*
X141973407Y-56996729D02*
X142011503Y-56844348D01*
X142011503Y-56844348D02*
X142049598Y-56768157D01*
X142049598Y-56768157D02*
X142087693Y-56730062D01*
X142087693Y-56730062D02*
X142163884Y-56691967D01*
X142925789Y-56691967D02*
X143001979Y-56691967D01*
X143001979Y-56691967D02*
X143078170Y-56730062D01*
X143078170Y-56730062D02*
X143116265Y-56768157D01*
X143116265Y-56768157D02*
X143154360Y-56844348D01*
X143154360Y-56844348D02*
X143192455Y-56996729D01*
X143192455Y-56996729D02*
X143192455Y-57187205D01*
X143192455Y-57187205D02*
X143154360Y-57339586D01*
X143154360Y-57339586D02*
X143116265Y-57415776D01*
X143116265Y-57415776D02*
X143078170Y-57453872D01*
X143078170Y-57453872D02*
X143001979Y-57491967D01*
X143001979Y-57491967D02*
X142925789Y-57491967D01*
X142925789Y-57491967D02*
X142849598Y-57453872D01*
X142849598Y-57453872D02*
X142811503Y-57415776D01*
X142811503Y-57415776D02*
X142773408Y-57339586D01*
X142773408Y-57339586D02*
X142735312Y-57187205D01*
X142735312Y-57187205D02*
X142735312Y-56996729D01*
X142735312Y-56996729D02*
X142773408Y-56844348D01*
X142773408Y-56844348D02*
X142811503Y-56768157D01*
X142811503Y-56768157D02*
X142849598Y-56730062D01*
X142849598Y-56730062D02*
X142925789Y-56691967D01*
X143878170Y-56691967D02*
X143725789Y-56691967D01*
X143725789Y-56691967D02*
X143649598Y-56730062D01*
X143649598Y-56730062D02*
X143611503Y-56768157D01*
X143611503Y-56768157D02*
X143535313Y-56882443D01*
X143535313Y-56882443D02*
X143497217Y-57034824D01*
X143497217Y-57034824D02*
X143497217Y-57339586D01*
X143497217Y-57339586D02*
X143535313Y-57415776D01*
X143535313Y-57415776D02*
X143573408Y-57453872D01*
X143573408Y-57453872D02*
X143649598Y-57491967D01*
X143649598Y-57491967D02*
X143801979Y-57491967D01*
X143801979Y-57491967D02*
X143878170Y-57453872D01*
X143878170Y-57453872D02*
X143916265Y-57415776D01*
X143916265Y-57415776D02*
X143954360Y-57339586D01*
X143954360Y-57339586D02*
X143954360Y-57149110D01*
X143954360Y-57149110D02*
X143916265Y-57072919D01*
X143916265Y-57072919D02*
X143878170Y-57034824D01*
X143878170Y-57034824D02*
X143801979Y-56996729D01*
X143801979Y-56996729D02*
X143649598Y-56996729D01*
X143649598Y-56996729D02*
X143573408Y-57034824D01*
X143573408Y-57034824D02*
X143535313Y-57072919D01*
X143535313Y-57072919D02*
X143497217Y-57149110D01*
X153504931Y-80351967D02*
X153047788Y-80351967D01*
X153276360Y-80351967D02*
X153276360Y-79551967D01*
X153276360Y-79551967D02*
X153200169Y-79666252D01*
X153200169Y-79666252D02*
X153123979Y-79742443D01*
X153123979Y-79742443D02*
X153047788Y-79780538D01*
X154266836Y-80351967D02*
X153809693Y-80351967D01*
X154038265Y-80351967D02*
X154038265Y-79551967D01*
X154038265Y-79551967D02*
X153962074Y-79666252D01*
X153962074Y-79666252D02*
X153885884Y-79742443D01*
X153885884Y-79742443D02*
X153809693Y-79780538D01*
X155028741Y-80351967D02*
X154571598Y-80351967D01*
X154800170Y-80351967D02*
X154800170Y-79551967D01*
X154800170Y-79551967D02*
X154723979Y-79666252D01*
X154723979Y-79666252D02*
X154647789Y-79742443D01*
X154647789Y-79742443D02*
X154571598Y-79780538D01*
X153422408Y-57491967D02*
X153155741Y-57111014D01*
X152965265Y-57491967D02*
X152965265Y-56691967D01*
X152965265Y-56691967D02*
X153270027Y-56691967D01*
X153270027Y-56691967D02*
X153346217Y-56730062D01*
X153346217Y-56730062D02*
X153384312Y-56768157D01*
X153384312Y-56768157D02*
X153422408Y-56844348D01*
X153422408Y-56844348D02*
X153422408Y-56958633D01*
X153422408Y-56958633D02*
X153384312Y-57034824D01*
X153384312Y-57034824D02*
X153346217Y-57072919D01*
X153346217Y-57072919D02*
X153270027Y-57111014D01*
X153270027Y-57111014D02*
X152965265Y-57111014D01*
X153727169Y-57263395D02*
X154108122Y-57263395D01*
X153650979Y-57491967D02*
X153917646Y-56691967D01*
X153917646Y-56691967D02*
X154184312Y-57491967D01*
X154374788Y-56691967D02*
X154565264Y-57491967D01*
X154565264Y-57491967D02*
X154717645Y-56920538D01*
X154717645Y-56920538D02*
X154870026Y-57491967D01*
X154870026Y-57491967D02*
X155060503Y-56691967D01*
X153504931Y-77811967D02*
X153047788Y-77811967D01*
X153276360Y-77811967D02*
X153276360Y-77011967D01*
X153276360Y-77011967D02*
X153200169Y-77126252D01*
X153200169Y-77126252D02*
X153123979Y-77202443D01*
X153123979Y-77202443D02*
X153047788Y-77240538D01*
X154266836Y-77811967D02*
X153809693Y-77811967D01*
X154038265Y-77811967D02*
X154038265Y-77011967D01*
X154038265Y-77011967D02*
X153962074Y-77126252D01*
X153962074Y-77126252D02*
X153885884Y-77202443D01*
X153885884Y-77202443D02*
X153809693Y-77240538D01*
X154533503Y-77011967D02*
X155028741Y-77011967D01*
X155028741Y-77011967D02*
X154762075Y-77316729D01*
X154762075Y-77316729D02*
X154876360Y-77316729D01*
X154876360Y-77316729D02*
X154952551Y-77354824D01*
X154952551Y-77354824D02*
X154990646Y-77392919D01*
X154990646Y-77392919D02*
X155028741Y-77469110D01*
X155028741Y-77469110D02*
X155028741Y-77659586D01*
X155028741Y-77659586D02*
X154990646Y-77735776D01*
X154990646Y-77735776D02*
X154952551Y-77773872D01*
X154952551Y-77773872D02*
X154876360Y-77811967D01*
X154876360Y-77811967D02*
X154647789Y-77811967D01*
X154647789Y-77811967D02*
X154571598Y-77773872D01*
X154571598Y-77773872D02*
X154533503Y-77735776D01*
X153238265Y-66851967D02*
X153314455Y-66851967D01*
X153314455Y-66851967D02*
X153390646Y-66890062D01*
X153390646Y-66890062D02*
X153428741Y-66928157D01*
X153428741Y-66928157D02*
X153466836Y-67004348D01*
X153466836Y-67004348D02*
X153504931Y-67156729D01*
X153504931Y-67156729D02*
X153504931Y-67347205D01*
X153504931Y-67347205D02*
X153466836Y-67499586D01*
X153466836Y-67499586D02*
X153428741Y-67575776D01*
X153428741Y-67575776D02*
X153390646Y-67613872D01*
X153390646Y-67613872D02*
X153314455Y-67651967D01*
X153314455Y-67651967D02*
X153238265Y-67651967D01*
X153238265Y-67651967D02*
X153162074Y-67613872D01*
X153162074Y-67613872D02*
X153123979Y-67575776D01*
X153123979Y-67575776D02*
X153085884Y-67499586D01*
X153085884Y-67499586D02*
X153047788Y-67347205D01*
X153047788Y-67347205D02*
X153047788Y-67156729D01*
X153047788Y-67156729D02*
X153085884Y-67004348D01*
X153085884Y-67004348D02*
X153123979Y-66928157D01*
X153123979Y-66928157D02*
X153162074Y-66890062D01*
X153162074Y-66890062D02*
X153238265Y-66851967D01*
X153771598Y-66851967D02*
X154266836Y-66851967D01*
X154266836Y-66851967D02*
X154000170Y-67156729D01*
X154000170Y-67156729D02*
X154114455Y-67156729D01*
X154114455Y-67156729D02*
X154190646Y-67194824D01*
X154190646Y-67194824D02*
X154228741Y-67232919D01*
X154228741Y-67232919D02*
X154266836Y-67309110D01*
X154266836Y-67309110D02*
X154266836Y-67499586D01*
X154266836Y-67499586D02*
X154228741Y-67575776D01*
X154228741Y-67575776D02*
X154190646Y-67613872D01*
X154190646Y-67613872D02*
X154114455Y-67651967D01*
X154114455Y-67651967D02*
X153885884Y-67651967D01*
X153885884Y-67651967D02*
X153809693Y-67613872D01*
X153809693Y-67613872D02*
X153771598Y-67575776D01*
X155028741Y-67651967D02*
X154571598Y-67651967D01*
X154800170Y-67651967D02*
X154800170Y-66851967D01*
X154800170Y-66851967D02*
X154723979Y-66966252D01*
X154723979Y-66966252D02*
X154647789Y-67042443D01*
X154647789Y-67042443D02*
X154571598Y-67080538D01*
X142163884Y-71961967D02*
X142240074Y-71961967D01*
X142240074Y-71961967D02*
X142316265Y-72000062D01*
X142316265Y-72000062D02*
X142354360Y-72038157D01*
X142354360Y-72038157D02*
X142392455Y-72114348D01*
X142392455Y-72114348D02*
X142430550Y-72266729D01*
X142430550Y-72266729D02*
X142430550Y-72457205D01*
X142430550Y-72457205D02*
X142392455Y-72609586D01*
X142392455Y-72609586D02*
X142354360Y-72685776D01*
X142354360Y-72685776D02*
X142316265Y-72723872D01*
X142316265Y-72723872D02*
X142240074Y-72761967D01*
X142240074Y-72761967D02*
X142163884Y-72761967D01*
X142163884Y-72761967D02*
X142087693Y-72723872D01*
X142087693Y-72723872D02*
X142049598Y-72685776D01*
X142049598Y-72685776D02*
X142011503Y-72609586D01*
X142011503Y-72609586D02*
X141973407Y-72457205D01*
X141973407Y-72457205D02*
X141973407Y-72266729D01*
X141973407Y-72266729D02*
X142011503Y-72114348D01*
X142011503Y-72114348D02*
X142049598Y-72038157D01*
X142049598Y-72038157D02*
X142087693Y-72000062D01*
X142087693Y-72000062D02*
X142163884Y-71961967D01*
X142735312Y-72038157D02*
X142773408Y-72000062D01*
X142773408Y-72000062D02*
X142849598Y-71961967D01*
X142849598Y-71961967D02*
X143040074Y-71961967D01*
X143040074Y-71961967D02*
X143116265Y-72000062D01*
X143116265Y-72000062D02*
X143154360Y-72038157D01*
X143154360Y-72038157D02*
X143192455Y-72114348D01*
X143192455Y-72114348D02*
X143192455Y-72190538D01*
X143192455Y-72190538D02*
X143154360Y-72304824D01*
X143154360Y-72304824D02*
X142697217Y-72761967D01*
X142697217Y-72761967D02*
X143192455Y-72761967D01*
X143497217Y-72038157D02*
X143535313Y-72000062D01*
X143535313Y-72000062D02*
X143611503Y-71961967D01*
X143611503Y-71961967D02*
X143801979Y-71961967D01*
X143801979Y-71961967D02*
X143878170Y-72000062D01*
X143878170Y-72000062D02*
X143916265Y-72038157D01*
X143916265Y-72038157D02*
X143954360Y-72114348D01*
X143954360Y-72114348D02*
X143954360Y-72190538D01*
X143954360Y-72190538D02*
X143916265Y-72304824D01*
X143916265Y-72304824D02*
X143459122Y-72761967D01*
X143459122Y-72761967D02*
X143954360Y-72761967D01*
X153504931Y-75271967D02*
X153047788Y-75271967D01*
X153276360Y-75271967D02*
X153276360Y-74471967D01*
X153276360Y-74471967D02*
X153200169Y-74586252D01*
X153200169Y-74586252D02*
X153123979Y-74662443D01*
X153123979Y-74662443D02*
X153047788Y-74700538D01*
X154266836Y-75271967D02*
X153809693Y-75271967D01*
X154038265Y-75271967D02*
X154038265Y-74471967D01*
X154038265Y-74471967D02*
X153962074Y-74586252D01*
X153962074Y-74586252D02*
X153885884Y-74662443D01*
X153885884Y-74662443D02*
X153809693Y-74700538D01*
X154990646Y-74471967D02*
X154609694Y-74471967D01*
X154609694Y-74471967D02*
X154571598Y-74852919D01*
X154571598Y-74852919D02*
X154609694Y-74814824D01*
X154609694Y-74814824D02*
X154685884Y-74776729D01*
X154685884Y-74776729D02*
X154876360Y-74776729D01*
X154876360Y-74776729D02*
X154952551Y-74814824D01*
X154952551Y-74814824D02*
X154990646Y-74852919D01*
X154990646Y-74852919D02*
X155028741Y-74929110D01*
X155028741Y-74929110D02*
X155028741Y-75119586D01*
X155028741Y-75119586D02*
X154990646Y-75195776D01*
X154990646Y-75195776D02*
X154952551Y-75233872D01*
X154952551Y-75233872D02*
X154876360Y-75271967D01*
X154876360Y-75271967D02*
X154685884Y-75271967D01*
X154685884Y-75271967D02*
X154609694Y-75233872D01*
X154609694Y-75233872D02*
X154571598Y-75195776D01*
D14*
X145143931Y-68282624D02*
X145143931Y-68949291D01*
X145143931Y-68377862D02*
X145191550Y-68330243D01*
X145191550Y-68330243D02*
X145286788Y-68282624D01*
X145286788Y-68282624D02*
X145429645Y-68282624D01*
X145429645Y-68282624D02*
X145524883Y-68330243D01*
X145524883Y-68330243D02*
X145572502Y-68425481D01*
X145572502Y-68425481D02*
X145572502Y-68949291D01*
X146048693Y-68949291D02*
X146048693Y-68282624D01*
X146048693Y-67949291D02*
X146001074Y-67996910D01*
X146001074Y-67996910D02*
X146048693Y-68044529D01*
X146048693Y-68044529D02*
X146096312Y-67996910D01*
X146096312Y-67996910D02*
X146048693Y-67949291D01*
X146048693Y-67949291D02*
X146048693Y-68044529D01*
X146953454Y-68901672D02*
X146858216Y-68949291D01*
X146858216Y-68949291D02*
X146667740Y-68949291D01*
X146667740Y-68949291D02*
X146572502Y-68901672D01*
X146572502Y-68901672D02*
X146524883Y-68854052D01*
X146524883Y-68854052D02*
X146477264Y-68758814D01*
X146477264Y-68758814D02*
X146477264Y-68473100D01*
X146477264Y-68473100D02*
X146524883Y-68377862D01*
X146524883Y-68377862D02*
X146572502Y-68330243D01*
X146572502Y-68330243D02*
X146667740Y-68282624D01*
X146667740Y-68282624D02*
X146858216Y-68282624D01*
X146858216Y-68282624D02*
X146953454Y-68330243D01*
X147762978Y-68901672D02*
X147667740Y-68949291D01*
X147667740Y-68949291D02*
X147477264Y-68949291D01*
X147477264Y-68949291D02*
X147382026Y-68901672D01*
X147382026Y-68901672D02*
X147334407Y-68806433D01*
X147334407Y-68806433D02*
X147334407Y-68425481D01*
X147334407Y-68425481D02*
X147382026Y-68330243D01*
X147382026Y-68330243D02*
X147477264Y-68282624D01*
X147477264Y-68282624D02*
X147667740Y-68282624D01*
X147667740Y-68282624D02*
X147762978Y-68330243D01*
X147762978Y-68330243D02*
X147810597Y-68425481D01*
X147810597Y-68425481D02*
X147810597Y-68520719D01*
X147810597Y-68520719D02*
X147334407Y-68615957D01*
X148239169Y-68854052D02*
X148286788Y-68901672D01*
X148286788Y-68901672D02*
X148239169Y-68949291D01*
X148239169Y-68949291D02*
X148191550Y-68901672D01*
X148191550Y-68901672D02*
X148239169Y-68854052D01*
X148239169Y-68854052D02*
X148239169Y-68949291D01*
X148239169Y-68568338D02*
X148191550Y-67996910D01*
X148191550Y-67996910D02*
X148239169Y-67949291D01*
X148239169Y-67949291D02*
X148286788Y-67996910D01*
X148286788Y-67996910D02*
X148239169Y-68568338D01*
X148239169Y-68568338D02*
X148239169Y-67949291D01*
X148715359Y-68282624D02*
X148715359Y-68949291D01*
X148715359Y-68377862D02*
X148762978Y-68330243D01*
X148762978Y-68330243D02*
X148858216Y-68282624D01*
X148858216Y-68282624D02*
X149001073Y-68282624D01*
X149001073Y-68282624D02*
X149096311Y-68330243D01*
X149096311Y-68330243D02*
X149143930Y-68425481D01*
X149143930Y-68425481D02*
X149143930Y-68949291D01*
X150048692Y-68949291D02*
X150048692Y-68425481D01*
X150048692Y-68425481D02*
X150001073Y-68330243D01*
X150001073Y-68330243D02*
X149905835Y-68282624D01*
X149905835Y-68282624D02*
X149715359Y-68282624D01*
X149715359Y-68282624D02*
X149620121Y-68330243D01*
X150048692Y-68901672D02*
X149953454Y-68949291D01*
X149953454Y-68949291D02*
X149715359Y-68949291D01*
X149715359Y-68949291D02*
X149620121Y-68901672D01*
X149620121Y-68901672D02*
X149572502Y-68806433D01*
X149572502Y-68806433D02*
X149572502Y-68711195D01*
X149572502Y-68711195D02*
X149620121Y-68615957D01*
X149620121Y-68615957D02*
X149715359Y-68568338D01*
X149715359Y-68568338D02*
X149953454Y-68568338D01*
X149953454Y-68568338D02*
X150048692Y-68520719D01*
X150524883Y-68282624D02*
X150524883Y-68949291D01*
X150524883Y-68377862D02*
X150572502Y-68330243D01*
X150572502Y-68330243D02*
X150667740Y-68282624D01*
X150667740Y-68282624D02*
X150810597Y-68282624D01*
X150810597Y-68282624D02*
X150905835Y-68330243D01*
X150905835Y-68330243D02*
X150953454Y-68425481D01*
X150953454Y-68425481D02*
X150953454Y-68949291D01*
X151572502Y-68949291D02*
X151477264Y-68901672D01*
X151477264Y-68901672D02*
X151429645Y-68854052D01*
X151429645Y-68854052D02*
X151382026Y-68758814D01*
X151382026Y-68758814D02*
X151382026Y-68473100D01*
X151382026Y-68473100D02*
X151429645Y-68377862D01*
X151429645Y-68377862D02*
X151477264Y-68330243D01*
X151477264Y-68330243D02*
X151572502Y-68282624D01*
X151572502Y-68282624D02*
X151715359Y-68282624D01*
X151715359Y-68282624D02*
X151810597Y-68330243D01*
X151810597Y-68330243D02*
X151858216Y-68377862D01*
X151858216Y-68377862D02*
X151905835Y-68473100D01*
X151905835Y-68473100D02*
X151905835Y-68758814D01*
X151905835Y-68758814D02*
X151858216Y-68854052D01*
X151858216Y-68854052D02*
X151810597Y-68901672D01*
X151810597Y-68901672D02*
X151715359Y-68949291D01*
X151715359Y-68949291D02*
X151572502Y-68949291D01*
D10*
X152971598Y-64311967D02*
X153238265Y-65111967D01*
X153238265Y-65111967D02*
X153504931Y-64311967D01*
X154228741Y-65035776D02*
X154190645Y-65073872D01*
X154190645Y-65073872D02*
X154076360Y-65111967D01*
X154076360Y-65111967D02*
X154000169Y-65111967D01*
X154000169Y-65111967D02*
X153885883Y-65073872D01*
X153885883Y-65073872D02*
X153809693Y-64997681D01*
X153809693Y-64997681D02*
X153771598Y-64921491D01*
X153771598Y-64921491D02*
X153733502Y-64769110D01*
X153733502Y-64769110D02*
X153733502Y-64654824D01*
X153733502Y-64654824D02*
X153771598Y-64502443D01*
X153771598Y-64502443D02*
X153809693Y-64426252D01*
X153809693Y-64426252D02*
X153885883Y-64350062D01*
X153885883Y-64350062D02*
X154000169Y-64311967D01*
X154000169Y-64311967D02*
X154076360Y-64311967D01*
X154076360Y-64311967D02*
X154190645Y-64350062D01*
X154190645Y-64350062D02*
X154228741Y-64388157D01*
X155028741Y-65035776D02*
X154990645Y-65073872D01*
X154990645Y-65073872D02*
X154876360Y-65111967D01*
X154876360Y-65111967D02*
X154800169Y-65111967D01*
X154800169Y-65111967D02*
X154685883Y-65073872D01*
X154685883Y-65073872D02*
X154609693Y-64997681D01*
X154609693Y-64997681D02*
X154571598Y-64921491D01*
X154571598Y-64921491D02*
X154533502Y-64769110D01*
X154533502Y-64769110D02*
X154533502Y-64654824D01*
X154533502Y-64654824D02*
X154571598Y-64502443D01*
X154571598Y-64502443D02*
X154609693Y-64426252D01*
X154609693Y-64426252D02*
X154685883Y-64350062D01*
X154685883Y-64350062D02*
X154800169Y-64311967D01*
X154800169Y-64311967D02*
X154876360Y-64311967D01*
X154876360Y-64311967D02*
X154990645Y-64350062D01*
X154990645Y-64350062D02*
X155028741Y-64388157D01*
X153650979Y-62571967D02*
X153384312Y-62191014D01*
X153193836Y-62571967D02*
X153193836Y-61771967D01*
X153193836Y-61771967D02*
X153498598Y-61771967D01*
X153498598Y-61771967D02*
X153574788Y-61810062D01*
X153574788Y-61810062D02*
X153612883Y-61848157D01*
X153612883Y-61848157D02*
X153650979Y-61924348D01*
X153650979Y-61924348D02*
X153650979Y-62038633D01*
X153650979Y-62038633D02*
X153612883Y-62114824D01*
X153612883Y-62114824D02*
X153574788Y-62152919D01*
X153574788Y-62152919D02*
X153498598Y-62191014D01*
X153498598Y-62191014D02*
X153193836Y-62191014D01*
X153955740Y-62533872D02*
X154070026Y-62571967D01*
X154070026Y-62571967D02*
X154260502Y-62571967D01*
X154260502Y-62571967D02*
X154336693Y-62533872D01*
X154336693Y-62533872D02*
X154374788Y-62495776D01*
X154374788Y-62495776D02*
X154412883Y-62419586D01*
X154412883Y-62419586D02*
X154412883Y-62343395D01*
X154412883Y-62343395D02*
X154374788Y-62267205D01*
X154374788Y-62267205D02*
X154336693Y-62229110D01*
X154336693Y-62229110D02*
X154260502Y-62191014D01*
X154260502Y-62191014D02*
X154108121Y-62152919D01*
X154108121Y-62152919D02*
X154031931Y-62114824D01*
X154031931Y-62114824D02*
X153993836Y-62076729D01*
X153993836Y-62076729D02*
X153955740Y-62000538D01*
X153955740Y-62000538D02*
X153955740Y-61924348D01*
X153955740Y-61924348D02*
X153993836Y-61848157D01*
X153993836Y-61848157D02*
X154031931Y-61810062D01*
X154031931Y-61810062D02*
X154108121Y-61771967D01*
X154108121Y-61771967D02*
X154298598Y-61771967D01*
X154298598Y-61771967D02*
X154412883Y-61810062D01*
X154641455Y-61771967D02*
X155098598Y-61771967D01*
X154870026Y-62571967D02*
X154870026Y-61771967D01*
X142163884Y-74471967D02*
X142240074Y-74471967D01*
X142240074Y-74471967D02*
X142316265Y-74510062D01*
X142316265Y-74510062D02*
X142354360Y-74548157D01*
X142354360Y-74548157D02*
X142392455Y-74624348D01*
X142392455Y-74624348D02*
X142430550Y-74776729D01*
X142430550Y-74776729D02*
X142430550Y-74967205D01*
X142430550Y-74967205D02*
X142392455Y-75119586D01*
X142392455Y-75119586D02*
X142354360Y-75195776D01*
X142354360Y-75195776D02*
X142316265Y-75233872D01*
X142316265Y-75233872D02*
X142240074Y-75271967D01*
X142240074Y-75271967D02*
X142163884Y-75271967D01*
X142163884Y-75271967D02*
X142087693Y-75233872D01*
X142087693Y-75233872D02*
X142049598Y-75195776D01*
X142049598Y-75195776D02*
X142011503Y-75119586D01*
X142011503Y-75119586D02*
X141973407Y-74967205D01*
X141973407Y-74967205D02*
X141973407Y-74776729D01*
X141973407Y-74776729D02*
X142011503Y-74624348D01*
X142011503Y-74624348D02*
X142049598Y-74548157D01*
X142049598Y-74548157D02*
X142087693Y-74510062D01*
X142087693Y-74510062D02*
X142163884Y-74471967D01*
X142735312Y-74548157D02*
X142773408Y-74510062D01*
X142773408Y-74510062D02*
X142849598Y-74471967D01*
X142849598Y-74471967D02*
X143040074Y-74471967D01*
X143040074Y-74471967D02*
X143116265Y-74510062D01*
X143116265Y-74510062D02*
X143154360Y-74548157D01*
X143154360Y-74548157D02*
X143192455Y-74624348D01*
X143192455Y-74624348D02*
X143192455Y-74700538D01*
X143192455Y-74700538D02*
X143154360Y-74814824D01*
X143154360Y-74814824D02*
X142697217Y-75271967D01*
X142697217Y-75271967D02*
X143192455Y-75271967D01*
X143878170Y-74738633D02*
X143878170Y-75271967D01*
X143687694Y-74433872D02*
X143497217Y-75005300D01*
X143497217Y-75005300D02*
X143992456Y-75005300D01*
X142430550Y-82891967D02*
X141973407Y-82891967D01*
X142201979Y-82891967D02*
X142201979Y-82091967D01*
X142201979Y-82091967D02*
X142125788Y-82206252D01*
X142125788Y-82206252D02*
X142049598Y-82282443D01*
X142049598Y-82282443D02*
X141973407Y-82320538D01*
X142925789Y-82091967D02*
X143001979Y-82091967D01*
X143001979Y-82091967D02*
X143078170Y-82130062D01*
X143078170Y-82130062D02*
X143116265Y-82168157D01*
X143116265Y-82168157D02*
X143154360Y-82244348D01*
X143154360Y-82244348D02*
X143192455Y-82396729D01*
X143192455Y-82396729D02*
X143192455Y-82587205D01*
X143192455Y-82587205D02*
X143154360Y-82739586D01*
X143154360Y-82739586D02*
X143116265Y-82815776D01*
X143116265Y-82815776D02*
X143078170Y-82853872D01*
X143078170Y-82853872D02*
X143001979Y-82891967D01*
X143001979Y-82891967D02*
X142925789Y-82891967D01*
X142925789Y-82891967D02*
X142849598Y-82853872D01*
X142849598Y-82853872D02*
X142811503Y-82815776D01*
X142811503Y-82815776D02*
X142773408Y-82739586D01*
X142773408Y-82739586D02*
X142735312Y-82587205D01*
X142735312Y-82587205D02*
X142735312Y-82396729D01*
X142735312Y-82396729D02*
X142773408Y-82244348D01*
X142773408Y-82244348D02*
X142811503Y-82168157D01*
X142811503Y-82168157D02*
X142849598Y-82130062D01*
X142849598Y-82130062D02*
X142925789Y-82091967D01*
X143878170Y-82358633D02*
X143878170Y-82891967D01*
X143687694Y-82053872D02*
X143497217Y-82625300D01*
X143497217Y-82625300D02*
X143992456Y-82625300D01*
X153238265Y-82091967D02*
X153314455Y-82091967D01*
X153314455Y-82091967D02*
X153390646Y-82130062D01*
X153390646Y-82130062D02*
X153428741Y-82168157D01*
X153428741Y-82168157D02*
X153466836Y-82244348D01*
X153466836Y-82244348D02*
X153504931Y-82396729D01*
X153504931Y-82396729D02*
X153504931Y-82587205D01*
X153504931Y-82587205D02*
X153466836Y-82739586D01*
X153466836Y-82739586D02*
X153428741Y-82815776D01*
X153428741Y-82815776D02*
X153390646Y-82853872D01*
X153390646Y-82853872D02*
X153314455Y-82891967D01*
X153314455Y-82891967D02*
X153238265Y-82891967D01*
X153238265Y-82891967D02*
X153162074Y-82853872D01*
X153162074Y-82853872D02*
X153123979Y-82815776D01*
X153123979Y-82815776D02*
X153085884Y-82739586D01*
X153085884Y-82739586D02*
X153047788Y-82587205D01*
X153047788Y-82587205D02*
X153047788Y-82396729D01*
X153047788Y-82396729D02*
X153085884Y-82244348D01*
X153085884Y-82244348D02*
X153123979Y-82168157D01*
X153123979Y-82168157D02*
X153162074Y-82130062D01*
X153162074Y-82130062D02*
X153238265Y-82091967D01*
X154266836Y-82891967D02*
X153809693Y-82891967D01*
X154038265Y-82891967D02*
X154038265Y-82091967D01*
X154038265Y-82091967D02*
X153962074Y-82206252D01*
X153962074Y-82206252D02*
X153885884Y-82282443D01*
X153885884Y-82282443D02*
X153809693Y-82320538D01*
X154762075Y-82091967D02*
X154838265Y-82091967D01*
X154838265Y-82091967D02*
X154914456Y-82130062D01*
X154914456Y-82130062D02*
X154952551Y-82168157D01*
X154952551Y-82168157D02*
X154990646Y-82244348D01*
X154990646Y-82244348D02*
X155028741Y-82396729D01*
X155028741Y-82396729D02*
X155028741Y-82587205D01*
X155028741Y-82587205D02*
X154990646Y-82739586D01*
X154990646Y-82739586D02*
X154952551Y-82815776D01*
X154952551Y-82815776D02*
X154914456Y-82853872D01*
X154914456Y-82853872D02*
X154838265Y-82891967D01*
X154838265Y-82891967D02*
X154762075Y-82891967D01*
X154762075Y-82891967D02*
X154685884Y-82853872D01*
X154685884Y-82853872D02*
X154647789Y-82815776D01*
X154647789Y-82815776D02*
X154609694Y-82739586D01*
X154609694Y-82739586D02*
X154571598Y-82587205D01*
X154571598Y-82587205D02*
X154571598Y-82396729D01*
X154571598Y-82396729D02*
X154609694Y-82244348D01*
X154609694Y-82244348D02*
X154647789Y-82168157D01*
X154647789Y-82168157D02*
X154685884Y-82130062D01*
X154685884Y-82130062D02*
X154762075Y-82091967D01*
X142163884Y-69461967D02*
X142240074Y-69461967D01*
X142240074Y-69461967D02*
X142316265Y-69500062D01*
X142316265Y-69500062D02*
X142354360Y-69538157D01*
X142354360Y-69538157D02*
X142392455Y-69614348D01*
X142392455Y-69614348D02*
X142430550Y-69766729D01*
X142430550Y-69766729D02*
X142430550Y-69957205D01*
X142430550Y-69957205D02*
X142392455Y-70109586D01*
X142392455Y-70109586D02*
X142354360Y-70185776D01*
X142354360Y-70185776D02*
X142316265Y-70223872D01*
X142316265Y-70223872D02*
X142240074Y-70261967D01*
X142240074Y-70261967D02*
X142163884Y-70261967D01*
X142163884Y-70261967D02*
X142087693Y-70223872D01*
X142087693Y-70223872D02*
X142049598Y-70185776D01*
X142049598Y-70185776D02*
X142011503Y-70109586D01*
X142011503Y-70109586D02*
X141973407Y-69957205D01*
X141973407Y-69957205D02*
X141973407Y-69766729D01*
X141973407Y-69766729D02*
X142011503Y-69614348D01*
X142011503Y-69614348D02*
X142049598Y-69538157D01*
X142049598Y-69538157D02*
X142087693Y-69500062D01*
X142087693Y-69500062D02*
X142163884Y-69461967D01*
X142735312Y-69538157D02*
X142773408Y-69500062D01*
X142773408Y-69500062D02*
X142849598Y-69461967D01*
X142849598Y-69461967D02*
X143040074Y-69461967D01*
X143040074Y-69461967D02*
X143116265Y-69500062D01*
X143116265Y-69500062D02*
X143154360Y-69538157D01*
X143154360Y-69538157D02*
X143192455Y-69614348D01*
X143192455Y-69614348D02*
X143192455Y-69690538D01*
X143192455Y-69690538D02*
X143154360Y-69804824D01*
X143154360Y-69804824D02*
X142697217Y-70261967D01*
X142697217Y-70261967D02*
X143192455Y-70261967D01*
X143687694Y-69461967D02*
X143763884Y-69461967D01*
X143763884Y-69461967D02*
X143840075Y-69500062D01*
X143840075Y-69500062D02*
X143878170Y-69538157D01*
X143878170Y-69538157D02*
X143916265Y-69614348D01*
X143916265Y-69614348D02*
X143954360Y-69766729D01*
X143954360Y-69766729D02*
X143954360Y-69957205D01*
X143954360Y-69957205D02*
X143916265Y-70109586D01*
X143916265Y-70109586D02*
X143878170Y-70185776D01*
X143878170Y-70185776D02*
X143840075Y-70223872D01*
X143840075Y-70223872D02*
X143763884Y-70261967D01*
X143763884Y-70261967D02*
X143687694Y-70261967D01*
X143687694Y-70261967D02*
X143611503Y-70223872D01*
X143611503Y-70223872D02*
X143573408Y-70185776D01*
X143573408Y-70185776D02*
X143535313Y-70109586D01*
X143535313Y-70109586D02*
X143497217Y-69957205D01*
X143497217Y-69957205D02*
X143497217Y-69766729D01*
X143497217Y-69766729D02*
X143535313Y-69614348D01*
X143535313Y-69614348D02*
X143573408Y-69538157D01*
X143573408Y-69538157D02*
X143611503Y-69500062D01*
X143611503Y-69500062D02*
X143687694Y-69461967D01*
X142430550Y-61810062D02*
X142354360Y-61771967D01*
X142354360Y-61771967D02*
X142240074Y-61771967D01*
X142240074Y-61771967D02*
X142125788Y-61810062D01*
X142125788Y-61810062D02*
X142049598Y-61886252D01*
X142049598Y-61886252D02*
X142011503Y-61962443D01*
X142011503Y-61962443D02*
X141973407Y-62114824D01*
X141973407Y-62114824D02*
X141973407Y-62229110D01*
X141973407Y-62229110D02*
X142011503Y-62381491D01*
X142011503Y-62381491D02*
X142049598Y-62457681D01*
X142049598Y-62457681D02*
X142125788Y-62533872D01*
X142125788Y-62533872D02*
X142240074Y-62571967D01*
X142240074Y-62571967D02*
X142316265Y-62571967D01*
X142316265Y-62571967D02*
X142430550Y-62533872D01*
X142430550Y-62533872D02*
X142468646Y-62495776D01*
X142468646Y-62495776D02*
X142468646Y-62229110D01*
X142468646Y-62229110D02*
X142316265Y-62229110D01*
X142811503Y-62571967D02*
X142811503Y-61771967D01*
X142811503Y-61771967D02*
X143268646Y-62571967D01*
X143268646Y-62571967D02*
X143268646Y-61771967D01*
X143649598Y-62571967D02*
X143649598Y-61771967D01*
X143649598Y-61771967D02*
X143840074Y-61771967D01*
X143840074Y-61771967D02*
X143954360Y-61810062D01*
X143954360Y-61810062D02*
X144030550Y-61886252D01*
X144030550Y-61886252D02*
X144068645Y-61962443D01*
X144068645Y-61962443D02*
X144106741Y-62114824D01*
X144106741Y-62114824D02*
X144106741Y-62229110D01*
X144106741Y-62229110D02*
X144068645Y-62381491D01*
X144068645Y-62381491D02*
X144030550Y-62457681D01*
X144030550Y-62457681D02*
X143954360Y-62533872D01*
X143954360Y-62533872D02*
X143840074Y-62571967D01*
X143840074Y-62571967D02*
X143649598Y-62571967D01*
X153346217Y-59270062D02*
X153270027Y-59231967D01*
X153270027Y-59231967D02*
X153155741Y-59231967D01*
X153155741Y-59231967D02*
X153041455Y-59270062D01*
X153041455Y-59270062D02*
X152965265Y-59346252D01*
X152965265Y-59346252D02*
X152927170Y-59422443D01*
X152927170Y-59422443D02*
X152889074Y-59574824D01*
X152889074Y-59574824D02*
X152889074Y-59689110D01*
X152889074Y-59689110D02*
X152927170Y-59841491D01*
X152927170Y-59841491D02*
X152965265Y-59917681D01*
X152965265Y-59917681D02*
X153041455Y-59993872D01*
X153041455Y-59993872D02*
X153155741Y-60031967D01*
X153155741Y-60031967D02*
X153231932Y-60031967D01*
X153231932Y-60031967D02*
X153346217Y-59993872D01*
X153346217Y-59993872D02*
X153384313Y-59955776D01*
X153384313Y-59955776D02*
X153384313Y-59689110D01*
X153384313Y-59689110D02*
X153231932Y-59689110D01*
X153727170Y-60031967D02*
X153727170Y-59231967D01*
X153727170Y-59231967D02*
X154184313Y-60031967D01*
X154184313Y-60031967D02*
X154184313Y-59231967D01*
X154565265Y-60031967D02*
X154565265Y-59231967D01*
X154565265Y-59231967D02*
X154755741Y-59231967D01*
X154755741Y-59231967D02*
X154870027Y-59270062D01*
X154870027Y-59270062D02*
X154946217Y-59346252D01*
X154946217Y-59346252D02*
X154984312Y-59422443D01*
X154984312Y-59422443D02*
X155022408Y-59574824D01*
X155022408Y-59574824D02*
X155022408Y-59689110D01*
X155022408Y-59689110D02*
X154984312Y-59841491D01*
X154984312Y-59841491D02*
X154946217Y-59917681D01*
X154946217Y-59917681D02*
X154870027Y-59993872D01*
X154870027Y-59993872D02*
X154755741Y-60031967D01*
X154755741Y-60031967D02*
X154565265Y-60031967D01*
X142430550Y-64350062D02*
X142354360Y-64311967D01*
X142354360Y-64311967D02*
X142240074Y-64311967D01*
X142240074Y-64311967D02*
X142125788Y-64350062D01*
X142125788Y-64350062D02*
X142049598Y-64426252D01*
X142049598Y-64426252D02*
X142011503Y-64502443D01*
X142011503Y-64502443D02*
X141973407Y-64654824D01*
X141973407Y-64654824D02*
X141973407Y-64769110D01*
X141973407Y-64769110D02*
X142011503Y-64921491D01*
X142011503Y-64921491D02*
X142049598Y-64997681D01*
X142049598Y-64997681D02*
X142125788Y-65073872D01*
X142125788Y-65073872D02*
X142240074Y-65111967D01*
X142240074Y-65111967D02*
X142316265Y-65111967D01*
X142316265Y-65111967D02*
X142430550Y-65073872D01*
X142430550Y-65073872D02*
X142468646Y-65035776D01*
X142468646Y-65035776D02*
X142468646Y-64769110D01*
X142468646Y-64769110D02*
X142316265Y-64769110D01*
X142811503Y-65111967D02*
X142811503Y-64311967D01*
X142811503Y-64311967D02*
X143268646Y-65111967D01*
X143268646Y-65111967D02*
X143268646Y-64311967D01*
X143649598Y-65111967D02*
X143649598Y-64311967D01*
X143649598Y-64311967D02*
X143840074Y-64311967D01*
X143840074Y-64311967D02*
X143954360Y-64350062D01*
X143954360Y-64350062D02*
X144030550Y-64426252D01*
X144030550Y-64426252D02*
X144068645Y-64502443D01*
X144068645Y-64502443D02*
X144106741Y-64654824D01*
X144106741Y-64654824D02*
X144106741Y-64769110D01*
X144106741Y-64769110D02*
X144068645Y-64921491D01*
X144068645Y-64921491D02*
X144030550Y-64997681D01*
X144030550Y-64997681D02*
X143954360Y-65073872D01*
X143954360Y-65073872D02*
X143840074Y-65111967D01*
X143840074Y-65111967D02*
X143649598Y-65111967D01*
X142430550Y-77811967D02*
X141973407Y-77811967D01*
X142201979Y-77811967D02*
X142201979Y-77011967D01*
X142201979Y-77011967D02*
X142125788Y-77126252D01*
X142125788Y-77126252D02*
X142049598Y-77202443D01*
X142049598Y-77202443D02*
X141973407Y-77240538D01*
X142925789Y-77011967D02*
X143001979Y-77011967D01*
X143001979Y-77011967D02*
X143078170Y-77050062D01*
X143078170Y-77050062D02*
X143116265Y-77088157D01*
X143116265Y-77088157D02*
X143154360Y-77164348D01*
X143154360Y-77164348D02*
X143192455Y-77316729D01*
X143192455Y-77316729D02*
X143192455Y-77507205D01*
X143192455Y-77507205D02*
X143154360Y-77659586D01*
X143154360Y-77659586D02*
X143116265Y-77735776D01*
X143116265Y-77735776D02*
X143078170Y-77773872D01*
X143078170Y-77773872D02*
X143001979Y-77811967D01*
X143001979Y-77811967D02*
X142925789Y-77811967D01*
X142925789Y-77811967D02*
X142849598Y-77773872D01*
X142849598Y-77773872D02*
X142811503Y-77735776D01*
X142811503Y-77735776D02*
X142773408Y-77659586D01*
X142773408Y-77659586D02*
X142735312Y-77507205D01*
X142735312Y-77507205D02*
X142735312Y-77316729D01*
X142735312Y-77316729D02*
X142773408Y-77164348D01*
X142773408Y-77164348D02*
X142811503Y-77088157D01*
X142811503Y-77088157D02*
X142849598Y-77050062D01*
X142849598Y-77050062D02*
X142925789Y-77011967D01*
X143687694Y-77011967D02*
X143763884Y-77011967D01*
X143763884Y-77011967D02*
X143840075Y-77050062D01*
X143840075Y-77050062D02*
X143878170Y-77088157D01*
X143878170Y-77088157D02*
X143916265Y-77164348D01*
X143916265Y-77164348D02*
X143954360Y-77316729D01*
X143954360Y-77316729D02*
X143954360Y-77507205D01*
X143954360Y-77507205D02*
X143916265Y-77659586D01*
X143916265Y-77659586D02*
X143878170Y-77735776D01*
X143878170Y-77735776D02*
X143840075Y-77773872D01*
X143840075Y-77773872D02*
X143763884Y-77811967D01*
X143763884Y-77811967D02*
X143687694Y-77811967D01*
X143687694Y-77811967D02*
X143611503Y-77773872D01*
X143611503Y-77773872D02*
X143573408Y-77735776D01*
X143573408Y-77735776D02*
X143535313Y-77659586D01*
X143535313Y-77659586D02*
X143497217Y-77507205D01*
X143497217Y-77507205D02*
X143497217Y-77316729D01*
X143497217Y-77316729D02*
X143535313Y-77164348D01*
X143535313Y-77164348D02*
X143573408Y-77088157D01*
X143573408Y-77088157D02*
X143611503Y-77050062D01*
X143611503Y-77050062D02*
X143687694Y-77011967D01*
X142601978Y-54532919D02*
X142716264Y-54571014D01*
X142716264Y-54571014D02*
X142754359Y-54609110D01*
X142754359Y-54609110D02*
X142792455Y-54685300D01*
X142792455Y-54685300D02*
X142792455Y-54799586D01*
X142792455Y-54799586D02*
X142754359Y-54875776D01*
X142754359Y-54875776D02*
X142716264Y-54913872D01*
X142716264Y-54913872D02*
X142640074Y-54951967D01*
X142640074Y-54951967D02*
X142335312Y-54951967D01*
X142335312Y-54951967D02*
X142335312Y-54151967D01*
X142335312Y-54151967D02*
X142601978Y-54151967D01*
X142601978Y-54151967D02*
X142678169Y-54190062D01*
X142678169Y-54190062D02*
X142716264Y-54228157D01*
X142716264Y-54228157D02*
X142754359Y-54304348D01*
X142754359Y-54304348D02*
X142754359Y-54380538D01*
X142754359Y-54380538D02*
X142716264Y-54456729D01*
X142716264Y-54456729D02*
X142678169Y-54494824D01*
X142678169Y-54494824D02*
X142601978Y-54532919D01*
X142601978Y-54532919D02*
X142335312Y-54532919D01*
X143135312Y-54647205D02*
X143744836Y-54647205D01*
G04 #@! TO.C,SW40*
X248478476Y-57536552D02*
X248169459Y-56585495D01*
X249120516Y-56276478D02*
X248169459Y-56585495D01*
X252495697Y-69900287D02*
X252186680Y-68949230D01*
X252495697Y-69900287D02*
X253446754Y-69591270D01*
X261484251Y-52259257D02*
X260533194Y-52568274D01*
X261484251Y-52259257D02*
X261793268Y-53210314D01*
X264859432Y-65883066D02*
X265810489Y-65574049D01*
X265501472Y-64622992D02*
X265810489Y-65574049D01*
G04 #@! TO.C,SW37*
X230061576Y-59104452D02*
X229752559Y-58153395D01*
X230703616Y-57844378D02*
X229752559Y-58153395D01*
X234078797Y-71468187D02*
X233769780Y-70517130D01*
X234078797Y-71468187D02*
X235029854Y-71159170D01*
X243067351Y-53827157D02*
X242116294Y-54136174D01*
X243067351Y-53827157D02*
X243376368Y-54778214D01*
X246442532Y-67450966D02*
X247393589Y-67141949D01*
X247084572Y-66190892D02*
X247393589Y-67141949D01*
G04 #@! TO.C,SW34*
X211644776Y-60672352D02*
X211335759Y-59721295D01*
X212286816Y-59412278D02*
X211335759Y-59721295D01*
X215661997Y-73036087D02*
X215352980Y-72085030D01*
X215661997Y-73036087D02*
X216613054Y-72727070D01*
X224650551Y-55395057D02*
X223699494Y-55704074D01*
X224650551Y-55395057D02*
X224959568Y-56346114D01*
X228025732Y-69018866D02*
X228976789Y-68709849D01*
X228667772Y-67758792D02*
X228976789Y-68709849D01*
G04 #@! TO.C,SW30*
X193227876Y-62240252D02*
X192918859Y-61289195D01*
X193869916Y-60980178D02*
X192918859Y-61289195D01*
X197245097Y-74603987D02*
X196936080Y-73652930D01*
X197245097Y-74603987D02*
X198196154Y-74294970D01*
X206233651Y-56962957D02*
X205282594Y-57271974D01*
X206233651Y-56962957D02*
X206542668Y-57914014D01*
X209608832Y-70586766D02*
X210559889Y-70277749D01*
X210250872Y-69326692D02*
X210559889Y-70277749D01*
G04 #@! TO.C,SW26*
X177406676Y-71796952D02*
X177097659Y-70845895D01*
X178048716Y-70536878D02*
X177097659Y-70845895D01*
X181423897Y-84160687D02*
X181114880Y-83209630D01*
X181423897Y-84160687D02*
X182374954Y-83851670D01*
X190412451Y-66519657D02*
X189461394Y-66828674D01*
X190412451Y-66519657D02*
X190721468Y-67470714D01*
X193787632Y-80143466D02*
X194738689Y-79834449D01*
X194429672Y-78883392D02*
X194738689Y-79834449D01*
G04 #@! TO.C,SW22*
X161585576Y-81353652D02*
X161276559Y-80402595D01*
X162227616Y-80093578D02*
X161276559Y-80402595D01*
X165602797Y-93717387D02*
X165293780Y-92766330D01*
X165602797Y-93717387D02*
X166553854Y-93408370D01*
X174591351Y-76076357D02*
X173640294Y-76385374D01*
X174591351Y-76076357D02*
X174900368Y-77027414D01*
X177966532Y-89700166D02*
X178917589Y-89391149D01*
X178608572Y-88440092D02*
X178917589Y-89391149D01*
G04 #@! TO.C,SW18*
X117902959Y-89391149D02*
X118211976Y-88440092D01*
X117902959Y-89391149D02*
X118854016Y-89700166D01*
X121920180Y-77027414D02*
X122229197Y-76076357D01*
X123180254Y-76385374D02*
X122229197Y-76076357D01*
X130266694Y-93408370D02*
X131217751Y-93717387D01*
X131526768Y-92766330D02*
X131217751Y-93717387D01*
X135543989Y-80402595D02*
X134592932Y-80093578D01*
X135543989Y-80402595D02*
X135234972Y-81353652D01*
G04 #@! TO.C,SW14*
X102081759Y-79834449D02*
X102390776Y-78883392D01*
X102081759Y-79834449D02*
X103032816Y-80143466D01*
X106098980Y-67470714D02*
X106407997Y-66519657D01*
X107359054Y-66828674D02*
X106407997Y-66519657D01*
X114445494Y-83851670D02*
X115396551Y-84160687D01*
X115705568Y-83209630D02*
X115396551Y-84160687D01*
X119722789Y-70845895D02*
X118771732Y-70536878D01*
X119722789Y-70845895D02*
X119413772Y-71796952D01*
G04 #@! TO.C,SW10*
X86260659Y-70277749D02*
X86569676Y-69326692D01*
X86260659Y-70277749D02*
X87211716Y-70586766D01*
X90277880Y-57914014D02*
X90586897Y-56962957D01*
X91537954Y-57271974D02*
X90586897Y-56962957D01*
X98624394Y-74294970D02*
X99575451Y-74603987D01*
X99884468Y-73652930D02*
X99575451Y-74603987D01*
X103901689Y-61289195D02*
X102950632Y-60980178D01*
X103901689Y-61289195D02*
X103592672Y-62240252D01*
G04 #@! TO.C,SW7*
X67843759Y-68709849D02*
X68152776Y-67758792D01*
X67843759Y-68709849D02*
X68794816Y-69018866D01*
X71860980Y-56346114D02*
X72169997Y-55395057D01*
X73121054Y-55704074D02*
X72169997Y-55395057D01*
X80207494Y-72727070D02*
X81158551Y-73036087D01*
X81467568Y-72085030D02*
X81158551Y-73036087D01*
X85484789Y-59721295D02*
X84533732Y-59412278D01*
X85484789Y-59721295D02*
X85175772Y-60672352D01*
G04 #@! TO.C,SW4*
X49426859Y-67141949D02*
X49735876Y-66190892D01*
X49426859Y-67141949D02*
X50377916Y-67450966D01*
X53444080Y-54778214D02*
X53753097Y-53827157D01*
X54704154Y-54136174D02*
X53753097Y-53827157D01*
X61790594Y-71159170D02*
X62741651Y-71468187D01*
X63050668Y-70517130D02*
X62741651Y-71468187D01*
X67067889Y-58153395D02*
X66116832Y-57844378D01*
X67067889Y-58153395D02*
X66758872Y-59104452D01*
G04 #@! TO.C,SW1*
X31009959Y-65574049D02*
X31318976Y-64622992D01*
X31009959Y-65574049D02*
X31961016Y-65883066D01*
X35027180Y-53210314D02*
X35336197Y-52259257D01*
X36287254Y-52568274D02*
X35336197Y-52259257D01*
X43373694Y-69591270D02*
X44324751Y-69900287D01*
X44633768Y-68949230D02*
X44324751Y-69900287D01*
X48650989Y-56585495D02*
X47699932Y-56276478D01*
X48650989Y-56585495D02*
X48341972Y-57536552D01*
G04 #@! TO.C,SW41*
X253731776Y-73704552D02*
X253422759Y-72753495D01*
X254373816Y-72444478D02*
X253422759Y-72753495D01*
X257748997Y-86068287D02*
X257439980Y-85117230D01*
X257748997Y-86068287D02*
X258700054Y-85759270D01*
X266737551Y-68427257D02*
X265786494Y-68736274D01*
X266737551Y-68427257D02*
X267046568Y-69378314D01*
X270112732Y-82051066D02*
X271063789Y-81742049D01*
X270754772Y-80790992D02*
X271063789Y-81742049D01*
G04 #@! TO.C,SW38*
X235314876Y-75272452D02*
X235005859Y-74321395D01*
X235956916Y-74012378D02*
X235005859Y-74321395D01*
X239332097Y-87636187D02*
X239023080Y-86685130D01*
X239332097Y-87636187D02*
X240283154Y-87327170D01*
X248320651Y-69995157D02*
X247369594Y-70304174D01*
X248320651Y-69995157D02*
X248629668Y-70946214D01*
X251695832Y-83618966D02*
X252646889Y-83309949D01*
X252337872Y-82358892D02*
X252646889Y-83309949D01*
G04 #@! TO.C,SW35*
X216897976Y-76840252D02*
X216588959Y-75889195D01*
X217540016Y-75580178D02*
X216588959Y-75889195D01*
X220915197Y-89203987D02*
X220606180Y-88252930D01*
X220915197Y-89203987D02*
X221866254Y-88894970D01*
X229903751Y-71562957D02*
X228952694Y-71871974D01*
X229903751Y-71562957D02*
X230212768Y-72514014D01*
X233278932Y-85186766D02*
X234229989Y-84877749D01*
X233920972Y-83926692D02*
X234229989Y-84877749D01*
G04 #@! TO.C,SW31*
X198481176Y-78408152D02*
X198172159Y-77457095D01*
X199123216Y-77148078D02*
X198172159Y-77457095D01*
X202498397Y-90771887D02*
X202189380Y-89820830D01*
X202498397Y-90771887D02*
X203449454Y-90462870D01*
X211486951Y-73130857D02*
X210535894Y-73439874D01*
X211486951Y-73130857D02*
X211795968Y-74081914D01*
X214862132Y-86754666D02*
X215813189Y-86445649D01*
X215504172Y-85494592D02*
X215813189Y-86445649D01*
G04 #@! TO.C,SW27*
X182659976Y-87964952D02*
X182350959Y-87013895D01*
X183302016Y-86704878D02*
X182350959Y-87013895D01*
X186677197Y-100328687D02*
X186368180Y-99377630D01*
X186677197Y-100328687D02*
X187628254Y-100019670D01*
X195665751Y-82687657D02*
X194714694Y-82996674D01*
X195665751Y-82687657D02*
X195974768Y-83638714D01*
X199040932Y-96311466D02*
X199991989Y-96002449D01*
X199682972Y-95051392D02*
X199991989Y-96002449D01*
G04 #@! TO.C,SW23*
X166838876Y-97521652D02*
X166529859Y-96570595D01*
X167480916Y-96261578D02*
X166529859Y-96570595D01*
X170856097Y-109885387D02*
X170547080Y-108934330D01*
X170856097Y-109885387D02*
X171807154Y-109576370D01*
X179844651Y-92244357D02*
X178893594Y-92553374D01*
X179844651Y-92244357D02*
X180153668Y-93195414D01*
X183219832Y-105868166D02*
X184170889Y-105559149D01*
X183861872Y-104608092D02*
X184170889Y-105559149D01*
G04 #@! TO.C,SW19*
X112649659Y-105559149D02*
X112958676Y-104608092D01*
X112649659Y-105559149D02*
X113600716Y-105868166D01*
X116666880Y-93195414D02*
X116975897Y-92244357D01*
X117926954Y-92553374D02*
X116975897Y-92244357D01*
X125013394Y-109576370D02*
X125964451Y-109885387D01*
X126273468Y-108934330D02*
X125964451Y-109885387D01*
X130290689Y-96570595D02*
X129339632Y-96261578D01*
X130290689Y-96570595D02*
X129981672Y-97521652D01*
G04 #@! TO.C,SW15*
X96828459Y-96002449D02*
X97137476Y-95051392D01*
X96828459Y-96002449D02*
X97779516Y-96311466D01*
X100845680Y-83638714D02*
X101154697Y-82687657D01*
X102105754Y-82996674D02*
X101154697Y-82687657D01*
X109192194Y-100019670D02*
X110143251Y-100328687D01*
X110452268Y-99377630D02*
X110143251Y-100328687D01*
X114469489Y-87013895D02*
X113518432Y-86704878D01*
X114469489Y-87013895D02*
X114160472Y-87964952D01*
G04 #@! TO.C,SW11*
X81007359Y-86445649D02*
X81316376Y-85494592D01*
X81007359Y-86445649D02*
X81958416Y-86754666D01*
X85024580Y-74081914D02*
X85333597Y-73130857D01*
X86284654Y-73439874D02*
X85333597Y-73130857D01*
X93371094Y-90462870D02*
X94322151Y-90771887D01*
X94631168Y-89820830D02*
X94322151Y-90771887D01*
X98648389Y-77457095D02*
X97697332Y-77148078D01*
X98648389Y-77457095D02*
X98339372Y-78408152D01*
G04 #@! TO.C,SW8*
X62590459Y-84877749D02*
X62899476Y-83926692D01*
X62590459Y-84877749D02*
X63541516Y-85186766D01*
X66607680Y-72514014D02*
X66916697Y-71562957D01*
X67867754Y-71871974D02*
X66916697Y-71562957D01*
X74954194Y-88894970D02*
X75905251Y-89203987D01*
X76214268Y-88252930D02*
X75905251Y-89203987D01*
X80231489Y-75889195D02*
X79280432Y-75580178D01*
X80231489Y-75889195D02*
X79922472Y-76840252D01*
G04 #@! TO.C,SW5*
X44173559Y-83309949D02*
X44482576Y-82358892D01*
X44173559Y-83309949D02*
X45124616Y-83618966D01*
X48190780Y-70946214D02*
X48499797Y-69995157D01*
X49450854Y-70304174D02*
X48499797Y-69995157D01*
X56537294Y-87327170D02*
X57488351Y-87636187D01*
X57797368Y-86685130D02*
X57488351Y-87636187D01*
X61814589Y-74321395D02*
X60863532Y-74012378D01*
X61814589Y-74321395D02*
X61505572Y-75272452D01*
G04 #@! TO.C,SW2*
X25756659Y-81742049D02*
X26065676Y-80790992D01*
X25756659Y-81742049D02*
X26707716Y-82051066D01*
X29773880Y-69378314D02*
X30082897Y-68427257D01*
X31033954Y-68736274D02*
X30082897Y-68427257D01*
X38120394Y-85759270D02*
X39071451Y-86068287D01*
X39380468Y-85117230D02*
X39071451Y-86068287D01*
X43397689Y-72753495D02*
X42446632Y-72444478D01*
X43397689Y-72753495D02*
X43088672Y-73704552D01*
G04 #@! TO.C,SW42*
X258985076Y-89872552D02*
X258676059Y-88921495D01*
X259627116Y-88612478D02*
X258676059Y-88921495D01*
X263002297Y-102236287D02*
X262693280Y-101285230D01*
X263002297Y-102236287D02*
X263953354Y-101927270D01*
X271990851Y-84595257D02*
X271039794Y-84904274D01*
X271990851Y-84595257D02*
X272299868Y-85546314D01*
X275366032Y-98219066D02*
X276317089Y-97910049D01*
X276008072Y-96958992D02*
X276317089Y-97910049D01*
G04 #@! TO.C,SW39*
X240568176Y-91440352D02*
X240259159Y-90489295D01*
X241210216Y-90180278D02*
X240259159Y-90489295D01*
X244585397Y-103804087D02*
X244276380Y-102853030D01*
X244585397Y-103804087D02*
X245536454Y-103495070D01*
X253573951Y-86163057D02*
X252622894Y-86472074D01*
X253573951Y-86163057D02*
X253882968Y-87114114D01*
X256949132Y-99786866D02*
X257900189Y-99477849D01*
X257591172Y-98526792D02*
X257900189Y-99477849D01*
G04 #@! TO.C,SW36*
X222151276Y-93008252D02*
X221842259Y-92057195D01*
X222793316Y-91748178D02*
X221842259Y-92057195D01*
X226168497Y-105371987D02*
X225859480Y-104420930D01*
X226168497Y-105371987D02*
X227119554Y-105062970D01*
X235157051Y-87730957D02*
X234205994Y-88039974D01*
X235157051Y-87730957D02*
X235466068Y-88682014D01*
X238532232Y-101354766D02*
X239483289Y-101045749D01*
X239174272Y-100094692D02*
X239483289Y-101045749D01*
G04 #@! TO.C,SW32*
X203734376Y-94576152D02*
X203425359Y-93625095D01*
X204376416Y-93316078D02*
X203425359Y-93625095D01*
X207751597Y-106939887D02*
X207442580Y-105988830D01*
X207751597Y-106939887D02*
X208702654Y-106630870D01*
X216740151Y-89298857D02*
X215789094Y-89607874D01*
X216740151Y-89298857D02*
X217049168Y-90249914D01*
X220115332Y-102922666D02*
X221066389Y-102613649D01*
X220757372Y-101662592D02*
X221066389Y-102613649D01*
G04 #@! TO.C,SW28*
X187913276Y-104132852D02*
X187604259Y-103181795D01*
X188555316Y-102872778D02*
X187604259Y-103181795D01*
X191930497Y-116496587D02*
X191621480Y-115545530D01*
X191930497Y-116496587D02*
X192881554Y-116187570D01*
X200919051Y-98855557D02*
X199967994Y-99164574D01*
X200919051Y-98855557D02*
X201228068Y-99806614D01*
X204294232Y-112479366D02*
X205245289Y-112170349D01*
X204936272Y-111219292D02*
X205245289Y-112170349D01*
G04 #@! TO.C,SW24*
X172092176Y-113689652D02*
X171783159Y-112738595D01*
X172734216Y-112429578D02*
X171783159Y-112738595D01*
X176109397Y-126053387D02*
X175800380Y-125102330D01*
X176109397Y-126053387D02*
X177060454Y-125744370D01*
X185097951Y-108412357D02*
X184146894Y-108721374D01*
X185097951Y-108412357D02*
X185406968Y-109363414D01*
X188473132Y-122036166D02*
X189424189Y-121727149D01*
X189115172Y-120776092D02*
X189424189Y-121727149D01*
G04 #@! TO.C,SW20*
X107396359Y-121727149D02*
X107705376Y-120776092D01*
X107396359Y-121727149D02*
X108347416Y-122036166D01*
X111413580Y-109363414D02*
X111722597Y-108412357D01*
X112673654Y-108721374D02*
X111722597Y-108412357D01*
X119760094Y-125744370D02*
X120711151Y-126053387D01*
X121020168Y-125102330D02*
X120711151Y-126053387D01*
X125037389Y-112738595D02*
X124086332Y-112429578D01*
X125037389Y-112738595D02*
X124728372Y-113689652D01*
G04 #@! TO.C,SW16*
X91575159Y-112170349D02*
X91884176Y-111219292D01*
X91575159Y-112170349D02*
X92526216Y-112479366D01*
X95592380Y-99806614D02*
X95901397Y-98855557D01*
X96852454Y-99164574D02*
X95901397Y-98855557D01*
X103938894Y-116187570D02*
X104889951Y-116496587D01*
X105198968Y-115545530D02*
X104889951Y-116496587D01*
X109216189Y-103181795D02*
X108265132Y-102872778D01*
X109216189Y-103181795D02*
X108907172Y-104132852D01*
G04 #@! TO.C,SW12*
X75754059Y-102613649D02*
X76063076Y-101662592D01*
X75754059Y-102613649D02*
X76705116Y-102922666D01*
X79771280Y-90249914D02*
X80080297Y-89298857D01*
X81031354Y-89607874D02*
X80080297Y-89298857D01*
X88117794Y-106630870D02*
X89068851Y-106939887D01*
X89377868Y-105988830D02*
X89068851Y-106939887D01*
X93395089Y-93625095D02*
X92444032Y-93316078D01*
X93395089Y-93625095D02*
X93086072Y-94576152D01*
G04 #@! TO.C,SW9*
X57337159Y-101045749D02*
X57646176Y-100094692D01*
X57337159Y-101045749D02*
X58288216Y-101354766D01*
X61354380Y-88682014D02*
X61663397Y-87730957D01*
X62614454Y-88039974D02*
X61663397Y-87730957D01*
X69700894Y-105062970D02*
X70651951Y-105371987D01*
X70960968Y-104420930D02*
X70651951Y-105371987D01*
X74978189Y-92057195D02*
X74027132Y-91748178D01*
X74978189Y-92057195D02*
X74669172Y-93008252D01*
G04 #@! TO.C,SW6*
X38920259Y-99477849D02*
X39229276Y-98526792D01*
X38920259Y-99477849D02*
X39871316Y-99786866D01*
X42937480Y-87114114D02*
X43246497Y-86163057D01*
X44197554Y-86472074D02*
X43246497Y-86163057D01*
X51283994Y-103495070D02*
X52235051Y-103804087D01*
X52544068Y-102853030D02*
X52235051Y-103804087D01*
X56561289Y-90489295D02*
X55610232Y-90180278D01*
X56561289Y-90489295D02*
X56252272Y-91440352D01*
G04 #@! TO.C,SW3*
X20503359Y-97910049D02*
X20812376Y-96958992D01*
X20503359Y-97910049D02*
X21454416Y-98219066D01*
X24520580Y-85546314D02*
X24829597Y-84595257D01*
X25780654Y-84904274D02*
X24829597Y-84595257D01*
X32867094Y-101927270D02*
X33818151Y-102236287D01*
X34127168Y-101285230D02*
X33818151Y-102236287D01*
X38144389Y-88921495D02*
X37193332Y-88612478D01*
X38144389Y-88921495D02*
X37835372Y-89872552D01*
G04 #@! TO.C,SW33*
X208987676Y-110744052D02*
X208678659Y-109792995D01*
X209629716Y-109483978D02*
X208678659Y-109792995D01*
X213004897Y-123107787D02*
X212695880Y-122156730D01*
X213004897Y-123107787D02*
X213955954Y-122798770D01*
X221993451Y-105466757D02*
X221042394Y-105775774D01*
X221993451Y-105466757D02*
X222302468Y-106417814D01*
X225368632Y-119090566D02*
X226319689Y-118781549D01*
X226010672Y-117830492D02*
X226319689Y-118781549D01*
G04 #@! TO.C,SW29*
X193166576Y-120300852D02*
X192857559Y-119349795D01*
X193808616Y-119040778D02*
X192857559Y-119349795D01*
X197183797Y-132664587D02*
X196874780Y-131713530D01*
X197183797Y-132664587D02*
X198134854Y-132355570D01*
X206172351Y-115023557D02*
X205221294Y-115332574D01*
X206172351Y-115023557D02*
X206481368Y-115974614D01*
X209547532Y-128647366D02*
X210498589Y-128338349D01*
X210189572Y-127387292D02*
X210498589Y-128338349D01*
G04 #@! TO.C,SW21*
X106422859Y-139285649D02*
X106731876Y-138334592D01*
X106422859Y-139285649D02*
X107373916Y-139594666D01*
X110440080Y-126921914D02*
X110749097Y-125970857D01*
X111700154Y-126279874D02*
X110749097Y-125970857D01*
X118786594Y-143302870D02*
X119737651Y-143611887D01*
X120046668Y-142660830D02*
X119737651Y-143611887D01*
X124063889Y-130297095D02*
X123112832Y-129988078D01*
X124063889Y-130297095D02*
X123754872Y-131248152D01*
G04 #@! TO.C,SW17*
X86321959Y-128338349D02*
X86630976Y-127387292D01*
X86321959Y-128338349D02*
X87273016Y-128647366D01*
X90339180Y-115974614D02*
X90648197Y-115023557D01*
X91599254Y-115332574D02*
X90648197Y-115023557D01*
X98685694Y-132355570D02*
X99636751Y-132664587D01*
X99945768Y-131713530D02*
X99636751Y-132664587D01*
X103962989Y-119349795D02*
X103011932Y-119040778D01*
X103962989Y-119349795D02*
X103653972Y-120300852D01*
G04 #@! TO.C,SW25*
X173065676Y-131248152D02*
X172756659Y-130297095D01*
X173707716Y-129988078D02*
X172756659Y-130297095D01*
X177082897Y-143611887D02*
X176773880Y-142660830D01*
X177082897Y-143611887D02*
X178033954Y-143302870D01*
X186071451Y-125970857D02*
X185120394Y-126279874D01*
X186071451Y-125970857D02*
X186380468Y-126921914D01*
X189446632Y-139594666D02*
X190397689Y-139285649D01*
X190088672Y-138334592D02*
X190397689Y-139285649D01*
G04 #@! TO.C,SW13*
X70500759Y-118781549D02*
X70809776Y-117830492D01*
X70500759Y-118781549D02*
X71451816Y-119090566D01*
X74517980Y-106417814D02*
X74826997Y-105466757D01*
X75778054Y-105775774D02*
X74826997Y-105466757D01*
X82864494Y-122798770D02*
X83815551Y-123107787D01*
X84124568Y-122156730D02*
X83815551Y-123107787D01*
X88141789Y-109792995D02*
X87190732Y-109483978D01*
X88141789Y-109792995D02*
X87832772Y-110744052D01*
D15*
G04 #@! TO.C,SW43*
X159815469Y-53177832D02*
X159815469Y-53677832D01*
X159815469Y-53177832D02*
X160215469Y-53177832D01*
X159815469Y-57577832D02*
X159815469Y-57077832D01*
X160215469Y-53177832D02*
X168215469Y-53177832D01*
X168215469Y-53177832D02*
X168615469Y-53177832D01*
X168615469Y-53177832D02*
X168615469Y-53677832D01*
X168615469Y-57077832D02*
X168615469Y-57577832D01*
X168615469Y-57577832D02*
X159815469Y-57577832D01*
D16*
G04 #@! TO.C,SW_RST1*
X128712848Y-56217753D02*
X128712848Y-54692753D01*
X128737848Y-56217753D02*
X129012848Y-56217753D01*
X133212848Y-56217753D02*
X131212848Y-56217753D01*
X134212848Y-53432753D02*
X130212848Y-53432753D01*
X135412848Y-56217753D02*
X135712848Y-56217753D01*
X135712848Y-56217753D02*
X135712848Y-54682753D01*
G04 #@! TD*
D17*
G04 #@! TO.C,U1*
X140881074Y-57129672D03*
X140881074Y-59669672D03*
X140881074Y-62209672D03*
X140881074Y-64749672D03*
X140881074Y-67289672D03*
X140881074Y-69829672D03*
X140881074Y-72369672D03*
X140881074Y-74909672D03*
X140881074Y-77449672D03*
X140881074Y-79989672D03*
X140881074Y-82529672D03*
X140881074Y-85069672D03*
X156121074Y-85069672D03*
X156121074Y-82529672D03*
X156121074Y-79989672D03*
X156121074Y-77449672D03*
X156121074Y-74909672D03*
X156121074Y-72369672D03*
X156121074Y-69829672D03*
X156121074Y-67289672D03*
X156121074Y-64749672D03*
X156121074Y-62209672D03*
X156121074Y-59669672D03*
X156121074Y-57129672D03*
X140881074Y-54589672D03*
X143421074Y-79989672D03*
X145961074Y-79989672D03*
X148501074Y-79989672D03*
X156121074Y-54589672D03*
G04 #@! TD*
%LPC*%
G04 #@! TO.C,U1*
X140881074Y-57129672D03*
X140881074Y-59669672D03*
X140881074Y-62209672D03*
X140881074Y-64749672D03*
X140881074Y-67289672D03*
X140881074Y-69829672D03*
X140881074Y-72369672D03*
X140881074Y-74909672D03*
X140881074Y-77449672D03*
X140881074Y-79989672D03*
X140881074Y-82529672D03*
X140881074Y-85069672D03*
X156121074Y-85069672D03*
X156121074Y-82529672D03*
X156121074Y-79989672D03*
X156121074Y-77449672D03*
X156121074Y-74909672D03*
X156121074Y-72369672D03*
X156121074Y-69829672D03*
X156121074Y-67289672D03*
X156121074Y-64749672D03*
X156121074Y-62209672D03*
X156121074Y-59669672D03*
X156121074Y-57129672D03*
X140881074Y-54589672D03*
X143421074Y-79989672D03*
X145961074Y-79989672D03*
X148501074Y-79989672D03*
X156121074Y-54589672D03*
G04 #@! TD*
D18*
G04 #@! TO.C,SW40*
X251759163Y-62779365D03*
D19*
X255151323Y-55420986D03*
D20*
X256989974Y-61079772D03*
D19*
X260586443Y-55968225D03*
D18*
X262220785Y-59380179D03*
D21*
X258813174Y-66691004D03*
X253408956Y-66238872D03*
G04 #@! TD*
D18*
G04 #@! TO.C,SW37*
X233342263Y-64347265D03*
D19*
X236734423Y-56988886D03*
D20*
X238573074Y-62647672D03*
D19*
X242169543Y-57536125D03*
D18*
X243803885Y-60948079D03*
D21*
X240396274Y-68258904D03*
X234992056Y-67806772D03*
G04 #@! TD*
D18*
G04 #@! TO.C,SW34*
X214925463Y-65915165D03*
D19*
X218317623Y-58556786D03*
D20*
X220156274Y-64215572D03*
D19*
X223752743Y-59104025D03*
D18*
X225387085Y-62515979D03*
D21*
X221979474Y-69826804D03*
X216575256Y-69374672D03*
G04 #@! TD*
D18*
G04 #@! TO.C,SW30*
X196508563Y-67483065D03*
D19*
X199900723Y-60124686D03*
D20*
X201739374Y-65783472D03*
D19*
X205335843Y-60671925D03*
D18*
X206970185Y-64083879D03*
D21*
X203562574Y-71394704D03*
X198158356Y-70942572D03*
G04 #@! TD*
D18*
G04 #@! TO.C,SW26*
X180687363Y-77039765D03*
D19*
X184079523Y-69681386D03*
D20*
X185918174Y-75340172D03*
D19*
X189514643Y-70228625D03*
D18*
X191148985Y-73640579D03*
D21*
X187741374Y-80951404D03*
X182337156Y-80499272D03*
G04 #@! TD*
D18*
G04 #@! TO.C,SW22*
X164866263Y-86596465D03*
D19*
X168258423Y-79238086D03*
D20*
X170097074Y-84896872D03*
D19*
X173693543Y-79785325D03*
D18*
X175327885Y-83197279D03*
D21*
X171920274Y-90508104D03*
X166516056Y-90055972D03*
G04 #@! TD*
D18*
G04 #@! TO.C,SW18*
X121492663Y-83197279D03*
D19*
X128562125Y-79238086D03*
D20*
X126723474Y-84896872D03*
D19*
X132637570Y-82875495D03*
D18*
X131954285Y-86596465D03*
D21*
X124900274Y-90508104D03*
X120793927Y-86965802D03*
G04 #@! TD*
D18*
G04 #@! TO.C,SW14*
X105671463Y-73640579D03*
D19*
X112740925Y-69681386D03*
D20*
X110902274Y-75340172D03*
D19*
X116816370Y-73318795D03*
D18*
X116133085Y-77039765D03*
D21*
X109079074Y-80951404D03*
X104972727Y-77409102D03*
G04 #@! TD*
D18*
G04 #@! TO.C,SW10*
X89850363Y-64083879D03*
D19*
X96919825Y-60124686D03*
D20*
X95081174Y-65783472D03*
D19*
X100995270Y-63762095D03*
D18*
X100311985Y-67483065D03*
D21*
X93257974Y-71394704D03*
X89151627Y-67852402D03*
G04 #@! TD*
D18*
G04 #@! TO.C,SW7*
X71433463Y-62515979D03*
D19*
X78502925Y-58556786D03*
D20*
X76664274Y-64215572D03*
D19*
X82578370Y-62194195D03*
D18*
X81895085Y-65915165D03*
D21*
X74841074Y-69826804D03*
X70734727Y-66284502D03*
G04 #@! TD*
D18*
G04 #@! TO.C,SW4*
X53016563Y-60948079D03*
D19*
X60086025Y-56988886D03*
D20*
X58247374Y-62647672D03*
D19*
X64161470Y-60626295D03*
D18*
X63478185Y-64347265D03*
D21*
X56424174Y-68258904D03*
X52317827Y-64716602D03*
G04 #@! TD*
D18*
G04 #@! TO.C,SW1*
X34599663Y-59380179D03*
D19*
X41669125Y-55420986D03*
D20*
X39830474Y-61079772D03*
D19*
X45744570Y-59058395D03*
D18*
X45061285Y-62779365D03*
D21*
X38007274Y-66691004D03*
X33900927Y-63148702D03*
G04 #@! TD*
D18*
G04 #@! TO.C,SW41*
X257012463Y-78947365D03*
D19*
X260404623Y-71588986D03*
D20*
X262243274Y-77247772D03*
D19*
X265839743Y-72136225D03*
D18*
X267474085Y-75548179D03*
D21*
X264066474Y-82859004D03*
X258662256Y-82406872D03*
G04 #@! TD*
D18*
G04 #@! TO.C,SW38*
X238595563Y-80515265D03*
D19*
X241987723Y-73156886D03*
D20*
X243826374Y-78815672D03*
D19*
X247422843Y-73704125D03*
D18*
X249057185Y-77116079D03*
D21*
X245649574Y-84426904D03*
X240245356Y-83974772D03*
G04 #@! TD*
D18*
G04 #@! TO.C,SW35*
X220178663Y-82083065D03*
D19*
X223570823Y-74724686D03*
D20*
X225409474Y-80383472D03*
D19*
X229005943Y-75271925D03*
D18*
X230640285Y-78683879D03*
D21*
X227232674Y-85994704D03*
X221828456Y-85542572D03*
G04 #@! TD*
D18*
G04 #@! TO.C,SW31*
X201761863Y-83650965D03*
D19*
X205154023Y-76292586D03*
D20*
X206992674Y-81951372D03*
D19*
X210589143Y-76839825D03*
D18*
X212223485Y-80251779D03*
D21*
X208815874Y-87562604D03*
X203411656Y-87110472D03*
G04 #@! TD*
D18*
G04 #@! TO.C,SW27*
X185940663Y-93207765D03*
D19*
X189332823Y-85849386D03*
D20*
X191171474Y-91508172D03*
D19*
X194767943Y-86396625D03*
D18*
X196402285Y-89808579D03*
D21*
X192994674Y-97119404D03*
X187590456Y-96667272D03*
G04 #@! TD*
D18*
G04 #@! TO.C,SW23*
X170119563Y-102764465D03*
D19*
X173511723Y-95406086D03*
D20*
X175350374Y-101064872D03*
D19*
X178946843Y-95953325D03*
D18*
X180581185Y-99365279D03*
D21*
X177173574Y-106676104D03*
X171769356Y-106223972D03*
G04 #@! TD*
D18*
G04 #@! TO.C,SW19*
X116239363Y-99365279D03*
D19*
X123308825Y-95406086D03*
D20*
X121470174Y-101064872D03*
D19*
X127384270Y-99043495D03*
D18*
X126700985Y-102764465D03*
D21*
X119646974Y-106676104D03*
X115540627Y-103133802D03*
G04 #@! TD*
D18*
G04 #@! TO.C,SW15*
X100418163Y-89808579D03*
D19*
X107487625Y-85849386D03*
D20*
X105648974Y-91508172D03*
D19*
X111563070Y-89486795D03*
D18*
X110879785Y-93207765D03*
D21*
X103825774Y-97119404D03*
X99719427Y-93577102D03*
G04 #@! TD*
D18*
G04 #@! TO.C,SW11*
X84597063Y-80251779D03*
D19*
X91666525Y-76292586D03*
D20*
X89827874Y-81951372D03*
D19*
X95741970Y-79929995D03*
D18*
X95058685Y-83650965D03*
D21*
X88004674Y-87562604D03*
X83898327Y-84020302D03*
G04 #@! TD*
D18*
G04 #@! TO.C,SW8*
X66180163Y-78683879D03*
D19*
X73249625Y-74724686D03*
D20*
X71410974Y-80383472D03*
D19*
X77325070Y-78362095D03*
D18*
X76641785Y-82083065D03*
D21*
X69587774Y-85994704D03*
X65481427Y-82452402D03*
G04 #@! TD*
D18*
G04 #@! TO.C,SW5*
X47763263Y-77116079D03*
D19*
X54832725Y-73156886D03*
D20*
X52994074Y-78815672D03*
D19*
X58908170Y-76794295D03*
D18*
X58224885Y-80515265D03*
D21*
X51170874Y-84426904D03*
X47064527Y-80884602D03*
G04 #@! TD*
D18*
G04 #@! TO.C,SW2*
X29346363Y-75548179D03*
D19*
X36415825Y-71588986D03*
D20*
X34577174Y-77247772D03*
D19*
X40491270Y-75226395D03*
D18*
X39807985Y-78947365D03*
D21*
X32753974Y-82859004D03*
X28647627Y-79316702D03*
G04 #@! TD*
D18*
G04 #@! TO.C,SW42*
X262265763Y-95115365D03*
D19*
X265657923Y-87756986D03*
D20*
X267496574Y-93415772D03*
D19*
X271093043Y-88304225D03*
D18*
X272727385Y-91716179D03*
D21*
X269319774Y-99027004D03*
X263915556Y-98574872D03*
G04 #@! TD*
D18*
G04 #@! TO.C,SW39*
X243848863Y-96683165D03*
D19*
X247241023Y-89324786D03*
D20*
X249079674Y-94983572D03*
D19*
X252676143Y-89872025D03*
D18*
X254310485Y-93283979D03*
D21*
X250902874Y-100594804D03*
X245498656Y-100142672D03*
G04 #@! TD*
D18*
G04 #@! TO.C,SW36*
X225431963Y-98251065D03*
D19*
X228824123Y-90892686D03*
D20*
X230662774Y-96551472D03*
D19*
X234259243Y-91439925D03*
D18*
X235893585Y-94851879D03*
D21*
X232485974Y-102162704D03*
X227081756Y-101710572D03*
G04 #@! TD*
D18*
G04 #@! TO.C,SW32*
X207015063Y-99818965D03*
D19*
X210407223Y-92460586D03*
D20*
X212245874Y-98119372D03*
D19*
X215842343Y-93007825D03*
D18*
X217476685Y-96419779D03*
D21*
X214069074Y-103730604D03*
X208664856Y-103278472D03*
G04 #@! TD*
D18*
G04 #@! TO.C,SW28*
X191193963Y-109375665D03*
D19*
X194586123Y-102017286D03*
D20*
X196424774Y-107676072D03*
D19*
X200021243Y-102564525D03*
D18*
X201655585Y-105976479D03*
D21*
X198247974Y-113287304D03*
X192843756Y-112835172D03*
G04 #@! TD*
D18*
G04 #@! TO.C,SW24*
X175372863Y-118932465D03*
D19*
X178765023Y-111574086D03*
D20*
X180603674Y-117232872D03*
D19*
X184200143Y-112121325D03*
D18*
X185834485Y-115533279D03*
D21*
X182426874Y-122844104D03*
X177022656Y-122391972D03*
G04 #@! TD*
D18*
G04 #@! TO.C,SW20*
X110986063Y-115533279D03*
D19*
X118055525Y-111574086D03*
D20*
X116216874Y-117232872D03*
D19*
X122130970Y-115211495D03*
D18*
X121447685Y-118932465D03*
D21*
X114393674Y-122844104D03*
X110287327Y-119301802D03*
G04 #@! TD*
D18*
G04 #@! TO.C,SW16*
X95164863Y-105976479D03*
D19*
X102234325Y-102017286D03*
D20*
X100395674Y-107676072D03*
D19*
X106309770Y-105654695D03*
D18*
X105626485Y-109375665D03*
D21*
X98572474Y-113287304D03*
X94466127Y-109745002D03*
G04 #@! TD*
D18*
G04 #@! TO.C,SW12*
X79343763Y-96419779D03*
D19*
X86413225Y-92460586D03*
D20*
X84574574Y-98119372D03*
D19*
X90488670Y-96097995D03*
D18*
X89805385Y-99818965D03*
D21*
X82751374Y-103730604D03*
X78645027Y-100188302D03*
G04 #@! TD*
D18*
G04 #@! TO.C,SW9*
X60926863Y-94851879D03*
D19*
X67996325Y-90892686D03*
D20*
X66157674Y-96551472D03*
D19*
X72071770Y-94530095D03*
D18*
X71388485Y-98251065D03*
D21*
X64334474Y-102162704D03*
X60228127Y-98620402D03*
G04 #@! TD*
D18*
G04 #@! TO.C,SW6*
X42509963Y-93283979D03*
D19*
X49579425Y-89324786D03*
D20*
X47740774Y-94983572D03*
D19*
X53654870Y-92962195D03*
D18*
X52971585Y-96683165D03*
D21*
X45917574Y-100594804D03*
X41811227Y-97052502D03*
G04 #@! TD*
D18*
G04 #@! TO.C,SW3*
X24093063Y-91716179D03*
D19*
X31162525Y-87756986D03*
D20*
X29323874Y-93415772D03*
D19*
X35237970Y-91394395D03*
D18*
X34554685Y-95115365D03*
D21*
X27500674Y-99027004D03*
X23394327Y-95484702D03*
G04 #@! TD*
D18*
G04 #@! TO.C,SW33*
X212268363Y-115986865D03*
D19*
X215660523Y-108628486D03*
D20*
X217499174Y-114287272D03*
D19*
X221095643Y-109175725D03*
D18*
X222729985Y-112587679D03*
D21*
X219322374Y-119898504D03*
X213918156Y-119446372D03*
G04 #@! TD*
D18*
G04 #@! TO.C,SW29*
X196447263Y-125543665D03*
D19*
X199839423Y-118185286D03*
D20*
X201678074Y-123844072D03*
D19*
X205274543Y-118732525D03*
D18*
X206908885Y-122144479D03*
D21*
X203501274Y-129455304D03*
X198097056Y-129003172D03*
G04 #@! TD*
D18*
G04 #@! TO.C,SW21*
X110012563Y-133091779D03*
D19*
X117082025Y-129132586D03*
D20*
X115243374Y-134791372D03*
D19*
X121157470Y-132769995D03*
D18*
X120474185Y-136490965D03*
D21*
X113420174Y-140402604D03*
X109313827Y-136860302D03*
G04 #@! TD*
D18*
G04 #@! TO.C,SW17*
X89911663Y-122144479D03*
D19*
X96981125Y-118185286D03*
D20*
X95142474Y-123844072D03*
D19*
X101056570Y-121822695D03*
D18*
X100373285Y-125543665D03*
D21*
X93319274Y-129455304D03*
X89212927Y-125913002D03*
G04 #@! TD*
D18*
G04 #@! TO.C,SW25*
X176346363Y-136490965D03*
D19*
X179738523Y-129132586D03*
D20*
X181577174Y-134791372D03*
D19*
X185173643Y-129679825D03*
D18*
X186807985Y-133091779D03*
D21*
X183400374Y-140402604D03*
X177996156Y-139950472D03*
G04 #@! TD*
D18*
G04 #@! TO.C,SW13*
X74090463Y-112587679D03*
D19*
X81159925Y-108628486D03*
D20*
X79321274Y-114287272D03*
D19*
X85235370Y-112265895D03*
D18*
X84552085Y-115986865D03*
D21*
X77498074Y-119898504D03*
X73391727Y-116356202D03*
G04 #@! TD*
D22*
G04 #@! TO.C,SW43*
X166215469Y-55377832D03*
X162215469Y-55377832D03*
X164215469Y-55377832D03*
D23*
X168365469Y-55377832D03*
X160065469Y-55377832D03*
G04 #@! TD*
D24*
G04 #@! TO.C,H_M2_7*
X148894174Y-137724072D03*
G04 #@! TD*
G04 #@! TO.C,H_M2_4*
X164215469Y-63377832D03*
G04 #@! TD*
G04 #@! TO.C,H_M2_3*
X132715469Y-63377832D03*
G04 #@! TD*
G04 #@! TO.C,H_M2_5*
X210715469Y-55377832D03*
G04 #@! TD*
G04 #@! TO.C,H_M2_1*
X86215469Y-55377832D03*
G04 #@! TD*
D25*
G04 #@! TO.C,SW_RST1*
X133312848Y-54517753D03*
X131112848Y-54517753D03*
D26*
X134312848Y-56117753D03*
X130112848Y-56117753D03*
D27*
X135912848Y-53617753D03*
X128512848Y-53617753D03*
G04 #@! TD*
D24*
G04 #@! TO.C,H_M2_2*
X56894174Y-109877832D03*
G04 #@! TD*
G04 #@! TO.C,H_M2_6*
X240215469Y-109877832D03*
G04 #@! TD*
%LPD*%
M02*
