%TF.GenerationSoftware,KiCad,Pcbnew,8.0.4*%
%TF.CreationDate,2024-09-01T13:46:44+07:00*%
%TF.ProjectId,ozprey,6f7a7072-6579-42e6-9b69-6361645f7063,1.0*%
%TF.SameCoordinates,Original*%
%TF.FileFunction,Drillmap*%
%TF.FilePolarity,Positive*%
%FSLAX45Y45*%
G04 Gerber Fmt 4.5, Leading zero omitted, Abs format (unit mm)*
G04 Created by KiCad (PCBNEW 8.0.4) date 2024-09-01 13:46:44*
%MOMM*%
%LPD*%
G01*
G04 APERTURE LIST*
%ADD10C,0.100000*%
%ADD11C,0.200000*%
%ADD12C,0.140000*%
G04 APERTURE END LIST*
D10*
X10135061Y-13955196D02*
G75*
G02*
X7772580Y-12733072I12267223J26608196D01*
G01*
X3175623Y-5021967D02*
X1616009Y-9822338D01*
X3175623Y-5021967D02*
G75*
G02*
X3382801Y-4884486I190207J-61789D01*
G01*
X21786510Y-12733071D02*
G75*
G02*
X19424031Y-13955196I-14629986J25386601D01*
G01*
X1744420Y-10074350D02*
X1930327Y-10134752D01*
X27943082Y-9822339D02*
X26383468Y-5021967D01*
X1930327Y-10134752D02*
G75*
G02*
X7772581Y-12733071I-9486547J-29197495D01*
G01*
X21786510Y-12733071D02*
G75*
G02*
X27628764Y-10134752I15328794J-26599159D01*
G01*
X12351273Y-5282085D02*
X3382801Y-4884486D01*
X14028776Y-14809547D02*
G75*
G02*
X10135061Y-13955195I-2J9299987D01*
G01*
X19424031Y-13955195D02*
G75*
G02*
X15530315Y-14809546I-3893707J8445615D01*
G01*
X12351273Y-5282085D02*
X17207140Y-5282085D01*
X26176290Y-4884487D02*
G75*
G02*
X26383469Y-5021966I16964J-199283D01*
G01*
X26176290Y-4884487D02*
X17207140Y-5282085D01*
X27628764Y-10134752D02*
X27814671Y-10074349D01*
X1744420Y-10074350D02*
G75*
G02*
X1616007Y-9822338I61814J190220D01*
G01*
X14028776Y-14809547D02*
X15530315Y-14809547D01*
X27943082Y-9822339D02*
G75*
G02*
X27814673Y-10074355I-190218J-61801D01*
G01*
D11*
D10*
X3474411Y-10194860D02*
X3514411Y-10234860D01*
X3514411Y-10194860D02*
X3474411Y-10234860D01*
X3579477Y-9871500D02*
X3619477Y-9911500D01*
X3619477Y-9871500D02*
X3579477Y-9911500D01*
X3999741Y-8578070D02*
X4039741Y-8618070D01*
X4039741Y-8578070D02*
X3999741Y-8618070D01*
X4104807Y-8254710D02*
X4144807Y-8294710D01*
X4144807Y-8254710D02*
X4104807Y-8294710D01*
X4525021Y-6961260D02*
X4565021Y-7001260D01*
X4565021Y-6961260D02*
X4525021Y-7001260D01*
X4630087Y-6637900D02*
X4670087Y-6677900D01*
X4670087Y-6637900D02*
X4630087Y-6677900D01*
X5316101Y-10351650D02*
X5356101Y-10391650D01*
X5356101Y-10351650D02*
X5316101Y-10391650D01*
X5421167Y-10028290D02*
X5461167Y-10068290D01*
X5461167Y-10028290D02*
X5421167Y-10068290D01*
X5841331Y-8734820D02*
X5881331Y-8774820D01*
X5881331Y-8734820D02*
X5841331Y-8774820D01*
X5946397Y-8411460D02*
X5986397Y-8451460D01*
X5986397Y-8411460D02*
X5946397Y-8451460D01*
X6366761Y-7118060D02*
X6406761Y-7158060D01*
X6406761Y-7118060D02*
X6366761Y-7158060D01*
X6471827Y-6794700D02*
X6511827Y-6834700D01*
X6511827Y-6794700D02*
X6471827Y-6834700D01*
X7157791Y-10508440D02*
X7197791Y-10548440D01*
X7197791Y-10508440D02*
X7157791Y-10548440D01*
X7262857Y-10185080D02*
X7302857Y-10225080D01*
X7302857Y-10185080D02*
X7262857Y-10225080D01*
X7683121Y-8891640D02*
X7723121Y-8931640D01*
X7723121Y-8891640D02*
X7683121Y-8931640D01*
X7788187Y-8568280D02*
X7828187Y-8608280D01*
X7828187Y-8568280D02*
X7788187Y-8608280D01*
X8208451Y-7274840D02*
X8248451Y-7314840D01*
X8248451Y-7274840D02*
X8208451Y-7314840D01*
X8313517Y-6951480D02*
X8353517Y-6991480D01*
X8353517Y-6951480D02*
X8313517Y-6991480D01*
X8474151Y-12282020D02*
X8514151Y-12322020D01*
X8514151Y-12282020D02*
X8474151Y-12322020D01*
X8579217Y-11958660D02*
X8619217Y-11998660D01*
X8619217Y-11958660D02*
X8579217Y-11998660D01*
X8999481Y-10665220D02*
X9039481Y-10705220D01*
X9039481Y-10665220D02*
X8999481Y-10705220D01*
X9104547Y-10341860D02*
X9144547Y-10381860D01*
X9144547Y-10341860D02*
X9104547Y-10381860D01*
X9524811Y-9048430D02*
X9564811Y-9088430D01*
X9564811Y-9048430D02*
X9524811Y-9088430D01*
X9629877Y-8725070D02*
X9669877Y-8765070D01*
X9669877Y-8725070D02*
X9629877Y-8765070D01*
X10050131Y-7431630D02*
X10090131Y-7471630D01*
X10090131Y-7431630D02*
X10050131Y-7471630D01*
X10056261Y-13237690D02*
X10096261Y-13277690D01*
X10096261Y-13237690D02*
X10056261Y-13277690D01*
X10155197Y-7108270D02*
X10195197Y-7148270D01*
X10195197Y-7108270D02*
X10155197Y-7148270D01*
X10161327Y-12914330D02*
X10201327Y-12954330D01*
X10201327Y-12914330D02*
X10161327Y-12954330D01*
X10581591Y-11620900D02*
X10621591Y-11660900D01*
X10621591Y-11620900D02*
X10581591Y-11660900D01*
X10686657Y-11297540D02*
X10726657Y-11337540D01*
X10726657Y-11297540D02*
X10686657Y-11337540D01*
X11106921Y-10004100D02*
X11146921Y-10044100D01*
X11146921Y-10004100D02*
X11106921Y-10044100D01*
X11211987Y-9680740D02*
X11251987Y-9720740D01*
X11251987Y-9680740D02*
X11211987Y-9720740D01*
X11632251Y-8387300D02*
X11672251Y-8427300D01*
X11672251Y-8387300D02*
X11632251Y-8427300D01*
X11737317Y-8063940D02*
X11777317Y-8103940D01*
X11777317Y-8063940D02*
X11737317Y-8103940D01*
X12066351Y-14332420D02*
X12106351Y-14372420D01*
X12106351Y-14332420D02*
X12066351Y-14372420D01*
X12163711Y-12576570D02*
X12203711Y-12616570D01*
X12203711Y-12576570D02*
X12163711Y-12616570D01*
X12171417Y-14009060D02*
X12211417Y-14049060D01*
X12211417Y-14009060D02*
X12171417Y-14049060D01*
X12268777Y-12253210D02*
X12308777Y-12293210D01*
X12308777Y-12253210D02*
X12268777Y-12293210D01*
X12689031Y-10959780D02*
X12729031Y-10999780D01*
X12729031Y-10959780D02*
X12689031Y-10999780D01*
X12794097Y-10636420D02*
X12834097Y-10676420D01*
X12834097Y-10636420D02*
X12794097Y-10676420D01*
X13214361Y-9342980D02*
X13254361Y-9382980D01*
X13254361Y-9342980D02*
X13214361Y-9382980D01*
X13319427Y-9019620D02*
X13359427Y-9059620D01*
X13359427Y-9019620D02*
X13319427Y-9059620D01*
X17837581Y-8484220D02*
X17877581Y-8524220D01*
X17877581Y-8484220D02*
X17837581Y-8524220D01*
X17942647Y-8807580D02*
X17982647Y-8847580D01*
X17982647Y-8807580D02*
X17942647Y-8847580D01*
X18362911Y-10101020D02*
X18402911Y-10141020D01*
X18402911Y-10101020D02*
X18362911Y-10141020D01*
X18467977Y-10424380D02*
X18507977Y-10464380D01*
X18507977Y-10424380D02*
X18467977Y-10464380D01*
X18888241Y-11717810D02*
X18928241Y-11757810D01*
X18928241Y-11717810D02*
X18888241Y-11757810D01*
X18987541Y-13486100D02*
X19027541Y-13526100D01*
X19027541Y-13486100D02*
X18987541Y-13526100D01*
X18993307Y-12041170D02*
X19033307Y-12081170D01*
X19033307Y-12041170D02*
X18993307Y-12081170D01*
X19092607Y-13809460D02*
X19132607Y-13849460D01*
X19132607Y-13809460D02*
X19092607Y-13849460D01*
X19419701Y-7528550D02*
X19459701Y-7568550D01*
X19459701Y-7528550D02*
X19419701Y-7568550D01*
X19524767Y-7851910D02*
X19564767Y-7891910D01*
X19564767Y-7851910D02*
X19524767Y-7891910D01*
X19945031Y-9145340D02*
X19985031Y-9185340D01*
X19985031Y-9145340D02*
X19945031Y-9185340D01*
X20050097Y-9468700D02*
X20090097Y-9508700D01*
X20090097Y-9468700D02*
X20050097Y-9508700D01*
X20470351Y-10762140D02*
X20510351Y-10802140D01*
X20510351Y-10762140D02*
X20470351Y-10802140D01*
X20575417Y-11085500D02*
X20615417Y-11125500D01*
X20615417Y-11085500D02*
X20575417Y-11125500D01*
X20995681Y-12378930D02*
X21035681Y-12418930D01*
X21035681Y-12378930D02*
X20995681Y-12418930D01*
X21001811Y-6572870D02*
X21041811Y-6612870D01*
X21041811Y-6572870D02*
X21001811Y-6612870D01*
X21100747Y-12702290D02*
X21140747Y-12742290D01*
X21140747Y-12702290D02*
X21100747Y-12742290D01*
X21106877Y-6896230D02*
X21146877Y-6936230D01*
X21146877Y-6896230D02*
X21106877Y-6936230D01*
X21527141Y-8189670D02*
X21567141Y-8229670D01*
X21567141Y-8189670D02*
X21527141Y-8229670D01*
X21632207Y-8513030D02*
X21672207Y-8553030D01*
X21672207Y-8513030D02*
X21632207Y-8553030D01*
X22052471Y-9806460D02*
X22092471Y-9846460D01*
X22092471Y-9806460D02*
X22052471Y-9846460D01*
X22157537Y-10129820D02*
X22197537Y-10169820D01*
X22197537Y-10129820D02*
X22157537Y-10169820D01*
X22577801Y-11423260D02*
X22617801Y-11463260D01*
X22617801Y-11423260D02*
X22577801Y-11463260D01*
X22682867Y-11746620D02*
X22722867Y-11786620D01*
X22722867Y-11746620D02*
X22682867Y-11786620D01*
X22843501Y-6416080D02*
X22883501Y-6456080D01*
X22883501Y-6416080D02*
X22843501Y-6456080D01*
X22948567Y-6739440D02*
X22988567Y-6779440D01*
X22988567Y-6739440D02*
X22948567Y-6779440D01*
X23368831Y-8032880D02*
X23408831Y-8072880D01*
X23408831Y-8032880D02*
X23368831Y-8072880D01*
X23473897Y-8356240D02*
X23513897Y-8396240D01*
X23513897Y-8356240D02*
X23473897Y-8396240D01*
X23894161Y-9649680D02*
X23934161Y-9689680D01*
X23934161Y-9649680D02*
X23894161Y-9689680D01*
X23999227Y-9973040D02*
X24039227Y-10013040D01*
X24039227Y-9973040D02*
X23999227Y-10013040D01*
X24685191Y-6259300D02*
X24725191Y-6299300D01*
X24725191Y-6259300D02*
X24685191Y-6299300D01*
X24790257Y-6582660D02*
X24830257Y-6622660D01*
X24830257Y-6582660D02*
X24790257Y-6622660D01*
X25210521Y-7876090D02*
X25250521Y-7916090D01*
X25250521Y-7876090D02*
X25210521Y-7916090D01*
X25315587Y-8199450D02*
X25355587Y-8239450D01*
X25355587Y-8199450D02*
X25315587Y-8239450D01*
X25735851Y-9492890D02*
X25775851Y-9532890D01*
X25775851Y-9492890D02*
X25735851Y-9532890D01*
X25840917Y-9816250D02*
X25880917Y-9856250D01*
X25880917Y-9816250D02*
X25840917Y-9856250D01*
X26526881Y-6102510D02*
X26566881Y-6142510D01*
X26566881Y-6102510D02*
X26526881Y-6142510D01*
X26631947Y-6425870D02*
X26671947Y-6465870D01*
X26671947Y-6425870D02*
X26631947Y-6465870D01*
X27052211Y-7719310D02*
X27092211Y-7759310D01*
X27092211Y-7719310D02*
X27052211Y-7759310D01*
X27157277Y-8042670D02*
X27197277Y-8082670D01*
X27197277Y-8042670D02*
X27157277Y-8082670D01*
X27577541Y-9336100D02*
X27617541Y-9376100D01*
X27617541Y-9336100D02*
X27577541Y-9376100D01*
X27682607Y-9659460D02*
X27722607Y-9699460D01*
X27722607Y-9659460D02*
X27682607Y-9699460D01*
X17490071Y-12557783D02*
G75*
G02*
X17440071Y-12557783I-25000J0D01*
G01*
X17440071Y-12557783D02*
G75*
G02*
X17490071Y-12557783I25000J0D01*
G01*
X13040071Y-5497783D02*
X13040071Y-5577783D01*
X13000071Y-5537783D02*
X13080071Y-5537783D01*
X13240071Y-5497783D02*
X13240071Y-5577783D01*
X13200071Y-5537783D02*
X13280071Y-5537783D01*
X13440071Y-5497783D02*
X13440071Y-5577783D01*
X13400071Y-5537783D02*
X13480071Y-5537783D01*
X13478426Y-6003139D02*
X13478426Y-5932427D01*
X13407715Y-5932427D01*
X13407715Y-6003139D01*
X13478426Y-6003139D01*
X13732426Y-6003139D02*
X13732426Y-5932427D01*
X13661715Y-5932427D01*
X13661715Y-6003139D01*
X13732426Y-6003139D01*
X14061989Y-6002326D02*
X14061989Y-5931614D01*
X13991278Y-5931614D01*
X13991278Y-6002326D01*
X14061989Y-6002326D01*
X14061989Y-6256326D02*
X14061989Y-6185614D01*
X13991278Y-6185614D01*
X13991278Y-6256326D01*
X14061989Y-6256326D01*
X14061989Y-6510326D02*
X14061989Y-6439614D01*
X13991278Y-6439614D01*
X13991278Y-6510326D01*
X14061989Y-6510326D01*
X14061989Y-6764326D02*
X14061989Y-6693614D01*
X13991278Y-6693614D01*
X13991278Y-6764326D01*
X14061989Y-6764326D01*
X14061989Y-7018326D02*
X14061989Y-6947614D01*
X13991278Y-6947614D01*
X13991278Y-7018326D01*
X14061989Y-7018326D01*
X14061989Y-7272326D02*
X14061989Y-7201614D01*
X13991278Y-7201614D01*
X13991278Y-7272326D01*
X14061989Y-7272326D01*
X14061989Y-7526326D02*
X14061989Y-7455614D01*
X13991278Y-7455614D01*
X13991278Y-7526326D01*
X14061989Y-7526326D01*
X14061989Y-7780326D02*
X14061989Y-7709614D01*
X13991278Y-7709614D01*
X13991278Y-7780326D01*
X14061989Y-7780326D01*
X14061989Y-8034326D02*
X14061989Y-7963614D01*
X13991278Y-7963614D01*
X13991278Y-8034326D01*
X14061989Y-8034326D01*
X14061989Y-8288326D02*
X14061989Y-8217614D01*
X13991278Y-8217614D01*
X13991278Y-8288326D01*
X14061989Y-8288326D01*
X14061989Y-8542326D02*
X14061989Y-8471614D01*
X13991278Y-8471614D01*
X13991278Y-8542326D01*
X14061989Y-8542326D01*
X14063989Y-5745326D02*
X14063989Y-5674614D01*
X13993278Y-5674614D01*
X13993278Y-5745326D01*
X14063989Y-5745326D01*
X15585989Y-5748326D02*
X15585989Y-5677614D01*
X15515278Y-5677614D01*
X15515278Y-5748326D01*
X15585989Y-5748326D01*
X15585989Y-6002326D02*
X15585989Y-5931614D01*
X15515278Y-5931614D01*
X15515278Y-6002326D01*
X15585989Y-6002326D01*
X15585989Y-6256326D02*
X15585989Y-6185614D01*
X15515278Y-6185614D01*
X15515278Y-6256326D01*
X15585989Y-6256326D01*
X15585989Y-6510326D02*
X15585989Y-6439614D01*
X15515278Y-6439614D01*
X15515278Y-6510326D01*
X15585989Y-6510326D01*
X15585989Y-6764326D02*
X15585989Y-6693614D01*
X15515278Y-6693614D01*
X15515278Y-6764326D01*
X15585989Y-6764326D01*
X15585989Y-7018326D02*
X15585989Y-6947614D01*
X15515278Y-6947614D01*
X15515278Y-7018326D01*
X15585989Y-7018326D01*
X15585989Y-7272326D02*
X15585989Y-7201614D01*
X15515278Y-7201614D01*
X15515278Y-7272326D01*
X15585989Y-7272326D01*
X15585989Y-7526326D02*
X15585989Y-7455614D01*
X15515278Y-7455614D01*
X15515278Y-7526326D01*
X15585989Y-7526326D01*
X15585989Y-7780326D02*
X15585989Y-7709614D01*
X15515278Y-7709614D01*
X15515278Y-7780326D01*
X15585989Y-7780326D01*
X15585989Y-8034326D02*
X15585989Y-7963614D01*
X15515278Y-7963614D01*
X15515278Y-8034326D01*
X15585989Y-8034326D01*
X15585989Y-8288326D02*
X15585989Y-8217614D01*
X15515278Y-8217614D01*
X15515278Y-8288326D01*
X15585989Y-8288326D01*
X15585989Y-8542326D02*
X15585989Y-8471614D01*
X15515278Y-8471614D01*
X15515278Y-8542326D01*
X15585989Y-8542326D01*
D12*
X12825071Y-5607783D02*
X12895071Y-5537783D01*
X12825071Y-5467783D01*
X12755071Y-5537783D01*
X12825071Y-5607783D01*
X13655071Y-5607783D02*
X13725071Y-5537783D01*
X13655071Y-5467783D01*
X13585071Y-5537783D01*
X13655071Y-5607783D01*
D11*
X1861999Y-15126031D02*
X1861999Y-14926031D01*
X1861999Y-14926031D02*
X1909618Y-14926031D01*
X1909618Y-14926031D02*
X1938190Y-14935555D01*
X1938190Y-14935555D02*
X1957238Y-14954602D01*
X1957238Y-14954602D02*
X1966761Y-14973650D01*
X1966761Y-14973650D02*
X1976285Y-15011745D01*
X1976285Y-15011745D02*
X1976285Y-15040317D01*
X1976285Y-15040317D02*
X1966761Y-15078412D01*
X1966761Y-15078412D02*
X1957238Y-15097459D01*
X1957238Y-15097459D02*
X1938190Y-15116507D01*
X1938190Y-15116507D02*
X1909618Y-15126031D01*
X1909618Y-15126031D02*
X1861999Y-15126031D01*
X2061999Y-15126031D02*
X2061999Y-14992698D01*
X2061999Y-15030793D02*
X2071523Y-15011745D01*
X2071523Y-15011745D02*
X2081047Y-15002221D01*
X2081047Y-15002221D02*
X2100095Y-14992698D01*
X2100095Y-14992698D02*
X2119142Y-14992698D01*
X2185809Y-15126031D02*
X2185809Y-14992698D01*
X2185809Y-14926031D02*
X2176285Y-14935555D01*
X2176285Y-14935555D02*
X2185809Y-14945079D01*
X2185809Y-14945079D02*
X2195333Y-14935555D01*
X2195333Y-14935555D02*
X2185809Y-14926031D01*
X2185809Y-14926031D02*
X2185809Y-14945079D01*
X2309619Y-15126031D02*
X2290571Y-15116507D01*
X2290571Y-15116507D02*
X2281047Y-15097459D01*
X2281047Y-15097459D02*
X2281047Y-14926031D01*
X2414380Y-15126031D02*
X2395333Y-15116507D01*
X2395333Y-15116507D02*
X2385809Y-15097459D01*
X2385809Y-15097459D02*
X2385809Y-14926031D01*
X2642952Y-15126031D02*
X2642952Y-14926031D01*
X2642952Y-14926031D02*
X2709619Y-15068888D01*
X2709619Y-15068888D02*
X2776285Y-14926031D01*
X2776285Y-14926031D02*
X2776285Y-15126031D01*
X2957238Y-15126031D02*
X2957238Y-15021269D01*
X2957238Y-15021269D02*
X2947714Y-15002221D01*
X2947714Y-15002221D02*
X2928666Y-14992698D01*
X2928666Y-14992698D02*
X2890571Y-14992698D01*
X2890571Y-14992698D02*
X2871523Y-15002221D01*
X2957238Y-15116507D02*
X2938190Y-15126031D01*
X2938190Y-15126031D02*
X2890571Y-15126031D01*
X2890571Y-15126031D02*
X2871523Y-15116507D01*
X2871523Y-15116507D02*
X2861999Y-15097459D01*
X2861999Y-15097459D02*
X2861999Y-15078412D01*
X2861999Y-15078412D02*
X2871523Y-15059364D01*
X2871523Y-15059364D02*
X2890571Y-15049840D01*
X2890571Y-15049840D02*
X2938190Y-15049840D01*
X2938190Y-15049840D02*
X2957238Y-15040317D01*
X3052476Y-14992698D02*
X3052476Y-15192698D01*
X3052476Y-15002221D02*
X3071523Y-14992698D01*
X3071523Y-14992698D02*
X3109619Y-14992698D01*
X3109619Y-14992698D02*
X3128666Y-15002221D01*
X3128666Y-15002221D02*
X3138190Y-15011745D01*
X3138190Y-15011745D02*
X3147714Y-15030793D01*
X3147714Y-15030793D02*
X3147714Y-15087936D01*
X3147714Y-15087936D02*
X3138190Y-15106983D01*
X3138190Y-15106983D02*
X3128666Y-15116507D01*
X3128666Y-15116507D02*
X3109619Y-15126031D01*
X3109619Y-15126031D02*
X3071523Y-15126031D01*
X3071523Y-15126031D02*
X3052476Y-15116507D01*
X3233428Y-15106983D02*
X3242952Y-15116507D01*
X3242952Y-15116507D02*
X3233428Y-15126031D01*
X3233428Y-15126031D02*
X3223904Y-15116507D01*
X3223904Y-15116507D02*
X3233428Y-15106983D01*
X3233428Y-15106983D02*
X3233428Y-15126031D01*
X3233428Y-15002221D02*
X3242952Y-15011745D01*
X3242952Y-15011745D02*
X3233428Y-15021269D01*
X3233428Y-15021269D02*
X3223904Y-15011745D01*
X3223904Y-15011745D02*
X3233428Y-15002221D01*
X3233428Y-15002221D02*
X3233428Y-15021269D01*
D10*
X1561223Y-15434547D02*
X1601223Y-15474547D01*
X1601223Y-15434547D02*
X1561223Y-15474547D01*
D11*
X1900095Y-15346031D02*
X1919142Y-15346031D01*
X1919142Y-15346031D02*
X1938190Y-15355555D01*
X1938190Y-15355555D02*
X1947714Y-15365079D01*
X1947714Y-15365079D02*
X1957238Y-15384126D01*
X1957238Y-15384126D02*
X1966761Y-15422221D01*
X1966761Y-15422221D02*
X1966761Y-15469840D01*
X1966761Y-15469840D02*
X1957238Y-15507936D01*
X1957238Y-15507936D02*
X1947714Y-15526983D01*
X1947714Y-15526983D02*
X1938190Y-15536507D01*
X1938190Y-15536507D02*
X1919142Y-15546031D01*
X1919142Y-15546031D02*
X1900095Y-15546031D01*
X1900095Y-15546031D02*
X1881047Y-15536507D01*
X1881047Y-15536507D02*
X1871523Y-15526983D01*
X1871523Y-15526983D02*
X1861999Y-15507936D01*
X1861999Y-15507936D02*
X1852476Y-15469840D01*
X1852476Y-15469840D02*
X1852476Y-15422221D01*
X1852476Y-15422221D02*
X1861999Y-15384126D01*
X1861999Y-15384126D02*
X1871523Y-15365079D01*
X1871523Y-15365079D02*
X1881047Y-15355555D01*
X1881047Y-15355555D02*
X1900095Y-15346031D01*
X2052476Y-15526983D02*
X2061999Y-15536507D01*
X2061999Y-15536507D02*
X2052476Y-15546031D01*
X2052476Y-15546031D02*
X2042952Y-15536507D01*
X2042952Y-15536507D02*
X2052476Y-15526983D01*
X2052476Y-15526983D02*
X2052476Y-15546031D01*
X2233428Y-15412698D02*
X2233428Y-15546031D01*
X2185809Y-15336507D02*
X2138190Y-15479364D01*
X2138190Y-15479364D02*
X2262000Y-15479364D01*
X2376285Y-15346031D02*
X2395333Y-15346031D01*
X2395333Y-15346031D02*
X2414381Y-15355555D01*
X2414381Y-15355555D02*
X2423904Y-15365079D01*
X2423904Y-15365079D02*
X2433428Y-15384126D01*
X2433428Y-15384126D02*
X2442952Y-15422221D01*
X2442952Y-15422221D02*
X2442952Y-15469840D01*
X2442952Y-15469840D02*
X2433428Y-15507936D01*
X2433428Y-15507936D02*
X2423904Y-15526983D01*
X2423904Y-15526983D02*
X2414381Y-15536507D01*
X2414381Y-15536507D02*
X2395333Y-15546031D01*
X2395333Y-15546031D02*
X2376285Y-15546031D01*
X2376285Y-15546031D02*
X2357238Y-15536507D01*
X2357238Y-15536507D02*
X2347714Y-15526983D01*
X2347714Y-15526983D02*
X2338190Y-15507936D01*
X2338190Y-15507936D02*
X2328666Y-15469840D01*
X2328666Y-15469840D02*
X2328666Y-15422221D01*
X2328666Y-15422221D02*
X2338190Y-15384126D01*
X2338190Y-15384126D02*
X2347714Y-15365079D01*
X2347714Y-15365079D02*
X2357238Y-15355555D01*
X2357238Y-15355555D02*
X2376285Y-15346031D01*
X2566761Y-15346031D02*
X2585809Y-15346031D01*
X2585809Y-15346031D02*
X2604857Y-15355555D01*
X2604857Y-15355555D02*
X2614381Y-15365079D01*
X2614381Y-15365079D02*
X2623904Y-15384126D01*
X2623904Y-15384126D02*
X2633428Y-15422221D01*
X2633428Y-15422221D02*
X2633428Y-15469840D01*
X2633428Y-15469840D02*
X2623904Y-15507936D01*
X2623904Y-15507936D02*
X2614381Y-15526983D01*
X2614381Y-15526983D02*
X2604857Y-15536507D01*
X2604857Y-15536507D02*
X2585809Y-15546031D01*
X2585809Y-15546031D02*
X2566761Y-15546031D01*
X2566761Y-15546031D02*
X2547714Y-15536507D01*
X2547714Y-15536507D02*
X2538190Y-15526983D01*
X2538190Y-15526983D02*
X2528666Y-15507936D01*
X2528666Y-15507936D02*
X2519142Y-15469840D01*
X2519142Y-15469840D02*
X2519142Y-15422221D01*
X2519142Y-15422221D02*
X2528666Y-15384126D01*
X2528666Y-15384126D02*
X2538190Y-15365079D01*
X2538190Y-15365079D02*
X2547714Y-15355555D01*
X2547714Y-15355555D02*
X2566761Y-15346031D01*
X2719142Y-15546031D02*
X2719142Y-15412698D01*
X2719142Y-15431745D02*
X2728666Y-15422221D01*
X2728666Y-15422221D02*
X2747714Y-15412698D01*
X2747714Y-15412698D02*
X2776285Y-15412698D01*
X2776285Y-15412698D02*
X2795333Y-15422221D01*
X2795333Y-15422221D02*
X2804857Y-15441269D01*
X2804857Y-15441269D02*
X2804857Y-15546031D01*
X2804857Y-15441269D02*
X2814380Y-15422221D01*
X2814380Y-15422221D02*
X2833428Y-15412698D01*
X2833428Y-15412698D02*
X2861999Y-15412698D01*
X2861999Y-15412698D02*
X2881047Y-15422221D01*
X2881047Y-15422221D02*
X2890571Y-15441269D01*
X2890571Y-15441269D02*
X2890571Y-15546031D01*
X2985809Y-15546031D02*
X2985809Y-15412698D01*
X2985809Y-15431745D02*
X2995333Y-15422221D01*
X2995333Y-15422221D02*
X3014380Y-15412698D01*
X3014380Y-15412698D02*
X3042952Y-15412698D01*
X3042952Y-15412698D02*
X3062000Y-15422221D01*
X3062000Y-15422221D02*
X3071523Y-15441269D01*
X3071523Y-15441269D02*
X3071523Y-15546031D01*
X3071523Y-15441269D02*
X3081047Y-15422221D01*
X3081047Y-15422221D02*
X3100095Y-15412698D01*
X3100095Y-15412698D02*
X3128666Y-15412698D01*
X3128666Y-15412698D02*
X3147714Y-15422221D01*
X3147714Y-15422221D02*
X3157238Y-15441269D01*
X3157238Y-15441269D02*
X3157238Y-15546031D01*
X3547714Y-15336507D02*
X3376285Y-15593650D01*
X3804857Y-15346031D02*
X3823904Y-15346031D01*
X3823904Y-15346031D02*
X3842952Y-15355555D01*
X3842952Y-15355555D02*
X3852476Y-15365079D01*
X3852476Y-15365079D02*
X3862000Y-15384126D01*
X3862000Y-15384126D02*
X3871523Y-15422221D01*
X3871523Y-15422221D02*
X3871523Y-15469840D01*
X3871523Y-15469840D02*
X3862000Y-15507936D01*
X3862000Y-15507936D02*
X3852476Y-15526983D01*
X3852476Y-15526983D02*
X3842952Y-15536507D01*
X3842952Y-15536507D02*
X3823904Y-15546031D01*
X3823904Y-15546031D02*
X3804857Y-15546031D01*
X3804857Y-15546031D02*
X3785809Y-15536507D01*
X3785809Y-15536507D02*
X3776285Y-15526983D01*
X3776285Y-15526983D02*
X3766762Y-15507936D01*
X3766762Y-15507936D02*
X3757238Y-15469840D01*
X3757238Y-15469840D02*
X3757238Y-15422221D01*
X3757238Y-15422221D02*
X3766762Y-15384126D01*
X3766762Y-15384126D02*
X3776285Y-15365079D01*
X3776285Y-15365079D02*
X3785809Y-15355555D01*
X3785809Y-15355555D02*
X3804857Y-15346031D01*
X3957238Y-15526983D02*
X3966762Y-15536507D01*
X3966762Y-15536507D02*
X3957238Y-15546031D01*
X3957238Y-15546031D02*
X3947714Y-15536507D01*
X3947714Y-15536507D02*
X3957238Y-15526983D01*
X3957238Y-15526983D02*
X3957238Y-15546031D01*
X4090571Y-15346031D02*
X4109619Y-15346031D01*
X4109619Y-15346031D02*
X4128666Y-15355555D01*
X4128666Y-15355555D02*
X4138190Y-15365079D01*
X4138190Y-15365079D02*
X4147714Y-15384126D01*
X4147714Y-15384126D02*
X4157238Y-15422221D01*
X4157238Y-15422221D02*
X4157238Y-15469840D01*
X4157238Y-15469840D02*
X4147714Y-15507936D01*
X4147714Y-15507936D02*
X4138190Y-15526983D01*
X4138190Y-15526983D02*
X4128666Y-15536507D01*
X4128666Y-15536507D02*
X4109619Y-15546031D01*
X4109619Y-15546031D02*
X4090571Y-15546031D01*
X4090571Y-15546031D02*
X4071523Y-15536507D01*
X4071523Y-15536507D02*
X4062000Y-15526983D01*
X4062000Y-15526983D02*
X4052476Y-15507936D01*
X4052476Y-15507936D02*
X4042952Y-15469840D01*
X4042952Y-15469840D02*
X4042952Y-15422221D01*
X4042952Y-15422221D02*
X4052476Y-15384126D01*
X4052476Y-15384126D02*
X4062000Y-15365079D01*
X4062000Y-15365079D02*
X4071523Y-15355555D01*
X4071523Y-15355555D02*
X4090571Y-15346031D01*
X4347714Y-15546031D02*
X4233428Y-15546031D01*
X4290571Y-15546031D02*
X4290571Y-15346031D01*
X4290571Y-15346031D02*
X4271524Y-15374602D01*
X4271524Y-15374602D02*
X4252476Y-15393650D01*
X4252476Y-15393650D02*
X4233428Y-15403174D01*
X4528666Y-15346031D02*
X4433428Y-15346031D01*
X4433428Y-15346031D02*
X4423905Y-15441269D01*
X4423905Y-15441269D02*
X4433428Y-15431745D01*
X4433428Y-15431745D02*
X4452476Y-15422221D01*
X4452476Y-15422221D02*
X4500095Y-15422221D01*
X4500095Y-15422221D02*
X4519143Y-15431745D01*
X4519143Y-15431745D02*
X4528666Y-15441269D01*
X4528666Y-15441269D02*
X4538190Y-15460317D01*
X4538190Y-15460317D02*
X4538190Y-15507936D01*
X4538190Y-15507936D02*
X4528666Y-15526983D01*
X4528666Y-15526983D02*
X4519143Y-15536507D01*
X4519143Y-15536507D02*
X4500095Y-15546031D01*
X4500095Y-15546031D02*
X4452476Y-15546031D01*
X4452476Y-15546031D02*
X4433428Y-15536507D01*
X4433428Y-15536507D02*
X4423905Y-15526983D01*
X4604857Y-15346031D02*
X4738190Y-15346031D01*
X4738190Y-15346031D02*
X4652476Y-15546031D01*
X4804857Y-15346031D02*
X4804857Y-15384126D01*
X4881047Y-15346031D02*
X4881047Y-15384126D01*
X5176286Y-15622221D02*
X5166762Y-15612698D01*
X5166762Y-15612698D02*
X5147714Y-15584126D01*
X5147714Y-15584126D02*
X5138190Y-15565079D01*
X5138190Y-15565079D02*
X5128667Y-15536507D01*
X5128667Y-15536507D02*
X5119143Y-15488888D01*
X5119143Y-15488888D02*
X5119143Y-15450793D01*
X5119143Y-15450793D02*
X5128667Y-15403174D01*
X5128667Y-15403174D02*
X5138190Y-15374602D01*
X5138190Y-15374602D02*
X5147714Y-15355555D01*
X5147714Y-15355555D02*
X5166762Y-15326983D01*
X5166762Y-15326983D02*
X5176286Y-15317459D01*
X5281047Y-15431745D02*
X5262000Y-15422221D01*
X5262000Y-15422221D02*
X5252476Y-15412698D01*
X5252476Y-15412698D02*
X5242952Y-15393650D01*
X5242952Y-15393650D02*
X5242952Y-15384126D01*
X5242952Y-15384126D02*
X5252476Y-15365079D01*
X5252476Y-15365079D02*
X5262000Y-15355555D01*
X5262000Y-15355555D02*
X5281047Y-15346031D01*
X5281047Y-15346031D02*
X5319143Y-15346031D01*
X5319143Y-15346031D02*
X5338190Y-15355555D01*
X5338190Y-15355555D02*
X5347714Y-15365079D01*
X5347714Y-15365079D02*
X5357238Y-15384126D01*
X5357238Y-15384126D02*
X5357238Y-15393650D01*
X5357238Y-15393650D02*
X5347714Y-15412698D01*
X5347714Y-15412698D02*
X5338190Y-15422221D01*
X5338190Y-15422221D02*
X5319143Y-15431745D01*
X5319143Y-15431745D02*
X5281047Y-15431745D01*
X5281047Y-15431745D02*
X5262000Y-15441269D01*
X5262000Y-15441269D02*
X5252476Y-15450793D01*
X5252476Y-15450793D02*
X5242952Y-15469840D01*
X5242952Y-15469840D02*
X5242952Y-15507936D01*
X5242952Y-15507936D02*
X5252476Y-15526983D01*
X5252476Y-15526983D02*
X5262000Y-15536507D01*
X5262000Y-15536507D02*
X5281047Y-15546031D01*
X5281047Y-15546031D02*
X5319143Y-15546031D01*
X5319143Y-15546031D02*
X5338190Y-15536507D01*
X5338190Y-15536507D02*
X5347714Y-15526983D01*
X5347714Y-15526983D02*
X5357238Y-15507936D01*
X5357238Y-15507936D02*
X5357238Y-15469840D01*
X5357238Y-15469840D02*
X5347714Y-15450793D01*
X5347714Y-15450793D02*
X5338190Y-15441269D01*
X5338190Y-15441269D02*
X5319143Y-15431745D01*
X5528667Y-15412698D02*
X5528667Y-15546031D01*
X5481047Y-15336507D02*
X5433428Y-15479364D01*
X5433428Y-15479364D02*
X5557238Y-15479364D01*
X5785809Y-15546031D02*
X5785809Y-15346031D01*
X5871524Y-15546031D02*
X5871524Y-15441269D01*
X5871524Y-15441269D02*
X5862000Y-15422221D01*
X5862000Y-15422221D02*
X5842952Y-15412698D01*
X5842952Y-15412698D02*
X5814381Y-15412698D01*
X5814381Y-15412698D02*
X5795333Y-15422221D01*
X5795333Y-15422221D02*
X5785809Y-15431745D01*
X5995333Y-15546031D02*
X5976286Y-15536507D01*
X5976286Y-15536507D02*
X5966762Y-15526983D01*
X5966762Y-15526983D02*
X5957238Y-15507936D01*
X5957238Y-15507936D02*
X5957238Y-15450793D01*
X5957238Y-15450793D02*
X5966762Y-15431745D01*
X5966762Y-15431745D02*
X5976286Y-15422221D01*
X5976286Y-15422221D02*
X5995333Y-15412698D01*
X5995333Y-15412698D02*
X6023905Y-15412698D01*
X6023905Y-15412698D02*
X6042952Y-15422221D01*
X6042952Y-15422221D02*
X6052476Y-15431745D01*
X6052476Y-15431745D02*
X6062000Y-15450793D01*
X6062000Y-15450793D02*
X6062000Y-15507936D01*
X6062000Y-15507936D02*
X6052476Y-15526983D01*
X6052476Y-15526983D02*
X6042952Y-15536507D01*
X6042952Y-15536507D02*
X6023905Y-15546031D01*
X6023905Y-15546031D02*
X5995333Y-15546031D01*
X6176286Y-15546031D02*
X6157238Y-15536507D01*
X6157238Y-15536507D02*
X6147714Y-15517459D01*
X6147714Y-15517459D02*
X6147714Y-15346031D01*
X6328667Y-15536507D02*
X6309619Y-15546031D01*
X6309619Y-15546031D02*
X6271524Y-15546031D01*
X6271524Y-15546031D02*
X6252476Y-15536507D01*
X6252476Y-15536507D02*
X6242952Y-15517459D01*
X6242952Y-15517459D02*
X6242952Y-15441269D01*
X6242952Y-15441269D02*
X6252476Y-15422221D01*
X6252476Y-15422221D02*
X6271524Y-15412698D01*
X6271524Y-15412698D02*
X6309619Y-15412698D01*
X6309619Y-15412698D02*
X6328667Y-15422221D01*
X6328667Y-15422221D02*
X6338190Y-15441269D01*
X6338190Y-15441269D02*
X6338190Y-15460317D01*
X6338190Y-15460317D02*
X6242952Y-15479364D01*
X6414381Y-15536507D02*
X6433428Y-15546031D01*
X6433428Y-15546031D02*
X6471524Y-15546031D01*
X6471524Y-15546031D02*
X6490571Y-15536507D01*
X6490571Y-15536507D02*
X6500095Y-15517459D01*
X6500095Y-15517459D02*
X6500095Y-15507936D01*
X6500095Y-15507936D02*
X6490571Y-15488888D01*
X6490571Y-15488888D02*
X6471524Y-15479364D01*
X6471524Y-15479364D02*
X6442952Y-15479364D01*
X6442952Y-15479364D02*
X6423905Y-15469840D01*
X6423905Y-15469840D02*
X6414381Y-15450793D01*
X6414381Y-15450793D02*
X6414381Y-15441269D01*
X6414381Y-15441269D02*
X6423905Y-15422221D01*
X6423905Y-15422221D02*
X6442952Y-15412698D01*
X6442952Y-15412698D02*
X6471524Y-15412698D01*
X6471524Y-15412698D02*
X6490571Y-15422221D01*
X6566762Y-15622221D02*
X6576286Y-15612698D01*
X6576286Y-15612698D02*
X6595333Y-15584126D01*
X6595333Y-15584126D02*
X6604857Y-15565079D01*
X6604857Y-15565079D02*
X6614381Y-15536507D01*
X6614381Y-15536507D02*
X6623905Y-15488888D01*
X6623905Y-15488888D02*
X6623905Y-15450793D01*
X6623905Y-15450793D02*
X6614381Y-15403174D01*
X6614381Y-15403174D02*
X6604857Y-15374602D01*
X6604857Y-15374602D02*
X6595333Y-15355555D01*
X6595333Y-15355555D02*
X6576286Y-15326983D01*
X6576286Y-15326983D02*
X6566762Y-15317459D01*
D10*
X1601223Y-15718547D02*
G75*
G02*
X1551223Y-15718547I-25000J0D01*
G01*
X1551223Y-15718547D02*
G75*
G02*
X1601223Y-15718547I25000J0D01*
G01*
D11*
X1900095Y-15610031D02*
X1919142Y-15610031D01*
X1919142Y-15610031D02*
X1938190Y-15619555D01*
X1938190Y-15619555D02*
X1947714Y-15629079D01*
X1947714Y-15629079D02*
X1957238Y-15648126D01*
X1957238Y-15648126D02*
X1966761Y-15686221D01*
X1966761Y-15686221D02*
X1966761Y-15733840D01*
X1966761Y-15733840D02*
X1957238Y-15771936D01*
X1957238Y-15771936D02*
X1947714Y-15790983D01*
X1947714Y-15790983D02*
X1938190Y-15800507D01*
X1938190Y-15800507D02*
X1919142Y-15810031D01*
X1919142Y-15810031D02*
X1900095Y-15810031D01*
X1900095Y-15810031D02*
X1881047Y-15800507D01*
X1881047Y-15800507D02*
X1871523Y-15790983D01*
X1871523Y-15790983D02*
X1861999Y-15771936D01*
X1861999Y-15771936D02*
X1852476Y-15733840D01*
X1852476Y-15733840D02*
X1852476Y-15686221D01*
X1852476Y-15686221D02*
X1861999Y-15648126D01*
X1861999Y-15648126D02*
X1871523Y-15629079D01*
X1871523Y-15629079D02*
X1881047Y-15619555D01*
X1881047Y-15619555D02*
X1900095Y-15610031D01*
X2052476Y-15790983D02*
X2061999Y-15800507D01*
X2061999Y-15800507D02*
X2052476Y-15810031D01*
X2052476Y-15810031D02*
X2042952Y-15800507D01*
X2042952Y-15800507D02*
X2052476Y-15790983D01*
X2052476Y-15790983D02*
X2052476Y-15810031D01*
X2242952Y-15610031D02*
X2147714Y-15610031D01*
X2147714Y-15610031D02*
X2138190Y-15705269D01*
X2138190Y-15705269D02*
X2147714Y-15695745D01*
X2147714Y-15695745D02*
X2166761Y-15686221D01*
X2166761Y-15686221D02*
X2214381Y-15686221D01*
X2214381Y-15686221D02*
X2233428Y-15695745D01*
X2233428Y-15695745D02*
X2242952Y-15705269D01*
X2242952Y-15705269D02*
X2252476Y-15724317D01*
X2252476Y-15724317D02*
X2252476Y-15771936D01*
X2252476Y-15771936D02*
X2242952Y-15790983D01*
X2242952Y-15790983D02*
X2233428Y-15800507D01*
X2233428Y-15800507D02*
X2214381Y-15810031D01*
X2214381Y-15810031D02*
X2166761Y-15810031D01*
X2166761Y-15810031D02*
X2147714Y-15800507D01*
X2147714Y-15800507D02*
X2138190Y-15790983D01*
X2376285Y-15610031D02*
X2395333Y-15610031D01*
X2395333Y-15610031D02*
X2414381Y-15619555D01*
X2414381Y-15619555D02*
X2423904Y-15629079D01*
X2423904Y-15629079D02*
X2433428Y-15648126D01*
X2433428Y-15648126D02*
X2442952Y-15686221D01*
X2442952Y-15686221D02*
X2442952Y-15733840D01*
X2442952Y-15733840D02*
X2433428Y-15771936D01*
X2433428Y-15771936D02*
X2423904Y-15790983D01*
X2423904Y-15790983D02*
X2414381Y-15800507D01*
X2414381Y-15800507D02*
X2395333Y-15810031D01*
X2395333Y-15810031D02*
X2376285Y-15810031D01*
X2376285Y-15810031D02*
X2357238Y-15800507D01*
X2357238Y-15800507D02*
X2347714Y-15790983D01*
X2347714Y-15790983D02*
X2338190Y-15771936D01*
X2338190Y-15771936D02*
X2328666Y-15733840D01*
X2328666Y-15733840D02*
X2328666Y-15686221D01*
X2328666Y-15686221D02*
X2338190Y-15648126D01*
X2338190Y-15648126D02*
X2347714Y-15629079D01*
X2347714Y-15629079D02*
X2357238Y-15619555D01*
X2357238Y-15619555D02*
X2376285Y-15610031D01*
X2566761Y-15610031D02*
X2585809Y-15610031D01*
X2585809Y-15610031D02*
X2604857Y-15619555D01*
X2604857Y-15619555D02*
X2614381Y-15629079D01*
X2614381Y-15629079D02*
X2623904Y-15648126D01*
X2623904Y-15648126D02*
X2633428Y-15686221D01*
X2633428Y-15686221D02*
X2633428Y-15733840D01*
X2633428Y-15733840D02*
X2623904Y-15771936D01*
X2623904Y-15771936D02*
X2614381Y-15790983D01*
X2614381Y-15790983D02*
X2604857Y-15800507D01*
X2604857Y-15800507D02*
X2585809Y-15810031D01*
X2585809Y-15810031D02*
X2566761Y-15810031D01*
X2566761Y-15810031D02*
X2547714Y-15800507D01*
X2547714Y-15800507D02*
X2538190Y-15790983D01*
X2538190Y-15790983D02*
X2528666Y-15771936D01*
X2528666Y-15771936D02*
X2519142Y-15733840D01*
X2519142Y-15733840D02*
X2519142Y-15686221D01*
X2519142Y-15686221D02*
X2528666Y-15648126D01*
X2528666Y-15648126D02*
X2538190Y-15629079D01*
X2538190Y-15629079D02*
X2547714Y-15619555D01*
X2547714Y-15619555D02*
X2566761Y-15610031D01*
X2719142Y-15810031D02*
X2719142Y-15676698D01*
X2719142Y-15695745D02*
X2728666Y-15686221D01*
X2728666Y-15686221D02*
X2747714Y-15676698D01*
X2747714Y-15676698D02*
X2776285Y-15676698D01*
X2776285Y-15676698D02*
X2795333Y-15686221D01*
X2795333Y-15686221D02*
X2804857Y-15705269D01*
X2804857Y-15705269D02*
X2804857Y-15810031D01*
X2804857Y-15705269D02*
X2814380Y-15686221D01*
X2814380Y-15686221D02*
X2833428Y-15676698D01*
X2833428Y-15676698D02*
X2861999Y-15676698D01*
X2861999Y-15676698D02*
X2881047Y-15686221D01*
X2881047Y-15686221D02*
X2890571Y-15705269D01*
X2890571Y-15705269D02*
X2890571Y-15810031D01*
X2985809Y-15810031D02*
X2985809Y-15676698D01*
X2985809Y-15695745D02*
X2995333Y-15686221D01*
X2995333Y-15686221D02*
X3014380Y-15676698D01*
X3014380Y-15676698D02*
X3042952Y-15676698D01*
X3042952Y-15676698D02*
X3062000Y-15686221D01*
X3062000Y-15686221D02*
X3071523Y-15705269D01*
X3071523Y-15705269D02*
X3071523Y-15810031D01*
X3071523Y-15705269D02*
X3081047Y-15686221D01*
X3081047Y-15686221D02*
X3100095Y-15676698D01*
X3100095Y-15676698D02*
X3128666Y-15676698D01*
X3128666Y-15676698D02*
X3147714Y-15686221D01*
X3147714Y-15686221D02*
X3157238Y-15705269D01*
X3157238Y-15705269D02*
X3157238Y-15810031D01*
X3547714Y-15600507D02*
X3376285Y-15857650D01*
X3804857Y-15610031D02*
X3823904Y-15610031D01*
X3823904Y-15610031D02*
X3842952Y-15619555D01*
X3842952Y-15619555D02*
X3852476Y-15629079D01*
X3852476Y-15629079D02*
X3862000Y-15648126D01*
X3862000Y-15648126D02*
X3871523Y-15686221D01*
X3871523Y-15686221D02*
X3871523Y-15733840D01*
X3871523Y-15733840D02*
X3862000Y-15771936D01*
X3862000Y-15771936D02*
X3852476Y-15790983D01*
X3852476Y-15790983D02*
X3842952Y-15800507D01*
X3842952Y-15800507D02*
X3823904Y-15810031D01*
X3823904Y-15810031D02*
X3804857Y-15810031D01*
X3804857Y-15810031D02*
X3785809Y-15800507D01*
X3785809Y-15800507D02*
X3776285Y-15790983D01*
X3776285Y-15790983D02*
X3766762Y-15771936D01*
X3766762Y-15771936D02*
X3757238Y-15733840D01*
X3757238Y-15733840D02*
X3757238Y-15686221D01*
X3757238Y-15686221D02*
X3766762Y-15648126D01*
X3766762Y-15648126D02*
X3776285Y-15629079D01*
X3776285Y-15629079D02*
X3785809Y-15619555D01*
X3785809Y-15619555D02*
X3804857Y-15610031D01*
X3957238Y-15790983D02*
X3966762Y-15800507D01*
X3966762Y-15800507D02*
X3957238Y-15810031D01*
X3957238Y-15810031D02*
X3947714Y-15800507D01*
X3947714Y-15800507D02*
X3957238Y-15790983D01*
X3957238Y-15790983D02*
X3957238Y-15810031D01*
X4090571Y-15610031D02*
X4109619Y-15610031D01*
X4109619Y-15610031D02*
X4128666Y-15619555D01*
X4128666Y-15619555D02*
X4138190Y-15629079D01*
X4138190Y-15629079D02*
X4147714Y-15648126D01*
X4147714Y-15648126D02*
X4157238Y-15686221D01*
X4157238Y-15686221D02*
X4157238Y-15733840D01*
X4157238Y-15733840D02*
X4147714Y-15771936D01*
X4147714Y-15771936D02*
X4138190Y-15790983D01*
X4138190Y-15790983D02*
X4128666Y-15800507D01*
X4128666Y-15800507D02*
X4109619Y-15810031D01*
X4109619Y-15810031D02*
X4090571Y-15810031D01*
X4090571Y-15810031D02*
X4071523Y-15800507D01*
X4071523Y-15800507D02*
X4062000Y-15790983D01*
X4062000Y-15790983D02*
X4052476Y-15771936D01*
X4052476Y-15771936D02*
X4042952Y-15733840D01*
X4042952Y-15733840D02*
X4042952Y-15686221D01*
X4042952Y-15686221D02*
X4052476Y-15648126D01*
X4052476Y-15648126D02*
X4062000Y-15629079D01*
X4062000Y-15629079D02*
X4071523Y-15619555D01*
X4071523Y-15619555D02*
X4090571Y-15610031D01*
X4347714Y-15810031D02*
X4233428Y-15810031D01*
X4290571Y-15810031D02*
X4290571Y-15610031D01*
X4290571Y-15610031D02*
X4271524Y-15638602D01*
X4271524Y-15638602D02*
X4252476Y-15657650D01*
X4252476Y-15657650D02*
X4233428Y-15667174D01*
X4442952Y-15810031D02*
X4481047Y-15810031D01*
X4481047Y-15810031D02*
X4500095Y-15800507D01*
X4500095Y-15800507D02*
X4509619Y-15790983D01*
X4509619Y-15790983D02*
X4528666Y-15762412D01*
X4528666Y-15762412D02*
X4538190Y-15724317D01*
X4538190Y-15724317D02*
X4538190Y-15648126D01*
X4538190Y-15648126D02*
X4528666Y-15629079D01*
X4528666Y-15629079D02*
X4519143Y-15619555D01*
X4519143Y-15619555D02*
X4500095Y-15610031D01*
X4500095Y-15610031D02*
X4462000Y-15610031D01*
X4462000Y-15610031D02*
X4442952Y-15619555D01*
X4442952Y-15619555D02*
X4433428Y-15629079D01*
X4433428Y-15629079D02*
X4423905Y-15648126D01*
X4423905Y-15648126D02*
X4423905Y-15695745D01*
X4423905Y-15695745D02*
X4433428Y-15714793D01*
X4433428Y-15714793D02*
X4442952Y-15724317D01*
X4442952Y-15724317D02*
X4462000Y-15733840D01*
X4462000Y-15733840D02*
X4500095Y-15733840D01*
X4500095Y-15733840D02*
X4519143Y-15724317D01*
X4519143Y-15724317D02*
X4528666Y-15714793D01*
X4528666Y-15714793D02*
X4538190Y-15695745D01*
X4604857Y-15610031D02*
X4738190Y-15610031D01*
X4738190Y-15610031D02*
X4652476Y-15810031D01*
X4804857Y-15610031D02*
X4804857Y-15648126D01*
X4881047Y-15610031D02*
X4881047Y-15648126D01*
X5176286Y-15886221D02*
X5166762Y-15876698D01*
X5166762Y-15876698D02*
X5147714Y-15848126D01*
X5147714Y-15848126D02*
X5138190Y-15829079D01*
X5138190Y-15829079D02*
X5128667Y-15800507D01*
X5128667Y-15800507D02*
X5119143Y-15752888D01*
X5119143Y-15752888D02*
X5119143Y-15714793D01*
X5119143Y-15714793D02*
X5128667Y-15667174D01*
X5128667Y-15667174D02*
X5138190Y-15638602D01*
X5138190Y-15638602D02*
X5147714Y-15619555D01*
X5147714Y-15619555D02*
X5166762Y-15590983D01*
X5166762Y-15590983D02*
X5176286Y-15581459D01*
X5357238Y-15810031D02*
X5242952Y-15810031D01*
X5300095Y-15810031D02*
X5300095Y-15610031D01*
X5300095Y-15610031D02*
X5281047Y-15638602D01*
X5281047Y-15638602D02*
X5262000Y-15657650D01*
X5262000Y-15657650D02*
X5242952Y-15667174D01*
X5595333Y-15810031D02*
X5595333Y-15610031D01*
X5681047Y-15810031D02*
X5681047Y-15705269D01*
X5681047Y-15705269D02*
X5671524Y-15686221D01*
X5671524Y-15686221D02*
X5652476Y-15676698D01*
X5652476Y-15676698D02*
X5623905Y-15676698D01*
X5623905Y-15676698D02*
X5604857Y-15686221D01*
X5604857Y-15686221D02*
X5595333Y-15695745D01*
X5804857Y-15810031D02*
X5785809Y-15800507D01*
X5785809Y-15800507D02*
X5776286Y-15790983D01*
X5776286Y-15790983D02*
X5766762Y-15771936D01*
X5766762Y-15771936D02*
X5766762Y-15714793D01*
X5766762Y-15714793D02*
X5776286Y-15695745D01*
X5776286Y-15695745D02*
X5785809Y-15686221D01*
X5785809Y-15686221D02*
X5804857Y-15676698D01*
X5804857Y-15676698D02*
X5833428Y-15676698D01*
X5833428Y-15676698D02*
X5852476Y-15686221D01*
X5852476Y-15686221D02*
X5862000Y-15695745D01*
X5862000Y-15695745D02*
X5871524Y-15714793D01*
X5871524Y-15714793D02*
X5871524Y-15771936D01*
X5871524Y-15771936D02*
X5862000Y-15790983D01*
X5862000Y-15790983D02*
X5852476Y-15800507D01*
X5852476Y-15800507D02*
X5833428Y-15810031D01*
X5833428Y-15810031D02*
X5804857Y-15810031D01*
X5985809Y-15810031D02*
X5966762Y-15800507D01*
X5966762Y-15800507D02*
X5957238Y-15781459D01*
X5957238Y-15781459D02*
X5957238Y-15610031D01*
X6138190Y-15800507D02*
X6119143Y-15810031D01*
X6119143Y-15810031D02*
X6081047Y-15810031D01*
X6081047Y-15810031D02*
X6062000Y-15800507D01*
X6062000Y-15800507D02*
X6052476Y-15781459D01*
X6052476Y-15781459D02*
X6052476Y-15705269D01*
X6052476Y-15705269D02*
X6062000Y-15686221D01*
X6062000Y-15686221D02*
X6081047Y-15676698D01*
X6081047Y-15676698D02*
X6119143Y-15676698D01*
X6119143Y-15676698D02*
X6138190Y-15686221D01*
X6138190Y-15686221D02*
X6147714Y-15705269D01*
X6147714Y-15705269D02*
X6147714Y-15724317D01*
X6147714Y-15724317D02*
X6052476Y-15743364D01*
X6214381Y-15886221D02*
X6223905Y-15876698D01*
X6223905Y-15876698D02*
X6242952Y-15848126D01*
X6242952Y-15848126D02*
X6252476Y-15829079D01*
X6252476Y-15829079D02*
X6262000Y-15800507D01*
X6262000Y-15800507D02*
X6271524Y-15752888D01*
X6271524Y-15752888D02*
X6271524Y-15714793D01*
X6271524Y-15714793D02*
X6262000Y-15667174D01*
X6262000Y-15667174D02*
X6252476Y-15638602D01*
X6252476Y-15638602D02*
X6242952Y-15619555D01*
X6242952Y-15619555D02*
X6223905Y-15590983D01*
X6223905Y-15590983D02*
X6214381Y-15581459D01*
D10*
X1561223Y-15942547D02*
X1561223Y-16022547D01*
X1521223Y-15982547D02*
X1601223Y-15982547D01*
D11*
X1900095Y-15874031D02*
X1919142Y-15874031D01*
X1919142Y-15874031D02*
X1938190Y-15883555D01*
X1938190Y-15883555D02*
X1947714Y-15893079D01*
X1947714Y-15893079D02*
X1957238Y-15912126D01*
X1957238Y-15912126D02*
X1966761Y-15950221D01*
X1966761Y-15950221D02*
X1966761Y-15997840D01*
X1966761Y-15997840D02*
X1957238Y-16035936D01*
X1957238Y-16035936D02*
X1947714Y-16054983D01*
X1947714Y-16054983D02*
X1938190Y-16064507D01*
X1938190Y-16064507D02*
X1919142Y-16074031D01*
X1919142Y-16074031D02*
X1900095Y-16074031D01*
X1900095Y-16074031D02*
X1881047Y-16064507D01*
X1881047Y-16064507D02*
X1871523Y-16054983D01*
X1871523Y-16054983D02*
X1861999Y-16035936D01*
X1861999Y-16035936D02*
X1852476Y-15997840D01*
X1852476Y-15997840D02*
X1852476Y-15950221D01*
X1852476Y-15950221D02*
X1861999Y-15912126D01*
X1861999Y-15912126D02*
X1871523Y-15893079D01*
X1871523Y-15893079D02*
X1881047Y-15883555D01*
X1881047Y-15883555D02*
X1900095Y-15874031D01*
X2052476Y-16054983D02*
X2061999Y-16064507D01*
X2061999Y-16064507D02*
X2052476Y-16074031D01*
X2052476Y-16074031D02*
X2042952Y-16064507D01*
X2042952Y-16064507D02*
X2052476Y-16054983D01*
X2052476Y-16054983D02*
X2052476Y-16074031D01*
X2176285Y-15959745D02*
X2157238Y-15950221D01*
X2157238Y-15950221D02*
X2147714Y-15940698D01*
X2147714Y-15940698D02*
X2138190Y-15921650D01*
X2138190Y-15921650D02*
X2138190Y-15912126D01*
X2138190Y-15912126D02*
X2147714Y-15893079D01*
X2147714Y-15893079D02*
X2157238Y-15883555D01*
X2157238Y-15883555D02*
X2176285Y-15874031D01*
X2176285Y-15874031D02*
X2214381Y-15874031D01*
X2214381Y-15874031D02*
X2233428Y-15883555D01*
X2233428Y-15883555D02*
X2242952Y-15893079D01*
X2242952Y-15893079D02*
X2252476Y-15912126D01*
X2252476Y-15912126D02*
X2252476Y-15921650D01*
X2252476Y-15921650D02*
X2242952Y-15940698D01*
X2242952Y-15940698D02*
X2233428Y-15950221D01*
X2233428Y-15950221D02*
X2214381Y-15959745D01*
X2214381Y-15959745D02*
X2176285Y-15959745D01*
X2176285Y-15959745D02*
X2157238Y-15969269D01*
X2157238Y-15969269D02*
X2147714Y-15978793D01*
X2147714Y-15978793D02*
X2138190Y-15997840D01*
X2138190Y-15997840D02*
X2138190Y-16035936D01*
X2138190Y-16035936D02*
X2147714Y-16054983D01*
X2147714Y-16054983D02*
X2157238Y-16064507D01*
X2157238Y-16064507D02*
X2176285Y-16074031D01*
X2176285Y-16074031D02*
X2214381Y-16074031D01*
X2214381Y-16074031D02*
X2233428Y-16064507D01*
X2233428Y-16064507D02*
X2242952Y-16054983D01*
X2242952Y-16054983D02*
X2252476Y-16035936D01*
X2252476Y-16035936D02*
X2252476Y-15997840D01*
X2252476Y-15997840D02*
X2242952Y-15978793D01*
X2242952Y-15978793D02*
X2233428Y-15969269D01*
X2233428Y-15969269D02*
X2214381Y-15959745D01*
X2376285Y-15874031D02*
X2395333Y-15874031D01*
X2395333Y-15874031D02*
X2414381Y-15883555D01*
X2414381Y-15883555D02*
X2423904Y-15893079D01*
X2423904Y-15893079D02*
X2433428Y-15912126D01*
X2433428Y-15912126D02*
X2442952Y-15950221D01*
X2442952Y-15950221D02*
X2442952Y-15997840D01*
X2442952Y-15997840D02*
X2433428Y-16035936D01*
X2433428Y-16035936D02*
X2423904Y-16054983D01*
X2423904Y-16054983D02*
X2414381Y-16064507D01*
X2414381Y-16064507D02*
X2395333Y-16074031D01*
X2395333Y-16074031D02*
X2376285Y-16074031D01*
X2376285Y-16074031D02*
X2357238Y-16064507D01*
X2357238Y-16064507D02*
X2347714Y-16054983D01*
X2347714Y-16054983D02*
X2338190Y-16035936D01*
X2338190Y-16035936D02*
X2328666Y-15997840D01*
X2328666Y-15997840D02*
X2328666Y-15950221D01*
X2328666Y-15950221D02*
X2338190Y-15912126D01*
X2338190Y-15912126D02*
X2347714Y-15893079D01*
X2347714Y-15893079D02*
X2357238Y-15883555D01*
X2357238Y-15883555D02*
X2376285Y-15874031D01*
X2566761Y-15874031D02*
X2585809Y-15874031D01*
X2585809Y-15874031D02*
X2604857Y-15883555D01*
X2604857Y-15883555D02*
X2614381Y-15893079D01*
X2614381Y-15893079D02*
X2623904Y-15912126D01*
X2623904Y-15912126D02*
X2633428Y-15950221D01*
X2633428Y-15950221D02*
X2633428Y-15997840D01*
X2633428Y-15997840D02*
X2623904Y-16035936D01*
X2623904Y-16035936D02*
X2614381Y-16054983D01*
X2614381Y-16054983D02*
X2604857Y-16064507D01*
X2604857Y-16064507D02*
X2585809Y-16074031D01*
X2585809Y-16074031D02*
X2566761Y-16074031D01*
X2566761Y-16074031D02*
X2547714Y-16064507D01*
X2547714Y-16064507D02*
X2538190Y-16054983D01*
X2538190Y-16054983D02*
X2528666Y-16035936D01*
X2528666Y-16035936D02*
X2519142Y-15997840D01*
X2519142Y-15997840D02*
X2519142Y-15950221D01*
X2519142Y-15950221D02*
X2528666Y-15912126D01*
X2528666Y-15912126D02*
X2538190Y-15893079D01*
X2538190Y-15893079D02*
X2547714Y-15883555D01*
X2547714Y-15883555D02*
X2566761Y-15874031D01*
X2719142Y-16074031D02*
X2719142Y-15940698D01*
X2719142Y-15959745D02*
X2728666Y-15950221D01*
X2728666Y-15950221D02*
X2747714Y-15940698D01*
X2747714Y-15940698D02*
X2776285Y-15940698D01*
X2776285Y-15940698D02*
X2795333Y-15950221D01*
X2795333Y-15950221D02*
X2804857Y-15969269D01*
X2804857Y-15969269D02*
X2804857Y-16074031D01*
X2804857Y-15969269D02*
X2814380Y-15950221D01*
X2814380Y-15950221D02*
X2833428Y-15940698D01*
X2833428Y-15940698D02*
X2861999Y-15940698D01*
X2861999Y-15940698D02*
X2881047Y-15950221D01*
X2881047Y-15950221D02*
X2890571Y-15969269D01*
X2890571Y-15969269D02*
X2890571Y-16074031D01*
X2985809Y-16074031D02*
X2985809Y-15940698D01*
X2985809Y-15959745D02*
X2995333Y-15950221D01*
X2995333Y-15950221D02*
X3014380Y-15940698D01*
X3014380Y-15940698D02*
X3042952Y-15940698D01*
X3042952Y-15940698D02*
X3062000Y-15950221D01*
X3062000Y-15950221D02*
X3071523Y-15969269D01*
X3071523Y-15969269D02*
X3071523Y-16074031D01*
X3071523Y-15969269D02*
X3081047Y-15950221D01*
X3081047Y-15950221D02*
X3100095Y-15940698D01*
X3100095Y-15940698D02*
X3128666Y-15940698D01*
X3128666Y-15940698D02*
X3147714Y-15950221D01*
X3147714Y-15950221D02*
X3157238Y-15969269D01*
X3157238Y-15969269D02*
X3157238Y-16074031D01*
X3547714Y-15864507D02*
X3376285Y-16121650D01*
X3804857Y-15874031D02*
X3823904Y-15874031D01*
X3823904Y-15874031D02*
X3842952Y-15883555D01*
X3842952Y-15883555D02*
X3852476Y-15893079D01*
X3852476Y-15893079D02*
X3862000Y-15912126D01*
X3862000Y-15912126D02*
X3871523Y-15950221D01*
X3871523Y-15950221D02*
X3871523Y-15997840D01*
X3871523Y-15997840D02*
X3862000Y-16035936D01*
X3862000Y-16035936D02*
X3852476Y-16054983D01*
X3852476Y-16054983D02*
X3842952Y-16064507D01*
X3842952Y-16064507D02*
X3823904Y-16074031D01*
X3823904Y-16074031D02*
X3804857Y-16074031D01*
X3804857Y-16074031D02*
X3785809Y-16064507D01*
X3785809Y-16064507D02*
X3776285Y-16054983D01*
X3776285Y-16054983D02*
X3766762Y-16035936D01*
X3766762Y-16035936D02*
X3757238Y-15997840D01*
X3757238Y-15997840D02*
X3757238Y-15950221D01*
X3757238Y-15950221D02*
X3766762Y-15912126D01*
X3766762Y-15912126D02*
X3776285Y-15893079D01*
X3776285Y-15893079D02*
X3785809Y-15883555D01*
X3785809Y-15883555D02*
X3804857Y-15874031D01*
X3957238Y-16054983D02*
X3966762Y-16064507D01*
X3966762Y-16064507D02*
X3957238Y-16074031D01*
X3957238Y-16074031D02*
X3947714Y-16064507D01*
X3947714Y-16064507D02*
X3957238Y-16054983D01*
X3957238Y-16054983D02*
X3957238Y-16074031D01*
X4090571Y-15874031D02*
X4109619Y-15874031D01*
X4109619Y-15874031D02*
X4128666Y-15883555D01*
X4128666Y-15883555D02*
X4138190Y-15893079D01*
X4138190Y-15893079D02*
X4147714Y-15912126D01*
X4147714Y-15912126D02*
X4157238Y-15950221D01*
X4157238Y-15950221D02*
X4157238Y-15997840D01*
X4157238Y-15997840D02*
X4147714Y-16035936D01*
X4147714Y-16035936D02*
X4138190Y-16054983D01*
X4138190Y-16054983D02*
X4128666Y-16064507D01*
X4128666Y-16064507D02*
X4109619Y-16074031D01*
X4109619Y-16074031D02*
X4090571Y-16074031D01*
X4090571Y-16074031D02*
X4071523Y-16064507D01*
X4071523Y-16064507D02*
X4062000Y-16054983D01*
X4062000Y-16054983D02*
X4052476Y-16035936D01*
X4052476Y-16035936D02*
X4042952Y-15997840D01*
X4042952Y-15997840D02*
X4042952Y-15950221D01*
X4042952Y-15950221D02*
X4052476Y-15912126D01*
X4052476Y-15912126D02*
X4062000Y-15893079D01*
X4062000Y-15893079D02*
X4071523Y-15883555D01*
X4071523Y-15883555D02*
X4090571Y-15874031D01*
X4223905Y-15874031D02*
X4347714Y-15874031D01*
X4347714Y-15874031D02*
X4281047Y-15950221D01*
X4281047Y-15950221D02*
X4309619Y-15950221D01*
X4309619Y-15950221D02*
X4328666Y-15959745D01*
X4328666Y-15959745D02*
X4338190Y-15969269D01*
X4338190Y-15969269D02*
X4347714Y-15988317D01*
X4347714Y-15988317D02*
X4347714Y-16035936D01*
X4347714Y-16035936D02*
X4338190Y-16054983D01*
X4338190Y-16054983D02*
X4328666Y-16064507D01*
X4328666Y-16064507D02*
X4309619Y-16074031D01*
X4309619Y-16074031D02*
X4252476Y-16074031D01*
X4252476Y-16074031D02*
X4233428Y-16064507D01*
X4233428Y-16064507D02*
X4223905Y-16054983D01*
X4538190Y-16074031D02*
X4423905Y-16074031D01*
X4481047Y-16074031D02*
X4481047Y-15874031D01*
X4481047Y-15874031D02*
X4462000Y-15902602D01*
X4462000Y-15902602D02*
X4442952Y-15921650D01*
X4442952Y-15921650D02*
X4423905Y-15931174D01*
X4719143Y-15874031D02*
X4623905Y-15874031D01*
X4623905Y-15874031D02*
X4614381Y-15969269D01*
X4614381Y-15969269D02*
X4623905Y-15959745D01*
X4623905Y-15959745D02*
X4642952Y-15950221D01*
X4642952Y-15950221D02*
X4690571Y-15950221D01*
X4690571Y-15950221D02*
X4709619Y-15959745D01*
X4709619Y-15959745D02*
X4719143Y-15969269D01*
X4719143Y-15969269D02*
X4728666Y-15988317D01*
X4728666Y-15988317D02*
X4728666Y-16035936D01*
X4728666Y-16035936D02*
X4719143Y-16054983D01*
X4719143Y-16054983D02*
X4709619Y-16064507D01*
X4709619Y-16064507D02*
X4690571Y-16074031D01*
X4690571Y-16074031D02*
X4642952Y-16074031D01*
X4642952Y-16074031D02*
X4623905Y-16064507D01*
X4623905Y-16064507D02*
X4614381Y-16054983D01*
X4804857Y-15874031D02*
X4804857Y-15912126D01*
X4881047Y-15874031D02*
X4881047Y-15912126D01*
X5176286Y-16150221D02*
X5166762Y-16140698D01*
X5166762Y-16140698D02*
X5147714Y-16112126D01*
X5147714Y-16112126D02*
X5138190Y-16093079D01*
X5138190Y-16093079D02*
X5128667Y-16064507D01*
X5128667Y-16064507D02*
X5119143Y-16016888D01*
X5119143Y-16016888D02*
X5119143Y-15978793D01*
X5119143Y-15978793D02*
X5128667Y-15931174D01*
X5128667Y-15931174D02*
X5138190Y-15902602D01*
X5138190Y-15902602D02*
X5147714Y-15883555D01*
X5147714Y-15883555D02*
X5166762Y-15854983D01*
X5166762Y-15854983D02*
X5176286Y-15845459D01*
X5233428Y-15874031D02*
X5357238Y-15874031D01*
X5357238Y-15874031D02*
X5290571Y-15950221D01*
X5290571Y-15950221D02*
X5319143Y-15950221D01*
X5319143Y-15950221D02*
X5338190Y-15959745D01*
X5338190Y-15959745D02*
X5347714Y-15969269D01*
X5347714Y-15969269D02*
X5357238Y-15988317D01*
X5357238Y-15988317D02*
X5357238Y-16035936D01*
X5357238Y-16035936D02*
X5347714Y-16054983D01*
X5347714Y-16054983D02*
X5338190Y-16064507D01*
X5338190Y-16064507D02*
X5319143Y-16074031D01*
X5319143Y-16074031D02*
X5262000Y-16074031D01*
X5262000Y-16074031D02*
X5242952Y-16064507D01*
X5242952Y-16064507D02*
X5233428Y-16054983D01*
X5595333Y-16074031D02*
X5595333Y-15874031D01*
X5681047Y-16074031D02*
X5681047Y-15969269D01*
X5681047Y-15969269D02*
X5671524Y-15950221D01*
X5671524Y-15950221D02*
X5652476Y-15940698D01*
X5652476Y-15940698D02*
X5623905Y-15940698D01*
X5623905Y-15940698D02*
X5604857Y-15950221D01*
X5604857Y-15950221D02*
X5595333Y-15959745D01*
X5804857Y-16074031D02*
X5785809Y-16064507D01*
X5785809Y-16064507D02*
X5776286Y-16054983D01*
X5776286Y-16054983D02*
X5766762Y-16035936D01*
X5766762Y-16035936D02*
X5766762Y-15978793D01*
X5766762Y-15978793D02*
X5776286Y-15959745D01*
X5776286Y-15959745D02*
X5785809Y-15950221D01*
X5785809Y-15950221D02*
X5804857Y-15940698D01*
X5804857Y-15940698D02*
X5833428Y-15940698D01*
X5833428Y-15940698D02*
X5852476Y-15950221D01*
X5852476Y-15950221D02*
X5862000Y-15959745D01*
X5862000Y-15959745D02*
X5871524Y-15978793D01*
X5871524Y-15978793D02*
X5871524Y-16035936D01*
X5871524Y-16035936D02*
X5862000Y-16054983D01*
X5862000Y-16054983D02*
X5852476Y-16064507D01*
X5852476Y-16064507D02*
X5833428Y-16074031D01*
X5833428Y-16074031D02*
X5804857Y-16074031D01*
X5985809Y-16074031D02*
X5966762Y-16064507D01*
X5966762Y-16064507D02*
X5957238Y-16045459D01*
X5957238Y-16045459D02*
X5957238Y-15874031D01*
X6138190Y-16064507D02*
X6119143Y-16074031D01*
X6119143Y-16074031D02*
X6081047Y-16074031D01*
X6081047Y-16074031D02*
X6062000Y-16064507D01*
X6062000Y-16064507D02*
X6052476Y-16045459D01*
X6052476Y-16045459D02*
X6052476Y-15969269D01*
X6052476Y-15969269D02*
X6062000Y-15950221D01*
X6062000Y-15950221D02*
X6081047Y-15940698D01*
X6081047Y-15940698D02*
X6119143Y-15940698D01*
X6119143Y-15940698D02*
X6138190Y-15950221D01*
X6138190Y-15950221D02*
X6147714Y-15969269D01*
X6147714Y-15969269D02*
X6147714Y-15988317D01*
X6147714Y-15988317D02*
X6052476Y-16007364D01*
X6223905Y-16064507D02*
X6242952Y-16074031D01*
X6242952Y-16074031D02*
X6281047Y-16074031D01*
X6281047Y-16074031D02*
X6300095Y-16064507D01*
X6300095Y-16064507D02*
X6309619Y-16045459D01*
X6309619Y-16045459D02*
X6309619Y-16035936D01*
X6309619Y-16035936D02*
X6300095Y-16016888D01*
X6300095Y-16016888D02*
X6281047Y-16007364D01*
X6281047Y-16007364D02*
X6252476Y-16007364D01*
X6252476Y-16007364D02*
X6233428Y-15997840D01*
X6233428Y-15997840D02*
X6223905Y-15978793D01*
X6223905Y-15978793D02*
X6223905Y-15969269D01*
X6223905Y-15969269D02*
X6233428Y-15950221D01*
X6233428Y-15950221D02*
X6252476Y-15940698D01*
X6252476Y-15940698D02*
X6281047Y-15940698D01*
X6281047Y-15940698D02*
X6300095Y-15950221D01*
X6376286Y-16150221D02*
X6385809Y-16140698D01*
X6385809Y-16140698D02*
X6404857Y-16112126D01*
X6404857Y-16112126D02*
X6414381Y-16093079D01*
X6414381Y-16093079D02*
X6423905Y-16064507D01*
X6423905Y-16064507D02*
X6433428Y-16016888D01*
X6433428Y-16016888D02*
X6433428Y-15978793D01*
X6433428Y-15978793D02*
X6423905Y-15931174D01*
X6423905Y-15931174D02*
X6414381Y-15902602D01*
X6414381Y-15902602D02*
X6404857Y-15883555D01*
X6404857Y-15883555D02*
X6385809Y-15854983D01*
X6385809Y-15854983D02*
X6376286Y-15845459D01*
D10*
X1586578Y-16281903D02*
X1586578Y-16211191D01*
X1515867Y-16211191D01*
X1515867Y-16281903D01*
X1586578Y-16281903D01*
D11*
X1966761Y-16338031D02*
X1852476Y-16338031D01*
X1909618Y-16338031D02*
X1909618Y-16138031D01*
X1909618Y-16138031D02*
X1890571Y-16166602D01*
X1890571Y-16166602D02*
X1871523Y-16185650D01*
X1871523Y-16185650D02*
X1852476Y-16195174D01*
X2052476Y-16318983D02*
X2061999Y-16328507D01*
X2061999Y-16328507D02*
X2052476Y-16338031D01*
X2052476Y-16338031D02*
X2042952Y-16328507D01*
X2042952Y-16328507D02*
X2052476Y-16318983D01*
X2052476Y-16318983D02*
X2052476Y-16338031D01*
X2185809Y-16138031D02*
X2204857Y-16138031D01*
X2204857Y-16138031D02*
X2223904Y-16147555D01*
X2223904Y-16147555D02*
X2233428Y-16157079D01*
X2233428Y-16157079D02*
X2242952Y-16176126D01*
X2242952Y-16176126D02*
X2252476Y-16214221D01*
X2252476Y-16214221D02*
X2252476Y-16261840D01*
X2252476Y-16261840D02*
X2242952Y-16299936D01*
X2242952Y-16299936D02*
X2233428Y-16318983D01*
X2233428Y-16318983D02*
X2223904Y-16328507D01*
X2223904Y-16328507D02*
X2204857Y-16338031D01*
X2204857Y-16338031D02*
X2185809Y-16338031D01*
X2185809Y-16338031D02*
X2166761Y-16328507D01*
X2166761Y-16328507D02*
X2157238Y-16318983D01*
X2157238Y-16318983D02*
X2147714Y-16299936D01*
X2147714Y-16299936D02*
X2138190Y-16261840D01*
X2138190Y-16261840D02*
X2138190Y-16214221D01*
X2138190Y-16214221D02*
X2147714Y-16176126D01*
X2147714Y-16176126D02*
X2157238Y-16157079D01*
X2157238Y-16157079D02*
X2166761Y-16147555D01*
X2166761Y-16147555D02*
X2185809Y-16138031D01*
X2376285Y-16138031D02*
X2395333Y-16138031D01*
X2395333Y-16138031D02*
X2414381Y-16147555D01*
X2414381Y-16147555D02*
X2423904Y-16157079D01*
X2423904Y-16157079D02*
X2433428Y-16176126D01*
X2433428Y-16176126D02*
X2442952Y-16214221D01*
X2442952Y-16214221D02*
X2442952Y-16261840D01*
X2442952Y-16261840D02*
X2433428Y-16299936D01*
X2433428Y-16299936D02*
X2423904Y-16318983D01*
X2423904Y-16318983D02*
X2414381Y-16328507D01*
X2414381Y-16328507D02*
X2395333Y-16338031D01*
X2395333Y-16338031D02*
X2376285Y-16338031D01*
X2376285Y-16338031D02*
X2357238Y-16328507D01*
X2357238Y-16328507D02*
X2347714Y-16318983D01*
X2347714Y-16318983D02*
X2338190Y-16299936D01*
X2338190Y-16299936D02*
X2328666Y-16261840D01*
X2328666Y-16261840D02*
X2328666Y-16214221D01*
X2328666Y-16214221D02*
X2338190Y-16176126D01*
X2338190Y-16176126D02*
X2347714Y-16157079D01*
X2347714Y-16157079D02*
X2357238Y-16147555D01*
X2357238Y-16147555D02*
X2376285Y-16138031D01*
X2566761Y-16138031D02*
X2585809Y-16138031D01*
X2585809Y-16138031D02*
X2604857Y-16147555D01*
X2604857Y-16147555D02*
X2614381Y-16157079D01*
X2614381Y-16157079D02*
X2623904Y-16176126D01*
X2623904Y-16176126D02*
X2633428Y-16214221D01*
X2633428Y-16214221D02*
X2633428Y-16261840D01*
X2633428Y-16261840D02*
X2623904Y-16299936D01*
X2623904Y-16299936D02*
X2614381Y-16318983D01*
X2614381Y-16318983D02*
X2604857Y-16328507D01*
X2604857Y-16328507D02*
X2585809Y-16338031D01*
X2585809Y-16338031D02*
X2566761Y-16338031D01*
X2566761Y-16338031D02*
X2547714Y-16328507D01*
X2547714Y-16328507D02*
X2538190Y-16318983D01*
X2538190Y-16318983D02*
X2528666Y-16299936D01*
X2528666Y-16299936D02*
X2519142Y-16261840D01*
X2519142Y-16261840D02*
X2519142Y-16214221D01*
X2519142Y-16214221D02*
X2528666Y-16176126D01*
X2528666Y-16176126D02*
X2538190Y-16157079D01*
X2538190Y-16157079D02*
X2547714Y-16147555D01*
X2547714Y-16147555D02*
X2566761Y-16138031D01*
X2719142Y-16338031D02*
X2719142Y-16204698D01*
X2719142Y-16223745D02*
X2728666Y-16214221D01*
X2728666Y-16214221D02*
X2747714Y-16204698D01*
X2747714Y-16204698D02*
X2776285Y-16204698D01*
X2776285Y-16204698D02*
X2795333Y-16214221D01*
X2795333Y-16214221D02*
X2804857Y-16233269D01*
X2804857Y-16233269D02*
X2804857Y-16338031D01*
X2804857Y-16233269D02*
X2814380Y-16214221D01*
X2814380Y-16214221D02*
X2833428Y-16204698D01*
X2833428Y-16204698D02*
X2861999Y-16204698D01*
X2861999Y-16204698D02*
X2881047Y-16214221D01*
X2881047Y-16214221D02*
X2890571Y-16233269D01*
X2890571Y-16233269D02*
X2890571Y-16338031D01*
X2985809Y-16338031D02*
X2985809Y-16204698D01*
X2985809Y-16223745D02*
X2995333Y-16214221D01*
X2995333Y-16214221D02*
X3014380Y-16204698D01*
X3014380Y-16204698D02*
X3042952Y-16204698D01*
X3042952Y-16204698D02*
X3062000Y-16214221D01*
X3062000Y-16214221D02*
X3071523Y-16233269D01*
X3071523Y-16233269D02*
X3071523Y-16338031D01*
X3071523Y-16233269D02*
X3081047Y-16214221D01*
X3081047Y-16214221D02*
X3100095Y-16204698D01*
X3100095Y-16204698D02*
X3128666Y-16204698D01*
X3128666Y-16204698D02*
X3147714Y-16214221D01*
X3147714Y-16214221D02*
X3157238Y-16233269D01*
X3157238Y-16233269D02*
X3157238Y-16338031D01*
X3547714Y-16128507D02*
X3376285Y-16385650D01*
X3804857Y-16138031D02*
X3823904Y-16138031D01*
X3823904Y-16138031D02*
X3842952Y-16147555D01*
X3842952Y-16147555D02*
X3852476Y-16157079D01*
X3852476Y-16157079D02*
X3862000Y-16176126D01*
X3862000Y-16176126D02*
X3871523Y-16214221D01*
X3871523Y-16214221D02*
X3871523Y-16261840D01*
X3871523Y-16261840D02*
X3862000Y-16299936D01*
X3862000Y-16299936D02*
X3852476Y-16318983D01*
X3852476Y-16318983D02*
X3842952Y-16328507D01*
X3842952Y-16328507D02*
X3823904Y-16338031D01*
X3823904Y-16338031D02*
X3804857Y-16338031D01*
X3804857Y-16338031D02*
X3785809Y-16328507D01*
X3785809Y-16328507D02*
X3776285Y-16318983D01*
X3776285Y-16318983D02*
X3766762Y-16299936D01*
X3766762Y-16299936D02*
X3757238Y-16261840D01*
X3757238Y-16261840D02*
X3757238Y-16214221D01*
X3757238Y-16214221D02*
X3766762Y-16176126D01*
X3766762Y-16176126D02*
X3776285Y-16157079D01*
X3776285Y-16157079D02*
X3785809Y-16147555D01*
X3785809Y-16147555D02*
X3804857Y-16138031D01*
X3957238Y-16318983D02*
X3966762Y-16328507D01*
X3966762Y-16328507D02*
X3957238Y-16338031D01*
X3957238Y-16338031D02*
X3947714Y-16328507D01*
X3947714Y-16328507D02*
X3957238Y-16318983D01*
X3957238Y-16318983D02*
X3957238Y-16338031D01*
X4090571Y-16138031D02*
X4109619Y-16138031D01*
X4109619Y-16138031D02*
X4128666Y-16147555D01*
X4128666Y-16147555D02*
X4138190Y-16157079D01*
X4138190Y-16157079D02*
X4147714Y-16176126D01*
X4147714Y-16176126D02*
X4157238Y-16214221D01*
X4157238Y-16214221D02*
X4157238Y-16261840D01*
X4157238Y-16261840D02*
X4147714Y-16299936D01*
X4147714Y-16299936D02*
X4138190Y-16318983D01*
X4138190Y-16318983D02*
X4128666Y-16328507D01*
X4128666Y-16328507D02*
X4109619Y-16338031D01*
X4109619Y-16338031D02*
X4090571Y-16338031D01*
X4090571Y-16338031D02*
X4071523Y-16328507D01*
X4071523Y-16328507D02*
X4062000Y-16318983D01*
X4062000Y-16318983D02*
X4052476Y-16299936D01*
X4052476Y-16299936D02*
X4042952Y-16261840D01*
X4042952Y-16261840D02*
X4042952Y-16214221D01*
X4042952Y-16214221D02*
X4052476Y-16176126D01*
X4052476Y-16176126D02*
X4062000Y-16157079D01*
X4062000Y-16157079D02*
X4071523Y-16147555D01*
X4071523Y-16147555D02*
X4090571Y-16138031D01*
X4223905Y-16138031D02*
X4347714Y-16138031D01*
X4347714Y-16138031D02*
X4281047Y-16214221D01*
X4281047Y-16214221D02*
X4309619Y-16214221D01*
X4309619Y-16214221D02*
X4328666Y-16223745D01*
X4328666Y-16223745D02*
X4338190Y-16233269D01*
X4338190Y-16233269D02*
X4347714Y-16252317D01*
X4347714Y-16252317D02*
X4347714Y-16299936D01*
X4347714Y-16299936D02*
X4338190Y-16318983D01*
X4338190Y-16318983D02*
X4328666Y-16328507D01*
X4328666Y-16328507D02*
X4309619Y-16338031D01*
X4309619Y-16338031D02*
X4252476Y-16338031D01*
X4252476Y-16338031D02*
X4233428Y-16328507D01*
X4233428Y-16328507D02*
X4223905Y-16318983D01*
X4442952Y-16338031D02*
X4481047Y-16338031D01*
X4481047Y-16338031D02*
X4500095Y-16328507D01*
X4500095Y-16328507D02*
X4509619Y-16318983D01*
X4509619Y-16318983D02*
X4528666Y-16290412D01*
X4528666Y-16290412D02*
X4538190Y-16252317D01*
X4538190Y-16252317D02*
X4538190Y-16176126D01*
X4538190Y-16176126D02*
X4528666Y-16157079D01*
X4528666Y-16157079D02*
X4519143Y-16147555D01*
X4519143Y-16147555D02*
X4500095Y-16138031D01*
X4500095Y-16138031D02*
X4462000Y-16138031D01*
X4462000Y-16138031D02*
X4442952Y-16147555D01*
X4442952Y-16147555D02*
X4433428Y-16157079D01*
X4433428Y-16157079D02*
X4423905Y-16176126D01*
X4423905Y-16176126D02*
X4423905Y-16223745D01*
X4423905Y-16223745D02*
X4433428Y-16242793D01*
X4433428Y-16242793D02*
X4442952Y-16252317D01*
X4442952Y-16252317D02*
X4462000Y-16261840D01*
X4462000Y-16261840D02*
X4500095Y-16261840D01*
X4500095Y-16261840D02*
X4519143Y-16252317D01*
X4519143Y-16252317D02*
X4528666Y-16242793D01*
X4528666Y-16242793D02*
X4538190Y-16223745D01*
X4709619Y-16204698D02*
X4709619Y-16338031D01*
X4662000Y-16128507D02*
X4614381Y-16271364D01*
X4614381Y-16271364D02*
X4738190Y-16271364D01*
X4804857Y-16138031D02*
X4804857Y-16176126D01*
X4881047Y-16138031D02*
X4881047Y-16176126D01*
X5176286Y-16414221D02*
X5166762Y-16404698D01*
X5166762Y-16404698D02*
X5147714Y-16376126D01*
X5147714Y-16376126D02*
X5138190Y-16357079D01*
X5138190Y-16357079D02*
X5128667Y-16328507D01*
X5128667Y-16328507D02*
X5119143Y-16280888D01*
X5119143Y-16280888D02*
X5119143Y-16242793D01*
X5119143Y-16242793D02*
X5128667Y-16195174D01*
X5128667Y-16195174D02*
X5138190Y-16166602D01*
X5138190Y-16166602D02*
X5147714Y-16147555D01*
X5147714Y-16147555D02*
X5166762Y-16118983D01*
X5166762Y-16118983D02*
X5176286Y-16109459D01*
X5242952Y-16157079D02*
X5252476Y-16147555D01*
X5252476Y-16147555D02*
X5271524Y-16138031D01*
X5271524Y-16138031D02*
X5319143Y-16138031D01*
X5319143Y-16138031D02*
X5338190Y-16147555D01*
X5338190Y-16147555D02*
X5347714Y-16157079D01*
X5347714Y-16157079D02*
X5357238Y-16176126D01*
X5357238Y-16176126D02*
X5357238Y-16195174D01*
X5357238Y-16195174D02*
X5347714Y-16223745D01*
X5347714Y-16223745D02*
X5233428Y-16338031D01*
X5233428Y-16338031D02*
X5357238Y-16338031D01*
X5528667Y-16138031D02*
X5490571Y-16138031D01*
X5490571Y-16138031D02*
X5471524Y-16147555D01*
X5471524Y-16147555D02*
X5462000Y-16157079D01*
X5462000Y-16157079D02*
X5442952Y-16185650D01*
X5442952Y-16185650D02*
X5433428Y-16223745D01*
X5433428Y-16223745D02*
X5433428Y-16299936D01*
X5433428Y-16299936D02*
X5442952Y-16318983D01*
X5442952Y-16318983D02*
X5452476Y-16328507D01*
X5452476Y-16328507D02*
X5471524Y-16338031D01*
X5471524Y-16338031D02*
X5509619Y-16338031D01*
X5509619Y-16338031D02*
X5528667Y-16328507D01*
X5528667Y-16328507D02*
X5538190Y-16318983D01*
X5538190Y-16318983D02*
X5547714Y-16299936D01*
X5547714Y-16299936D02*
X5547714Y-16252317D01*
X5547714Y-16252317D02*
X5538190Y-16233269D01*
X5538190Y-16233269D02*
X5528667Y-16223745D01*
X5528667Y-16223745D02*
X5509619Y-16214221D01*
X5509619Y-16214221D02*
X5471524Y-16214221D01*
X5471524Y-16214221D02*
X5452476Y-16223745D01*
X5452476Y-16223745D02*
X5442952Y-16233269D01*
X5442952Y-16233269D02*
X5433428Y-16252317D01*
X5785809Y-16338031D02*
X5785809Y-16138031D01*
X5871524Y-16338031D02*
X5871524Y-16233269D01*
X5871524Y-16233269D02*
X5862000Y-16214221D01*
X5862000Y-16214221D02*
X5842952Y-16204698D01*
X5842952Y-16204698D02*
X5814381Y-16204698D01*
X5814381Y-16204698D02*
X5795333Y-16214221D01*
X5795333Y-16214221D02*
X5785809Y-16223745D01*
X5995333Y-16338031D02*
X5976286Y-16328507D01*
X5976286Y-16328507D02*
X5966762Y-16318983D01*
X5966762Y-16318983D02*
X5957238Y-16299936D01*
X5957238Y-16299936D02*
X5957238Y-16242793D01*
X5957238Y-16242793D02*
X5966762Y-16223745D01*
X5966762Y-16223745D02*
X5976286Y-16214221D01*
X5976286Y-16214221D02*
X5995333Y-16204698D01*
X5995333Y-16204698D02*
X6023905Y-16204698D01*
X6023905Y-16204698D02*
X6042952Y-16214221D01*
X6042952Y-16214221D02*
X6052476Y-16223745D01*
X6052476Y-16223745D02*
X6062000Y-16242793D01*
X6062000Y-16242793D02*
X6062000Y-16299936D01*
X6062000Y-16299936D02*
X6052476Y-16318983D01*
X6052476Y-16318983D02*
X6042952Y-16328507D01*
X6042952Y-16328507D02*
X6023905Y-16338031D01*
X6023905Y-16338031D02*
X5995333Y-16338031D01*
X6176286Y-16338031D02*
X6157238Y-16328507D01*
X6157238Y-16328507D02*
X6147714Y-16309459D01*
X6147714Y-16309459D02*
X6147714Y-16138031D01*
X6328667Y-16328507D02*
X6309619Y-16338031D01*
X6309619Y-16338031D02*
X6271524Y-16338031D01*
X6271524Y-16338031D02*
X6252476Y-16328507D01*
X6252476Y-16328507D02*
X6242952Y-16309459D01*
X6242952Y-16309459D02*
X6242952Y-16233269D01*
X6242952Y-16233269D02*
X6252476Y-16214221D01*
X6252476Y-16214221D02*
X6271524Y-16204698D01*
X6271524Y-16204698D02*
X6309619Y-16204698D01*
X6309619Y-16204698D02*
X6328667Y-16214221D01*
X6328667Y-16214221D02*
X6338190Y-16233269D01*
X6338190Y-16233269D02*
X6338190Y-16252317D01*
X6338190Y-16252317D02*
X6242952Y-16271364D01*
X6414381Y-16328507D02*
X6433428Y-16338031D01*
X6433428Y-16338031D02*
X6471524Y-16338031D01*
X6471524Y-16338031D02*
X6490571Y-16328507D01*
X6490571Y-16328507D02*
X6500095Y-16309459D01*
X6500095Y-16309459D02*
X6500095Y-16299936D01*
X6500095Y-16299936D02*
X6490571Y-16280888D01*
X6490571Y-16280888D02*
X6471524Y-16271364D01*
X6471524Y-16271364D02*
X6442952Y-16271364D01*
X6442952Y-16271364D02*
X6423905Y-16261840D01*
X6423905Y-16261840D02*
X6414381Y-16242793D01*
X6414381Y-16242793D02*
X6414381Y-16233269D01*
X6414381Y-16233269D02*
X6423905Y-16214221D01*
X6423905Y-16214221D02*
X6442952Y-16204698D01*
X6442952Y-16204698D02*
X6471524Y-16204698D01*
X6471524Y-16204698D02*
X6490571Y-16214221D01*
X6566762Y-16414221D02*
X6576286Y-16404698D01*
X6576286Y-16404698D02*
X6595333Y-16376126D01*
X6595333Y-16376126D02*
X6604857Y-16357079D01*
X6604857Y-16357079D02*
X6614381Y-16328507D01*
X6614381Y-16328507D02*
X6623905Y-16280888D01*
X6623905Y-16280888D02*
X6623905Y-16242793D01*
X6623905Y-16242793D02*
X6614381Y-16195174D01*
X6614381Y-16195174D02*
X6604857Y-16166602D01*
X6604857Y-16166602D02*
X6595333Y-16147555D01*
X6595333Y-16147555D02*
X6576286Y-16118983D01*
X6576286Y-16118983D02*
X6566762Y-16109459D01*
D12*
X1531223Y-16580547D02*
X1601223Y-16510547D01*
X1531223Y-16440547D01*
X1461223Y-16510547D01*
X1531223Y-16580547D01*
D11*
X1966761Y-16602031D02*
X1852476Y-16602031D01*
X1909618Y-16602031D02*
X1909618Y-16402031D01*
X1909618Y-16402031D02*
X1890571Y-16430602D01*
X1890571Y-16430602D02*
X1871523Y-16449650D01*
X1871523Y-16449650D02*
X1852476Y-16459174D01*
X2052476Y-16582983D02*
X2061999Y-16592507D01*
X2061999Y-16592507D02*
X2052476Y-16602031D01*
X2052476Y-16602031D02*
X2042952Y-16592507D01*
X2042952Y-16592507D02*
X2052476Y-16582983D01*
X2052476Y-16582983D02*
X2052476Y-16602031D01*
X2233428Y-16468698D02*
X2233428Y-16602031D01*
X2185809Y-16392507D02*
X2138190Y-16535364D01*
X2138190Y-16535364D02*
X2262000Y-16535364D01*
X2376285Y-16402031D02*
X2395333Y-16402031D01*
X2395333Y-16402031D02*
X2414381Y-16411555D01*
X2414381Y-16411555D02*
X2423904Y-16421079D01*
X2423904Y-16421079D02*
X2433428Y-16440126D01*
X2433428Y-16440126D02*
X2442952Y-16478221D01*
X2442952Y-16478221D02*
X2442952Y-16525840D01*
X2442952Y-16525840D02*
X2433428Y-16563936D01*
X2433428Y-16563936D02*
X2423904Y-16582983D01*
X2423904Y-16582983D02*
X2414381Y-16592507D01*
X2414381Y-16592507D02*
X2395333Y-16602031D01*
X2395333Y-16602031D02*
X2376285Y-16602031D01*
X2376285Y-16602031D02*
X2357238Y-16592507D01*
X2357238Y-16592507D02*
X2347714Y-16582983D01*
X2347714Y-16582983D02*
X2338190Y-16563936D01*
X2338190Y-16563936D02*
X2328666Y-16525840D01*
X2328666Y-16525840D02*
X2328666Y-16478221D01*
X2328666Y-16478221D02*
X2338190Y-16440126D01*
X2338190Y-16440126D02*
X2347714Y-16421079D01*
X2347714Y-16421079D02*
X2357238Y-16411555D01*
X2357238Y-16411555D02*
X2376285Y-16402031D01*
X2566761Y-16402031D02*
X2585809Y-16402031D01*
X2585809Y-16402031D02*
X2604857Y-16411555D01*
X2604857Y-16411555D02*
X2614381Y-16421079D01*
X2614381Y-16421079D02*
X2623904Y-16440126D01*
X2623904Y-16440126D02*
X2633428Y-16478221D01*
X2633428Y-16478221D02*
X2633428Y-16525840D01*
X2633428Y-16525840D02*
X2623904Y-16563936D01*
X2623904Y-16563936D02*
X2614381Y-16582983D01*
X2614381Y-16582983D02*
X2604857Y-16592507D01*
X2604857Y-16592507D02*
X2585809Y-16602031D01*
X2585809Y-16602031D02*
X2566761Y-16602031D01*
X2566761Y-16602031D02*
X2547714Y-16592507D01*
X2547714Y-16592507D02*
X2538190Y-16582983D01*
X2538190Y-16582983D02*
X2528666Y-16563936D01*
X2528666Y-16563936D02*
X2519142Y-16525840D01*
X2519142Y-16525840D02*
X2519142Y-16478221D01*
X2519142Y-16478221D02*
X2528666Y-16440126D01*
X2528666Y-16440126D02*
X2538190Y-16421079D01*
X2538190Y-16421079D02*
X2547714Y-16411555D01*
X2547714Y-16411555D02*
X2566761Y-16402031D01*
X2719142Y-16602031D02*
X2719142Y-16468698D01*
X2719142Y-16487745D02*
X2728666Y-16478221D01*
X2728666Y-16478221D02*
X2747714Y-16468698D01*
X2747714Y-16468698D02*
X2776285Y-16468698D01*
X2776285Y-16468698D02*
X2795333Y-16478221D01*
X2795333Y-16478221D02*
X2804857Y-16497269D01*
X2804857Y-16497269D02*
X2804857Y-16602031D01*
X2804857Y-16497269D02*
X2814380Y-16478221D01*
X2814380Y-16478221D02*
X2833428Y-16468698D01*
X2833428Y-16468698D02*
X2861999Y-16468698D01*
X2861999Y-16468698D02*
X2881047Y-16478221D01*
X2881047Y-16478221D02*
X2890571Y-16497269D01*
X2890571Y-16497269D02*
X2890571Y-16602031D01*
X2985809Y-16602031D02*
X2985809Y-16468698D01*
X2985809Y-16487745D02*
X2995333Y-16478221D01*
X2995333Y-16478221D02*
X3014380Y-16468698D01*
X3014380Y-16468698D02*
X3042952Y-16468698D01*
X3042952Y-16468698D02*
X3062000Y-16478221D01*
X3062000Y-16478221D02*
X3071523Y-16497269D01*
X3071523Y-16497269D02*
X3071523Y-16602031D01*
X3071523Y-16497269D02*
X3081047Y-16478221D01*
X3081047Y-16478221D02*
X3100095Y-16468698D01*
X3100095Y-16468698D02*
X3128666Y-16468698D01*
X3128666Y-16468698D02*
X3147714Y-16478221D01*
X3147714Y-16478221D02*
X3157238Y-16497269D01*
X3157238Y-16497269D02*
X3157238Y-16602031D01*
X3547714Y-16392507D02*
X3376285Y-16649650D01*
X3804857Y-16402031D02*
X3823904Y-16402031D01*
X3823904Y-16402031D02*
X3842952Y-16411555D01*
X3842952Y-16411555D02*
X3852476Y-16421079D01*
X3852476Y-16421079D02*
X3862000Y-16440126D01*
X3862000Y-16440126D02*
X3871523Y-16478221D01*
X3871523Y-16478221D02*
X3871523Y-16525840D01*
X3871523Y-16525840D02*
X3862000Y-16563936D01*
X3862000Y-16563936D02*
X3852476Y-16582983D01*
X3852476Y-16582983D02*
X3842952Y-16592507D01*
X3842952Y-16592507D02*
X3823904Y-16602031D01*
X3823904Y-16602031D02*
X3804857Y-16602031D01*
X3804857Y-16602031D02*
X3785809Y-16592507D01*
X3785809Y-16592507D02*
X3776285Y-16582983D01*
X3776285Y-16582983D02*
X3766762Y-16563936D01*
X3766762Y-16563936D02*
X3757238Y-16525840D01*
X3757238Y-16525840D02*
X3757238Y-16478221D01*
X3757238Y-16478221D02*
X3766762Y-16440126D01*
X3766762Y-16440126D02*
X3776285Y-16421079D01*
X3776285Y-16421079D02*
X3785809Y-16411555D01*
X3785809Y-16411555D02*
X3804857Y-16402031D01*
X3957238Y-16582983D02*
X3966762Y-16592507D01*
X3966762Y-16592507D02*
X3957238Y-16602031D01*
X3957238Y-16602031D02*
X3947714Y-16592507D01*
X3947714Y-16592507D02*
X3957238Y-16582983D01*
X3957238Y-16582983D02*
X3957238Y-16602031D01*
X4090571Y-16402031D02*
X4109619Y-16402031D01*
X4109619Y-16402031D02*
X4128666Y-16411555D01*
X4128666Y-16411555D02*
X4138190Y-16421079D01*
X4138190Y-16421079D02*
X4147714Y-16440126D01*
X4147714Y-16440126D02*
X4157238Y-16478221D01*
X4157238Y-16478221D02*
X4157238Y-16525840D01*
X4157238Y-16525840D02*
X4147714Y-16563936D01*
X4147714Y-16563936D02*
X4138190Y-16582983D01*
X4138190Y-16582983D02*
X4128666Y-16592507D01*
X4128666Y-16592507D02*
X4109619Y-16602031D01*
X4109619Y-16602031D02*
X4090571Y-16602031D01*
X4090571Y-16602031D02*
X4071523Y-16592507D01*
X4071523Y-16592507D02*
X4062000Y-16582983D01*
X4062000Y-16582983D02*
X4052476Y-16563936D01*
X4052476Y-16563936D02*
X4042952Y-16525840D01*
X4042952Y-16525840D02*
X4042952Y-16478221D01*
X4042952Y-16478221D02*
X4052476Y-16440126D01*
X4052476Y-16440126D02*
X4062000Y-16421079D01*
X4062000Y-16421079D02*
X4071523Y-16411555D01*
X4071523Y-16411555D02*
X4090571Y-16402031D01*
X4338190Y-16402031D02*
X4242952Y-16402031D01*
X4242952Y-16402031D02*
X4233428Y-16497269D01*
X4233428Y-16497269D02*
X4242952Y-16487745D01*
X4242952Y-16487745D02*
X4262000Y-16478221D01*
X4262000Y-16478221D02*
X4309619Y-16478221D01*
X4309619Y-16478221D02*
X4328666Y-16487745D01*
X4328666Y-16487745D02*
X4338190Y-16497269D01*
X4338190Y-16497269D02*
X4347714Y-16516317D01*
X4347714Y-16516317D02*
X4347714Y-16563936D01*
X4347714Y-16563936D02*
X4338190Y-16582983D01*
X4338190Y-16582983D02*
X4328666Y-16592507D01*
X4328666Y-16592507D02*
X4309619Y-16602031D01*
X4309619Y-16602031D02*
X4262000Y-16602031D01*
X4262000Y-16602031D02*
X4242952Y-16592507D01*
X4242952Y-16592507D02*
X4233428Y-16582983D01*
X4528666Y-16402031D02*
X4433428Y-16402031D01*
X4433428Y-16402031D02*
X4423905Y-16497269D01*
X4423905Y-16497269D02*
X4433428Y-16487745D01*
X4433428Y-16487745D02*
X4452476Y-16478221D01*
X4452476Y-16478221D02*
X4500095Y-16478221D01*
X4500095Y-16478221D02*
X4519143Y-16487745D01*
X4519143Y-16487745D02*
X4528666Y-16497269D01*
X4528666Y-16497269D02*
X4538190Y-16516317D01*
X4538190Y-16516317D02*
X4538190Y-16563936D01*
X4538190Y-16563936D02*
X4528666Y-16582983D01*
X4528666Y-16582983D02*
X4519143Y-16592507D01*
X4519143Y-16592507D02*
X4500095Y-16602031D01*
X4500095Y-16602031D02*
X4452476Y-16602031D01*
X4452476Y-16602031D02*
X4433428Y-16592507D01*
X4433428Y-16592507D02*
X4423905Y-16582983D01*
X4728666Y-16602031D02*
X4614381Y-16602031D01*
X4671524Y-16602031D02*
X4671524Y-16402031D01*
X4671524Y-16402031D02*
X4652476Y-16430602D01*
X4652476Y-16430602D02*
X4633428Y-16449650D01*
X4633428Y-16449650D02*
X4614381Y-16459174D01*
X4804857Y-16402031D02*
X4804857Y-16440126D01*
X4881047Y-16402031D02*
X4881047Y-16440126D01*
X5176286Y-16678221D02*
X5166762Y-16668698D01*
X5166762Y-16668698D02*
X5147714Y-16640126D01*
X5147714Y-16640126D02*
X5138190Y-16621079D01*
X5138190Y-16621079D02*
X5128667Y-16592507D01*
X5128667Y-16592507D02*
X5119143Y-16544888D01*
X5119143Y-16544888D02*
X5119143Y-16506793D01*
X5119143Y-16506793D02*
X5128667Y-16459174D01*
X5128667Y-16459174D02*
X5138190Y-16430602D01*
X5138190Y-16430602D02*
X5147714Y-16411555D01*
X5147714Y-16411555D02*
X5166762Y-16382983D01*
X5166762Y-16382983D02*
X5176286Y-16373459D01*
X5242952Y-16421079D02*
X5252476Y-16411555D01*
X5252476Y-16411555D02*
X5271524Y-16402031D01*
X5271524Y-16402031D02*
X5319143Y-16402031D01*
X5319143Y-16402031D02*
X5338190Y-16411555D01*
X5338190Y-16411555D02*
X5347714Y-16421079D01*
X5347714Y-16421079D02*
X5357238Y-16440126D01*
X5357238Y-16440126D02*
X5357238Y-16459174D01*
X5357238Y-16459174D02*
X5347714Y-16487745D01*
X5347714Y-16487745D02*
X5233428Y-16602031D01*
X5233428Y-16602031D02*
X5357238Y-16602031D01*
X5595333Y-16602031D02*
X5595333Y-16402031D01*
X5681047Y-16602031D02*
X5681047Y-16497269D01*
X5681047Y-16497269D02*
X5671524Y-16478221D01*
X5671524Y-16478221D02*
X5652476Y-16468698D01*
X5652476Y-16468698D02*
X5623905Y-16468698D01*
X5623905Y-16468698D02*
X5604857Y-16478221D01*
X5604857Y-16478221D02*
X5595333Y-16487745D01*
X5804857Y-16602031D02*
X5785809Y-16592507D01*
X5785809Y-16592507D02*
X5776286Y-16582983D01*
X5776286Y-16582983D02*
X5766762Y-16563936D01*
X5766762Y-16563936D02*
X5766762Y-16506793D01*
X5766762Y-16506793D02*
X5776286Y-16487745D01*
X5776286Y-16487745D02*
X5785809Y-16478221D01*
X5785809Y-16478221D02*
X5804857Y-16468698D01*
X5804857Y-16468698D02*
X5833428Y-16468698D01*
X5833428Y-16468698D02*
X5852476Y-16478221D01*
X5852476Y-16478221D02*
X5862000Y-16487745D01*
X5862000Y-16487745D02*
X5871524Y-16506793D01*
X5871524Y-16506793D02*
X5871524Y-16563936D01*
X5871524Y-16563936D02*
X5862000Y-16582983D01*
X5862000Y-16582983D02*
X5852476Y-16592507D01*
X5852476Y-16592507D02*
X5833428Y-16602031D01*
X5833428Y-16602031D02*
X5804857Y-16602031D01*
X5985809Y-16602031D02*
X5966762Y-16592507D01*
X5966762Y-16592507D02*
X5957238Y-16573459D01*
X5957238Y-16573459D02*
X5957238Y-16402031D01*
X6138190Y-16592507D02*
X6119143Y-16602031D01*
X6119143Y-16602031D02*
X6081047Y-16602031D01*
X6081047Y-16602031D02*
X6062000Y-16592507D01*
X6062000Y-16592507D02*
X6052476Y-16573459D01*
X6052476Y-16573459D02*
X6052476Y-16497269D01*
X6052476Y-16497269D02*
X6062000Y-16478221D01*
X6062000Y-16478221D02*
X6081047Y-16468698D01*
X6081047Y-16468698D02*
X6119143Y-16468698D01*
X6119143Y-16468698D02*
X6138190Y-16478221D01*
X6138190Y-16478221D02*
X6147714Y-16497269D01*
X6147714Y-16497269D02*
X6147714Y-16516317D01*
X6147714Y-16516317D02*
X6052476Y-16535364D01*
X6223905Y-16592507D02*
X6242952Y-16602031D01*
X6242952Y-16602031D02*
X6281047Y-16602031D01*
X6281047Y-16602031D02*
X6300095Y-16592507D01*
X6300095Y-16592507D02*
X6309619Y-16573459D01*
X6309619Y-16573459D02*
X6309619Y-16563936D01*
X6309619Y-16563936D02*
X6300095Y-16544888D01*
X6300095Y-16544888D02*
X6281047Y-16535364D01*
X6281047Y-16535364D02*
X6252476Y-16535364D01*
X6252476Y-16535364D02*
X6233428Y-16525840D01*
X6233428Y-16525840D02*
X6223905Y-16506793D01*
X6223905Y-16506793D02*
X6223905Y-16497269D01*
X6223905Y-16497269D02*
X6233428Y-16478221D01*
X6233428Y-16478221D02*
X6252476Y-16468698D01*
X6252476Y-16468698D02*
X6281047Y-16468698D01*
X6281047Y-16468698D02*
X6300095Y-16478221D01*
X6376286Y-16678221D02*
X6385809Y-16668698D01*
X6385809Y-16668698D02*
X6404857Y-16640126D01*
X6404857Y-16640126D02*
X6414381Y-16621079D01*
X6414381Y-16621079D02*
X6423905Y-16592507D01*
X6423905Y-16592507D02*
X6433428Y-16544888D01*
X6433428Y-16544888D02*
X6433428Y-16506793D01*
X6433428Y-16506793D02*
X6423905Y-16459174D01*
X6423905Y-16459174D02*
X6414381Y-16430602D01*
X6414381Y-16430602D02*
X6404857Y-16411555D01*
X6404857Y-16411555D02*
X6385809Y-16382983D01*
X6385809Y-16382983D02*
X6376286Y-16373459D01*
M02*
