M48
; DRILL file {KiCad 8.0.4} date 2024-09-01T13:46:44+0700
; FORMAT={-:-/ absolute / metric / decimal}
; #@! TF.CreationDate,2024-09-01T13:46:44+07:00
; #@! TF.GenerationSoftware,Kicad,Pcbnew,8.0.4
; #@! TF.FileFunction,Plated,1,2,PTH
FMAT,2
METRIC
; #@! TA.AperFunction,Plated,PTH,ComponentDrill
T1C0.400
; #@! TA.AperFunction,Plated,PTH,ViaDrill
T2C0.500
; #@! TA.AperFunction,Plated,PTH,ComponentDrill
T3C0.800
; #@! TA.AperFunction,Plated,PTH,ComponentDrill
T4C1.000
; #@! TA.AperFunction,Plated,PTH,ComponentDrill
T5C1.400
%
G90
G05
T1
X34.944Y-102.149
X35.995Y-98.915
X40.197Y-85.981
X41.248Y-82.747
X45.45Y-69.813
X46.501Y-66.579
X53.361Y-103.716
X54.412Y-100.483
X58.613Y-87.548
X59.664Y-84.315
X63.868Y-71.381
X64.918Y-68.147
X71.778Y-105.284
X72.829Y-102.051
X77.031Y-89.116
X78.082Y-85.883
X82.285Y-72.948
X83.335Y-69.715
X84.942Y-123.02
X85.992Y-119.787
X90.195Y-106.852
X91.245Y-103.619
X95.448Y-90.684
X96.499Y-87.451
X100.701Y-74.516
X100.763Y-132.577
X101.752Y-71.283
X101.813Y-129.343
X106.016Y-116.409
X107.067Y-113.175
X111.269Y-100.241
X112.32Y-97.007
X116.523Y-84.073
X117.573Y-80.839
X120.864Y-143.524
X121.837Y-125.966
X121.914Y-140.291
X122.888Y-122.732
X127.09Y-109.798
X128.141Y-106.564
X132.344Y-93.63
X133.394Y-90.396
X178.576Y-85.042
X179.626Y-88.276
X183.829Y-101.21
X184.88Y-104.444
X189.082Y-117.378
X190.075Y-135.061
X190.133Y-120.612
X191.126Y-138.295
X194.397Y-75.486
X195.448Y-78.719
X199.65Y-91.653
X200.701Y-94.887
X204.904Y-107.821
X205.954Y-111.055
X210.157Y-123.989
X210.218Y-65.929
X211.207Y-127.223
X211.269Y-69.162
X215.471Y-82.097
X216.522Y-85.33
X220.725Y-98.265
X221.775Y-101.498
X225.978Y-114.433
X227.029Y-117.666
X228.635Y-64.361
X229.686Y-67.594
X233.888Y-80.529
X234.939Y-83.762
X239.142Y-96.697
X240.192Y-99.93
X247.052Y-62.793
X248.103Y-66.027
X252.305Y-78.961
X253.356Y-82.194
X257.559Y-95.129
X258.609Y-98.362
X265.469Y-61.225
X266.519Y-64.459
X270.722Y-77.393
X271.773Y-80.627
X275.975Y-93.561
X277.026Y-96.795
T2
X174.651Y-125.578
T3
X130.401Y-55.378
X132.401Y-55.378
X134.401Y-55.378
T4
X134.431Y-59.678
X136.971Y-59.678
X140.266Y-59.67
X140.266Y-62.21
X140.266Y-64.75
X140.266Y-67.29
X140.266Y-69.83
X140.266Y-72.37
X140.266Y-74.91
X140.266Y-77.45
X140.266Y-79.99
X140.266Y-82.53
X140.266Y-85.07
X140.286Y-57.1
X155.506Y-57.13
X155.506Y-59.67
X155.506Y-62.21
X155.506Y-64.75
X155.506Y-67.29
X155.506Y-69.83
X155.506Y-72.37
X155.506Y-74.91
X155.506Y-77.45
X155.506Y-79.99
X155.506Y-82.53
X155.506Y-85.07
T5
X128.251Y-55.378
X136.551Y-55.378
M30
