G04 #@! TF.GenerationSoftware,KiCad,Pcbnew,8.0.4*
G04 #@! TF.CreationDate,2024-09-01T13:46:42+07:00*
G04 #@! TF.ProjectId,ozprey,6f7a7072-6579-42e6-9b69-6361645f7063,1.0*
G04 #@! TF.SameCoordinates,Original*
G04 #@! TF.FileFunction,Legend,Top*
G04 #@! TF.FilePolarity,Positive*
%FSLAX46Y46*%
G04 Gerber Fmt 4.6, Leading zero omitted, Abs format (unit mm)*
G04 Created by KiCad (PCBNEW 8.0.4) date 2024-09-01 13:46:42*
%MOMM*%
%LPD*%
G01*
G04 APERTURE LIST*
%ADD10C,0.125000*%
%ADD11C,0.300000*%
%ADD12C,0.200000*%
%ADD13R,1.450000X0.800000*%
%ADD14R,0.900000X1.270000*%
%ADD15C,0.900000*%
%ADD16C,2.200000*%
%ADD17R,1.700000X1.700000*%
%ADD18O,1.700000X1.700000*%
%ADD19C,2.304000*%
%ADD20C,1.512000*%
%ADD21C,1.701800*%
%ADD22C,3.000000*%
%ADD23C,3.429000*%
%ADD24C,0.990600*%
G04 APERTURE END LIST*
D10*
X137597228Y-53410141D02*
X137692466Y-53410141D01*
X137692466Y-53410141D02*
X137740085Y-53433951D01*
X137740085Y-53433951D02*
X137787704Y-53481570D01*
X137787704Y-53481570D02*
X137811514Y-53576808D01*
X137811514Y-53576808D02*
X137811514Y-53743474D01*
X137811514Y-53743474D02*
X137787704Y-53838712D01*
X137787704Y-53838712D02*
X137740085Y-53886332D01*
X137740085Y-53886332D02*
X137692466Y-53910141D01*
X137692466Y-53910141D02*
X137597228Y-53910141D01*
X137597228Y-53910141D02*
X137549609Y-53886332D01*
X137549609Y-53886332D02*
X137501990Y-53838712D01*
X137501990Y-53838712D02*
X137478181Y-53743474D01*
X137478181Y-53743474D02*
X137478181Y-53576808D01*
X137478181Y-53576808D02*
X137501990Y-53481570D01*
X137501990Y-53481570D02*
X137549609Y-53433951D01*
X137549609Y-53433951D02*
X137597228Y-53410141D01*
X138025800Y-53910141D02*
X138025800Y-53410141D01*
X138025800Y-53410141D02*
X138311514Y-53910141D01*
X138311514Y-53910141D02*
X138311514Y-53410141D01*
X134094992Y-61619665D02*
X134475945Y-61619665D01*
X134285468Y-61810141D02*
X134285468Y-61429189D01*
X135261659Y-61548236D02*
X135333087Y-61572046D01*
X135333087Y-61572046D02*
X135356897Y-61595855D01*
X135356897Y-61595855D02*
X135380706Y-61643474D01*
X135380706Y-61643474D02*
X135380706Y-61714903D01*
X135380706Y-61714903D02*
X135356897Y-61762522D01*
X135356897Y-61762522D02*
X135333087Y-61786332D01*
X135333087Y-61786332D02*
X135285468Y-61810141D01*
X135285468Y-61810141D02*
X135094992Y-61810141D01*
X135094992Y-61810141D02*
X135094992Y-61310141D01*
X135094992Y-61310141D02*
X135261659Y-61310141D01*
X135261659Y-61310141D02*
X135309278Y-61333951D01*
X135309278Y-61333951D02*
X135333087Y-61357760D01*
X135333087Y-61357760D02*
X135356897Y-61405379D01*
X135356897Y-61405379D02*
X135356897Y-61452998D01*
X135356897Y-61452998D02*
X135333087Y-61500617D01*
X135333087Y-61500617D02*
X135309278Y-61524427D01*
X135309278Y-61524427D02*
X135261659Y-61548236D01*
X135261659Y-61548236D02*
X135094992Y-61548236D01*
X135571183Y-61667284D02*
X135809278Y-61667284D01*
X135523564Y-61810141D02*
X135690230Y-61310141D01*
X135690230Y-61310141D02*
X135856897Y-61810141D01*
X135952135Y-61310141D02*
X136237849Y-61310141D01*
X136094992Y-61810141D02*
X136094992Y-61310141D01*
X136785467Y-61619665D02*
X137166420Y-61619665D01*
D11*
G36*
X136587256Y-141100223D02*
G01*
X136881939Y-141145454D01*
X137198111Y-141234068D01*
X137492302Y-141362066D01*
X137562415Y-141400220D01*
X137825556Y-141570946D01*
X138058106Y-141768050D01*
X138260064Y-141991532D01*
X138431431Y-142241392D01*
X138568634Y-142510304D01*
X138666637Y-142792404D01*
X138725438Y-143087694D01*
X138745039Y-143396172D01*
X138723913Y-143703161D01*
X138660534Y-144001492D01*
X138566253Y-144265188D01*
X138426336Y-144540410D01*
X138250401Y-144793812D01*
X138059205Y-145005244D01*
X137817971Y-145211137D01*
X137547646Y-145385513D01*
X137276651Y-145516689D01*
X136984962Y-145616380D01*
X136674096Y-145679149D01*
X136377920Y-145704071D01*
X136275743Y-145705733D01*
X135964161Y-145690656D01*
X135669267Y-145645426D01*
X135352683Y-145556811D01*
X135057897Y-145428813D01*
X134987607Y-145390660D01*
X134725015Y-145220025D01*
X134492648Y-145023196D01*
X134290507Y-144800172D01*
X134118591Y-144550953D01*
X133982028Y-144282041D01*
X133884484Y-143999941D01*
X133825957Y-143704651D01*
X133806448Y-143396172D01*
X135436036Y-143396172D01*
X135475300Y-143693507D01*
X135547411Y-143866584D01*
X135737955Y-144095035D01*
X135849295Y-144171399D01*
X136132718Y-144267931D01*
X136275743Y-144278378D01*
X136577364Y-144227814D01*
X136700726Y-144171399D01*
X136926595Y-143980730D01*
X137004076Y-143866584D01*
X137102290Y-143574736D01*
X137115450Y-143396172D01*
X137076703Y-143098131D01*
X137005541Y-142925761D01*
X136816949Y-142696680D01*
X136705122Y-142620946D01*
X136420314Y-142524414D01*
X136275743Y-142513967D01*
X135982423Y-142560039D01*
X135844899Y-142620946D01*
X135621045Y-142810986D01*
X135544480Y-142925761D01*
X135448851Y-143216947D01*
X135436036Y-143396172D01*
X133806448Y-143396172D01*
X133827401Y-143088522D01*
X133890260Y-142790223D01*
X133983769Y-142527156D01*
X134124520Y-142251935D01*
X134300943Y-141998533D01*
X134492282Y-141787101D01*
X134733516Y-141580374D01*
X135003841Y-141405509D01*
X135274836Y-141274191D01*
X135567785Y-141174499D01*
X135878765Y-141111731D01*
X136174064Y-141086808D01*
X136275743Y-141085147D01*
X136587256Y-141100223D01*
G37*
G36*
X139266741Y-145579704D02*
G01*
X139266741Y-144487938D01*
X140971068Y-142681029D01*
X139341480Y-142681029D01*
X139341480Y-141211176D01*
X143054948Y-141211176D01*
X143054948Y-142304407D01*
X141475185Y-144109850D01*
X143088653Y-144109850D01*
X143088653Y-145579704D01*
X139266741Y-145579704D01*
G37*
G36*
X147055829Y-141102641D02*
G01*
X147373527Y-141164142D01*
X147671287Y-141269926D01*
X147858716Y-141365049D01*
X148117694Y-141541389D01*
X148343983Y-141755519D01*
X148537582Y-142007439D01*
X148631012Y-142163723D01*
X148755393Y-142434741D01*
X148844236Y-142730489D01*
X148897542Y-143050966D01*
X148915033Y-143351669D01*
X148915311Y-143396172D01*
X148899569Y-143698452D01*
X148845888Y-144014099D01*
X148754110Y-144312083D01*
X148627527Y-144587761D01*
X148469428Y-144838503D01*
X148298353Y-145044812D01*
X148062392Y-145259547D01*
X147796343Y-145435539D01*
X147602261Y-145531343D01*
X147317862Y-145630630D01*
X147014762Y-145688703D01*
X146722987Y-145705733D01*
X146422935Y-145684484D01*
X146135339Y-145620736D01*
X145845898Y-145505928D01*
X145606309Y-145361350D01*
X145606309Y-147344114D01*
X143934222Y-147344114D01*
X143934222Y-143396172D01*
X145606309Y-143396172D01*
X145644539Y-143693507D01*
X145714752Y-143866584D01*
X145903974Y-144095035D01*
X146015171Y-144171399D01*
X146301302Y-144267931D01*
X146446016Y-144278378D01*
X146738705Y-144232306D01*
X146875394Y-144171399D01*
X147099878Y-143980730D01*
X147175813Y-143866584D01*
X147272735Y-143574736D01*
X147285722Y-143396172D01*
X147246459Y-143098131D01*
X147174348Y-142925761D01*
X146983804Y-142696680D01*
X146872464Y-142620946D01*
X146589041Y-142524414D01*
X146446016Y-142513967D01*
X146143702Y-142564531D01*
X146019568Y-142620946D01*
X145795021Y-142810986D01*
X145717683Y-142925761D01*
X145619469Y-143216947D01*
X145606309Y-143396172D01*
X143934222Y-143396172D01*
X143934222Y-141211176D01*
X145363043Y-141211176D01*
X145363043Y-141640555D01*
X145586880Y-141434189D01*
X145841947Y-141281744D01*
X145952157Y-141233158D01*
X146235654Y-141142963D01*
X146540995Y-141094397D01*
X146756692Y-141085147D01*
X147055829Y-141102641D01*
G37*
G36*
X149637781Y-145579704D02*
G01*
X149637781Y-141211176D01*
X151318660Y-141211176D01*
X151318660Y-141665468D01*
X151502715Y-141419331D01*
X151749883Y-141241458D01*
X151787607Y-141222900D01*
X152068665Y-141123724D01*
X152373286Y-141080086D01*
X152464648Y-141077819D01*
X152731361Y-141096870D01*
X152952645Y-141136438D01*
X152763601Y-142858350D01*
X152473807Y-142769392D01*
X152429477Y-142760164D01*
X152129862Y-142724422D01*
X152074836Y-142723528D01*
X151775150Y-142767858D01*
X151532617Y-142900848D01*
X151365672Y-143144769D01*
X151318660Y-143454791D01*
X151318660Y-145579704D01*
X149637781Y-145579704D01*
G37*
G36*
X155884758Y-141101839D02*
G01*
X156188958Y-141151917D01*
X156472292Y-141235379D01*
X156620684Y-141296172D01*
X156895142Y-141443462D01*
X157137830Y-141623382D01*
X157348747Y-141835930D01*
X157387118Y-141882355D01*
X157556905Y-142129708D01*
X157688911Y-142402822D01*
X157783135Y-142701695D01*
X157797446Y-142764560D01*
X157840955Y-143056138D01*
X157847833Y-143362089D01*
X157818080Y-143682415D01*
X157785722Y-143866584D01*
X154636455Y-143866584D01*
X154757144Y-144143653D01*
X154780070Y-144168468D01*
X155033448Y-144337375D01*
X155122987Y-144372167D01*
X155413903Y-144435136D01*
X155610984Y-144445440D01*
X155925901Y-144430203D01*
X156222921Y-144384492D01*
X156353971Y-144353116D01*
X156633056Y-144260205D01*
X156910690Y-144131500D01*
X157038339Y-144060025D01*
X157526337Y-145167910D01*
X157264667Y-145325355D01*
X157000237Y-145437554D01*
X156701467Y-145534727D01*
X156407964Y-145608382D01*
X156290956Y-145632460D01*
X155990774Y-145679901D01*
X155683188Y-145703944D01*
X155577279Y-145705733D01*
X155264263Y-145691848D01*
X154968919Y-145650194D01*
X154653022Y-145568587D01*
X154360205Y-145450709D01*
X154290607Y-145415572D01*
X154031130Y-145256112D01*
X153802244Y-145067893D01*
X153603949Y-144850913D01*
X153436246Y-144605175D01*
X153303530Y-144333973D01*
X153208734Y-144040607D01*
X153151856Y-143725076D01*
X153133192Y-143430804D01*
X153132896Y-143387380D01*
X153150213Y-143078002D01*
X153202162Y-142785512D01*
X153205599Y-142774819D01*
X154744899Y-142774819D01*
X156207425Y-142774819D01*
X156107494Y-142492206D01*
X156013985Y-142405523D01*
X155742944Y-142285611D01*
X155509868Y-142261909D01*
X155217143Y-142297812D01*
X154977907Y-142405523D01*
X154782350Y-142628699D01*
X154744899Y-142774819D01*
X153205599Y-142774819D01*
X153299307Y-142483277D01*
X153310217Y-142456814D01*
X153450448Y-142180334D01*
X153625313Y-141931213D01*
X153814334Y-141728482D01*
X154052687Y-141534192D01*
X154318399Y-141372456D01*
X154583699Y-141253674D01*
X154869177Y-141164802D01*
X155172400Y-141108846D01*
X155493370Y-141085805D01*
X155559693Y-141085147D01*
X155884758Y-141101839D01*
G37*
G36*
X159347900Y-147452558D02*
G01*
X159053778Y-147439935D01*
X158746118Y-147398397D01*
X158685513Y-147386612D01*
X158399126Y-147311994D01*
X158125590Y-147201169D01*
X158109588Y-147193172D01*
X158456902Y-145798057D01*
X158735714Y-145898575D01*
X158767579Y-145906500D01*
X159066561Y-145948625D01*
X159095841Y-145948999D01*
X159391901Y-145899965D01*
X159441689Y-145880122D01*
X159639488Y-145662609D01*
X159649784Y-145629529D01*
X159667369Y-145563583D01*
X157986490Y-141211176D01*
X159802191Y-141211176D01*
X160616986Y-143958908D01*
X161405401Y-141211176D01*
X163178605Y-141211176D01*
X161414194Y-145890380D01*
X161292836Y-146163688D01*
X161142952Y-146436126D01*
X160959827Y-146695329D01*
X160861717Y-146807757D01*
X160633282Y-147020827D01*
X160389262Y-147188529D01*
X160153901Y-147301616D01*
X159859894Y-147393596D01*
X159555995Y-147443124D01*
X159347900Y-147452558D01*
G37*
D10*
X157833016Y-55790834D02*
X157594921Y-55957500D01*
X157833016Y-56076548D02*
X157333016Y-56076548D01*
X157333016Y-56076548D02*
X157333016Y-55886072D01*
X157333016Y-55886072D02*
X157356826Y-55838453D01*
X157356826Y-55838453D02*
X157380635Y-55814643D01*
X157380635Y-55814643D02*
X157428254Y-55790834D01*
X157428254Y-55790834D02*
X157499683Y-55790834D01*
X157499683Y-55790834D02*
X157547302Y-55814643D01*
X157547302Y-55814643D02*
X157571111Y-55838453D01*
X157571111Y-55838453D02*
X157594921Y-55886072D01*
X157594921Y-55886072D02*
X157594921Y-56076548D01*
X157809207Y-55600357D02*
X157833016Y-55528929D01*
X157833016Y-55528929D02*
X157833016Y-55409881D01*
X157833016Y-55409881D02*
X157809207Y-55362262D01*
X157809207Y-55362262D02*
X157785397Y-55338453D01*
X157785397Y-55338453D02*
X157737778Y-55314643D01*
X157737778Y-55314643D02*
X157690159Y-55314643D01*
X157690159Y-55314643D02*
X157642540Y-55338453D01*
X157642540Y-55338453D02*
X157618730Y-55362262D01*
X157618730Y-55362262D02*
X157594921Y-55409881D01*
X157594921Y-55409881D02*
X157571111Y-55505119D01*
X157571111Y-55505119D02*
X157547302Y-55552738D01*
X157547302Y-55552738D02*
X157523492Y-55576548D01*
X157523492Y-55576548D02*
X157475873Y-55600357D01*
X157475873Y-55600357D02*
X157428254Y-55600357D01*
X157428254Y-55600357D02*
X157380635Y-55576548D01*
X157380635Y-55576548D02*
X157356826Y-55552738D01*
X157356826Y-55552738D02*
X157333016Y-55505119D01*
X157333016Y-55505119D02*
X157333016Y-55386072D01*
X157333016Y-55386072D02*
X157356826Y-55314643D01*
X157333016Y-55171786D02*
X157333016Y-54886072D01*
X157833016Y-55028929D02*
X157333016Y-55028929D01*
X157833016Y-54457501D02*
X157833016Y-54743215D01*
X157833016Y-54600358D02*
X157333016Y-54600358D01*
X157333016Y-54600358D02*
X157404445Y-54647977D01*
X157404445Y-54647977D02*
X157452064Y-54695596D01*
X157452064Y-54695596D02*
X157475873Y-54743215D01*
G36*
X148651284Y-146770736D02*
G01*
X148683868Y-146730516D01*
X148720435Y-146697784D01*
X148747027Y-146680122D01*
X148793290Y-146659406D01*
X148842778Y-146649251D01*
X148866706Y-146648126D01*
X148920512Y-146652029D01*
X148968175Y-146663737D01*
X149013927Y-146685900D01*
X149030105Y-146697463D01*
X149065892Y-146732259D01*
X149095096Y-146774972D01*
X149115751Y-146820185D01*
X149121451Y-146836682D01*
X149135383Y-146889479D01*
X149143939Y-146940400D01*
X149148893Y-146995076D01*
X149150272Y-147045998D01*
X149148636Y-147095337D01*
X149142759Y-147148777D01*
X149132607Y-147199072D01*
X149118182Y-147246222D01*
X149116078Y-147251895D01*
X149094274Y-147299656D01*
X149067332Y-147341273D01*
X149031368Y-147380309D01*
X149015206Y-147393800D01*
X148970503Y-147420977D01*
X148919741Y-147438088D01*
X148868876Y-147444882D01*
X148850830Y-147445335D01*
X148796053Y-147440742D01*
X148746699Y-147426962D01*
X148702768Y-147403997D01*
X148664259Y-147371845D01*
X148644689Y-147349348D01*
X148636141Y-147429704D01*
X148530628Y-147429704D01*
X148530628Y-146875028D01*
X148651284Y-146875028D01*
X148651284Y-147248231D01*
X148682196Y-147286406D01*
X148722740Y-147317898D01*
X148725534Y-147319550D01*
X148772123Y-147339150D01*
X148822010Y-147345684D01*
X148871857Y-147339849D01*
X148919132Y-147319680D01*
X148957867Y-147285105D01*
X148967823Y-147271923D01*
X148992499Y-147224211D01*
X149007653Y-147171355D01*
X149015679Y-147117042D01*
X149018670Y-147064497D01*
X149018869Y-147045754D01*
X149017305Y-146992502D01*
X149010349Y-146929648D01*
X148997830Y-146876105D01*
X148974356Y-146822272D01*
X148942188Y-146782988D01*
X148892111Y-146755052D01*
X148840816Y-146747777D01*
X148791918Y-146754308D01*
X148744848Y-146775946D01*
X148729442Y-146787345D01*
X148693330Y-146820904D01*
X148661113Y-146860200D01*
X148651284Y-146875028D01*
X148530628Y-146875028D01*
X148530628Y-146355768D01*
X148651284Y-146340625D01*
X148651284Y-146770736D01*
G37*
G36*
X150020265Y-146663758D02*
G01*
X149754529Y-147434588D01*
X149736530Y-147481867D01*
X149715813Y-147526618D01*
X149689883Y-147572924D01*
X149687362Y-147576982D01*
X149656602Y-147618854D01*
X149620069Y-147655473D01*
X149581849Y-147684205D01*
X149537857Y-147707618D01*
X149487091Y-147724734D01*
X149435609Y-147734754D01*
X149417230Y-147736961D01*
X149398423Y-147639752D01*
X149448399Y-147629069D01*
X149497341Y-147612275D01*
X149522010Y-147599697D01*
X149562432Y-147569105D01*
X149593329Y-147531064D01*
X149616663Y-147487991D01*
X149635924Y-147440721D01*
X149639735Y-147429704D01*
X149599435Y-147429704D01*
X149335408Y-146663758D01*
X149464613Y-146663758D01*
X149681256Y-147336891D01*
X149895213Y-146663758D01*
X150020265Y-146663758D01*
G37*
G36*
X151399260Y-146304232D02*
G01*
X151446718Y-146315892D01*
X151463252Y-146328901D01*
X151486275Y-146374154D01*
X151487432Y-146389229D01*
X151473831Y-146437955D01*
X151463252Y-146451267D01*
X151418281Y-146474622D01*
X151399260Y-146476179D01*
X151351555Y-146463309D01*
X151336734Y-146451267D01*
X151313836Y-146406937D01*
X151312310Y-146389229D01*
X151326048Y-146341922D01*
X151336734Y-146328901D01*
X151381064Y-146305774D01*
X151399260Y-146304232D01*
G37*
G36*
X151495492Y-146663758D02*
G01*
X151495492Y-147330052D01*
X151708716Y-147330052D01*
X151708716Y-147429704D01*
X151141340Y-147429704D01*
X151141340Y-147330052D01*
X151374836Y-147330052D01*
X151374836Y-146763409D01*
X151148667Y-146763409D01*
X151148667Y-146663758D01*
X151495492Y-146663758D01*
G37*
G36*
X152573580Y-147391113D02*
G01*
X152527821Y-147415122D01*
X152479546Y-147430925D01*
X152431621Y-147440776D01*
X152381103Y-147445208D01*
X152371103Y-147445335D01*
X152320446Y-147442273D01*
X152269079Y-147431274D01*
X152219611Y-147409340D01*
X152183036Y-147381343D01*
X152151158Y-147342293D01*
X152129712Y-147297409D01*
X152118700Y-147246690D01*
X152117090Y-147215991D01*
X152117090Y-146763409D01*
X151943189Y-146763409D01*
X151943189Y-146663758D01*
X152117090Y-146663758D01*
X152117090Y-146489857D01*
X152237746Y-146475447D01*
X152237746Y-146663758D01*
X152499086Y-146663758D01*
X152484675Y-146763409D01*
X152237746Y-146763409D01*
X152237746Y-147215747D01*
X152244104Y-147265515D01*
X152268919Y-147310361D01*
X152270963Y-147312467D01*
X152315415Y-147337380D01*
X152367718Y-147345392D01*
X152381849Y-147345684D01*
X152432396Y-147341772D01*
X152460251Y-147335670D01*
X152507194Y-147319130D01*
X152526929Y-147309780D01*
X152573580Y-147391113D01*
G37*
G36*
X153091130Y-147345684D02*
G01*
X153142259Y-147342488D01*
X153190016Y-147331589D01*
X153228883Y-147312955D01*
X153264998Y-147277174D01*
X153279148Y-147227768D01*
X153279197Y-147224295D01*
X153270813Y-147174535D01*
X153266497Y-147164700D01*
X153232974Y-147128979D01*
X153215206Y-147118294D01*
X153169850Y-147098938D01*
X153120351Y-147083608D01*
X153096260Y-147077261D01*
X153044783Y-147063077D01*
X152998154Y-147047393D01*
X152959972Y-147031832D01*
X152914445Y-147006233D01*
X152876560Y-146972269D01*
X152870335Y-146964665D01*
X152847369Y-146920319D01*
X152838620Y-146869148D01*
X152838339Y-146856954D01*
X152844637Y-146805775D01*
X152866409Y-146756478D01*
X152899301Y-146718922D01*
X152917962Y-146704302D01*
X152960888Y-146679725D01*
X153009798Y-146662170D01*
X153064691Y-146651637D01*
X153117632Y-146648181D01*
X153125569Y-146648126D01*
X153175077Y-146650097D01*
X153225691Y-146656909D01*
X153276021Y-146670022D01*
X153284571Y-146673039D01*
X153332610Y-146693166D01*
X153378142Y-146718226D01*
X153399853Y-146733123D01*
X153346853Y-146823981D01*
X153304918Y-146795416D01*
X153258797Y-146772003D01*
X153252331Y-146769271D01*
X153202743Y-146754578D01*
X153153764Y-146748533D01*
X153127034Y-146747777D01*
X153076502Y-146750520D01*
X153025857Y-146762288D01*
X153000761Y-146775865D01*
X152969559Y-146814699D01*
X152963391Y-146847917D01*
X152975484Y-146895346D01*
X152981710Y-146904093D01*
X153021164Y-146933421D01*
X153043747Y-146943660D01*
X153092033Y-146960723D01*
X153141172Y-146975532D01*
X153164403Y-146982006D01*
X153213060Y-146996809D01*
X153261071Y-147014933D01*
X153293608Y-147029878D01*
X153337185Y-147057300D01*
X153373396Y-147093944D01*
X153379337Y-147102174D01*
X153401251Y-147149697D01*
X153409390Y-147200348D01*
X153409867Y-147217701D01*
X153404442Y-147269842D01*
X153386146Y-147318494D01*
X153363950Y-147349348D01*
X153325699Y-147383236D01*
X153279823Y-147409431D01*
X153245003Y-147422620D01*
X153193983Y-147435553D01*
X153141000Y-147443117D01*
X153091130Y-147445335D01*
X153041732Y-147443473D01*
X152990685Y-147436925D01*
X152939584Y-147424122D01*
X152916253Y-147415537D01*
X152869459Y-147393580D01*
X152824665Y-147366268D01*
X152795352Y-147343486D01*
X152864229Y-147264107D01*
X152905816Y-147293332D01*
X152952359Y-147317321D01*
X152966567Y-147323214D01*
X153015050Y-147337762D01*
X153066435Y-147344894D01*
X153091130Y-147345684D01*
G37*
G36*
X154267893Y-146355768D02*
G01*
X154267893Y-147429704D01*
X154162135Y-147429704D01*
X154150656Y-147326877D01*
X154120106Y-147365157D01*
X154083355Y-147398096D01*
X154053447Y-147416759D01*
X154007587Y-147435261D01*
X153959309Y-147444330D01*
X153936211Y-147445335D01*
X153883568Y-147441374D01*
X153831466Y-147427683D01*
X153786090Y-147404213D01*
X153773789Y-147395265D01*
X153737143Y-147360108D01*
X153706890Y-147317222D01*
X153685127Y-147272018D01*
X153679023Y-147255558D01*
X153664147Y-147202858D01*
X153655010Y-147152185D01*
X153649721Y-147097910D01*
X153648255Y-147047708D01*
X153779651Y-147047708D01*
X153781246Y-147100959D01*
X153788335Y-147163814D01*
X153801095Y-147217356D01*
X153825019Y-147271190D01*
X153857805Y-147310474D01*
X153908844Y-147338409D01*
X153961123Y-147345684D01*
X154010134Y-147339718D01*
X154056242Y-147319950D01*
X154071033Y-147309536D01*
X154108219Y-147275943D01*
X154141421Y-147235593D01*
X154147237Y-147226982D01*
X154147237Y-146850604D01*
X154115366Y-146809638D01*
X154075218Y-146776589D01*
X154072498Y-146774888D01*
X154026581Y-146754555D01*
X153976267Y-146747777D01*
X153926419Y-146753670D01*
X153879144Y-146774040D01*
X153840409Y-146808959D01*
X153830454Y-146822272D01*
X153805896Y-146870222D01*
X153790814Y-146922997D01*
X153782826Y-146977015D01*
X153779849Y-147029139D01*
X153779651Y-147047708D01*
X153648255Y-147047708D01*
X153648248Y-147047463D01*
X153649931Y-146998410D01*
X153655976Y-146945211D01*
X153666418Y-146895064D01*
X153681256Y-146847971D01*
X153683419Y-146842299D01*
X153705676Y-146794519D01*
X153732879Y-146752844D01*
X153768904Y-146713698D01*
X153785024Y-146700150D01*
X153829169Y-146672716D01*
X153878562Y-146655442D01*
X153927501Y-146648584D01*
X153944759Y-146648126D01*
X153997358Y-146652509D01*
X154045304Y-146665657D01*
X154094405Y-146691417D01*
X154132384Y-146723349D01*
X154147237Y-146739717D01*
X154147237Y-146340625D01*
X154267893Y-146355768D01*
G37*
G36*
X155053866Y-146648126D02*
G01*
X155102195Y-146655746D01*
X155123475Y-146664246D01*
X155160837Y-146695826D01*
X155178674Y-146726040D01*
X155193367Y-146774092D01*
X155199139Y-146823194D01*
X155200167Y-146859641D01*
X155200167Y-147429704D01*
X155088304Y-147429704D01*
X155088304Y-146882844D01*
X155086853Y-146831269D01*
X155080052Y-146781552D01*
X155079511Y-146779529D01*
X155039868Y-146748274D01*
X155030174Y-146747777D01*
X154981597Y-146759512D01*
X154962519Y-146770492D01*
X154925528Y-146804968D01*
X154898039Y-146844498D01*
X154898039Y-147429704D01*
X154785199Y-147429704D01*
X154785199Y-146882844D01*
X154783788Y-146831269D01*
X154777176Y-146781552D01*
X154776650Y-146779529D01*
X154736820Y-146748274D01*
X154727069Y-146747777D01*
X154677646Y-146759512D01*
X154658925Y-146770492D01*
X154622526Y-146804968D01*
X154595178Y-146844498D01*
X154595178Y-147429704D01*
X154483803Y-147429704D01*
X154483803Y-146663758D01*
X154578569Y-146663758D01*
X154585652Y-146763409D01*
X154614196Y-146723658D01*
X154647892Y-146687709D01*
X154655017Y-146681343D01*
X154697943Y-146656431D01*
X154746504Y-146648159D01*
X154750028Y-146648126D01*
X154799470Y-146656220D01*
X154831117Y-146671085D01*
X154865947Y-146707680D01*
X154886143Y-146756139D01*
X154887292Y-146760234D01*
X154915763Y-146720069D01*
X154952079Y-146683097D01*
X154956902Y-146679145D01*
X155000560Y-146655881D01*
X155050252Y-146648157D01*
X155053866Y-146648126D01*
G37*
G36*
X155989316Y-146355768D02*
G01*
X155989316Y-147429704D01*
X155883559Y-147429704D01*
X155872080Y-147326877D01*
X155841529Y-147365157D01*
X155804778Y-147398096D01*
X155774871Y-147416759D01*
X155729011Y-147435261D01*
X155680732Y-147444330D01*
X155657634Y-147445335D01*
X155604992Y-147441374D01*
X155552890Y-147427683D01*
X155507514Y-147404213D01*
X155495213Y-147395265D01*
X155458567Y-147360108D01*
X155428313Y-147317222D01*
X155406550Y-147272018D01*
X155400447Y-147255558D01*
X155385570Y-147202858D01*
X155376434Y-147152185D01*
X155371145Y-147097910D01*
X155369679Y-147047708D01*
X155501075Y-147047708D01*
X155502670Y-147100959D01*
X155509758Y-147163814D01*
X155522518Y-147217356D01*
X155546443Y-147271190D01*
X155579228Y-147310474D01*
X155630267Y-147338409D01*
X155682547Y-147345684D01*
X155731557Y-147339718D01*
X155777666Y-147319950D01*
X155792456Y-147309536D01*
X155829642Y-147275943D01*
X155862844Y-147235593D01*
X155868660Y-147226982D01*
X155868660Y-146850604D01*
X155836789Y-146809638D01*
X155796642Y-146776589D01*
X155793922Y-146774888D01*
X155748004Y-146754555D01*
X155697690Y-146747777D01*
X155647842Y-146753670D01*
X155600568Y-146774040D01*
X155561833Y-146808959D01*
X155551877Y-146822272D01*
X155527319Y-146870222D01*
X155512237Y-146922997D01*
X155504250Y-146977015D01*
X155501273Y-147029139D01*
X155501075Y-147047708D01*
X155369679Y-147047708D01*
X155369672Y-147047463D01*
X155371355Y-146998410D01*
X155377400Y-146945211D01*
X155387841Y-146895064D01*
X155402679Y-146847971D01*
X155404843Y-146842299D01*
X155427100Y-146794519D01*
X155454302Y-146752844D01*
X155490328Y-146713698D01*
X155506448Y-146700150D01*
X155550593Y-146672716D01*
X155599985Y-146655442D01*
X155648925Y-146648584D01*
X155666183Y-146648126D01*
X155718781Y-146652509D01*
X155766728Y-146665657D01*
X155815828Y-146691417D01*
X155853807Y-146723349D01*
X155868660Y-146739717D01*
X155868660Y-146340625D01*
X155989316Y-146355768D01*
G37*
D11*
G36*
X136587256Y-141100223D02*
G01*
X136881939Y-141145454D01*
X137198111Y-141234068D01*
X137492302Y-141362066D01*
X137562415Y-141400220D01*
X137825556Y-141570946D01*
X138058106Y-141768050D01*
X138260064Y-141991532D01*
X138431431Y-142241392D01*
X138568634Y-142510304D01*
X138666637Y-142792404D01*
X138725438Y-143087694D01*
X138745039Y-143396172D01*
X138723913Y-143703161D01*
X138660534Y-144001492D01*
X138566253Y-144265188D01*
X138426336Y-144540410D01*
X138250401Y-144793812D01*
X138059205Y-145005244D01*
X137817971Y-145211137D01*
X137547646Y-145385513D01*
X137276651Y-145516689D01*
X136984962Y-145616380D01*
X136674096Y-145679149D01*
X136377920Y-145704071D01*
X136275743Y-145705733D01*
X135964161Y-145690656D01*
X135669267Y-145645426D01*
X135352683Y-145556811D01*
X135057897Y-145428813D01*
X134987607Y-145390660D01*
X134725015Y-145220025D01*
X134492648Y-145023196D01*
X134290507Y-144800172D01*
X134118591Y-144550953D01*
X133982028Y-144282041D01*
X133884484Y-143999941D01*
X133825957Y-143704651D01*
X133806448Y-143396172D01*
X135436036Y-143396172D01*
X135475300Y-143693507D01*
X135547411Y-143866584D01*
X135737955Y-144095035D01*
X135849295Y-144171399D01*
X136132718Y-144267931D01*
X136275743Y-144278378D01*
X136577364Y-144227814D01*
X136700726Y-144171399D01*
X136926595Y-143980730D01*
X137004076Y-143866584D01*
X137102290Y-143574736D01*
X137115450Y-143396172D01*
X137076703Y-143098131D01*
X137005541Y-142925761D01*
X136816949Y-142696680D01*
X136705122Y-142620946D01*
X136420314Y-142524414D01*
X136275743Y-142513967D01*
X135982423Y-142560039D01*
X135844899Y-142620946D01*
X135621045Y-142810986D01*
X135544480Y-142925761D01*
X135448851Y-143216947D01*
X135436036Y-143396172D01*
X133806448Y-143396172D01*
X133827401Y-143088522D01*
X133890260Y-142790223D01*
X133983769Y-142527156D01*
X134124520Y-142251935D01*
X134300943Y-141998533D01*
X134492282Y-141787101D01*
X134733516Y-141580374D01*
X135003841Y-141405509D01*
X135274836Y-141274191D01*
X135567785Y-141174499D01*
X135878765Y-141111731D01*
X136174064Y-141086808D01*
X136275743Y-141085147D01*
X136587256Y-141100223D01*
G37*
G36*
X139266741Y-145579704D02*
G01*
X139266741Y-144487938D01*
X140971068Y-142681029D01*
X139341480Y-142681029D01*
X139341480Y-141211176D01*
X143054948Y-141211176D01*
X143054948Y-142304407D01*
X141475185Y-144109850D01*
X143088653Y-144109850D01*
X143088653Y-145579704D01*
X139266741Y-145579704D01*
G37*
G36*
X147055829Y-141102641D02*
G01*
X147373527Y-141164142D01*
X147671287Y-141269926D01*
X147858716Y-141365049D01*
X148117694Y-141541389D01*
X148343983Y-141755519D01*
X148537582Y-142007439D01*
X148631012Y-142163723D01*
X148755393Y-142434741D01*
X148844236Y-142730489D01*
X148897542Y-143050966D01*
X148915033Y-143351669D01*
X148915311Y-143396172D01*
X148899569Y-143698452D01*
X148845888Y-144014099D01*
X148754110Y-144312083D01*
X148627527Y-144587761D01*
X148469428Y-144838503D01*
X148298353Y-145044812D01*
X148062392Y-145259547D01*
X147796343Y-145435539D01*
X147602261Y-145531343D01*
X147317862Y-145630630D01*
X147014762Y-145688703D01*
X146722987Y-145705733D01*
X146422935Y-145684484D01*
X146135339Y-145620736D01*
X145845898Y-145505928D01*
X145606309Y-145361350D01*
X145606309Y-147344114D01*
X143934222Y-147344114D01*
X143934222Y-143396172D01*
X145606309Y-143396172D01*
X145644539Y-143693507D01*
X145714752Y-143866584D01*
X145903974Y-144095035D01*
X146015171Y-144171399D01*
X146301302Y-144267931D01*
X146446016Y-144278378D01*
X146738705Y-144232306D01*
X146875394Y-144171399D01*
X147099878Y-143980730D01*
X147175813Y-143866584D01*
X147272735Y-143574736D01*
X147285722Y-143396172D01*
X147246459Y-143098131D01*
X147174348Y-142925761D01*
X146983804Y-142696680D01*
X146872464Y-142620946D01*
X146589041Y-142524414D01*
X146446016Y-142513967D01*
X146143702Y-142564531D01*
X146019568Y-142620946D01*
X145795021Y-142810986D01*
X145717683Y-142925761D01*
X145619469Y-143216947D01*
X145606309Y-143396172D01*
X143934222Y-143396172D01*
X143934222Y-141211176D01*
X145363043Y-141211176D01*
X145363043Y-141640555D01*
X145586880Y-141434189D01*
X145841947Y-141281744D01*
X145952157Y-141233158D01*
X146235654Y-141142963D01*
X146540995Y-141094397D01*
X146756692Y-141085147D01*
X147055829Y-141102641D01*
G37*
G36*
X149637781Y-145579704D02*
G01*
X149637781Y-141211176D01*
X151318660Y-141211176D01*
X151318660Y-141665468D01*
X151502715Y-141419331D01*
X151749883Y-141241458D01*
X151787607Y-141222900D01*
X152068665Y-141123724D01*
X152373286Y-141080086D01*
X152464648Y-141077819D01*
X152731361Y-141096870D01*
X152952645Y-141136438D01*
X152763601Y-142858350D01*
X152473807Y-142769392D01*
X152429477Y-142760164D01*
X152129862Y-142724422D01*
X152074836Y-142723528D01*
X151775150Y-142767858D01*
X151532617Y-142900848D01*
X151365672Y-143144769D01*
X151318660Y-143454791D01*
X151318660Y-145579704D01*
X149637781Y-145579704D01*
G37*
G36*
X155884758Y-141101839D02*
G01*
X156188958Y-141151917D01*
X156472292Y-141235379D01*
X156620684Y-141296172D01*
X156895142Y-141443462D01*
X157137830Y-141623382D01*
X157348747Y-141835930D01*
X157387118Y-141882355D01*
X157556905Y-142129708D01*
X157688911Y-142402822D01*
X157783135Y-142701695D01*
X157797446Y-142764560D01*
X157840955Y-143056138D01*
X157847833Y-143362089D01*
X157818080Y-143682415D01*
X157785722Y-143866584D01*
X154636455Y-143866584D01*
X154757144Y-144143653D01*
X154780070Y-144168468D01*
X155033448Y-144337375D01*
X155122987Y-144372167D01*
X155413903Y-144435136D01*
X155610984Y-144445440D01*
X155925901Y-144430203D01*
X156222921Y-144384492D01*
X156353971Y-144353116D01*
X156633056Y-144260205D01*
X156910690Y-144131500D01*
X157038339Y-144060025D01*
X157526337Y-145167910D01*
X157264667Y-145325355D01*
X157000237Y-145437554D01*
X156701467Y-145534727D01*
X156407964Y-145608382D01*
X156290956Y-145632460D01*
X155990774Y-145679901D01*
X155683188Y-145703944D01*
X155577279Y-145705733D01*
X155264263Y-145691848D01*
X154968919Y-145650194D01*
X154653022Y-145568587D01*
X154360205Y-145450709D01*
X154290607Y-145415572D01*
X154031130Y-145256112D01*
X153802244Y-145067893D01*
X153603949Y-144850913D01*
X153436246Y-144605175D01*
X153303530Y-144333973D01*
X153208734Y-144040607D01*
X153151856Y-143725076D01*
X153133192Y-143430804D01*
X153132896Y-143387380D01*
X153150213Y-143078002D01*
X153202162Y-142785512D01*
X153205599Y-142774819D01*
X154744899Y-142774819D01*
X156207425Y-142774819D01*
X156107494Y-142492206D01*
X156013985Y-142405523D01*
X155742944Y-142285611D01*
X155509868Y-142261909D01*
X155217143Y-142297812D01*
X154977907Y-142405523D01*
X154782350Y-142628699D01*
X154744899Y-142774819D01*
X153205599Y-142774819D01*
X153299307Y-142483277D01*
X153310217Y-142456814D01*
X153450448Y-142180334D01*
X153625313Y-141931213D01*
X153814334Y-141728482D01*
X154052687Y-141534192D01*
X154318399Y-141372456D01*
X154583699Y-141253674D01*
X154869177Y-141164802D01*
X155172400Y-141108846D01*
X155493370Y-141085805D01*
X155559693Y-141085147D01*
X155884758Y-141101839D01*
G37*
G36*
X159347900Y-147452558D02*
G01*
X159053778Y-147439935D01*
X158746118Y-147398397D01*
X158685513Y-147386612D01*
X158399126Y-147311994D01*
X158125590Y-147201169D01*
X158109588Y-147193172D01*
X158456902Y-145798057D01*
X158735714Y-145898575D01*
X158767579Y-145906500D01*
X159066561Y-145948625D01*
X159095841Y-145948999D01*
X159391901Y-145899965D01*
X159441689Y-145880122D01*
X159639488Y-145662609D01*
X159649784Y-145629529D01*
X159667369Y-145563583D01*
X157986490Y-141211176D01*
X159802191Y-141211176D01*
X160616986Y-143958908D01*
X161405401Y-141211176D01*
X163178605Y-141211176D01*
X161414194Y-145890380D01*
X161292836Y-146163688D01*
X161142952Y-146436126D01*
X160959827Y-146695329D01*
X160861717Y-146807757D01*
X160633282Y-147020827D01*
X160389262Y-147188529D01*
X160153901Y-147301616D01*
X159859894Y-147393596D01*
X159555995Y-147443124D01*
X159347900Y-147452558D01*
G37*
D12*
X146624433Y-58566919D02*
X146624433Y-59376442D01*
X146624433Y-59376442D02*
X146672052Y-59471680D01*
X146672052Y-59471680D02*
X146719671Y-59519300D01*
X146719671Y-59519300D02*
X146814909Y-59566919D01*
X146814909Y-59566919D02*
X147005385Y-59566919D01*
X147005385Y-59566919D02*
X147100623Y-59519300D01*
X147100623Y-59519300D02*
X147148242Y-59471680D01*
X147148242Y-59471680D02*
X147195861Y-59376442D01*
X147195861Y-59376442D02*
X147195861Y-58566919D01*
X147624433Y-59519300D02*
X147767290Y-59566919D01*
X147767290Y-59566919D02*
X148005385Y-59566919D01*
X148005385Y-59566919D02*
X148100623Y-59519300D01*
X148100623Y-59519300D02*
X148148242Y-59471680D01*
X148148242Y-59471680D02*
X148195861Y-59376442D01*
X148195861Y-59376442D02*
X148195861Y-59281204D01*
X148195861Y-59281204D02*
X148148242Y-59185966D01*
X148148242Y-59185966D02*
X148100623Y-59138347D01*
X148100623Y-59138347D02*
X148005385Y-59090728D01*
X148005385Y-59090728D02*
X147814909Y-59043109D01*
X147814909Y-59043109D02*
X147719671Y-58995490D01*
X147719671Y-58995490D02*
X147672052Y-58947871D01*
X147672052Y-58947871D02*
X147624433Y-58852633D01*
X147624433Y-58852633D02*
X147624433Y-58757395D01*
X147624433Y-58757395D02*
X147672052Y-58662157D01*
X147672052Y-58662157D02*
X147719671Y-58614538D01*
X147719671Y-58614538D02*
X147814909Y-58566919D01*
X147814909Y-58566919D02*
X148053004Y-58566919D01*
X148053004Y-58566919D02*
X148195861Y-58614538D01*
X148957766Y-59043109D02*
X149100623Y-59090728D01*
X149100623Y-59090728D02*
X149148242Y-59138347D01*
X149148242Y-59138347D02*
X149195861Y-59233585D01*
X149195861Y-59233585D02*
X149195861Y-59376442D01*
X149195861Y-59376442D02*
X149148242Y-59471680D01*
X149148242Y-59471680D02*
X149100623Y-59519300D01*
X149100623Y-59519300D02*
X149005385Y-59566919D01*
X149005385Y-59566919D02*
X148624433Y-59566919D01*
X148624433Y-59566919D02*
X148624433Y-58566919D01*
X148624433Y-58566919D02*
X148957766Y-58566919D01*
X148957766Y-58566919D02*
X149053004Y-58614538D01*
X149053004Y-58614538D02*
X149100623Y-58662157D01*
X149100623Y-58662157D02*
X149148242Y-58757395D01*
X149148242Y-58757395D02*
X149148242Y-58852633D01*
X149148242Y-58852633D02*
X149100623Y-58947871D01*
X149100623Y-58947871D02*
X149053004Y-58995490D01*
X149053004Y-58995490D02*
X148957766Y-59043109D01*
X148957766Y-59043109D02*
X148624433Y-59043109D01*
X144629195Y-70935252D02*
X144629195Y-71601919D01*
X144629195Y-71030490D02*
X144676814Y-70982871D01*
X144676814Y-70982871D02*
X144772052Y-70935252D01*
X144772052Y-70935252D02*
X144914909Y-70935252D01*
X144914909Y-70935252D02*
X145010147Y-70982871D01*
X145010147Y-70982871D02*
X145057766Y-71078109D01*
X145057766Y-71078109D02*
X145057766Y-71601919D01*
X145533957Y-71601919D02*
X145533957Y-70935252D01*
X145533957Y-70601919D02*
X145486338Y-70649538D01*
X145486338Y-70649538D02*
X145533957Y-70697157D01*
X145533957Y-70697157D02*
X145581576Y-70649538D01*
X145581576Y-70649538D02*
X145533957Y-70601919D01*
X145533957Y-70601919D02*
X145533957Y-70697157D01*
X146438718Y-71554300D02*
X146343480Y-71601919D01*
X146343480Y-71601919D02*
X146153004Y-71601919D01*
X146153004Y-71601919D02*
X146057766Y-71554300D01*
X146057766Y-71554300D02*
X146010147Y-71506680D01*
X146010147Y-71506680D02*
X145962528Y-71411442D01*
X145962528Y-71411442D02*
X145962528Y-71125728D01*
X145962528Y-71125728D02*
X146010147Y-71030490D01*
X146010147Y-71030490D02*
X146057766Y-70982871D01*
X146057766Y-70982871D02*
X146153004Y-70935252D01*
X146153004Y-70935252D02*
X146343480Y-70935252D01*
X146343480Y-70935252D02*
X146438718Y-70982871D01*
X147248242Y-71554300D02*
X147153004Y-71601919D01*
X147153004Y-71601919D02*
X146962528Y-71601919D01*
X146962528Y-71601919D02*
X146867290Y-71554300D01*
X146867290Y-71554300D02*
X146819671Y-71459061D01*
X146819671Y-71459061D02*
X146819671Y-71078109D01*
X146819671Y-71078109D02*
X146867290Y-70982871D01*
X146867290Y-70982871D02*
X146962528Y-70935252D01*
X146962528Y-70935252D02*
X147153004Y-70935252D01*
X147153004Y-70935252D02*
X147248242Y-70982871D01*
X147248242Y-70982871D02*
X147295861Y-71078109D01*
X147295861Y-71078109D02*
X147295861Y-71173347D01*
X147295861Y-71173347D02*
X146819671Y-71268585D01*
X147724433Y-71506680D02*
X147772052Y-71554300D01*
X147772052Y-71554300D02*
X147724433Y-71601919D01*
X147724433Y-71601919D02*
X147676814Y-71554300D01*
X147676814Y-71554300D02*
X147724433Y-71506680D01*
X147724433Y-71506680D02*
X147724433Y-71601919D01*
X147724433Y-71220966D02*
X147676814Y-70649538D01*
X147676814Y-70649538D02*
X147724433Y-70601919D01*
X147724433Y-70601919D02*
X147772052Y-70649538D01*
X147772052Y-70649538D02*
X147724433Y-71220966D01*
X147724433Y-71220966D02*
X147724433Y-70601919D01*
X148200623Y-70935252D02*
X148200623Y-71601919D01*
X148200623Y-71030490D02*
X148248242Y-70982871D01*
X148248242Y-70982871D02*
X148343480Y-70935252D01*
X148343480Y-70935252D02*
X148486337Y-70935252D01*
X148486337Y-70935252D02*
X148581575Y-70982871D01*
X148581575Y-70982871D02*
X148629194Y-71078109D01*
X148629194Y-71078109D02*
X148629194Y-71601919D01*
X149533956Y-71601919D02*
X149533956Y-71078109D01*
X149533956Y-71078109D02*
X149486337Y-70982871D01*
X149486337Y-70982871D02*
X149391099Y-70935252D01*
X149391099Y-70935252D02*
X149200623Y-70935252D01*
X149200623Y-70935252D02*
X149105385Y-70982871D01*
X149533956Y-71554300D02*
X149438718Y-71601919D01*
X149438718Y-71601919D02*
X149200623Y-71601919D01*
X149200623Y-71601919D02*
X149105385Y-71554300D01*
X149105385Y-71554300D02*
X149057766Y-71459061D01*
X149057766Y-71459061D02*
X149057766Y-71363823D01*
X149057766Y-71363823D02*
X149105385Y-71268585D01*
X149105385Y-71268585D02*
X149200623Y-71220966D01*
X149200623Y-71220966D02*
X149438718Y-71220966D01*
X149438718Y-71220966D02*
X149533956Y-71173347D01*
X150010147Y-70935252D02*
X150010147Y-71601919D01*
X150010147Y-71030490D02*
X150057766Y-70982871D01*
X150057766Y-70982871D02*
X150153004Y-70935252D01*
X150153004Y-70935252D02*
X150295861Y-70935252D01*
X150295861Y-70935252D02*
X150391099Y-70982871D01*
X150391099Y-70982871D02*
X150438718Y-71078109D01*
X150438718Y-71078109D02*
X150438718Y-71601919D01*
X151057766Y-71601919D02*
X150962528Y-71554300D01*
X150962528Y-71554300D02*
X150914909Y-71506680D01*
X150914909Y-71506680D02*
X150867290Y-71411442D01*
X150867290Y-71411442D02*
X150867290Y-71125728D01*
X150867290Y-71125728D02*
X150914909Y-71030490D01*
X150914909Y-71030490D02*
X150962528Y-70982871D01*
X150962528Y-70982871D02*
X151057766Y-70935252D01*
X151057766Y-70935252D02*
X151200623Y-70935252D01*
X151200623Y-70935252D02*
X151295861Y-70982871D01*
X151295861Y-70982871D02*
X151343480Y-71030490D01*
X151343480Y-71030490D02*
X151391099Y-71125728D01*
X151391099Y-71125728D02*
X151391099Y-71411442D01*
X151391099Y-71411442D02*
X151343480Y-71506680D01*
X151343480Y-71506680D02*
X151295861Y-71554300D01*
X151295861Y-71554300D02*
X151200623Y-71601919D01*
X151200623Y-71601919D02*
X151057766Y-71601919D01*
X142524433Y-59199538D02*
X142429195Y-59151919D01*
X142429195Y-59151919D02*
X142286338Y-59151919D01*
X142286338Y-59151919D02*
X142143481Y-59199538D01*
X142143481Y-59199538D02*
X142048243Y-59294776D01*
X142048243Y-59294776D02*
X142000624Y-59390014D01*
X142000624Y-59390014D02*
X141953005Y-59580490D01*
X141953005Y-59580490D02*
X141953005Y-59723347D01*
X141953005Y-59723347D02*
X142000624Y-59913823D01*
X142000624Y-59913823D02*
X142048243Y-60009061D01*
X142048243Y-60009061D02*
X142143481Y-60104300D01*
X142143481Y-60104300D02*
X142286338Y-60151919D01*
X142286338Y-60151919D02*
X142381576Y-60151919D01*
X142381576Y-60151919D02*
X142524433Y-60104300D01*
X142524433Y-60104300D02*
X142572052Y-60056680D01*
X142572052Y-60056680D02*
X142572052Y-59723347D01*
X142572052Y-59723347D02*
X142381576Y-59723347D01*
X143000624Y-60151919D02*
X143000624Y-59151919D01*
X143000624Y-59151919D02*
X143572052Y-60151919D01*
X143572052Y-60151919D02*
X143572052Y-59151919D01*
X144048243Y-60151919D02*
X144048243Y-59151919D01*
X144048243Y-59151919D02*
X144286338Y-59151919D01*
X144286338Y-59151919D02*
X144429195Y-59199538D01*
X144429195Y-59199538D02*
X144524433Y-59294776D01*
X144524433Y-59294776D02*
X144572052Y-59390014D01*
X144572052Y-59390014D02*
X144619671Y-59580490D01*
X144619671Y-59580490D02*
X144619671Y-59723347D01*
X144619671Y-59723347D02*
X144572052Y-59913823D01*
X144572052Y-59913823D02*
X144524433Y-60009061D01*
X144524433Y-60009061D02*
X144429195Y-60104300D01*
X144429195Y-60104300D02*
X144286338Y-60151919D01*
X144286338Y-60151919D02*
X144048243Y-60151919D01*
X146672052Y-60966919D02*
X146672052Y-59966919D01*
X146672052Y-60919300D02*
X146576814Y-60966919D01*
X146576814Y-60966919D02*
X146386338Y-60966919D01*
X146386338Y-60966919D02*
X146291100Y-60919300D01*
X146291100Y-60919300D02*
X146243481Y-60871680D01*
X146243481Y-60871680D02*
X146195862Y-60776442D01*
X146195862Y-60776442D02*
X146195862Y-60490728D01*
X146195862Y-60490728D02*
X146243481Y-60395490D01*
X146243481Y-60395490D02*
X146291100Y-60347871D01*
X146291100Y-60347871D02*
X146386338Y-60300252D01*
X146386338Y-60300252D02*
X146576814Y-60300252D01*
X146576814Y-60300252D02*
X146672052Y-60347871D01*
X147291100Y-60966919D02*
X147195862Y-60919300D01*
X147195862Y-60919300D02*
X147148243Y-60871680D01*
X147148243Y-60871680D02*
X147100624Y-60776442D01*
X147100624Y-60776442D02*
X147100624Y-60490728D01*
X147100624Y-60490728D02*
X147148243Y-60395490D01*
X147148243Y-60395490D02*
X147195862Y-60347871D01*
X147195862Y-60347871D02*
X147291100Y-60300252D01*
X147291100Y-60300252D02*
X147433957Y-60300252D01*
X147433957Y-60300252D02*
X147529195Y-60347871D01*
X147529195Y-60347871D02*
X147576814Y-60395490D01*
X147576814Y-60395490D02*
X147624433Y-60490728D01*
X147624433Y-60490728D02*
X147624433Y-60776442D01*
X147624433Y-60776442D02*
X147576814Y-60871680D01*
X147576814Y-60871680D02*
X147529195Y-60919300D01*
X147529195Y-60919300D02*
X147433957Y-60966919D01*
X147433957Y-60966919D02*
X147291100Y-60966919D01*
X147957767Y-60300252D02*
X148148243Y-60966919D01*
X148148243Y-60966919D02*
X148338719Y-60490728D01*
X148338719Y-60490728D02*
X148529195Y-60966919D01*
X148529195Y-60966919D02*
X148719671Y-60300252D01*
X149100624Y-60300252D02*
X149100624Y-60966919D01*
X149100624Y-60395490D02*
X149148243Y-60347871D01*
X149148243Y-60347871D02*
X149243481Y-60300252D01*
X149243481Y-60300252D02*
X149386338Y-60300252D01*
X149386338Y-60300252D02*
X149481576Y-60347871D01*
X149481576Y-60347871D02*
X149529195Y-60443109D01*
X149529195Y-60443109D02*
X149529195Y-60966919D01*
G04 #@! TO.C,SW_RST1*
X158300707Y-56177832D02*
X158300707Y-54652832D01*
X158325707Y-56177832D02*
X158875707Y-56177832D01*
X163200707Y-56177832D02*
X160400707Y-56177832D01*
X164200707Y-53392832D02*
X159400707Y-53392832D01*
X164750707Y-56177832D02*
X165300707Y-56177832D01*
X165300707Y-56177832D02*
X165300707Y-54642832D01*
G04 #@! TO.C,BATT1*
X134430707Y-61007832D02*
X133100707Y-61007832D01*
X133100707Y-61007832D02*
X133100707Y-59677832D01*
G04 #@! TO.C,SW43*
X136800707Y-57577832D02*
X136800707Y-57077832D01*
X136800707Y-57577832D02*
X128000707Y-57577832D01*
X136800707Y-53177832D02*
X136800707Y-53627832D01*
X128000707Y-57577832D02*
X128000707Y-57077832D01*
X128000707Y-53627832D02*
X128000707Y-53177832D01*
X128000707Y-53177832D02*
X136800707Y-53177832D01*
G04 #@! TD*
%LPC*%
D13*
G04 #@! TO.C,SW_RST1*
X158100707Y-53577832D03*
X165500707Y-53577832D03*
D14*
X159700707Y-56077832D03*
X163900707Y-56077832D03*
D15*
X160700707Y-54477832D03*
X162900707Y-54477832D03*
G04 #@! TD*
D16*
G04 #@! TO.C,H_M2_6*
X148279438Y-137724100D03*
G04 #@! TD*
G04 #@! TO.C,H_M2_2*
X56279438Y-109877800D03*
G04 #@! TD*
D17*
G04 #@! TO.C,BATT1*
X136970707Y-59677832D03*
D18*
X134430707Y-59677832D03*
G04 #@! TD*
D16*
G04 #@! TO.C,H_M2_1*
X85600738Y-55377800D03*
G04 #@! TD*
G04 #@! TO.C,H_M2_5*
X239600738Y-109877800D03*
G04 #@! TD*
G04 #@! TO.C,H_M2_3*
X148250707Y-89277832D03*
G04 #@! TD*
G04 #@! TO.C,H_M2_4*
X210100738Y-55377800D03*
G04 #@! TD*
D19*
G04 #@! TO.C,SW43*
X136550707Y-55377832D03*
X128250707Y-55377832D03*
D20*
X132400707Y-55377832D03*
X134400707Y-55377832D03*
X130400707Y-55377832D03*
G04 #@! TD*
D21*
G04 #@! TO.C,SW13*
X83937349Y-115986893D03*
D22*
X84620634Y-112265923D03*
D23*
X78706538Y-114287300D03*
D22*
X80545189Y-108628514D03*
D24*
X72444152Y-116668669D03*
D21*
X73475727Y-112587707D03*
G04 #@! TD*
G04 #@! TO.C,SW25*
X186193249Y-133091807D03*
D22*
X184558907Y-129679853D03*
D23*
X180962438Y-134791400D03*
D22*
X179123787Y-129132614D03*
D24*
X177295794Y-140398906D03*
D21*
X175731627Y-136490993D03*
G04 #@! TD*
G04 #@! TO.C,SW17*
X99758549Y-125543693D03*
D22*
X100441834Y-121822723D03*
D23*
X94527738Y-123844100D03*
D22*
X96366389Y-118185314D03*
D24*
X88265352Y-126225469D03*
D21*
X89296927Y-122144507D03*
G04 #@! TD*
G04 #@! TO.C,SW21*
X119859449Y-136490993D03*
D22*
X120542734Y-132770023D03*
D23*
X114628638Y-134791400D03*
D22*
X116467289Y-129132614D03*
D24*
X108366252Y-137172769D03*
D21*
X109397827Y-133091807D03*
G04 #@! TD*
G04 #@! TO.C,SW29*
X206294149Y-122144507D03*
D22*
X204659807Y-118732553D03*
D23*
X201063338Y-123844100D03*
D22*
X199224687Y-118185314D03*
D24*
X197396694Y-129451606D03*
D21*
X195832527Y-125543693D03*
G04 #@! TD*
G04 #@! TO.C,SW33*
X222115249Y-112587707D03*
D22*
X220480907Y-109175753D03*
D23*
X216884438Y-114287300D03*
D22*
X215045787Y-108628514D03*
D24*
X213217794Y-119894806D03*
D21*
X211653627Y-115986893D03*
G04 #@! TD*
G04 #@! TO.C,SW3*
X33939949Y-95115393D03*
D22*
X34623234Y-91394423D03*
D23*
X28709138Y-93415800D03*
D22*
X30547789Y-87757014D03*
D24*
X22446752Y-95797169D03*
D21*
X23478327Y-91716207D03*
G04 #@! TD*
G04 #@! TO.C,SW6*
X52356849Y-96683193D03*
D22*
X53040134Y-92962223D03*
D23*
X47126038Y-94983600D03*
D22*
X48964689Y-89324814D03*
D24*
X40863652Y-97364969D03*
D21*
X41895227Y-93284007D03*
G04 #@! TD*
G04 #@! TO.C,SW9*
X70773749Y-98251093D03*
D22*
X71457034Y-94530123D03*
D23*
X65542938Y-96551500D03*
D22*
X67381589Y-90892714D03*
D24*
X59280552Y-98932869D03*
D21*
X60312127Y-94851907D03*
G04 #@! TD*
G04 #@! TO.C,SW12*
X89190649Y-99818993D03*
D22*
X89873934Y-96098023D03*
D23*
X83959838Y-98119400D03*
D22*
X85798489Y-92460614D03*
D24*
X77697452Y-100500769D03*
D21*
X78729027Y-96419807D03*
G04 #@! TD*
G04 #@! TO.C,SW16*
X105011749Y-109375693D03*
D22*
X105695034Y-105654723D03*
D23*
X99780938Y-107676100D03*
D22*
X101619589Y-102017314D03*
D24*
X93518552Y-110057469D03*
D21*
X94550127Y-105976507D03*
G04 #@! TD*
G04 #@! TO.C,SW20*
X120832949Y-118932493D03*
D22*
X121516234Y-115211523D03*
D23*
X115602138Y-117232900D03*
D22*
X117440789Y-111574114D03*
D24*
X109339752Y-119614269D03*
D21*
X110371327Y-115533307D03*
G04 #@! TD*
G04 #@! TO.C,SW24*
X185219749Y-115533307D03*
D22*
X183585407Y-112121353D03*
D23*
X179988938Y-117232900D03*
D22*
X178150287Y-111574114D03*
D24*
X176322294Y-122840406D03*
D21*
X174758127Y-118932493D03*
G04 #@! TD*
G04 #@! TO.C,SW28*
X201040849Y-105976507D03*
D22*
X199406507Y-102564553D03*
D23*
X195810038Y-107676100D03*
D22*
X193971387Y-102017314D03*
D24*
X192143394Y-113283606D03*
D21*
X190579227Y-109375693D03*
G04 #@! TD*
G04 #@! TO.C,SW32*
X216861949Y-96419807D03*
D22*
X215227607Y-93007853D03*
D23*
X211631138Y-98119400D03*
D22*
X209792487Y-92460614D03*
D24*
X207964494Y-103726906D03*
D21*
X206400327Y-99818993D03*
G04 #@! TD*
G04 #@! TO.C,SW36*
X235278849Y-94851907D03*
D22*
X233644507Y-91439953D03*
D23*
X230048038Y-96551500D03*
D22*
X228209387Y-90892714D03*
D24*
X226381394Y-102159006D03*
D21*
X224817227Y-98251093D03*
G04 #@! TD*
G04 #@! TO.C,SW39*
X253695749Y-93284007D03*
D22*
X252061407Y-89872053D03*
D23*
X248464938Y-94983600D03*
D22*
X246626287Y-89324814D03*
D24*
X244798294Y-100591106D03*
D21*
X243234127Y-96683193D03*
G04 #@! TD*
G04 #@! TO.C,SW42*
X272112649Y-91716207D03*
D22*
X270478307Y-88304253D03*
D23*
X266881838Y-93415800D03*
D22*
X265043187Y-87757014D03*
D24*
X263215194Y-99023306D03*
D21*
X261651027Y-95115393D03*
G04 #@! TD*
G04 #@! TO.C,SW2*
X39193249Y-78947393D03*
D22*
X39876534Y-75226423D03*
D23*
X33962438Y-77247800D03*
D22*
X35801089Y-71589014D03*
D24*
X27700052Y-79629169D03*
D21*
X28731627Y-75548207D03*
G04 #@! TD*
G04 #@! TO.C,SW5*
X57610149Y-80515293D03*
D22*
X58293434Y-76794323D03*
D23*
X52379338Y-78815700D03*
D22*
X54217989Y-73156914D03*
D24*
X46116952Y-81197069D03*
D21*
X47148527Y-77116107D03*
G04 #@! TD*
G04 #@! TO.C,SW8*
X76027049Y-82083093D03*
D22*
X76710334Y-78362123D03*
D23*
X70796238Y-80383500D03*
D22*
X72634889Y-74724714D03*
D24*
X64533852Y-82764869D03*
D21*
X65565427Y-78683907D03*
G04 #@! TD*
G04 #@! TO.C,SW11*
X94443949Y-83650993D03*
D22*
X95127234Y-79930023D03*
D23*
X89213138Y-81951400D03*
D22*
X91051789Y-76292614D03*
D24*
X82950752Y-84332769D03*
D21*
X83982327Y-80251807D03*
G04 #@! TD*
G04 #@! TO.C,SW15*
X110265049Y-93207793D03*
D22*
X110948334Y-89486823D03*
D23*
X105034238Y-91508200D03*
D22*
X106872889Y-85849414D03*
D24*
X98771852Y-93889569D03*
D21*
X99803427Y-89808607D03*
G04 #@! TD*
G04 #@! TO.C,SW19*
X126086249Y-102764493D03*
D22*
X126769534Y-99043523D03*
D23*
X120855438Y-101064900D03*
D22*
X122694089Y-95406114D03*
D24*
X114593052Y-103446269D03*
D21*
X115624627Y-99365307D03*
G04 #@! TD*
G04 #@! TO.C,SW23*
X179966449Y-99365307D03*
D22*
X178332107Y-95953353D03*
D23*
X174735638Y-101064900D03*
D22*
X172896987Y-95406114D03*
D24*
X171068994Y-106672406D03*
D21*
X169504827Y-102764493D03*
G04 #@! TD*
G04 #@! TO.C,SW27*
X195787549Y-89808607D03*
D22*
X194153207Y-86396653D03*
D23*
X190556738Y-91508200D03*
D22*
X188718087Y-85849414D03*
D24*
X186890094Y-97115706D03*
D21*
X185325927Y-93207793D03*
G04 #@! TD*
G04 #@! TO.C,SW31*
X211608749Y-80251807D03*
D22*
X209974407Y-76839853D03*
D23*
X206377938Y-81951400D03*
D22*
X204539287Y-76292614D03*
D24*
X202711294Y-87558906D03*
D21*
X201147127Y-83650993D03*
G04 #@! TD*
G04 #@! TO.C,SW35*
X230025549Y-78683907D03*
D22*
X228391207Y-75271953D03*
D23*
X224794738Y-80383500D03*
D22*
X222956087Y-74724714D03*
D24*
X221128094Y-85991006D03*
D21*
X219563927Y-82083093D03*
G04 #@! TD*
G04 #@! TO.C,SW38*
X248442449Y-77116107D03*
D22*
X246808107Y-73704153D03*
D23*
X243211638Y-78815700D03*
D22*
X241372987Y-73156914D03*
D24*
X239544994Y-84423206D03*
D21*
X237980827Y-80515293D03*
G04 #@! TD*
G04 #@! TO.C,SW41*
X266859349Y-75548207D03*
D22*
X265225007Y-72136253D03*
D23*
X261628538Y-77247800D03*
D22*
X259789887Y-71589014D03*
D24*
X257961894Y-82855306D03*
D21*
X256397727Y-78947393D03*
G04 #@! TD*
G04 #@! TO.C,SW1*
X44446549Y-62779393D03*
D22*
X45129834Y-59058423D03*
D23*
X39215738Y-61079800D03*
D22*
X41054389Y-55421014D03*
D24*
X32953352Y-63461169D03*
D21*
X33984927Y-59380207D03*
G04 #@! TD*
G04 #@! TO.C,SW4*
X62863449Y-64347293D03*
D22*
X63546734Y-60626323D03*
D23*
X57632638Y-62647700D03*
D22*
X59471289Y-56988914D03*
D24*
X51370252Y-65029069D03*
D21*
X52401827Y-60948107D03*
G04 #@! TD*
G04 #@! TO.C,SW7*
X81280349Y-65915193D03*
D22*
X81963634Y-62194223D03*
D23*
X76049538Y-64215600D03*
D22*
X77888189Y-58556814D03*
D24*
X69787152Y-66596969D03*
D21*
X70818727Y-62516007D03*
G04 #@! TD*
G04 #@! TO.C,SW10*
X99697249Y-67483093D03*
D22*
X100380534Y-63762123D03*
D23*
X94466438Y-65783500D03*
D22*
X96305089Y-60124714D03*
D24*
X88204052Y-68164869D03*
D21*
X89235627Y-64083907D03*
G04 #@! TD*
G04 #@! TO.C,SW14*
X115518349Y-77039793D03*
D22*
X116201634Y-73318823D03*
D23*
X110287538Y-75340200D03*
D22*
X112126189Y-69681414D03*
D24*
X104025152Y-77721569D03*
D21*
X105056727Y-73640607D03*
G04 #@! TD*
G04 #@! TO.C,SW18*
X131339549Y-86596493D03*
D22*
X132022834Y-82875523D03*
D23*
X126108738Y-84896900D03*
D22*
X127947389Y-79238114D03*
D24*
X119846352Y-87278269D03*
D21*
X120877927Y-83197307D03*
G04 #@! TD*
G04 #@! TO.C,SW22*
X174713149Y-83197307D03*
D22*
X173078807Y-79785353D03*
D23*
X169482338Y-84896900D03*
D22*
X167643687Y-79238114D03*
D24*
X165815694Y-90504406D03*
D21*
X164251527Y-86596493D03*
G04 #@! TD*
G04 #@! TO.C,SW26*
X190534249Y-73640607D03*
D22*
X188899907Y-70228653D03*
D23*
X185303438Y-75340200D03*
D22*
X183464787Y-69681414D03*
D24*
X181636794Y-80947706D03*
D21*
X180072627Y-77039793D03*
G04 #@! TD*
G04 #@! TO.C,SW30*
X206355449Y-64083907D03*
D22*
X204721107Y-60671953D03*
D23*
X201124638Y-65783500D03*
D22*
X199285987Y-60124714D03*
D24*
X197457994Y-71391006D03*
D21*
X195893827Y-67483093D03*
G04 #@! TD*
G04 #@! TO.C,SW34*
X224772349Y-62516007D03*
D22*
X223138007Y-59104053D03*
D23*
X219541538Y-64215600D03*
D22*
X217702887Y-58556814D03*
D24*
X215874894Y-69823106D03*
D21*
X214310727Y-65915193D03*
G04 #@! TD*
G04 #@! TO.C,SW37*
X243189149Y-60948107D03*
D22*
X241554807Y-57536153D03*
D23*
X237958338Y-62647700D03*
D22*
X236119687Y-56988914D03*
D24*
X234291694Y-68255206D03*
D21*
X232727527Y-64347293D03*
G04 #@! TD*
G04 #@! TO.C,SW40*
X261606049Y-59380207D03*
D22*
X259971707Y-55968253D03*
D23*
X256375238Y-61079800D03*
D22*
X254536587Y-55421014D03*
D24*
X252708594Y-66687306D03*
D21*
X251144427Y-62779393D03*
G04 #@! TD*
%LPD*%
M02*
