M48
; DRILL file {KiCad 8.0.4} date 2024-08-25T22:46:31+0700
; FORMAT={-:-/ absolute / metric / decimal}
; #@! TF.CreationDate,2024-08-25T22:46:31+07:00
; #@! TF.GenerationSoftware,Kicad,Pcbnew,8.0.4
; #@! TF.FileFunction,NonPlated,1,2,NPTH
FMAT,2
METRIC
; #@! TA.AperFunction,NonPlated,NPTH,ComponentDrill
T1C1.000
; #@! TA.AperFunction,NonPlated,NPTH,ComponentDrill
T2C1.702
; #@! TA.AperFunction,NonPlated,NPTH,ComponentDrill
T3C2.200
; #@! TA.AperFunction,NonPlated,NPTH,ComponentDrill
T4C3.000
; #@! TA.AperFunction,NonPlated,NPTH,ComponentDrill
T5C3.429
%
G90
G05
T1
X131.113Y-54.518
X133.313Y-54.518
T2
X24.093Y-91.716
X29.346Y-75.548
X34.555Y-95.115
X34.6Y-59.38
X39.808Y-78.947
X42.51Y-93.284
X45.061Y-62.779
X47.763Y-77.116
X52.972Y-96.683
X53.017Y-60.948
X58.225Y-80.515
X60.927Y-94.852
X63.478Y-64.347
X66.18Y-78.684
X71.388Y-98.251
X71.433Y-62.516
X74.09Y-112.588
X76.642Y-82.083
X79.344Y-96.42
X81.895Y-65.915
X84.552Y-115.987
X84.597Y-80.252
X89.805Y-99.819
X89.85Y-64.084
X89.912Y-122.144
X95.059Y-83.651
X95.165Y-105.976
X100.312Y-67.483
X100.373Y-125.544
X100.418Y-89.809
X105.626Y-109.376
X105.671Y-73.641
X110.013Y-133.092
X110.88Y-93.208
X110.986Y-115.533
X116.133Y-77.04
X116.239Y-99.365
X120.474Y-136.491
X121.448Y-118.932
X121.493Y-83.197
X126.701Y-102.764
X131.954Y-86.596
X164.866Y-86.596
X170.12Y-102.764
X175.328Y-83.197
X175.373Y-118.932
X176.346Y-136.491
X180.581Y-99.365
X180.687Y-77.04
X185.834Y-115.533
X185.941Y-93.208
X186.808Y-133.092
X191.149Y-73.641
X191.194Y-109.376
X196.402Y-89.809
X196.447Y-125.544
X196.509Y-67.483
X201.656Y-105.976
X201.762Y-83.651
X206.909Y-122.144
X206.97Y-64.084
X207.015Y-99.819
X212.223Y-80.252
X212.268Y-115.987
X214.925Y-65.915
X217.477Y-96.42
X220.179Y-82.083
X222.73Y-112.588
X225.387Y-62.516
X225.432Y-98.251
X230.64Y-78.684
X233.342Y-64.347
X235.894Y-94.852
X238.596Y-80.515
X243.804Y-60.948
X243.849Y-96.683
X249.057Y-77.116
X251.759Y-62.779
X254.31Y-93.284
X257.012Y-78.947
X262.221Y-59.38
X262.266Y-95.115
X267.474Y-75.548
X272.727Y-91.716
T3
X56.894Y-109.878
X86.215Y-55.378
X132.715Y-63.378
X148.894Y-137.724
X164.215Y-63.378
X210.715Y-55.378
X240.215Y-109.878
T4
X31.163Y-87.757
X35.238Y-91.394
X36.416Y-71.589
X40.491Y-75.226
X41.669Y-55.421
X45.745Y-59.058
X49.579Y-89.325
X53.655Y-92.962
X54.833Y-73.157
X58.908Y-76.794
X60.086Y-56.989
X64.161Y-60.626
X67.996Y-90.893
X72.072Y-94.53
X73.25Y-74.725
X77.325Y-78.362
X78.503Y-58.557
X81.16Y-108.628
X82.578Y-62.194
X85.235Y-112.266
X86.413Y-92.461
X90.489Y-96.098
X91.667Y-76.293
X95.742Y-79.93
X96.92Y-60.125
X96.981Y-118.185
X100.995Y-63.762
X101.057Y-121.823
X102.234Y-102.017
X106.31Y-105.655
X107.488Y-85.849
X111.563Y-89.487
X112.741Y-69.681
X116.816Y-73.319
X117.082Y-129.133
X118.056Y-111.574
X121.157Y-132.77
X122.131Y-115.211
X123.309Y-95.406
X127.384Y-99.043
X128.562Y-79.238
X132.638Y-82.875
X168.258Y-79.238
X173.512Y-95.406
X173.694Y-79.785
X178.765Y-111.574
X178.947Y-95.953
X179.739Y-129.133
X184.08Y-69.681
X184.2Y-112.121
X185.174Y-129.68
X189.333Y-85.849
X189.515Y-70.229
X194.586Y-102.017
X194.768Y-86.397
X199.839Y-118.185
X199.901Y-60.125
X200.021Y-102.565
X205.154Y-76.293
X205.275Y-118.733
X205.336Y-60.672
X210.407Y-92.461
X210.589Y-76.84
X215.661Y-108.628
X215.842Y-93.008
X218.318Y-58.557
X221.096Y-109.176
X223.571Y-74.725
X223.753Y-59.104
X228.824Y-90.893
X229.006Y-75.272
X234.259Y-91.44
X236.734Y-56.989
X241.988Y-73.157
X242.17Y-57.536
X247.241Y-89.325
X247.423Y-73.704
X252.676Y-89.872
X255.151Y-55.421
X260.405Y-71.589
X260.586Y-55.968
X265.658Y-87.757
X265.84Y-72.136
X271.093Y-88.304
T5
X29.324Y-93.416
X34.577Y-77.248
X39.83Y-61.08
X47.741Y-94.984
X52.994Y-78.816
X58.247Y-62.648
X66.158Y-96.551
X71.411Y-80.383
X76.664Y-64.216
X79.321Y-114.287
X84.575Y-98.119
X89.828Y-81.951
X95.081Y-65.783
X95.142Y-123.844
X100.396Y-107.676
X105.649Y-91.508
X110.902Y-75.34
X115.243Y-134.791
X116.217Y-117.233
X121.47Y-101.065
X126.723Y-84.897
X170.097Y-84.897
X175.35Y-101.065
X180.604Y-117.233
X181.577Y-134.791
X185.918Y-75.34
X191.171Y-91.508
X196.425Y-107.676
X201.678Y-123.844
X201.739Y-65.783
X206.993Y-81.951
X212.246Y-98.119
X217.499Y-114.287
X220.156Y-64.216
X225.409Y-80.383
X230.663Y-96.551
X238.573Y-62.648
X243.826Y-78.816
X249.08Y-94.984
X256.99Y-61.08
X262.243Y-77.248
X267.497Y-93.416
M30
