%TF.GenerationSoftware,KiCad,Pcbnew,8.0.4*%
%TF.CreationDate,2024-08-25T22:46:30+07:00*%
%TF.ProjectId,ozprey,6f7a7072-6579-42e6-9b69-6361645f7063,1.0*%
%TF.SameCoordinates,Original*%
%TF.FileFunction,Drillmap*%
%TF.FilePolarity,Positive*%
%FSLAX45Y45*%
G04 Gerber Fmt 4.5, Leading zero omitted, Abs format (unit mm)*
G04 Created by KiCad (PCBNEW 8.0.4) date 2024-08-25 22:46:30*
%MOMM*%
%LPD*%
G01*
G04 APERTURE LIST*
%ADD10C,0.100000*%
%ADD11C,0.200000*%
%ADD12C,0.170180*%
%ADD13C,0.220000*%
%ADD14C,0.300000*%
%ADD15C,0.342900*%
G04 APERTURE END LIST*
D10*
X10196537Y-13955196D02*
G75*
G02*
X7834057Y-12733072I12267223J26608196D01*
G01*
X3237099Y-5021967D02*
X1677485Y-9822338D01*
X3237099Y-5021967D02*
G75*
G02*
X3444277Y-4884486I190207J-61789D01*
G01*
X21847986Y-12733071D02*
G75*
G02*
X19485507Y-13955196I-14629986J25386601D01*
G01*
X1805896Y-10074350D02*
X1991803Y-10134752D01*
X28004558Y-9822339D02*
X26444944Y-5021967D01*
X1991803Y-10134752D02*
G75*
G02*
X7834057Y-12733071I-9486547J-29197495D01*
G01*
X21847986Y-12733071D02*
G75*
G02*
X27690240Y-10134752I15328794J-26599159D01*
G01*
X12412749Y-5282085D02*
X3444277Y-4884486D01*
X14090252Y-14809547D02*
G75*
G02*
X10196537Y-13955195I-2J9299987D01*
G01*
X19485507Y-13955195D02*
G75*
G02*
X15591791Y-14809546I-3893707J8445615D01*
G01*
X12412749Y-5282085D02*
X17268617Y-5282085D01*
X26237766Y-4884487D02*
G75*
G02*
X26444946Y-5021966I16964J-199283D01*
G01*
X26237766Y-4884487D02*
X17268617Y-5282085D01*
X27690240Y-10134752D02*
X27876147Y-10074349D01*
X1805896Y-10074350D02*
G75*
G02*
X1677483Y-9822338I61814J190220D01*
G01*
X14090252Y-14809547D02*
X15591791Y-14809547D01*
X28004558Y-9822339D02*
G75*
G02*
X27876149Y-10074355I-190218J-61801D01*
G01*
D11*
D10*
X13061285Y-5401775D02*
X13161285Y-5501775D01*
X13161285Y-5401775D02*
X13061285Y-5501775D01*
X13281285Y-5401775D02*
X13381285Y-5501775D01*
X13381285Y-5401775D02*
X13281285Y-5501775D01*
D12*
X2494396Y-9171618D02*
G75*
G02*
X2324216Y-9171618I-85090J0D01*
G01*
X2324216Y-9171618D02*
G75*
G02*
X2494396Y-9171618I85090J0D01*
G01*
X3019726Y-7554818D02*
G75*
G02*
X2849546Y-7554818I-85090J0D01*
G01*
X2849546Y-7554818D02*
G75*
G02*
X3019726Y-7554818I85090J0D01*
G01*
X3540558Y-9511537D02*
G75*
G02*
X3370378Y-9511537I-85090J0D01*
G01*
X3370378Y-9511537D02*
G75*
G02*
X3540558Y-9511537I85090J0D01*
G01*
X3545056Y-5938018D02*
G75*
G02*
X3374876Y-5938018I-85090J0D01*
G01*
X3374876Y-5938018D02*
G75*
G02*
X3545056Y-5938018I85090J0D01*
G01*
X4065888Y-7894736D02*
G75*
G02*
X3895708Y-7894736I-85090J0D01*
G01*
X3895708Y-7894736D02*
G75*
G02*
X4065888Y-7894736I85090J0D01*
G01*
X4336086Y-9328398D02*
G75*
G02*
X4165906Y-9328398I-85090J0D01*
G01*
X4165906Y-9328398D02*
G75*
G02*
X4336086Y-9328398I85090J0D01*
G01*
X4591219Y-6277936D02*
G75*
G02*
X4421039Y-6277936I-85090J0D01*
G01*
X4421039Y-6277936D02*
G75*
G02*
X4591219Y-6277936I85090J0D01*
G01*
X4861416Y-7711608D02*
G75*
G02*
X4691236Y-7711608I-85090J0D01*
G01*
X4691236Y-7711608D02*
G75*
G02*
X4861416Y-7711608I85090J0D01*
G01*
X5382249Y-9668317D02*
G75*
G02*
X5212069Y-9668317I-85090J0D01*
G01*
X5212069Y-9668317D02*
G75*
G02*
X5382249Y-9668317I85090J0D01*
G01*
X5386746Y-6094808D02*
G75*
G02*
X5216566Y-6094808I-85090J0D01*
G01*
X5216566Y-6094808D02*
G75*
G02*
X5386746Y-6094808I85090J0D01*
G01*
X5907578Y-8051526D02*
G75*
G02*
X5737398Y-8051526I-85090J0D01*
G01*
X5737398Y-8051526D02*
G75*
G02*
X5907578Y-8051526I85090J0D01*
G01*
X6177776Y-9485188D02*
G75*
G02*
X6007596Y-9485188I-85090J0D01*
G01*
X6007596Y-9485188D02*
G75*
G02*
X6177776Y-9485188I85090J0D01*
G01*
X6432908Y-6434726D02*
G75*
G02*
X6262728Y-6434726I-85090J0D01*
G01*
X6262728Y-6434726D02*
G75*
G02*
X6432908Y-6434726I85090J0D01*
G01*
X6703106Y-7868388D02*
G75*
G02*
X6532926Y-7868388I-85090J0D01*
G01*
X6532926Y-7868388D02*
G75*
G02*
X6703106Y-7868388I85090J0D01*
G01*
X7223938Y-9825107D02*
G75*
G02*
X7053758Y-9825107I-85090J0D01*
G01*
X7053758Y-9825107D02*
G75*
G02*
X7223938Y-9825107I85090J0D01*
G01*
X7228436Y-6251598D02*
G75*
G02*
X7058256Y-6251598I-85090J0D01*
G01*
X7058256Y-6251598D02*
G75*
G02*
X7228436Y-6251598I85090J0D01*
G01*
X7494136Y-11258768D02*
G75*
G02*
X7323956Y-11258768I-85090J0D01*
G01*
X7323956Y-11258768D02*
G75*
G02*
X7494136Y-11258768I85090J0D01*
G01*
X7749268Y-8208306D02*
G75*
G02*
X7579088Y-8208306I-85090J0D01*
G01*
X7579088Y-8208306D02*
G75*
G02*
X7749268Y-8208306I85090J0D01*
G01*
X8019466Y-9641978D02*
G75*
G02*
X7849286Y-9641978I-85090J0D01*
G01*
X7849286Y-9641978D02*
G75*
G02*
X8019466Y-9641978I85090J0D01*
G01*
X8274598Y-6591516D02*
G75*
G02*
X8104418Y-6591516I-85090J0D01*
G01*
X8104418Y-6591516D02*
G75*
G02*
X8274598Y-6591516I85090J0D01*
G01*
X8540299Y-11598686D02*
G75*
G02*
X8370118Y-11598686I-85090J0D01*
G01*
X8370118Y-11598686D02*
G75*
G02*
X8540299Y-11598686I85090J0D01*
G01*
X8544796Y-8025178D02*
G75*
G02*
X8374616Y-8025178I-85090J0D01*
G01*
X8374616Y-8025178D02*
G75*
G02*
X8544796Y-8025178I85090J0D01*
G01*
X9065629Y-9981897D02*
G75*
G02*
X8895449Y-9981897I-85090J0D01*
G01*
X8895449Y-9981897D02*
G75*
G02*
X9065629Y-9981897I85090J0D01*
G01*
X9070126Y-6408388D02*
G75*
G02*
X8899946Y-6408388I-85090J0D01*
G01*
X8899946Y-6408388D02*
G75*
G02*
X9070126Y-6408388I85090J0D01*
G01*
X9076256Y-12214448D02*
G75*
G02*
X8906076Y-12214448I-85090J0D01*
G01*
X8906076Y-12214448D02*
G75*
G02*
X9076256Y-12214448I85090J0D01*
G01*
X9590959Y-8365096D02*
G75*
G02*
X9420779Y-8365096I-85090J0D01*
G01*
X9420779Y-8365096D02*
G75*
G02*
X9590959Y-8365096I85090J0D01*
G01*
X9601576Y-10597648D02*
G75*
G02*
X9431396Y-10597648I-85090J0D01*
G01*
X9431396Y-10597648D02*
G75*
G02*
X9601576Y-10597648I85090J0D01*
G01*
X10116289Y-6748306D02*
G75*
G02*
X9946109Y-6748306I-85090J0D01*
G01*
X9946109Y-6748306D02*
G75*
G02*
X10116289Y-6748306I85090J0D01*
G01*
X10122419Y-12554366D02*
G75*
G02*
X9952239Y-12554366I-85090J0D01*
G01*
X9952239Y-12554366D02*
G75*
G02*
X10122419Y-12554366I85090J0D01*
G01*
X10126906Y-8980858D02*
G75*
G02*
X9956726Y-8980858I-85090J0D01*
G01*
X9956726Y-8980858D02*
G75*
G02*
X10126906Y-8980858I85090J0D01*
G01*
X10647739Y-10937567D02*
G75*
G02*
X10477559Y-10937567I-85090J0D01*
G01*
X10477559Y-10937567D02*
G75*
G02*
X10647739Y-10937567I85090J0D01*
G01*
X10652236Y-7364058D02*
G75*
G02*
X10482056Y-7364058I-85090J0D01*
G01*
X10482056Y-7364058D02*
G75*
G02*
X10652236Y-7364058I85090J0D01*
G01*
X11086346Y-13309178D02*
G75*
G02*
X10916166Y-13309178I-85090J0D01*
G01*
X10916166Y-13309178D02*
G75*
G02*
X11086346Y-13309178I85090J0D01*
G01*
X11173069Y-9320777D02*
G75*
G02*
X11002889Y-9320777I-85090J0D01*
G01*
X11002889Y-9320777D02*
G75*
G02*
X11173069Y-9320777I85090J0D01*
G01*
X11183696Y-11553328D02*
G75*
G02*
X11013516Y-11553328I-85090J0D01*
G01*
X11013516Y-11553328D02*
G75*
G02*
X11183696Y-11553328I85090J0D01*
G01*
X11698398Y-7703976D02*
G75*
G02*
X11528218Y-7703976I-85090J0D01*
G01*
X11528218Y-7703976D02*
G75*
G02*
X11698398Y-7703976I85090J0D01*
G01*
X11709026Y-9936528D02*
G75*
G02*
X11538846Y-9936528I-85090J0D01*
G01*
X11538846Y-9936528D02*
G75*
G02*
X11709026Y-9936528I85090J0D01*
G01*
X12132508Y-13649096D02*
G75*
G02*
X11962328Y-13649096I-85090J0D01*
G01*
X11962328Y-13649096D02*
G75*
G02*
X12132508Y-13649096I85090J0D01*
G01*
X12229858Y-11893246D02*
G75*
G02*
X12059678Y-11893246I-85090J0D01*
G01*
X12059678Y-11893246D02*
G75*
G02*
X12229858Y-11893246I85090J0D01*
G01*
X12234356Y-8319728D02*
G75*
G02*
X12064176Y-8319728I-85090J0D01*
G01*
X12064176Y-8319728D02*
G75*
G02*
X12234356Y-8319728I85090J0D01*
G01*
X12755188Y-10276447D02*
G75*
G02*
X12585008Y-10276447I-85090J0D01*
G01*
X12585008Y-10276447D02*
G75*
G02*
X12755188Y-10276447I85090J0D01*
G01*
X13280518Y-8659647D02*
G75*
G02*
X13110338Y-8659647I-85090J0D01*
G01*
X13110338Y-8659647D02*
G75*
G02*
X13280518Y-8659647I85090J0D01*
G01*
X16571716Y-8659647D02*
G75*
G02*
X16401536Y-8659647I-85090J0D01*
G01*
X16401536Y-8659647D02*
G75*
G02*
X16571716Y-8659647I85090J0D01*
G01*
X17097046Y-10276447D02*
G75*
G02*
X16926866Y-10276447I-85090J0D01*
G01*
X16926866Y-10276447D02*
G75*
G02*
X17097046Y-10276447I85090J0D01*
G01*
X17617879Y-8319728D02*
G75*
G02*
X17447699Y-8319728I-85090J0D01*
G01*
X17447699Y-8319728D02*
G75*
G02*
X17617879Y-8319728I85090J0D01*
G01*
X17622376Y-11893246D02*
G75*
G02*
X17452196Y-11893246I-85090J0D01*
G01*
X17452196Y-11893246D02*
G75*
G02*
X17622376Y-11893246I85090J0D01*
G01*
X17719726Y-13649096D02*
G75*
G02*
X17549546Y-13649096I-85090J0D01*
G01*
X17549546Y-13649096D02*
G75*
G02*
X17719726Y-13649096I85090J0D01*
G01*
X18143209Y-9936528D02*
G75*
G02*
X17973029Y-9936528I-85090J0D01*
G01*
X17973029Y-9936528D02*
G75*
G02*
X18143209Y-9936528I85090J0D01*
G01*
X18153826Y-7703976D02*
G75*
G02*
X17983646Y-7703976I-85090J0D01*
G01*
X17983646Y-7703976D02*
G75*
G02*
X18153826Y-7703976I85090J0D01*
G01*
X18668539Y-11553328D02*
G75*
G02*
X18498359Y-11553328I-85090J0D01*
G01*
X18498359Y-11553328D02*
G75*
G02*
X18668539Y-11553328I85090J0D01*
G01*
X18679156Y-9320777D02*
G75*
G02*
X18508976Y-9320777I-85090J0D01*
G01*
X18508976Y-9320777D02*
G75*
G02*
X18679156Y-9320777I85090J0D01*
G01*
X18765889Y-13309178D02*
G75*
G02*
X18595709Y-13309178I-85090J0D01*
G01*
X18595709Y-13309178D02*
G75*
G02*
X18765889Y-13309178I85090J0D01*
G01*
X19199989Y-7364058D02*
G75*
G02*
X19029809Y-7364058I-85090J0D01*
G01*
X19029809Y-7364058D02*
G75*
G02*
X19199989Y-7364058I85090J0D01*
G01*
X19204486Y-10937567D02*
G75*
G02*
X19034306Y-10937567I-85090J0D01*
G01*
X19034306Y-10937567D02*
G75*
G02*
X19204486Y-10937567I85090J0D01*
G01*
X19725319Y-8980858D02*
G75*
G02*
X19555139Y-8980858I-85090J0D01*
G01*
X19555139Y-8980858D02*
G75*
G02*
X19725319Y-8980858I85090J0D01*
G01*
X19729816Y-12554366D02*
G75*
G02*
X19559636Y-12554366I-85090J0D01*
G01*
X19559636Y-12554366D02*
G75*
G02*
X19729816Y-12554366I85090J0D01*
G01*
X19735946Y-6748306D02*
G75*
G02*
X19565766Y-6748306I-85090J0D01*
G01*
X19565766Y-6748306D02*
G75*
G02*
X19735946Y-6748306I85090J0D01*
G01*
X20250649Y-10597648D02*
G75*
G02*
X20080469Y-10597648I-85090J0D01*
G01*
X20080469Y-10597648D02*
G75*
G02*
X20250649Y-10597648I85090J0D01*
G01*
X20261276Y-8365096D02*
G75*
G02*
X20091096Y-8365096I-85090J0D01*
G01*
X20091096Y-8365096D02*
G75*
G02*
X20261276Y-8365096I85090J0D01*
G01*
X20775979Y-12214448D02*
G75*
G02*
X20605799Y-12214448I-85090J0D01*
G01*
X20605799Y-12214448D02*
G75*
G02*
X20775979Y-12214448I85090J0D01*
G01*
X20782109Y-6408388D02*
G75*
G02*
X20611929Y-6408388I-85090J0D01*
G01*
X20611929Y-6408388D02*
G75*
G02*
X20782109Y-6408388I85090J0D01*
G01*
X20786596Y-9981897D02*
G75*
G02*
X20616416Y-9981897I-85090J0D01*
G01*
X20616416Y-9981897D02*
G75*
G02*
X20786596Y-9981897I85090J0D01*
G01*
X21307439Y-8025178D02*
G75*
G02*
X21137259Y-8025178I-85090J0D01*
G01*
X21137259Y-8025178D02*
G75*
G02*
X21307439Y-8025178I85090J0D01*
G01*
X21311926Y-11598686D02*
G75*
G02*
X21141746Y-11598686I-85090J0D01*
G01*
X21141746Y-11598686D02*
G75*
G02*
X21311926Y-11598686I85090J0D01*
G01*
X21577636Y-6591516D02*
G75*
G02*
X21407456Y-6591516I-85090J0D01*
G01*
X21407456Y-6591516D02*
G75*
G02*
X21577636Y-6591516I85090J0D01*
G01*
X21832759Y-9641978D02*
G75*
G02*
X21662579Y-9641978I-85090J0D01*
G01*
X21662579Y-9641978D02*
G75*
G02*
X21832759Y-9641978I85090J0D01*
G01*
X22102956Y-8208306D02*
G75*
G02*
X21932776Y-8208306I-85090J0D01*
G01*
X21932776Y-8208306D02*
G75*
G02*
X22102956Y-8208306I85090J0D01*
G01*
X22358089Y-11258768D02*
G75*
G02*
X22187909Y-11258768I-85090J0D01*
G01*
X22187909Y-11258768D02*
G75*
G02*
X22358089Y-11258768I85090J0D01*
G01*
X22623798Y-6251598D02*
G75*
G02*
X22453618Y-6251598I-85090J0D01*
G01*
X22453618Y-6251598D02*
G75*
G02*
X22623798Y-6251598I85090J0D01*
G01*
X22628286Y-9825107D02*
G75*
G02*
X22458106Y-9825107I-85090J0D01*
G01*
X22458106Y-9825107D02*
G75*
G02*
X22628286Y-9825107I85090J0D01*
G01*
X23149118Y-7868388D02*
G75*
G02*
X22978938Y-7868388I-85090J0D01*
G01*
X22978938Y-7868388D02*
G75*
G02*
X23149118Y-7868388I85090J0D01*
G01*
X23419316Y-6434726D02*
G75*
G02*
X23249136Y-6434726I-85090J0D01*
G01*
X23249136Y-6434726D02*
G75*
G02*
X23419316Y-6434726I85090J0D01*
G01*
X23674448Y-9485188D02*
G75*
G02*
X23504268Y-9485188I-85090J0D01*
G01*
X23504268Y-9485188D02*
G75*
G02*
X23674448Y-9485188I85090J0D01*
G01*
X23944646Y-8051526D02*
G75*
G02*
X23774466Y-8051526I-85090J0D01*
G01*
X23774466Y-8051526D02*
G75*
G02*
X23944646Y-8051526I85090J0D01*
G01*
X24465478Y-6094808D02*
G75*
G02*
X24295298Y-6094808I-85090J0D01*
G01*
X24295298Y-6094808D02*
G75*
G02*
X24465478Y-6094808I85090J0D01*
G01*
X24469976Y-9668317D02*
G75*
G02*
X24299796Y-9668317I-85090J0D01*
G01*
X24299796Y-9668317D02*
G75*
G02*
X24469976Y-9668317I85090J0D01*
G01*
X24990808Y-7711608D02*
G75*
G02*
X24820628Y-7711608I-85090J0D01*
G01*
X24820628Y-7711608D02*
G75*
G02*
X24990808Y-7711608I85090J0D01*
G01*
X25261006Y-6277936D02*
G75*
G02*
X25090826Y-6277936I-85090J0D01*
G01*
X25090826Y-6277936D02*
G75*
G02*
X25261006Y-6277936I85090J0D01*
G01*
X25516138Y-9328398D02*
G75*
G02*
X25345958Y-9328398I-85090J0D01*
G01*
X25345958Y-9328398D02*
G75*
G02*
X25516138Y-9328398I85090J0D01*
G01*
X25786336Y-7894736D02*
G75*
G02*
X25616156Y-7894736I-85090J0D01*
G01*
X25616156Y-7894736D02*
G75*
G02*
X25786336Y-7894736I85090J0D01*
G01*
X26307168Y-5938018D02*
G75*
G02*
X26136988Y-5938018I-85090J0D01*
G01*
X26136988Y-5938018D02*
G75*
G02*
X26307168Y-5938018I85090J0D01*
G01*
X26311666Y-9511537D02*
G75*
G02*
X26141486Y-9511537I-85090J0D01*
G01*
X26141486Y-9511537D02*
G75*
G02*
X26311666Y-9511537I85090J0D01*
G01*
X26832498Y-7554818D02*
G75*
G02*
X26662318Y-7554818I-85090J0D01*
G01*
X26662318Y-7554818D02*
G75*
G02*
X26832498Y-7554818I85090J0D01*
G01*
X27357828Y-9171618D02*
G75*
G02*
X27187648Y-9171618I-85090J0D01*
G01*
X27187648Y-9171618D02*
G75*
G02*
X27357828Y-9171618I85090J0D01*
G01*
D13*
X5689417Y-10877783D02*
X5689417Y-11097783D01*
X5579417Y-10987783D02*
X5799417Y-10987783D01*
X8621547Y-5427783D02*
X8621547Y-5647783D01*
X8511547Y-5537783D02*
X8731547Y-5537783D01*
X13271547Y-6227783D02*
X13271547Y-6447783D01*
X13161547Y-6337783D02*
X13381547Y-6337783D01*
X14889417Y-13662407D02*
X14889417Y-13882407D01*
X14779417Y-13772407D02*
X14999417Y-13772407D01*
X16421547Y-6227783D02*
X16421547Y-6447783D01*
X16311547Y-6337783D02*
X16531547Y-6337783D01*
X21071547Y-5427783D02*
X21071547Y-5647783D01*
X20961547Y-5537783D02*
X21181547Y-5537783D01*
X24021547Y-10877783D02*
X24021547Y-11097783D01*
X23911547Y-10987783D02*
X24131547Y-10987783D01*
D14*
X3222319Y-8881766D02*
X3222319Y-8669632D01*
X3010185Y-8669632D01*
X3010185Y-8881766D01*
X3222319Y-8881766D01*
X3629864Y-9245507D02*
X3629864Y-9033373D01*
X3417730Y-9033373D01*
X3417730Y-9245507D01*
X3629864Y-9245507D01*
X3747649Y-7264966D02*
X3747649Y-7052832D01*
X3535515Y-7052832D01*
X3535515Y-7264966D01*
X3747649Y-7264966D01*
X4155194Y-7628706D02*
X4155194Y-7416572D01*
X3943060Y-7416572D01*
X3943060Y-7628706D01*
X4155194Y-7628706D01*
X4272980Y-5648166D02*
X4272980Y-5436032D01*
X4060845Y-5436032D01*
X4060845Y-5648166D01*
X4272980Y-5648166D01*
X4680524Y-6011906D02*
X4680524Y-5799772D01*
X4468390Y-5799772D01*
X4468390Y-6011906D01*
X4680524Y-6011906D01*
X5064010Y-9038546D02*
X5064010Y-8826412D01*
X4851876Y-8826412D01*
X4851876Y-9038546D01*
X5064010Y-9038546D01*
X5471554Y-9402287D02*
X5471554Y-9190153D01*
X5259420Y-9190153D01*
X5259420Y-9402287D01*
X5471554Y-9402287D01*
X5589340Y-7421756D02*
X5589340Y-7209622D01*
X5377206Y-7209622D01*
X5377206Y-7421756D01*
X5589340Y-7421756D01*
X5996884Y-7785496D02*
X5996884Y-7573362D01*
X5784750Y-7573362D01*
X5784750Y-7785496D01*
X5996884Y-7785496D01*
X6114669Y-5804956D02*
X6114669Y-5592822D01*
X5902535Y-5592822D01*
X5902535Y-5804956D01*
X6114669Y-5804956D01*
X6522214Y-6168696D02*
X6522214Y-5956562D01*
X6310080Y-5956562D01*
X6310080Y-6168696D01*
X6522214Y-6168696D01*
X6905699Y-9195336D02*
X6905699Y-8983202D01*
X6693565Y-8983202D01*
X6693565Y-9195336D01*
X6905699Y-9195336D01*
X7313244Y-9559077D02*
X7313244Y-9346943D01*
X7101110Y-9346943D01*
X7101110Y-9559077D01*
X7313244Y-9559077D01*
X7431029Y-7578536D02*
X7431029Y-7366402D01*
X7218895Y-7366402D01*
X7218895Y-7578536D01*
X7431029Y-7578536D01*
X7838574Y-7942276D02*
X7838574Y-7730142D01*
X7626440Y-7730142D01*
X7626440Y-7942276D01*
X7838574Y-7942276D01*
X7956359Y-5961746D02*
X7956359Y-5749612D01*
X7744225Y-5749612D01*
X7744225Y-5961746D01*
X7956359Y-5961746D01*
X8222059Y-10968916D02*
X8222059Y-10756782D01*
X8009925Y-10756782D01*
X8009925Y-10968916D01*
X8222059Y-10968916D01*
X8363904Y-6325486D02*
X8363904Y-6113352D01*
X8151770Y-6113352D01*
X8151770Y-6325486D01*
X8363904Y-6325486D01*
X8629604Y-11332656D02*
X8629604Y-11120523D01*
X8417470Y-11120523D01*
X8417470Y-11332656D01*
X8629604Y-11332656D01*
X8747390Y-9352126D02*
X8747390Y-9139992D01*
X8535256Y-9139992D01*
X8535256Y-9352126D01*
X8747390Y-9352126D01*
X9154934Y-9715867D02*
X9154934Y-9503733D01*
X8942800Y-9503733D01*
X8942800Y-9715867D01*
X9154934Y-9715867D01*
X9272720Y-7735326D02*
X9272720Y-7523192D01*
X9060586Y-7523192D01*
X9060586Y-7735326D01*
X9272720Y-7735326D01*
X9680264Y-8099066D02*
X9680264Y-7886932D01*
X9468130Y-7886932D01*
X9468130Y-8099066D01*
X9680264Y-8099066D01*
X9798050Y-6118536D02*
X9798050Y-5906402D01*
X9585916Y-5906402D01*
X9585916Y-6118536D01*
X9798050Y-6118536D01*
X9804180Y-11924596D02*
X9804180Y-11712462D01*
X9592046Y-11712462D01*
X9592046Y-11924596D01*
X9804180Y-11924596D01*
X10205594Y-6482276D02*
X10205594Y-6270142D01*
X9993460Y-6270142D01*
X9993460Y-6482276D01*
X10205594Y-6482276D01*
X10211724Y-12288336D02*
X10211724Y-12076202D01*
X9999590Y-12076202D01*
X9999590Y-12288336D01*
X10211724Y-12288336D01*
X10329500Y-10307796D02*
X10329500Y-10095662D01*
X10117366Y-10095662D01*
X10117366Y-10307796D01*
X10329500Y-10307796D01*
X10737044Y-10671537D02*
X10737044Y-10459403D01*
X10524910Y-10459403D01*
X10524910Y-10671537D01*
X10737044Y-10671537D01*
X10854830Y-8691006D02*
X10854830Y-8478872D01*
X10642696Y-8478872D01*
X10642696Y-8691006D01*
X10854830Y-8691006D01*
X11262374Y-9054747D02*
X11262374Y-8842613D01*
X11050240Y-8842613D01*
X11050240Y-9054747D01*
X11262374Y-9054747D01*
X11380159Y-7074206D02*
X11380159Y-6862072D01*
X11168026Y-6862072D01*
X11168026Y-7074206D01*
X11380159Y-7074206D01*
X11787704Y-7437946D02*
X11787704Y-7225812D01*
X11575570Y-7225812D01*
X11575570Y-7437946D01*
X11787704Y-7437946D01*
X11814269Y-13019326D02*
X11814269Y-12807192D01*
X11602135Y-12807192D01*
X11602135Y-13019326D01*
X11814269Y-13019326D01*
X11911619Y-11263476D02*
X11911619Y-11051342D01*
X11699485Y-11051342D01*
X11699485Y-11263476D01*
X11911619Y-11263476D01*
X12221814Y-13383066D02*
X12221814Y-13170932D01*
X12009680Y-13170932D01*
X12009680Y-13383066D01*
X12221814Y-13383066D01*
X12319164Y-11627216D02*
X12319164Y-11415082D01*
X12107030Y-11415082D01*
X12107030Y-11627216D01*
X12319164Y-11627216D01*
X12436949Y-9646676D02*
X12436949Y-9434542D01*
X12224815Y-9434542D01*
X12224815Y-9646676D01*
X12436949Y-9646676D01*
X12844494Y-10010417D02*
X12844494Y-9798283D01*
X12632360Y-9798283D01*
X12632360Y-10010417D01*
X12844494Y-10010417D01*
X12962279Y-8029876D02*
X12962279Y-7817742D01*
X12750145Y-7817742D01*
X12750145Y-8029876D01*
X12962279Y-8029876D01*
X13369824Y-8393617D02*
X13369824Y-8181482D01*
X13157690Y-8181482D01*
X13157690Y-8393617D01*
X13369824Y-8393617D01*
X16931909Y-8029876D02*
X16931909Y-7817742D01*
X16719775Y-7817742D01*
X16719775Y-8029876D01*
X16931909Y-8029876D01*
X17457239Y-9646676D02*
X17457239Y-9434542D01*
X17245105Y-9434542D01*
X17245105Y-9646676D01*
X17457239Y-9646676D01*
X17475421Y-8084599D02*
X17475421Y-7872465D01*
X17263287Y-7872465D01*
X17263287Y-8084599D01*
X17475421Y-8084599D01*
X17982569Y-11263476D02*
X17982569Y-11051342D01*
X17770435Y-11051342D01*
X17770435Y-11263476D01*
X17982569Y-11263476D01*
X18000751Y-9701400D02*
X18000751Y-9489266D01*
X17788617Y-9489266D01*
X17788617Y-9701400D01*
X18000751Y-9701400D01*
X18079919Y-13019326D02*
X18079919Y-12807192D01*
X17867785Y-12807192D01*
X17867785Y-13019326D01*
X18079919Y-13019326D01*
X18514019Y-7074206D02*
X18514019Y-6862072D01*
X18301885Y-6862072D01*
X18301885Y-7074206D01*
X18514019Y-7074206D01*
X18526081Y-11318199D02*
X18526081Y-11106066D01*
X18313947Y-11106066D01*
X18313947Y-11318199D01*
X18526081Y-11318199D01*
X18623431Y-13074049D02*
X18623431Y-12861915D01*
X18411297Y-12861915D01*
X18411297Y-13074049D01*
X18623431Y-13074049D01*
X19039349Y-8691006D02*
X19039349Y-8478872D01*
X18827215Y-8478872D01*
X18827215Y-8691006D01*
X19039349Y-8691006D01*
X19057531Y-7128929D02*
X19057531Y-6916795D01*
X18845397Y-6916795D01*
X18845397Y-7128929D01*
X19057531Y-7128929D01*
X19564679Y-10307796D02*
X19564679Y-10095662D01*
X19352545Y-10095662D01*
X19352545Y-10307796D01*
X19564679Y-10307796D01*
X19582861Y-8745730D02*
X19582861Y-8533596D01*
X19370727Y-8533596D01*
X19370727Y-8745730D01*
X19582861Y-8745730D01*
X20090009Y-11924596D02*
X20090009Y-11712462D01*
X19877875Y-11712462D01*
X19877875Y-11924596D01*
X20090009Y-11924596D01*
X20096139Y-6118536D02*
X20096139Y-5906402D01*
X19884005Y-5906402D01*
X19884005Y-6118536D01*
X20096139Y-6118536D01*
X20108191Y-10362520D02*
X20108191Y-10150386D01*
X19896057Y-10150386D01*
X19896057Y-10362520D01*
X20108191Y-10362520D01*
X20621469Y-7735326D02*
X20621469Y-7523192D01*
X20409335Y-7523192D01*
X20409335Y-7735326D01*
X20621469Y-7735326D01*
X20633521Y-11979319D02*
X20633521Y-11767185D01*
X20421387Y-11767185D01*
X20421387Y-11979319D01*
X20633521Y-11979319D01*
X20639651Y-6173259D02*
X20639651Y-5961125D01*
X20427517Y-5961125D01*
X20427517Y-6173259D01*
X20639651Y-6173259D01*
X21146789Y-9352126D02*
X21146789Y-9139992D01*
X20934655Y-9139992D01*
X20934655Y-9352126D01*
X21146789Y-9352126D01*
X21164981Y-7790049D02*
X21164981Y-7577915D01*
X20952847Y-7577915D01*
X20952847Y-7790049D01*
X21164981Y-7790049D01*
X21672119Y-10968916D02*
X21672119Y-10756782D01*
X21459985Y-10756782D01*
X21459985Y-10968916D01*
X21672119Y-10968916D01*
X21690301Y-9406850D02*
X21690301Y-9194716D01*
X21478167Y-9194716D01*
X21478167Y-9406850D01*
X21690301Y-9406850D01*
X21937829Y-5961746D02*
X21937829Y-5749612D01*
X21725695Y-5749612D01*
X21725695Y-5961746D01*
X21937829Y-5961746D01*
X22215631Y-11023640D02*
X22215631Y-10811506D01*
X22003497Y-10811506D01*
X22003497Y-11023640D01*
X22215631Y-11023640D01*
X22463149Y-7578536D02*
X22463149Y-7366402D01*
X22251015Y-7366402D01*
X22251015Y-7578536D01*
X22463149Y-7578536D01*
X22481341Y-6016469D02*
X22481341Y-5804335D01*
X22269207Y-5804335D01*
X22269207Y-6016469D01*
X22481341Y-6016469D01*
X22988479Y-9195336D02*
X22988479Y-8983202D01*
X22776345Y-8983202D01*
X22776345Y-9195336D01*
X22988479Y-9195336D01*
X23006661Y-7633259D02*
X23006661Y-7421125D01*
X22794527Y-7421125D01*
X22794527Y-7633259D01*
X23006661Y-7633259D01*
X23531991Y-9250060D02*
X23531991Y-9037926D01*
X23319857Y-9037926D01*
X23319857Y-9250060D01*
X23531991Y-9250060D01*
X23779509Y-5804956D02*
X23779509Y-5592822D01*
X23567375Y-5592822D01*
X23567375Y-5804956D01*
X23779509Y-5804956D01*
X24304839Y-7421756D02*
X24304839Y-7209622D01*
X24092705Y-7209622D01*
X24092705Y-7421756D01*
X24304839Y-7421756D01*
X24323021Y-5859679D02*
X24323021Y-5647545D01*
X24110887Y-5647545D01*
X24110887Y-5859679D01*
X24323021Y-5859679D01*
X24830169Y-9038546D02*
X24830169Y-8826412D01*
X24618035Y-8826412D01*
X24618035Y-9038546D01*
X24830169Y-9038546D01*
X24848351Y-7476479D02*
X24848351Y-7264345D01*
X24636217Y-7264345D01*
X24636217Y-7476479D01*
X24848351Y-7476479D01*
X25373681Y-9093270D02*
X25373681Y-8881136D01*
X25161547Y-8881136D01*
X25161547Y-9093270D01*
X25373681Y-9093270D01*
X25621199Y-5648166D02*
X25621199Y-5436032D01*
X25409065Y-5436032D01*
X25409065Y-5648166D01*
X25621199Y-5648166D01*
X26146529Y-7264966D02*
X26146529Y-7052832D01*
X25934395Y-7052832D01*
X25934395Y-7264966D01*
X26146529Y-7264966D01*
X26164711Y-5702889D02*
X26164711Y-5490756D01*
X25952577Y-5490756D01*
X25952577Y-5702889D01*
X26164711Y-5702889D01*
X26671859Y-8881766D02*
X26671859Y-8669632D01*
X26459725Y-8669632D01*
X26459725Y-8881766D01*
X26671859Y-8881766D01*
X26690041Y-7319689D02*
X26690041Y-7107555D01*
X26477907Y-7107555D01*
X26477907Y-7319689D01*
X26690041Y-7319689D01*
X27215371Y-8936490D02*
X27215371Y-8724356D01*
X27003237Y-8724356D01*
X27003237Y-8936490D01*
X27215371Y-8936490D01*
D15*
X2932387Y-9513027D02*
X3103837Y-9341577D01*
X2932387Y-9170127D01*
X2760937Y-9341577D01*
X2932387Y-9513027D01*
X3457717Y-7896227D02*
X3629167Y-7724777D01*
X3457717Y-7553327D01*
X3286267Y-7724777D01*
X3457717Y-7896227D01*
X3983047Y-6279427D02*
X4154497Y-6107977D01*
X3983047Y-5936527D01*
X3811597Y-6107977D01*
X3983047Y-6279427D01*
X4774077Y-9669807D02*
X4945527Y-9498357D01*
X4774077Y-9326907D01*
X4602627Y-9498357D01*
X4774077Y-9669807D01*
X5299407Y-8053017D02*
X5470857Y-7881567D01*
X5299407Y-7710117D01*
X5127957Y-7881567D01*
X5299407Y-8053017D01*
X5824737Y-6436217D02*
X5996187Y-6264767D01*
X5824737Y-6093317D01*
X5653287Y-6264767D01*
X5824737Y-6436217D01*
X6615767Y-9826597D02*
X6787217Y-9655147D01*
X6615767Y-9483697D01*
X6444317Y-9655147D01*
X6615767Y-9826597D01*
X7141097Y-8209797D02*
X7312547Y-8038347D01*
X7141097Y-7866897D01*
X6969647Y-8038347D01*
X7141097Y-8209797D01*
X7666427Y-6593007D02*
X7837877Y-6421557D01*
X7666427Y-6250107D01*
X7494977Y-6421557D01*
X7666427Y-6593007D01*
X7932127Y-11600177D02*
X8103577Y-11428727D01*
X7932127Y-11257277D01*
X7760677Y-11428727D01*
X7932127Y-11600177D01*
X8457457Y-9983387D02*
X8628907Y-9811937D01*
X8457457Y-9640487D01*
X8286007Y-9811937D01*
X8457457Y-9983387D01*
X8982787Y-8366587D02*
X9154237Y-8195137D01*
X8982787Y-8023687D01*
X8811337Y-8195137D01*
X8982787Y-8366587D01*
X9508117Y-6749797D02*
X9679567Y-6578347D01*
X9508117Y-6406897D01*
X9336667Y-6578347D01*
X9508117Y-6749797D01*
X9514247Y-12555857D02*
X9685697Y-12384407D01*
X9514247Y-12212957D01*
X9342797Y-12384407D01*
X9514247Y-12555857D01*
X10039567Y-10939057D02*
X10211017Y-10767607D01*
X10039567Y-10596157D01*
X9868117Y-10767607D01*
X10039567Y-10939057D01*
X10564897Y-9322267D02*
X10736347Y-9150817D01*
X10564897Y-8979367D01*
X10393447Y-9150817D01*
X10564897Y-9322267D01*
X11090227Y-7705467D02*
X11261677Y-7534017D01*
X11090227Y-7362567D01*
X10918777Y-7534017D01*
X11090227Y-7705467D01*
X11524337Y-13650587D02*
X11695787Y-13479137D01*
X11524337Y-13307687D01*
X11352887Y-13479137D01*
X11524337Y-13650587D01*
X11621687Y-11894737D02*
X11793137Y-11723287D01*
X11621687Y-11551837D01*
X11450237Y-11723287D01*
X11621687Y-11894737D01*
X12147017Y-10277937D02*
X12318467Y-10106487D01*
X12147017Y-9935037D01*
X11975567Y-10106487D01*
X12147017Y-10277937D01*
X12672347Y-8661137D02*
X12843797Y-8489687D01*
X12672347Y-8318237D01*
X12500897Y-8489687D01*
X12672347Y-8661137D01*
X17009707Y-8661137D02*
X17181157Y-8489687D01*
X17009707Y-8318237D01*
X16838257Y-8489687D01*
X17009707Y-8661137D01*
X17535037Y-10277937D02*
X17706487Y-10106487D01*
X17535037Y-9935037D01*
X17363587Y-10106487D01*
X17535037Y-10277937D01*
X18060367Y-11894737D02*
X18231817Y-11723287D01*
X18060367Y-11551837D01*
X17888917Y-11723287D01*
X18060367Y-11894737D01*
X18157717Y-13650587D02*
X18329167Y-13479137D01*
X18157717Y-13307687D01*
X17986267Y-13479137D01*
X18157717Y-13650587D01*
X18591817Y-7705467D02*
X18763267Y-7534017D01*
X18591817Y-7362567D01*
X18420367Y-7534017D01*
X18591817Y-7705467D01*
X19117147Y-9322267D02*
X19288597Y-9150817D01*
X19117147Y-8979367D01*
X18945697Y-9150817D01*
X19117147Y-9322267D01*
X19642477Y-10939057D02*
X19813927Y-10767607D01*
X19642477Y-10596157D01*
X19471027Y-10767607D01*
X19642477Y-10939057D01*
X20167807Y-12555857D02*
X20339257Y-12384407D01*
X20167807Y-12212957D01*
X19996357Y-12384407D01*
X20167807Y-12555857D01*
X20173937Y-6749797D02*
X20345387Y-6578347D01*
X20173937Y-6406897D01*
X20002487Y-6578347D01*
X20173937Y-6749797D01*
X20699267Y-8366587D02*
X20870717Y-8195137D01*
X20699267Y-8023687D01*
X20527817Y-8195137D01*
X20699267Y-8366587D01*
X21224587Y-9983387D02*
X21396037Y-9811937D01*
X21224587Y-9640487D01*
X21053137Y-9811937D01*
X21224587Y-9983387D01*
X21749917Y-11600177D02*
X21921367Y-11428727D01*
X21749917Y-11257277D01*
X21578467Y-11428727D01*
X21749917Y-11600177D01*
X22015627Y-6593007D02*
X22187077Y-6421557D01*
X22015627Y-6250107D01*
X21844177Y-6421557D01*
X22015627Y-6593007D01*
X22540947Y-8209797D02*
X22712397Y-8038347D01*
X22540947Y-7866897D01*
X22369497Y-8038347D01*
X22540947Y-8209797D01*
X23066277Y-9826597D02*
X23237727Y-9655147D01*
X23066277Y-9483697D01*
X22894827Y-9655147D01*
X23066277Y-9826597D01*
X23857307Y-6436217D02*
X24028757Y-6264767D01*
X23857307Y-6093317D01*
X23685857Y-6264767D01*
X23857307Y-6436217D01*
X24382637Y-8053017D02*
X24554087Y-7881567D01*
X24382637Y-7710117D01*
X24211187Y-7881567D01*
X24382637Y-8053017D01*
X24907967Y-9669807D02*
X25079417Y-9498357D01*
X24907967Y-9326907D01*
X24736517Y-9498357D01*
X24907967Y-9669807D01*
X25698997Y-6279427D02*
X25870447Y-6107977D01*
X25698997Y-5936527D01*
X25527547Y-6107977D01*
X25698997Y-6279427D01*
X26224327Y-7896227D02*
X26395777Y-7724777D01*
X26224327Y-7553327D01*
X26052877Y-7724777D01*
X26224327Y-7896227D01*
X26749657Y-9513027D02*
X26921107Y-9341577D01*
X26749657Y-9170127D01*
X26578207Y-9341577D01*
X26749657Y-9513027D01*
D11*
X1923476Y-15126031D02*
X1923476Y-14926031D01*
X1923476Y-14926031D02*
X1971095Y-14926031D01*
X1971095Y-14926031D02*
X1999666Y-14935555D01*
X1999666Y-14935555D02*
X2018714Y-14954602D01*
X2018714Y-14954602D02*
X2028238Y-14973650D01*
X2028238Y-14973650D02*
X2037761Y-15011745D01*
X2037761Y-15011745D02*
X2037761Y-15040317D01*
X2037761Y-15040317D02*
X2028238Y-15078412D01*
X2028238Y-15078412D02*
X2018714Y-15097459D01*
X2018714Y-15097459D02*
X1999666Y-15116507D01*
X1999666Y-15116507D02*
X1971095Y-15126031D01*
X1971095Y-15126031D02*
X1923476Y-15126031D01*
X2123476Y-15126031D02*
X2123476Y-14992698D01*
X2123476Y-15030793D02*
X2133000Y-15011745D01*
X2133000Y-15011745D02*
X2142523Y-15002221D01*
X2142523Y-15002221D02*
X2161571Y-14992698D01*
X2161571Y-14992698D02*
X2180619Y-14992698D01*
X2247285Y-15126031D02*
X2247285Y-14992698D01*
X2247285Y-14926031D02*
X2237761Y-14935555D01*
X2237761Y-14935555D02*
X2247285Y-14945079D01*
X2247285Y-14945079D02*
X2256809Y-14935555D01*
X2256809Y-14935555D02*
X2247285Y-14926031D01*
X2247285Y-14926031D02*
X2247285Y-14945079D01*
X2371095Y-15126031D02*
X2352047Y-15116507D01*
X2352047Y-15116507D02*
X2342523Y-15097459D01*
X2342523Y-15097459D02*
X2342523Y-14926031D01*
X2475857Y-15126031D02*
X2456809Y-15116507D01*
X2456809Y-15116507D02*
X2447285Y-15097459D01*
X2447285Y-15097459D02*
X2447285Y-14926031D01*
X2704428Y-15126031D02*
X2704428Y-14926031D01*
X2704428Y-14926031D02*
X2771095Y-15068888D01*
X2771095Y-15068888D02*
X2837761Y-14926031D01*
X2837761Y-14926031D02*
X2837761Y-15126031D01*
X3018714Y-15126031D02*
X3018714Y-15021269D01*
X3018714Y-15021269D02*
X3009190Y-15002221D01*
X3009190Y-15002221D02*
X2990142Y-14992698D01*
X2990142Y-14992698D02*
X2952047Y-14992698D01*
X2952047Y-14992698D02*
X2932999Y-15002221D01*
X3018714Y-15116507D02*
X2999666Y-15126031D01*
X2999666Y-15126031D02*
X2952047Y-15126031D01*
X2952047Y-15126031D02*
X2932999Y-15116507D01*
X2932999Y-15116507D02*
X2923476Y-15097459D01*
X2923476Y-15097459D02*
X2923476Y-15078412D01*
X2923476Y-15078412D02*
X2932999Y-15059364D01*
X2932999Y-15059364D02*
X2952047Y-15049840D01*
X2952047Y-15049840D02*
X2999666Y-15049840D01*
X2999666Y-15049840D02*
X3018714Y-15040317D01*
X3113952Y-14992698D02*
X3113952Y-15192698D01*
X3113952Y-15002221D02*
X3132999Y-14992698D01*
X3132999Y-14992698D02*
X3171095Y-14992698D01*
X3171095Y-14992698D02*
X3190142Y-15002221D01*
X3190142Y-15002221D02*
X3199666Y-15011745D01*
X3199666Y-15011745D02*
X3209190Y-15030793D01*
X3209190Y-15030793D02*
X3209190Y-15087936D01*
X3209190Y-15087936D02*
X3199666Y-15106983D01*
X3199666Y-15106983D02*
X3190142Y-15116507D01*
X3190142Y-15116507D02*
X3171095Y-15126031D01*
X3171095Y-15126031D02*
X3132999Y-15126031D01*
X3132999Y-15126031D02*
X3113952Y-15116507D01*
X3294904Y-15106983D02*
X3304428Y-15116507D01*
X3304428Y-15116507D02*
X3294904Y-15126031D01*
X3294904Y-15126031D02*
X3285380Y-15116507D01*
X3285380Y-15116507D02*
X3294904Y-15106983D01*
X3294904Y-15106983D02*
X3294904Y-15126031D01*
X3294904Y-15002221D02*
X3304428Y-15011745D01*
X3304428Y-15011745D02*
X3294904Y-15021269D01*
X3294904Y-15021269D02*
X3285380Y-15011745D01*
X3285380Y-15011745D02*
X3294904Y-15002221D01*
X3294904Y-15002221D02*
X3294904Y-15021269D01*
D10*
X1562699Y-15404547D02*
X1662699Y-15504547D01*
X1662699Y-15404547D02*
X1562699Y-15504547D01*
D11*
X2028238Y-15546031D02*
X1913952Y-15546031D01*
X1971095Y-15546031D02*
X1971095Y-15346031D01*
X1971095Y-15346031D02*
X1952047Y-15374602D01*
X1952047Y-15374602D02*
X1932999Y-15393650D01*
X1932999Y-15393650D02*
X1913952Y-15403174D01*
X2113952Y-15526983D02*
X2123476Y-15536507D01*
X2123476Y-15536507D02*
X2113952Y-15546031D01*
X2113952Y-15546031D02*
X2104428Y-15536507D01*
X2104428Y-15536507D02*
X2113952Y-15526983D01*
X2113952Y-15526983D02*
X2113952Y-15546031D01*
X2247285Y-15346031D02*
X2266333Y-15346031D01*
X2266333Y-15346031D02*
X2285381Y-15355555D01*
X2285381Y-15355555D02*
X2294904Y-15365079D01*
X2294904Y-15365079D02*
X2304428Y-15384126D01*
X2304428Y-15384126D02*
X2313952Y-15422221D01*
X2313952Y-15422221D02*
X2313952Y-15469840D01*
X2313952Y-15469840D02*
X2304428Y-15507936D01*
X2304428Y-15507936D02*
X2294904Y-15526983D01*
X2294904Y-15526983D02*
X2285381Y-15536507D01*
X2285381Y-15536507D02*
X2266333Y-15546031D01*
X2266333Y-15546031D02*
X2247285Y-15546031D01*
X2247285Y-15546031D02*
X2228238Y-15536507D01*
X2228238Y-15536507D02*
X2218714Y-15526983D01*
X2218714Y-15526983D02*
X2209190Y-15507936D01*
X2209190Y-15507936D02*
X2199666Y-15469840D01*
X2199666Y-15469840D02*
X2199666Y-15422221D01*
X2199666Y-15422221D02*
X2209190Y-15384126D01*
X2209190Y-15384126D02*
X2218714Y-15365079D01*
X2218714Y-15365079D02*
X2228238Y-15355555D01*
X2228238Y-15355555D02*
X2247285Y-15346031D01*
X2437761Y-15346031D02*
X2456809Y-15346031D01*
X2456809Y-15346031D02*
X2475857Y-15355555D01*
X2475857Y-15355555D02*
X2485381Y-15365079D01*
X2485381Y-15365079D02*
X2494904Y-15384126D01*
X2494904Y-15384126D02*
X2504428Y-15422221D01*
X2504428Y-15422221D02*
X2504428Y-15469840D01*
X2504428Y-15469840D02*
X2494904Y-15507936D01*
X2494904Y-15507936D02*
X2485381Y-15526983D01*
X2485381Y-15526983D02*
X2475857Y-15536507D01*
X2475857Y-15536507D02*
X2456809Y-15546031D01*
X2456809Y-15546031D02*
X2437761Y-15546031D01*
X2437761Y-15546031D02*
X2418714Y-15536507D01*
X2418714Y-15536507D02*
X2409190Y-15526983D01*
X2409190Y-15526983D02*
X2399666Y-15507936D01*
X2399666Y-15507936D02*
X2390142Y-15469840D01*
X2390142Y-15469840D02*
X2390142Y-15422221D01*
X2390142Y-15422221D02*
X2399666Y-15384126D01*
X2399666Y-15384126D02*
X2409190Y-15365079D01*
X2409190Y-15365079D02*
X2418714Y-15355555D01*
X2418714Y-15355555D02*
X2437761Y-15346031D01*
X2628238Y-15346031D02*
X2647285Y-15346031D01*
X2647285Y-15346031D02*
X2666333Y-15355555D01*
X2666333Y-15355555D02*
X2675857Y-15365079D01*
X2675857Y-15365079D02*
X2685381Y-15384126D01*
X2685381Y-15384126D02*
X2694904Y-15422221D01*
X2694904Y-15422221D02*
X2694904Y-15469840D01*
X2694904Y-15469840D02*
X2685381Y-15507936D01*
X2685381Y-15507936D02*
X2675857Y-15526983D01*
X2675857Y-15526983D02*
X2666333Y-15536507D01*
X2666333Y-15536507D02*
X2647285Y-15546031D01*
X2647285Y-15546031D02*
X2628238Y-15546031D01*
X2628238Y-15546031D02*
X2609190Y-15536507D01*
X2609190Y-15536507D02*
X2599666Y-15526983D01*
X2599666Y-15526983D02*
X2590142Y-15507936D01*
X2590142Y-15507936D02*
X2580619Y-15469840D01*
X2580619Y-15469840D02*
X2580619Y-15422221D01*
X2580619Y-15422221D02*
X2590142Y-15384126D01*
X2590142Y-15384126D02*
X2599666Y-15365079D01*
X2599666Y-15365079D02*
X2609190Y-15355555D01*
X2609190Y-15355555D02*
X2628238Y-15346031D01*
X2780619Y-15546031D02*
X2780619Y-15412698D01*
X2780619Y-15431745D02*
X2790142Y-15422221D01*
X2790142Y-15422221D02*
X2809190Y-15412698D01*
X2809190Y-15412698D02*
X2837761Y-15412698D01*
X2837761Y-15412698D02*
X2856809Y-15422221D01*
X2856809Y-15422221D02*
X2866333Y-15441269D01*
X2866333Y-15441269D02*
X2866333Y-15546031D01*
X2866333Y-15441269D02*
X2875857Y-15422221D01*
X2875857Y-15422221D02*
X2894904Y-15412698D01*
X2894904Y-15412698D02*
X2923476Y-15412698D01*
X2923476Y-15412698D02*
X2942523Y-15422221D01*
X2942523Y-15422221D02*
X2952047Y-15441269D01*
X2952047Y-15441269D02*
X2952047Y-15546031D01*
X3047285Y-15546031D02*
X3047285Y-15412698D01*
X3047285Y-15431745D02*
X3056809Y-15422221D01*
X3056809Y-15422221D02*
X3075857Y-15412698D01*
X3075857Y-15412698D02*
X3104428Y-15412698D01*
X3104428Y-15412698D02*
X3123476Y-15422221D01*
X3123476Y-15422221D02*
X3133000Y-15441269D01*
X3133000Y-15441269D02*
X3133000Y-15546031D01*
X3133000Y-15441269D02*
X3142523Y-15422221D01*
X3142523Y-15422221D02*
X3161571Y-15412698D01*
X3161571Y-15412698D02*
X3190142Y-15412698D01*
X3190142Y-15412698D02*
X3209190Y-15422221D01*
X3209190Y-15422221D02*
X3218714Y-15441269D01*
X3218714Y-15441269D02*
X3218714Y-15546031D01*
X3609190Y-15336507D02*
X3437762Y-15593650D01*
X3866333Y-15346031D02*
X3885381Y-15346031D01*
X3885381Y-15346031D02*
X3904428Y-15355555D01*
X3904428Y-15355555D02*
X3913952Y-15365079D01*
X3913952Y-15365079D02*
X3923476Y-15384126D01*
X3923476Y-15384126D02*
X3933000Y-15422221D01*
X3933000Y-15422221D02*
X3933000Y-15469840D01*
X3933000Y-15469840D02*
X3923476Y-15507936D01*
X3923476Y-15507936D02*
X3913952Y-15526983D01*
X3913952Y-15526983D02*
X3904428Y-15536507D01*
X3904428Y-15536507D02*
X3885381Y-15546031D01*
X3885381Y-15546031D02*
X3866333Y-15546031D01*
X3866333Y-15546031D02*
X3847285Y-15536507D01*
X3847285Y-15536507D02*
X3837762Y-15526983D01*
X3837762Y-15526983D02*
X3828238Y-15507936D01*
X3828238Y-15507936D02*
X3818714Y-15469840D01*
X3818714Y-15469840D02*
X3818714Y-15422221D01*
X3818714Y-15422221D02*
X3828238Y-15384126D01*
X3828238Y-15384126D02*
X3837762Y-15365079D01*
X3837762Y-15365079D02*
X3847285Y-15355555D01*
X3847285Y-15355555D02*
X3866333Y-15346031D01*
X4018714Y-15526983D02*
X4028238Y-15536507D01*
X4028238Y-15536507D02*
X4018714Y-15546031D01*
X4018714Y-15546031D02*
X4009190Y-15536507D01*
X4009190Y-15536507D02*
X4018714Y-15526983D01*
X4018714Y-15526983D02*
X4018714Y-15546031D01*
X4152047Y-15346031D02*
X4171095Y-15346031D01*
X4171095Y-15346031D02*
X4190143Y-15355555D01*
X4190143Y-15355555D02*
X4199666Y-15365079D01*
X4199666Y-15365079D02*
X4209190Y-15384126D01*
X4209190Y-15384126D02*
X4218714Y-15422221D01*
X4218714Y-15422221D02*
X4218714Y-15469840D01*
X4218714Y-15469840D02*
X4209190Y-15507936D01*
X4209190Y-15507936D02*
X4199666Y-15526983D01*
X4199666Y-15526983D02*
X4190143Y-15536507D01*
X4190143Y-15536507D02*
X4171095Y-15546031D01*
X4171095Y-15546031D02*
X4152047Y-15546031D01*
X4152047Y-15546031D02*
X4133000Y-15536507D01*
X4133000Y-15536507D02*
X4123476Y-15526983D01*
X4123476Y-15526983D02*
X4113952Y-15507936D01*
X4113952Y-15507936D02*
X4104428Y-15469840D01*
X4104428Y-15469840D02*
X4104428Y-15422221D01*
X4104428Y-15422221D02*
X4113952Y-15384126D01*
X4113952Y-15384126D02*
X4123476Y-15365079D01*
X4123476Y-15365079D02*
X4133000Y-15355555D01*
X4133000Y-15355555D02*
X4152047Y-15346031D01*
X4285381Y-15346031D02*
X4409190Y-15346031D01*
X4409190Y-15346031D02*
X4342524Y-15422221D01*
X4342524Y-15422221D02*
X4371095Y-15422221D01*
X4371095Y-15422221D02*
X4390143Y-15431745D01*
X4390143Y-15431745D02*
X4399666Y-15441269D01*
X4399666Y-15441269D02*
X4409190Y-15460317D01*
X4409190Y-15460317D02*
X4409190Y-15507936D01*
X4409190Y-15507936D02*
X4399666Y-15526983D01*
X4399666Y-15526983D02*
X4390143Y-15536507D01*
X4390143Y-15536507D02*
X4371095Y-15546031D01*
X4371095Y-15546031D02*
X4313952Y-15546031D01*
X4313952Y-15546031D02*
X4294905Y-15536507D01*
X4294905Y-15536507D02*
X4285381Y-15526983D01*
X4504428Y-15546031D02*
X4542524Y-15546031D01*
X4542524Y-15546031D02*
X4561571Y-15536507D01*
X4561571Y-15536507D02*
X4571095Y-15526983D01*
X4571095Y-15526983D02*
X4590143Y-15498412D01*
X4590143Y-15498412D02*
X4599666Y-15460317D01*
X4599666Y-15460317D02*
X4599666Y-15384126D01*
X4599666Y-15384126D02*
X4590143Y-15365079D01*
X4590143Y-15365079D02*
X4580619Y-15355555D01*
X4580619Y-15355555D02*
X4561571Y-15346031D01*
X4561571Y-15346031D02*
X4523476Y-15346031D01*
X4523476Y-15346031D02*
X4504428Y-15355555D01*
X4504428Y-15355555D02*
X4494905Y-15365079D01*
X4494905Y-15365079D02*
X4485381Y-15384126D01*
X4485381Y-15384126D02*
X4485381Y-15431745D01*
X4485381Y-15431745D02*
X4494905Y-15450793D01*
X4494905Y-15450793D02*
X4504428Y-15460317D01*
X4504428Y-15460317D02*
X4523476Y-15469840D01*
X4523476Y-15469840D02*
X4561571Y-15469840D01*
X4561571Y-15469840D02*
X4580619Y-15460317D01*
X4580619Y-15460317D02*
X4590143Y-15450793D01*
X4590143Y-15450793D02*
X4599666Y-15431745D01*
X4771095Y-15412698D02*
X4771095Y-15546031D01*
X4723476Y-15336507D02*
X4675857Y-15479364D01*
X4675857Y-15479364D02*
X4799666Y-15479364D01*
X4866333Y-15346031D02*
X4866333Y-15384126D01*
X4942524Y-15346031D02*
X4942524Y-15384126D01*
X5237762Y-15622221D02*
X5228238Y-15612698D01*
X5228238Y-15612698D02*
X5209190Y-15584126D01*
X5209190Y-15584126D02*
X5199667Y-15565079D01*
X5199667Y-15565079D02*
X5190143Y-15536507D01*
X5190143Y-15536507D02*
X5180619Y-15488888D01*
X5180619Y-15488888D02*
X5180619Y-15450793D01*
X5180619Y-15450793D02*
X5190143Y-15403174D01*
X5190143Y-15403174D02*
X5199667Y-15374602D01*
X5199667Y-15374602D02*
X5209190Y-15355555D01*
X5209190Y-15355555D02*
X5228238Y-15326983D01*
X5228238Y-15326983D02*
X5237762Y-15317459D01*
X5304428Y-15365079D02*
X5313952Y-15355555D01*
X5313952Y-15355555D02*
X5333000Y-15346031D01*
X5333000Y-15346031D02*
X5380619Y-15346031D01*
X5380619Y-15346031D02*
X5399667Y-15355555D01*
X5399667Y-15355555D02*
X5409190Y-15365079D01*
X5409190Y-15365079D02*
X5418714Y-15384126D01*
X5418714Y-15384126D02*
X5418714Y-15403174D01*
X5418714Y-15403174D02*
X5409190Y-15431745D01*
X5409190Y-15431745D02*
X5294905Y-15546031D01*
X5294905Y-15546031D02*
X5418714Y-15546031D01*
X5656809Y-15546031D02*
X5656809Y-15346031D01*
X5742524Y-15546031D02*
X5742524Y-15441269D01*
X5742524Y-15441269D02*
X5733000Y-15422221D01*
X5733000Y-15422221D02*
X5713952Y-15412698D01*
X5713952Y-15412698D02*
X5685381Y-15412698D01*
X5685381Y-15412698D02*
X5666333Y-15422221D01*
X5666333Y-15422221D02*
X5656809Y-15431745D01*
X5866333Y-15546031D02*
X5847286Y-15536507D01*
X5847286Y-15536507D02*
X5837762Y-15526983D01*
X5837762Y-15526983D02*
X5828238Y-15507936D01*
X5828238Y-15507936D02*
X5828238Y-15450793D01*
X5828238Y-15450793D02*
X5837762Y-15431745D01*
X5837762Y-15431745D02*
X5847286Y-15422221D01*
X5847286Y-15422221D02*
X5866333Y-15412698D01*
X5866333Y-15412698D02*
X5894905Y-15412698D01*
X5894905Y-15412698D02*
X5913952Y-15422221D01*
X5913952Y-15422221D02*
X5923476Y-15431745D01*
X5923476Y-15431745D02*
X5933000Y-15450793D01*
X5933000Y-15450793D02*
X5933000Y-15507936D01*
X5933000Y-15507936D02*
X5923476Y-15526983D01*
X5923476Y-15526983D02*
X5913952Y-15536507D01*
X5913952Y-15536507D02*
X5894905Y-15546031D01*
X5894905Y-15546031D02*
X5866333Y-15546031D01*
X6047286Y-15546031D02*
X6028238Y-15536507D01*
X6028238Y-15536507D02*
X6018714Y-15517459D01*
X6018714Y-15517459D02*
X6018714Y-15346031D01*
X6199667Y-15536507D02*
X6180619Y-15546031D01*
X6180619Y-15546031D02*
X6142524Y-15546031D01*
X6142524Y-15546031D02*
X6123476Y-15536507D01*
X6123476Y-15536507D02*
X6113952Y-15517459D01*
X6113952Y-15517459D02*
X6113952Y-15441269D01*
X6113952Y-15441269D02*
X6123476Y-15422221D01*
X6123476Y-15422221D02*
X6142524Y-15412698D01*
X6142524Y-15412698D02*
X6180619Y-15412698D01*
X6180619Y-15412698D02*
X6199667Y-15422221D01*
X6199667Y-15422221D02*
X6209190Y-15441269D01*
X6209190Y-15441269D02*
X6209190Y-15460317D01*
X6209190Y-15460317D02*
X6113952Y-15479364D01*
X6285381Y-15536507D02*
X6304428Y-15546031D01*
X6304428Y-15546031D02*
X6342524Y-15546031D01*
X6342524Y-15546031D02*
X6361571Y-15536507D01*
X6361571Y-15536507D02*
X6371095Y-15517459D01*
X6371095Y-15517459D02*
X6371095Y-15507936D01*
X6371095Y-15507936D02*
X6361571Y-15488888D01*
X6361571Y-15488888D02*
X6342524Y-15479364D01*
X6342524Y-15479364D02*
X6313952Y-15479364D01*
X6313952Y-15479364D02*
X6294905Y-15469840D01*
X6294905Y-15469840D02*
X6285381Y-15450793D01*
X6285381Y-15450793D02*
X6285381Y-15441269D01*
X6285381Y-15441269D02*
X6294905Y-15422221D01*
X6294905Y-15422221D02*
X6313952Y-15412698D01*
X6313952Y-15412698D02*
X6342524Y-15412698D01*
X6342524Y-15412698D02*
X6361571Y-15422221D01*
X6437762Y-15622221D02*
X6447286Y-15612698D01*
X6447286Y-15612698D02*
X6466333Y-15584126D01*
X6466333Y-15584126D02*
X6475857Y-15565079D01*
X6475857Y-15565079D02*
X6485381Y-15536507D01*
X6485381Y-15536507D02*
X6494905Y-15488888D01*
X6494905Y-15488888D02*
X6494905Y-15450793D01*
X6494905Y-15450793D02*
X6485381Y-15403174D01*
X6485381Y-15403174D02*
X6475857Y-15374602D01*
X6475857Y-15374602D02*
X6466333Y-15355555D01*
X6466333Y-15355555D02*
X6447286Y-15326983D01*
X6447286Y-15326983D02*
X6437762Y-15317459D01*
X6799667Y-15622221D02*
X6790143Y-15612698D01*
X6790143Y-15612698D02*
X6771095Y-15584126D01*
X6771095Y-15584126D02*
X6761571Y-15565079D01*
X6761571Y-15565079D02*
X6752048Y-15536507D01*
X6752048Y-15536507D02*
X6742524Y-15488888D01*
X6742524Y-15488888D02*
X6742524Y-15450793D01*
X6742524Y-15450793D02*
X6752048Y-15403174D01*
X6752048Y-15403174D02*
X6761571Y-15374602D01*
X6761571Y-15374602D02*
X6771095Y-15355555D01*
X6771095Y-15355555D02*
X6790143Y-15326983D01*
X6790143Y-15326983D02*
X6799667Y-15317459D01*
X6875857Y-15412698D02*
X6875857Y-15546031D01*
X6875857Y-15431745D02*
X6885381Y-15422221D01*
X6885381Y-15422221D02*
X6904428Y-15412698D01*
X6904428Y-15412698D02*
X6933000Y-15412698D01*
X6933000Y-15412698D02*
X6952048Y-15422221D01*
X6952048Y-15422221D02*
X6961571Y-15441269D01*
X6961571Y-15441269D02*
X6961571Y-15546031D01*
X7085381Y-15546031D02*
X7066333Y-15536507D01*
X7066333Y-15536507D02*
X7056809Y-15526983D01*
X7056809Y-15526983D02*
X7047286Y-15507936D01*
X7047286Y-15507936D02*
X7047286Y-15450793D01*
X7047286Y-15450793D02*
X7056809Y-15431745D01*
X7056809Y-15431745D02*
X7066333Y-15422221D01*
X7066333Y-15422221D02*
X7085381Y-15412698D01*
X7085381Y-15412698D02*
X7113952Y-15412698D01*
X7113952Y-15412698D02*
X7133000Y-15422221D01*
X7133000Y-15422221D02*
X7142524Y-15431745D01*
X7142524Y-15431745D02*
X7152048Y-15450793D01*
X7152048Y-15450793D02*
X7152048Y-15507936D01*
X7152048Y-15507936D02*
X7142524Y-15526983D01*
X7142524Y-15526983D02*
X7133000Y-15536507D01*
X7133000Y-15536507D02*
X7113952Y-15546031D01*
X7113952Y-15546031D02*
X7085381Y-15546031D01*
X7209190Y-15412698D02*
X7285381Y-15412698D01*
X7237762Y-15346031D02*
X7237762Y-15517459D01*
X7237762Y-15517459D02*
X7247286Y-15536507D01*
X7247286Y-15536507D02*
X7266333Y-15546031D01*
X7266333Y-15546031D02*
X7285381Y-15546031D01*
X7504429Y-15412698D02*
X7504429Y-15612698D01*
X7504429Y-15422221D02*
X7523476Y-15412698D01*
X7523476Y-15412698D02*
X7561571Y-15412698D01*
X7561571Y-15412698D02*
X7580619Y-15422221D01*
X7580619Y-15422221D02*
X7590143Y-15431745D01*
X7590143Y-15431745D02*
X7599667Y-15450793D01*
X7599667Y-15450793D02*
X7599667Y-15507936D01*
X7599667Y-15507936D02*
X7590143Y-15526983D01*
X7590143Y-15526983D02*
X7580619Y-15536507D01*
X7580619Y-15536507D02*
X7561571Y-15546031D01*
X7561571Y-15546031D02*
X7523476Y-15546031D01*
X7523476Y-15546031D02*
X7504429Y-15536507D01*
X7713952Y-15546031D02*
X7694905Y-15536507D01*
X7694905Y-15536507D02*
X7685381Y-15517459D01*
X7685381Y-15517459D02*
X7685381Y-15346031D01*
X7875857Y-15546031D02*
X7875857Y-15441269D01*
X7875857Y-15441269D02*
X7866333Y-15422221D01*
X7866333Y-15422221D02*
X7847286Y-15412698D01*
X7847286Y-15412698D02*
X7809190Y-15412698D01*
X7809190Y-15412698D02*
X7790143Y-15422221D01*
X7875857Y-15536507D02*
X7856810Y-15546031D01*
X7856810Y-15546031D02*
X7809190Y-15546031D01*
X7809190Y-15546031D02*
X7790143Y-15536507D01*
X7790143Y-15536507D02*
X7780619Y-15517459D01*
X7780619Y-15517459D02*
X7780619Y-15498412D01*
X7780619Y-15498412D02*
X7790143Y-15479364D01*
X7790143Y-15479364D02*
X7809190Y-15469840D01*
X7809190Y-15469840D02*
X7856810Y-15469840D01*
X7856810Y-15469840D02*
X7875857Y-15460317D01*
X7942524Y-15412698D02*
X8018714Y-15412698D01*
X7971095Y-15346031D02*
X7971095Y-15517459D01*
X7971095Y-15517459D02*
X7980619Y-15536507D01*
X7980619Y-15536507D02*
X7999667Y-15546031D01*
X7999667Y-15546031D02*
X8018714Y-15546031D01*
X8161571Y-15536507D02*
X8142524Y-15546031D01*
X8142524Y-15546031D02*
X8104429Y-15546031D01*
X8104429Y-15546031D02*
X8085381Y-15536507D01*
X8085381Y-15536507D02*
X8075857Y-15517459D01*
X8075857Y-15517459D02*
X8075857Y-15441269D01*
X8075857Y-15441269D02*
X8085381Y-15422221D01*
X8085381Y-15422221D02*
X8104429Y-15412698D01*
X8104429Y-15412698D02*
X8142524Y-15412698D01*
X8142524Y-15412698D02*
X8161571Y-15422221D01*
X8161571Y-15422221D02*
X8171095Y-15441269D01*
X8171095Y-15441269D02*
X8171095Y-15460317D01*
X8171095Y-15460317D02*
X8075857Y-15479364D01*
X8342524Y-15546031D02*
X8342524Y-15346031D01*
X8342524Y-15536507D02*
X8323476Y-15546031D01*
X8323476Y-15546031D02*
X8285381Y-15546031D01*
X8285381Y-15546031D02*
X8266333Y-15536507D01*
X8266333Y-15536507D02*
X8256810Y-15526983D01*
X8256810Y-15526983D02*
X8247286Y-15507936D01*
X8247286Y-15507936D02*
X8247286Y-15450793D01*
X8247286Y-15450793D02*
X8256810Y-15431745D01*
X8256810Y-15431745D02*
X8266333Y-15422221D01*
X8266333Y-15422221D02*
X8285381Y-15412698D01*
X8285381Y-15412698D02*
X8323476Y-15412698D01*
X8323476Y-15412698D02*
X8342524Y-15422221D01*
X8418714Y-15622221D02*
X8428238Y-15612698D01*
X8428238Y-15612698D02*
X8447286Y-15584126D01*
X8447286Y-15584126D02*
X8456810Y-15565079D01*
X8456810Y-15565079D02*
X8466333Y-15536507D01*
X8466333Y-15536507D02*
X8475857Y-15488888D01*
X8475857Y-15488888D02*
X8475857Y-15450793D01*
X8475857Y-15450793D02*
X8466333Y-15403174D01*
X8466333Y-15403174D02*
X8456810Y-15374602D01*
X8456810Y-15374602D02*
X8447286Y-15355555D01*
X8447286Y-15355555D02*
X8428238Y-15326983D01*
X8428238Y-15326983D02*
X8418714Y-15317459D01*
D12*
X1662699Y-15718547D02*
G75*
G02*
X1492519Y-15718547I-85090J0D01*
G01*
X1492519Y-15718547D02*
G75*
G02*
X1662699Y-15718547I85090J0D01*
G01*
D11*
X2028238Y-15810031D02*
X1913952Y-15810031D01*
X1971095Y-15810031D02*
X1971095Y-15610031D01*
X1971095Y-15610031D02*
X1952047Y-15638602D01*
X1952047Y-15638602D02*
X1932999Y-15657650D01*
X1932999Y-15657650D02*
X1913952Y-15667174D01*
X2113952Y-15790983D02*
X2123476Y-15800507D01*
X2123476Y-15800507D02*
X2113952Y-15810031D01*
X2113952Y-15810031D02*
X2104428Y-15800507D01*
X2104428Y-15800507D02*
X2113952Y-15790983D01*
X2113952Y-15790983D02*
X2113952Y-15810031D01*
X2190142Y-15610031D02*
X2323476Y-15610031D01*
X2323476Y-15610031D02*
X2237761Y-15810031D01*
X2437761Y-15610031D02*
X2456809Y-15610031D01*
X2456809Y-15610031D02*
X2475857Y-15619555D01*
X2475857Y-15619555D02*
X2485381Y-15629079D01*
X2485381Y-15629079D02*
X2494904Y-15648126D01*
X2494904Y-15648126D02*
X2504428Y-15686221D01*
X2504428Y-15686221D02*
X2504428Y-15733840D01*
X2504428Y-15733840D02*
X2494904Y-15771936D01*
X2494904Y-15771936D02*
X2485381Y-15790983D01*
X2485381Y-15790983D02*
X2475857Y-15800507D01*
X2475857Y-15800507D02*
X2456809Y-15810031D01*
X2456809Y-15810031D02*
X2437761Y-15810031D01*
X2437761Y-15810031D02*
X2418714Y-15800507D01*
X2418714Y-15800507D02*
X2409190Y-15790983D01*
X2409190Y-15790983D02*
X2399666Y-15771936D01*
X2399666Y-15771936D02*
X2390142Y-15733840D01*
X2390142Y-15733840D02*
X2390142Y-15686221D01*
X2390142Y-15686221D02*
X2399666Y-15648126D01*
X2399666Y-15648126D02*
X2409190Y-15629079D01*
X2409190Y-15629079D02*
X2418714Y-15619555D01*
X2418714Y-15619555D02*
X2437761Y-15610031D01*
X2580619Y-15629079D02*
X2590142Y-15619555D01*
X2590142Y-15619555D02*
X2609190Y-15610031D01*
X2609190Y-15610031D02*
X2656809Y-15610031D01*
X2656809Y-15610031D02*
X2675857Y-15619555D01*
X2675857Y-15619555D02*
X2685381Y-15629079D01*
X2685381Y-15629079D02*
X2694904Y-15648126D01*
X2694904Y-15648126D02*
X2694904Y-15667174D01*
X2694904Y-15667174D02*
X2685381Y-15695745D01*
X2685381Y-15695745D02*
X2571095Y-15810031D01*
X2571095Y-15810031D02*
X2694904Y-15810031D01*
X2780619Y-15810031D02*
X2780619Y-15676698D01*
X2780619Y-15695745D02*
X2790142Y-15686221D01*
X2790142Y-15686221D02*
X2809190Y-15676698D01*
X2809190Y-15676698D02*
X2837761Y-15676698D01*
X2837761Y-15676698D02*
X2856809Y-15686221D01*
X2856809Y-15686221D02*
X2866333Y-15705269D01*
X2866333Y-15705269D02*
X2866333Y-15810031D01*
X2866333Y-15705269D02*
X2875857Y-15686221D01*
X2875857Y-15686221D02*
X2894904Y-15676698D01*
X2894904Y-15676698D02*
X2923476Y-15676698D01*
X2923476Y-15676698D02*
X2942523Y-15686221D01*
X2942523Y-15686221D02*
X2952047Y-15705269D01*
X2952047Y-15705269D02*
X2952047Y-15810031D01*
X3047285Y-15810031D02*
X3047285Y-15676698D01*
X3047285Y-15695745D02*
X3056809Y-15686221D01*
X3056809Y-15686221D02*
X3075857Y-15676698D01*
X3075857Y-15676698D02*
X3104428Y-15676698D01*
X3104428Y-15676698D02*
X3123476Y-15686221D01*
X3123476Y-15686221D02*
X3133000Y-15705269D01*
X3133000Y-15705269D02*
X3133000Y-15810031D01*
X3133000Y-15705269D02*
X3142523Y-15686221D01*
X3142523Y-15686221D02*
X3161571Y-15676698D01*
X3161571Y-15676698D02*
X3190142Y-15676698D01*
X3190142Y-15676698D02*
X3209190Y-15686221D01*
X3209190Y-15686221D02*
X3218714Y-15705269D01*
X3218714Y-15705269D02*
X3218714Y-15810031D01*
X3609190Y-15600507D02*
X3437762Y-15857650D01*
X3866333Y-15610031D02*
X3885381Y-15610031D01*
X3885381Y-15610031D02*
X3904428Y-15619555D01*
X3904428Y-15619555D02*
X3913952Y-15629079D01*
X3913952Y-15629079D02*
X3923476Y-15648126D01*
X3923476Y-15648126D02*
X3933000Y-15686221D01*
X3933000Y-15686221D02*
X3933000Y-15733840D01*
X3933000Y-15733840D02*
X3923476Y-15771936D01*
X3923476Y-15771936D02*
X3913952Y-15790983D01*
X3913952Y-15790983D02*
X3904428Y-15800507D01*
X3904428Y-15800507D02*
X3885381Y-15810031D01*
X3885381Y-15810031D02*
X3866333Y-15810031D01*
X3866333Y-15810031D02*
X3847285Y-15800507D01*
X3847285Y-15800507D02*
X3837762Y-15790983D01*
X3837762Y-15790983D02*
X3828238Y-15771936D01*
X3828238Y-15771936D02*
X3818714Y-15733840D01*
X3818714Y-15733840D02*
X3818714Y-15686221D01*
X3818714Y-15686221D02*
X3828238Y-15648126D01*
X3828238Y-15648126D02*
X3837762Y-15629079D01*
X3837762Y-15629079D02*
X3847285Y-15619555D01*
X3847285Y-15619555D02*
X3866333Y-15610031D01*
X4018714Y-15790983D02*
X4028238Y-15800507D01*
X4028238Y-15800507D02*
X4018714Y-15810031D01*
X4018714Y-15810031D02*
X4009190Y-15800507D01*
X4009190Y-15800507D02*
X4018714Y-15790983D01*
X4018714Y-15790983D02*
X4018714Y-15810031D01*
X4152047Y-15610031D02*
X4171095Y-15610031D01*
X4171095Y-15610031D02*
X4190143Y-15619555D01*
X4190143Y-15619555D02*
X4199666Y-15629079D01*
X4199666Y-15629079D02*
X4209190Y-15648126D01*
X4209190Y-15648126D02*
X4218714Y-15686221D01*
X4218714Y-15686221D02*
X4218714Y-15733840D01*
X4218714Y-15733840D02*
X4209190Y-15771936D01*
X4209190Y-15771936D02*
X4199666Y-15790983D01*
X4199666Y-15790983D02*
X4190143Y-15800507D01*
X4190143Y-15800507D02*
X4171095Y-15810031D01*
X4171095Y-15810031D02*
X4152047Y-15810031D01*
X4152047Y-15810031D02*
X4133000Y-15800507D01*
X4133000Y-15800507D02*
X4123476Y-15790983D01*
X4123476Y-15790983D02*
X4113952Y-15771936D01*
X4113952Y-15771936D02*
X4104428Y-15733840D01*
X4104428Y-15733840D02*
X4104428Y-15686221D01*
X4104428Y-15686221D02*
X4113952Y-15648126D01*
X4113952Y-15648126D02*
X4123476Y-15629079D01*
X4123476Y-15629079D02*
X4133000Y-15619555D01*
X4133000Y-15619555D02*
X4152047Y-15610031D01*
X4390143Y-15610031D02*
X4352047Y-15610031D01*
X4352047Y-15610031D02*
X4333000Y-15619555D01*
X4333000Y-15619555D02*
X4323476Y-15629079D01*
X4323476Y-15629079D02*
X4304428Y-15657650D01*
X4304428Y-15657650D02*
X4294905Y-15695745D01*
X4294905Y-15695745D02*
X4294905Y-15771936D01*
X4294905Y-15771936D02*
X4304428Y-15790983D01*
X4304428Y-15790983D02*
X4313952Y-15800507D01*
X4313952Y-15800507D02*
X4333000Y-15810031D01*
X4333000Y-15810031D02*
X4371095Y-15810031D01*
X4371095Y-15810031D02*
X4390143Y-15800507D01*
X4390143Y-15800507D02*
X4399666Y-15790983D01*
X4399666Y-15790983D02*
X4409190Y-15771936D01*
X4409190Y-15771936D02*
X4409190Y-15724317D01*
X4409190Y-15724317D02*
X4399666Y-15705269D01*
X4399666Y-15705269D02*
X4390143Y-15695745D01*
X4390143Y-15695745D02*
X4371095Y-15686221D01*
X4371095Y-15686221D02*
X4333000Y-15686221D01*
X4333000Y-15686221D02*
X4313952Y-15695745D01*
X4313952Y-15695745D02*
X4304428Y-15705269D01*
X4304428Y-15705269D02*
X4294905Y-15724317D01*
X4475857Y-15610031D02*
X4609190Y-15610031D01*
X4609190Y-15610031D02*
X4523476Y-15810031D01*
X4723476Y-15610031D02*
X4742524Y-15610031D01*
X4742524Y-15610031D02*
X4761571Y-15619555D01*
X4761571Y-15619555D02*
X4771095Y-15629079D01*
X4771095Y-15629079D02*
X4780619Y-15648126D01*
X4780619Y-15648126D02*
X4790143Y-15686221D01*
X4790143Y-15686221D02*
X4790143Y-15733840D01*
X4790143Y-15733840D02*
X4780619Y-15771936D01*
X4780619Y-15771936D02*
X4771095Y-15790983D01*
X4771095Y-15790983D02*
X4761571Y-15800507D01*
X4761571Y-15800507D02*
X4742524Y-15810031D01*
X4742524Y-15810031D02*
X4723476Y-15810031D01*
X4723476Y-15810031D02*
X4704428Y-15800507D01*
X4704428Y-15800507D02*
X4694905Y-15790983D01*
X4694905Y-15790983D02*
X4685381Y-15771936D01*
X4685381Y-15771936D02*
X4675857Y-15733840D01*
X4675857Y-15733840D02*
X4675857Y-15686221D01*
X4675857Y-15686221D02*
X4685381Y-15648126D01*
X4685381Y-15648126D02*
X4694905Y-15629079D01*
X4694905Y-15629079D02*
X4704428Y-15619555D01*
X4704428Y-15619555D02*
X4723476Y-15610031D01*
X4866333Y-15610031D02*
X4866333Y-15648126D01*
X4942524Y-15610031D02*
X4942524Y-15648126D01*
X5237762Y-15886221D02*
X5228238Y-15876698D01*
X5228238Y-15876698D02*
X5209190Y-15848126D01*
X5209190Y-15848126D02*
X5199667Y-15829079D01*
X5199667Y-15829079D02*
X5190143Y-15800507D01*
X5190143Y-15800507D02*
X5180619Y-15752888D01*
X5180619Y-15752888D02*
X5180619Y-15714793D01*
X5180619Y-15714793D02*
X5190143Y-15667174D01*
X5190143Y-15667174D02*
X5199667Y-15638602D01*
X5199667Y-15638602D02*
X5209190Y-15619555D01*
X5209190Y-15619555D02*
X5228238Y-15590983D01*
X5228238Y-15590983D02*
X5237762Y-15581459D01*
X5342524Y-15695745D02*
X5323476Y-15686221D01*
X5323476Y-15686221D02*
X5313952Y-15676698D01*
X5313952Y-15676698D02*
X5304428Y-15657650D01*
X5304428Y-15657650D02*
X5304428Y-15648126D01*
X5304428Y-15648126D02*
X5313952Y-15629079D01*
X5313952Y-15629079D02*
X5323476Y-15619555D01*
X5323476Y-15619555D02*
X5342524Y-15610031D01*
X5342524Y-15610031D02*
X5380619Y-15610031D01*
X5380619Y-15610031D02*
X5399667Y-15619555D01*
X5399667Y-15619555D02*
X5409190Y-15629079D01*
X5409190Y-15629079D02*
X5418714Y-15648126D01*
X5418714Y-15648126D02*
X5418714Y-15657650D01*
X5418714Y-15657650D02*
X5409190Y-15676698D01*
X5409190Y-15676698D02*
X5399667Y-15686221D01*
X5399667Y-15686221D02*
X5380619Y-15695745D01*
X5380619Y-15695745D02*
X5342524Y-15695745D01*
X5342524Y-15695745D02*
X5323476Y-15705269D01*
X5323476Y-15705269D02*
X5313952Y-15714793D01*
X5313952Y-15714793D02*
X5304428Y-15733840D01*
X5304428Y-15733840D02*
X5304428Y-15771936D01*
X5304428Y-15771936D02*
X5313952Y-15790983D01*
X5313952Y-15790983D02*
X5323476Y-15800507D01*
X5323476Y-15800507D02*
X5342524Y-15810031D01*
X5342524Y-15810031D02*
X5380619Y-15810031D01*
X5380619Y-15810031D02*
X5399667Y-15800507D01*
X5399667Y-15800507D02*
X5409190Y-15790983D01*
X5409190Y-15790983D02*
X5418714Y-15771936D01*
X5418714Y-15771936D02*
X5418714Y-15733840D01*
X5418714Y-15733840D02*
X5409190Y-15714793D01*
X5409190Y-15714793D02*
X5399667Y-15705269D01*
X5399667Y-15705269D02*
X5380619Y-15695745D01*
X5590143Y-15676698D02*
X5590143Y-15810031D01*
X5542524Y-15600507D02*
X5494905Y-15743364D01*
X5494905Y-15743364D02*
X5618714Y-15743364D01*
X5847286Y-15810031D02*
X5847286Y-15610031D01*
X5933000Y-15810031D02*
X5933000Y-15705269D01*
X5933000Y-15705269D02*
X5923476Y-15686221D01*
X5923476Y-15686221D02*
X5904428Y-15676698D01*
X5904428Y-15676698D02*
X5875857Y-15676698D01*
X5875857Y-15676698D02*
X5856809Y-15686221D01*
X5856809Y-15686221D02*
X5847286Y-15695745D01*
X6056809Y-15810031D02*
X6037762Y-15800507D01*
X6037762Y-15800507D02*
X6028238Y-15790983D01*
X6028238Y-15790983D02*
X6018714Y-15771936D01*
X6018714Y-15771936D02*
X6018714Y-15714793D01*
X6018714Y-15714793D02*
X6028238Y-15695745D01*
X6028238Y-15695745D02*
X6037762Y-15686221D01*
X6037762Y-15686221D02*
X6056809Y-15676698D01*
X6056809Y-15676698D02*
X6085381Y-15676698D01*
X6085381Y-15676698D02*
X6104428Y-15686221D01*
X6104428Y-15686221D02*
X6113952Y-15695745D01*
X6113952Y-15695745D02*
X6123476Y-15714793D01*
X6123476Y-15714793D02*
X6123476Y-15771936D01*
X6123476Y-15771936D02*
X6113952Y-15790983D01*
X6113952Y-15790983D02*
X6104428Y-15800507D01*
X6104428Y-15800507D02*
X6085381Y-15810031D01*
X6085381Y-15810031D02*
X6056809Y-15810031D01*
X6237762Y-15810031D02*
X6218714Y-15800507D01*
X6218714Y-15800507D02*
X6209190Y-15781459D01*
X6209190Y-15781459D02*
X6209190Y-15610031D01*
X6390143Y-15800507D02*
X6371095Y-15810031D01*
X6371095Y-15810031D02*
X6333000Y-15810031D01*
X6333000Y-15810031D02*
X6313952Y-15800507D01*
X6313952Y-15800507D02*
X6304428Y-15781459D01*
X6304428Y-15781459D02*
X6304428Y-15705269D01*
X6304428Y-15705269D02*
X6313952Y-15686221D01*
X6313952Y-15686221D02*
X6333000Y-15676698D01*
X6333000Y-15676698D02*
X6371095Y-15676698D01*
X6371095Y-15676698D02*
X6390143Y-15686221D01*
X6390143Y-15686221D02*
X6399667Y-15705269D01*
X6399667Y-15705269D02*
X6399667Y-15724317D01*
X6399667Y-15724317D02*
X6304428Y-15743364D01*
X6475857Y-15800507D02*
X6494905Y-15810031D01*
X6494905Y-15810031D02*
X6533000Y-15810031D01*
X6533000Y-15810031D02*
X6552048Y-15800507D01*
X6552048Y-15800507D02*
X6561571Y-15781459D01*
X6561571Y-15781459D02*
X6561571Y-15771936D01*
X6561571Y-15771936D02*
X6552048Y-15752888D01*
X6552048Y-15752888D02*
X6533000Y-15743364D01*
X6533000Y-15743364D02*
X6504428Y-15743364D01*
X6504428Y-15743364D02*
X6485381Y-15733840D01*
X6485381Y-15733840D02*
X6475857Y-15714793D01*
X6475857Y-15714793D02*
X6475857Y-15705269D01*
X6475857Y-15705269D02*
X6485381Y-15686221D01*
X6485381Y-15686221D02*
X6504428Y-15676698D01*
X6504428Y-15676698D02*
X6533000Y-15676698D01*
X6533000Y-15676698D02*
X6552048Y-15686221D01*
X6628238Y-15886221D02*
X6637762Y-15876698D01*
X6637762Y-15876698D02*
X6656809Y-15848126D01*
X6656809Y-15848126D02*
X6666333Y-15829079D01*
X6666333Y-15829079D02*
X6675857Y-15800507D01*
X6675857Y-15800507D02*
X6685381Y-15752888D01*
X6685381Y-15752888D02*
X6685381Y-15714793D01*
X6685381Y-15714793D02*
X6675857Y-15667174D01*
X6675857Y-15667174D02*
X6666333Y-15638602D01*
X6666333Y-15638602D02*
X6656809Y-15619555D01*
X6656809Y-15619555D02*
X6637762Y-15590983D01*
X6637762Y-15590983D02*
X6628238Y-15581459D01*
X6990143Y-15886221D02*
X6980619Y-15876698D01*
X6980619Y-15876698D02*
X6961571Y-15848126D01*
X6961571Y-15848126D02*
X6952048Y-15829079D01*
X6952048Y-15829079D02*
X6942524Y-15800507D01*
X6942524Y-15800507D02*
X6933000Y-15752888D01*
X6933000Y-15752888D02*
X6933000Y-15714793D01*
X6933000Y-15714793D02*
X6942524Y-15667174D01*
X6942524Y-15667174D02*
X6952048Y-15638602D01*
X6952048Y-15638602D02*
X6961571Y-15619555D01*
X6961571Y-15619555D02*
X6980619Y-15590983D01*
X6980619Y-15590983D02*
X6990143Y-15581459D01*
X7066333Y-15676698D02*
X7066333Y-15810031D01*
X7066333Y-15695745D02*
X7075857Y-15686221D01*
X7075857Y-15686221D02*
X7094905Y-15676698D01*
X7094905Y-15676698D02*
X7123476Y-15676698D01*
X7123476Y-15676698D02*
X7142524Y-15686221D01*
X7142524Y-15686221D02*
X7152048Y-15705269D01*
X7152048Y-15705269D02*
X7152048Y-15810031D01*
X7275857Y-15810031D02*
X7256809Y-15800507D01*
X7256809Y-15800507D02*
X7247286Y-15790983D01*
X7247286Y-15790983D02*
X7237762Y-15771936D01*
X7237762Y-15771936D02*
X7237762Y-15714793D01*
X7237762Y-15714793D02*
X7247286Y-15695745D01*
X7247286Y-15695745D02*
X7256809Y-15686221D01*
X7256809Y-15686221D02*
X7275857Y-15676698D01*
X7275857Y-15676698D02*
X7304429Y-15676698D01*
X7304429Y-15676698D02*
X7323476Y-15686221D01*
X7323476Y-15686221D02*
X7333000Y-15695745D01*
X7333000Y-15695745D02*
X7342524Y-15714793D01*
X7342524Y-15714793D02*
X7342524Y-15771936D01*
X7342524Y-15771936D02*
X7333000Y-15790983D01*
X7333000Y-15790983D02*
X7323476Y-15800507D01*
X7323476Y-15800507D02*
X7304429Y-15810031D01*
X7304429Y-15810031D02*
X7275857Y-15810031D01*
X7399667Y-15676698D02*
X7475857Y-15676698D01*
X7428238Y-15610031D02*
X7428238Y-15781459D01*
X7428238Y-15781459D02*
X7437762Y-15800507D01*
X7437762Y-15800507D02*
X7456809Y-15810031D01*
X7456809Y-15810031D02*
X7475857Y-15810031D01*
X7694905Y-15676698D02*
X7694905Y-15876698D01*
X7694905Y-15686221D02*
X7713952Y-15676698D01*
X7713952Y-15676698D02*
X7752048Y-15676698D01*
X7752048Y-15676698D02*
X7771095Y-15686221D01*
X7771095Y-15686221D02*
X7780619Y-15695745D01*
X7780619Y-15695745D02*
X7790143Y-15714793D01*
X7790143Y-15714793D02*
X7790143Y-15771936D01*
X7790143Y-15771936D02*
X7780619Y-15790983D01*
X7780619Y-15790983D02*
X7771095Y-15800507D01*
X7771095Y-15800507D02*
X7752048Y-15810031D01*
X7752048Y-15810031D02*
X7713952Y-15810031D01*
X7713952Y-15810031D02*
X7694905Y-15800507D01*
X7904429Y-15810031D02*
X7885381Y-15800507D01*
X7885381Y-15800507D02*
X7875857Y-15781459D01*
X7875857Y-15781459D02*
X7875857Y-15610031D01*
X8066333Y-15810031D02*
X8066333Y-15705269D01*
X8066333Y-15705269D02*
X8056810Y-15686221D01*
X8056810Y-15686221D02*
X8037762Y-15676698D01*
X8037762Y-15676698D02*
X7999667Y-15676698D01*
X7999667Y-15676698D02*
X7980619Y-15686221D01*
X8066333Y-15800507D02*
X8047286Y-15810031D01*
X8047286Y-15810031D02*
X7999667Y-15810031D01*
X7999667Y-15810031D02*
X7980619Y-15800507D01*
X7980619Y-15800507D02*
X7971095Y-15781459D01*
X7971095Y-15781459D02*
X7971095Y-15762412D01*
X7971095Y-15762412D02*
X7980619Y-15743364D01*
X7980619Y-15743364D02*
X7999667Y-15733840D01*
X7999667Y-15733840D02*
X8047286Y-15733840D01*
X8047286Y-15733840D02*
X8066333Y-15724317D01*
X8133000Y-15676698D02*
X8209190Y-15676698D01*
X8161571Y-15610031D02*
X8161571Y-15781459D01*
X8161571Y-15781459D02*
X8171095Y-15800507D01*
X8171095Y-15800507D02*
X8190143Y-15810031D01*
X8190143Y-15810031D02*
X8209190Y-15810031D01*
X8352048Y-15800507D02*
X8333000Y-15810031D01*
X8333000Y-15810031D02*
X8294905Y-15810031D01*
X8294905Y-15810031D02*
X8275857Y-15800507D01*
X8275857Y-15800507D02*
X8266333Y-15781459D01*
X8266333Y-15781459D02*
X8266333Y-15705269D01*
X8266333Y-15705269D02*
X8275857Y-15686221D01*
X8275857Y-15686221D02*
X8294905Y-15676698D01*
X8294905Y-15676698D02*
X8333000Y-15676698D01*
X8333000Y-15676698D02*
X8352048Y-15686221D01*
X8352048Y-15686221D02*
X8361571Y-15705269D01*
X8361571Y-15705269D02*
X8361571Y-15724317D01*
X8361571Y-15724317D02*
X8266333Y-15743364D01*
X8533000Y-15810031D02*
X8533000Y-15610031D01*
X8533000Y-15800507D02*
X8513953Y-15810031D01*
X8513953Y-15810031D02*
X8475857Y-15810031D01*
X8475857Y-15810031D02*
X8456810Y-15800507D01*
X8456810Y-15800507D02*
X8447286Y-15790983D01*
X8447286Y-15790983D02*
X8437762Y-15771936D01*
X8437762Y-15771936D02*
X8437762Y-15714793D01*
X8437762Y-15714793D02*
X8447286Y-15695745D01*
X8447286Y-15695745D02*
X8456810Y-15686221D01*
X8456810Y-15686221D02*
X8475857Y-15676698D01*
X8475857Y-15676698D02*
X8513953Y-15676698D01*
X8513953Y-15676698D02*
X8533000Y-15686221D01*
X8609191Y-15886221D02*
X8618714Y-15876698D01*
X8618714Y-15876698D02*
X8637762Y-15848126D01*
X8637762Y-15848126D02*
X8647286Y-15829079D01*
X8647286Y-15829079D02*
X8656810Y-15800507D01*
X8656810Y-15800507D02*
X8666333Y-15752888D01*
X8666333Y-15752888D02*
X8666333Y-15714793D01*
X8666333Y-15714793D02*
X8656810Y-15667174D01*
X8656810Y-15667174D02*
X8647286Y-15638602D01*
X8647286Y-15638602D02*
X8637762Y-15619555D01*
X8637762Y-15619555D02*
X8618714Y-15590983D01*
X8618714Y-15590983D02*
X8609191Y-15581459D01*
X1562699Y-15908727D02*
X1562699Y-16108727D01*
X1462699Y-16008727D02*
X1662699Y-16008727D01*
X1913952Y-15919259D02*
X1923476Y-15909735D01*
X1923476Y-15909735D02*
X1942523Y-15900211D01*
X1942523Y-15900211D02*
X1990142Y-15900211D01*
X1990142Y-15900211D02*
X2009190Y-15909735D01*
X2009190Y-15909735D02*
X2018714Y-15919259D01*
X2018714Y-15919259D02*
X2028238Y-15938306D01*
X2028238Y-15938306D02*
X2028238Y-15957354D01*
X2028238Y-15957354D02*
X2018714Y-15985925D01*
X2018714Y-15985925D02*
X1904428Y-16100211D01*
X1904428Y-16100211D02*
X2028238Y-16100211D01*
X2113952Y-16081163D02*
X2123476Y-16090687D01*
X2123476Y-16090687D02*
X2113952Y-16100211D01*
X2113952Y-16100211D02*
X2104428Y-16090687D01*
X2104428Y-16090687D02*
X2113952Y-16081163D01*
X2113952Y-16081163D02*
X2113952Y-16100211D01*
X2199666Y-15919259D02*
X2209190Y-15909735D01*
X2209190Y-15909735D02*
X2228238Y-15900211D01*
X2228238Y-15900211D02*
X2275857Y-15900211D01*
X2275857Y-15900211D02*
X2294904Y-15909735D01*
X2294904Y-15909735D02*
X2304428Y-15919259D01*
X2304428Y-15919259D02*
X2313952Y-15938306D01*
X2313952Y-15938306D02*
X2313952Y-15957354D01*
X2313952Y-15957354D02*
X2304428Y-15985925D01*
X2304428Y-15985925D02*
X2190142Y-16100211D01*
X2190142Y-16100211D02*
X2313952Y-16100211D01*
X2437761Y-15900211D02*
X2456809Y-15900211D01*
X2456809Y-15900211D02*
X2475857Y-15909735D01*
X2475857Y-15909735D02*
X2485381Y-15919259D01*
X2485381Y-15919259D02*
X2494904Y-15938306D01*
X2494904Y-15938306D02*
X2504428Y-15976401D01*
X2504428Y-15976401D02*
X2504428Y-16024020D01*
X2504428Y-16024020D02*
X2494904Y-16062116D01*
X2494904Y-16062116D02*
X2485381Y-16081163D01*
X2485381Y-16081163D02*
X2475857Y-16090687D01*
X2475857Y-16090687D02*
X2456809Y-16100211D01*
X2456809Y-16100211D02*
X2437761Y-16100211D01*
X2437761Y-16100211D02*
X2418714Y-16090687D01*
X2418714Y-16090687D02*
X2409190Y-16081163D01*
X2409190Y-16081163D02*
X2399666Y-16062116D01*
X2399666Y-16062116D02*
X2390142Y-16024020D01*
X2390142Y-16024020D02*
X2390142Y-15976401D01*
X2390142Y-15976401D02*
X2399666Y-15938306D01*
X2399666Y-15938306D02*
X2409190Y-15919259D01*
X2409190Y-15919259D02*
X2418714Y-15909735D01*
X2418714Y-15909735D02*
X2437761Y-15900211D01*
X2628238Y-15900211D02*
X2647285Y-15900211D01*
X2647285Y-15900211D02*
X2666333Y-15909735D01*
X2666333Y-15909735D02*
X2675857Y-15919259D01*
X2675857Y-15919259D02*
X2685381Y-15938306D01*
X2685381Y-15938306D02*
X2694904Y-15976401D01*
X2694904Y-15976401D02*
X2694904Y-16024020D01*
X2694904Y-16024020D02*
X2685381Y-16062116D01*
X2685381Y-16062116D02*
X2675857Y-16081163D01*
X2675857Y-16081163D02*
X2666333Y-16090687D01*
X2666333Y-16090687D02*
X2647285Y-16100211D01*
X2647285Y-16100211D02*
X2628238Y-16100211D01*
X2628238Y-16100211D02*
X2609190Y-16090687D01*
X2609190Y-16090687D02*
X2599666Y-16081163D01*
X2599666Y-16081163D02*
X2590142Y-16062116D01*
X2590142Y-16062116D02*
X2580619Y-16024020D01*
X2580619Y-16024020D02*
X2580619Y-15976401D01*
X2580619Y-15976401D02*
X2590142Y-15938306D01*
X2590142Y-15938306D02*
X2599666Y-15919259D01*
X2599666Y-15919259D02*
X2609190Y-15909735D01*
X2609190Y-15909735D02*
X2628238Y-15900211D01*
X2780619Y-16100211D02*
X2780619Y-15966878D01*
X2780619Y-15985925D02*
X2790142Y-15976401D01*
X2790142Y-15976401D02*
X2809190Y-15966878D01*
X2809190Y-15966878D02*
X2837761Y-15966878D01*
X2837761Y-15966878D02*
X2856809Y-15976401D01*
X2856809Y-15976401D02*
X2866333Y-15995449D01*
X2866333Y-15995449D02*
X2866333Y-16100211D01*
X2866333Y-15995449D02*
X2875857Y-15976401D01*
X2875857Y-15976401D02*
X2894904Y-15966878D01*
X2894904Y-15966878D02*
X2923476Y-15966878D01*
X2923476Y-15966878D02*
X2942523Y-15976401D01*
X2942523Y-15976401D02*
X2952047Y-15995449D01*
X2952047Y-15995449D02*
X2952047Y-16100211D01*
X3047285Y-16100211D02*
X3047285Y-15966878D01*
X3047285Y-15985925D02*
X3056809Y-15976401D01*
X3056809Y-15976401D02*
X3075857Y-15966878D01*
X3075857Y-15966878D02*
X3104428Y-15966878D01*
X3104428Y-15966878D02*
X3123476Y-15976401D01*
X3123476Y-15976401D02*
X3133000Y-15995449D01*
X3133000Y-15995449D02*
X3133000Y-16100211D01*
X3133000Y-15995449D02*
X3142523Y-15976401D01*
X3142523Y-15976401D02*
X3161571Y-15966878D01*
X3161571Y-15966878D02*
X3190142Y-15966878D01*
X3190142Y-15966878D02*
X3209190Y-15976401D01*
X3209190Y-15976401D02*
X3218714Y-15995449D01*
X3218714Y-15995449D02*
X3218714Y-16100211D01*
X3609190Y-15890687D02*
X3437762Y-16147830D01*
X3866333Y-15900211D02*
X3885381Y-15900211D01*
X3885381Y-15900211D02*
X3904428Y-15909735D01*
X3904428Y-15909735D02*
X3913952Y-15919259D01*
X3913952Y-15919259D02*
X3923476Y-15938306D01*
X3923476Y-15938306D02*
X3933000Y-15976401D01*
X3933000Y-15976401D02*
X3933000Y-16024020D01*
X3933000Y-16024020D02*
X3923476Y-16062116D01*
X3923476Y-16062116D02*
X3913952Y-16081163D01*
X3913952Y-16081163D02*
X3904428Y-16090687D01*
X3904428Y-16090687D02*
X3885381Y-16100211D01*
X3885381Y-16100211D02*
X3866333Y-16100211D01*
X3866333Y-16100211D02*
X3847285Y-16090687D01*
X3847285Y-16090687D02*
X3837762Y-16081163D01*
X3837762Y-16081163D02*
X3828238Y-16062116D01*
X3828238Y-16062116D02*
X3818714Y-16024020D01*
X3818714Y-16024020D02*
X3818714Y-15976401D01*
X3818714Y-15976401D02*
X3828238Y-15938306D01*
X3828238Y-15938306D02*
X3837762Y-15919259D01*
X3837762Y-15919259D02*
X3847285Y-15909735D01*
X3847285Y-15909735D02*
X3866333Y-15900211D01*
X4018714Y-16081163D02*
X4028238Y-16090687D01*
X4028238Y-16090687D02*
X4018714Y-16100211D01*
X4018714Y-16100211D02*
X4009190Y-16090687D01*
X4009190Y-16090687D02*
X4018714Y-16081163D01*
X4018714Y-16081163D02*
X4018714Y-16100211D01*
X4152047Y-15900211D02*
X4171095Y-15900211D01*
X4171095Y-15900211D02*
X4190143Y-15909735D01*
X4190143Y-15909735D02*
X4199666Y-15919259D01*
X4199666Y-15919259D02*
X4209190Y-15938306D01*
X4209190Y-15938306D02*
X4218714Y-15976401D01*
X4218714Y-15976401D02*
X4218714Y-16024020D01*
X4218714Y-16024020D02*
X4209190Y-16062116D01*
X4209190Y-16062116D02*
X4199666Y-16081163D01*
X4199666Y-16081163D02*
X4190143Y-16090687D01*
X4190143Y-16090687D02*
X4171095Y-16100211D01*
X4171095Y-16100211D02*
X4152047Y-16100211D01*
X4152047Y-16100211D02*
X4133000Y-16090687D01*
X4133000Y-16090687D02*
X4123476Y-16081163D01*
X4123476Y-16081163D02*
X4113952Y-16062116D01*
X4113952Y-16062116D02*
X4104428Y-16024020D01*
X4104428Y-16024020D02*
X4104428Y-15976401D01*
X4104428Y-15976401D02*
X4113952Y-15938306D01*
X4113952Y-15938306D02*
X4123476Y-15919259D01*
X4123476Y-15919259D02*
X4133000Y-15909735D01*
X4133000Y-15909735D02*
X4152047Y-15900211D01*
X4333000Y-15985925D02*
X4313952Y-15976401D01*
X4313952Y-15976401D02*
X4304428Y-15966878D01*
X4304428Y-15966878D02*
X4294905Y-15947830D01*
X4294905Y-15947830D02*
X4294905Y-15938306D01*
X4294905Y-15938306D02*
X4304428Y-15919259D01*
X4304428Y-15919259D02*
X4313952Y-15909735D01*
X4313952Y-15909735D02*
X4333000Y-15900211D01*
X4333000Y-15900211D02*
X4371095Y-15900211D01*
X4371095Y-15900211D02*
X4390143Y-15909735D01*
X4390143Y-15909735D02*
X4399666Y-15919259D01*
X4399666Y-15919259D02*
X4409190Y-15938306D01*
X4409190Y-15938306D02*
X4409190Y-15947830D01*
X4409190Y-15947830D02*
X4399666Y-15966878D01*
X4399666Y-15966878D02*
X4390143Y-15976401D01*
X4390143Y-15976401D02*
X4371095Y-15985925D01*
X4371095Y-15985925D02*
X4333000Y-15985925D01*
X4333000Y-15985925D02*
X4313952Y-15995449D01*
X4313952Y-15995449D02*
X4304428Y-16004973D01*
X4304428Y-16004973D02*
X4294905Y-16024020D01*
X4294905Y-16024020D02*
X4294905Y-16062116D01*
X4294905Y-16062116D02*
X4304428Y-16081163D01*
X4304428Y-16081163D02*
X4313952Y-16090687D01*
X4313952Y-16090687D02*
X4333000Y-16100211D01*
X4333000Y-16100211D02*
X4371095Y-16100211D01*
X4371095Y-16100211D02*
X4390143Y-16090687D01*
X4390143Y-16090687D02*
X4399666Y-16081163D01*
X4399666Y-16081163D02*
X4409190Y-16062116D01*
X4409190Y-16062116D02*
X4409190Y-16024020D01*
X4409190Y-16024020D02*
X4399666Y-16004973D01*
X4399666Y-16004973D02*
X4390143Y-15995449D01*
X4390143Y-15995449D02*
X4371095Y-15985925D01*
X4580619Y-15900211D02*
X4542524Y-15900211D01*
X4542524Y-15900211D02*
X4523476Y-15909735D01*
X4523476Y-15909735D02*
X4513952Y-15919259D01*
X4513952Y-15919259D02*
X4494905Y-15947830D01*
X4494905Y-15947830D02*
X4485381Y-15985925D01*
X4485381Y-15985925D02*
X4485381Y-16062116D01*
X4485381Y-16062116D02*
X4494905Y-16081163D01*
X4494905Y-16081163D02*
X4504428Y-16090687D01*
X4504428Y-16090687D02*
X4523476Y-16100211D01*
X4523476Y-16100211D02*
X4561571Y-16100211D01*
X4561571Y-16100211D02*
X4580619Y-16090687D01*
X4580619Y-16090687D02*
X4590143Y-16081163D01*
X4590143Y-16081163D02*
X4599666Y-16062116D01*
X4599666Y-16062116D02*
X4599666Y-16014497D01*
X4599666Y-16014497D02*
X4590143Y-15995449D01*
X4590143Y-15995449D02*
X4580619Y-15985925D01*
X4580619Y-15985925D02*
X4561571Y-15976401D01*
X4561571Y-15976401D02*
X4523476Y-15976401D01*
X4523476Y-15976401D02*
X4504428Y-15985925D01*
X4504428Y-15985925D02*
X4494905Y-15995449D01*
X4494905Y-15995449D02*
X4485381Y-16014497D01*
X4771095Y-15900211D02*
X4733000Y-15900211D01*
X4733000Y-15900211D02*
X4713952Y-15909735D01*
X4713952Y-15909735D02*
X4704428Y-15919259D01*
X4704428Y-15919259D02*
X4685381Y-15947830D01*
X4685381Y-15947830D02*
X4675857Y-15985925D01*
X4675857Y-15985925D02*
X4675857Y-16062116D01*
X4675857Y-16062116D02*
X4685381Y-16081163D01*
X4685381Y-16081163D02*
X4694905Y-16090687D01*
X4694905Y-16090687D02*
X4713952Y-16100211D01*
X4713952Y-16100211D02*
X4752047Y-16100211D01*
X4752047Y-16100211D02*
X4771095Y-16090687D01*
X4771095Y-16090687D02*
X4780619Y-16081163D01*
X4780619Y-16081163D02*
X4790143Y-16062116D01*
X4790143Y-16062116D02*
X4790143Y-16014497D01*
X4790143Y-16014497D02*
X4780619Y-15995449D01*
X4780619Y-15995449D02*
X4771095Y-15985925D01*
X4771095Y-15985925D02*
X4752047Y-15976401D01*
X4752047Y-15976401D02*
X4713952Y-15976401D01*
X4713952Y-15976401D02*
X4694905Y-15985925D01*
X4694905Y-15985925D02*
X4685381Y-15995449D01*
X4685381Y-15995449D02*
X4675857Y-16014497D01*
X4866333Y-15900211D02*
X4866333Y-15938306D01*
X4942524Y-15900211D02*
X4942524Y-15938306D01*
X5237762Y-16176401D02*
X5228238Y-16166878D01*
X5228238Y-16166878D02*
X5209190Y-16138306D01*
X5209190Y-16138306D02*
X5199667Y-16119259D01*
X5199667Y-16119259D02*
X5190143Y-16090687D01*
X5190143Y-16090687D02*
X5180619Y-16043068D01*
X5180619Y-16043068D02*
X5180619Y-16004973D01*
X5180619Y-16004973D02*
X5190143Y-15957354D01*
X5190143Y-15957354D02*
X5199667Y-15928782D01*
X5199667Y-15928782D02*
X5209190Y-15909735D01*
X5209190Y-15909735D02*
X5228238Y-15881163D01*
X5228238Y-15881163D02*
X5237762Y-15871639D01*
X5294905Y-15900211D02*
X5428238Y-15900211D01*
X5428238Y-15900211D02*
X5342524Y-16100211D01*
X5656809Y-16100211D02*
X5656809Y-15900211D01*
X5742524Y-16100211D02*
X5742524Y-15995449D01*
X5742524Y-15995449D02*
X5733000Y-15976401D01*
X5733000Y-15976401D02*
X5713952Y-15966878D01*
X5713952Y-15966878D02*
X5685381Y-15966878D01*
X5685381Y-15966878D02*
X5666333Y-15976401D01*
X5666333Y-15976401D02*
X5656809Y-15985925D01*
X5866333Y-16100211D02*
X5847286Y-16090687D01*
X5847286Y-16090687D02*
X5837762Y-16081163D01*
X5837762Y-16081163D02*
X5828238Y-16062116D01*
X5828238Y-16062116D02*
X5828238Y-16004973D01*
X5828238Y-16004973D02*
X5837762Y-15985925D01*
X5837762Y-15985925D02*
X5847286Y-15976401D01*
X5847286Y-15976401D02*
X5866333Y-15966878D01*
X5866333Y-15966878D02*
X5894905Y-15966878D01*
X5894905Y-15966878D02*
X5913952Y-15976401D01*
X5913952Y-15976401D02*
X5923476Y-15985925D01*
X5923476Y-15985925D02*
X5933000Y-16004973D01*
X5933000Y-16004973D02*
X5933000Y-16062116D01*
X5933000Y-16062116D02*
X5923476Y-16081163D01*
X5923476Y-16081163D02*
X5913952Y-16090687D01*
X5913952Y-16090687D02*
X5894905Y-16100211D01*
X5894905Y-16100211D02*
X5866333Y-16100211D01*
X6047286Y-16100211D02*
X6028238Y-16090687D01*
X6028238Y-16090687D02*
X6018714Y-16071639D01*
X6018714Y-16071639D02*
X6018714Y-15900211D01*
X6199667Y-16090687D02*
X6180619Y-16100211D01*
X6180619Y-16100211D02*
X6142524Y-16100211D01*
X6142524Y-16100211D02*
X6123476Y-16090687D01*
X6123476Y-16090687D02*
X6113952Y-16071639D01*
X6113952Y-16071639D02*
X6113952Y-15995449D01*
X6113952Y-15995449D02*
X6123476Y-15976401D01*
X6123476Y-15976401D02*
X6142524Y-15966878D01*
X6142524Y-15966878D02*
X6180619Y-15966878D01*
X6180619Y-15966878D02*
X6199667Y-15976401D01*
X6199667Y-15976401D02*
X6209190Y-15995449D01*
X6209190Y-15995449D02*
X6209190Y-16014497D01*
X6209190Y-16014497D02*
X6113952Y-16033544D01*
X6285381Y-16090687D02*
X6304428Y-16100211D01*
X6304428Y-16100211D02*
X6342524Y-16100211D01*
X6342524Y-16100211D02*
X6361571Y-16090687D01*
X6361571Y-16090687D02*
X6371095Y-16071639D01*
X6371095Y-16071639D02*
X6371095Y-16062116D01*
X6371095Y-16062116D02*
X6361571Y-16043068D01*
X6361571Y-16043068D02*
X6342524Y-16033544D01*
X6342524Y-16033544D02*
X6313952Y-16033544D01*
X6313952Y-16033544D02*
X6294905Y-16024020D01*
X6294905Y-16024020D02*
X6285381Y-16004973D01*
X6285381Y-16004973D02*
X6285381Y-15995449D01*
X6285381Y-15995449D02*
X6294905Y-15976401D01*
X6294905Y-15976401D02*
X6313952Y-15966878D01*
X6313952Y-15966878D02*
X6342524Y-15966878D01*
X6342524Y-15966878D02*
X6361571Y-15976401D01*
X6437762Y-16176401D02*
X6447286Y-16166878D01*
X6447286Y-16166878D02*
X6466333Y-16138306D01*
X6466333Y-16138306D02*
X6475857Y-16119259D01*
X6475857Y-16119259D02*
X6485381Y-16090687D01*
X6485381Y-16090687D02*
X6494905Y-16043068D01*
X6494905Y-16043068D02*
X6494905Y-16004973D01*
X6494905Y-16004973D02*
X6485381Y-15957354D01*
X6485381Y-15957354D02*
X6475857Y-15928782D01*
X6475857Y-15928782D02*
X6466333Y-15909735D01*
X6466333Y-15909735D02*
X6447286Y-15881163D01*
X6447286Y-15881163D02*
X6437762Y-15871639D01*
X6799667Y-16176401D02*
X6790143Y-16166878D01*
X6790143Y-16166878D02*
X6771095Y-16138306D01*
X6771095Y-16138306D02*
X6761571Y-16119259D01*
X6761571Y-16119259D02*
X6752048Y-16090687D01*
X6752048Y-16090687D02*
X6742524Y-16043068D01*
X6742524Y-16043068D02*
X6742524Y-16004973D01*
X6742524Y-16004973D02*
X6752048Y-15957354D01*
X6752048Y-15957354D02*
X6761571Y-15928782D01*
X6761571Y-15928782D02*
X6771095Y-15909735D01*
X6771095Y-15909735D02*
X6790143Y-15881163D01*
X6790143Y-15881163D02*
X6799667Y-15871639D01*
X6875857Y-15966878D02*
X6875857Y-16100211D01*
X6875857Y-15985925D02*
X6885381Y-15976401D01*
X6885381Y-15976401D02*
X6904428Y-15966878D01*
X6904428Y-15966878D02*
X6933000Y-15966878D01*
X6933000Y-15966878D02*
X6952048Y-15976401D01*
X6952048Y-15976401D02*
X6961571Y-15995449D01*
X6961571Y-15995449D02*
X6961571Y-16100211D01*
X7085381Y-16100211D02*
X7066333Y-16090687D01*
X7066333Y-16090687D02*
X7056809Y-16081163D01*
X7056809Y-16081163D02*
X7047286Y-16062116D01*
X7047286Y-16062116D02*
X7047286Y-16004973D01*
X7047286Y-16004973D02*
X7056809Y-15985925D01*
X7056809Y-15985925D02*
X7066333Y-15976401D01*
X7066333Y-15976401D02*
X7085381Y-15966878D01*
X7085381Y-15966878D02*
X7113952Y-15966878D01*
X7113952Y-15966878D02*
X7133000Y-15976401D01*
X7133000Y-15976401D02*
X7142524Y-15985925D01*
X7142524Y-15985925D02*
X7152048Y-16004973D01*
X7152048Y-16004973D02*
X7152048Y-16062116D01*
X7152048Y-16062116D02*
X7142524Y-16081163D01*
X7142524Y-16081163D02*
X7133000Y-16090687D01*
X7133000Y-16090687D02*
X7113952Y-16100211D01*
X7113952Y-16100211D02*
X7085381Y-16100211D01*
X7209190Y-15966878D02*
X7285381Y-15966878D01*
X7237762Y-15900211D02*
X7237762Y-16071639D01*
X7237762Y-16071639D02*
X7247286Y-16090687D01*
X7247286Y-16090687D02*
X7266333Y-16100211D01*
X7266333Y-16100211D02*
X7285381Y-16100211D01*
X7504429Y-15966878D02*
X7504429Y-16166878D01*
X7504429Y-15976401D02*
X7523476Y-15966878D01*
X7523476Y-15966878D02*
X7561571Y-15966878D01*
X7561571Y-15966878D02*
X7580619Y-15976401D01*
X7580619Y-15976401D02*
X7590143Y-15985925D01*
X7590143Y-15985925D02*
X7599667Y-16004973D01*
X7599667Y-16004973D02*
X7599667Y-16062116D01*
X7599667Y-16062116D02*
X7590143Y-16081163D01*
X7590143Y-16081163D02*
X7580619Y-16090687D01*
X7580619Y-16090687D02*
X7561571Y-16100211D01*
X7561571Y-16100211D02*
X7523476Y-16100211D01*
X7523476Y-16100211D02*
X7504429Y-16090687D01*
X7713952Y-16100211D02*
X7694905Y-16090687D01*
X7694905Y-16090687D02*
X7685381Y-16071639D01*
X7685381Y-16071639D02*
X7685381Y-15900211D01*
X7875857Y-16100211D02*
X7875857Y-15995449D01*
X7875857Y-15995449D02*
X7866333Y-15976401D01*
X7866333Y-15976401D02*
X7847286Y-15966878D01*
X7847286Y-15966878D02*
X7809190Y-15966878D01*
X7809190Y-15966878D02*
X7790143Y-15976401D01*
X7875857Y-16090687D02*
X7856810Y-16100211D01*
X7856810Y-16100211D02*
X7809190Y-16100211D01*
X7809190Y-16100211D02*
X7790143Y-16090687D01*
X7790143Y-16090687D02*
X7780619Y-16071639D01*
X7780619Y-16071639D02*
X7780619Y-16052592D01*
X7780619Y-16052592D02*
X7790143Y-16033544D01*
X7790143Y-16033544D02*
X7809190Y-16024020D01*
X7809190Y-16024020D02*
X7856810Y-16024020D01*
X7856810Y-16024020D02*
X7875857Y-16014497D01*
X7942524Y-15966878D02*
X8018714Y-15966878D01*
X7971095Y-15900211D02*
X7971095Y-16071639D01*
X7971095Y-16071639D02*
X7980619Y-16090687D01*
X7980619Y-16090687D02*
X7999667Y-16100211D01*
X7999667Y-16100211D02*
X8018714Y-16100211D01*
X8161571Y-16090687D02*
X8142524Y-16100211D01*
X8142524Y-16100211D02*
X8104429Y-16100211D01*
X8104429Y-16100211D02*
X8085381Y-16090687D01*
X8085381Y-16090687D02*
X8075857Y-16071639D01*
X8075857Y-16071639D02*
X8075857Y-15995449D01*
X8075857Y-15995449D02*
X8085381Y-15976401D01*
X8085381Y-15976401D02*
X8104429Y-15966878D01*
X8104429Y-15966878D02*
X8142524Y-15966878D01*
X8142524Y-15966878D02*
X8161571Y-15976401D01*
X8161571Y-15976401D02*
X8171095Y-15995449D01*
X8171095Y-15995449D02*
X8171095Y-16014497D01*
X8171095Y-16014497D02*
X8075857Y-16033544D01*
X8342524Y-16100211D02*
X8342524Y-15900211D01*
X8342524Y-16090687D02*
X8323476Y-16100211D01*
X8323476Y-16100211D02*
X8285381Y-16100211D01*
X8285381Y-16100211D02*
X8266333Y-16090687D01*
X8266333Y-16090687D02*
X8256810Y-16081163D01*
X8256810Y-16081163D02*
X8247286Y-16062116D01*
X8247286Y-16062116D02*
X8247286Y-16004973D01*
X8247286Y-16004973D02*
X8256810Y-15985925D01*
X8256810Y-15985925D02*
X8266333Y-15976401D01*
X8266333Y-15976401D02*
X8285381Y-15966878D01*
X8285381Y-15966878D02*
X8323476Y-15966878D01*
X8323476Y-15966878D02*
X8342524Y-15976401D01*
X8418714Y-16176401D02*
X8428238Y-16166878D01*
X8428238Y-16166878D02*
X8447286Y-16138306D01*
X8447286Y-16138306D02*
X8456810Y-16119259D01*
X8456810Y-16119259D02*
X8466333Y-16090687D01*
X8466333Y-16090687D02*
X8475857Y-16043068D01*
X8475857Y-16043068D02*
X8475857Y-16004973D01*
X8475857Y-16004973D02*
X8466333Y-15957354D01*
X8466333Y-15957354D02*
X8456810Y-15928782D01*
X8456810Y-15928782D02*
X8447286Y-15909735D01*
X8447286Y-15909735D02*
X8428238Y-15881163D01*
X8428238Y-15881163D02*
X8418714Y-15871639D01*
X1633410Y-16399439D02*
X1633410Y-16258016D01*
X1491987Y-16258016D01*
X1491987Y-16399439D01*
X1633410Y-16399439D01*
X1904428Y-16220211D02*
X2028238Y-16220211D01*
X2028238Y-16220211D02*
X1961571Y-16296401D01*
X1961571Y-16296401D02*
X1990142Y-16296401D01*
X1990142Y-16296401D02*
X2009190Y-16305925D01*
X2009190Y-16305925D02*
X2018714Y-16315449D01*
X2018714Y-16315449D02*
X2028238Y-16334497D01*
X2028238Y-16334497D02*
X2028238Y-16382116D01*
X2028238Y-16382116D02*
X2018714Y-16401163D01*
X2018714Y-16401163D02*
X2009190Y-16410687D01*
X2009190Y-16410687D02*
X1990142Y-16420211D01*
X1990142Y-16420211D02*
X1932999Y-16420211D01*
X1932999Y-16420211D02*
X1913952Y-16410687D01*
X1913952Y-16410687D02*
X1904428Y-16401163D01*
X2113952Y-16401163D02*
X2123476Y-16410687D01*
X2123476Y-16410687D02*
X2113952Y-16420211D01*
X2113952Y-16420211D02*
X2104428Y-16410687D01*
X2104428Y-16410687D02*
X2113952Y-16401163D01*
X2113952Y-16401163D02*
X2113952Y-16420211D01*
X2247285Y-16220211D02*
X2266333Y-16220211D01*
X2266333Y-16220211D02*
X2285381Y-16229735D01*
X2285381Y-16229735D02*
X2294904Y-16239259D01*
X2294904Y-16239259D02*
X2304428Y-16258306D01*
X2304428Y-16258306D02*
X2313952Y-16296401D01*
X2313952Y-16296401D02*
X2313952Y-16344020D01*
X2313952Y-16344020D02*
X2304428Y-16382116D01*
X2304428Y-16382116D02*
X2294904Y-16401163D01*
X2294904Y-16401163D02*
X2285381Y-16410687D01*
X2285381Y-16410687D02*
X2266333Y-16420211D01*
X2266333Y-16420211D02*
X2247285Y-16420211D01*
X2247285Y-16420211D02*
X2228238Y-16410687D01*
X2228238Y-16410687D02*
X2218714Y-16401163D01*
X2218714Y-16401163D02*
X2209190Y-16382116D01*
X2209190Y-16382116D02*
X2199666Y-16344020D01*
X2199666Y-16344020D02*
X2199666Y-16296401D01*
X2199666Y-16296401D02*
X2209190Y-16258306D01*
X2209190Y-16258306D02*
X2218714Y-16239259D01*
X2218714Y-16239259D02*
X2228238Y-16229735D01*
X2228238Y-16229735D02*
X2247285Y-16220211D01*
X2437761Y-16220211D02*
X2456809Y-16220211D01*
X2456809Y-16220211D02*
X2475857Y-16229735D01*
X2475857Y-16229735D02*
X2485381Y-16239259D01*
X2485381Y-16239259D02*
X2494904Y-16258306D01*
X2494904Y-16258306D02*
X2504428Y-16296401D01*
X2504428Y-16296401D02*
X2504428Y-16344020D01*
X2504428Y-16344020D02*
X2494904Y-16382116D01*
X2494904Y-16382116D02*
X2485381Y-16401163D01*
X2485381Y-16401163D02*
X2475857Y-16410687D01*
X2475857Y-16410687D02*
X2456809Y-16420211D01*
X2456809Y-16420211D02*
X2437761Y-16420211D01*
X2437761Y-16420211D02*
X2418714Y-16410687D01*
X2418714Y-16410687D02*
X2409190Y-16401163D01*
X2409190Y-16401163D02*
X2399666Y-16382116D01*
X2399666Y-16382116D02*
X2390142Y-16344020D01*
X2390142Y-16344020D02*
X2390142Y-16296401D01*
X2390142Y-16296401D02*
X2399666Y-16258306D01*
X2399666Y-16258306D02*
X2409190Y-16239259D01*
X2409190Y-16239259D02*
X2418714Y-16229735D01*
X2418714Y-16229735D02*
X2437761Y-16220211D01*
X2628238Y-16220211D02*
X2647285Y-16220211D01*
X2647285Y-16220211D02*
X2666333Y-16229735D01*
X2666333Y-16229735D02*
X2675857Y-16239259D01*
X2675857Y-16239259D02*
X2685381Y-16258306D01*
X2685381Y-16258306D02*
X2694904Y-16296401D01*
X2694904Y-16296401D02*
X2694904Y-16344020D01*
X2694904Y-16344020D02*
X2685381Y-16382116D01*
X2685381Y-16382116D02*
X2675857Y-16401163D01*
X2675857Y-16401163D02*
X2666333Y-16410687D01*
X2666333Y-16410687D02*
X2647285Y-16420211D01*
X2647285Y-16420211D02*
X2628238Y-16420211D01*
X2628238Y-16420211D02*
X2609190Y-16410687D01*
X2609190Y-16410687D02*
X2599666Y-16401163D01*
X2599666Y-16401163D02*
X2590142Y-16382116D01*
X2590142Y-16382116D02*
X2580619Y-16344020D01*
X2580619Y-16344020D02*
X2580619Y-16296401D01*
X2580619Y-16296401D02*
X2590142Y-16258306D01*
X2590142Y-16258306D02*
X2599666Y-16239259D01*
X2599666Y-16239259D02*
X2609190Y-16229735D01*
X2609190Y-16229735D02*
X2628238Y-16220211D01*
X2780619Y-16420211D02*
X2780619Y-16286878D01*
X2780619Y-16305925D02*
X2790142Y-16296401D01*
X2790142Y-16296401D02*
X2809190Y-16286878D01*
X2809190Y-16286878D02*
X2837761Y-16286878D01*
X2837761Y-16286878D02*
X2856809Y-16296401D01*
X2856809Y-16296401D02*
X2866333Y-16315449D01*
X2866333Y-16315449D02*
X2866333Y-16420211D01*
X2866333Y-16315449D02*
X2875857Y-16296401D01*
X2875857Y-16296401D02*
X2894904Y-16286878D01*
X2894904Y-16286878D02*
X2923476Y-16286878D01*
X2923476Y-16286878D02*
X2942523Y-16296401D01*
X2942523Y-16296401D02*
X2952047Y-16315449D01*
X2952047Y-16315449D02*
X2952047Y-16420211D01*
X3047285Y-16420211D02*
X3047285Y-16286878D01*
X3047285Y-16305925D02*
X3056809Y-16296401D01*
X3056809Y-16296401D02*
X3075857Y-16286878D01*
X3075857Y-16286878D02*
X3104428Y-16286878D01*
X3104428Y-16286878D02*
X3123476Y-16296401D01*
X3123476Y-16296401D02*
X3133000Y-16315449D01*
X3133000Y-16315449D02*
X3133000Y-16420211D01*
X3133000Y-16315449D02*
X3142523Y-16296401D01*
X3142523Y-16296401D02*
X3161571Y-16286878D01*
X3161571Y-16286878D02*
X3190142Y-16286878D01*
X3190142Y-16286878D02*
X3209190Y-16296401D01*
X3209190Y-16296401D02*
X3218714Y-16315449D01*
X3218714Y-16315449D02*
X3218714Y-16420211D01*
X3609190Y-16210687D02*
X3437762Y-16467830D01*
X3866333Y-16220211D02*
X3885381Y-16220211D01*
X3885381Y-16220211D02*
X3904428Y-16229735D01*
X3904428Y-16229735D02*
X3913952Y-16239259D01*
X3913952Y-16239259D02*
X3923476Y-16258306D01*
X3923476Y-16258306D02*
X3933000Y-16296401D01*
X3933000Y-16296401D02*
X3933000Y-16344020D01*
X3933000Y-16344020D02*
X3923476Y-16382116D01*
X3923476Y-16382116D02*
X3913952Y-16401163D01*
X3913952Y-16401163D02*
X3904428Y-16410687D01*
X3904428Y-16410687D02*
X3885381Y-16420211D01*
X3885381Y-16420211D02*
X3866333Y-16420211D01*
X3866333Y-16420211D02*
X3847285Y-16410687D01*
X3847285Y-16410687D02*
X3837762Y-16401163D01*
X3837762Y-16401163D02*
X3828238Y-16382116D01*
X3828238Y-16382116D02*
X3818714Y-16344020D01*
X3818714Y-16344020D02*
X3818714Y-16296401D01*
X3818714Y-16296401D02*
X3828238Y-16258306D01*
X3828238Y-16258306D02*
X3837762Y-16239259D01*
X3837762Y-16239259D02*
X3847285Y-16229735D01*
X3847285Y-16229735D02*
X3866333Y-16220211D01*
X4018714Y-16401163D02*
X4028238Y-16410687D01*
X4028238Y-16410687D02*
X4018714Y-16420211D01*
X4018714Y-16420211D02*
X4009190Y-16410687D01*
X4009190Y-16410687D02*
X4018714Y-16401163D01*
X4018714Y-16401163D02*
X4018714Y-16420211D01*
X4218714Y-16420211D02*
X4104428Y-16420211D01*
X4161571Y-16420211D02*
X4161571Y-16220211D01*
X4161571Y-16220211D02*
X4142523Y-16248782D01*
X4142523Y-16248782D02*
X4123476Y-16267830D01*
X4123476Y-16267830D02*
X4104428Y-16277354D01*
X4409190Y-16420211D02*
X4294905Y-16420211D01*
X4352047Y-16420211D02*
X4352047Y-16220211D01*
X4352047Y-16220211D02*
X4333000Y-16248782D01*
X4333000Y-16248782D02*
X4313952Y-16267830D01*
X4313952Y-16267830D02*
X4294905Y-16277354D01*
X4523476Y-16305925D02*
X4504428Y-16296401D01*
X4504428Y-16296401D02*
X4494905Y-16286878D01*
X4494905Y-16286878D02*
X4485381Y-16267830D01*
X4485381Y-16267830D02*
X4485381Y-16258306D01*
X4485381Y-16258306D02*
X4494905Y-16239259D01*
X4494905Y-16239259D02*
X4504428Y-16229735D01*
X4504428Y-16229735D02*
X4523476Y-16220211D01*
X4523476Y-16220211D02*
X4561571Y-16220211D01*
X4561571Y-16220211D02*
X4580619Y-16229735D01*
X4580619Y-16229735D02*
X4590143Y-16239259D01*
X4590143Y-16239259D02*
X4599666Y-16258306D01*
X4599666Y-16258306D02*
X4599666Y-16267830D01*
X4599666Y-16267830D02*
X4590143Y-16286878D01*
X4590143Y-16286878D02*
X4580619Y-16296401D01*
X4580619Y-16296401D02*
X4561571Y-16305925D01*
X4561571Y-16305925D02*
X4523476Y-16305925D01*
X4523476Y-16305925D02*
X4504428Y-16315449D01*
X4504428Y-16315449D02*
X4494905Y-16324973D01*
X4494905Y-16324973D02*
X4485381Y-16344020D01*
X4485381Y-16344020D02*
X4485381Y-16382116D01*
X4485381Y-16382116D02*
X4494905Y-16401163D01*
X4494905Y-16401163D02*
X4504428Y-16410687D01*
X4504428Y-16410687D02*
X4523476Y-16420211D01*
X4523476Y-16420211D02*
X4561571Y-16420211D01*
X4561571Y-16420211D02*
X4580619Y-16410687D01*
X4580619Y-16410687D02*
X4590143Y-16401163D01*
X4590143Y-16401163D02*
X4599666Y-16382116D01*
X4599666Y-16382116D02*
X4599666Y-16344020D01*
X4599666Y-16344020D02*
X4590143Y-16324973D01*
X4590143Y-16324973D02*
X4580619Y-16315449D01*
X4580619Y-16315449D02*
X4561571Y-16305925D01*
X4790143Y-16420211D02*
X4675857Y-16420211D01*
X4733000Y-16420211D02*
X4733000Y-16220211D01*
X4733000Y-16220211D02*
X4713952Y-16248782D01*
X4713952Y-16248782D02*
X4694905Y-16267830D01*
X4694905Y-16267830D02*
X4675857Y-16277354D01*
X4866333Y-16220211D02*
X4866333Y-16258306D01*
X4942524Y-16220211D02*
X4942524Y-16258306D01*
X5237762Y-16496401D02*
X5228238Y-16486878D01*
X5228238Y-16486878D02*
X5209190Y-16458306D01*
X5209190Y-16458306D02*
X5199667Y-16439259D01*
X5199667Y-16439259D02*
X5190143Y-16410687D01*
X5190143Y-16410687D02*
X5180619Y-16363068D01*
X5180619Y-16363068D02*
X5180619Y-16324973D01*
X5180619Y-16324973D02*
X5190143Y-16277354D01*
X5190143Y-16277354D02*
X5199667Y-16248782D01*
X5199667Y-16248782D02*
X5209190Y-16229735D01*
X5209190Y-16229735D02*
X5228238Y-16201163D01*
X5228238Y-16201163D02*
X5237762Y-16191639D01*
X5342524Y-16305925D02*
X5323476Y-16296401D01*
X5323476Y-16296401D02*
X5313952Y-16286878D01*
X5313952Y-16286878D02*
X5304428Y-16267830D01*
X5304428Y-16267830D02*
X5304428Y-16258306D01*
X5304428Y-16258306D02*
X5313952Y-16239259D01*
X5313952Y-16239259D02*
X5323476Y-16229735D01*
X5323476Y-16229735D02*
X5342524Y-16220211D01*
X5342524Y-16220211D02*
X5380619Y-16220211D01*
X5380619Y-16220211D02*
X5399667Y-16229735D01*
X5399667Y-16229735D02*
X5409190Y-16239259D01*
X5409190Y-16239259D02*
X5418714Y-16258306D01*
X5418714Y-16258306D02*
X5418714Y-16267830D01*
X5418714Y-16267830D02*
X5409190Y-16286878D01*
X5409190Y-16286878D02*
X5399667Y-16296401D01*
X5399667Y-16296401D02*
X5380619Y-16305925D01*
X5380619Y-16305925D02*
X5342524Y-16305925D01*
X5342524Y-16305925D02*
X5323476Y-16315449D01*
X5323476Y-16315449D02*
X5313952Y-16324973D01*
X5313952Y-16324973D02*
X5304428Y-16344020D01*
X5304428Y-16344020D02*
X5304428Y-16382116D01*
X5304428Y-16382116D02*
X5313952Y-16401163D01*
X5313952Y-16401163D02*
X5323476Y-16410687D01*
X5323476Y-16410687D02*
X5342524Y-16420211D01*
X5342524Y-16420211D02*
X5380619Y-16420211D01*
X5380619Y-16420211D02*
X5399667Y-16410687D01*
X5399667Y-16410687D02*
X5409190Y-16401163D01*
X5409190Y-16401163D02*
X5418714Y-16382116D01*
X5418714Y-16382116D02*
X5418714Y-16344020D01*
X5418714Y-16344020D02*
X5409190Y-16324973D01*
X5409190Y-16324973D02*
X5399667Y-16315449D01*
X5399667Y-16315449D02*
X5380619Y-16305925D01*
X5590143Y-16286878D02*
X5590143Y-16420211D01*
X5542524Y-16210687D02*
X5494905Y-16353544D01*
X5494905Y-16353544D02*
X5618714Y-16353544D01*
X5847286Y-16420211D02*
X5847286Y-16220211D01*
X5933000Y-16420211D02*
X5933000Y-16315449D01*
X5933000Y-16315449D02*
X5923476Y-16296401D01*
X5923476Y-16296401D02*
X5904428Y-16286878D01*
X5904428Y-16286878D02*
X5875857Y-16286878D01*
X5875857Y-16286878D02*
X5856809Y-16296401D01*
X5856809Y-16296401D02*
X5847286Y-16305925D01*
X6056809Y-16420211D02*
X6037762Y-16410687D01*
X6037762Y-16410687D02*
X6028238Y-16401163D01*
X6028238Y-16401163D02*
X6018714Y-16382116D01*
X6018714Y-16382116D02*
X6018714Y-16324973D01*
X6018714Y-16324973D02*
X6028238Y-16305925D01*
X6028238Y-16305925D02*
X6037762Y-16296401D01*
X6037762Y-16296401D02*
X6056809Y-16286878D01*
X6056809Y-16286878D02*
X6085381Y-16286878D01*
X6085381Y-16286878D02*
X6104428Y-16296401D01*
X6104428Y-16296401D02*
X6113952Y-16305925D01*
X6113952Y-16305925D02*
X6123476Y-16324973D01*
X6123476Y-16324973D02*
X6123476Y-16382116D01*
X6123476Y-16382116D02*
X6113952Y-16401163D01*
X6113952Y-16401163D02*
X6104428Y-16410687D01*
X6104428Y-16410687D02*
X6085381Y-16420211D01*
X6085381Y-16420211D02*
X6056809Y-16420211D01*
X6237762Y-16420211D02*
X6218714Y-16410687D01*
X6218714Y-16410687D02*
X6209190Y-16391639D01*
X6209190Y-16391639D02*
X6209190Y-16220211D01*
X6390143Y-16410687D02*
X6371095Y-16420211D01*
X6371095Y-16420211D02*
X6333000Y-16420211D01*
X6333000Y-16420211D02*
X6313952Y-16410687D01*
X6313952Y-16410687D02*
X6304428Y-16391639D01*
X6304428Y-16391639D02*
X6304428Y-16315449D01*
X6304428Y-16315449D02*
X6313952Y-16296401D01*
X6313952Y-16296401D02*
X6333000Y-16286878D01*
X6333000Y-16286878D02*
X6371095Y-16286878D01*
X6371095Y-16286878D02*
X6390143Y-16296401D01*
X6390143Y-16296401D02*
X6399667Y-16315449D01*
X6399667Y-16315449D02*
X6399667Y-16334497D01*
X6399667Y-16334497D02*
X6304428Y-16353544D01*
X6475857Y-16410687D02*
X6494905Y-16420211D01*
X6494905Y-16420211D02*
X6533000Y-16420211D01*
X6533000Y-16420211D02*
X6552048Y-16410687D01*
X6552048Y-16410687D02*
X6561571Y-16391639D01*
X6561571Y-16391639D02*
X6561571Y-16382116D01*
X6561571Y-16382116D02*
X6552048Y-16363068D01*
X6552048Y-16363068D02*
X6533000Y-16353544D01*
X6533000Y-16353544D02*
X6504428Y-16353544D01*
X6504428Y-16353544D02*
X6485381Y-16344020D01*
X6485381Y-16344020D02*
X6475857Y-16324973D01*
X6475857Y-16324973D02*
X6475857Y-16315449D01*
X6475857Y-16315449D02*
X6485381Y-16296401D01*
X6485381Y-16296401D02*
X6504428Y-16286878D01*
X6504428Y-16286878D02*
X6533000Y-16286878D01*
X6533000Y-16286878D02*
X6552048Y-16296401D01*
X6628238Y-16496401D02*
X6637762Y-16486878D01*
X6637762Y-16486878D02*
X6656809Y-16458306D01*
X6656809Y-16458306D02*
X6666333Y-16439259D01*
X6666333Y-16439259D02*
X6675857Y-16410687D01*
X6675857Y-16410687D02*
X6685381Y-16363068D01*
X6685381Y-16363068D02*
X6685381Y-16324973D01*
X6685381Y-16324973D02*
X6675857Y-16277354D01*
X6675857Y-16277354D02*
X6666333Y-16248782D01*
X6666333Y-16248782D02*
X6656809Y-16229735D01*
X6656809Y-16229735D02*
X6637762Y-16201163D01*
X6637762Y-16201163D02*
X6628238Y-16191639D01*
X6990143Y-16496401D02*
X6980619Y-16486878D01*
X6980619Y-16486878D02*
X6961571Y-16458306D01*
X6961571Y-16458306D02*
X6952048Y-16439259D01*
X6952048Y-16439259D02*
X6942524Y-16410687D01*
X6942524Y-16410687D02*
X6933000Y-16363068D01*
X6933000Y-16363068D02*
X6933000Y-16324973D01*
X6933000Y-16324973D02*
X6942524Y-16277354D01*
X6942524Y-16277354D02*
X6952048Y-16248782D01*
X6952048Y-16248782D02*
X6961571Y-16229735D01*
X6961571Y-16229735D02*
X6980619Y-16201163D01*
X6980619Y-16201163D02*
X6990143Y-16191639D01*
X7066333Y-16286878D02*
X7066333Y-16420211D01*
X7066333Y-16305925D02*
X7075857Y-16296401D01*
X7075857Y-16296401D02*
X7094905Y-16286878D01*
X7094905Y-16286878D02*
X7123476Y-16286878D01*
X7123476Y-16286878D02*
X7142524Y-16296401D01*
X7142524Y-16296401D02*
X7152048Y-16315449D01*
X7152048Y-16315449D02*
X7152048Y-16420211D01*
X7275857Y-16420211D02*
X7256809Y-16410687D01*
X7256809Y-16410687D02*
X7247286Y-16401163D01*
X7247286Y-16401163D02*
X7237762Y-16382116D01*
X7237762Y-16382116D02*
X7237762Y-16324973D01*
X7237762Y-16324973D02*
X7247286Y-16305925D01*
X7247286Y-16305925D02*
X7256809Y-16296401D01*
X7256809Y-16296401D02*
X7275857Y-16286878D01*
X7275857Y-16286878D02*
X7304429Y-16286878D01*
X7304429Y-16286878D02*
X7323476Y-16296401D01*
X7323476Y-16296401D02*
X7333000Y-16305925D01*
X7333000Y-16305925D02*
X7342524Y-16324973D01*
X7342524Y-16324973D02*
X7342524Y-16382116D01*
X7342524Y-16382116D02*
X7333000Y-16401163D01*
X7333000Y-16401163D02*
X7323476Y-16410687D01*
X7323476Y-16410687D02*
X7304429Y-16420211D01*
X7304429Y-16420211D02*
X7275857Y-16420211D01*
X7399667Y-16286878D02*
X7475857Y-16286878D01*
X7428238Y-16220211D02*
X7428238Y-16391639D01*
X7428238Y-16391639D02*
X7437762Y-16410687D01*
X7437762Y-16410687D02*
X7456809Y-16420211D01*
X7456809Y-16420211D02*
X7475857Y-16420211D01*
X7694905Y-16286878D02*
X7694905Y-16486878D01*
X7694905Y-16296401D02*
X7713952Y-16286878D01*
X7713952Y-16286878D02*
X7752048Y-16286878D01*
X7752048Y-16286878D02*
X7771095Y-16296401D01*
X7771095Y-16296401D02*
X7780619Y-16305925D01*
X7780619Y-16305925D02*
X7790143Y-16324973D01*
X7790143Y-16324973D02*
X7790143Y-16382116D01*
X7790143Y-16382116D02*
X7780619Y-16401163D01*
X7780619Y-16401163D02*
X7771095Y-16410687D01*
X7771095Y-16410687D02*
X7752048Y-16420211D01*
X7752048Y-16420211D02*
X7713952Y-16420211D01*
X7713952Y-16420211D02*
X7694905Y-16410687D01*
X7904429Y-16420211D02*
X7885381Y-16410687D01*
X7885381Y-16410687D02*
X7875857Y-16391639D01*
X7875857Y-16391639D02*
X7875857Y-16220211D01*
X8066333Y-16420211D02*
X8066333Y-16315449D01*
X8066333Y-16315449D02*
X8056810Y-16296401D01*
X8056810Y-16296401D02*
X8037762Y-16286878D01*
X8037762Y-16286878D02*
X7999667Y-16286878D01*
X7999667Y-16286878D02*
X7980619Y-16296401D01*
X8066333Y-16410687D02*
X8047286Y-16420211D01*
X8047286Y-16420211D02*
X7999667Y-16420211D01*
X7999667Y-16420211D02*
X7980619Y-16410687D01*
X7980619Y-16410687D02*
X7971095Y-16391639D01*
X7971095Y-16391639D02*
X7971095Y-16372592D01*
X7971095Y-16372592D02*
X7980619Y-16353544D01*
X7980619Y-16353544D02*
X7999667Y-16344020D01*
X7999667Y-16344020D02*
X8047286Y-16344020D01*
X8047286Y-16344020D02*
X8066333Y-16334497D01*
X8133000Y-16286878D02*
X8209190Y-16286878D01*
X8161571Y-16220211D02*
X8161571Y-16391639D01*
X8161571Y-16391639D02*
X8171095Y-16410687D01*
X8171095Y-16410687D02*
X8190143Y-16420211D01*
X8190143Y-16420211D02*
X8209190Y-16420211D01*
X8352048Y-16410687D02*
X8333000Y-16420211D01*
X8333000Y-16420211D02*
X8294905Y-16420211D01*
X8294905Y-16420211D02*
X8275857Y-16410687D01*
X8275857Y-16410687D02*
X8266333Y-16391639D01*
X8266333Y-16391639D02*
X8266333Y-16315449D01*
X8266333Y-16315449D02*
X8275857Y-16296401D01*
X8275857Y-16296401D02*
X8294905Y-16286878D01*
X8294905Y-16286878D02*
X8333000Y-16286878D01*
X8333000Y-16286878D02*
X8352048Y-16296401D01*
X8352048Y-16296401D02*
X8361571Y-16315449D01*
X8361571Y-16315449D02*
X8361571Y-16334497D01*
X8361571Y-16334497D02*
X8266333Y-16353544D01*
X8533000Y-16420211D02*
X8533000Y-16220211D01*
X8533000Y-16410687D02*
X8513953Y-16420211D01*
X8513953Y-16420211D02*
X8475857Y-16420211D01*
X8475857Y-16420211D02*
X8456810Y-16410687D01*
X8456810Y-16410687D02*
X8447286Y-16401163D01*
X8447286Y-16401163D02*
X8437762Y-16382116D01*
X8437762Y-16382116D02*
X8437762Y-16324973D01*
X8437762Y-16324973D02*
X8447286Y-16305925D01*
X8447286Y-16305925D02*
X8456810Y-16296401D01*
X8456810Y-16296401D02*
X8475857Y-16286878D01*
X8475857Y-16286878D02*
X8513953Y-16286878D01*
X8513953Y-16286878D02*
X8533000Y-16296401D01*
X8609191Y-16496401D02*
X8618714Y-16486878D01*
X8618714Y-16486878D02*
X8637762Y-16458306D01*
X8637762Y-16458306D02*
X8647286Y-16439259D01*
X8647286Y-16439259D02*
X8656810Y-16410687D01*
X8656810Y-16410687D02*
X8666333Y-16363068D01*
X8666333Y-16363068D02*
X8666333Y-16324973D01*
X8666333Y-16324973D02*
X8656810Y-16277354D01*
X8656810Y-16277354D02*
X8647286Y-16248782D01*
X8647286Y-16248782D02*
X8637762Y-16229735D01*
X8637762Y-16229735D02*
X8618714Y-16201163D01*
X8618714Y-16201163D02*
X8609191Y-16191639D01*
X1562699Y-16748727D02*
X1662699Y-16648727D01*
X1562699Y-16548727D01*
X1462699Y-16648727D01*
X1562699Y-16748727D01*
X1904428Y-16540211D02*
X2028238Y-16540211D01*
X2028238Y-16540211D02*
X1961571Y-16616401D01*
X1961571Y-16616401D02*
X1990142Y-16616401D01*
X1990142Y-16616401D02*
X2009190Y-16625925D01*
X2009190Y-16625925D02*
X2018714Y-16635449D01*
X2018714Y-16635449D02*
X2028238Y-16654497D01*
X2028238Y-16654497D02*
X2028238Y-16702116D01*
X2028238Y-16702116D02*
X2018714Y-16721163D01*
X2018714Y-16721163D02*
X2009190Y-16730687D01*
X2009190Y-16730687D02*
X1990142Y-16740211D01*
X1990142Y-16740211D02*
X1932999Y-16740211D01*
X1932999Y-16740211D02*
X1913952Y-16730687D01*
X1913952Y-16730687D02*
X1904428Y-16721163D01*
X2113952Y-16721163D02*
X2123476Y-16730687D01*
X2123476Y-16730687D02*
X2113952Y-16740211D01*
X2113952Y-16740211D02*
X2104428Y-16730687D01*
X2104428Y-16730687D02*
X2113952Y-16721163D01*
X2113952Y-16721163D02*
X2113952Y-16740211D01*
X2294904Y-16606878D02*
X2294904Y-16740211D01*
X2247285Y-16530687D02*
X2199666Y-16673544D01*
X2199666Y-16673544D02*
X2323476Y-16673544D01*
X2390142Y-16559259D02*
X2399666Y-16549735D01*
X2399666Y-16549735D02*
X2418714Y-16540211D01*
X2418714Y-16540211D02*
X2466333Y-16540211D01*
X2466333Y-16540211D02*
X2485381Y-16549735D01*
X2485381Y-16549735D02*
X2494904Y-16559259D01*
X2494904Y-16559259D02*
X2504428Y-16578306D01*
X2504428Y-16578306D02*
X2504428Y-16597354D01*
X2504428Y-16597354D02*
X2494904Y-16625925D01*
X2494904Y-16625925D02*
X2380619Y-16740211D01*
X2380619Y-16740211D02*
X2504428Y-16740211D01*
X2599666Y-16740211D02*
X2637761Y-16740211D01*
X2637761Y-16740211D02*
X2656809Y-16730687D01*
X2656809Y-16730687D02*
X2666333Y-16721163D01*
X2666333Y-16721163D02*
X2685381Y-16692592D01*
X2685381Y-16692592D02*
X2694904Y-16654497D01*
X2694904Y-16654497D02*
X2694904Y-16578306D01*
X2694904Y-16578306D02*
X2685381Y-16559259D01*
X2685381Y-16559259D02*
X2675857Y-16549735D01*
X2675857Y-16549735D02*
X2656809Y-16540211D01*
X2656809Y-16540211D02*
X2618714Y-16540211D01*
X2618714Y-16540211D02*
X2599666Y-16549735D01*
X2599666Y-16549735D02*
X2590142Y-16559259D01*
X2590142Y-16559259D02*
X2580619Y-16578306D01*
X2580619Y-16578306D02*
X2580619Y-16625925D01*
X2580619Y-16625925D02*
X2590142Y-16644973D01*
X2590142Y-16644973D02*
X2599666Y-16654497D01*
X2599666Y-16654497D02*
X2618714Y-16664020D01*
X2618714Y-16664020D02*
X2656809Y-16664020D01*
X2656809Y-16664020D02*
X2675857Y-16654497D01*
X2675857Y-16654497D02*
X2685381Y-16644973D01*
X2685381Y-16644973D02*
X2694904Y-16625925D01*
X2780619Y-16740211D02*
X2780619Y-16606878D01*
X2780619Y-16625925D02*
X2790142Y-16616401D01*
X2790142Y-16616401D02*
X2809190Y-16606878D01*
X2809190Y-16606878D02*
X2837761Y-16606878D01*
X2837761Y-16606878D02*
X2856809Y-16616401D01*
X2856809Y-16616401D02*
X2866333Y-16635449D01*
X2866333Y-16635449D02*
X2866333Y-16740211D01*
X2866333Y-16635449D02*
X2875857Y-16616401D01*
X2875857Y-16616401D02*
X2894904Y-16606878D01*
X2894904Y-16606878D02*
X2923476Y-16606878D01*
X2923476Y-16606878D02*
X2942523Y-16616401D01*
X2942523Y-16616401D02*
X2952047Y-16635449D01*
X2952047Y-16635449D02*
X2952047Y-16740211D01*
X3047285Y-16740211D02*
X3047285Y-16606878D01*
X3047285Y-16625925D02*
X3056809Y-16616401D01*
X3056809Y-16616401D02*
X3075857Y-16606878D01*
X3075857Y-16606878D02*
X3104428Y-16606878D01*
X3104428Y-16606878D02*
X3123476Y-16616401D01*
X3123476Y-16616401D02*
X3133000Y-16635449D01*
X3133000Y-16635449D02*
X3133000Y-16740211D01*
X3133000Y-16635449D02*
X3142523Y-16616401D01*
X3142523Y-16616401D02*
X3161571Y-16606878D01*
X3161571Y-16606878D02*
X3190142Y-16606878D01*
X3190142Y-16606878D02*
X3209190Y-16616401D01*
X3209190Y-16616401D02*
X3218714Y-16635449D01*
X3218714Y-16635449D02*
X3218714Y-16740211D01*
X3609190Y-16530687D02*
X3437762Y-16787830D01*
X3866333Y-16540211D02*
X3885381Y-16540211D01*
X3885381Y-16540211D02*
X3904428Y-16549735D01*
X3904428Y-16549735D02*
X3913952Y-16559259D01*
X3913952Y-16559259D02*
X3923476Y-16578306D01*
X3923476Y-16578306D02*
X3933000Y-16616401D01*
X3933000Y-16616401D02*
X3933000Y-16664020D01*
X3933000Y-16664020D02*
X3923476Y-16702116D01*
X3923476Y-16702116D02*
X3913952Y-16721163D01*
X3913952Y-16721163D02*
X3904428Y-16730687D01*
X3904428Y-16730687D02*
X3885381Y-16740211D01*
X3885381Y-16740211D02*
X3866333Y-16740211D01*
X3866333Y-16740211D02*
X3847285Y-16730687D01*
X3847285Y-16730687D02*
X3837762Y-16721163D01*
X3837762Y-16721163D02*
X3828238Y-16702116D01*
X3828238Y-16702116D02*
X3818714Y-16664020D01*
X3818714Y-16664020D02*
X3818714Y-16616401D01*
X3818714Y-16616401D02*
X3828238Y-16578306D01*
X3828238Y-16578306D02*
X3837762Y-16559259D01*
X3837762Y-16559259D02*
X3847285Y-16549735D01*
X3847285Y-16549735D02*
X3866333Y-16540211D01*
X4018714Y-16721163D02*
X4028238Y-16730687D01*
X4028238Y-16730687D02*
X4018714Y-16740211D01*
X4018714Y-16740211D02*
X4009190Y-16730687D01*
X4009190Y-16730687D02*
X4018714Y-16721163D01*
X4018714Y-16721163D02*
X4018714Y-16740211D01*
X4218714Y-16740211D02*
X4104428Y-16740211D01*
X4161571Y-16740211D02*
X4161571Y-16540211D01*
X4161571Y-16540211D02*
X4142523Y-16568782D01*
X4142523Y-16568782D02*
X4123476Y-16587830D01*
X4123476Y-16587830D02*
X4104428Y-16597354D01*
X4285381Y-16540211D02*
X4409190Y-16540211D01*
X4409190Y-16540211D02*
X4342524Y-16616401D01*
X4342524Y-16616401D02*
X4371095Y-16616401D01*
X4371095Y-16616401D02*
X4390143Y-16625925D01*
X4390143Y-16625925D02*
X4399666Y-16635449D01*
X4399666Y-16635449D02*
X4409190Y-16654497D01*
X4409190Y-16654497D02*
X4409190Y-16702116D01*
X4409190Y-16702116D02*
X4399666Y-16721163D01*
X4399666Y-16721163D02*
X4390143Y-16730687D01*
X4390143Y-16730687D02*
X4371095Y-16740211D01*
X4371095Y-16740211D02*
X4313952Y-16740211D01*
X4313952Y-16740211D02*
X4294905Y-16730687D01*
X4294905Y-16730687D02*
X4285381Y-16721163D01*
X4590143Y-16540211D02*
X4494905Y-16540211D01*
X4494905Y-16540211D02*
X4485381Y-16635449D01*
X4485381Y-16635449D02*
X4494905Y-16625925D01*
X4494905Y-16625925D02*
X4513952Y-16616401D01*
X4513952Y-16616401D02*
X4561571Y-16616401D01*
X4561571Y-16616401D02*
X4580619Y-16625925D01*
X4580619Y-16625925D02*
X4590143Y-16635449D01*
X4590143Y-16635449D02*
X4599666Y-16654497D01*
X4599666Y-16654497D02*
X4599666Y-16702116D01*
X4599666Y-16702116D02*
X4590143Y-16721163D01*
X4590143Y-16721163D02*
X4580619Y-16730687D01*
X4580619Y-16730687D02*
X4561571Y-16740211D01*
X4561571Y-16740211D02*
X4513952Y-16740211D01*
X4513952Y-16740211D02*
X4494905Y-16730687D01*
X4494905Y-16730687D02*
X4485381Y-16721163D01*
X4723476Y-16540211D02*
X4742524Y-16540211D01*
X4742524Y-16540211D02*
X4761571Y-16549735D01*
X4761571Y-16549735D02*
X4771095Y-16559259D01*
X4771095Y-16559259D02*
X4780619Y-16578306D01*
X4780619Y-16578306D02*
X4790143Y-16616401D01*
X4790143Y-16616401D02*
X4790143Y-16664020D01*
X4790143Y-16664020D02*
X4780619Y-16702116D01*
X4780619Y-16702116D02*
X4771095Y-16721163D01*
X4771095Y-16721163D02*
X4761571Y-16730687D01*
X4761571Y-16730687D02*
X4742524Y-16740211D01*
X4742524Y-16740211D02*
X4723476Y-16740211D01*
X4723476Y-16740211D02*
X4704428Y-16730687D01*
X4704428Y-16730687D02*
X4694905Y-16721163D01*
X4694905Y-16721163D02*
X4685381Y-16702116D01*
X4685381Y-16702116D02*
X4675857Y-16664020D01*
X4675857Y-16664020D02*
X4675857Y-16616401D01*
X4675857Y-16616401D02*
X4685381Y-16578306D01*
X4685381Y-16578306D02*
X4694905Y-16559259D01*
X4694905Y-16559259D02*
X4704428Y-16549735D01*
X4704428Y-16549735D02*
X4723476Y-16540211D01*
X4866333Y-16540211D02*
X4866333Y-16578306D01*
X4942524Y-16540211D02*
X4942524Y-16578306D01*
X5237762Y-16816401D02*
X5228238Y-16806878D01*
X5228238Y-16806878D02*
X5209190Y-16778306D01*
X5209190Y-16778306D02*
X5199667Y-16759259D01*
X5199667Y-16759259D02*
X5190143Y-16730687D01*
X5190143Y-16730687D02*
X5180619Y-16683068D01*
X5180619Y-16683068D02*
X5180619Y-16644973D01*
X5180619Y-16644973D02*
X5190143Y-16597354D01*
X5190143Y-16597354D02*
X5199667Y-16568782D01*
X5199667Y-16568782D02*
X5209190Y-16549735D01*
X5209190Y-16549735D02*
X5228238Y-16521163D01*
X5228238Y-16521163D02*
X5237762Y-16511639D01*
X5399667Y-16606878D02*
X5399667Y-16740211D01*
X5352047Y-16530687D02*
X5304428Y-16673544D01*
X5304428Y-16673544D02*
X5428238Y-16673544D01*
X5494905Y-16559259D02*
X5504428Y-16549735D01*
X5504428Y-16549735D02*
X5523476Y-16540211D01*
X5523476Y-16540211D02*
X5571095Y-16540211D01*
X5571095Y-16540211D02*
X5590143Y-16549735D01*
X5590143Y-16549735D02*
X5599666Y-16559259D01*
X5599666Y-16559259D02*
X5609190Y-16578306D01*
X5609190Y-16578306D02*
X5609190Y-16597354D01*
X5609190Y-16597354D02*
X5599666Y-16625925D01*
X5599666Y-16625925D02*
X5485381Y-16740211D01*
X5485381Y-16740211D02*
X5609190Y-16740211D01*
X5847286Y-16740211D02*
X5847286Y-16540211D01*
X5933000Y-16740211D02*
X5933000Y-16635449D01*
X5933000Y-16635449D02*
X5923476Y-16616401D01*
X5923476Y-16616401D02*
X5904428Y-16606878D01*
X5904428Y-16606878D02*
X5875857Y-16606878D01*
X5875857Y-16606878D02*
X5856809Y-16616401D01*
X5856809Y-16616401D02*
X5847286Y-16625925D01*
X6056809Y-16740211D02*
X6037762Y-16730687D01*
X6037762Y-16730687D02*
X6028238Y-16721163D01*
X6028238Y-16721163D02*
X6018714Y-16702116D01*
X6018714Y-16702116D02*
X6018714Y-16644973D01*
X6018714Y-16644973D02*
X6028238Y-16625925D01*
X6028238Y-16625925D02*
X6037762Y-16616401D01*
X6037762Y-16616401D02*
X6056809Y-16606878D01*
X6056809Y-16606878D02*
X6085381Y-16606878D01*
X6085381Y-16606878D02*
X6104428Y-16616401D01*
X6104428Y-16616401D02*
X6113952Y-16625925D01*
X6113952Y-16625925D02*
X6123476Y-16644973D01*
X6123476Y-16644973D02*
X6123476Y-16702116D01*
X6123476Y-16702116D02*
X6113952Y-16721163D01*
X6113952Y-16721163D02*
X6104428Y-16730687D01*
X6104428Y-16730687D02*
X6085381Y-16740211D01*
X6085381Y-16740211D02*
X6056809Y-16740211D01*
X6237762Y-16740211D02*
X6218714Y-16730687D01*
X6218714Y-16730687D02*
X6209190Y-16711639D01*
X6209190Y-16711639D02*
X6209190Y-16540211D01*
X6390143Y-16730687D02*
X6371095Y-16740211D01*
X6371095Y-16740211D02*
X6333000Y-16740211D01*
X6333000Y-16740211D02*
X6313952Y-16730687D01*
X6313952Y-16730687D02*
X6304428Y-16711639D01*
X6304428Y-16711639D02*
X6304428Y-16635449D01*
X6304428Y-16635449D02*
X6313952Y-16616401D01*
X6313952Y-16616401D02*
X6333000Y-16606878D01*
X6333000Y-16606878D02*
X6371095Y-16606878D01*
X6371095Y-16606878D02*
X6390143Y-16616401D01*
X6390143Y-16616401D02*
X6399667Y-16635449D01*
X6399667Y-16635449D02*
X6399667Y-16654497D01*
X6399667Y-16654497D02*
X6304428Y-16673544D01*
X6475857Y-16730687D02*
X6494905Y-16740211D01*
X6494905Y-16740211D02*
X6533000Y-16740211D01*
X6533000Y-16740211D02*
X6552048Y-16730687D01*
X6552048Y-16730687D02*
X6561571Y-16711639D01*
X6561571Y-16711639D02*
X6561571Y-16702116D01*
X6561571Y-16702116D02*
X6552048Y-16683068D01*
X6552048Y-16683068D02*
X6533000Y-16673544D01*
X6533000Y-16673544D02*
X6504428Y-16673544D01*
X6504428Y-16673544D02*
X6485381Y-16664020D01*
X6485381Y-16664020D02*
X6475857Y-16644973D01*
X6475857Y-16644973D02*
X6475857Y-16635449D01*
X6475857Y-16635449D02*
X6485381Y-16616401D01*
X6485381Y-16616401D02*
X6504428Y-16606878D01*
X6504428Y-16606878D02*
X6533000Y-16606878D01*
X6533000Y-16606878D02*
X6552048Y-16616401D01*
X6628238Y-16816401D02*
X6637762Y-16806878D01*
X6637762Y-16806878D02*
X6656809Y-16778306D01*
X6656809Y-16778306D02*
X6666333Y-16759259D01*
X6666333Y-16759259D02*
X6675857Y-16730687D01*
X6675857Y-16730687D02*
X6685381Y-16683068D01*
X6685381Y-16683068D02*
X6685381Y-16644973D01*
X6685381Y-16644973D02*
X6675857Y-16597354D01*
X6675857Y-16597354D02*
X6666333Y-16568782D01*
X6666333Y-16568782D02*
X6656809Y-16549735D01*
X6656809Y-16549735D02*
X6637762Y-16521163D01*
X6637762Y-16521163D02*
X6628238Y-16511639D01*
X6990143Y-16816401D02*
X6980619Y-16806878D01*
X6980619Y-16806878D02*
X6961571Y-16778306D01*
X6961571Y-16778306D02*
X6952048Y-16759259D01*
X6952048Y-16759259D02*
X6942524Y-16730687D01*
X6942524Y-16730687D02*
X6933000Y-16683068D01*
X6933000Y-16683068D02*
X6933000Y-16644973D01*
X6933000Y-16644973D02*
X6942524Y-16597354D01*
X6942524Y-16597354D02*
X6952048Y-16568782D01*
X6952048Y-16568782D02*
X6961571Y-16549735D01*
X6961571Y-16549735D02*
X6980619Y-16521163D01*
X6980619Y-16521163D02*
X6990143Y-16511639D01*
X7066333Y-16606878D02*
X7066333Y-16740211D01*
X7066333Y-16625925D02*
X7075857Y-16616401D01*
X7075857Y-16616401D02*
X7094905Y-16606878D01*
X7094905Y-16606878D02*
X7123476Y-16606878D01*
X7123476Y-16606878D02*
X7142524Y-16616401D01*
X7142524Y-16616401D02*
X7152048Y-16635449D01*
X7152048Y-16635449D02*
X7152048Y-16740211D01*
X7275857Y-16740211D02*
X7256809Y-16730687D01*
X7256809Y-16730687D02*
X7247286Y-16721163D01*
X7247286Y-16721163D02*
X7237762Y-16702116D01*
X7237762Y-16702116D02*
X7237762Y-16644973D01*
X7237762Y-16644973D02*
X7247286Y-16625925D01*
X7247286Y-16625925D02*
X7256809Y-16616401D01*
X7256809Y-16616401D02*
X7275857Y-16606878D01*
X7275857Y-16606878D02*
X7304429Y-16606878D01*
X7304429Y-16606878D02*
X7323476Y-16616401D01*
X7323476Y-16616401D02*
X7333000Y-16625925D01*
X7333000Y-16625925D02*
X7342524Y-16644973D01*
X7342524Y-16644973D02*
X7342524Y-16702116D01*
X7342524Y-16702116D02*
X7333000Y-16721163D01*
X7333000Y-16721163D02*
X7323476Y-16730687D01*
X7323476Y-16730687D02*
X7304429Y-16740211D01*
X7304429Y-16740211D02*
X7275857Y-16740211D01*
X7399667Y-16606878D02*
X7475857Y-16606878D01*
X7428238Y-16540211D02*
X7428238Y-16711639D01*
X7428238Y-16711639D02*
X7437762Y-16730687D01*
X7437762Y-16730687D02*
X7456809Y-16740211D01*
X7456809Y-16740211D02*
X7475857Y-16740211D01*
X7694905Y-16606878D02*
X7694905Y-16806878D01*
X7694905Y-16616401D02*
X7713952Y-16606878D01*
X7713952Y-16606878D02*
X7752048Y-16606878D01*
X7752048Y-16606878D02*
X7771095Y-16616401D01*
X7771095Y-16616401D02*
X7780619Y-16625925D01*
X7780619Y-16625925D02*
X7790143Y-16644973D01*
X7790143Y-16644973D02*
X7790143Y-16702116D01*
X7790143Y-16702116D02*
X7780619Y-16721163D01*
X7780619Y-16721163D02*
X7771095Y-16730687D01*
X7771095Y-16730687D02*
X7752048Y-16740211D01*
X7752048Y-16740211D02*
X7713952Y-16740211D01*
X7713952Y-16740211D02*
X7694905Y-16730687D01*
X7904429Y-16740211D02*
X7885381Y-16730687D01*
X7885381Y-16730687D02*
X7875857Y-16711639D01*
X7875857Y-16711639D02*
X7875857Y-16540211D01*
X8066333Y-16740211D02*
X8066333Y-16635449D01*
X8066333Y-16635449D02*
X8056810Y-16616401D01*
X8056810Y-16616401D02*
X8037762Y-16606878D01*
X8037762Y-16606878D02*
X7999667Y-16606878D01*
X7999667Y-16606878D02*
X7980619Y-16616401D01*
X8066333Y-16730687D02*
X8047286Y-16740211D01*
X8047286Y-16740211D02*
X7999667Y-16740211D01*
X7999667Y-16740211D02*
X7980619Y-16730687D01*
X7980619Y-16730687D02*
X7971095Y-16711639D01*
X7971095Y-16711639D02*
X7971095Y-16692592D01*
X7971095Y-16692592D02*
X7980619Y-16673544D01*
X7980619Y-16673544D02*
X7999667Y-16664020D01*
X7999667Y-16664020D02*
X8047286Y-16664020D01*
X8047286Y-16664020D02*
X8066333Y-16654497D01*
X8133000Y-16606878D02*
X8209190Y-16606878D01*
X8161571Y-16540211D02*
X8161571Y-16711639D01*
X8161571Y-16711639D02*
X8171095Y-16730687D01*
X8171095Y-16730687D02*
X8190143Y-16740211D01*
X8190143Y-16740211D02*
X8209190Y-16740211D01*
X8352048Y-16730687D02*
X8333000Y-16740211D01*
X8333000Y-16740211D02*
X8294905Y-16740211D01*
X8294905Y-16740211D02*
X8275857Y-16730687D01*
X8275857Y-16730687D02*
X8266333Y-16711639D01*
X8266333Y-16711639D02*
X8266333Y-16635449D01*
X8266333Y-16635449D02*
X8275857Y-16616401D01*
X8275857Y-16616401D02*
X8294905Y-16606878D01*
X8294905Y-16606878D02*
X8333000Y-16606878D01*
X8333000Y-16606878D02*
X8352048Y-16616401D01*
X8352048Y-16616401D02*
X8361571Y-16635449D01*
X8361571Y-16635449D02*
X8361571Y-16654497D01*
X8361571Y-16654497D02*
X8266333Y-16673544D01*
X8533000Y-16740211D02*
X8533000Y-16540211D01*
X8533000Y-16730687D02*
X8513953Y-16740211D01*
X8513953Y-16740211D02*
X8475857Y-16740211D01*
X8475857Y-16740211D02*
X8456810Y-16730687D01*
X8456810Y-16730687D02*
X8447286Y-16721163D01*
X8447286Y-16721163D02*
X8437762Y-16702116D01*
X8437762Y-16702116D02*
X8437762Y-16644973D01*
X8437762Y-16644973D02*
X8447286Y-16625925D01*
X8447286Y-16625925D02*
X8456810Y-16616401D01*
X8456810Y-16616401D02*
X8475857Y-16606878D01*
X8475857Y-16606878D02*
X8513953Y-16606878D01*
X8513953Y-16606878D02*
X8533000Y-16616401D01*
X8609191Y-16816401D02*
X8618714Y-16806878D01*
X8618714Y-16806878D02*
X8637762Y-16778306D01*
X8637762Y-16778306D02*
X8647286Y-16759259D01*
X8647286Y-16759259D02*
X8656810Y-16730687D01*
X8656810Y-16730687D02*
X8666333Y-16683068D01*
X8666333Y-16683068D02*
X8666333Y-16644973D01*
X8666333Y-16644973D02*
X8656810Y-16597354D01*
X8656810Y-16597354D02*
X8647286Y-16568782D01*
X8647286Y-16568782D02*
X8637762Y-16549735D01*
X8637762Y-16549735D02*
X8618714Y-16521163D01*
X8618714Y-16521163D02*
X8609191Y-16511639D01*
M02*
