G04 #@! TF.GenerationSoftware,KiCad,Pcbnew,8.0.4*
G04 #@! TF.CreationDate,2024-09-01T13:46:42+07:00*
G04 #@! TF.ProjectId,ozprey,6f7a7072-6579-42e6-9b69-6361645f7063,1.0*
G04 #@! TF.SameCoordinates,Original*
G04 #@! TF.FileFunction,Paste,Bot*
G04 #@! TF.FilePolarity,Positive*
%FSLAX46Y46*%
G04 Gerber Fmt 4.6, Leading zero omitted, Abs format (unit mm)*
G04 Created by KiCad (PCBNEW 8.0.4) date 2024-09-01 13:46:42*
%MOMM*%
%LPD*%
G01*
G04 APERTURE LIST*
G04 Aperture macros list*
%AMRotRect*
0 Rectangle, with rotation*
0 The origin of the aperture is its center*
0 $1 length*
0 $2 width*
0 $3 Rotation angle, in degrees counterclockwise*
0 Add horizontal line*
21,1,$1,$2,0,0,$3*%
G04 Aperture macros list end*
%ADD10R,1.000000X1.700000*%
%ADD11RotRect,2.600000X2.600000X162.000000*%
%ADD12RotRect,2.600000X2.600000X198.000000*%
G04 APERTURE END LIST*
D10*
G04 #@! TO.C,RST2*
X146320707Y-64747832D03*
X146320707Y-71047832D03*
X150120707Y-64747832D03*
X150120707Y-71047832D03*
G04 #@! TD*
D11*
G04 #@! TO.C,SW13*
X87679466Y-113207225D03*
X77374601Y-107545754D03*
G04 #@! TD*
D12*
G04 #@! TO.C,SW25*
X187586837Y-128643446D03*
X175922297Y-130120268D03*
G04 #@! TD*
D11*
G04 #@! TO.C,SW17*
X103500666Y-122764025D03*
X93195801Y-117102554D03*
G04 #@! TD*
G04 #@! TO.C,SW21*
X123601566Y-133711325D03*
X113296701Y-128049854D03*
G04 #@! TD*
D12*
G04 #@! TO.C,SW29*
X207687737Y-117696146D03*
X196023197Y-119172968D03*
G04 #@! TD*
G04 #@! TO.C,SW33*
X223508837Y-108139346D03*
X211844297Y-109616168D03*
G04 #@! TD*
D11*
G04 #@! TO.C,SW3*
X37682066Y-92335725D03*
X27377201Y-86674254D03*
G04 #@! TD*
G04 #@! TO.C,SW6*
X56098966Y-93903525D03*
X45794101Y-88242054D03*
G04 #@! TD*
G04 #@! TO.C,SW9*
X74515866Y-95471425D03*
X64211001Y-89809954D03*
G04 #@! TD*
G04 #@! TO.C,SW12*
X92932766Y-97039325D03*
X82627901Y-91377854D03*
G04 #@! TD*
G04 #@! TO.C,SW16*
X108753866Y-106596025D03*
X98449001Y-100934554D03*
G04 #@! TD*
G04 #@! TO.C,SW20*
X124575066Y-116152825D03*
X114270201Y-110491354D03*
G04 #@! TD*
D12*
G04 #@! TO.C,SW24*
X186613337Y-111084946D03*
X174948797Y-112561768D03*
G04 #@! TD*
G04 #@! TO.C,SW28*
X202434437Y-101528146D03*
X190769897Y-103004968D03*
G04 #@! TD*
G04 #@! TO.C,SW32*
X218255537Y-91971446D03*
X206590997Y-93448268D03*
G04 #@! TD*
G04 #@! TO.C,SW36*
X236672437Y-90403546D03*
X225007897Y-91880368D03*
G04 #@! TD*
G04 #@! TO.C,SW39*
X255089337Y-88835646D03*
X243424797Y-90312468D03*
G04 #@! TD*
G04 #@! TO.C,SW42*
X273506237Y-87267846D03*
X261841697Y-88744668D03*
G04 #@! TD*
D11*
G04 #@! TO.C,SW2*
X42935366Y-76167725D03*
X32630501Y-70506254D03*
G04 #@! TD*
G04 #@! TO.C,SW5*
X61352266Y-77735625D03*
X51047401Y-72074154D03*
G04 #@! TD*
G04 #@! TO.C,SW8*
X79769166Y-79303425D03*
X69464301Y-73641954D03*
G04 #@! TD*
G04 #@! TO.C,SW11*
X98186066Y-80871325D03*
X87881201Y-75209854D03*
G04 #@! TD*
G04 #@! TO.C,SW15*
X114007166Y-90428125D03*
X103702301Y-84766654D03*
G04 #@! TD*
G04 #@! TO.C,SW19*
X129828366Y-99984825D03*
X119523501Y-94323354D03*
G04 #@! TD*
D12*
G04 #@! TO.C,SW23*
X181360037Y-94916946D03*
X169695497Y-96393768D03*
G04 #@! TD*
G04 #@! TO.C,SW27*
X197181137Y-85360246D03*
X185516597Y-86837068D03*
G04 #@! TD*
G04 #@! TO.C,SW31*
X213002337Y-75803446D03*
X201337797Y-77280268D03*
G04 #@! TD*
G04 #@! TO.C,SW35*
X231419137Y-74235546D03*
X219754597Y-75712368D03*
G04 #@! TD*
G04 #@! TO.C,SW38*
X249836037Y-72667746D03*
X238171497Y-74144568D03*
G04 #@! TD*
G04 #@! TO.C,SW41*
X268252937Y-71099846D03*
X256588397Y-72576668D03*
G04 #@! TD*
D11*
G04 #@! TO.C,SW1*
X48188666Y-59999725D03*
X37883801Y-54338254D03*
G04 #@! TD*
G04 #@! TO.C,SW4*
X66605566Y-61567625D03*
X56300701Y-55906154D03*
G04 #@! TD*
G04 #@! TO.C,SW7*
X85022466Y-63135525D03*
X74717601Y-57474054D03*
G04 #@! TD*
G04 #@! TO.C,SW10*
X103439366Y-64703425D03*
X93134501Y-59041954D03*
G04 #@! TD*
G04 #@! TO.C,SW14*
X119260466Y-74260125D03*
X108955601Y-68598654D03*
G04 #@! TD*
G04 #@! TO.C,SW18*
X135081666Y-83816825D03*
X124776801Y-78155354D03*
G04 #@! TD*
D12*
G04 #@! TO.C,SW22*
X176106737Y-78748946D03*
X164442197Y-80225768D03*
G04 #@! TD*
G04 #@! TO.C,SW26*
X191927837Y-69192246D03*
X180263297Y-70669068D03*
G04 #@! TD*
G04 #@! TO.C,SW30*
X207749037Y-59635546D03*
X196084497Y-61112368D03*
G04 #@! TD*
G04 #@! TO.C,SW34*
X226165937Y-58067646D03*
X214501397Y-59544468D03*
G04 #@! TD*
G04 #@! TO.C,SW37*
X244582737Y-56499746D03*
X232918197Y-57976568D03*
G04 #@! TD*
G04 #@! TO.C,SW40*
X262999637Y-54931846D03*
X251335097Y-56408668D03*
G04 #@! TD*
M02*
